#N canvas 0 0 450 404 10;
#X obj 20 236 #peek~;
#X obj 20 263 /~ 256;
#X obj 20 289 hip~ 5;
#X obj 11 321 dac~;
#X obj 150 116 #in;
#X obj 150 147 #rgb_to_greyscale;
#X obj 150 183 #dim;
#X obj 150 205 #to_list;
#X obj 150 227 unpack f f f;
#X obj 20 126 *~ 0.5;
#X obj 21 149 +~ 0.5;
#X obj 21 177 *~ 1;
#X obj 82 125 *~ 0.5;
#X obj 83 148 +~ 0.5;
#X obj 83 176 *~ 1;
#X obj 150 30 bng 15 250 50 0 empty empty empty 17 7 0 10 -262144 -1
-1;
#X obj 150 58 openpanel;
#X msg 150 86 load \$1;
#X obj 239 225 #out window;
#X obj 239 202 #greyscale_to_rgb;
#X obj 83 103 osc~ 60.1;
#X obj 21 104 osc~ 59.9;
#X connect 0 0 1 0;
#X connect 1 0 2 0;
#X connect 2 0 3 1;
#X connect 2 0 3 0;
#X connect 4 0 5 0;
#X connect 5 0 0 2;
#X connect 5 0 6 0;
#X connect 5 0 19 0;
#X connect 6 0 7 0;
#X connect 7 0 8 0;
#X connect 8 0 11 1;
#X connect 8 1 14 1;
#X connect 9 0 10 0;
#X connect 10 0 11 0;
#X connect 11 0 0 0;
#X connect 12 0 13 0;
#X connect 13 0 14 0;
#X connect 14 0 0 1;
#X connect 15 0 16 0;
#X connect 16 0 17 0;
#X connect 17 0 4 0;
#X connect 19 0 18 0;
#X connect 20 0 12 0;
#X connect 21 0 9 0;
