#N canvas 0 0 1217 516 10;
#X obj 25 28 trigseq;
#X obj 617 7 pass pos;
#X obj 617 28 trigseq;
#X obj 693 -14 loadbang;
#X msg 100 2 start;
#X text 27 3 voila...;
#X obj 25 248 trigseq;
#X obj 533 173 pass pos;
#X obj 617 248 trigseq;
#X obj 726 199 loadbang;
#X msg 100 222 start;
#X msg 552 193 trig;
#X msg 726 220 c_ext 1 \, len 24;
#X msg 693 7 c_ext 1 \, sync 0;
#N canvas 0 0 450 300 init 0;
#X obj 67 57 loadbang;
#X obj 65 173 outlet;
#X msg 68 140 dense1 30;
#X connect 0 0 2 0;
#X connect 2 0 1 0;
#X restore 483 5 pd init;
#X text 22 222 using trig;
#X obj 590 173 pass sync;
#X obj 25 384 route t1;
#X obj 617 385 route t1;
#X obj 25 405 tgl 15 0 empty empty empty 17 7 0 10 -262144 -1 -1 0
1;
#X obj 617 406 tgl 15 0 empty empty empty 17 7 0 10 -262144 -1 -1 0
1;
#X obj 172 386 clik~;
#X obj 474 385 clik~;
#N canvas 0 0 450 300 init 0;
#X obj 66 95 loadbang;
#X obj 31 212 outlet;
#X obj 290 217 outlet;
#X msg 20 128 aa 10 \, da 180 \, arand 50 \, abias -0.5 \, feg 11000
\, pitch 34 \, af 4 \, df 80 \, frand 50 \, fbias -0.7 \, on 1;
#X msg 75 170 aa 10 \, da 180 \, arand 50 \, abias -0.5 \, feg 11000
\, pitch 54 \, af 4 \, df 60 \, frand 50 \, fbias -0.7 \, on 1;
#X connect 0 0 3 0;
#X connect 0 0 4 0;
#X connect 3 0 1 0;
#X connect 4 0 2 0;
#X restore 283 385 pd init;
#X text 167 -9 the same step at the same time (overrides start/length/div/num.tempo/step
of second machine).;
#X obj 590 193 bng 15 250 50 0 empty empty empty 17 7 0 10 -262144
-1 -1;
#X msg 839 220 c_ext 0 \, sync 1 \, div 6;
#X text 842 175 slip into a poly!;
#N canvas 0 0 450 300 sync-workaround 0;
#X floatatom 235 125 5 0 0 0 - - -;
#X obj 100 165 spigot;
#X msg 146 160 1;
#X obj 169 126 delay;
#X obj 235 105 route dur pos;
#X floatatom 272 125 5 0 0 0 - - -;
#X msg 197 105 bang;
#X msg 141 138 0;
#X obj 235 74 inlet;
#X obj 96 69 inlet;
#X obj 97 217 outlet;
#X obj 216 191 loadbang;
#X text 168 45 UGLY \, huh?;
#X msg 155 196 tempo;
#X obj 235 144 * 0.08;
#X connect 0 0 14 0;
#X connect 1 0 10 0;
#X connect 2 0 1 1;
#X connect 3 0 2 0;
#X connect 4 0 0 0;
#X connect 4 1 5 0;
#X connect 5 0 6 0;
#X connect 6 0 3 0;
#X connect 6 0 7 0;
#X connect 7 0 1 1;
#X connect 8 0 4 0;
#X connect 9 0 1 0;
#X connect 11 0 13 0;
#X connect 13 0 10 0;
#X connect 14 0 3 1;
#X restore 604 214 pd sync-workaround;
#N canvas 0 0 450 300 init 0;
#X obj 72 105 loadbang;
#X obj 65 173 outlet;
#X msg 67 139 dense1 90 \, tempo 30;
#X connect 0 0 2 0;
#X connect 2 0 1 0;
#X restore 326 221 pd init;
#X text 843 186 but beware! this slips when it's banged.;
#X text 826 197 how to keep the 1st bar in time?;
#X msg 163 219 stop;
#X obj 324 418 stmix~;
#X obj 329 457 dac~;
#N canvas 0 0 450 300 sync2 0;
#X obj 118 80 inlet;
#X obj 243 75 inlet;
#X obj 123 209 outlet;
#X obj 128 142 spigot;
#X msg 185 126 1;
#X msg 181 150 0;
#X connect 0 0 3 0;
#X connect 1 0 4 0;
#X connect 3 0 2 0;
#X connect 3 0 5 0;
#X connect 4 0 3 1;
#X connect 5 0 3 1;
#X restore 1111 222 pd sync2;
#X obj 1155 201 bng 15 250 50 0 empty empty like_this: -61 7 0 10 -262144
-1 -1;
#X connect 0 1 1 0;
#X connect 1 0 2 0;
#X connect 3 0 13 0;
#X connect 4 0 0 0;
#X connect 4 0 2 0;
#X connect 6 0 17 0;
#X connect 6 1 7 0;
#X connect 6 1 16 0;
#X connect 7 0 11 0;
#X connect 8 0 18 0;
#X connect 8 1 28 1;
#X connect 9 0 12 0;
#X connect 10 0 6 0;
#X connect 10 0 8 0;
#X connect 11 0 8 0;
#X connect 11 0 35 0;
#X connect 12 0 8 0;
#X connect 13 0 2 0;
#X connect 14 0 2 0;
#X connect 14 0 0 0;
#X connect 16 0 25 0;
#X connect 17 0 19 0;
#X connect 17 0 21 0;
#X connect 18 0 20 0;
#X connect 18 0 22 0;
#X connect 21 0 33 0;
#X connect 22 0 33 1;
#X connect 23 0 21 1;
#X connect 23 1 22 1;
#X connect 25 0 28 0;
#X connect 26 0 8 0;
#X connect 28 0 8 0;
#X connect 29 0 6 0;
#X connect 29 0 8 0;
#X connect 32 0 6 0;
#X connect 32 0 8 0;
#X connect 33 0 34 0;
#X connect 33 1 34 1;
#X connect 35 0 26 0;
#X connect 36 0 35 1;
