#N canvas 342 156 1029 816 10;
#X obj 251 66 gemhead;
#X obj 286 202 openpanel;
#X msg 286 223 open \$1;
#X obj 286 181 bng 15 250 50 0 empty empty empty 17 7 0 10 -257985
-1 -1;
#X obj 631 66 gemhead;
#X obj 631 274 pix_texture;
#X obj 666 202 openpanel;
#X msg 666 223 open \$1;
#X obj 666 181 bng 15 250 50 0 empty empty empty 17 7 0 10 -257985
-1 -1;
#X obj 637 398 cnv 15 100 60 empty empty empty 20 12 0 14 -195568 -66577
0;
#N canvas 1 92 450 300 gemwin 0;
#X obj 90 185 gemwin;
#X obj 67 89 outlet;
#X obj 67 10 inlet;
#X obj 67 41 route create;
#X msg 67 70 set destroy;
#X msg 142 68 set create;
#X msg 267 116 destroy;
#X obj 38 109 t b b;
#X msg 38 130 create \, 1;
#X msg 110 130 dimen 800 600;
#X obj 110 152 s \$0-glsl;
#X connect 2 0 3 0;
#X connect 3 0 4 0;
#X connect 3 0 7 0;
#X connect 3 1 5 0;
#X connect 3 1 6 0;
#X connect 4 0 1 0;
#X connect 5 0 1 0;
#X connect 6 0 0 0;
#X connect 7 0 8 0;
#X connect 7 1 9 0;
#X connect 8 0 0 0;
#X connect 9 0 0 0;
#X connect 9 0 10 0;
#X restore 642 437 pd gemwin;
#X msg 642 418 destroy;
#X text 638 397 Create window:;
#X obj 101 358 cnv 15 100 120 empty empty empty 20 12 0 14 -4034 -66577
0;
#X obj 37 538 glsl_program;
#X obj 37 94 glsl_fragment;
#X obj 37 21 gemhead 51;
#X msg 109 371 add;
#X msg 109 431 multiply;
#X msg 109 451 mix;
#N canvas 0 50 450 300 route 0;
#X obj 113 53 inlet;
#X msg 113 95 0;
#X msg 155 95 1;
#X msg 198 95 2;
#X msg 240 95 3;
#X obj 113 126 outlet;
#X msg 283 95 4;
#X obj 113 74 route add subtract diff multiply mix;
#X connect 0 0 7 0;
#X connect 1 0 5 0;
#X connect 2 0 5 0;
#X connect 3 0 5 0;
#X connect 4 0 5 0;
#X connect 6 0 5 0;
#X connect 7 0 1 0;
#X connect 7 1 2 0;
#X connect 7 2 3 0;
#X connect 7 3 4 0;
#X connect 7 4 6 0;
#X restore 72 486 pd route;
#X msg 72 507 style \$1;
#X obj 109 337 loadbang;
#X obj 142 457 hsl 50 10 0 1 0 0 empty empty MIX_FACTOR -2 -4 0 7 -262144
-1 -1 0 1;
#X msg 109 411 diff;
#X text 741 418 <- 1 : create GEM window;
#X text 248 375 add : add two texture together (it is easy to get a
white out);
#X msg 109 391 subtract;
#X text 249 16 This shader program give you the possibility to mix
two sources of different size. You can add \, subtract \, diff \, multiply
and mix the two sources.;
#X text 248 401 subtract : subtract two texture together (it is easy
to get a black out);
#X text 248 427 diff : subtract two texture together (get absolute
value);
#X text 248 441 multiply : multiply two texture together;
#X text 248 455 mix : mix two texture together (use the mix factor
for crossfading);
#X text 206 357 <- 2 : test differents mix;
#X obj 251 250 pix_image img3.jpg;
#X obj 631 250 pix_image img2.jpg;
#X msg 139 507 mix_factor \$1;
#X obj 224 683 pack;
#X obj 251 653 t b f;
#X msg 224 705 flip1 \$1 \$2;
#X obj 224 635 tgl 15 0 empty empty empty 17 7 0 10 -262144 -1 -1 1
1;
#X obj 251 635 tgl 15 0 empty empty empty 17 7 0 10 -262144 -1 -1 1
1;
#X obj 314 683 pack;
#X obj 341 653 t b f;
#X obj 314 635 tgl 15 0 empty empty empty 17 7 0 10 -262144 -1 -1 0
1;
#X obj 341 635 tgl 15 0 empty empty empty 17 7 0 10 -262144 -1 -1 0
1;
#X msg 314 705 flip2 \$1 \$2;
#X msg 112 115 link \$1;
#X obj 51 47 loadbang;
#X msg 106 565 Ttex1 1 \, Ttex2 2;
#X msg 51 71 open GLSL_mix_flip_size.frag;
#X obj 37 665 pix_texture;
#X obj 234 499 r \$0-glsl;
#X obj 234 543 list trim;
#X msg 234 565 dimen 800 600;
#X obj 234 521 list prepend set;
#X obj 37 686 rectangle 5.33 4;
#X msg 106 586 1;
#X msg 594 706 move1 \$1 \$2;
#X msg 684 706 move2 \$1 \$2;
#X obj 405 680 pack;
#X floatatom 405 633 5 0 0 0 - - -;
#X floatatom 445 633 5 0 0 0 - - -;
#X obj 445 652 t b f;
#X obj 495 680 pack;
#X floatatom 495 633 5 0 0 0 - - -;
#X floatatom 535 633 5 0 0 0 - - -;
#X obj 535 652 t b f;
#X msg 405 706 resize1 \$1 \$2;
#X msg 495 706 resize2 \$1 \$2;
#X obj 594 680 pack;
#X floatatom 594 633 5 0 0 0 - - -;
#X floatatom 634 633 5 0 0 0 - - -;
#X obj 634 652 t b f;
#X obj 684 680 pack;
#X floatatom 684 633 5 0 0 0 - - -;
#X floatatom 724 633 5 0 0 0 - - -;
#X obj 724 652 t b f;
#X obj 251 327 square 4;
#X obj 251 301 translateXYZ 0 0 -4;
#X obj 631 327 square 4;
#X obj 631 301 translateXYZ 0 0 -4;
#X obj 264 89 loadbang;
#X obj 644 89 loadbang;
#X obj 251 274 pix_texture;
#X obj 631 156 gemframebuffer;
#X obj 251 156 gemframebuffer;
#X text 418 604 size 1;
#X text 508 604 size 2;
#X text 610 604 move 1;
#X text 700 604 move 2;
#X obj 333 89 r \$0-glsl;
#X obj 713 89 r \$0-glsl;
#X msg 644 117 rectangle 1 \, texunit 2 \, perspec -1.0025 1.0025 -1.0033
1.0033 1 20;
#X msg 264 117 rectangle 1 \, texunit 1 \, perspec -1.0025 1.0033 -1.0033
1.005 1 20;
#X text 751 251 images have different size;
#X text 368 250 images have different size;
#X text 228 604 flip 1;
#X text 318 604 flip 2;
#X connect 0 0 86 0;
#X connect 1 0 2 0;
#X connect 2 0 34 0;
#X connect 3 0 1 0;
#X connect 4 0 85 0;
#X connect 5 0 81 0;
#X connect 6 0 7 0;
#X connect 7 0 35 0;
#X connect 8 0 6 0;
#X connect 10 0 11 0;
#X connect 11 0 10 0;
#X connect 14 0 51 0;
#X connect 14 1 49 0;
#X connect 14 1 54 0;
#X connect 14 1 57 0;
#X connect 15 0 14 0;
#X connect 15 1 47 0;
#X connect 16 0 15 0;
#X connect 17 0 20 0;
#X connect 18 0 20 0;
#X connect 19 0 20 0;
#X connect 20 0 21 0;
#X connect 21 0 14 0;
#X connect 22 0 17 0;
#X connect 23 0 36 0;
#X connect 24 0 20 0;
#X connect 27 0 20 0;
#X connect 34 0 84 0;
#X connect 35 0 5 0;
#X connect 36 0 14 0;
#X connect 37 0 39 0;
#X connect 38 0 37 0;
#X connect 38 1 37 1;
#X connect 39 0 14 0;
#X connect 40 0 37 0;
#X connect 41 0 38 0;
#X connect 42 0 46 0;
#X connect 43 0 42 0;
#X connect 43 1 42 1;
#X connect 44 0 42 0;
#X connect 45 0 43 0;
#X connect 46 0 14 0;
#X connect 47 0 14 0;
#X connect 48 0 50 0;
#X connect 49 0 14 0;
#X connect 50 0 15 0;
#X connect 51 0 56 0;
#X connect 52 0 55 0;
#X connect 53 0 54 0;
#X connect 54 0 14 0;
#X connect 55 0 53 0;
#X connect 57 0 61 0;
#X connect 57 0 62 0;
#X connect 57 0 65 0;
#X connect 57 0 66 0;
#X connect 58 0 14 0;
#X connect 59 0 14 0;
#X connect 60 0 68 0;
#X connect 61 0 60 0;
#X connect 62 0 63 0;
#X connect 63 0 60 0;
#X connect 63 1 60 1;
#X connect 64 0 69 0;
#X connect 65 0 64 0;
#X connect 66 0 67 0;
#X connect 67 0 64 0;
#X connect 67 1 64 1;
#X connect 68 0 14 0;
#X connect 69 0 14 0;
#X connect 70 0 58 0;
#X connect 71 0 70 0;
#X connect 72 0 73 0;
#X connect 73 0 70 0;
#X connect 73 1 70 1;
#X connect 74 0 59 0;
#X connect 75 0 74 0;
#X connect 76 0 77 0;
#X connect 77 0 74 0;
#X connect 77 1 74 1;
#X connect 79 0 78 0;
#X connect 81 0 80 0;
#X connect 82 0 94 0;
#X connect 83 0 93 0;
#X connect 84 0 79 0;
#X connect 85 0 35 0;
#X connect 86 0 34 0;
#X connect 91 0 86 0;
#X connect 92 0 85 0;
#X connect 93 0 85 0;
#X connect 94 0 86 0;
