#N canvas 366 467 625 330 12;
#X text 8 6 TCP/IP and UDP Data Communication;
#X obj 25 227 netreceive 5000;
#X obj 140 260 tgl 15 0 empty empty empty 0 -6 0 8 -262144 -1 -1 0
1;
#X floatatom 25 259 5 0 0 0 - - -;
#X floatatom 288 258 5 0 0 0 - - -;
#X text 24 204 tcp/ip;
#X text 289 204 udp;
#X text 25 139 tcp/ip;
#X obj 26 114 netsend;
#X floatatom 26 43 5 0 0 0 - - -;
#X obj 288 226 netreceive 5001 1;
#X msg 92 62 connect localhost 5000;
#X msg 26 62 send \$1;
#X msg 92 85 disconnect;
#X floatatom 287 43 5 0 0 0 - - -;
#X msg 287 62 send \$1;
#X msg 353 85 disconnect;
#X text 286 139 udp;
#X obj 287 114 netsend 1;
#X msg 353 62 connect localhost 5001;
#X connect 1 0 3 0;
#X connect 1 1 2 0;
#X connect 9 0 12 0;
#X connect 10 0 4 0;
#X connect 11 0 8 0;
#X connect 12 0 8 0;
#X connect 13 0 8 0;
#X connect 14 0 15 0;
#X connect 15 0 18 0;
#X connect 16 0 18 0;
#X connect 19 0 18 0;
