#N canvas 269 211 828 592 10;
#X floatatom 266 117 5 0 0 0 cf - -;
#X obj 266 149 mtof;
#X obj 162 373 env~;
#X obj 162 396 - 100;
#X obj 163 419 vu 15 120 empty empty -1 -8 0 10 -66577 -1 1 0;
#X obj 244 375 ezdac~;
#X floatatom 103 402 5 0 0 0 - - -;
#X msg 279 182 99.99;
#X obj 253 321 2pole~;
#X obj 279 231 f;
#X floatatom 294 208 3 0 99 1 pole_rad #0-pole -;
#X obj 130 208 noise~;
#X obj 129 233 *~ 0;
#X obj 167 237 tgl 15 0 empty empty empty 17 7 0 10 -262144 -1 -1 1
1;
#X msg 307 320 clear;
#X obj 189 232 *~ 0;
#X obj 227 236 tgl 15 0 empty empty empty 17 7 0 10 -262144 -1 -1 0
1;
#X obj 188 196 osc~;
#X text 156 49 http://ccrma.stanford.edu/~jos/filters/ Constant_Peak_Gain_Resonator.html
;
#X obj 188 162 +;
#X obj 188 136 t b a;
#X floatatom 188 113 5 0 0 0 detune - -;
#X obj 421 240 exp;
#X obj 421 214 * -3.14159;
#X obj 421 191 / 44100;
#X floatatom 421 166 5 0.01 40000 0 BW(Hz) - -;
#X floatatom 440 268 5 0 0 0 - - -;
#X obj 467 151 loadbang;
#X obj 467 171 samplerate~;
#X obj 279 255 / 100;
#X msg 601 235 6.90776 \$1;
#X obj 601 212 * 3.14159;
#X obj 601 260 /;
#X floatatom 601 166 5 0 0 2 ring_time_in_msec - -;
#X floatatom 601 287 5 0 0 0 BW - -;
#X obj 601 188 / 1000;
#X obj 66 215 noise~;
#X obj 48 236 *~;
#X obj 48 189 vline~;
#X obj 48 110 tgl 15 0 empty empty empty 17 7 0 10 -262144 -1 -1 0
1;
#X obj 48 142 metro 1500;
#X floatatom 100 121 5 0 0 0 - - -;
#X text 573 313 BW = ln(1000) / (pi*ringtime);
#X text 150 21 Two pole bandpass filter with peak gain normalised to
1;
#X text 406 292 exp(-pi * B/SR);
#X text 475 421 Q = fc / (f2-f1) = fc / (fc+bwf)-(fc-bwf);
#X text 600 446 = fc / 2*bwf;
#X obj 421 138 * 0.5;
#X floatatom 420 73 5 0 0 0 Q - -;
#X obj 421 110 /;
#X obj 420 91 swap;
#X floatatom 343 103 5 0 0 0 cf - -;
#X obj 343 125 mtof;
#X obj 343 149 t b a;
#X text 468 482 ==> BWf = fc/2*Q;
#X text 471 74 BWf = fc/2*Q;
#X msg 357 320 norm \$1;
#X obj 357 301 hradio 15 1 0 2 empty empty empty 0 -8 0 10 -262144
-1 -1 1;
#X msg 48 166 1 5 \, 0 5 5;
#X connect 0 0 1 0;
#X connect 1 0 8 1;
#X connect 1 0 19 0;
#X connect 2 0 3 0;
#X connect 2 0 6 0;
#X connect 3 0 4 0;
#X connect 7 0 9 0;
#X connect 8 0 5 0;
#X connect 8 0 5 1;
#X connect 8 0 2 0;
#X connect 9 0 29 0;
#X connect 10 0 9 0;
#X connect 11 0 12 0;
#X connect 12 0 8 0;
#X connect 13 0 12 1;
#X connect 14 0 8 3;
#X connect 15 0 8 0;
#X connect 16 0 15 1;
#X connect 17 0 15 0;
#X connect 19 0 17 0;
#X connect 20 0 19 0;
#X connect 20 1 19 1;
#X connect 21 0 20 0;
#X connect 22 0 26 0;
#X connect 22 0 8 2;
#X connect 23 0 22 0;
#X connect 24 0 23 0;
#X connect 25 0 24 0;
#X connect 27 0 28 0;
#X connect 28 0 24 1;
#X connect 29 0 8 2;
#X connect 30 0 32 0;
#X connect 31 0 30 0;
#X connect 32 0 34 0;
#X connect 32 0 24 0;
#X connect 33 0 35 0;
#X connect 35 0 31 0;
#X connect 36 0 37 1;
#X connect 37 0 8 0;
#X connect 38 0 37 0;
#X connect 39 0 40 0;
#X connect 40 0 58 0;
#X connect 41 0 40 1;
#X connect 47 0 25 0;
#X connect 48 0 50 0;
#X connect 49 0 47 0;
#X connect 50 0 49 0;
#X connect 50 1 49 1;
#X connect 51 0 52 0;
#X connect 51 0 1 0;
#X connect 52 0 53 0;
#X connect 53 0 50 0;
#X connect 53 1 50 1;
#X connect 56 0 8 3;
#X connect 57 0 56 0;
#X connect 58 0 38 0;
