#N canvas 254 100 730 731 10;
#X obj 298 196 sin;
#X obj 243 197 cos;
#X obj 243 470 *;
#X obj 243 221 t b f;
#X obj 298 221 t b f;
#X obj 101 571 cpole~;
#X obj 279 471 *;
#X obj 100 629 cpole~;
#X obj 279 524 * -1;
#X obj 99 98 inlet~;
#X obj 99 666 outlet~;
#X msg 123 232 1 \$1;
#X obj 123 254 -;
#X obj 495 104 inlet;
#X obj 243 103 inlet;
#X obj 243 143 / 44100;
#X obj 243 164 * 6.28318;
#X text 244 78 CF;
#X obj 99 431 rzero~ 1;
#X obj 100 455 rzero~ -1;
#X obj 98 389 *~ 1;
#X obj 123 277 * 0.5;
#X obj 123 207 *;
#X obj 123 187 t a a;
#X obj 317 117 samplerate~;
#X obj 317 91 loadbang;
#X text 98 45 two pole bandpass filter with peak gain normalised to
1;
#X obj 595 106 inlet;
#X obj 139 402 r \$0-clear;
#X obj 114 522 r \$0-clear;
#X text 163 275 (1-R^2)/2;
#X obj 176 354 sqrt;
#X floatatom 136 298 5 0 0 0 - - -;
#X floatatom 176 376 5 0 0 0 - - -;
#X obj 495 131 clip 0 1;
#X text 456 87 pole radius (0-1);
#N canvas 0 0 450 300 demux 0;
#X obj 245 76 select 0 1;
#X msg 244 102 1 0;
#X msg 276 103 0 1;
#X obj 135 157 unpack 0 0;
#X obj 82 201 spigot 1;
#X obj 160 202 spigot;
#X obj 72 94 inlet;
#X obj 163 234 outlet;
#X obj 84 228 outlet;
#X obj 248 47 inlet;
#X connect 0 0 1 0;
#X connect 0 1 2 0;
#X connect 1 0 3 0;
#X connect 2 0 3 0;
#X connect 3 0 4 1;
#X connect 3 1 5 1;
#X connect 4 0 8 0;
#X connect 5 0 7 0;
#X connect 6 0 4 0;
#X connect 6 0 5 0;
#X connect 9 0 0 0;
#X restore 123 333 pd demux;
#X obj 186 331 hradio 15 1 0 2 empty empty empty 0 -8 0 10 -262144
-1 -1 0;
#N canvas 0 0 467 355 dispatch 0;
#X obj 88 234 s \$0-clear;
#X msg 88 209 clear;
#X obj 88 48 inlet;
#X obj 88 95 list trim;
#X obj 88 123 route clear norm;
#X obj 142 155 s \$0-norm;
#X connect 1 0 0 0;
#X connect 2 0 3 0;
#X connect 3 0 4 0;
#X connect 4 0 1 0;
#X connect 4 1 5 0;
#X restore 595 138 pd dispatch;
#X obj 176 226 r \$0-norm;
#X obj 176 248 t b a;
#X connect 0 0 4 0;
#X connect 1 0 3 0;
#X connect 2 0 5 2;
#X connect 2 0 7 2;
#X connect 3 0 2 0;
#X connect 3 1 2 1;
#X connect 4 0 6 0;
#X connect 4 1 6 1;
#X connect 5 0 7 0;
#X connect 5 1 7 1;
#X connect 6 0 5 3;
#X connect 6 0 8 0;
#X connect 7 0 10 0;
#X connect 8 0 7 3;
#X connect 9 0 20 0;
#X connect 11 0 12 0;
#X connect 12 0 21 0;
#X connect 13 0 34 0;
#X connect 14 0 15 0;
#X connect 15 0 16 0;
#X connect 16 0 0 0;
#X connect 16 0 1 0;
#X connect 18 0 19 0;
#X connect 19 0 5 0;
#X connect 20 0 18 0;
#X connect 21 0 32 0;
#X connect 21 0 36 0;
#X connect 22 0 11 0;
#X connect 23 0 22 0;
#X connect 23 1 22 1;
#X connect 24 0 15 1;
#X connect 25 0 24 0;
#X connect 27 0 38 0;
#X connect 28 0 18 0;
#X connect 28 0 19 0;
#X connect 29 0 5 0;
#X connect 29 0 7 0;
#X connect 31 0 33 0;
#X connect 31 0 20 1;
#X connect 34 0 2 0;
#X connect 34 0 6 0;
#X connect 34 0 23 0;
#X connect 36 0 20 1;
#X connect 36 1 31 0;
#X connect 37 0 36 1;
#X connect 39 0 40 0;
#X connect 40 0 21 0;
#X connect 40 1 36 1;
