#N canvas 594 244 199 242 10;
#X obj 29 121 * 10;
#X obj 29 154 int;
#X msg 29 14 1.4;
#X obj 54 60 int;
#X obj 29 84 -;
#X obj 29 38 t f f;
#X floatatom 29 179 5 0 0 0 - - -;
#X floatatom 69 179 5 0 0 0 - - -;
#X connect 0 0 1 0;
#X connect 0 0 7 0;
#X connect 1 0 6 0;
#X connect 2 0 5 0;
#X connect 3 0 4 1;
#X connect 4 0 0 0;
#X connect 5 0 4 0;
#X connect 5 1 3 0;
