#N canvas 716 91 450 434 10;
#X obj 217 2 * 100;
#X obj 65 -71 expr ((1 - $f5) * $f1) + ($f5 * $f3) \; ((1 - $f5) *
$f2 + ($f5 * $f4));
#X obj 17 -172 t b f;
#X obj 184 61 tabwrite \$1-map;
#X obj 328 -199 inlet x1;
#X obj 338 -171 inlet y1;
#X obj 358 -145 inlet x2;
#X obj 368 -117 inlet y2;
#X obj 425 -289 inlet draw(bang);
#X obj 9 -203 line 0;
#X msg 70 -241 0;
#X msg 8 -291 1 4000;
#X obj 127 -264 t b b;
#X connect 0 0 3 1;
#X connect 1 0 0 0;
#X connect 1 1 3 0;
#X connect 2 0 1 0;
#X connect 2 1 1 4;
#X connect 4 0 1 0;
#X connect 5 0 1 1;
#X connect 6 0 1 2;
#X connect 7 0 1 3;
#X connect 8 0 12 0;
#X connect 9 0 2 0;
#X connect 10 0 9 0;
#X connect 11 0 9 0;
#X connect 12 0 11 0;
#X connect 12 1 10 0;
