#N canvas 662 46 580 316 10;
#X obj 109 134 tgl 15 0 empty empty empty 17 7 0 10 -262144 -1 -1 0
1;
#X floatatom 136 134 5 0 0 0 - - -;
#X obj 278 128 \$1;
#X obj 262 51 loadbang;
#X obj 358 122 \$2;
#X obj 276 100 del 10;
#X obj 222 210 range 0 1 0 127;
#X floatatom 278 152 5 0 0 0 - - -;
#X floatatom 352 138 5 0 0 0 - - -;
#X obj 358 166 moses 0.0001;
#X obj 331 186 moses -0.0001;
#X connect 0 0 6 0;
#X connect 2 0 7 0;
#X connect 3 0 5 0;
#X connect 4 0 8 0;
#X connect 5 0 2 0;
#X connect 5 0 4 0;
#X connect 6 0 1 0;
#X connect 7 0 6 3;
#X connect 8 0 9 0;
#X connect 8 0 10 0;
#X connect 9 1 6 4;
#X connect 10 0 6 4;
#X coords 0 -1 1 1 85 60 1 100 100;
