#N canvas 246 249 506 365 10;
#X floatatom 54 82 5 0 0 2 coarse - -;
#X floatatom 125 77 5 0 9 2 fine - -;
#X obj 125 106 * 0.1;
#X obj 87 205 +;
#X floatatom 87 265 5 0 0 3 result - -;
#X obj 125 130 t b f;
#X text 171 130 <-- one of the most important objects in PD!!;
#X connect 0 0 3 0;
#X connect 1 0 2 0;
#X connect 2 0 5 0;
#X connect 3 0 4 0;
#X connect 5 0 3 0;
#X connect 5 1 3 1;
