#N struct adsr float x1 float y1 float x2 float y2 float x3 float y3
float x4 float y4 float x5 float y5;
#N canvas 280 331 642 344 10;
#N canvas 185 108 450 300 data 0;
#X scalar adsr 0 100 55 0 89 48 189 48 247 100 \;;
#X coords 0 -20 500 100 300 100 1;
#X restore 254 29 pd data;
#N canvas 682 53 450 300 template 0;
#X obj 40 108 struct adsr float x1 float y1 float x2 float y2 float
x3 float y3 float x4 float y4 float x5 float y5;
#X obj 43 215 drawpolygon 600 3 0 100 x2 y2 x3 y3 x4 y4 x5 y5;
#X restore 364 212 pd template;
#N canvas 0 0 637 507 adsr-controller 0;
#X obj 23 259 outlet;
#X obj 72 259 outlet;
#X obj 125 259 outlet;
#X obj 174 259 outlet;
#X obj 228 261 outlet;
#X obj 277 261 outlet;
#X obj 332 262 outlet;
#X obj 381 262 outlet;
#X obj 438 262 outlet;
#X obj 487 262 outlet;
#X obj 24 234 0;
#X obj 28 182 t b b;
#X obj 230 231 +;
#X obj 220 188 t b f;
#X obj 331 229 + 100;
#X obj 432 190 t b f;
#X obj 38 75 max 1;
#X obj 101 76 max 1;
#X obj 165 52 min 100;
#X obj 165 77 max 0;
#X obj 38 16 inlet;
#X obj 100 14 inlet;
#X obj 167 14 inlet;
#X obj 228 13 inlet;
#X obj 231 75 max 1;
#X obj 437 228 +;
#X obj 271 129 expr 100-$f1;
#X obj 72 235 100;
#X obj 174 232 0;
#X obj 486 233 100;
#X connect 10 0 0 0;
#X connect 11 0 10 0;
#X connect 11 1 27 0;
#X connect 11 1 28 0;
#X connect 11 1 29 0;
#X connect 12 0 4 0;
#X connect 12 0 14 0;
#X connect 13 0 12 0;
#X connect 13 1 12 1;
#X connect 14 0 6 0;
#X connect 14 0 25 0;
#X connect 15 0 25 0;
#X connect 15 1 25 1;
#X connect 16 0 11 0;
#X connect 16 0 2 0;
#X connect 16 0 12 0;
#X connect 17 0 11 0;
#X connect 17 0 13 0;
#X connect 18 0 19 0;
#X connect 19 0 11 0;
#X connect 19 0 26 0;
#X connect 20 0 16 0;
#X connect 21 0 17 0;
#X connect 22 0 18 0;
#X connect 23 0 24 0;
#X connect 24 0 11 0;
#X connect 24 0 15 0;
#X connect 25 0 8 0;
#X connect 26 0 5 0;
#X connect 26 0 7 0;
#X connect 27 0 1 0;
#X connect 28 0 3 0;
#X connect 29 0 9 0;
#X restore 97 210 pd adsr-controller;
#X obj 109 63 vsl 15 128 0 127 0 0 empty empty empty 0 -8 0 8 -262144
-1 -1 5500 1;
#X obj 139 62 vsl 15 128 0 127 0 0 empty empty empty 0 -8 0 8 -262144
-1 -1 3400 1;
#X obj 169 62 vsl 15 128 0 127 0 0 empty empty empty 0 -8 0 8 -262144
-1 -1 5200 1;
#X obj 198 61 vsl 15 128 0 127 0 0 empty empty empty 0 -8 0 8 -262144
-1 -1 5700 1;
#X obj 49 240 set adsr x1 y1 x2 y2 x3 y3 x4 y4 x5 y5;
#N canvas 634 82 450 300 init 0;
#X obj 75 43 inlet;
#X obj 205 203 pointer;
#X msg 205 179 traverse pd-data \, next;
#X obj 204 111 pointer;
#X msg 203 86 traverse pd-data \, bang;
#X msg 174 111 0;
#X obj 203 148 append adsr x1;
#X obj 206 240 outlet;
#X obj 77 90 t b b b b;
#X msg 203 30 \; pd-data clear;
#X connect 0 0 8 0;
#X connect 1 0 7 0;
#X connect 2 0 1 0;
#X connect 3 0 6 1;
#X connect 4 0 3 0;
#X connect 5 0 6 0;
#X connect 8 0 2 0;
#X connect 8 1 5 0;
#X connect 8 2 4 0;
#X connect 8 3 9 0;
#X restore 306 212 pd init;
#X obj 306 163 bng 45 250 50 0 empty empty empty 0 -6 0 8 -262144 -1
-1;
#X obj 306 142 loadbang;
#X connect 2 0 7 0;
#X connect 2 1 7 1;
#X connect 2 2 7 2;
#X connect 2 3 7 3;
#X connect 2 4 7 4;
#X connect 2 5 7 5;
#X connect 2 6 7 6;
#X connect 2 7 7 7;
#X connect 2 8 7 8;
#X connect 2 9 7 9;
#X connect 3 0 2 0;
#X connect 4 0 2 1;
#X connect 5 0 2 2;
#X connect 6 0 2 3;
#X connect 8 0 7 10;
#X connect 9 0 8 0;
#X connect 10 0 9 0;
