#N canvas 299 102 403 408 10;
#X obj 31 76 gemwin;
#X msg 31 25 create;
#X msg 38 45 destroy;
#X obj 92 44 tgl 15 0 empty empty empty 0 -6 0 8 -262144 -1 -1 0 1
;
#X obj 34 144 gemhead;
#X obj 34 187 pix_image testscreen.TIF;
#X obj 34 164 alpha;
#X obj 34 209 pix_texture;
#X obj 35 230 colorRGB 1 1 1 0.5;
#X obj 35 258 rotateXYZ;
#X floatatom 177 98 5 0 0 0 - - -;
#X obj 176 73 hsl 40 8 0 1 0 0 empty empty empty -2 -6 0 8 -262144
-1 -1 1900 1;
#X obj 103 141 openpanel;
#X msg 103 162 open \$1;
#X obj 184 44 bng 15 250 50 0 empty empty empty 0 -6 0 8 -262144 -1
-1;
#X obj 35 301 rotateXYZ 20 0 0;
#X text 229 41 1 choose a picture;
#X obj 35 348 rotateXYZ 20 0 0;
#X text 228 69 2 set alpha value;
#X text 225 97 3 rotate the whole thing;
#X obj 35 280 rectangle 3 2.25;
#X obj 35 324 rectangle 3 2.25;
#X obj 35 371 rectangle 3 2.25;
#X connect 1 0 0 0;
#X connect 2 0 0 0;
#X connect 3 0 0 0;
#X connect 4 0 6 0;
#X connect 5 0 7 0;
#X connect 6 0 5 0;
#X connect 7 0 8 0;
#X connect 8 0 9 0;
#X connect 9 0 20 0;
#X connect 10 0 9 2;
#X connect 11 0 8 4;
#X connect 12 0 13 0;
#X connect 13 0 5 0;
#X connect 14 0 12 0;
#X connect 15 0 21 0;
#X connect 17 0 22 0;
#X connect 20 0 15 0;
#X connect 21 0 17 0;
