#N canvas 167 439 704 348 10;
#X obj 39 88 metro 500;
#X obj 39 62 tgl 15 0 empty empty empty 0 -6 0 8 -262144 -1 -1 0 1
;
#X obj 38 262 bng 15 250 50 0 empty empty empty 0 -6 0 8 -262144 -1
-1;
#X obj 98 261 bng 15 250 50 0 empty empty empty 0 -6 0 8 -262144 -1
-1;
#X obj 38 194 alternate;
#X text 16 18 die version mit dem Gem;
#X obj 239 88 metro 500;
#X obj 240 61 tgl 15 0 empty empty empty 0 -6 0 8 -262144 -1 -1 0 1
;
#X obj 237 257 bng 15 250 50 0 empty empty empty 0 -6 0 8 -262144 -1
-1;
#X obj 300 256 bng 15 250 50 0 empty empty empty 0 -6 0 8 -262144 -1
-1;
#X obj 242 166 f 1;
#X obj 269 166 + 1;
#X text 235 34 ...geht aber auch ohne:;
#X text 41 31 Objekt [alternate]:;
#X msg 54 144 reset;
#X text 313 126 wie reset;
#X obj 294 166 % 2;
#X obj 243 212 sel 0 1;
#X obj 430 179 prepend;
#X obj 469 154 f;
#X obj 496 154 == 0;
#X obj 430 110 t a b;
#X obj 430 208 route 0 1;
#X obj 431 85 metro 500;
#X obj 432 58 tgl 15 0 empty empty empty 0 -6 0 8 -262144 -1 -1 0 1
;
#X obj 429 255 bng 15 250 50 0 empty empty empty 0 -6 0 8 -262144 -1
-1;
#X obj 474 255 bng 15 250 50 0 empty empty empty 0 -6 0 8 -262144 -1
-1;
#X text 549 106 wie reset;
#X msg 521 106 0;
#X msg 285 126 0;
#X connect 0 0 4 0;
#X connect 1 0 0 0;
#X connect 4 0 2 0;
#X connect 4 1 3 0;
#X connect 6 0 10 0;
#X connect 7 0 6 0;
#X connect 10 0 11 0;
#X connect 10 0 17 0;
#X connect 11 0 16 0;
#X connect 14 0 4 0;
#X connect 16 0 10 1;
#X connect 17 0 8 0;
#X connect 17 1 9 0;
#X connect 18 0 22 0;
#X connect 19 0 20 0;
#X connect 19 0 18 1;
#X connect 20 0 19 1;
#X connect 21 0 18 0;
#X connect 21 1 19 0;
#X connect 22 0 25 0;
#X connect 22 1 26 0;
#X connect 23 0 21 0;
#X connect 24 0 23 0;
#X connect 28 0 19 1;
#X connect 29 0 10 1;
