#N canvas 29 22 786 721 10;
#X obj 151 71 cnv 15 100 60 empty empty empty 20 12 0 14 -258699 -66577
0;
#X obj 373 424 image mandala.gif;
#X obj 34 256 gemhead;
#X obj 400 266 tabread \$0-knots;
#X obj 341 98 tgl 15 0 empty empty empty 0 -6 0 8 -258699 -1 -1 0 1
;
#X obj 338 266 t f f;
#X msg 21 47 0 \, destroy;
#X obj 337 332 pack f f f 0;
#X obj 339 290 t f f;
#X obj 340 123 metro 33.3333;
#X obj 10 79 gemwin 30;
#X obj 339 229 until;
#X msg 370 170 0;
#X obj 338 247 f 0;
#X obj 366 247 + 1;
#X obj 339 147 t b b;
#X msg 294 121 bang;
#X obj 33 302 color 0 1 0;
#X msg 143 564 0 0 0 0;
#X msg 157 588 1 1 1 1;
#X msg 163 611 2 1 2 1;
#X obj 366 314 expr (($f1/$f2)*12)-6;
#X msg 87 612 48;
#X obj 342 201 t f f;
#X msg 340 172 800;
#X obj 35 637 aq.dyn.curve 800;
#X obj 566 358 table \$0-knots 800;
#X obj 566 332 tabwrite~ \$0-knots;
#X obj 566 232 adc~;
#X obj 566 255 +~;
#X obj 401 292 * 4;
#X obj 34 559 rotateXYZ;
#X obj 107 506 f 0;
#X obj 135 506 + 1;
#X msg 57 526 0;
#X text 451 96 turn on audio aund click the toggles;
#X text 535 112 you can try with sine waves too.;
#X msg 505 138 \; pd dsp 1;
#X obj 33 280 alpha 1;
#X obj 198 289 hsv2rgb;
#X msg 197 267 \$1 1 1;
#X obj 197 246 expr ($f1%100)/100;
#X obj 197 224 f 0;
#X obj 225 224 + 1;
#X obj 197 199 spigot;
#X obj 253 186 tgl 15 0 empty empty empty 0 -6 0 8 -258699 -1 -1 0
1;
#X obj 110 484 spigot;
#X obj 149 468 tgl 15 0 empty empty empty 0 -6 0 8 -258699 -1 -1 0
1;
#X msg 198 333 \$1 \$2 \$3 0.3;
#X text 91 526 resets rotation;
#X msg 3 24 reset \, dimen 800 600 \, buffer 1 \, create \, 1;
#X msg 189 106 1;
#X obj 32 463 translateXYZ;
#X obj 100 356 f 0;
#X obj 128 356 + 1;
#X obj 103 334 spigot;
#X obj 142 318 tgl 15 0 empty empty empty 0 -6 0 8 -258699 -1 -1 0
1;
#X obj 154 388 sel 0 100;
#X msg 153 411 1;
#X msg 184 411 -1;
#X obj 111 432 expr ($f1-50)/25;
#X obj 112 378 t f f;
#X msg 107 50 destroy \, 0 \, reset \, dimen 800 600 \, buffer 1 \,
create \, 1;
#X obj 333 8 tgl 15 0 empty empty empty 0 -6 0 8 -258699 -1 -1 0 1
;
#X obj 332 26 metro 60000;
#X msg 60 425 0;
#X text 35 405 resets tr;
#X obj 566 277 *~ 3;
#X obj 579 305 spigot;
#X obj 635 292 tgl 15 0 empty empty empty 0 -6 0 8 -258699 -1 -1 0
1;
#X text 163 80 click here;
#X connect 2 0 38 0;
#X connect 3 0 30 0;
#X connect 4 0 9 0;
#X connect 5 0 8 0;
#X connect 5 1 3 0;
#X connect 6 0 10 0;
#X connect 7 0 25 2;
#X connect 8 0 7 0;
#X connect 8 1 21 0;
#X connect 9 0 15 0;
#X connect 9 0 2 0;
#X connect 9 0 44 0;
#X connect 9 0 46 0;
#X connect 9 0 55 0;
#X connect 9 0 68 0;
#X connect 11 0 13 0;
#X connect 12 0 13 1;
#X connect 13 0 14 0;
#X connect 13 0 5 0;
#X connect 14 0 13 1;
#X connect 15 0 24 0;
#X connect 15 1 12 0;
#X connect 16 0 15 0;
#X connect 17 0 52 0;
#X connect 18 0 25 2;
#X connect 19 0 25 2;
#X connect 20 0 25 2;
#X connect 21 0 7 1;
#X connect 22 0 25 1;
#X connect 23 0 11 0;
#X connect 23 1 21 1;
#X connect 24 0 23 0;
#X connect 28 0 29 0;
#X connect 28 1 29 1;
#X connect 29 0 67 0;
#X connect 30 0 7 2;
#X connect 31 0 25 0;
#X connect 32 0 33 0;
#X connect 32 0 31 1;
#X connect 32 0 31 2;
#X connect 32 0 31 3;
#X connect 33 0 32 1;
#X connect 34 0 31 1;
#X connect 34 0 31 2;
#X connect 34 0 31 3;
#X connect 38 0 17 0;
#X connect 39 0 48 0;
#X connect 40 0 39 0;
#X connect 41 0 40 0;
#X connect 42 0 43 0;
#X connect 42 0 41 0;
#X connect 43 0 42 1;
#X connect 44 0 42 0;
#X connect 45 0 44 1;
#X connect 46 0 32 0;
#X connect 47 0 46 1;
#X connect 48 0 17 1;
#X connect 50 0 10 0;
#X connect 51 0 45 0;
#X connect 51 0 4 0;
#X connect 51 0 47 0;
#X connect 51 0 56 0;
#X connect 51 0 63 0;
#X connect 51 0 37 0;
#X connect 51 0 69 0;
#X connect 52 0 31 0;
#X connect 53 0 54 0;
#X connect 53 0 61 0;
#X connect 54 0 53 1;
#X connect 55 0 53 0;
#X connect 56 0 55 1;
#X connect 57 0 58 0;
#X connect 57 1 59 0;
#X connect 58 0 54 1;
#X connect 59 0 54 1;
#X connect 60 0 52 1;
#X connect 60 0 52 2;
#X connect 60 0 52 3;
#X connect 61 0 60 0;
#X connect 61 1 57 0;
#X connect 62 0 10 0;
#X connect 63 0 64 0;
#X connect 64 0 62 0;
#X connect 65 0 52 1;
#X connect 65 0 52 2;
#X connect 65 0 52 3;
#X connect 67 0 27 0;
#X connect 68 0 27 0;
#X connect 69 0 68 1;


