#N canvas 303 350 527 494 10;
#N canvas 0 0 450 300 graph22 0;
#X array array1 1e+06 float 2;
#X coords 0 1 1e+06 -1 200 140 1;
#X restore 43 53 graph;
#N canvas 0 22 450 300 graph22 0;
#X array array2 1e+06 float 2;
#X coords 0 1 1e+06 -1 200 140 1;
#X restore 267 52 graph;
#X obj 49 370 maxlib/arraycopy array2;
#X msg 49 330 copy array1;
#N canvas 782 288 473 401 arraycopy 1;
#X msg 218 136 0;
#X obj 168 123 until;
#X obj 188 159 float;
#X obj 231 160 + 1;
#X obj 188 221 tabread array1;
#X obj 216 248 tabwrite array2;
#X obj 168 36 inlet;
#X msg 168 90 1e+06;
#X msg 31 6 bang;
#X obj 33 38 arraysize array1;
#X msg 34 60 set \$1;
#X obj 168 63 trigger bang bang;
#X obj 188 195 trigger float float;
#X connect 0 0 3 0;
#X connect 0 0 2 1;
#X connect 1 0 2 0;
#X connect 2 0 3 0;
#X connect 2 0 12 0;
#X connect 3 0 2 1;
#X connect 4 0 5 0;
#X connect 6 0 11 0;
#X connect 7 0 1 0;
#X connect 8 0 9 0;
#X connect 9 0 10 0;
#X connect 10 0 7 0;
#X connect 11 0 7 0;
#X connect 11 1 0 0;
#X connect 12 0 4 0;
#X connect 12 1 5 1;
#X restore 252 368 pd arraycopy;
#X msg 254 336 bang;
#X obj 388 307 soundfiler;
#X obj 389 264 openpanel;
#X msg 389 284 read \$1 array1;
#X msg 389 242 bang;
#X connect 3 0 2 0;
#X connect 5 0 4 0;
#X connect 7 0 8 0;
#X connect 8 0 6 0;
#X connect 9 0 7 0;
