#N canvas 530 41 835 712 10;
#X obj 94 160 inlet;
#X obj 202 447 -;
#X obj 180 470 array size;
#X obj 246 521 array set, f 29;
#X obj 246 498 array get;
#X obj 246 424 +;
#X obj 94 183 route bang float;
#X obj 498 312 route float;
#X msg 498 335 args 0;
#X obj 498 363 pdcontrol;
#X obj 498 241 loadbang;
#X msg 498 264 args 0;
#X obj 498 287 pdcontrol;
#X obj 625 413 s \$0index;
#X obj 561 358 s \$0array;
#X obj 561 335 unpack s f f, f 22;
#X obj 639 381 unpack;
#X obj 417 452 r \$0array;
#X obj 351 180 inlet;
#X obj 351 203 s \$0array;
#X obj 241 180 inlet;
#X obj 690 413 s \$0points;
#X obj 261 401 r \$0points;
#X obj 161 401 v \$0points;
#X obj 241 203 s \$0points;
#X obj 161 378 t b f f f, f 43;
#X obj 160 309 array size;
#X obj 94 263 moses 0;
#X obj 133 286 t f b;
#X obj 133 332 select 0 1;
#X obj 94 240 v \$0index;
#X obj 161 355 v \$0index;
#X obj 121 514 outlet;
#X obj 133 309 <;
#X obj 140 206 t f f;
#X obj 161 424 t b b f;
#X connect 0 0 6 0;
#X connect 1 0 2 0;
#X connect 2 0 1 0;
#X connect 4 0 3 0;
#X connect 5 0 4 0;
#X connect 6 0 30 0;
#X connect 6 1 34 0;
#X connect 7 0 8 0;
#X connect 7 1 15 0;
#X connect 8 0 9 0;
#X connect 9 0 16 0;
#X connect 10 0 11 0;
#X connect 11 0 12 0;
#X connect 12 0 7 0;
#X connect 15 0 14 0;
#X connect 15 1 13 0;
#X connect 15 2 21 0;
#X connect 16 0 13 0;
#X connect 16 1 21 0;
#X connect 17 0 2 1;
#X connect 17 0 3 2;
#X connect 17 0 4 2;
#X connect 17 0 26 1;
#X connect 18 0 19 0;
#X connect 20 0 24 0;
#X connect 22 0 5 1;
#X connect 23 0 35 0;
#X connect 25 0 23 0;
#X connect 25 1 5 0;
#X connect 25 2 3 1;
#X connect 26 0 33 1;
#X connect 27 1 28 0;
#X connect 28 0 33 0;
#X connect 28 1 26 0;
#X connect 29 1 31 0;
#X connect 30 0 27 0;
#X connect 31 0 25 0;
#X connect 33 0 29 0;
#X connect 34 0 27 0;
#X connect 34 1 30 0;
#X connect 35 0 32 0;
#X connect 35 1 2 0;
#X connect 35 2 1 1;
