#N canvas 763 303 747 335 10;
#X declare -lib zexy -path zexy;
#X obj 16 229 print;
#X obj 18 52 list tosymbol;
#X obj 17 113 list trim;
#X obj 16 189 route Eins;
#X msg 213 143 Eins 0;
#X msg 145 142 Eins 1;
#X obj 17 90 list prepend set;
#X msg 19 23 69 105 110 115 32 48;
#X msg 17 141 Eins 0;
#X obj 338 52 list tosymbol;
#X obj 338 113 list trim;
#X obj 338 169 route Eins;
#X msg 338 23 69 105 110 115 32 48;
#X obj 338 192 print B;
#X obj 338 80 symbol2list;
#X obj 504 31 declare -lib zexy -path zexy;
#X connect 1 0 6 0;
#X connect 2 0 8 0;
#X connect 3 0 0 0;
#X connect 4 0 3 0;
#X connect 5 0 3 0;
#X connect 6 0 2 0;
#X connect 7 0 1 0;
#X connect 8 0 3 0;
#X connect 9 0 14 0;
#X connect 10 0 11 0;
#X connect 11 0 13 0;
#X connect 12 0 9 0;
#X connect 14 0 10 0;
