#N canvas 663 73 450 374 10;
#X obj 214 95 soundfiler;
#X obj 23 17 table zoo 0;
#X obj 214 114 print;
#X msg 154 46 read -resize -maxsize 1e+07 zoolook.wav zoo;
#X obj 24 217 *~ 0.5;
#X obj 24 111 sig~;
#X floatatom 24 74 8 0 0 0 - - -;
#X obj 152 207 snapshot~;
#X floatatom 132 274 15 0 0 0 - - -;
#X obj 24 92 / 44100;
#X obj 26 308 dac~;
#X obj 154 65 t b a b;
#X obj 154 128 print;
#X obj 154 109 realtime;
#X msg 94 100 set 0;
#X obj 24 149 *~ 22050;
#X obj 156 248 t f;
#X obj 132 248 +;
#X msg 230 231 0;
#X obj 24 130 rpole~ 1;
#X obj 24 198 tabread4~ zoo;
#X floatatom 132 313 15 0 0 0 - - -;
#X obj 132 293 / 22050;
#X obj 152 188 metro 100;
#X obj 152 169 loadbang;
#X obj 124 178 bng 15 250 50 0 empty empty empty 17 7 0 10 -262144
-1 -1;
#X connect 0 0 2 0;
#X connect 3 0 11 0;
#X connect 4 0 10 0;
#X connect 4 0 10 1;
#X connect 5 0 19 0;
#X connect 6 0 9 0;
#X connect 7 0 17 0;
#X connect 8 0 22 0;
#X connect 9 0 5 0;
#X connect 11 0 13 1;
#X connect 11 1 0 0;
#X connect 11 2 13 0;
#X connect 13 0 12 0;
#X connect 14 0 19 0;
#X connect 15 0 20 0;
#X connect 15 0 7 0;
#X connect 16 0 17 1;
#X connect 17 0 8 0;
#X connect 17 0 16 0;
#X connect 17 0 20 1;
#X connect 18 0 17 1;
#X connect 19 0 15 0;
#X connect 20 0 4 0;
#X connect 22 0 21 0;
#X connect 23 0 7 0;
#X connect 23 0 14 0;
#X connect 24 0 23 0;
#X connect 25 0 23 0;
