#N canvas -1341 145 1345 890 10;
#X declare -lib Gem;
#X msg 706 28 create \, 1;
#X msg 825 68 0 \, destroy;
#X obj 596 149 bng 15 250 50 0 empty empty empty 17 7 0 10 -262144
-1 -1;
#X msg 596 192 open \$1;
#X obj 596 170 openpanel;
#X obj 595 266 unpack 0 0 0;
#X floatatom 595 288 0 0 0 0 - - -;
#X floatatom 629 288 0 0 0 0 - - -;
#X floatatom 664 288 0 0 0 0 - - -;
#X text 595 305 l;
#X text 629 304 w;
#X text 664 306 h;
#X floatatom 618 225 0 0 0 0 - - -;
#X text 618 210 f;
#X msg 670 190 auto \$1;
#X obj 670 170 tgl 15 0 empty empty empty 17 7 0 10 -262144 -1 -1 0
1;
#X floatatom 608 349 0 0 0 0 - - -;
#X floatatom 648 349 0 0 0 0 - - -;
#X text 612 336 w;
#X text 651 335 h;
#X obj 573 368 rectangle 2 4;
#X obj 573 245 pix_film;
#X obj 573 324 pix_texture;
#X obj 561 74 gemhead 1;
#X obj 749 231 bng 15 250 50 0 empty empty empty 17 7 0 10 -262144
-1 -1;
#X msg 749 274 open \$1;
#X obj 749 252 openpanel;
#X obj 748 349 unpack 0 0 0;
#X floatatom 748 371 0 0 0 0 - - -;
#X floatatom 782 371 0 0 0 0 - - -;
#X floatatom 817 371 0 0 0 0 - - -;
#X text 748 387 l;
#X text 783 388 w;
#X text 817 389 h;
#X floatatom 777 305 0 0 0 0 - - -;
#X text 777 292 f;
#X msg 823 272 auto \$1;
#X obj 823 252 tgl 15 0 empty empty empty 17 7 0 10 -262144 -1 -1 0
1;
#X floatatom 773 436 0 0 0 0 - - -;
#X floatatom 823 436 0 0 0 0 - - -;
#X text 777 423 w;
#X text 826 422 h;
#X obj 726 327 pix_film;
#X obj 726 411 pix_texture;
#X obj 726 157 gemhead 2;
#X msg 796 34 dimen 762 768;
#X obj 625 90 loadbang;
#X obj 910 297 bng 15 250 50 0 empty empty empty 17 7 0 10 -262144
-1 -1;
#X msg 910 340 open \$1;
#X obj 910 318 openpanel;
#X obj 909 418 unpack 0 0 0;
#X floatatom 909 440 0 0 0 0 - - -;
#X floatatom 943 440 0 0 0 0 - - -;
#X floatatom 978 440 0 0 0 0 - - -;
#X text 906 456 l;
#X text 948 457 w;
#X text 982 457 h;
#X floatatom 932 377 0 0 0 0 - - -;
#X text 931 360 f;
#X msg 984 338 auto \$1;
#X obj 984 318 tgl 15 0 empty empty empty 17 7 0 10 -262144 -1 -1 0
1;
#X floatatom 936 502 0 0 0 0 - - -;
#X floatatom 986 502 0 0 0 0 - - -;
#X text 940 489 w;
#X text 989 488 h;
#X obj 887 396 pix_film;
#X obj 887 477 pix_texture;
#X obj 887 235 gemhead 3;
#X msg 1010 249 1 -1 0;
#X msg 867 168 1 1.5 0;
#X msg 950 250 1.56;
#X msg 753 176 1.56;
#X obj 561 131 translate;
#X msg 586 92 -2;
#X floatatom 985 235 5 0 0 0 - - -;
#X floatatom 805 162 5 0 0 0 - - -;
#X obj 887 521 rectangle 1.6 1.2;
#X obj 726 455 rectangle 1.6 1.2;
#X obj 887 272 translate 2.02 1 -1 0;
#X obj 726 195 translate 1.34 1.5 1.5 0;
#X obj 813 11 t b b;
#X obj 1062 46 dsp;
#X obj 1062 16 tgl 15 0 empty empty empty 17 7 0 10 -262144 -1 -1 0
1;
#X floatatom 1043 76 5 0 0 0 - - -;
#X floatatom 1087 77 5 0 0 0 - - -;
#X msg 631 137 16.7.10.pg.p2-1.rmd.ed.recode.avi;
#X msg 775 216 16.7.10.pg.p2-1.ed.recode.AVI;
#X msg 945 295 16.7.10.pg.p2-1.amb.recode.AVI;
#X obj 653 221 r ar;
#X obj 807 309 r ar;
#X obj 961 377 r ar;
#X obj 1167 255 gemhead 4;
#X text 1176 225 text;
#X text 572 45 film 1;
#X text 785 117 film 2;
#X text 929 197 film 3;
#X text 1118 49 eek;
#X obj 1167 397 text2d;
#X obj 1119 515 translate;
#X msg 1178 300 text Lamella;
#X floatatom 1200 376 0 0 0 0 - - -;
#X obj 1116 469 text3d;
#X msg 1180 335 font vera.ttf;
#X text 856 574 add nesting;
#X text 856 589 text overlay;
#X text 855 605 recode v2;
#X text 855 558 TO DO;
#X text 855 621 try alternate codec;
#X floatatom 628 111 5 0 0 0 - - -;
#X obj 0 702 dac~;
#X obj 0 599 vline~;
#X obj 3 198 hsl 196 15 0 1 0 0 \$0-scratch empty empty -2 -8 0 10
-262144 -1 -1 0 1;
#X obj 249 48 bng 15 250 50 0 empty empty empty 17 7 0 10 -262144 -1
-1;
#N canvas 0 22 450 300 (subpatch) 0;
#X array \$0-Lamella 1.35475e+007 float 2;
#X coords 0 1 1.35475e+007 -1 200 140 1;
#X restore 1 37 graph;
#X obj 3 217 hsl 196 15 0 1 0 0 \$0-in empty empty -2 -8 0 10 -262144
-1 -1 0 1;
#X obj 3 235 hsl 196 15 0 1 0 0 \$0-out empty empty -2 -8 0 10 -262144
-1 -1 1600 1;
#X obj 4 177 hsl 195 10 0 1 0 0 empty \$0-playhead empty -2 -8 0 10
-228856 -1 -1 0 1;
#N canvas 878 208 146 180 scratch 0;
#X obj 23 134 outlet;
#X obj 23 59 *;
#X obj 38 37 r \$0-samples;
#X obj 23 16 r \$0-scratch;
#X msg 23 81 \$1 50;
#X connect 1 0 4 0;
#X connect 2 0 1 1;
#X connect 3 0 1 0;
#X connect 4 0 0 0;
#X restore -68 513 pd scratch;
#X obj 0 488 pack f f;
#X obj 0 513 t l b;
#X obj 42 513 r \$0-in;
#X text -22 216 in;
#X text -28 233 out;
#X text -47 197 scratch;
#X text -55 173 playhead;
#X obj 42 555 *;
#X obj 27 576 f;
#X obj 57 534 r \$0-samples;
#X obj 37 436 *;
#X obj 52 415 r \$0-samples;
#X obj 37 393 r \$0-out;
#X obj 0 462 f;
#X obj 27 462 f;
#X obj 0 393 t b b;
#X obj 132 276 r \$0-out;
#X obj 158 297 r \$0-in;
#X obj 173 318 r \$0-samples;
#X obj 158 345 *;
#X obj 132 393 -;
#X obj 158 366 t b f;
#X obj 132 345 *;
#X obj 132 438 abs;
#X msg 0 276 bang;
#X obj 680 24 cnv 15 20 20 empty empty 1 6 10 0 14 -261234 -66577 0
;
#X obj 227 46 cnv 15 20 20 empty empty 2 6 10 0 14 -261234 -66577 0
;
#X obj 205 223 cnv 15 20 20 empty empty 3 6 10 0 14 -261234 -66577
0;
#X text 226 224 set in and outpoint;
#X obj -23 273 cnv 15 20 20 empty empty 4 6 10 0 14 -261234 -66577
0;
#X text 34 275 play;
#X obj 132 416 / 44.1;
#X floatatom 197 480 0 0 0 0 - - -;
#X obj 0 626 tabread4~ \$0-Lamella;
#X text 268 48 load audio;
#X text 856 638 compress audio peak;
#X text 856 654 silence sine sync in audio;
#N canvas 63 434 473 547 load_audio 0;
#X obj 150 24 inlet;
#X obj 19 351 soundfiler;
#X obj 19 372 t f f;
#X obj 46 395 s \$0-samples;
#X obj 19 434 s \$0-miliseconds;
#X obj 19 265 t a b;
#X obj 19 308 pack s s;
#X obj 150 48 openpanel;
#X obj 150 71 splitfilename .;
#X text 181 -42 Storage for the video;
#X text 185 -29 maximum 6000 frames in this case;
#X obj 19 414 / 44.1;
#X obj 12 -33 pix_buffer \$0-speicher 4000;
#X msg 19 330 read -maxsize 1.5876e+007 -resize \$1 \$2;
#X obj 46 285 symbol \$0-Lamella;
#X connect 0 0 7 0;
#X connect 1 0 2 0;
#X connect 2 0 11 0;
#X connect 2 1 3 0;
#X connect 5 0 6 0;
#X connect 5 1 14 0;
#X connect 6 0 13 0;
#X connect 7 0 5 0;
#X connect 11 0 4 0;
#X connect 13 0 1 0;
#X connect 14 0 6 1;
#X restore 249 69 pd load_audio;
#X text 904 68 close GEM window;
#X text 679 4 open GEM window;
#X obj 405 371 bng 15 250 50 0 empty empty empty 17 7 0 10 -262144
-1 -1;
#X text 860 676 rename files simple *inc pix_buffer*;
#X obj -1 665 *~;
#X floatatom 38 656 0 0 1 0 - - -;
#X obj 779 87 gemwin;
#N canvas 51 630 473 258 load_video_headshot 1;
#X obj 150 24 inlet;
#X obj 149 144 outlet;
#X msg 150 89 open \$1;
#X obj 150 48 openpanel;
#X text 226 -41 Storage for the video;
#X text 226 -28 maximum 4000 frames;
#X obj 339 145 bng 15 250 50 0 empty empty empty 17 7 0 10 -262144
-1 -1;
#X obj 12 -33 pix_buffer \$0-video_headshot 4000;
#X obj 150 112 pix_buffer_filmopen_headshot \$0-video_headshot;
#X connect 0 0 3 0;
#X connect 2 0 8 0;
#X connect 3 0 2 0;
#X connect 8 0 1 0;
#X connect 8 1 6 0;
#X restore 404 391 pd load_video_headshot;
#N canvas 18 269 580 428 video_headshot_processing 1;
#X obj 172 32 inlet~;
#X obj 270 32 inlet;
#X obj 103 350 pix_texture;
#X obj 270 149 unpack f f f;
#X obj 130 200 *;
#X obj 130 110 snapshot~;
#X obj 103 87 t a b;
#X obj 130 156 /;
#X obj 130 222 int;
#X obj 130 244 change;
#X text 388 203 this takes care of the;
#X text 412 217 right aspect ratio;
#X text 449 231 of the video;
#X obj 343 177 cnv 15 45 110 empty empty empty 20 12 0 14 -261234 -66577
0;
#X obj 346 183 /;
#X obj 346 260 *;
#X obj 346 204 t b f;
#X msg 346 226 3;
#X obj 145 133 r \$0-samples;
#X obj 145 178 r \$0-frames;
#X obj 270 183 s \$0-frames;
#X obj 20 243 s \$0-playhead;
#X obj 20 222 speedlim 100;
#X obj 103 65 gemhead 5;
#X obj 103 286 translate 1.34 1.5 1.5 0;
#X obj 103 398 rectangle 1.6 1.2;
#X obj 103 325 pix_buffer_read \$0-video_headshot;
#X connect 0 0 5 0;
#X connect 1 0 3 0;
#X connect 2 0 25 0;
#X connect 3 0 20 0;
#X connect 3 1 14 0;
#X connect 3 2 14 1;
#X connect 4 0 8 0;
#X connect 5 0 7 0;
#X connect 6 0 24 0;
#X connect 6 1 5 0;
#X connect 7 0 4 0;
#X connect 7 0 22 0;
#X connect 8 0 9 0;
#X connect 9 0 26 1;
#X connect 14 0 16 0;
#X connect 16 0 17 0;
#X connect 16 1 15 1;
#X connect 17 0 15 0;
#X connect 18 0 7 1;
#X connect 19 0 4 1;
#X connect 22 0 21 0;
#X connect 23 0 6 0;
#X connect 24 0 26 0;
#X connect 26 0 2 0;
#X restore 239 615 pd video_headshot_processing;
#X connect 0 0 162 0;
#X connect 1 0 162 0;
#X connect 2 0 4 0;
#X connect 3 0 21 0;
#X connect 4 0 3 0;
#X connect 5 0 6 0;
#X connect 5 1 7 0;
#X connect 5 2 8 0;
#X connect 12 0 21 1;
#X connect 14 0 21 0;
#X connect 15 0 14 0;
#X connect 15 0 37 0;
#X connect 16 0 20 1;
#X connect 17 0 20 2;
#X connect 21 0 22 0;
#X connect 21 1 5 0;
#X connect 22 0 20 0;
#X connect 23 0 72 0;
#X connect 24 0 26 0;
#X connect 25 0 42 0;
#X connect 26 0 25 0;
#X connect 27 0 28 0;
#X connect 27 1 29 0;
#X connect 27 2 30 0;
#X connect 34 0 42 1;
#X connect 36 0 42 0;
#X connect 37 0 36 0;
#X connect 37 0 60 0;
#X connect 38 0 77 1;
#X connect 39 0 77 2;
#X connect 42 0 43 0;
#X connect 42 1 27 0;
#X connect 43 0 77 0;
#X connect 44 0 79 0;
#X connect 45 0 162 0;
#X connect 46 0 73 0;
#X connect 47 0 49 0;
#X connect 48 0 65 0;
#X connect 49 0 48 0;
#X connect 50 0 51 0;
#X connect 50 1 52 0;
#X connect 50 2 53 0;
#X connect 57 0 65 1;
#X connect 59 0 65 0;
#X connect 60 0 59 0;
#X connect 61 0 76 1;
#X connect 62 0 76 2;
#X connect 65 0 66 0;
#X connect 65 1 50 0;
#X connect 66 0 76 0;
#X connect 67 0 78 0;
#X connect 68 0 78 2;
#X connect 69 0 79 2;
#X connect 70 0 78 1;
#X connect 71 0 79 1;
#X connect 72 0 21 0;
#X connect 73 0 72 1;
#X connect 74 0 78 1;
#X connect 75 0 79 1;
#X connect 78 0 65 0;
#X connect 79 0 42 0;
#X connect 80 0 0 0;
#X connect 80 1 45 0;
#X connect 81 0 83 0;
#X connect 81 1 84 0;
#X connect 82 0 81 0;
#X connect 85 0 4 0;
#X connect 86 0 26 0;
#X connect 87 0 49 0;
#X connect 88 0 21 1;
#X connect 89 0 42 1;
#X connect 90 0 65 1;
#X connect 91 0 97 0;
#X connect 99 0 97 0;
#X connect 100 0 97 1;
#X connect 102 0 97 0;
#X connect 108 0 72 1;
#X connect 110 0 164 0;
#X connect 110 0 151 0;
#X connect 112 0 155 0;
#X connect 117 0 110 0;
#X connect 118 0 119 0;
#X connect 119 0 110 0;
#X connect 119 1 126 0;
#X connect 120 0 125 0;
#X connect 125 0 126 1;
#X connect 126 0 110 0;
#X connect 127 0 125 1;
#X connect 128 0 131 1;
#X connect 129 0 128 1;
#X connect 130 0 128 0;
#X connect 131 0 118 0;
#X connect 132 0 118 1;
#X connect 133 0 131 0;
#X connect 133 1 132 0;
#X connect 134 0 140 0;
#X connect 135 0 137 0;
#X connect 136 0 137 1;
#X connect 136 0 140 1;
#X connect 137 0 139 0;
#X connect 138 0 149 0;
#X connect 139 0 138 0;
#X connect 139 1 138 1;
#X connect 140 0 138 0;
#X connect 141 0 132 1;
#X connect 141 0 150 0;
#X connect 142 0 133 0;
#X connect 142 0 15 0;
#X connect 149 0 141 0;
#X connect 151 0 160 0;
#X connect 158 0 163 0;
#X connect 160 0 109 0;
#X connect 160 0 109 1;
#X connect 161 0 160 1;
#X connect 163 0 164 1;
