#N canvas 407 199 554 370 12;
#N canvas 453 366 646 446 bonker 1;
#X msg 376 116 bang;
#X obj 29 50 bonk~;
#X msg 376 172 print;
#X text 184 167 cooked;
#X msg 374 63 mask 4 0.7;
#X msg 375 88 debounce 0;
#X msg 375 144 debug 0;
#X obj 64 162 unpack 0 0 0 0;
#X floatatom 64 341 5 0 0;
#X floatatom 99 281 5 0 0;
#X floatatom 135 219 5 0 0;
#X floatatom 171 191 5 0 0;
#X obj 135 247 s a;
#X obj 99 313 s b;
#X obj 26 13 r~ tune;
#X floatatom 508 41 5 0 0;
#X msg 374 38 minvel \$1;
#X msg 373 10 thresh 70 80;
#X msg 471 152 thresh 0 100;
#X obj 309 216 ctlin 8;
#X connect 0 0 1 0;
#X connect 1 1 7 0;
#X connect 2 0 1 0;
#X connect 4 0 1 0;
#X connect 5 0 1 0;
#X connect 6 0 1 0;
#X connect 7 0 8 0;
#X connect 7 1 9 0;
#X connect 7 2 10 0;
#X connect 7 3 11 0;
#X connect 9 0 13 0;
#X connect 10 0 12 0;
#X connect 14 0 1 0;
#X connect 15 0 16 0;
#X connect 16 0 1 0;
#X connect 17 0 1 0;
#X connect 18 0 1 0;
#X connect 19 0 9 0;
#X restore 424 175 pd bonker;
#X obj 92 16 bng 15 250 50 0 create empty CREATE -65 6 129 11 -262144
-99865 -2112;
#X obj 92 54 bng 15 250 50 0 destroy empty DESTROY -75 6 129 11 -262144
-99865 -2112;
#X obj 92 35 tgl 15 0 render empty RENDER -67 6 129 11 -262144 -1 -2112
1 1;
#N canvas 469 59 454 304 gemwin 0;
#X obj 26 238 gemwin;
#X msg 43 74 destroy;
#X msg 63 130 \; pd dsp 1;
#X obj 63 104 loadbang;
#X msg 27 46 create;
#X msg 44 192 dimen 800 600;
#X obj 115 55 tgl 30 0 empty render render_on/off -14 -10 65 8 -199729
-1 -128992 1 1;
#X msg 54 169 color 0 0 0;
#X obj 27 24 bng 15 250 50 0 empty create empty 0 -6 64 8 -262144 -1
-1;
#X obj 47 24 bng 15 250 50 0 empty destroy empty 0 -6 64 8 -262144
-1 -1;
#X connect 1 0 0 0;
#X connect 3 0 2 0;
#X connect 3 0 5 0;
#X connect 3 0 7 0;
#X connect 4 0 0 0;
#X connect 5 0 0 0;
#X connect 6 0 0 0;
#X connect 7 0 0 0;
#X connect 8 0 4 0;
#X connect 9 0 1 0;
#X restore 424 197 pd gemwin;
#X obj 137 13 cnv 15 300 100 empty empty .|_CUBE_|. 5 15 1 14 -233017
-1 0;
#X obj 147 70 bng 15 250 50 0 open_balk empty load_avi 20 7 129 11
-262144 -1 -1;
#X obj 147 48 tgl 15 0 on_balk empty on/off 20 7 129 11 -262144 -1
-1 0 1;
#N canvas 247 337 569 512 balken 0;
#X obj 91 30 gemhead;
#X obj 92 449 scaleXYZ 1 1 1;
#X obj 91 236 pix_coordinate;
#X floatatom 366 250 0 0 0;
#X floatatom 127 424 5 0 0;
#X floatatom 163 373 5 0 0;
#X obj 91 138 rotateXYZ;
#X msg 127 398 5;
#X floatatom 199 424 5 0 0;
#X obj 91 179 pix_movie balken1.avi;
#X obj 366 199 r a;
#X msg 366 279 0 1 \$1 5 2 \$1 \$1 1;
#X obj 366 226 / 5;
#X floatatom 158 115 5 0 0;
#X floatatom 321 73 5 0 0;
#X obj 135 82 * 360;
#X msg 195 88 111;
#X obj 113 114 r b;
#X msg 163 348 12;
#X obj 135 59 r a;
#X obj 199 398 r a;
#X obj 193 16 loadbang;
#X obj 148 319 loadbang;
#X obj 11 119 openpanel;
#X obj 11 98 bng 15 250 50 0 empty open_balk empty 0 -6 64 8 -262144
-1 -1;
#X msg 11 149 open \$1;
#X obj 173 207 s end;
#X obj 91 10 tgl 15 0 empty on_balk empty 0 -6 64 8 -262144 -1 -1 0
1;
#X obj 254 59 tgl 15 0 empty play_balk empty 0 -6 64 8 -262144 -1 -1
1 1;
#N canvas 0 0 454 304 frames 0;
#X obj 34 43 inlet;
#X obj 93 62 inlet;
#X obj 34 208 outlet;
#X text 28 24 on/off;
#X text 92 40 speed;
#X floatatom 34 182 0 0 0;
#X obj 34 113 metro 50;
#X obj 34 139 bng 15 250 50 0 env empty empty 20 8 128 8 -262144 -1
-1;
#X obj 149 132 r end;
#X obj 34 158 counter 500 148;
#X obj 97 87 max 10;
#X connect 0 0 6 0;
#X connect 1 0 10 0;
#X connect 5 0 2 0;
#X connect 6 0 7 0;
#X connect 7 0 9 0;
#X connect 8 0 9 3;
#X connect 9 0 5 0;
#X connect 10 0 6 1;
#X restore 254 112 pd frames;
#X obj 91 288 colorRGB;
#X obj 91 315 alpha;
#X obj 150 263 r alpha;
#X obj 320 25 r speed_balk;
#X obj 92 474 cube;
#X connect 0 0 6 0;
#X connect 1 0 34 0;
#X connect 2 0 30 0;
#X connect 3 0 11 0;
#X connect 4 0 1 1;
#X connect 5 0 1 2;
#X connect 6 0 9 0;
#X connect 7 0 4 0;
#X connect 8 0 1 3;
#X connect 9 0 2 0;
#X connect 9 1 26 0;
#X connect 10 0 12 0;
#X connect 11 0 2 1;
#X connect 12 0 3 0;
#X connect 13 0 6 3;
#X connect 14 0 29 1;
#X connect 15 0 6 2;
#X connect 16 0 13 0;
#X connect 17 0 6 1;
#X connect 18 0 5 0;
#X connect 19 0 15 0;
#X connect 20 0 8 0;
#X connect 21 0 16 0;
#X connect 22 0 18 0;
#X connect 22 0 7 0;
#X connect 23 0 25 0;
#X connect 24 0 23 0;
#X connect 25 0 9 0;
#X connect 27 0 0 0;
#X connect 28 0 29 0;
#X connect 29 0 9 1;
#X connect 30 0 31 0;
#X connect 31 0 1 0;
#X connect 32 0 30 4;
#X connect 33 0 14 0;
#X restore 424 153 pd balken;
#X msg 426 290 \; pd dsp 0;
#X msg 427 250 \; pd dsp 1;
#X obj 427 225 loadbang;
#X msg 245 389 \; pd restart-audio;
#X obj 147 91 tgl 15 0 play_balk empty play_avi 20 7 129 11 -262144
-1 -1 1 1;
#X obj 265 24 vsl 15 65 120 10 0 0 speed_balk empty __speed 0 76 129
11 -262144 -1 -1 0 1;
#X obj 337 25 vsl 15 65 0 1 0 0 alpha empty __alpha 0 76 129 11 -262144
-1 -1 0 1;
#X obj 135 297 adc~;
#X obj 65 200 openpanel;
#X obj 65 181 bng 15 250 50 0 empty empty empty 0 -6 0 8 -262144 -1
-1;
#X obj 140 334 s~ tune;
#X msg 149 223 1;
#X msg 188 233 0;
#X msg 65 223 open \$1;
#X obj 65 262 readsf~ 2;
#X connect 11 0 10 0;
#X connect 16 0 19 0;
#X connect 16 1 19 0;
#X connect 17 0 22 0;
#X connect 18 0 17 0;
#X connect 20 0 23 0;
#X connect 21 0 23 0;
#X connect 22 0 23 0;
