#N canvas 274 97 484 559 10;
#X obj 168 238 bag;
#X obj 147 320 list;
#X obj 210 297 t l;
#X msg 384 202 1;
#X msg 211 22 60 64;
#X msg 215 43 60 0;
#X msg 168 22 45 64;
#X msg 173 43 45 0;
#X msg 120 22 30 64;
#X msg 119 46 30 0;
#X msg 343 24 clear;
#X obj 269 201 list split 1;
#X obj 269 169 t a b;
#X msg 258 22 65 64;
#X msg 262 43 65 0;
#X obj 78 498 print NOTES;
#X obj 349 371 list length;
#X obj 146 344 t l l l;
#X obj 349 417 random;
#X obj 349 393 t b f;
#X obj 292 439 list split;
#X obj 320 463 list split 1;
#X obj 320 498 print NOTE;
#X msg 106 221 flush;
#X obj 36 25 bng 15 250 50 0 empty empty fetch 17 7 0 10 -262144 -1
-1;
#X obj 36 232 t b b b b;
#X obj 303 236 t l;
#X text 313 167 refill \, after flush;
#X obj 168 272 list;
#X connect 0 0 28 0;
#X connect 1 0 12 0;
#X connect 1 0 17 0;
#X connect 2 0 28 1;
#X connect 3 0 0 1;
#X connect 4 0 0 0;
#X connect 5 0 0 0;
#X connect 6 0 0 0;
#X connect 7 0 0 0;
#X connect 8 0 0 0;
#X connect 9 0 0 0;
#X connect 10 0 0 0;
#X connect 11 0 0 0;
#X connect 11 1 26 0;
#X connect 12 0 11 0;
#X connect 12 1 3 0;
#X connect 13 0 0 0;
#X connect 14 0 0 0;
#X connect 16 0 19 0;
#X connect 17 0 15 0;
#X connect 17 1 20 0;
#X connect 17 2 16 0;
#X connect 18 0 20 1;
#X connect 19 0 18 0;
#X connect 19 1 18 1;
#X connect 20 1 21 0;
#X connect 21 0 22 0;
#X connect 23 0 0 0;
#X connect 24 0 25 0;
#X connect 25 1 1 0;
#X connect 25 2 23 0;
#X connect 25 3 1 1;
#X connect 25 3 28 1;
#X connect 26 0 11 0;
#X connect 28 0 1 1;
#X connect 28 0 2 0;
