#N canvas 732 89 450 300 10;
#X obj 105 41 delay 1000;
#X obj 163 153 f;
#X obj 194 154 + 1;
#X msg 178 126 0;
#X obj 151 70 t b b;
#X obj 86 112 spigot;
#X obj 119 89 tgl 15 0 empty empty empty 17 7 0 10 -262144 -1 -1 0
1;
#X obj 69 83 bang~;
#X floatatom 163 190 5 0 0 0 - - -, f 5;
#X obj 323 70 loadbang;
#X msg 323 102 \; pd dsp 1;
#X obj 187 43 bng 15 250 50 0 empty empty empty 17 7 0 10 -262144 -1
-1;
#X msg 263 166 set 1;
#X obj 263 188 block~;
#X connect 0 0 6 0;
#X connect 1 0 2 0;
#X connect 1 0 8 0;
#X connect 2 0 1 1;
#X connect 3 0 1 1;
#X connect 4 0 6 0;
#X connect 4 0 0 0;
#X connect 4 1 3 0;
#X connect 5 0 1 0;
#X connect 6 0 5 1;
#X connect 7 0 5 0;
#X connect 9 0 10 0;
#X connect 9 0 12 0;
#X connect 11 0 4 0;
#X connect 12 0 13 0;
