#N canvas 0 0 567 540 10;
#X obj 128 47 osc~ 200;
#X obj 233 203 env~;
#X obj 233 230 - 100;
#X obj 234 263 vu 15 120 empty empty -1 -8 0 10 -66577 -1 1 0;
#X obj 128 173 *~ 0;
#X obj 153 112 dbtorms;
#X obj 156 71 hsl 128 15 0 127 0 0 empty empty empty -2 -8 0 10 -262144
-1 -1 6500 1;
#X floatatom 160 93 5 0 0 0 - - -;
#X floatatom 160 136 5 0 0 0 - - -;
#X floatatom 233 407 5 0 0 0 - - -;
#X obj 115 232 dac~;
#X floatatom 187 235 5 0 0 0 - - -;
#X floatatom 128 30 5 0 0 0 - - -;
#X connect 0 0 4 0;
#X connect 1 0 2 0;
#X connect 1 0 11 0;
#X connect 2 0 3 0;
#X connect 3 0 9 0;
#X connect 4 0 1 0;
#X connect 4 0 10 0;
#X connect 4 0 10 1;
#X connect 5 0 4 1;
#X connect 5 0 8 0;
#X connect 6 0 5 0;
#X connect 6 0 7 0;
#X connect 12 0 0 0;
