#N canvas 345 215 575 422 12;
#X obj 294 155 osc~ 180;
#X obj 36 155 osc~ 330;
#X obj 122 25 phasor~ 286;
#X obj 181 374 dac~;
#X obj 123 122 abs~;
#X obj 122 57 *~ 2;
#X obj 123 89 -~ 1;
#X obj 123 155 -~ 0.5;
#X obj 219 122 abs~;
#X obj 218 57 *~ 2;
#X obj 219 89 -~ 1;
#X obj 219 155 -~ 0.5;
#X obj 218 25 phasor~ 335;
#X obj 36 191 /~ 4;
#X obj 124 191 /~ 4;
#X obj 219 192 /~ 4;
#X obj 296 194 /~ 4;
#X obj 180 243 +~;
#X obj 306 288 phasor~;
#X obj 306 259 * 0.01;
#X floatatom 306 232 5 0 0 0 - - -;
#X obj 181 315 *~;
#X msg 258 234 -50;
#X connect 0 0 16 0;
#X connect 1 0 13 0;
#X connect 2 0 5 0;
#X connect 4 0 7 0;
#X connect 5 0 6 0;
#X connect 6 0 4 0;
#X connect 7 0 14 0;
#X connect 8 0 11 0;
#X connect 9 0 10 0;
#X connect 10 0 8 0;
#X connect 11 0 15 0;
#X connect 12 0 9 0;
#X connect 13 0 17 0;
#X connect 14 0 17 0;
#X connect 15 0 17 0;
#X connect 16 0 17 0;
#X connect 17 0 21 0;
#X connect 18 0 21 1;
#X connect 19 0 18 0;
#X connect 20 0 19 0;
#X connect 21 0 3 0;
#X connect 22 0 19 0;
