#N canvas 548 212 663 484 10;
#X obj 396 121 catch~ \$0-dsp;
#X obj 84 193 s \$0-freq;
#X obj 84 166 mtof;
#X obj 397 190 *~ 0;
#X obj 420 167 dbtorms;
#X obj 423 147 hsl 128 15 0 127 0 0 empty empty empty -2 -8 0 10 -262144
-1 -1 9600 1;
#X obj 388 219 dac~;
#X floatatom 84 143 5 0 0 0 - - -;
#X obj 106 285 s \$0-partial-amp;
#X obj 103 380 s \$0-partial-freq;
#X msg 103 357 0.56 0.56 0.92 0.92 1.19 1.7 2 2.74 3 3.76 4.07;
#X msg 106 259 1 0.67 1 1.8 2.67 1.67 1.46 1.33 1.33 1 1.33;
#X text 82 23 Parameters from Risset's bell;
#X msg 103 310 1 0.9 0.65 0.55 0.325 0.35 0.25 0.2 0.15 0.1 0.075;
#X msg 101 404 0 1 0 1.7 0 0 0 0 0 0 0;
#X floatatom 160 141 5 0 0 0 - - -;
#X obj 396 77 nqpoly4 11 bell \$0;
#X obj 103 332 s \$0-duration;
#X obj 101 426 s \$0-detune;
#X obj 160 193 s \$0-global-duration;
#X obj 241 89 s \$0-trigger;
#X msg 84 120 72;
#X msg 160 118 4000;
#X obj 241 51 bng 32 250 50 0 empty empty empty 17 7 0 10 -262144 -1
-1;
#X obj 123 64 loadbang;
#X obj 46 226 loadbang;
#X connect 0 0 3 0;
#X connect 2 0 1 0;
#X connect 3 0 6 0;
#X connect 3 0 6 1;
#X connect 4 0 3 1;
#X connect 5 0 4 0;
#X connect 7 0 2 0;
#X connect 10 0 9 0;
#X connect 11 0 8 0;
#X connect 13 0 17 0;
#X connect 14 0 18 0;
#X connect 15 0 19 0;
#X connect 21 0 7 0;
#X connect 22 0 15 0;
#X connect 23 0 20 0;
#X connect 24 0 21 0;
#X connect 24 0 22 0;
#X connect 25 0 11 0;
#X connect 25 0 13 0;
#X connect 25 0 10 0;
#X connect 25 0 14 0;
