#N canvas 0 0 518 887 10;
#X obj 34 812 dac~;
#X obj 36 328 phasor~ 100;
#X obj 166 43 t b b;
#X obj 166 20 bng 15 250 50 0 empty empty PARP! 0 -6 0 8 -241291 -1
-1;
#X obj 61 764 * 0.5;
#X obj 46 678 cos;
#X obj 46 655 * 3.14159;
#X obj 47 699 t b f;
#X obj 61 744 -;
#X msg 47 720 1;
#X obj 168 201 hsl 128 15 0 1 0 1 empty empty empty -2 -6 0 8 -262144
-1 -1 12700 1;
#N canvas 0 22 462 312 pulseShape 0;
#X obj 181 89 inlet~;
#X obj 181 117 -~ 0.5;
#X obj 181 149 *~;
#X obj 181 173 *~ -4;
#X obj 181 202 +~ 1;
#X obj 181 229 outlet~;
#X connect 0 0 1 0;
#X connect 1 0 2 0;
#X connect 1 0 2 1;
#X connect 2 0 3 0;
#X connect 3 0 4 0;
#X connect 4 0 5 0;
#X restore 36 401 pd pulseShape;
#X obj 35 275 sig~;
#X obj 36 301 +~;
#X obj 68 210 noise~;
#N canvas 0 0 450 300 bpar8 0;
#X obj 20 195 bp~ 1 1;
#X obj 77 195 bp~ 1 1;
#X obj 135 195 bp~ 1 1;
#X obj 192 195 bp~ 1 1;
#X obj 249 195 bp~ 1 1;
#X obj 306 195 bp~ 1 1;
#X obj 364 195 bp~ 1 1;
#X obj 421 195 bp~ 1 1;
#X obj 411 56 inlet res;
#X obj 171 55 inlet~;
#X obj 236 54 unpack f f f f f f f f;
#X obj 237 27 inlet fs;
#X obj 173 267 outlet~;
#X connect 0 0 12 0;
#X connect 1 0 12 0;
#X connect 2 0 12 0;
#X connect 3 0 12 0;
#X connect 4 0 12 0;
#X connect 5 0 12 0;
#X connect 6 0 12 0;
#X connect 7 0 12 0;
#X connect 8 0 7 2;
#X connect 8 0 6 2;
#X connect 8 0 5 2;
#X connect 8 0 4 2;
#X connect 8 0 3 2;
#X connect 8 0 2 2;
#X connect 8 0 1 2;
#X connect 8 0 0 2;
#X connect 9 0 0 0;
#X connect 9 0 1 0;
#X connect 9 0 2 0;
#X connect 9 0 3 0;
#X connect 9 0 4 0;
#X connect 9 0 5 0;
#X connect 9 0 6 0;
#X connect 9 0 7 0;
#X connect 10 0 0 1;
#X connect 10 1 1 1;
#X connect 10 2 2 1;
#X connect 10 3 3 1;
#X connect 10 4 4 1;
#X connect 10 5 5 1;
#X connect 10 6 6 1;
#X connect 10 7 7 1;
#X connect 11 0 10 0;
#X restore 37 578 pd bpar8;
#N canvas 0 0 758 552 bparprog 0;
#X obj 129 431 pack f f f f f f f f;
#X obj 114 373 t b f;
#X obj 158 374 t b f;
#X obj 204 372 t b f;
#X obj 248 374 t b f;
#X obj 292 375 t b f;
#X obj 339 375 t b f;
#X obj 383 377 t b f;
#X obj 129 460 outlet;
#X obj 176 39 inlet;
#X obj 174 67 unpack f f f f f f f f;
#X obj 103 118 nbx 4 14 -1e+37 1e+37 0 1 empty empty empty 0 -6 0 10
-262144 -1 -1 295 256;
#X obj 150 118 nbx 4 14 -1e+37 1e+37 0 1 empty empty empty 0 -6 0 10
-262144 -1 -1 434 256;
#X obj 197 118 nbx 4 14 -1e+37 1e+37 0 1 empty empty empty 0 -6 0 10
-262144 -1 -1 323 256;
#X obj 244 118 nbx 4 14 -1e+37 1e+37 0 1 empty empty empty 0 -6 0 10
-262144 -1 -1 385 256;
#X obj 292 118 nbx 4 14 -1e+37 1e+37 0 1 empty empty empty 0 -6 0 10
-262144 -1 -1 526 256;
#X obj 339 118 nbx 4 14 -1e+37 1e+37 0 1 empty empty empty 0 -6 0 10
-262144 -1 -1 882 256;
#X obj 386 118 nbx 4 14 -1e+37 1e+37 0 1 empty empty empty 0 -6 0 10
-262144 -1 -1 1094 256;
#X obj 433 118 nbx 4 14 -1e+37 1e+37 0 1 empty empty empty 0 -6 0 10
-262144 -1 -1 1857 256;
#X obj 471 211 *;
#X obj 471 185 t b f;
#X obj 421 213 *;
#X obj 421 187 t b f;
#X obj 371 214 *;
#X obj 371 188 t b f;
#X obj 321 216 *;
#X obj 321 190 t b f;
#X obj 276 216 *;
#X obj 276 190 t b f;
#X obj 226 218 *;
#X obj 226 192 t b f;
#X obj 176 219 *;
#X obj 176 193 t b f;
#X obj 126 221 *;
#X obj 126 195 t b f;
#X obj 534 131 t f f f f f f f f;
#X obj 535 102 inlet;
#X connect 0 0 8 0;
#X connect 1 0 0 0;
#X connect 1 1 0 1;
#X connect 2 0 0 0;
#X connect 2 1 0 2;
#X connect 3 0 0 0;
#X connect 3 1 0 3;
#X connect 4 0 0 0;
#X connect 4 1 0 4;
#X connect 5 0 0 0;
#X connect 5 1 0 5;
#X connect 6 0 0 0;
#X connect 6 1 0 6;
#X connect 7 0 0 0;
#X connect 7 1 0 7;
#X connect 9 0 10 0;
#X connect 10 0 11 0;
#X connect 10 1 12 0;
#X connect 10 2 13 0;
#X connect 10 3 14 0;
#X connect 10 4 15 0;
#X connect 10 5 16 0;
#X connect 10 6 17 0;
#X connect 10 7 18 0;
#X connect 11 0 34 0;
#X connect 12 0 32 0;
#X connect 13 0 30 0;
#X connect 14 0 28 0;
#X connect 15 0 26 0;
#X connect 16 0 24 0;
#X connect 17 0 22 0;
#X connect 18 0 20 0;
#X connect 19 0 7 0;
#X connect 20 0 19 0;
#X connect 20 1 19 1;
#X connect 21 0 6 0;
#X connect 22 0 21 0;
#X connect 22 1 21 1;
#X connect 23 0 5 0;
#X connect 24 0 23 0;
#X connect 24 1 23 1;
#X connect 25 0 4 0;
#X connect 26 0 25 0;
#X connect 26 1 25 1;
#X connect 27 0 3 0;
#X connect 28 0 27 0;
#X connect 28 1 27 1;
#X connect 29 0 2 0;
#X connect 30 0 29 0;
#X connect 30 1 29 1;
#X connect 31 0 1 0;
#X connect 32 0 31 0;
#X connect 32 1 31 1;
#X connect 33 0 0 0;
#X connect 34 0 33 0;
#X connect 34 1 33 1;
#X connect 35 0 33 0;
#X connect 35 1 31 0;
#X connect 35 2 29 0;
#X connect 35 3 27 0;
#X connect 35 4 25 0;
#X connect 35 5 23 0;
#X connect 35 6 21 0;
#X connect 35 7 19 0;
#X connect 36 0 35 0;
#X coords 0 -1 1 1 380 60 1 100 100;
#X restore 62 477 pd bparprog;
#X obj 93 556 nbx 5 14 -1e+37 1e+37 0 1 empty empty empty 0 -6 0 10
-262144 -1 -1 6 256;
#X obj 38 786 *~ 1;
#X obj 37 451 hip~ 1;
#X obj 36 354 *~ 0.5;
#X obj 36 427 *~ 0.5;
#X obj 435 456 + 1;
#X obj 47 634 * 2;
#X obj 165 110 line;
#X obj 165 159 *;
#X obj 164 63 del 2;
#X msg 203 62 0;
#X obj 165 181 *;
#X obj 164 132 t f f f;
#X msg 165 85 1 1000;
#X obj 436 434 * 2.4;
#X obj 27 253 * 250;
#X obj 67 254 lop~ 14;
#X obj 68 232 lop~ 14;
#X obj 68 275 *~ 1000;
#X connect 1 0 20 0;
#X connect 2 0 26 0;
#X connect 2 1 27 0;
#X connect 3 0 2 0;
#X connect 4 0 18 1;
#X connect 5 0 7 0;
#X connect 6 0 5 0;
#X connect 7 0 9 0;
#X connect 7 1 8 1;
#X connect 8 0 4 0;
#X connect 9 0 8 0;
#X connect 10 0 23 0;
#X connect 10 0 31 0;
#X connect 10 0 32 0;
#X connect 11 0 21 0;
#X connect 12 0 13 0;
#X connect 13 0 1 0;
#X connect 14 0 34 0;
#X connect 15 0 18 0;
#X connect 16 0 15 1;
#X connect 17 0 15 2;
#X connect 18 0 0 0;
#X connect 18 0 0 1;
#X connect 19 0 15 0;
#X connect 20 0 11 0;
#X connect 21 0 19 0;
#X connect 22 0 16 1;
#X connect 23 0 6 0;
#X connect 24 0 29 0;
#X connect 25 0 28 0;
#X connect 26 0 30 0;
#X connect 27 0 24 0;
#X connect 28 0 10 0;
#X connect 29 0 25 0;
#X connect 29 1 25 1;
#X connect 29 2 28 1;
#X connect 30 0 24 0;
#X connect 31 0 22 0;
#X connect 32 0 12 0;
#X connect 33 0 35 0;
#X connect 34 0 33 0;
#X connect 35 0 13 1;
