#N canvas 1 53 450 300 10;
#X obj 154 25 bng 52 250 50 0 empty empty empty 17 7 0 10 -262144 -1
-1;
#X symbolatom 153 180 15 0 0 0 - - -;
#N canvas 426 413 510 300 bomb 0;
#X obj 81 258 outlet~;
#X obj 138 258 outlet~;
#X obj 197 256 outlet~;
#X obj 81 5 inlet;
#X obj 81 27 b;
#X obj 81 49 random 100;
#X obj 81 200 mod 3;
#X obj 81 71 t a a a;
#X obj 100 135 + 1;
#X obj 120 93 + 2;
#X obj 100 157 mod 3;
#X obj 120 115 mod 3;
#X obj 81 222 + 1;
#X obj 119 179 + 1;
#X obj 144 136 + 1;
#X obj 176 143 s \$0-r;
#X obj 196 144 s pd-boom.pd;
#X msg 196 67 disconnect 2 0 3 0 \, disconnect 2 1 3 1 \, disconnect
2 2 3 2 \, connect 2 0 3 0 \, connect 2 1 3 1 \, connect 2 2 3 2;
#X obj 134 5 loadbang;
#X connect 3 0 4 0;
#X connect 4 0 5 0;
#X connect 4 0 17 0;
#X connect 5 0 7 0;
#X connect 6 0 12 0;
#X connect 7 0 6 0;
#X connect 7 1 8 0;
#X connect 7 2 9 0;
#X connect 8 0 10 0;
#X connect 9 0 11 0;
#X connect 10 0 13 0;
#X connect 11 0 14 0;
#X connect 12 0 0 0;
#X connect 13 0 1 0;
#X connect 14 0 2 0;
#X connect 17 0 16 0;
#X connect 18 0 4 0;
#X restore 154 83 pd bomb;
#N canvas 13 166 450 547 bomb 0;
#X obj 98 41 inlet~;
#X obj 175 41 inlet~;
#X obj 258 41 inlet~;
#X obj 40 100 loadbang;
#X obj 40 122 metro 100;
#X obj 162 367 outlet;
#X msg 179 294 symbol Cut_a_wire...;
#X obj 176 109 +~;
#X obj 162 149 +~;
#X obj 162 174 expr~ if($v1==6 \, 1 \, if($v1==5 \, 2 \, 0));
#X obj 162 215 snapshot~;
#X obj 162 237 sel 0 1 2;
#X obj 30 457 r \$0-error;
#X msg 30 482 Sorry-- couldn't find help patch for how to diffuse a
bomb.;
#X obj 30 504 print Error;
#X msg 162 330 symbol Lose.BOOM;
#X msg 196 263 symbol Genius.Success.;
#X connect 0 0 8 0;
#X connect 1 0 7 0;
#X connect 2 0 7 1;
#X connect 3 0 4 0;
#X connect 4 0 10 0;
#X connect 6 0 5 0;
#X connect 7 0 8 1;
#X connect 8 0 9 0;
#X connect 9 0 10 0;
#X connect 10 0 11 0;
#X connect 11 0 15 0;
#X connect 11 1 6 0;
#X connect 11 2 16 0;
#X connect 12 0 13 0;
#X connect 13 0 14 0;
#X connect 15 0 5 0;
#X connect 16 0 5 0;
#X restore 153 158 pd bomb;
#X obj 23 40 loadbang;
#X msg 23 62 dsp 1;
#X obj 23 84 s pd;
#X obj 67 252 bng 15 250 50 0 \$0-error empty empty 17 7 0 10 -262144
-1 -1;
#X text 86 250 Click for help on how to diffuse a bomb;
#X text 216 43 Try again;
#X connect 0 0 2 0;
#X connect 2 0 3 0;
#X connect 2 1 3 1;
#X connect 2 2 3 2;
#X connect 3 0 1 0;
#X connect 4 0 5 0;
#X connect 5 0 6 0;
