#N canvas 94 427 81 91 10;
#X obj 2 2 cnv 15 78 88 empty empty bot.blip 4 6 0 8 -42246 -225271
0;
#X obj 4 16 hsl 35 15 0 1 0 0 \$0-decay-out \$0-decay-in decay 2 8
0 8 -3777 -42246 -42246 2900 1;
#N canvas 170 41 1086 797 meat 0;
#X obj 47 6 inlet;
#X obj 353 92 r \$0-f1start-out;
#X obj 363 222 r \$0-f1end-out;
#X obj 359 328 r \$0-f2-out;
#X obj 354 439 r \$0-f2amount-out;
#X obj 327 7 r \$0-decay-out;
#X obj 729 33 inlet savebox;
#X obj 750 493 outlet savebox;
#X obj 10 153 / 128;
#X obj 40 490 *~;
#X obj 11 215 t f f;
#X obj 310 93 * 200;
#X obj 366 169 * 4000;
#X obj 349 293 * 4000;
#X obj 362 402 * 4000;
#X obj 96 420 osc~;
#X obj 141 432 osc~;
#X obj 154 487 +~;
#X obj 96 459 *~;
#X obj 81 362 *~;
#X obj 61 463 *~;
#X obj 131 517 cos~;
#X obj 689 297 f;
#X obj 791 279 t b f;
#X obj 771 258 t b f;
#X obj 749 238 t b f;
#X obj 717 218 t b f;
#X obj 540 138 s \$0-f1start-in;
#X obj 536 199 s \$0-f1end-in;
#X obj 539 279 s \$0-f2-in;
#X obj 542 345 s \$0-f2amount-in;
#X obj 523 81 s \$0-decay-in;
#X obj 27 269 *;
#X obj 355 122 t f f;
#X obj 357 147 *;
#X obj 375 246 t f f;
#X obj 377 271 *;
#X obj 368 354 t f f;
#X obj 370 379 *;
#X msg 246 264 0;
#X msg 286 254 1;
#X obj 718 419 iem_prepend set;
#X msg 553 439 onoff \$1;
#X obj 132 68 moses 1;
#X obj 87 41 route bang;
#X msg 69 72 100;
#X msg 157 114 0;
#X obj 193 117 pack 1 0.2 0 f;
#X obj 153 141 t3_bpe;
#X obj 131 203 t3_line~ 0;
#X obj 212 179 t3_delay 3;
#X obj 210 253 t b f;
#X obj 141 322 *~;
#X obj 149 346 +~;
#X obj 102 89 t b b f;
#X obj 156 298 -;
#X obj 116 574 switch~;
#X obj 51 544 bot._send;
#X obj 47 568 outlet;
#N canvas 383 157 667 494 green 0;
#X obj 178 39 inlet;
#X obj 254 327 outlet;
#X obj 270 286 - 1;
#X obj 252 110 int;
#X msg 268 308 color \$1 26 26;
#X obj 244 70 * 127;
#X obj 252 88 + 128;
#X obj 242 151 * -256;
#X connect 0 0 5 0;
#X connect 2 0 4 0;
#X connect 3 0 7 0;
#X connect 4 0 1 0;
#X connect 5 0 6 0;
#X connect 6 0 3 0;
#X connect 7 0 2 0;
#X restore 465 41 pd green;
#N canvas 383 157 667 494 green 0;
#X obj 178 39 inlet;
#X obj 254 327 outlet;
#X obj 270 286 - 1;
#X obj 252 110 int;
#X msg 268 308 color \$1 26 26;
#X obj 244 70 * 127;
#X obj 252 88 + 128;
#X obj 242 151 * -256;
#X connect 0 0 5 0;
#X connect 2 0 4 0;
#X connect 3 0 7 0;
#X connect 4 0 1 0;
#X connect 5 0 6 0;
#X connect 6 0 3 0;
#X connect 7 0 2 0;
#X restore 454 162 pd green;
#N canvas 383 157 667 494 green 0;
#X obj 178 39 inlet;
#X obj 254 327 outlet;
#X obj 270 286 - 1;
#X obj 252 110 int;
#X msg 268 308 color \$1 26 26;
#X obj 244 70 * 127;
#X obj 252 88 + 128;
#X obj 242 151 * -256;
#X connect 0 0 5 0;
#X connect 2 0 4 0;
#X connect 3 0 7 0;
#X connect 4 0 1 0;
#X connect 5 0 6 0;
#X connect 6 0 3 0;
#X connect 7 0 2 0;
#X restore 473 203 pd green;
#N canvas 383 157 667 494 green 0;
#X obj 178 39 inlet;
#X obj 254 327 outlet;
#X obj 270 286 - 1;
#X obj 252 110 int;
#X msg 268 308 color \$1 26 26;
#X obj 244 70 * 127;
#X obj 252 88 + 128;
#X obj 242 151 * -256;
#X connect 0 0 5 0;
#X connect 2 0 4 0;
#X connect 3 0 7 0;
#X connect 4 0 1 0;
#X connect 5 0 6 0;
#X connect 6 0 3 0;
#X connect 7 0 2 0;
#X restore 416 467 pd green;
#N canvas 383 157 667 494 green 0;
#X obj 178 39 inlet;
#X obj 254 327 outlet;
#X obj 270 286 - 1;
#X obj 252 110 int;
#X msg 268 308 color \$1 26 26;
#X obj 244 70 * 127;
#X obj 252 88 + 128;
#X obj 242 151 * -256;
#X connect 0 0 5 0;
#X connect 2 0 4 0;
#X connect 3 0 7 0;
#X connect 4 0 1 0;
#X connect 5 0 6 0;
#X connect 6 0 3 0;
#X connect 7 0 2 0;
#X restore 457 266 pd green;
#X obj 169 17 route control;
#X obj 201 56 route bot.blip;
#X obj 182 81 iem_prepend control;
#X obj 261 35 s \$0-control;
#X obj 323 502 r \$0-control;
#X obj 334 525 route decay f1start f1end f2 f2amount;
#X obj 345 580 s \$0-f1start-in;
#X obj 410 568 s \$0-f1end-in;
#X obj 469 546 s \$0-f2-in;
#X obj 545 556 s \$0-f2amount-in;
#X obj 329 601 s \$0-decay-in;
#N canvas 0 0 450 300 factoryset 0;
#X obj 102 21 inlet;
#X obj 243 100 delay;
#X obj 242 44 init 10;
#X msg 183 76 stop;
#X obj 149 200 outlet;
#X obj 176 164 spigot 1;
#X msg 144 106 0;
#X msg 267 179 0.405405 0.567568 0.108108 0.27027 0.851351 0.8;
#X connect 0 0 6 0;
#X connect 0 0 3 0;
#X connect 0 0 4 0;
#X connect 1 0 7 0;
#X connect 2 0 1 0;
#X connect 3 0 1 0;
#X connect 5 0 4 0;
#X connect 6 0 5 1;
#X connect 7 0 5 0;
#X restore 684 101 pd factoryset;
#X obj 707 340 pack f f f f f f;
#X obj 694 157 unpack f f f f f f;
#X obj 835 301 t b f;
#X obj 576 607 r \$0-volume-out;
#X obj 590 696 s \$0-volume-in;
#N canvas 383 157 667 494 green 0;
#X obj 178 39 inlet;
#X obj 254 327 outlet;
#X obj 270 286 - 1;
#X obj 252 110 int;
#X msg 268 308 color \$1 26 26;
#X obj 244 70 * 127;
#X obj 252 88 + 128;
#X obj 242 151 * -256;
#X connect 0 0 5 0;
#X connect 2 0 4 0;
#X connect 3 0 7 0;
#X connect 4 0 1 0;
#X connect 5 0 6 0;
#X connect 6 0 3 0;
#X connect 7 0 2 0;
#X restore 628 658 pd green;
#N canvas 383 157 667 494 green 0;
#X obj 178 39 inlet;
#X obj 254 327 outlet;
#X obj 270 286 - 1;
#X obj 252 110 int;
#X msg 268 308 color \$1 26 26;
#X obj 244 70 * 127;
#X obj 252 88 + 128;
#X obj 242 151 * -256;
#X connect 0 0 5 0;
#X connect 2 0 4 0;
#X connect 3 0 7 0;
#X connect 4 0 1 0;
#X connect 5 0 6 0;
#X connect 6 0 3 0;
#X connect 7 0 2 0;
#X restore 628 658 pd green;
#X obj 67 520 *~;
#X obj 452 671 pack f 20;
#X obj 470 702 line~;
#X obj 531 633 t f f;
#X obj 462 644 *;
#X connect 0 0 64 0;
#X connect 1 0 26 0;
#X connect 1 0 33 0;
#X connect 1 0 60 0;
#X connect 2 0 25 0;
#X connect 2 0 35 0;
#X connect 2 0 61 0;
#X connect 3 0 24 0;
#X connect 3 0 37 0;
#X connect 3 0 63 0;
#X connect 4 0 18 1;
#X connect 4 0 23 0;
#X connect 4 0 62 0;
#X connect 5 0 11 0;
#X connect 5 0 22 0;
#X connect 5 0 59 0;
#X connect 6 0 75 0;
#X connect 8 0 10 0;
#X connect 9 0 83 0;
#X connect 10 0 32 0;
#X connect 10 1 32 1;
#X connect 11 0 47 3;
#X connect 12 0 55 0;
#X connect 13 0 51 0;
#X connect 13 0 53 1;
#X connect 14 0 15 0;
#X connect 15 0 18 0;
#X connect 16 0 17 1;
#X connect 17 0 21 0;
#X connect 18 0 17 0;
#X connect 19 0 20 1;
#X connect 20 0 9 1;
#X connect 21 0 20 0;
#X connect 22 0 76 0;
#X connect 23 0 22 0;
#X connect 23 1 76 4;
#X connect 24 0 22 0;
#X connect 24 1 76 3;
#X connect 25 0 22 0;
#X connect 25 1 76 2;
#X connect 26 0 22 0;
#X connect 26 1 76 1;
#X connect 32 0 9 0;
#X connect 33 0 34 0;
#X connect 33 1 34 1;
#X connect 34 0 12 0;
#X connect 35 0 36 0;
#X connect 35 1 36 1;
#X connect 36 0 13 0;
#X connect 37 0 38 0;
#X connect 37 1 38 1;
#X connect 38 0 14 0;
#X connect 39 0 42 0;
#X connect 40 0 42 0;
#X connect 41 0 7 0;
#X connect 42 0 57 2;
#X connect 43 1 54 0;
#X connect 44 0 45 0;
#X connect 44 1 43 0;
#X connect 45 0 54 0;
#X connect 46 0 48 0;
#X connect 46 0 16 1;
#X connect 47 0 48 0;
#X connect 48 0 49 0;
#X connect 48 1 49 1;
#X connect 48 2 50 0;
#X connect 49 0 19 0;
#X connect 49 0 19 1;
#X connect 49 0 52 0;
#X connect 50 0 39 0;
#X connect 51 0 55 0;
#X connect 51 1 55 1;
#X connect 52 0 53 0;
#X connect 53 0 16 0;
#X connect 54 0 46 0;
#X connect 54 1 47 0;
#X connect 54 1 40 0;
#X connect 54 2 8 0;
#X connect 55 0 52 1;
#X connect 57 0 58 0;
#X connect 57 1 56 0;
#X connect 59 0 31 0;
#X connect 60 0 27 0;
#X connect 61 0 28 0;
#X connect 62 0 30 0;
#X connect 63 0 29 0;
#X connect 64 0 65 0;
#X connect 64 1 44 0;
#X connect 65 0 67 0;
#X connect 65 1 66 0;
#X connect 66 0 58 0;
#X connect 68 0 69 0;
#X connect 69 0 74 0;
#X connect 69 1 70 0;
#X connect 69 2 71 0;
#X connect 69 3 72 0;
#X connect 69 4 73 0;
#X connect 75 0 77 0;
#X connect 76 0 41 0;
#X connect 77 0 22 1;
#X connect 77 0 31 0;
#X connect 77 1 27 0;
#X connect 77 1 76 1;
#X connect 77 2 28 0;
#X connect 77 2 76 2;
#X connect 77 3 29 0;
#X connect 77 3 76 3;
#X connect 77 4 30 0;
#X connect 77 4 76 4;
#X connect 77 5 76 5;
#X connect 77 5 80 0;
#X connect 78 0 22 0;
#X connect 78 1 76 5;
#X connect 79 0 78 0;
#X connect 79 0 82 0;
#X connect 79 0 86 0;
#X connect 82 0 80 0;
#X connect 83 0 57 0;
#X connect 83 0 57 1;
#X connect 84 0 85 0;
#X connect 85 0 83 1;
#X connect 86 0 87 0;
#X connect 86 1 87 1;
#X connect 87 0 84 0;
#X restore 97 60 pd meat;
#X obj 4 31 hsl 75 15 0 1 0 0 \$0-f1start-out \$0-f1start-in f1start
8 8 0 8 -4033 -42246 -42246 7400 1;
#X obj 4 46 hsl 75 15 0 1 0 0 \$0-f1end-out \$0-f1end-in f1end 8 8
0 8 -2049 -42246 -42246 0 1;
#X obj 4 61 hsl 75 15 0 1 0 0 \$0-f2-out \$0-f2-in f2 8 8 0 8 -2049
-42246 -42246 0 1;
#X obj 4 76 hsl 75 15 0 1 0 0 \$0-f2amount-out \$0-f2amount-in f2amount
8 8 0 8 -2049 -42246 -42246 0 1;
#X obj 101 10 inlet;
#X obj 174 86 outlet savebox;
#X obj 160 15 inlet savebox;
#X obj 100 92 outlet;
#X obj 44 16 hsl 35 15 0 1 0 0 \$0-volume-out \$0-volume-in volume
1 8 0 8 -4033 -42246 -42246 3400 1;
#X connect 2 0 10 0;
#X connect 2 1 8 0;
#X connect 7 0 2 0;
#X connect 9 0 2 1;
#X coords 0 0 1 1 80 90 1;
