#N canvas 90 93 619 302 12;
#X obj 172 96 nbx 5 14 -1e+037 1e+037 0 0 empty \$0-speed empty 0 -6
576 10 -262144 -1 -1 252 256;
#X floatatom 228 176 5 0 0 0 - - -;
#X obj 172 175 pow -1;
#X obj 172 120 / 60000;
#X text 230 93 <--BPM Converter;
#X obj 137 208 metro;
#X obj 137 247 bng 15 250 50 0 empty empty empty 0 -6 0 8 -262144 -1
-1;
#X obj 172 149 * 1;
#X text 202 150 <--Change number to set "scale";
#X obj 137 57 tgl 15 0 empty empty empty 0 -6 0 8 -262144 -1 -1 0 1
;
#X text 15 8 A very simple BPM converter;
#X connect 0 0 3 0;
#X connect 2 0 1 0;
#X connect 2 0 5 1;
#X connect 3 0 7 0;
#X connect 5 0 6 0;
#X connect 7 0 2 0;
#X connect 9 0 5 0;
