#N canvas 525 9 454 391 10;
#X obj 211 169 sin;
#X obj 186 168 cos;
#X obj 190 324 pack f f 0;
#X obj 186 134 t f f;
#X obj 186 107 * 6.28319;
#X obj 186 69 / \$2;
#X obj 186 44 \$1;
#X obj 186 9 loadbang;
#X obj 190 357 outlet;
#X obj 137 67 mod 2;
#X obj 98 112 spigot;
#X obj 55 20 r \$3-stardepth;
#X obj 117 152 / 100;
#X obj 190 296 *;
#X obj 186 202 t b f;
#X obj 190 267 1;
#X obj 222 266 *;
#X obj 222 203 t b f;
#X obj 222 241 1;
#X obj 115 182 t a a;
#X obj 98 66 + 100;
#X obj 81 41 max 0;
#X connect 0 0 17 0;
#X connect 1 0 14 0;
#X connect 2 0 8 0;
#X connect 3 0 1 0;
#X connect 3 1 0 0;
#X connect 4 0 3 0;
#X connect 5 0 4 0;
#X connect 6 0 5 0;
#X connect 6 0 9 0;
#X connect 7 0 6 0;
#X connect 9 0 10 1;
#X connect 10 0 12 0;
#X connect 11 0 21 0;
#X connect 12 0 19 0;
#X connect 13 0 2 0;
#X connect 14 0 15 0;
#X connect 14 1 13 1;
#X connect 15 0 13 0;
#X connect 16 0 2 1;
#X connect 17 0 18 0;
#X connect 17 1 16 1;
#X connect 18 0 16 0;
#X connect 19 0 15 0;
#X connect 19 1 18 0;
#X connect 20 0 10 0;
#X connect 21 0 20 0;
