#N canvas 386 131 773 556 10;
#X obj 28 139 t b b;
#X obj 28 113 metro 10;
#X obj 28 91 tgl 15 0 empty empty empty 17 7 0 10 -262144 -1 -1 1 1
;
#X msg 223 48 reset;
#X msg 163 48 resetL;
#X msg 148 72 resetF;
#X obj 148 -2 bng 15 250 50 0 empty empty empty 0 -6 0 8 -262144 -1
-1;
#X obj 197 7 loadbang;
#N canvas 355 94 790 852 mass_n_link 0;
#X text 200 1 the 2 different links have different 'muscle'strength
;
#X obj 39 122 btch_link_1;
#X obj 38 214 btch_mass3 0 -3 -2;
#X obj 38 183 btch_link_1;
#X obj 39 84 btch_mass 0 3 -2;
#X obj 470 119 btch_link_1;
#X obj 269 434 btch_link_1;
#X obj 38 151 btch_mass2 0 -0.5 -2;
#X text 84 56 centre;
#X obj 272 116 btch_link_1;
#X text 258 52 chime 1;
#X text 425 52 chime 2;
#X obj 662 120 btch_link_1;
#X text 645 50 chime 3;
#X text 228 366 chime 4;
#X obj 460 438 btch_link_1;
#X text 431 369 chime 5;
#X obj 269 503 btch_link_2;
#X obj 271 188 btch_link_2;
#X obj 272 243 btch_link_2;
#X obj 471 186 btch_link_2;
#X obj 663 191 btch_link_2;
#X obj 663 244 btch_link_2;
#X obj 471 245 btch_link_2;
#X obj 269 564 btch_link_2;
#X obj 460 506 btch_link_2;
#X obj 460 565 btch_link_2;
#X obj 218 216 btch_mass01_sph 0 0 0;
#X obj 370 216 btch_mass02_sph -1.72 0 -1.48;
#X obj 567 217 btch_mass03_sph -1.2 0 -3.72;
#X obj 180 534 btch_mass04_sph 1.2 0 -3.72;
#X obj 365 533 btch_mass05_sph 1.72 0 -1.48;
#X obj 375 84 btch_mass_sph -1.5 3 -1.48;
#X obj 572 86 btch_mass_sph -1.2 3 -3;
#X obj 186 399 btch_mass_sph 1.2 3 -3;
#X obj 370 403 btch_mass_sph 1.5 3 -1.48;
#X obj 224 82 btch_mass_sph 0 3 -0.4;
#X text 208 16 each mass has different weight \, according to size
- is this right??;
#X obj 365 471 btch_mass05_sph 1.72 1 -1.48;
#X obj 359 597 btch_mass05_sph 1.72 -1 -1.48;
#X obj 180 471 btch_mass04_sph 1.2 1 -3.72;
#X obj 173 596 btch_mass04_sph 1.2 -1 -3.72;
#X obj 567 154 btch_mass03_sph -1.2 1 -3.72;
#X obj 562 274 btch_mass03_sph -1.2 -1 -3.72;
#X obj 369 153 btch_mass02_sph -1.72 1 -1.48;
#X obj 363 273 btch_mass02_sph -1.72 -1 -1.48;
#X obj 218 156 btch_mass01_sph 0 1 0;
#X obj 213 271 btch_mass01_sph 0 -1 0;
#X connect 1 0 4 0;
#X connect 1 1 7 0;
#X connect 2 0 3 1;
#X connect 3 0 7 0;
#X connect 3 1 2 0;
#X connect 4 0 1 0;
#X connect 5 0 32 0;
#X connect 5 1 44 0;
#X connect 6 0 34 0;
#X connect 6 1 40 0;
#X connect 7 0 1 1;
#X connect 7 0 3 0;
#X connect 9 0 36 0;
#X connect 9 1 46 0;
#X connect 12 0 33 0;
#X connect 12 1 42 0;
#X connect 15 0 35 0;
#X connect 15 1 38 0;
#X connect 17 0 40 0;
#X connect 17 1 30 0;
#X connect 18 0 46 0;
#X connect 18 1 27 0;
#X connect 19 0 27 0;
#X connect 19 1 47 0;
#X connect 20 0 44 0;
#X connect 20 1 28 0;
#X connect 21 0 42 0;
#X connect 21 1 29 0;
#X connect 22 0 29 0;
#X connect 22 1 43 0;
#X connect 23 0 28 0;
#X connect 23 1 45 0;
#X connect 24 0 30 0;
#X connect 24 1 41 0;
#X connect 25 0 38 0;
#X connect 25 1 31 0;
#X connect 26 0 31 0;
#X connect 26 1 39 0;
#X connect 27 0 18 1;
#X connect 27 0 19 0;
#X connect 28 0 20 1;
#X connect 28 0 23 0;
#X connect 29 0 21 1;
#X connect 29 0 22 0;
#X connect 30 0 17 1;
#X connect 30 0 24 0;
#X connect 31 0 25 1;
#X connect 31 0 26 0;
#X connect 32 0 5 0;
#X connect 33 0 12 0;
#X connect 34 0 6 0;
#X connect 35 0 15 0;
#X connect 36 0 9 0;
#X connect 38 0 15 1;
#X connect 38 0 25 0;
#X connect 39 0 26 1;
#X connect 40 0 6 1;
#X connect 40 0 17 0;
#X connect 41 0 24 1;
#X connect 42 0 12 1;
#X connect 42 0 21 0;
#X connect 43 0 22 1;
#X connect 44 0 5 1;
#X connect 44 0 20 0;
#X connect 45 0 23 1;
#X connect 46 0 9 1;
#X connect 46 0 18 0;
#X connect 47 0 19 1;
#X restore 107 456 pd mass_n_link;
#X obj 420 362 s btch_mass;
#X obj 369 238 snapshot~;
#X obj 369 260 * 100;
#X obj 369 282 moses 0.4;
#X obj 418 208 metro 100;
#X obj 19 345 gemhead 1;
#X obj 52 400 world_light;
#X obj 369 208 adc~ 1;
#X obj 418 187 tgl 15 0 empty empty empty 17 7 0 10 -262144 -1 -1 0
1;
#X obj 223 73 s btch_mass;
#X obj 88 167 s btch_link;
#X obj 28 217 s btch_mass;
#X obj 148 132 s btch_link;
#X obj 6 241 s btch_mass_sph;
#X obj 223 96 s btch_mass_sph;
#X msg 528 188 0 \, destroy;
#X msg 516 163 lighting 1 \, create \, 1;
#X obj 536 215 hsl 128 15 0 127 0 0 empty empty empty -2 -6 0 8 -262144
-1 -1 0 1;
#X obj 553 239 hsl 128 15 0 127 0 0 empty empty empty -2 -6 0 8 -262144
-1 -1 0 1;
#X obj 570 262 hsl 128 15 0 127 0 0 empty empty empty -2 -6 0 8 -262144
-1 -1 6500 1;
#X obj 707 221 loadbang;
#X msg 707 245 65;
#X obj 516 315 ch_gemwin;
#X obj 167 166 s bang;
#X obj 55 189 iAmbient3D btch_mass 0 -0.1 0;
#X obj 109 215 iAmbient3D btch_mass_sph 0 -0.1 0;
#X msg 517 116 setD \$1;
#X floatatom 517 65 5 0 0 0 - - -;
#X obj 517 89 / 10;
#X floatatom 584 65 5 0 0 0 - - -;
#X obj 584 89 / 10;
#X msg 584 116 setD2 \$1;
#X text 509 9 link;
#X text 510 25 damp def;
#X text 576 7 link;
#X text 577 23 damp speed;
#X floatatom 111 328 5 0 0 0 - - -;
#X floatatom 72 326 5 0 0 0 - - -;
#X floatatom 151 328 5 0 0 0 - - -;
#X obj 52 372 rotateXYZ 220 0 0;
#X msg 422 307 force3D \$1;
#X floatatom 377 323 5 0 0 0 - - -;
#X obj 326 321 tgl 15 0 empty empty empty 17 7 0 10 -262144 -1 -1 1
1;
#X obj 326 394 sel 0 1 2 3;
#X msg 517 41 25;
#X msg 440 437 force3D -0.5 0 -0.5;
#X msg 440 410 force3D 0.5 0 0.5;
#X msg 441 481 force3D -0.5 0 0.5;
#X msg 441 504 force3D 0.5 0 -0.5;
#X obj 148 25 t b b b b b;
#X obj 326 369 random 24;
#X obj 326 346 metro 2000;
#X msg 584 41 4;
#X floatatom 79 67 5 0 0 0 - - -;
#N canvas 78 194 1098 490 partials 0;
#X obj 70 22 bng 15 250 50 0 empty empty empty 17 7 0 10 -262144 -1
-1;
#N canvas 415 74 450 615 m5_audio 0;
#X obj 75 133 unpack s f f f f;
#X obj 36 242 *;
#X msg 36 279 \$1 5;
#X obj 36 312 line~;
#X obj 36 501 *~;
#X obj 198 581 dac~;
#X obj 142 171 t f f f f f;
#X obj 121 241 *;
#X msg 121 278 \$1 5;
#X obj 121 311 line~;
#X obj 120 503 *~;
#X obj 198 242 *;
#X msg 198 279 \$1 5;
#X obj 198 312 line~;
#X obj 197 504 *~;
#X obj 280 242 *;
#X msg 280 279 \$1 5;
#X obj 280 312 line~;
#X obj 279 504 *~;
#X obj 360 243 *;
#X msg 360 280 \$1 5;
#X obj 360 313 line~;
#X obj 359 505 *~;
#X obj 50 476 osc~ 1812;
#X obj 136 476 osc~ 4699;
#X obj 213 477 osc~ 8525;
#X obj 295 477 osc~ 13264;
#X obj 375 478 osc~ 15469;
#X obj 136 407 mtof;
#X floatatom 136 429 5 0 0 0 - - -;
#X obj 211 405 mtof;
#X floatatom 211 427 5 0 0 0 - - -;
#X obj 293 406 mtof;
#X floatatom 293 428 10 0 0 0 - - -;
#X obj 375 404 mtof;
#X floatatom 375 426 10 0 0 0 - - -;
#X obj 49 408 mtof;
#X floatatom 49 430 10 0 0 0 - - -;
#X obj 51 357 r m5p1;
#X obj 136 356 r m5p2;
#X obj 212 354 r m5p3;
#X obj 294 355 r m5p4;
#X obj 376 353 r m5p5;
#X obj 75 97 r mass5;
#X obj 197 537 *~ 0.8;
#X obj 36 210 * 14;
#X obj 121 209 * 8;
#X obj 198 210 * 6;
#X obj 280 210 * 4;
#X obj 360 211 * 2;
#X obj 57 450 r silent;
#X obj 142 453 r silent;
#X obj 220 452 r silent;
#X obj 307 451 r silent;
#X obj 387 450 r silent;
#X connect 0 4 6 0;
#X connect 1 0 2 0;
#X connect 2 0 3 0;
#X connect 3 0 4 0;
#X connect 4 0 44 0;
#X connect 6 0 45 0;
#X connect 6 1 46 0;
#X connect 6 2 47 0;
#X connect 6 3 48 0;
#X connect 6 4 49 0;
#X connect 7 0 8 0;
#X connect 8 0 9 0;
#X connect 9 0 10 0;
#X connect 10 0 44 0;
#X connect 11 0 12 0;
#X connect 12 0 13 0;
#X connect 13 0 14 0;
#X connect 14 0 44 0;
#X connect 15 0 16 0;
#X connect 16 0 17 0;
#X connect 17 0 18 0;
#X connect 18 0 44 0;
#X connect 19 0 20 0;
#X connect 20 0 21 0;
#X connect 21 0 22 0;
#X connect 22 0 44 0;
#X connect 23 0 4 1;
#X connect 24 0 10 1;
#X connect 25 0 14 1;
#X connect 26 0 18 1;
#X connect 27 0 22 1;
#X connect 28 0 29 0;
#X connect 29 0 24 0;
#X connect 30 0 31 0;
#X connect 31 0 25 0;
#X connect 32 0 33 0;
#X connect 33 0 26 0;
#X connect 34 0 35 0;
#X connect 35 0 27 0;
#X connect 36 0 37 0;
#X connect 37 0 23 0;
#X connect 38 0 36 0;
#X connect 39 0 28 0;
#X connect 40 0 30 0;
#X connect 41 0 32 0;
#X connect 42 0 34 0;
#X connect 43 0 0 0;
#X connect 44 0 5 0;
#X connect 44 0 5 1;
#X connect 45 0 1 0;
#X connect 45 0 1 1;
#X connect 46 0 7 0;
#X connect 46 0 7 1;
#X connect 47 0 11 0;
#X connect 47 0 11 1;
#X connect 48 0 15 0;
#X connect 48 0 15 1;
#X connect 49 0 19 0;
#X connect 49 0 19 1;
#X connect 50 0 23 0;
#X connect 51 0 24 0;
#X connect 52 0 25 0;
#X connect 53 0 26 0;
#X connect 54 0 27 0;
#X restore 659 448 pd m5_audio;
#N canvas 436 257 450 548 m4_audio 0;
#X obj 100 84 unpack s f f f f;
#X obj 25 189 *;
#X msg 25 226 \$1 5;
#X obj 25 259 line~;
#X obj 25 448 *~;
#X obj 186 521 dac~;
#X obj 131 118 t f f f f f;
#X obj 110 188 *;
#X msg 110 225 \$1 5;
#X obj 110 258 line~;
#X obj 109 450 *~;
#X obj 187 189 *;
#X msg 187 226 \$1 5;
#X obj 187 259 line~;
#X obj 186 451 *~;
#X obj 269 189 *;
#X msg 269 226 \$1 5;
#X obj 269 259 line~;
#X obj 268 451 *~;
#X obj 349 190 *;
#X msg 349 227 \$1 5;
#X obj 349 260 line~;
#X obj 348 452 *~;
#X obj 40 422 osc~ 1347;
#X obj 126 422 osc~ 3553;
#X obj 203 423 osc~ 6569;
#X obj 285 423 osc~ 10128;
#X obj 365 424 osc~ 18139;
#X obj 126 344 mtof;
#X floatatom 126 368 5 0 0 0 - - -;
#X obj 202 342 mtof;
#X floatatom 202 366 5 0 0 0 - - -;
#X obj 284 343 mtof;
#X floatatom 284 367 5 0 0 0 - - -;
#X obj 366 341 mtof;
#X floatatom 366 365 10 0 0 0 - - -;
#X obj 40 345 mtof;
#X floatatom 40 369 5 0 0 0 - - -;
#X obj 40 292 r m4p1;
#X obj 126 291 r m4p2;
#X obj 202 290 r m4p3;
#X obj 284 290 r m4p4;
#X obj 366 288 r m4p5;
#X obj 100 46 r mass4;
#X obj 185 489 *~ 0.8;
#X obj 25 157 * 14;
#X obj 110 156 * 8;
#X obj 187 157 * 6;
#X obj 269 157 * 4;
#X obj 349 158 * 2;
#X obj 46 396 r silent;
#X obj 132 397 r silent;
#X obj 209 399 r silent;
#X obj 298 398 r silent;
#X obj 378 397 r silent;
#X connect 0 4 6 0;
#X connect 1 0 2 0;
#X connect 2 0 3 0;
#X connect 3 0 4 0;
#X connect 4 0 44 0;
#X connect 6 0 45 0;
#X connect 6 1 46 0;
#X connect 6 2 47 0;
#X connect 6 3 48 0;
#X connect 6 4 49 0;
#X connect 7 0 8 0;
#X connect 8 0 9 0;
#X connect 9 0 10 0;
#X connect 10 0 44 0;
#X connect 11 0 12 0;
#X connect 12 0 13 0;
#X connect 13 0 14 0;
#X connect 14 0 44 0;
#X connect 15 0 16 0;
#X connect 16 0 17 0;
#X connect 17 0 18 0;
#X connect 18 0 44 0;
#X connect 19 0 20 0;
#X connect 20 0 21 0;
#X connect 21 0 22 0;
#X connect 22 0 44 0;
#X connect 23 0 4 1;
#X connect 24 0 10 1;
#X connect 25 0 14 1;
#X connect 26 0 18 1;
#X connect 27 0 22 1;
#X connect 28 0 29 0;
#X connect 29 0 24 0;
#X connect 30 0 31 0;
#X connect 31 0 25 0;
#X connect 32 0 33 0;
#X connect 33 0 26 0;
#X connect 34 0 35 0;
#X connect 35 0 27 0;
#X connect 36 0 37 0;
#X connect 37 0 23 0;
#X connect 38 0 36 0;
#X connect 39 0 28 0;
#X connect 40 0 30 0;
#X connect 41 0 32 0;
#X connect 42 0 34 0;
#X connect 43 0 0 0;
#X connect 44 0 5 0;
#X connect 44 0 5 1;
#X connect 45 0 1 0;
#X connect 45 0 1 1;
#X connect 46 0 7 0;
#X connect 46 0 7 1;
#X connect 47 0 11 0;
#X connect 47 0 11 1;
#X connect 48 0 15 0;
#X connect 48 0 15 1;
#X connect 49 0 19 0;
#X connect 49 0 19 1;
#X connect 50 0 23 0;
#X connect 51 0 24 0;
#X connect 52 0 25 0;
#X connect 53 0 26 0;
#X connect 54 0 27 0;
#X restore 573 448 pd m4_audio;
#N canvas 440 199 450 544 m3_audio 0;
#X obj 101 80 unpack s f f f f;
#X obj 26 183 *;
#X msg 26 220 \$1 5;
#X obj 26 253 line~;
#X obj 26 441 *~;
#X obj 188 519 dac~;
#X obj 132 112 t f f f f f;
#X obj 111 182 *;
#X msg 111 219 \$1 5;
#X obj 111 252 line~;
#X obj 110 443 *~;
#X obj 188 183 *;
#X msg 188 220 \$1 5;
#X obj 188 253 line~;
#X obj 187 444 *~;
#X obj 270 183 *;
#X msg 270 220 \$1 5;
#X obj 270 253 line~;
#X obj 269 444 *~;
#X obj 350 184 *;
#X msg 350 221 \$1 5;
#X obj 350 254 line~;
#X obj 349 445 *~;
#X obj 40 416 osc~ 1211;
#X obj 126 416 osc~ 3196;
#X obj 203 417 osc~ 5935;
#X obj 285 417 osc~ 9199;
#X obj 364 416 osc~ 15206;
#X obj 127 344 mtof;
#X floatatom 127 367 5 0 0 0 - - -;
#X obj 203 342 mtof;
#X floatatom 203 365 5 0 0 0 - - -;
#X obj 285 343 mtof;
#X floatatom 285 366 5 0 0 0 - - -;
#X obj 367 341 mtof;
#X floatatom 366 362 10 0 0 0 - - -;
#X obj 41 345 mtof;
#X floatatom 41 368 5 0 0 0 - - -;
#X obj 42 298 r m3p1;
#X obj 127 297 r m3p2;
#X obj 203 295 r m3p3;
#X obj 285 296 r m3p4;
#X obj 367 294 r m3p5;
#X obj 101 50 r mass3;
#X obj 187 487 *~ 0.8;
#X obj 26 151 * 14;
#X obj 111 150 * 8;
#X obj 188 151 * 6;
#X obj 270 151 * 4;
#X obj 350 152 * 2;
#X obj 48 389 r silent;
#X obj 131 391 r silent;
#X obj 210 393 r silent;
#X obj 291 391 r silent;
#X obj 376 389 r silent;
#X connect 0 4 6 0;
#X connect 1 0 2 0;
#X connect 2 0 3 0;
#X connect 3 0 4 0;
#X connect 4 0 44 0;
#X connect 6 0 45 0;
#X connect 6 1 46 0;
#X connect 6 2 47 0;
#X connect 6 3 48 0;
#X connect 6 4 49 0;
#X connect 7 0 8 0;
#X connect 8 0 9 0;
#X connect 9 0 10 0;
#X connect 10 0 44 0;
#X connect 11 0 12 0;
#X connect 12 0 13 0;
#X connect 13 0 14 0;
#X connect 14 0 44 0;
#X connect 15 0 16 0;
#X connect 16 0 17 0;
#X connect 17 0 18 0;
#X connect 18 0 44 0;
#X connect 19 0 20 0;
#X connect 20 0 21 0;
#X connect 21 0 22 0;
#X connect 22 0 44 0;
#X connect 23 0 4 1;
#X connect 24 0 10 1;
#X connect 25 0 14 1;
#X connect 26 0 18 1;
#X connect 27 0 22 1;
#X connect 28 0 29 0;
#X connect 29 0 24 0;
#X connect 30 0 31 0;
#X connect 31 0 25 0;
#X connect 32 0 33 0;
#X connect 33 0 26 0;
#X connect 34 0 35 0;
#X connect 35 0 27 0;
#X connect 36 0 37 0;
#X connect 37 0 23 0;
#X connect 38 0 36 0;
#X connect 39 0 28 0;
#X connect 40 0 30 0;
#X connect 41 0 32 0;
#X connect 42 0 34 0;
#X connect 43 0 0 0;
#X connect 44 0 5 0;
#X connect 44 0 5 1;
#X connect 45 0 1 0;
#X connect 45 0 1 1;
#X connect 46 0 7 0;
#X connect 46 0 7 1;
#X connect 47 0 11 0;
#X connect 47 0 11 1;
#X connect 48 0 15 0;
#X connect 48 0 15 1;
#X connect 49 0 19 0;
#X connect 49 0 19 1;
#X connect 50 0 23 0;
#X connect 51 0 24 0;
#X connect 52 0 25 0;
#X connect 53 0 26 0;
#X connect 54 0 27 0;
#X restore 490 448 pd m3_audio;
#N canvas 690 97 450 578 m2_audio 0;
#X obj 38 119 unpack s f f f f;
#X obj 25 225 *;
#X msg 25 262 \$1 5;
#X obj 25 295 line~;
#X obj 24 466 *~;
#X obj 187 544 dac~;
#X obj 131 154 t f f f f f;
#X obj 110 224 *;
#X msg 110 261 \$1 5;
#X obj 110 294 line~;
#X obj 108 468 *~;
#X obj 187 225 *;
#X msg 187 262 \$1 5;
#X obj 187 295 line~;
#X obj 185 469 *~;
#X obj 269 225 *;
#X msg 269 262 \$1 5;
#X obj 269 295 line~;
#X obj 267 469 *~;
#X obj 349 226 *;
#X msg 349 263 \$1 5;
#X obj 349 296 line~;
#X obj 347 470 *~;
#X obj 39 440 osc~ 1081;
#X obj 124 440 osc~ 2861;
#X obj 201 439 osc~ 5339;
#X obj 282 439 osc~ 8325;
#X obj 363 438 osc~ 15209;
#X obj 124 367 mtof;
#X floatatom 124 390 5 0 0 0 - - -;
#X obj 201 368 mtof;
#X floatatom 201 392 5 0 0 0 - - -;
#X obj 282 369 mtof;
#X floatatom 282 392 5 0 0 0 - - -;
#X obj 363 369 mtof;
#X floatatom 363 390 10 0 0 0 - - -;
#X obj 39 365 mtof;
#X floatatom 39 388 5 0 0 0 - - -;
#X obj 39 325 r m2p1;
#X obj 124 325 r m2p2;
#X obj 201 322 r m2p3;
#X obj 282 323 r m2p4;
#X obj 363 321 r m2p5;
#X obj 38 83 r mass2;
#X obj 25 193 * 14;
#X obj 110 192 * 8;
#X obj 187 193 * 6;
#X obj 269 193 * 4;
#X obj 349 194 * 2;
#X obj 186 500 *~ 0.8;
#X obj 47 413 r silent;
#X obj 131 413 r silent;
#X obj 207 415 r silent;
#X obj 288 414 r silent;
#X obj 375 412 r silent;
#X connect 0 4 6 0;
#X connect 1 0 2 0;
#X connect 2 0 3 0;
#X connect 3 0 4 0;
#X connect 4 0 49 0;
#X connect 6 0 44 0;
#X connect 6 1 45 0;
#X connect 6 2 46 0;
#X connect 6 3 47 1;
#X connect 6 4 48 0;
#X connect 7 0 8 0;
#X connect 8 0 9 0;
#X connect 9 0 10 0;
#X connect 10 0 49 0;
#X connect 11 0 12 0;
#X connect 12 0 13 0;
#X connect 13 0 14 0;
#X connect 14 0 49 0;
#X connect 15 0 16 0;
#X connect 16 0 17 0;
#X connect 17 0 18 0;
#X connect 18 0 49 0;
#X connect 19 0 20 0;
#X connect 20 0 21 0;
#X connect 21 0 22 0;
#X connect 22 0 49 0;
#X connect 23 0 4 1;
#X connect 24 0 10 1;
#X connect 25 0 14 1;
#X connect 26 0 18 1;
#X connect 27 0 22 1;
#X connect 28 0 29 0;
#X connect 29 0 24 0;
#X connect 30 0 31 0;
#X connect 31 0 25 0;
#X connect 32 0 33 0;
#X connect 33 0 26 0;
#X connect 34 0 35 0;
#X connect 35 0 27 0;
#X connect 36 0 37 0;
#X connect 37 0 23 0;
#X connect 38 0 36 0;
#X connect 39 0 28 0;
#X connect 40 0 30 0;
#X connect 41 0 32 0;
#X connect 42 0 34 0;
#X connect 43 0 0 0;
#X connect 44 0 1 0;
#X connect 44 0 1 1;
#X connect 45 0 7 0;
#X connect 45 0 7 1;
#X connect 46 0 11 0;
#X connect 46 0 11 1;
#X connect 47 0 15 0;
#X connect 47 0 15 1;
#X connect 48 0 19 0;
#X connect 48 0 19 1;
#X connect 49 0 5 0;
#X connect 49 0 5 1;
#X connect 50 0 23 0;
#X connect 51 0 24 0;
#X connect 52 0 25 0;
#X connect 53 0 26 0;
#X connect 54 0 27 0;
#X restore 408 448 pd m2_audio;
#N canvas 556 400 435 624 m1_audio 0;
#X obj 13 95 unpack s f f f f;
#X obj 98 531 dac~;
#X obj 41 150 t f f f f f;
#X obj 97 226 *;
#X msg 97 263 \$1 5;
#X obj 97 296 line~;
#X obj 98 467 *~;
#X obj 174 227 *;
#X msg 174 264 \$1 5;
#X obj 174 297 line~;
#X obj 175 468 *~;
#X obj 256 227 *;
#X msg 256 264 \$1 5;
#X obj 256 297 line~;
#X obj 257 468 *~;
#X obj 336 228 *;
#X msg 336 265 \$1 5;
#X obj 336 298 line~;
#X obj 337 469 *~;
#X obj 189 443 osc~ 4575;
#X obj 271 441 osc~ 7175;
#X obj 353 439 osc~ 11584;
#N canvas 314 298 546 521 m1p1 0;
#X obj 32 38 inlet;
#X obj 31 512 outlet~;
#X obj 32 88 *;
#X msg 32 181 \$1 5;
#X obj 32 348 line~;
#X obj 31 453 *~;
#X obj 45 206 b;
#X obj 45 256 % 80;
#X obj 44 231 del 5;
#X msg 45 293;
#X floatatom 78 316 5 0 0 0 - - -;
#X obj 256 197 unpack 0 0;
#X floatatom 327 223 5 0 0 0 - - -;
#X floatatom 256 222 10 0 0 0 - - -;
#X obj 123 392 mtof;
#X obj 395 309 urn;
#X floatatom 153 167 5 0 0 0 - - -;
#X obj 343 180 bng 15 250 50 0 empty empty empty 17 7 0 10 -262144
-1 -1;
#X obj 114 144 moses 1;
#X obj 115 98 * 16;
#X obj 306 374 counter;
#X obj 124 262 r m1p1;
#X obj 78 437 osc~ 912;
#X floatatom 122 416 10 0 0 0 - - -;
#X obj 32 61 * 14;
#X obj 60 408 r silent;
#X text 218 13 testing area;
#X connect 0 0 24 0;
#X connect 2 0 3 0;
#X connect 3 0 4 0;
#X connect 3 0 6 0;
#X connect 3 0 11 0;
#X connect 4 0 5 0;
#X connect 5 0 1 0;
#X connect 6 0 8 0;
#X connect 7 0 9 0;
#X connect 8 0 7 0;
#X connect 8 0 10 0;
#X connect 11 0 13 0;
#X connect 11 1 12 0;
#X connect 14 0 23 0;
#X connect 16 0 17 0;
#X connect 18 1 16 0;
#X connect 19 0 18 0;
#X connect 21 0 14 0;
#X connect 22 0 5 1;
#X connect 23 0 22 0;
#X connect 24 0 2 0;
#X connect 24 0 2 1;
#X connect 24 0 19 0;
#X connect 25 0 22 0;
#X restore 41 304 pd m1p1;
#X obj 113 369 mtof;
#X floatatom 113 392 10 0 0 0 - - -;
#X obj 189 369 mtof;
#X floatatom 189 390 10 0 0 0 - - -;
#X obj 271 369 mtof;
#X floatatom 271 391 10 0 0 0 - - -;
#X obj 353 367 mtof;
#X floatatom 353 389 10 0 0 0 - - -;
#X obj 113 321 r m1p2;
#X obj 189 319 r m1p3;
#X obj 271 320 r m1p4;
#X obj 353 318 r m1p5;
#X obj 113 445 osc~ 2434;
#X obj 13 65 r mass1;
#X obj 97 194 * 8;
#X obj 174 195 * 6;
#X obj 256 195 * 4;
#X obj 336 196 * 2;
#X obj 97 500 *~ 0.8;
#X obj 121 417 r silent;
#X obj 195 415 r silent;
#X obj 279 415 r silent;
#X obj 365 414 r silent;
#X connect 0 4 2 0;
#X connect 2 0 22 0;
#X connect 2 1 37 0;
#X connect 2 2 38 0;
#X connect 2 3 39 0;
#X connect 2 4 40 0;
#X connect 3 0 4 0;
#X connect 4 0 5 0;
#X connect 5 0 6 0;
#X connect 6 0 41 0;
#X connect 7 0 8 0;
#X connect 8 0 9 0;
#X connect 9 0 10 0;
#X connect 10 0 41 0;
#X connect 11 0 12 0;
#X connect 12 0 13 0;
#X connect 13 0 14 0;
#X connect 14 0 41 0;
#X connect 15 0 16 0;
#X connect 16 0 17 0;
#X connect 17 0 18 0;
#X connect 18 0 41 0;
#X connect 19 0 10 1;
#X connect 20 0 14 1;
#X connect 21 0 18 1;
#X connect 22 0 41 0;
#X connect 23 0 24 0;
#X connect 24 0 35 0;
#X connect 25 0 26 0;
#X connect 26 0 19 0;
#X connect 27 0 28 0;
#X connect 28 0 20 0;
#X connect 29 0 30 0;
#X connect 30 0 21 0;
#X connect 31 0 23 0;
#X connect 32 0 25 0;
#X connect 33 0 27 0;
#X connect 34 0 29 0;
#X connect 35 0 6 1;
#X connect 36 0 0 0;
#X connect 37 0 3 0;
#X connect 37 0 3 1;
#X connect 38 0 7 0;
#X connect 38 0 7 1;
#X connect 39 0 11 0;
#X connect 39 0 11 1;
#X connect 40 0 15 0;
#X connect 40 0 15 1;
#X connect 41 0 1 0;
#X connect 41 0 1 1;
#X connect 42 0 35 0;
#X connect 43 0 19 0;
#X connect 44 0 20 0;
#X connect 45 0 21 0;
#X restore 324 448 pd m1_audio;
#N canvas 0 0 1218 616 order1 0;
#X obj 946 413 s m1p1;
#X text 803 104 mass02;
#X obj 755 412 s m2p2;
#X text 563 103 mass03;
#X obj 543 411 s m3p3;
#X text 320 102 mass04;
#X obj 355 412 s m4p4;
#X text 83 104 mass05;
#X obj 154 409 s m5p5;
#X msg 946 377 82;
#X text 1052 101 mass01;
#X obj 325 66 t f f f f f f f f f f f f f f f f f f f f f f f f f;
#X obj 325 28 inlet;
#X msg 755 376 99;
#X msg 543 375 110;
#X msg 355 375 117;
#X msg 154 374 126;
#X msg 1012 126 0;
#X msg 1056 126 0;
#X msg 1100 125 0;
#X msg 1143 126 0;
#X msg 904 126 0;
#X msg 861 125 0;
#X msg 817 126 0;
#X msg 720 125 0;
#X msg 658 126 0;
#X msg 615 124 0;
#X msg 527 125 0;
#X msg 474 124 0;
#X msg 417 125 0;
#X msg 330 125 0;
#X msg 286 125 0;
#X msg 233 124 0;
#X msg 134 123 0;
#X msg 90 124 0;
#X msg 46 124 0;
#X msg -7 123 0;
#X obj -7 159 s silent;
#X obj 46 160 s silent;
#X obj 90 160 s silent;
#X obj 134 160 s silent;
#X obj 233 160 s silent;
#X obj 286 161 s silent;
#X obj 330 161 s silent;
#X obj 417 160 s silent;
#X obj 474 160 s silent;
#X obj 527 162 s silent;
#X obj 615 161 s silent;
#X obj 658 160 s silent;
#X obj 720 161 s silent;
#X obj 817 162 s silent;
#X obj 861 162 s silent;
#X obj 904 161 s silent;
#X obj 1012 162 s silent;
#X obj 1056 162 s silent;
#X obj 1100 161 s silent;
#X obj 1143 161 s silent;
#X obj 218 184 bng 15 250 50 0 empty empty empty 17 7 0 10 -262144
-1 -1;
#X obj 382 182 bng 15 250 50 0 empty empty empty 17 7 0 10 -262144
-1 -1;
#X obj 534 183 bng 15 250 50 0 empty empty empty 17 7 0 10 -262144
-1 -1;
#X obj 708 184 bng 15 250 50 0 empty empty empty 17 7 0 10 -262144
-1 -1;
#X obj 867 187 bng 15 250 50 0 empty empty empty 17 7 0 10 -262144
-1 -1;
#X obj 524 232 urn 4;
#X floatatom 492 333 5 0 0 0 - - -;
#X floatatom 533 335 5 0 0 0 - - -;
#X floatatom 579 336 5 0 0 0 - - -;
#X floatatom 624 337 5 0 0 0 - - -;
#X floatatom 675 338 5 0 0 0 - - -;
#X obj 406 30 bng 15 250 50 0 empty empty empty 17 7 0 10 -262144 -1
-1;
#X floatatom 603 254 5 0 0 0 - - -;
#X obj 525 300 unpack f f f f f;
#X obj 566 501 list;
#X obj 194 508 tunetof;
#X connect 9 0 0 0;
#X connect 11 0 57 0;
#X connect 11 1 33 0;
#X connect 11 2 34 0;
#X connect 11 3 35 0;
#X connect 11 4 36 0;
#X connect 11 5 29 0;
#X connect 11 6 58 0;
#X connect 11 7 30 0;
#X connect 11 8 31 0;
#X connect 11 9 32 0;
#X connect 11 10 25 0;
#X connect 11 11 26 0;
#X connect 11 12 59 0;
#X connect 11 13 27 0;
#X connect 11 14 28 0;
#X connect 11 15 21 0;
#X connect 11 16 22 0;
#X connect 11 17 23 0;
#X connect 11 18 60 0;
#X connect 11 19 24 0;
#X connect 11 20 20 0;
#X connect 11 21 19 0;
#X connect 11 22 18 0;
#X connect 11 23 17 0;
#X connect 11 24 61 0;
#X connect 12 0 11 0;
#X connect 13 0 2 0;
#X connect 14 0 4 0;
#X connect 15 0 6 0;
#X connect 16 0 8 0;
#X connect 17 0 53 0;
#X connect 18 0 54 0;
#X connect 19 0 55 0;
#X connect 20 0 56 0;
#X connect 21 0 52 0;
#X connect 22 0 51 0;
#X connect 23 0 50 0;
#X connect 24 0 49 0;
#X connect 25 0 48 0;
#X connect 26 0 47 0;
#X connect 27 0 46 0;
#X connect 28 0 45 0;
#X connect 29 0 44 0;
#X connect 30 0 43 0;
#X connect 31 0 42 0;
#X connect 32 0 41 0;
#X connect 33 0 40 0;
#X connect 34 0 39 0;
#X connect 35 0 38 0;
#X connect 36 0 37 0;
#X connect 57 0 62 0;
#X connect 58 0 62 0;
#X connect 59 0 62 0;
#X connect 60 0 62 0;
#X connect 61 0 62 0;
#X connect 62 0 69 0;
#X connect 62 0 70 0;
#X connect 68 0 11 0;
#X connect 70 0 63 0;
#X connect 70 1 64 0;
#X connect 70 2 65 0;
#X connect 70 3 66 0;
#X connect 70 4 67 0;
#X restore 70 55 pd order1;
#N canvas 0 0 1218 300 order6 0;
#X msg 1012 126 99;
#X msg 1056 126 110;
#X msg 1100 125 117;
#X obj 959 161 s m1p1;
#X obj 1012 162 s m1p2;
#X obj 1056 162 s m1p3;
#X obj 1100 162 s m1p4;
#X obj 1143 161 s m1p5;
#X text 803 104 mass02;
#X obj 720 161 s m2p1;
#X obj 773 162 s m2p2;
#X obj 817 162 s m2p3;
#X obj 861 162 s m2p4;
#X obj 904 161 s m2p5;
#X text 563 103 mass03;
#X msg 817 126 112;
#X msg 861 125 120;
#X msg 904 126 130;
#X msg 474 124 87;
#X msg 527 125 103;
#X msg 571 125 114;
#X msg 615 124 122;
#X msg 658 125 130;
#X obj 474 160 s m3p1;
#X obj 527 161 s m3p2;
#X obj 571 161 s m3p3;
#X obj 615 161 s m3p4;
#X obj 658 160 s m3p5;
#X text 320 102 mass04;
#X msg 286 125 105;
#X msg 330 125 116;
#X msg 374 124 123;
#X msg 417 125 133;
#X obj 233 160 s m4p1;
#X obj 286 161 s m4p2;
#X obj 330 161 s m4p3;
#X obj 374 161 s m4p4;
#X obj 417 160 s m4p5;
#X text 83 104 mass05;
#X obj -7 159 s m5p1;
#X obj 46 160 s m5p2;
#X obj 90 160 s m5p3;
#X obj 134 160 s m5p4;
#X obj 177 159 s m5p5;
#X msg -7 123 94;
#X msg 47 124 110;
#X msg 90 124 120;
#X msg 134 123 128;
#X msg 177 124 131;
#X msg 959 125 82;
#X msg 720 125 85;
#X msg 773 126 102;
#X msg 1143 126 126;
#X msg 233 124 88;
#X text 1052 101 mass01;
#X obj 325 66 t f f f f f f f f f f f f f f f f f f f f f f f f f;
#X obj 325 28 inlet;
#X connect 0 0 4 0;
#X connect 1 0 5 0;
#X connect 2 0 6 0;
#X connect 15 0 11 0;
#X connect 16 0 12 0;
#X connect 17 0 13 0;
#X connect 18 0 23 0;
#X connect 19 0 24 0;
#X connect 20 0 25 0;
#X connect 21 0 26 0;
#X connect 22 0 27 0;
#X connect 29 0 34 0;
#X connect 30 0 35 0;
#X connect 31 0 36 0;
#X connect 32 0 37 0;
#X connect 44 0 39 0;
#X connect 45 0 40 0;
#X connect 46 0 41 0;
#X connect 47 0 42 0;
#X connect 48 0 43 0;
#X connect 49 0 3 0;
#X connect 50 0 9 0;
#X connect 51 0 10 0;
#X connect 52 0 7 0;
#X connect 53 0 33 0;
#X connect 55 0 48 0;
#X connect 55 1 47 0;
#X connect 55 2 46 0;
#X connect 55 3 45 0;
#X connect 55 4 44 0;
#X connect 55 5 32 0;
#X connect 55 6 31 0;
#X connect 55 7 30 0;
#X connect 55 8 29 0;
#X connect 55 9 53 0;
#X connect 55 10 22 0;
#X connect 55 11 21 0;
#X connect 55 12 20 0;
#X connect 55 13 19 0;
#X connect 55 14 18 0;
#X connect 55 15 17 0;
#X connect 55 16 16 0;
#X connect 55 17 15 0;
#X connect 55 18 51 0;
#X connect 55 19 50 0;
#X connect 55 20 52 0;
#X connect 55 21 2 0;
#X connect 55 22 1 0;
#X connect 55 23 0 0;
#X connect 55 24 49 0;
#X connect 56 0 55 0;
#X restore 601 53 pd order6;
#X text 143 57 <<<<<<<<sandbox;
#X obj 601 19 bng 15 250 50 0 empty empty empty 17 7 0 10 -262144 -1
-1;
#X connect 0 0 6 0;
#X connect 9 0 7 0;
#X restore 108 482 pd partials;
#X text 664 164 step 1;
#X text 21 67 step 2;
#X text 276 322 step 3;
#X text 443 459 give these a nudge if nothings happening;
#X text 209 456 <<< pmpd stuff;
#X text 201 484 <<<< audio stuff;
#X connect 0 0 20 0;
#X connect 0 0 22 0;
#X connect 0 1 19 0;
#X connect 0 1 32 0;
#X connect 0 1 33 0;
#X connect 0 1 34 0;
#X connect 1 0 0 0;
#X connect 2 0 1 0;
#X connect 3 0 18 0;
#X connect 3 0 23 0;
#X connect 4 0 21 0;
#X connect 5 0 21 0;
#X connect 6 0 58 0;
#X connect 7 0 58 0;
#X connect 10 0 11 0;
#X connect 11 0 12 0;
#X connect 12 1 49 0;
#X connect 13 0 10 0;
#X connect 14 0 48 0;
#X connect 16 0 10 0;
#X connect 17 0 13 0;
#X connect 24 0 31 0;
#X connect 25 0 31 0;
#X connect 26 0 31 1;
#X connect 27 0 31 2;
#X connect 28 0 31 3;
#X connect 29 0 30 0;
#X connect 30 0 28 0;
#X connect 35 0 21 0;
#X connect 36 0 37 0;
#X connect 37 0 35 0;
#X connect 38 0 39 0;
#X connect 39 0 40 0;
#X connect 40 0 21 0;
#X connect 45 0 48 2;
#X connect 46 0 48 1;
#X connect 47 0 48 3;
#X connect 48 0 15 0;
#X connect 49 0 9 0;
#X connect 50 0 60 1;
#X connect 51 0 60 0;
#X connect 52 0 55 0;
#X connect 52 1 54 0;
#X connect 52 2 56 0;
#X connect 52 3 57 0;
#X connect 53 0 36 0;
#X connect 54 0 9 0;
#X connect 55 0 9 0;
#X connect 56 0 9 0;
#X connect 57 0 9 0;
#X connect 58 0 5 0;
#X connect 58 1 4 0;
#X connect 58 2 3 0;
#X connect 58 3 61 0;
#X connect 58 4 53 0;
#X connect 59 0 52 0;
#X connect 60 0 59 0;
#X connect 61 0 38 0;
#X connect 62 0 1 1;
