#N canvas 455 509 539 338 10;
#X obj 67 41 inlet;
#X obj 67 108 outlet;
#X obj 131 161 gemhead;
#X obj 131 192 translateXYZ;
#X obj 127 108 unpack s f f f;
#X obj 131 250 color 0.5 1 1;
#X obj 131 220 rotateXYZ 0 0 0;
#X obj 131 276 disk 0.66 32 0;
#X obj 67 71 mass3D btch_mass 35 \$1 \$2 \$3;
#X msg 249 108 setX \$1 \, setY \$2 \, setZ \$3;
#X obj 264 138 r bang;
#X obj 249 166 iCircle3D btch_mass_sph 0 0 0 0 1 1;
#X connect 0 0 8 0;
#X connect 2 0 3 0;
#X connect 3 0 6 0;
#X connect 4 1 3 1;
#X connect 4 2 3 2;
#X connect 4 3 3 3;
#X connect 5 0 7 0;
#X connect 6 0 5 0;
#X connect 8 0 1 0;
#X connect 8 0 4 0;
#X connect 8 0 9 0;
#X connect 9 0 11 0;
#X connect 10 0 11 0;
