#N canvas 495 96 747 830 10;
#X text 211 366 ;
#X obj 208 378 pack 1 1 1 0.1;
#X floatatom 192 342 5 0 0 0 - - -;
#X obj 192 358 / 100;
#X floatatom 234 342 5 0 0 0 - - -;
#X obj 234 358 / 100;
#X floatatom 275 342 5 0 0 0 - - -;
#X obj 275 358 / 100;
#X floatatom 315 342 5 0 0 0 - - -;
#X obj 315 358 / 100;
#X msg 60 108 destroy;
#X obj 7 26 tgl 15 0 empty empty empty 0 -6 0 8 -262144 -1 -1 1 1;
#X obj 12 108 gemwin;
#X obj 178 400 color;
#X obj 178 468 translateXYZ;
#X floatatom 204 429 5 0 0 0 - - -;
#X obj 204 445 / 100;
#X floatatom 245 429 5 0 0 0 - - -;
#X obj 245 445 / 100;
#X floatatom 288 430 5 0 0 0 - - -;
#X obj 288 446 / 100;
#X floatatom 208 503 5 0 0 0 - - -;
#X obj 208 519 / 100;
#X floatatom 253 504 5 0 0 0 - - -;
#X obj 334 132 bng 15 250 50 0 empty empty empty 0 -6 0 8 -262144 -1
-1;
#X obj 350 131 loadbang;
#X obj 172 196 GEMglClearDepth;
#X msg 272 172 1;
#X obj 171 246 GEMglClear;
#X obj 272 225 GLdefine GL_DEPTH_BUFFER_BIT;
#X obj 172 299 alpha;
#X obj 454 341 gemhead;
#X obj 452 372 world_light;
#X msg 29 25 create \, lighting 1 \, buffer 1;
#X obj 15 3 loadbang;
#X obj 178 542 sphere 0.5 8;
#X text 287 23 @#$@#$ !!!;
#X obj 177 123 gemhead;
#X connect 1 0 13 1;
#X connect 2 0 3 0;
#X connect 3 0 1 0;
#X connect 4 0 5 0;
#X connect 5 0 1 1;
#X connect 6 0 7 0;
#X connect 7 0 1 2;
#X connect 8 0 9 0;
#X connect 9 0 1 3;
#X connect 10 0 12 0;
#X connect 11 0 12 0;
#X connect 13 0 14 0;
#X connect 14 0 35 0;
#X connect 15 0 16 0;
#X connect 16 0 14 1;
#X connect 17 0 18 0;
#X connect 18 0 14 2;
#X connect 19 0 20 0;
#X connect 20 0 14 3;
#X connect 21 0 22 0;
#X connect 22 0 35 1;
#X connect 23 0 35 2;
#X connect 24 0 27 0;
#X connect 24 0 29 0;
#X connect 25 0 27 0;
#X connect 25 0 29 0;
#X connect 26 0 28 0;
#X connect 27 0 26 1;
#X connect 28 0 30 0;
#X connect 29 0 28 1;
#X connect 30 0 13 0;
#X connect 31 0 32 0;
#X connect 33 0 12 0;
#X connect 34 0 11 0;
#X connect 34 0 33 0;
#X connect 37 0 26 0;
