#N canvas 0 54 126 100 10;
#X msg 171 127 set \$1;
#X msg 89 98 stop;
#X obj 61 186 inlet~;
#X obj 89 74 r \$0-sstop;
#X obj 65 121 r \$0-sstart;
#X obj 173 56 symbol \$0-buf;
#X obj 171 106 makesymbol %s%s;
#X obj 174 31 t b f;
#X obj 171 79 pack s f;
#X obj 369 199 table \$0-buf0;
#X obj 369 221 table \$0-buf1;
#X obj 369 243 table \$0-buf2;
#X obj 369 264 table \$0-buf3;
#X obj 283 183 loadbang;
#X obj 275 242 until;
#X obj 275 270 f;
#X obj 306 272 + 1;
#X obj 274 315 symbol \$0-buf;
#X obj 272 376 makesymbol %s%s;
#X obj 275 292 t b f;
#X obj 531 223 r \$0-bufnum;
#X obj 532 249 select 0 1 2 3 4;
#X obj 532 277 arraysize \$0-buf0;
#X obj 554 298 arraysize \$0-buf1;
#X obj 574 318 arraysize \$0-buf2;
#X obj 598 340 arraysize \$0-buf3;
#X obj 585 397 s \$0-size;
#X obj 171 228 r \$0-bufnum;
#X obj 274 337 pack s f;
#X obj 156 266 f;
#X obj 80 226 r \$0-size;
#X obj 81 266 f;
#X obj 31 195 r \$0-sizebang;
#X obj 156 321 symbol \$0-buf;
#X obj 157 298 t b f;
#X obj 156 343 pack s f;
#X obj 99 378 makesymbol %s%s;
#X obj 80 433 pack f s;
#X msg 74 459 \; \$2 resize \$1;
#X obj 61 156 tabwrite~ \$0-buf0;
#X obj 4 -137 cnv 15 120 100 empty empty empty 20 12 0 14 -241291 -66577
0;
#X obj 9 -123 bng 30 250 50 0 \$0-sstart empty start 3 15 1153 10 -24198
-258699 -228992;
#X obj 43 -123 hradio 15 0 0 4 \$0-bufnum empty empty 0 -6 1152 8 -262144
-1 -1 0;
#X obj 9 -84 bng 30 250 50 0 \$0-sstop empty stop 3 15 1153 10 -258699
-24198 -228992;
#X obj 47 -68 bng 15 250 50 0 \$0-sizebang empty empty 0 -6 1152 8
-262144 -1 -1;
#X obj 46 -94 nbx 5 14 0 1e+37 0 0 \$0-size \$0-size empty 0 -6 1728
10 -262144 -1 -1 0 256;
#X msg 283 211 4;
#X obj 272 410 pack s \$1;
#X msg 272 433 \; \$1 resize \$2;
#X obj 143 6 r \$0-bufnum;
#X connect 0 0 39 0;
#X connect 1 0 39 0;
#X connect 2 0 39 0;
#X connect 3 0 1 0;
#X connect 4 0 39 0;
#X connect 5 0 8 0;
#X connect 6 0 0 0;
#X connect 7 0 5 0;
#X connect 7 1 8 1;
#X connect 8 0 6 0;
#X connect 13 0 46 0;
#X connect 14 0 15 0;
#X connect 15 0 16 0;
#X connect 15 0 19 0;
#X connect 16 0 15 1;
#X connect 17 0 28 0;
#X connect 18 0 47 0;
#X connect 19 0 17 0;
#X connect 19 1 28 1;
#X connect 20 0 21 0;
#X connect 21 0 22 0;
#X connect 21 1 23 0;
#X connect 21 2 24 0;
#X connect 21 3 25 0;
#X connect 22 0 26 0;
#X connect 23 0 26 0;
#X connect 24 0 26 0;
#X connect 25 0 26 0;
#X connect 27 0 29 0;
#X connect 28 0 18 0;
#X connect 29 0 34 0;
#X connect 30 0 31 1;
#X connect 31 0 37 0;
#X connect 32 0 31 0;
#X connect 33 0 35 0;
#X connect 34 0 33 0;
#X connect 34 1 35 1;
#X connect 35 0 36 0;
#X connect 36 0 37 1;
#X connect 37 0 38 0;
#X connect 46 0 14 0;
#X connect 47 0 48 0;
#X connect 49 0 7 0;
#X coords 0 0 1.10107e-06 3.76379e-05 120 100 1;
