#N canvas 222 107 462 312 10;
#X obj 27 197 env~;
#X floatatom 27 219 5 0 0 0 - - -;
#X obj 24 22 noise~;
#X msg 59 64 0;
#X obj 24 85 *~ 0;
#X msg 58 41 1;
#X obj 25 106 hip~ 80;
#X obj 26 130 hip~ 80;
#X obj 26 153 hip~ 80;
#X obj 26 174 hip~ 80;
#X text 163 10 this patch consumes alot of cpu power;
#X text 165 21 when the signal is zero;
#X connect 0 0 1 0;
#X connect 2 0 4 0;
#X connect 3 0 4 1;
#X connect 4 0 6 0;
#X connect 5 0 4 1;
#X connect 6 0 7 0;
#X connect 7 0 8 0;
#X connect 8 0 9 0;
#X connect 9 0 0 0;
