#N canvas 158 146 1048 517 12;
#X obj 181 140 netsend;
#X msg 134 63 connect localhost 5000;
#X obj 181 170 select 1;
#X msg 195 99 disconnect;
#X obj 180 229 t b b;
#X msg 241 255 0;
#X obj 179 292 until;
#X obj 175 332 f;
#X obj 214 331 + 1;
#X msg 17 219 send bla bla \$1;
#X obj 739 156 print CONNECTED;
#X obj 624 202 print DATA;
#X obj 624 121 netreceive 5000;
#X msg 178 264 1000;
#X obj 271 171 bng 15 250 50 0 empty empty empty 17 7 0 10 -262144
-1 -1;
#X connect 0 0 2 0;
#X connect 1 0 0 0;
#X connect 2 0 4 0;
#X connect 3 0 0 0;
#X connect 4 0 13 0;
#X connect 4 1 5 0;
#X connect 5 0 7 1;
#X connect 6 0 7 0;
#X connect 7 0 8 0;
#X connect 7 0 9 0;
#X connect 8 0 7 1;
#X connect 9 0 0 0;
#X connect 12 0 11 0;
#X connect 12 1 10 0;
#X connect 13 0 6 0;
#X connect 14 0 4 0;
