#N canvas 0 0 450 300 10;
#X obj 124 153 bundle;
#X msg 31 27 begin;
#X msg 32 116 end;
#X msg 120 77 foo;
#X msg 168 81 bar;
#X msg 212 79 baz;
#X obj 124 174 print bundle;
#X connect 0 0 6 0;
#X connect 1 0 0 0;
#X connect 2 0 0 0;
#X connect 3 0 0 0;
#X connect 4 0 0 0;
#X connect 5 0 0 0;
