#N canvas 365 85 318 547 10;
#X obj -67 71 inlet~;
#X msg 30 79 1;
#X msg 64 79 0;
#X obj 55 509 *~;
#X obj 92 509 *~;
#X obj -33 94 inlet~;
#X obj 54 99 f;
#X obj 30 57 select \$1;
#X obj 148 437 * 0.01;
#X obj 148 20 inlet;
#X msg 158 464 50;
#X floatatom 155 90 5 0 0 0 - - -;
#X obj 148 68 f \$0;
#X obj 148 42 b;
#X obj 86 16 loadbang;
#X obj 86 37 f \$1;
#X obj 30 28 r n-inst;
#X obj 23 525 outlet~;
#X obj 93 525 outlet~;
#N canvas 214 262 715 300 resampleo 0;
#X obj 78 48 inlet~;
#X obj 133 49 inlet~;
#X obj 78 255 outlet~;
#X obj 320 255 outlet~;
#X text 12 163 acá va un buffer que me permite jugar con la velocidad
y otros parámetros del audio que provenga de cualquier fuente y tenga
ya filtrado de algunos efectos;
#X obj 437 24 r \$0-fx;
#X obj 437 184 f;
#X obj 463 183 f;
#X obj 437 45 route comienzo final veloc;
#X obj 490 183 f;
#X text 493 200 veloc;
#X text 460 200 final;
#X text 435 200 com;
#X obj 463 91 r final;
#X obj 437 68 r comienzo;
#X obj 490 113 r veloc;
#X obj 437 114 contin;
#X obj 463 136 contin;
#X obj 490 158 contin;
#X obj 523 68 inlet;
#X connect 0 0 2 0;
#X connect 1 0 3 0;
#X connect 5 0 8 0;
#X connect 8 0 6 0;
#X connect 8 1 7 0;
#X connect 8 2 9 0;
#X connect 13 0 17 0;
#X connect 14 0 16 0;
#X connect 15 0 18 0;
#X connect 16 0 6 0;
#X connect 17 0 7 0;
#X connect 18 0 9 0;
#X connect 19 0 16 1;
#X connect 19 0 17 1;
#X connect 19 0 18 1;
#X restore -66 133 pd resampleo;
#N canvas 226 190 783 300 notch 0;
#X obj 78 48 inlet~;
#X obj 133 49 inlet~;
#X obj 78 255 outlet~;
#X obj 320 255 outlet~;
#X text 106 106 acá va un buffer que me permite jugar con la velocidad
y otros parámetros del audio que provenga de cualquier fuente y tenga
ya filtrado de algunos efectos;
#X obj 522 28 r \$0-fx;
#X obj 522 136 f;
#X obj 571 136 f;
#X obj 621 136 f;
#X obj 522 50 route centro ancho dureza;
#X text 519 149 centro;
#X text 569 150 ancho;
#X text 618 149 dureza;
#X obj 621 93 r dureza;
#X obj 522 71 r centro;
#X obj 571 92 r ancho;
#X obj 522 115 contin;
#X obj 571 115 contin;
#X obj 621 115 contin;
#X obj 682 98 f;
#X obj 682 28 inlet;
#X connect 0 0 2 0;
#X connect 1 0 3 0;
#X connect 5 0 9 0;
#X connect 9 0 6 0;
#X connect 9 1 7 0;
#X connect 9 2 8 0;
#X connect 13 0 18 0;
#X connect 14 0 16 0;
#X connect 15 0 17 0;
#X connect 16 0 6 0;
#X connect 17 0 7 0;
#X connect 18 0 8 0;
#X connect 19 0 16 1;
#X connect 19 0 17 1;
#X connect 19 0 18 1;
#X connect 20 0 19 0;
#X restore -65 224 pd notch;
#X obj 17 116 f;
#X obj 17 207 f;
#X obj 96 240 inlet;
#X obj 96 262 s \$0-fx;
#X obj 106 132 symbol;
#X obj 106 152 s nomcont;
#X obj 95 59 f;
#X obj 95 194 symbol;
#X obj 95 214 s nominst;
#X obj 95 174 makefilename %d;
#X obj 106 111 makefilename Vol-%d;
#N canvas 223 60 338 503 reverb 0;
#X obj -8 441 inlet~;
#X obj -8 482 outlet~;
#X obj 44 441 inlet~;
#X obj 44 482 outlet~;
#X obj -10 5 r \$0-fx;
#X obj -8 462 freeverb~;
#X msg -8 259 roomsize \$1;
#X msg -8 338 damping \$1;
#X msg -8 378 width \$1;
#X msg -8 197 wet \$1;
#X msg -8 219 dry \$1;
#X msg -8 416 freeze \$1;
#X msg 55 462 bypass \$1;
#N canvas 480 33 101 119 crossfader 0;
#X msg 22 27 1;
#X obj 7 48 -;
#X obj 7 69 * -1;
#X obj 7 7 inlet;
#X obj 7 89 outlet;
#X connect 0 0 1 1;
#X connect 1 0 2 0;
#X connect 2 0 4 0;
#X connect 3 0 0 0;
#X connect 3 0 1 0;
#X restore -8 177 pd crossfader;
#X obj -7 160 hsl 128 15 0 1 0 0 empty empty empty -2 -8 0 10 -41615
-1 -1 0 1;
#X obj -5 241 hsl 128 15 0 1 0 0 empty empty empty -2 -8 0 10 -41615
-1 -1 0 1;
#X obj -4 281 hsl 128 15 0 1 0 0 empty empty empty -2 -8 0 10 -41615
-1 -1 0 1;
#X obj -5 360 hsl 128 15 0 1 0 0 empty empty empty -2 -8 0 10 -41615
-1 -1 0 1;
#X obj -5 399 hsl 128 15 0 1 0 0 empty empty empty -2 -8 0 10 -41615
-1 -1 0 1;
#X obj 122 464 hsl 128 15 0 1 0 0 empty empty empty -2 -8 0 10 -41615
-1 -1 12700 1;
#X obj -10 124 f;
#X obj -10 143 / 127;
#X obj 54 224 / 127;
#X obj 119 264 / 127;
#X obj 182 343 / 127;
#X obj 246 382 / 127;
#X obj 54 124 f;
#X obj 119 124 f;
#X obj 182 124 f;
#X obj 246 124 f;
#X obj 286 86 f;
#X obj -10 103 contin;
#X obj 54 103 contin;
#X obj 14 62 r rebdrywet;
#X obj 119 103 contin;
#X obj 182 103 contin;
#X obj 54 82 r rebroomsize;
#X obj 182 82 r rebwidth;
#X obj 246 103 contin;
#X obj 286 7 inlet;
#X obj 253 207 init 0;
#N canvas 480 33 101 119 crossfader 0;
#X msg 22 27 1;
#X obj 7 48 -;
#X obj 7 69 * -1;
#X obj 7 7 inlet;
#X obj 7 89 outlet;
#X connect 0 0 1 1;
#X connect 1 0 2 0;
#X connect 2 0 4 0;
#X connect 3 0 0 0;
#X connect 3 0 1 0;
#X restore -7 298 pd crossfader;
#X obj -7 318 * 2;
#X obj 20 318 + 1e-05;
#X msg 297 207 0;
#X floatatom 72 319 5 0 0 0 - - -;
#X obj 119 62 r rebdamp;
#X obj 246 62 r rebfreeze;
#X obj -10 27 route rebdrywet rebroomsize rebdamp rebwidth rebfreeze
;
#X obj 255 460 change;
#X obj 132 427 expr $f1 \; if ( $f1 == 0 \, 1 \, 0 );
#X obj 265 439 init 1;
#X connect 0 0 5 0;
#X connect 2 0 5 1;
#X connect 4 0 48 0;
#X connect 5 0 1 0;
#X connect 5 1 3 0;
#X connect 6 0 5 0;
#X connect 7 0 5 0;
#X connect 8 0 5 0;
#X connect 9 0 5 0;
#X connect 10 0 5 0;
#X connect 11 0 5 0;
#X connect 12 0 5 0;
#X connect 13 0 10 0;
#X connect 14 0 13 0;
#X connect 14 0 9 0;
#X connect 14 0 50 0;
#X connect 15 0 6 0;
#X connect 16 0 41 0;
#X connect 17 0 8 0;
#X connect 18 0 11 0;
#X connect 19 0 12 0;
#X connect 20 0 21 0;
#X connect 21 0 14 0;
#X connect 22 0 15 0;
#X connect 23 0 16 0;
#X connect 24 0 17 0;
#X connect 25 0 18 0;
#X connect 26 0 22 0;
#X connect 27 0 23 0;
#X connect 28 0 24 0;
#X connect 29 0 25 0;
#X connect 30 0 31 1;
#X connect 30 0 32 1;
#X connect 30 0 34 1;
#X connect 30 0 35 1;
#X connect 30 0 38 1;
#X connect 31 0 20 0;
#X connect 32 0 26 0;
#X connect 33 0 31 0;
#X connect 34 0 27 0;
#X connect 35 0 28 0;
#X connect 36 0 32 0;
#X connect 37 0 35 0;
#X connect 38 0 29 0;
#X connect 39 0 30 0;
#X connect 40 0 22 0;
#X connect 40 0 23 0;
#X connect 40 0 24 0;
#X connect 41 0 42 0;
#X connect 42 0 43 0;
#X connect 43 0 7 0;
#X connect 43 0 45 0;
#X connect 44 0 23 0;
#X connect 44 0 22 0;
#X connect 44 0 24 0;
#X connect 46 0 34 0;
#X connect 47 0 38 0;
#X connect 48 0 20 0;
#X connect 48 1 26 0;
#X connect 48 2 27 0;
#X connect 48 3 28 0;
#X connect 48 4 29 0;
#X connect 49 0 19 0;
#X connect 50 1 49 0;
#X connect 51 0 49 0;
#X restore -65 375 pd reverb;
#X obj 17 358 f;
#X obj 17 178 f;
#N canvas 89 64 681 461 comp-lim 0;
#X obj 9 11 inlet~;
#X obj 10 438 outlet~;
#X obj 643 16 inlet;
#X text 18 151 acá va el efecto y la mezcladora con la señal original
;
#X obj 59 11 inlet~;
#X obj 60 438 outlet~;
#X text 17 87 filtro compresión de 8 a 12 compresores en línea y/o
paralelo con adsr definibles \, con wet/dry compresión unica con wet-dry
;
#X obj 628 170 f;
#X obj 402 53 r \$0-fx;
#X obj 447 209 f;
#X obj 402 210 f;
#X obj 402 187 contin;
#X obj 492 187 contin;
#X obj 492 209 f;
#X obj 402 99 r comp1;
#X obj 402 79 route comp1 comp2 comp3 limamp limotro;
#X obj 447 120 r comp2;
#X obj 447 187 contin;
#X obj 492 99 r comp3;
#X obj 582 99 r comp3;
#X obj 537 120 r limamp;
#X obj 537 187 contin;
#X obj 537 209 f;
#X text 401 224 comp1;
#X text 446 225 comp2;
#X text 491 225 comp3;
#X text 536 225 limamp;
#X connect 0 0 1 0;
#X connect 2 0 7 1;
#X connect 4 0 5 0;
#X connect 7 0 11 1;
#X connect 7 0 12 1;
#X connect 8 0 15 0;
#X connect 11 0 10 0;
#X connect 12 0 13 0;
#X connect 14 0 11 0;
#X connect 15 0 10 0;
#X connect 15 1 9 0;
#X connect 15 2 13 0;
#X connect 15 3 22 0;
#X connect 16 0 17 0;
#X connect 17 0 9 0;
#X connect 18 0 12 0;
#X connect 20 0 21 0;
#X connect 21 0 22 0;
#X restore -66 195 pd comp-lim;
#X text 70 279 activador de canal;
#X text -69 51 CANAL DE MEZCLA;
#X text 82 291 viene de cada inst \; dentro de outfx;
#X obj 17 145 f;
#X obj 17 237 f;
#N canvas 226 190 783 300 eq5band 0;
#X obj 78 48 inlet~;
#X obj 133 49 inlet~;
#X obj 78 255 outlet~;
#X obj 320 255 outlet~;
#X text 106 106 acá va un buffer que me permite jugar con la velocidad
y otros parámetros del audio que provenga de cualquier fuente y tenga
ya filtrado de algunos efectos;
#X obj 522 28 r \$0-fx;
#X obj 522 136 f;
#X obj 571 136 f;
#X obj 621 136 f;
#X obj 522 50 route centro ancho dureza;
#X text 519 149 centro;
#X text 569 150 ancho;
#X text 618 149 dureza;
#X obj 621 93 r dureza;
#X obj 522 71 r centro;
#X obj 571 92 r ancho;
#X obj 522 115 contin;
#X obj 571 115 contin;
#X obj 621 115 contin;
#X obj 682 98 f;
#X obj 682 28 inlet;
#X connect 0 0 2 0;
#X connect 1 0 3 0;
#X connect 5 0 9 0;
#X connect 9 0 6 0;
#X connect 9 1 7 0;
#X connect 9 2 8 0;
#X connect 13 0 18 0;
#X connect 14 0 16 0;
#X connect 15 0 17 0;
#X connect 16 0 6 0;
#X connect 17 0 7 0;
#X connect 18 0 8 0;
#X connect 19 0 16 1;
#X connect 19 0 17 1;
#X connect 19 0 18 1;
#X connect 20 0 19 0;
#X restore -65 254 pd eq5band;
#X obj 17 270 f;
#N canvas 226 190 783 300 exitarmon 0;
#X obj 78 48 inlet~;
#X obj 133 49 inlet~;
#X obj 78 255 outlet~;
#X obj 320 255 outlet~;
#X text 106 106 acá va un buffer que me permite jugar con la velocidad
y otros parámetros del audio que provenga de cualquier fuente y tenga
ya filtrado de algunos efectos;
#X obj 522 28 r \$0-fx;
#X obj 522 136 f;
#X obj 571 136 f;
#X obj 621 136 f;
#X obj 522 50 route centro ancho dureza;
#X text 519 149 centro;
#X text 569 150 ancho;
#X text 618 149 dureza;
#X obj 621 93 r dureza;
#X obj 522 71 r centro;
#X obj 571 92 r ancho;
#X obj 522 115 contin;
#X obj 571 115 contin;
#X obj 621 115 contin;
#X obj 682 98 f;
#X obj 682 28 inlet;
#X connect 0 0 2 0;
#X connect 1 0 3 0;
#X connect 5 0 9 0;
#X connect 9 0 6 0;
#X connect 9 1 7 0;
#X connect 9 2 8 0;
#X connect 13 0 18 0;
#X connect 14 0 16 0;
#X connect 15 0 17 0;
#X connect 16 0 6 0;
#X connect 17 0 7 0;
#X connect 18 0 8 0;
#X connect 19 0 16 1;
#X connect 19 0 17 1;
#X connect 19 0 18 1;
#X connect 20 0 19 0;
#X restore -65 287 pd exitarmon;
#N canvas 457 390 784 301 ambi 0;
#X obj 29 31 inlet~;
#X obj 34 264 outlet~;
#X text 55 138 acá va el efecto y la mezcladora con la señal original
;
#X obj 364 264 outlet~;
#X obj 79 31 inlet~;
#X text 121 91 3 ejes?;
#X obj 736 38 inlet;
#X obj 460 99 r ambx;
#X obj 515 99 r amby;
#X obj 568 99 r ambz;
#X obj 462 121 contin;
#X obj 515 121 contin;
#X obj 568 121 contin;
#X obj 462 55 r \$0-fx;
#X obj 462 77 route ambx amby ambz distfilt+reverb;
#X obj 621 121 contin;
#X obj 621 99 r distfilt+reverb;
#X obj 736 104 f;
#X obj 462 143 f;
#X obj 515 143 f;
#X obj 568 143 f;
#X obj 621 143 f;
#X connect 0 0 1 0;
#X connect 4 0 3 0;
#X connect 6 0 17 0;
#X connect 7 0 10 0;
#X connect 8 0 11 0;
#X connect 9 0 12 0;
#X connect 10 0 18 0;
#X connect 11 0 19 0;
#X connect 12 0 20 0;
#X connect 13 0 14 0;
#X connect 14 0 18 0;
#X connect 14 1 19 0;
#X connect 14 2 20 0;
#X connect 14 3 21 0;
#X connect 15 0 21 0;
#X connect 16 0 15 0;
#X connect 17 0 15 1;
#X connect 17 0 12 1;
#X connect 17 0 11 1;
#X connect 17 0 10 1;
#X restore -64 346 pd ambi;
#X obj 17 329 f;
#X obj 17 387 f;
#N canvas 0 0 834 300 MFO 0;
#X obj 78 48 inlet~;
#X obj 133 49 inlet~;
#X obj 78 255 outlet~;
#X obj 320 255 outlet~;
#X text 106 106 acá va un buffer que me permite jugar con la velocidad
y otros parámetros del audio que provenga de cualquier fuente y tenga
ya filtrado de algunos efectos;
#X obj 793 70 inlet;
#X obj 639 6 r \$0-fx;
#X obj 639 107 f;
#X obj 696 107 f;
#X obj 753 107 f;
#X obj 639 26 route ondalfo freqlfo cantlfo;
#X text 753 123 cantlfo;
#X text 693 123 freclfo;
#X text 636 122 ondalfo;
#X obj 639 46 r ondalfo;
#X obj 696 66 r freqlfo;
#X obj 753 46 r cantlfo;
#X obj 639 87 contin;
#X obj 696 87 contin;
#X obj 753 87 contin;
#X connect 0 0 2 0;
#X connect 1 0 3 0;
#X connect 5 0 17 1;
#X connect 5 0 18 1;
#X connect 5 0 19 1;
#X connect 6 0 10 0;
#X connect 10 0 7 0;
#X connect 10 1 8 0;
#X connect 10 2 9 0;
#X connect 14 0 17 0;
#X connect 15 0 18 0;
#X connect 16 0 19 0;
#X connect 17 0 7 0;
#X connect 18 0 8 0;
#X connect 19 0 9 0;
#X restore -65 404 pd MFO;
#X obj 17 416 f;
#N canvas 0 0 781 250 eco 0;
#X obj 9 17 inlet~;
#X obj 64 18 inlet~;
#X obj 9 224 outlet~;
#X obj 251 224 outlet~;
#X text 37 75 acá va un buffer que me permite jugar con la velocidad
y otros parámetros del audio que provenga de cualquier fuente y tenga
ya filtrado de algunos efectos;
#X obj 738 44 inlet;
#X obj 651 78 r tiempopasos;
#X obj 409 78 r timbreco;
#X obj 469 58 r canteco;
#X obj 530 78 r fdbkeco;
#X obj 590 58 r pasoseco;
#X obj 409 100 contin;
#X obj 469 100 contin;
#X obj 530 100 contin;
#X obj 590 100 contin;
#X obj 651 100 contin;
#X obj 409 16 r \$0-fx;
#X obj 409 36 route timbreco canteco fdbkeco pasoseco tiempopasos;
#X obj 738 83 f;
#X obj 409 137 f;
#X obj 469 137 f;
#X obj 530 137 f;
#X obj 590 137 f;
#X obj 651 137 f;
#X connect 0 0 2 0;
#X connect 1 0 3 0;
#X connect 5 0 18 0;
#X connect 6 0 15 0;
#X connect 7 0 11 0;
#X connect 8 0 12 0;
#X connect 9 0 13 0;
#X connect 10 0 14 0;
#X connect 11 0 19 0;
#X connect 12 0 20 0;
#X connect 13 0 21 0;
#X connect 14 0 22 0;
#X connect 15 0 23 0;
#X connect 16 0 17 0;
#X connect 17 0 19 0;
#X connect 17 1 20 0;
#X connect 17 2 21 0;
#X connect 17 3 22 0;
#X connect 17 4 23 0;
#X connect 18 0 11 1;
#X connect 18 0 12 1;
#X connect 18 0 13 1;
#X connect 18 0 14 1;
#X connect 18 0 15 1;
#X restore -64 433 pd eco;
#X obj 17 475 f;
#N canvas 157 314 753 321 limitador 0;
#X obj 78 48 inlet~;
#X obj 133 49 inlet~;
#X obj 78 255 outlet~;
#X obj 320 255 outlet~;
#X obj 716 56 inlet;
#X obj 362 77 r timbreco2;
#X obj 428 98 r canteco2;
#X obj 495 77 r fdbkeco2;
#X obj 561 98 r pasoseco2;
#X obj 628 77 r tiempopasos2;
#X obj 362 118 contin;
#X obj 428 118 contin;
#X obj 495 118 contin;
#X obj 561 118 contin;
#X obj 628 118 contin;
#X obj 716 101 f;
#X obj 362 138 f;
#X obj 428 138 f;
#X obj 495 138 f;
#X obj 561 138 f;
#X obj 628 138 f;
#X obj 362 36 r \$0-fx;
#X obj 362 56 route timbreco2 canteco2 fdbkeco2 pasoseco2 tiempopasos2
;
#X connect 0 0 2 0;
#X connect 1 0 3 0;
#X connect 4 0 15 0;
#X connect 5 0 10 0;
#X connect 6 0 11 0;
#X connect 7 0 12 0;
#X connect 8 0 13 0;
#X connect 9 0 14 0;
#X connect 10 0 16 0;
#X connect 11 0 17 0;
#X connect 12 0 18 0;
#X connect 13 0 19 0;
#X connect 14 0 20 0;
#X connect 15 0 10 1;
#X connect 15 0 11 1;
#X connect 15 0 12 1;
#X connect 15 0 13 1;
#X connect 15 0 14 1;
#X connect 21 0 22 0;
#X connect 22 0 16 0;
#X connect 22 1 17 0;
#X connect 22 2 18 0;
#X connect 22 3 19 0;
#X connect 22 4 20 0;
#X restore -64 492 pd limitador;
#N canvas 303 388 862 300 umbral 0;
#X obj 78 48 inlet~;
#X obj 133 49 inlet~;
#X obj 78 255 outlet~;
#X obj 320 255 outlet~;
#X text 67 106 acá va un buffer que me permite jugar con la velocidad
y otros parámetros del audio que provenga de cualquier fuente y tenga
ya filtrado de algunos efectos;
#X obj 824 25 inlet;
#X obj 559 -18 r \$0-fx;
#X obj 559 62 f;
#X obj 640 62 f;
#X obj 721 62 f;
#X obj 559 2 route threshold impulsosec durezacontrast;
#X text 637 78 impulsosec;
#X text 719 78 durezacontrast;
#X text 556 79 threshold;
#X obj 559 22 r threshold;
#X obj 640 22 r impulsoseq;
#X obj 721 22 r durezacontrast;
#X obj 559 42 contin;
#X obj 640 42 contin;
#X obj 721 42 contin;
#X connect 0 0 2 0;
#X connect 1 0 3 0;
#X connect 5 0 19 1;
#X connect 5 0 18 1;
#X connect 5 0 17 1;
#X connect 6 0 10 0;
#X connect 10 0 7 0;
#X connect 10 1 8 0;
#X connect 10 2 9 0;
#X connect 14 0 17 0;
#X connect 15 0 18 0;
#X connect 16 0 19 0;
#X connect 17 0 7 0;
#X connect 18 0 8 0;
#X connect 19 0 9 0;
#X restore -65 162 pd umbral;
#X obj 17 445 f;
#N canvas 157 314 753 321 eco2 0;
#X obj 78 48 inlet~;
#X obj 133 49 inlet~;
#X obj 78 255 outlet~;
#X obj 320 255 outlet~;
#X obj 716 56 inlet;
#X obj 362 77 r timbreco2;
#X obj 428 98 r canteco2;
#X obj 495 77 r fdbkeco2;
#X obj 561 98 r pasoseco2;
#X obj 628 77 r tiempopasos2;
#X obj 362 118 contin;
#X obj 428 118 contin;
#X obj 495 118 contin;
#X obj 561 118 contin;
#X obj 628 118 contin;
#X obj 716 101 f;
#X obj 362 138 f;
#X obj 428 138 f;
#X obj 495 138 f;
#X obj 561 138 f;
#X obj 628 138 f;
#X obj 362 36 r \$0-fx;
#X obj 362 56 route timbreco2 canteco2 fdbkeco2 pasoseco2 tiempopasos2
;
#X connect 0 0 2 0;
#X connect 1 0 3 0;
#X connect 4 0 15 0;
#X connect 5 0 10 0;
#X connect 6 0 11 0;
#X connect 7 0 12 0;
#X connect 8 0 13 0;
#X connect 9 0 14 0;
#X connect 10 0 16 0;
#X connect 11 0 17 0;
#X connect 12 0 18 0;
#X connect 13 0 19 0;
#X connect 14 0 20 0;
#X connect 15 0 10 1;
#X connect 15 0 11 1;
#X connect 15 0 12 1;
#X connect 15 0 13 1;
#X connect 15 0 14 1;
#X connect 21 0 22 0;
#X connect 22 0 16 0;
#X connect 22 1 17 0;
#X connect 22 2 18 0;
#X connect 22 3 19 0;
#X connect 22 4 20 0;
#X restore -64 462 pd eco2;
#X obj 17 300 f;
#N canvas 157 314 753 321 resonanc 0;
#X obj 78 48 inlet~;
#X obj 133 49 inlet~;
#X obj 78 255 outlet~;
#X obj 320 255 outlet~;
#X obj 716 56 inlet;
#X obj 362 77 r timbreco2;
#X obj 428 98 r canteco2;
#X obj 495 77 r fdbkeco2;
#X obj 561 98 r pasoseco2;
#X obj 628 77 r tiempopasos2;
#X obj 362 118 contin;
#X obj 428 118 contin;
#X obj 495 118 contin;
#X obj 561 118 contin;
#X obj 628 118 contin;
#X obj 716 101 f;
#X obj 362 138 f;
#X obj 428 138 f;
#X obj 495 138 f;
#X obj 561 138 f;
#X obj 628 138 f;
#X obj 362 36 r \$0-fx;
#X obj 362 56 route timbreco2 canteco2 fdbkeco2 pasoseco2 tiempopasos2
;
#X connect 0 0 2 0;
#X connect 1 0 3 0;
#X connect 4 0 15 0;
#X connect 5 0 10 0;
#X connect 6 0 11 0;
#X connect 7 0 12 0;
#X connect 8 0 13 0;
#X connect 9 0 14 0;
#X connect 10 0 16 0;
#X connect 11 0 17 0;
#X connect 12 0 18 0;
#X connect 13 0 19 0;
#X connect 14 0 20 0;
#X connect 15 0 10 1;
#X connect 15 0 11 1;
#X connect 15 0 12 1;
#X connect 15 0 13 1;
#X connect 15 0 14 1;
#X connect 21 0 22 0;
#X connect 22 0 16 0;
#X connect 22 1 17 0;
#X connect 22 2 18 0;
#X connect 22 3 19 0;
#X connect 22 4 20 0;
#X restore -64 317 pd resonanc;
#X obj 148 491 line~;
#X text -23 72 izq;
#X text 10 94 der;
#X connect 0 0 19 0;
#X connect 1 0 6 0;
#X connect 2 0 6 0;
#X connect 3 0 17 0;
#X connect 4 0 18 0;
#X connect 5 0 19 1;
#X connect 6 0 21 0;
#X connect 7 0 1 0;
#X connect 7 1 2 0;
#X connect 8 0 10 0;
#X connect 8 0 57 0;
#X connect 9 0 8 0;
#X connect 9 0 13 0;
#X connect 10 0 57 1;
#X connect 12 0 11 0;
#X connect 13 0 12 0;
#X connect 13 0 27 0;
#X connect 14 0 15 0;
#X connect 15 0 7 1;
#X connect 15 0 27 1;
#X connect 16 0 7 0;
#X connect 19 0 52 0;
#X connect 19 1 52 1;
#X connect 20 0 41 0;
#X connect 20 1 41 1;
#X connect 21 0 19 2;
#X connect 21 0 39 0;
#X connect 22 0 20 2;
#X connect 22 0 40 0;
#X connect 23 0 24 0;
#X connect 25 0 26 0;
#X connect 27 0 31 0;
#X connect 27 0 30 0;
#X connect 28 0 29 0;
#X connect 30 0 28 0;
#X connect 31 0 25 0;
#X connect 32 0 47 0;
#X connect 32 1 47 1;
#X connect 33 0 32 2;
#X connect 33 0 46 0;
#X connect 34 0 35 2;
#X connect 34 0 22 0;
#X connect 35 0 20 0;
#X connect 35 1 20 1;
#X connect 39 0 52 2;
#X connect 39 0 34 0;
#X connect 40 0 41 2;
#X connect 40 0 42 0;
#X connect 41 0 43 0;
#X connect 41 1 43 1;
#X connect 42 0 43 2;
#X connect 42 0 55 0;
#X connect 43 0 56 0;
#X connect 43 1 56 1;
#X connect 44 0 32 0;
#X connect 44 1 32 1;
#X connect 45 0 44 2;
#X connect 45 0 33 0;
#X connect 46 0 47 2;
#X connect 46 0 48 0;
#X connect 47 0 49 0;
#X connect 47 1 49 1;
#X connect 48 0 49 2;
#X connect 48 0 53 0;
#X connect 49 0 54 0;
#X connect 49 1 54 1;
#X connect 50 0 51 2;
#X connect 51 0 3 0;
#X connect 51 1 4 0;
#X connect 52 0 35 0;
#X connect 52 1 35 1;
#X connect 53 0 54 2;
#X connect 53 0 50 0;
#X connect 54 0 51 0;
#X connect 54 1 51 1;
#X connect 55 0 56 2;
#X connect 55 0 45 0;
#X connect 56 0 44 0;
#X connect 56 1 44 1;
#X connect 57 0 3 1;
#X connect 57 0 4 1;
