#N canvas 722 108 665 583 10;
#X obj 38 29 inlet gemlist;
#X obj 37 445 outlet gemlist;
#X obj 426 10 loadbang;
#X obj 37 267 cylinder;
#X obj 218 29 inlet size;
#X obj 339 29 inlet slice;
#X obj 117 54 f \$1;
#X obj 370 72 f \$2;
#X obj 426 29 t b b;
#X obj 37 302 t a a;
#X obj 131 373 separator;
#X obj 117 77 t f f;
#X obj 117 97 > 0;
#X obj 117 117 select 1;
#X obj 117 136 f;
#X obj 370 94 t f f;
#X obj 370 114 > 0;
#X obj 370 134 select 1;
#X obj 370 153 f;
#X obj 225 413 circle;
#X obj 131 415 circle;
#X obj 221 367 separator;
#X obj 517 29 inlet height;
#X obj 131 395 translateXYZ;
#X obj 225 392 translateXYZ;
#X obj 116 158 t f f f f f;
#X obj 248 302 * -1;
#X obj 39 148 scaleXYZ;
#X obj 36 227 translateXYZ;
#X floatatom 298 125 5 0 0 0 - - -;
#X obj 234 143 * 1.2;
#X connect 0 0 27 0;
#X connect 2 0 8 0;
#X connect 3 0 9 0;
#X connect 4 0 14 0;
#X connect 5 0 18 0;
#X connect 6 0 11 0;
#X connect 7 0 15 0;
#X connect 8 0 6 0;
#X connect 8 1 7 0;
#X connect 9 0 1 0;
#X connect 9 1 10 0;
#X connect 10 0 23 0;
#X connect 11 0 12 0;
#X connect 11 1 14 1;
#X connect 12 0 13 0;
#X connect 13 0 14 0;
#X connect 14 0 25 0;
#X connect 15 0 16 0;
#X connect 15 1 18 1;
#X connect 16 0 17 0;
#X connect 17 0 18 0;
#X connect 18 0 3 2;
#X connect 21 0 24 0;
#X connect 22 0 27 3;
#X connect 22 0 30 0;
#X connect 23 0 20 0;
#X connect 24 0 19 0;
#X connect 25 0 3 1;
#X connect 25 1 20 1;
#X connect 25 2 23 3;
#X connect 25 3 19 1;
#X connect 25 4 26 0;
#X connect 26 0 24 3;
#X connect 27 0 28 0;
#X connect 28 0 3 0;
#X connect 29 0 30 1;
#X connect 30 0 28 2;
