#N canvas 58 82 929 997 10;
#X obj 362 76 gemwin;
#X msg 461 69 0 \, destroy;
#X obj 76 62 gemhead;
#X floatatom 169 194 5 0 0 0 - - -;
#X floatatom 100 305 5 0 0 0 - - -;
#X obj 77 513 circle 0.2;
#X obj 76 176 separator;
#X obj 76 134 translateXYZ;
#X obj 77 423 translateXYZ;
#X msg 362 53 dimen 500 500 \, create \, 1;
#X obj 76 274 rotateXYZ 0 0 45;
#X obj 76 204 repeat 8;
#X obj 169 244 expr 360/$f1;
#X obj 169 219 int;
#X obj 130 386 / 2;
#X text 146 307 radius (change me);
#X text 209 195 circle amount;
#X connect 1 0 0 0;
#X connect 2 0 7 0;
#X connect 3 0 13 0;
#X connect 4 0 8 1;
#X connect 4 0 14 0;
#X connect 6 0 11 0;
#X connect 7 0 6 0;
#X connect 8 0 5 0;
#X connect 9 0 0 0;
#X connect 10 0 8 0;
#X connect 11 0 10 0;
#X connect 12 0 10 3;
#X connect 13 0 11 1;
#X connect 13 0 12 0;
#X connect 14 0 7 1;
