#N canvas 175 109 446 546 10;
#X msg 105 471 rm -rf /Users/svalenzuela/Desktop/tmp.rec/wav.\$1;
#X msg 96 70 ls -1 /Users/svalenzuela/Desktop/tmp.rec;
#X obj 96 148 \$1;
#X obj 126 148 + 1;
#X floatatom 96 170 5 0 0 0 - - -;
#X obj 96 118 bng 15 250 50 0 empty empty empty 17 7 0 10 -262144 -1
-1;
#X obj 180 95 r resetNofFiles;
#X msg 180 122 0;
#X obj 96 25 loadbang;
#X obj 96 47 t b b;
#X obj 105 419 list-drip;
#X obj 96 191 sel 0;
#X floatatom 123 213 5 0 0 0 - - -;
#X obj 123 257 delay 1000;
#X obj 123 235 t b;
#X obj 96 257 f;
#X obj 105 330 until;
#X obj 105 352 f 1;
#X obj 140 352 + 1;
#X msg 105 374 add2 \$1;
#X msg 105 396;
#X msg 73 353 set;
#X msg 73 328 1;
#X floatatom 105 307 5 0 0 0 - - -;
#X obj 96 281 t b f b;
#X obj 156 444 s resetNofFiles;
#X obj -7 290 r resetNofFiles;
#X obj 105 493 shell;
#X obj 178 416 inlet;
#X obj 96 96 shell;
#X connect 0 0 27 0;
#X connect 1 0 29 0;
#X connect 2 0 3 0;
#X connect 2 0 4 0;
#X connect 3 0 2 1;
#X connect 4 0 11 0;
#X connect 5 0 2 0;
#X connect 6 0 7 0;
#X connect 7 0 2 0;
#X connect 8 0 9 0;
#X connect 9 0 1 0;
#X connect 9 1 7 0;
#X connect 10 0 0 0;
#X connect 10 1 25 0;
#X connect 11 1 12 0;
#X connect 12 0 14 0;
#X connect 12 0 15 1;
#X connect 13 0 15 0;
#X connect 14 0 13 0;
#X connect 15 0 24 0;
#X connect 16 0 17 0;
#X connect 17 0 18 0;
#X connect 17 0 19 0;
#X connect 18 0 17 1;
#X connect 19 0 20 0;
#X connect 20 0 10 0;
#X connect 21 0 20 0;
#X connect 22 0 17 1;
#X connect 23 0 16 0;
#X connect 24 0 20 0;
#X connect 24 1 23 0;
#X connect 24 2 22 0;
#X connect 24 2 21 0;
#X connect 26 0 22 0;
#X connect 26 0 21 0;
#X connect 28 0 25 0;
#X connect 29 0 5 0;
