#N canvas 384 298 604 458 10;
#X obj 296 106 cnv 15 20 15 empty \$0-seconds :00 0 8 1 14 -233017
-66577 0;
#X obj 271 106 cnv 15 20 15 empty \$0-minutes :00 0 8 1 14 -233017
-66577 0;
#X obj 160 107 metro 1000;
#X obj 160 138 f 0;
#X obj 190 140 + 1;
#X obj 160 159 mod 60;
#X obj 160 215 f 0;
#X obj 190 217 + 1;
#X obj 160 236 mod 60;
#X obj 160 185 select 0;
#X obj 309 176 makefilename :%02d;
#X msg 309 201 label \$1;
#X msg 312 275 label \$1;
#X obj 312 302 s \$0-minutes;
#X obj 309 228 s \$0-seconds;
#X obj 312 253 makefilename :%02d;
#X obj 160 86 tgl 15 0 empty empty empty 17 7 0 10 -262144 -1 -1 0
1;
#X msg 90 88 0;
#X obj 90 112 t a a;
#X connect 2 0 3 0;
#X connect 3 0 5 0;
#X connect 4 0 3 1;
#X connect 5 0 4 0;
#X connect 5 0 9 0;
#X connect 5 0 10 0;
#X connect 6 0 8 0;
#X connect 7 0 6 1;
#X connect 8 0 7 0;
#X connect 8 0 15 0;
#X connect 9 0 6 0;
#X connect 10 0 11 0;
#X connect 11 0 14 0;
#X connect 12 0 13 0;
#X connect 15 0 12 0;
#X connect 16 0 2 0;
#X connect 17 0 18 0;
#X connect 18 0 6 0;
#X connect 18 1 3 0;
