#N canvas 212 122 616 342 10;
#N canvas 895 264 450 300 sub 1;
#N canvas 727 522 450 300 sub 1;
#X obj 17 33 block~ 64;
#X obj 24 89 bang~;
#X obj 25 136 timer;
#X obj 24 110 t b b;
#X floatatom 25 157 5 0 0 0 - - -, f 5;
#X connect 1 0 3 0;
#X connect 2 0 4 0;
#X connect 3 0 2 0;
#X connect 3 1 2 1;
#X restore 34 100 pd sub;
#X obj 110 41 bang~;
#X obj 111 88 timer;
#X obj 110 62 t b b;
#X floatatom 111 109 5 0 0 0 - - -, f 5;
#X obj 32 42 block~ 256;
#X connect 1 0 3 0;
#X connect 2 0 4 0;
#X connect 3 0 2 0;
#X connect 3 1 2 1;
#X restore 34 128 pd sub;
#X obj 31 77 block~ 1024;
#X obj 143 80 bang~;
#X obj 144 127 timer;
#X obj 143 101 t b b;
#X floatatom 144 148 5 0 0 0 - - -, f 5;
#X msg 29 44 set 1024;
#X msg 92 43 set 512;
#X msg 212 44 set 64;
#X msg 151 45 set 256;
#X text 221 83 try 64 samples and watch the innermost subpatch!;
#X connect 2 0 4 0;
#X connect 3 0 5 0;
#X connect 4 0 3 0;
#X connect 4 1 3 1;
#X connect 6 0 1 0;
#X connect 7 0 1 0;
#X connect 8 0 1 0;
#X connect 9 0 1 0;
