#N canvas 10 0 953 602 10;
#X msg 448 -83 bang;
#X obj 448 67 t f f;
#X msg 532 -27 1;
#X obj 19 81 env~;
#X floatatom 19 105 5 0 0 0 - - -;
#X obj 622 -84 hsl 128 15 0 4 0 0 empty empty alpha -2 6 0 8 -260818
-1 -1 4300 1;
#X obj 619 -28 t b f;
#X floatatom 711 -58 10 0 0 0 - - -;
#X obj 170 -35 hsl 128 15 0 100 0 0 empty empty Level -2 8 0 8 -258699
-1 -1 6700 1;
#X obj 167 0 dbtorms;
#X floatatom 236 -12 5 0 0 0 - - -;
#X msg 751 185 \; pd dsp 0;
#X msg 752 224 \; pd dsp 1;
#X obj 619 -58 / 2;
#X obj 448 106 expr ($f3/$f1)*($f2 + $f1 -1);
#X obj 604 143 + 1;
#N canvas 0 0 551 407 guts 0;
#X obj 24 86 loadbang;
#X msg 261 116 \; hfa yticks 0 0.1 2;
#X msg 68 170 \; hfa ylabel 1027 1 0 -1;
#X msg 68 117 \; hfa xticks 0 100 1024;
#N canvas 0 0 450 300 graph1 0;
#X array hfa 8192 float 2;
#X coords 0 -1 8192 1 200 140 1;
#X restore 38 248 graph;
#X connect 0 0 3 0;
#X connect 0 0 2 0;
#X connect 0 0 1 0;
#X restore 751 155 pd guts;
#X obj 8 -149 cnv 15 400 60 empty empty Colored_Noise_Generation 20
12 0 18 -260818 -66577 0;
#X text 326 -107 A. Zin \, 2006;
#X obj 448 179 tabwrite hfa;
#X text 627 30 hfa(i) = hfa(i-1)*(alpha/2 + (i-2))/(i-1);
#X text 612 -113 (gives the "color" of the noise);
#N canvas 0 0 474 324 cpu_load 0;
#X obj 113 259 outlet;
#X obj 113 170 cputime;
#X obj 113 30 loadbang;
#X msg 113 58 1;
#X floatatom 113 86 0 0 0 0 - - -;
#X obj 113 142 t b b;
#X obj 113 230 * 0.1;
#X obj 113 199 int;
#X text 158 86 <-- on/off;
#X obj 113 114 metro 500;
#X connect 1 0 7 0;
#X connect 2 0 3 0;
#X connect 3 0 4 0;
#X connect 4 0 9 0;
#X connect 5 0 1 0;
#X connect 5 1 1 1;
#X connect 6 0 0 0;
#X connect 7 0 6 0;
#X connect 9 0 5 0;
#X restore 752 101 pd cpu_load;
#X floatatom 752 130 5 0 0 0 - - -;
#X text 449 301 Colored noise generation based on J.N. Kasdin;
#X text 449 314 algorithm("Discrete simulation of colored noise and
stochastic processes and 1/f^alpha power law noise generation" \, Proc.
IEEE \, V. 83 \, N. 5 \, May 1995). White gaussian noise is convolved
with tailored array of coefficients such that the final spectrum is
proportional to 1/f^alpha;
#X text 616 -129 alpha: slope of the spectrum in a log-log plot;
#X text 627 14 Recursion equation for hfa coeff:;
#X obj 68 5 *~;
#X obj 67 -38 noise~;
#X text 627 46 hfa(1) = 1;
#X text 12 -80 Input: white gaussian noise (or simply white uniform
noise);
#X text 30 -108 Help patch;
#X obj 532 0 t f f f f f;
#X obj 448 -55 t b b;
#N canvas 0 0 522 372 iterate 0;
#X obj 60 70 f;
#X obj 98 69 + 1;
#X obj 60 30 until;
#X obj 131 -7 inlet;
#X obj 97 156 outlet;
#X obj 60 -8 inlet;
#X obj 60 105 sel 4096;
#X connect 0 0 1 0;
#X connect 0 0 6 0;
#X connect 1 0 0 1;
#X connect 2 0 0 0;
#X connect 3 0 0 1;
#X connect 5 0 2 0;
#X connect 6 0 2 1;
#X connect 6 1 4 0;
#X restore 448 34 pd iterate;
#X obj 448 144 t f f;
#X obj 67 49 fft_convolution 8192 hfa;
#X obj 66 196 spectrogram;
#X msg 329 145 1;
#X msg 370 145 0;
#X msg 139 145 10;
#X msg 193 146 90;
#X text 321 123 start;
#X text 368 122 stop;
#X text 150 125 filtering;
#X obj 820 228 cnv 15 60 20 empty empty <--1 20 12 0 10 -90881 -241291
0;
#X obj 813 -85 cnv 15 60 20 empty empty <--2 20 12 0 10 -90881 -241291
0;
#X obj 346 -34 cnv 15 60 20 empty empty <--3 20 12 0 10 -90881 -241291
0;
#X obj 251 145 cnv 15 60 20 empty empty 4--> 20 12 0 10 -90881 -241291
0;
#X connect 0 0 34 0;
#X connect 1 0 14 0;
#X connect 1 1 15 0;
#X connect 2 0 33 0;
#X connect 3 0 4 0;
#X connect 5 0 7 0;
#X connect 5 0 13 0;
#X connect 6 0 0 0;
#X connect 6 1 14 1;
#X connect 8 0 9 0;
#X connect 8 0 10 0;
#X connect 9 0 28 1;
#X connect 13 0 6 0;
#X connect 14 0 36 0;
#X connect 15 0 19 1;
#X connect 22 0 23 0;
#X connect 28 0 37 0;
#X connect 29 0 28 0;
#X connect 33 0 35 1;
#X connect 33 2 19 0;
#X connect 33 3 19 1;
#X connect 33 4 14 2;
#X connect 34 0 35 0;
#X connect 34 1 2 0;
#X connect 35 0 1 0;
#X connect 36 0 19 0;
#X connect 36 1 14 2;
#X connect 37 0 3 0;
#X connect 37 0 38 0;
#X connect 39 0 38 2;
#X connect 40 0 38 2;
#X connect 41 0 38 1;
#X connect 42 0 38 1;
