#N canvas 58 54 1091 726 10;
#N canvas 0 0 450 300 (subpatch) 0;
#X array \$0-orig 22050 float 2;
#X coords 0 1 22050 -1 200 140 1;
#X restore 751 34 graph;
#N canvas 0 0 450 300 (subpatch) 0;
#X array \$0-proc 22050 float 2;
#X coords 0 1 22050 -1 200 140 1;
#X restore 751 194 graph;
#X obj 563 160 tabwrite~ \$0-orig;
#X obj 563 433 tabwrite~ \$0-proc;
#X obj 563 105 metro 150;
#X obj 563 79 tgl 15 0 empty empty empty 17 7 0 10 -262144 -1 -1 0
1;
#X obj 200 77 osc~ 200;
#X obj 264 99 / 100;
#X floatatom 264 77 5 0 0 0 - - -;
#X floatatom 307 298 5 0 0 0 comp1 - -;
#X msg 307 254 1 \$1;
#X obj 307 277 /;
#X floatatom 307 233 5 0 0 2 1/comp1 - -;
#X floatatom 244 233 5 0 0 2 thresh - -;
#X text 413 482 Modes;
#X text 413 547 expander:;
#X text 511 548 comp1 = 1 \, comp2 > 1;
#X text 411 575 limiter:;
#X text 518 577 comp1 very small \, comp2 = 1;
#X text 412 508 compressor:;
#X text 413 605 noise gate:;
#X text 519 606 comp1 = 1 \, comp2 very small;
#X floatatom 381 298 5 0 0 1 comp2 - -;
#X msg 381 254 1 \$1;
#X obj 381 277 /;
#X floatatom 381 233 5 0 0 2 1/comp2 - -;
#X floatatom 422 347 5 0 1000 2 att(ms) - -;
#X floatatom 482 347 5 0 1000 2 rel(ms) - -;
#X obj 201 398 compress~ 0.7 0.5 1 50 200;
#X text 120 20 compress~;
#X text 194 36 dynamics processor;
#N canvas 0 0 500 344 snd 0;
#X obj 113 153 readsf~;
#X obj 113 75 openpanel;
#X obj 113 101 symbol;
#X msg 113 127 open \$1 \, 1;
#X obj 180 154 spigot 1;
#X obj 233 125 tgl 15 0 empty empty empty 17 7 0 10 -262144 -1 -1 0
1;
#X obj 113 51 bng 15 250 50 0 empty empty empty 17 7 0 10 -262144 -1
-1;
#X msg 66 72 bang;
#X msg 141 51 symbol ~/loops;
#X obj 113 179 outlet~;
#X obj 89 24 inlet;
#X obj 244 182 outlet;
#X connect 0 0 9 0;
#X connect 0 1 4 0;
#X connect 1 0 2 0;
#X connect 2 0 3 0;
#X connect 3 0 0 0;
#X connect 4 0 2 0;
#X connect 4 0 11 0;
#X connect 5 0 4 1;
#X connect 6 0 1 0;
#X connect 7 0 2 0;
#X connect 8 0 1 0;
#X connect 10 0 1 0;
#X restore 112 143 pd snd;
#X obj 112 123 bng 15 250 50 0 empty empty empty 17 7 0 10 -262144
-1 -1;
#X obj 137 190 / 100;
#X floatatom 137 168 5 0 0 0 - - -;
#X obj 112 219 *~ 1;
#X obj 201 432 *~ 1;
#X obj 246 442 / 100;
#X floatatom 246 420 5 0 0 1 make-up-gain - -;
#X text 518 507 comp1 < 1 \, comp2 = 1 (try comp2 > 1 for that pumping
sound);
#X obj 111 493 ezdac~;
#X obj 202 493 ezdac~;
#N canvas 0 0 450 300 (subpatch) 0;
#X array \$0-diff 22050 float 2;
#X coords 0 1 22050 0 200 140 1;
#X restore 752 362 graph;
#X obj 563 461 tabwrite~ \$0-diff;
#X obj 563 132 b;
#X msg 596 133 bang;
#N canvas 0 0 406 309 resize 0;
#X obj 65 129 s \$0-orig;
#X obj 62 162 s \$0-proc;
#X obj 62 190 s \$0-diff;
#X msg 74 99 resize \$1;
#X obj 74 70 inlet;
#X connect 3 0 0 0;
#X connect 3 0 1 0;
#X connect 3 0 2 0;
#X connect 4 0 3 0;
#X restore 619 266 pd resize;
#X msg 627 239 441;
#X msg 619 216 44100;
#X obj 547 166 bng 15 250 50 0 empty empty empty 17 7 0 10 -262144
-1 -1;
#X msg 662 239 22050;
#X obj 265 150 delay 500;
#X floatatom 325 113 5 0 0 0 - - -;
#X obj 244 256 / 100;
#X obj 201 107 *~ 0;
#X obj 296 470 env~;
#X obj 296 495 - 100;
#X obj 297 523 vu 15 120 empty empty -1 -8 0 10 -66577 -1 1 0;
#X obj 49 469 env~;
#X obj 49 494 - 100;
#X obj 50 522 vu 15 120 empty empty -1 -8 0 10 -66577 -1 1 0;
#X connect 4 0 44 0;
#X connect 5 0 4 0;
#X connect 6 0 54 0;
#X connect 7 0 54 1;
#X connect 8 0 7 0;
#X connect 9 0 28 2;
#X connect 10 0 11 0;
#X connect 11 0 9 0;
#X connect 12 0 10 0;
#X connect 13 0 53 0;
#X connect 22 0 28 3;
#X connect 23 0 24 0;
#X connect 24 0 22 0;
#X connect 25 0 23 0;
#X connect 26 0 28 4;
#X connect 27 0 28 5;
#X connect 28 0 36 0;
#X connect 28 1 43 0;
#X connect 31 0 35 0;
#X connect 31 1 51 0;
#X connect 32 0 31 0;
#X connect 33 0 35 1;
#X connect 34 0 33 0;
#X connect 35 0 28 0;
#X connect 35 0 2 0;
#X connect 35 0 40 0;
#X connect 35 0 40 1;
#X connect 35 0 58 0;
#X connect 36 0 41 0;
#X connect 36 0 41 1;
#X connect 36 0 3 0;
#X connect 36 0 55 0;
#X connect 37 0 36 1;
#X connect 38 0 37 0;
#X connect 44 0 2 0;
#X connect 44 0 3 0;
#X connect 44 0 43 0;
#X connect 44 0 49 0;
#X connect 45 0 44 0;
#X connect 47 0 46 0;
#X connect 48 0 46 0;
#X connect 50 0 46 0;
#X connect 51 0 44 0;
#X connect 52 0 51 1;
#X connect 53 0 28 1;
#X connect 54 0 2 0;
#X connect 54 0 28 0;
#X connect 55 0 56 0;
#X connect 56 0 57 0;
#X connect 58 0 59 0;
#X connect 59 0 60 0;
