#N canvas 121 116 749 492 12;
#X msg 274 194 0;
#X msg 312 194 1;
#X obj 217 102 r \$1;
#X obj 261 222 spigot 1;
#X obj 261 279 s \$1-if-receive;
#X msg 440 195 0;
#X msg 478 195 1;
#X obj 427 223 spigot 1;
#X obj 383 139 t b b;
#X obj 261 251 t b b b;
#X obj 427 252 t b b b;
#X obj 383 103 r \$1-if-send;
#X obj 427 280 s \$1;
#X obj 217 138 t b b b;
#X connect 0 0 3 1;
#X connect 1 0 3 1;
#X connect 2 0 13 0;
#X connect 3 0 9 0;
#X connect 5 0 7 1;
#X connect 6 0 7 1;
#X connect 7 0 10 0;
#X connect 8 1 7 0;
#X connect 9 0 4 0;
#X connect 9 1 0 0;
#X connect 9 2 5 0;
#X connect 10 0 12 0;
#X connect 10 1 5 0;
#X connect 10 2 0 0;
#X connect 11 0 8 0;
#X connect 13 0 6 0;
#X connect 13 1 1 0;
#X connect 13 2 3 0;
