#N canvas 0 0 509 506 10;
#X obj 63 362 hverb~;
#X obj 11 103 noise~;
#X obj 29 248 *~;
#X obj 62 134 vline~;
#X obj 90 253 hverb-calc 16;
#X floatatom 134 134 5 0 0 0 - - -;
#X obj 282 283 heref-calc;
#X obj 129 317 heref~;
#X obj 202 283 heref-calc;
#X obj 157 201 / 100;
#X floatatom 158 172 5 0 0 0 - - -;
#X obj 62 168 *~;
#X obj 112 42 t b b b;
#X obj 113 17 bng 15 250 50 0 empty empty empty 17 7 0 10 -262144 -1
-1;
#X obj 134 84 + 500;
#X obj 135 64 random 1500;
#X obj 112 -5 spigot;
#X obj 132 18 tgl 15 0 empty empty empty 17 7 0 10 -262144 -1 -1 0
1;
#X obj 37 27 delay;
#X obj 62 417 dac~;
#X obj 33 385 *~ 1;
#X obj 101 384 *~ 1;
#X obj 57 461 writesf~ 2;
#X msg 155 442 stop;
#X obj 349 81 loadbang;
#X msg 316 239 0.5 \$2 0.01 \$1;
#X msg 236 260 0.5 \$2 0.01 \$1;
#X obj 246 31 metro 666;
#X obj 245 59 f 0;
#X obj 279 59 + 1;
#X obj 216 133 + 0.5;
#X obj 216 92 t f f;
#X obj 279 85 mod 32;
#X obj 269 111 mod 2;
#X obj 266 133 + 0.5;
#X obj 212 180 t a a;
#X obj 214 156 pack f f;
#X obj 245 5 tgl 15 0 empty empty empty 17 7 0 10 -262144 -1 -1 0 1
;
#X floatatom 319 57 5 0 0 0 - - -;
#X obj 12 189 bp~ 666 6;
#X obj 11 212 expr~ tanh($v1*4);
#X msg 349 105 1 2 4 32;
#X msg 61 108 1 1 \, 0 5 1;
#X msg 202 207 0.5 1.3 2.5 16;
#X msg 314 208 0.5 0.7 2.5 16;
#X obj 24 313 heref~;
#X obj 333 25 sel 0;
#X msg 157 417 open -bytes 4 corridor-pacing-2.wav \, start;
#X connect 0 0 20 0;
#X connect 0 1 21 0;
#X connect 1 0 39 0;
#X connect 2 0 7 0;
#X connect 2 0 45 0;
#X connect 3 0 11 0;
#X connect 3 0 11 1;
#X connect 4 0 0 2;
#X connect 5 0 0 3;
#X connect 6 0 7 1;
#X connect 7 0 21 0;
#X connect 7 1 0 1;
#X connect 8 0 45 1;
#X connect 9 0 7 2;
#X connect 9 0 45 2;
#X connect 10 0 9 0;
#X connect 11 0 2 1;
#X connect 12 0 42 0;
#X connect 12 1 15 0;
#X connect 13 0 12 0;
#X connect 14 0 5 0;
#X connect 14 0 18 0;
#X connect 15 0 14 0;
#X connect 16 0 13 0;
#X connect 17 0 16 1;
#X connect 18 0 16 0;
#X connect 20 0 19 0;
#X connect 20 0 22 0;
#X connect 21 0 19 1;
#X connect 21 0 22 1;
#X connect 23 0 22 0;
#X connect 24 0 41 0;
#X connect 25 0 6 1;
#X connect 26 0 8 1;
#X connect 27 0 28 0;
#X connect 27 0 42 0;
#X connect 28 0 29 0;
#X connect 28 0 31 0;
#X connect 28 0 38 0;
#X connect 29 0 32 0;
#X connect 30 0 36 0;
#X connect 31 0 30 0;
#X connect 31 1 33 0;
#X connect 32 0 28 1;
#X connect 32 0 46 0;
#X connect 33 0 34 0;
#X connect 34 0 36 1;
#X connect 35 0 43 0;
#X connect 35 0 44 0;
#X connect 35 1 25 0;
#X connect 35 1 26 0;
#X connect 36 0 35 0;
#X connect 37 0 27 0;
#X connect 39 0 40 0;
#X connect 40 0 2 0;
#X connect 41 0 6 2;
#X connect 41 0 8 2;
#X connect 41 0 4 0;
#X connect 42 0 3 0;
#X connect 43 0 8 0;
#X connect 44 0 6 0;
#X connect 45 0 20 0;
#X connect 45 1 0 0;
#X connect 46 0 37 0;
#X connect 47 0 22 0;
