#N canvas 0 22 454 304 10;
#X obj 138 48 bng 15 250 50 0 empty empty empty 0 -6 0 8 -262144 -1
-1;
#X msg 137 76 1;
#X obj 139 115 +;
#X obj 169 115 f;
#X msg 169 76 0;
#X text 203 77 <-- reset;
#X obj 138 182 %;
#X msg 172 161 5;
#X text 206 161 <-- range;
#X floatatom 138 216 5 0 0 0 - - -;
#X obj 228 31 loadbang;
#X connect 0 0 1 0;
#X connect 1 0 2 0;
#X connect 2 0 3 0;
#X connect 2 0 6 0;
#X connect 3 0 2 1;
#X connect 4 0 2 1;
#X connect 6 0 9 0;
#X connect 7 0 6 1;
#X connect 10 0 4 0;
#X connect 10 0 7 0;
