#N canvas 197 43 625 366 10;
#X obj 68 66 loadbang;
#X obj 133 151 + 32;
#X obj 98 128 f \$1;
#X obj 68 108 f \$2;
#X obj 68 87 t b b;
#N canvas 823 474 218 166 1095-tablet 0;
#X obj 30 30 ctlin14 14 1 46;
#X obj 30 70 s 0-cc;
#X connect 0 0 1 0;
#X restore 15 23 pd \$0-tablet;
#X obj 150 94 f \$0;
#X obj 150 117 makefilename pd-%d-tablet;
#X obj 68 178 pack f f f s f;
#X obj 456 169 r \$0-cc;
#X obj 456 198 outlet;
#X msg 49 266 \; \$4 clear \, obj 30 30 ctlin14 \$2 \$1 \$3 \, obj
30 70 s \$5-cc \, connect 0 0 1 0;
#X connect 0 0 4 0;
#X connect 1 0 8 2;
#X connect 2 0 1 0;
#X connect 2 0 8 1;
#X connect 3 0 8 0;
#X connect 4 0 3 0;
#X connect 4 1 2 0;
#X connect 4 1 6 0;
#X connect 6 0 7 0;
#X connect 6 0 8 4;
#X connect 7 0 8 3;
#X connect 8 0 11 0;
#X connect 9 0 10 0;
