#N canvas 98 78 463 524 10;
#X obj 26 82 gemwin;
#X msg 53 10 create;
#X msg 53 42 destroy;
#X obj 26 10 tgl 15 0 empty empty empty 17 7 0 10 -262144 -1 -1 1 1
;
#X obj 26 102 gemhead;
#X obj 67 202 f;
#X msg 94 182 0;
#X obj 107 202 + 1;
#X obj 93 162 f;
#X obj 133 162 + 1;
#X obj 26 422 rotate 0 1 2 3;
#X obj 26 454 translateXYZ;
#X obj 52 322 -;
#X obj 132 322 -;
#X obj 212 322 -;
#X obj 155 232 t f f f;
#X obj 212 302 mod 2;
#X obj 132 262 div 2;
#X obj 132 302 mod 3;
#X obj 52 262 div 2;
#X obj 52 282 div 3;
#X obj 52 302 mod 4;
#X obj 96 302 - 1;
#X obj 96 322 / 2;
#X obj 176 302 - 1;
#X obj 176 322 / 2;
#X obj 256 302 - 1;
#X obj 256 322 / 2;
#X obj 212 211 unpack f f f;
#X obj 166 152 unpack f f f;
#X obj 166 182 *;
#X obj 205 182 *;
#X obj 206 91 t b f;
#X obj 246 92 t b f;
#X obj 166 124 pack 4 3 2;
#X floatatom 166 49 5 1 16 0 - - -;
#X floatatom 206 50 5 1 16 0 - - -;
#X floatatom 246 50 5 1 16 0 - - -;
#X obj 52 342 /;
#X obj 132 342 /;
#X obj 212 342 /;
#X text 222 9 requires [repeat] from Zexy;
#X obj 26 402 scale 4;
#X obj 26 483 cube 0.05;
#X obj 26 230 gemhead;
#X obj 26 201 t b b;
#X obj 26 172 until;
#X obj 26 153 f 24;
#X obj 26 122 t b b b;
#X connect 1 0 0 0;
#X connect 2 0 0 0;
#X connect 3 0 0 0;
#X connect 4 0 48 0;
#X connect 5 0 7 0;
#X connect 5 0 15 0;
#X connect 6 0 5 1;
#X connect 7 0 5 1;
#X connect 8 0 9 0;
#X connect 8 0 10 1;
#X connect 9 0 8 1;
#X connect 10 0 11 0;
#X connect 11 0 43 0;
#X connect 12 0 38 0;
#X connect 13 0 39 0;
#X connect 14 0 40 0;
#X connect 15 0 19 0;
#X connect 15 1 17 0;
#X connect 15 2 16 0;
#X connect 16 0 14 0;
#X connect 17 0 18 0;
#X connect 18 0 13 0;
#X connect 19 0 20 0;
#X connect 20 0 21 0;
#X connect 21 0 12 0;
#X connect 22 0 23 0;
#X connect 23 0 12 1;
#X connect 24 0 25 0;
#X connect 25 0 13 1;
#X connect 26 0 27 0;
#X connect 27 0 14 1;
#X connect 28 0 22 0;
#X connect 28 0 21 1;
#X connect 28 0 38 1;
#X connect 28 1 24 0;
#X connect 28 1 18 1;
#X connect 28 1 39 1;
#X connect 28 1 20 1;
#X connect 28 2 26 0;
#X connect 28 2 16 1;
#X connect 28 2 17 1;
#X connect 28 2 19 1;
#X connect 28 2 40 1;
#X connect 29 0 30 0;
#X connect 29 1 31 0;
#X connect 29 2 31 1;
#X connect 30 0 47 1;
#X connect 31 0 30 1;
#X connect 32 0 34 0;
#X connect 32 1 34 1;
#X connect 33 0 34 0;
#X connect 33 1 34 2;
#X connect 34 0 28 0;
#X connect 34 0 29 0;
#X connect 35 0 34 0;
#X connect 36 0 32 0;
#X connect 37 0 33 0;
#X connect 38 0 11 1;
#X connect 39 0 11 2;
#X connect 40 0 11 3;
#X connect 42 0 10 0;
#X connect 44 0 42 0;
#X connect 45 0 44 0;
#X connect 45 1 5 0;
#X connect 46 0 45 0;
#X connect 47 0 46 0;
#X connect 48 0 47 0;
#X connect 48 1 8 0;
#X connect 48 2 6 0;
