#N canvas 125 218 746 299 10;
#X obj 17 235 sys_gui;
#X obj 629 215 bng 15 250 50 0 empty empty empty 17 7 0 10 -262144
-1 -1;
#N canvas 31 63 450 300 Setproperties 0;
#X obj 27 46 inlet;
#X msg 27 114 org.freedesktop.DBus.Properties.Set string:org.mpris.MediaPlayer2.Player
string:\$1 variant:double:\$2;
#X obj 27 168 s dbus-send;
#X connect 0 0 1 0;
#X connect 1 0 2 0;
#X restore 589 111 pd Setproperties;
#X obj 589 47 hradio 15 1 0 8 empty empty empty 0 -8 0 10 -262144 -1
-1 6;
#X obj 17 214 r SYS_GUI;
#N canvas 31 141 441 220 dbus-send 0;
#X obj 19 144 list trim;
#X obj 19 52 r dbus-send;
#X obj 19 168 s SYS_GUI;
#X obj 19 94 list prepend exec dbus-send --print-reply --dest=org.mpris.MediaPlayer2.vlc
/org/mpris/MediaPlayer2;
#X connect 0 0 2 0;
#X connect 1 0 3 0;
#X connect 3 0 0 0;
#X restore 149 215 pd dbus-send;
#X obj 17 142 s SYS_GUI;
#X msg 29 117 exec vlc -I dummy --control dbus &;
#X obj 589 89 list prepend Volume;
#X msg 17 72 exec vlc --control dbus &;
#X text 15 16 patko2015;
#X text 16 53 launch VLC with GUI;
#X text 52 101 no GUI;
#N canvas 516 107 517 300 introspect 0;
#X obj 60 194 s SYS_GUI;
#X msg 60 129 exec dbus-send --print-reply --dest=org.mpris.MediaPlayer2.vlc
/org/mpris/MediaPlayer2 org.freedesktop.DBus.Introspectable.Introspect
> /dev/tty;
#X text 121 77 this outputs all parameters in tty console;
#X connect 1 0 0 0;
#X restore 140 271 pd introspect;
#X obj 357 63 openpanel;
#X obj 357 25 bng 15 250 50 0 empty empty empty 17 7 0 10 -262144 -1
-1;
#X text 8 196 tcl interpreter;
#N canvas 29 51 507 300 trackList 0;
#X obj 46 36 openpanel;
#X obj 46 13 inlet;
#X obj 44 95 s dbus-send;
#X msg 45 61 org.mpris.MediaPlayer2.TrackList.AddTrack string:file://\$1
objpath:/org/mpris/MediaPlayer2/AddTrack boolean:true;
#X connect 0 0 3 0;
#X connect 1 0 0 0;
#X connect 3 0 2 0;
#X restore 629 241 pd trackList;
#X obj 589 67 / 7;
#X msg 383 127 Play;
#X msg 376 103 Pause;
#X text 129 195 dbus message prepend;
#X text 95 252 get interface methods and properties;
#X text 379 24 open media file;
#X text 586 28 set volume;
#N canvas 522 116 495 299 position 0;
#X obj 29 15 inlet;
#X obj 298 200 r vlc-pos;
#X obj 29 206 s SYS_GUI;
#X msg 29 114 set pos [exec dbus-send --print-reply --dest=org.mpris.MediaPlayer2.vlc
/org/mpris/MediaPlayer2 org.freedesktop.DBus.Properties.Get string:org.mpris.MediaPlayer2.Player
string:Position] \, pdsend [list vlc-pos [lindex $pos end]];
#X obj 29 53 metro 100;
#X obj 298 226 / 1e+06;
#X obj 298 262 outlet;
#X connect 0 0 4 0;
#X connect 1 0 5 0;
#X connect 3 0 2 0;
#X connect 4 0 3 0;
#X connect 5 0 6 0;
#X restore 497 228 pd position;
#X text 12 -1 DBUS interfacing with hc/sys_gui tcl interpreter;
#X msg 371 249 Quit;
#X msg 361 225 Raise;
#N canvas 31 63 450 300 player.methods 0;
#X obj 85 46 inlet;
#X msg 172 128 org.mpris.MediaPlayer2.Player.\$1;
#X obj 103 193 s dbus-send;
#X obj 104 163 list append;
#X obj 85 100 list split 1;
#X connect 0 0 4 0;
#X connect 1 0 3 0;
#X connect 3 0 2 0;
#X connect 4 0 1 0;
#X connect 4 1 3 1;
#X restore 357 181 pd player.methods;
#N canvas 31 58 450 300 methods 0;
#X obj 85 46 inlet;
#X obj 103 193 s dbus-send;
#X obj 104 163 list append;
#X obj 85 100 list split 1;
#X msg 171 127 org.mpris.MediaPlayer2.\$1;
#X connect 0 0 3 0;
#X connect 2 0 1 0;
#X connect 3 0 4 0;
#X connect 3 1 2 1;
#X connect 4 0 2 0;
#X restore 361 273 pd methods;
#X text 241 270 or use d-feet;
#X floatatom 497 251 5 0 0 0 - - -, f 5;
#X obj 497 203 tgl 15 0 empty empty empty 17 7 0 10 -262144 -1 -1 1
1;
#X text 514 201 get position;
#X text 536 251 in seconds;
#X msg 431 160 Seek int64:\$1;
#X text 335 44 can not handle path with spaces;
#X obj 15 35 cnv 15 20 20 empty empty 1 2 10 0 14 -233017 -66577 0
;
#X obj 323 24 cnv 15 20 20 empty empty 2 2 10 0 14 -233017 -66577 0
;
#X msg 357 82 OpenUri string:file://[list \$1];
#X floatatom 432 143 5 0 0 0 - - -, f 5;
#X obj 85 278 print;
#X obj 16 256 route bang;
#X connect 0 0 43 0;
#X connect 1 0 17 0;
#X connect 3 0 18 0;
#X connect 4 0 0 0;
#X connect 8 0 2 0;
#X connect 9 0 6 0;
#X connect 14 0 40 0;
#X connect 15 0 14 0;
#X connect 18 0 8 0;
#X connect 19 0 29 0;
#X connect 20 0 29 0;
#X connect 25 0 32 0;
#X connect 27 0 30 0;
#X connect 28 0 30 0;
#X connect 33 0 25 0;
#X connect 36 0 29 0;
#X connect 40 0 29 0;
#X connect 41 0 36 0;
#X connect 43 1 42 0;
