#N canvas 665 106 466 430 10;
#X floatatom 184 191 0 0 0 0 - - -;
#X obj 157 302 print~;
#X obj 175 278 bng 15 250 50 0 empty empty empty 17 7 0 10 -262144
-1 -1;
#X obj 256 234 block~ 2048;
#X obj 84 165 count~;
#X obj 84 126 bang~;
#N canvas 0 22 450 300 delwrite~ 0;
#X obj 216 129 delwrite~ x 46.399;
#X obj 225 43 inlet~;
#X obj 238 185 outlet~;
#X connect 1 0 0 0;
#X restore 84 191 pd delwrite~;
#N canvas 0 22 450 300 vd 0;
#X obj 262 149 vd~ x;
#X obj 262 106 sig~;
#X obj 131 60 inlet~;
#X obj 263 67 inlet;
#X obj 262 187 outlet~;
#X connect 0 0 4 0;
#X connect 1 0 0 0;
#X connect 3 0 1 0;
#X restore 157 244 pd vd;
#X obj 254 84 loadbang;
#X msg 254 141 \; pd dsp 1;
#X msg 171 134 2048;
#X obj 171 158 sampstoms~;
#X text 209 303 only delays 64 samples at most;
#X connect 0 0 7 1;
#X connect 2 0 1 0;
#X connect 4 0 6 0;
#X connect 5 0 4 0;
#X connect 6 0 7 0;
#X connect 7 0 1 0;
#X connect 8 0 10 0;
#X connect 8 0 9 0;
#X connect 10 0 11 0;
#X connect 11 1 0 0;
