#N canvas 0 22 756 511 10;
#X floatatom 302 203 0 0 2000 1 0-2000_ms - -;
#X obj 282 107 +~;
#X obj 292 262 *~;
#X floatatom 461 203 5 0 100 1 0-100_procent - -;
#X obj 461 226 / 100;
#X obj 302 225 delread~ delay_left 600;
#X obj 282 134 delwrite~ delay_left 600;
#X obj 302 181 r hd_delaytime_left;
#X obj 460 182 r hd_feedback_left;
#X obj 291 305 s~ audio_out;
#X obj 275 56 r~ audio_in;
#X connect 0 0 5 0;
#X connect 1 0 6 0;
#X connect 2 0 1 1;
#X connect 2 0 9 0;
#X connect 3 0 4 0;
#X connect 4 0 2 1;
#X connect 5 0 2 0;
#X connect 7 0 0 0;
#X connect 8 0 3 0;
#X connect 10 0 1 0;
