#N canvas 0 0 692 581 10;
#X obj -35 38 adc~;
#X obj 144 75 delwrite~ stompbox_delay 2000;
#X obj 90 323 vd~ stompbox_delay;
#X obj 178 129 *~;
#X obj 74 492 *~;
#X obj 142 493 *~;
#X obj 93 535 dac~;
#X obj 322 468 line~;
#X obj 279 467 line~;
#X obj 273 432 pack 0 5;
#X obj 329 432 pack 0 5;
#X obj 382 322 hsl 128 15 0 1 0 0 empty empty empty -2 -8 0 10 -262144
-1 -1 6200 1;
#X obj 271 403 expr 1-$f1;
#X obj 244 141 line~;
#X obj 244 124 pack 0 5;
#X obj 405 89 knob 32 32 0.009 0.9 1 0 empty empty empty 0 -8 0 8 -262144
-1 -1 3100 1;
#X obj 137 298 line~;
#X obj 424 153 knob 32 32 5 2000 1 0 empty empty empty 0 -8 0 8 -262144
-1 -1 1900 1;
#X obj 137 281 pack 0 200;
#X text 403 362 Smoothly control the mix between;
#X text 403 376 dry and wet signals.;
#X text 493 160 Delay length (log);
#X text 465 94 Delay feedback (log);
#X text 247 24 Write to delay line (2000 ms max \, if you change this
you'll;
#X text 245 37 have to change the maximum value the length knob;
#N canvas 0 0 450 300 switch 0;
#X obj 292 196 line~;
#X obj 249 195 line~;
#X obj 243 160 pack 0 5;
#X obj 299 160 pack 0 5;
#X obj 241 131 expr 1-$f1;
#X obj 109 240 *~;
#X obj 142 240 *~;
#X obj 59 27 inlet~;
#X obj 84 269 outlet~;
#X obj 146 270 outlet~;
#X obj 155 118 tgl 30 0 empty empty empty 17 7 0 10 -262144 -1 -1 1
1;
#X text 105 108 Filter;
#X text 103 125 On / Off;
#X connect 0 0 6 1;
#X connect 1 0 5 1;
#X connect 2 0 1 0;
#X connect 3 0 0 0;
#X connect 4 0 2 0;
#X connect 5 0 8 0;
#X connect 6 0 9 0;
#X connect 7 0 5 0;
#X connect 7 0 6 0;
#X connect 10 0 4 0;
#X connect 10 0 3 0;
#X coords 0 -1 1 1 85 60 2 100 100;
#X restore 409 227 pd switch;
#X obj 486 289 lop~ 2000;
#X text 500 224 You can also add a;
#X text 499 239 filter here;
#X text 151 534 Output to speakers;
#X text -51 20 Capture the sound;
#X text 131 350 Read delay line;
#X text 244 48 can output).;
#X connect 0 0 1 0;
#X connect 0 0 4 0;
#X connect 2 0 5 0;
#X connect 2 0 25 0;
#X connect 3 0 1 0;
#X connect 4 0 6 1;
#X connect 4 0 6 0;
#X connect 5 0 6 0;
#X connect 5 0 6 1;
#X connect 7 0 5 1;
#X connect 8 0 4 1;
#X connect 9 0 8 0;
#X connect 10 0 7 0;
#X connect 11 0 12 0;
#X connect 11 0 10 0;
#X connect 12 0 9 0;
#X connect 13 0 3 1;
#X connect 14 0 13 0;
#X connect 15 0 14 0;
#X connect 16 0 2 0;
#X connect 17 0 18 0;
#X connect 18 0 16 0;
#X connect 25 0 3 0;
#X connect 25 1 26 0;
#X connect 26 0 3 0;
