#N canvas 814 79 801 751 12;
#X obj 45 222 tgl 25 0 empty empty empty 0 -6 0 8 -228856 -1 -1 0 1
;
#X msg 158 185 loop \$1;
#X obj 158 163 tgl 15 0 empty empty empty 0 -6 0 8 -228856 -1 -1 0
1;
#X text 523 97 1;
#X text 516 210 -1;
#X obj 539 104 cnv 15 168 118 empty empty empty 20 12 0 14 -233017
-66577 0;
#X obj 140 96 tgl 15 0 empty empty empty 0 -6 0 8 -228856 -1 -1 0 1
;
#N canvas 1 80 450 300 (subpatch) 0;
#X array \$0-array 132300 float 0;
#X coords 0 1 132299 -1 170 120 1 0 0;
#X restore 538 103 graph;
#X obj 471 479 array size \$0-array;
#X obj 336 199 s \$0-array;
#X msg 336 169 const 0;
#X text 394 169 clear delay;
#X obj 471 299 loadbang;
#X floatatom 328 353 5 1.45 3000 0 - - -;
#X floatatom 471 355 5 1 100 0 - - -;
#X text 516 354 set delay size in ms;
#X obj 247 144 osc~;
#X msg 471 328 3000;
#X msg 328 278 500;
#X obj 303 652 out~;
#X text 368 353 <=;
#X text 387 353 delay time in ms, f 5;
#X obj 45 134 loadbang;
#X obj 233 374 phasor~;
#X obj 233 321 /;
#X msg 233 297 1000 \$1;
#X obj 45 276 == 0;
#X obj 45 370 + 1;
#X obj 303 608 else/tabplayer~ \$0-array;
#X msg 140 119 continue \$1;
#X obj 247 82 else/rampnoise~ 1;
#X obj 247 114 else/rescale~ 200 400;
#X obj 138 386 else/sh~;
#X obj 68 311 sel 1;
#X obj 471 391 else/ms2samps;
#X obj 328 463 else/ms2samps;
#X obj 328 491 * -1;
#X obj 303 540 +~ 0;
#X obj 233 451 else/wrap2~;
#X obj 303 570 else/wrap2~;
#X obj 233 399 *~;
#X obj 233 429 +~;
#X obj 73 436 else/xselect~ 2;
#X obj 138 241 else/tabwriter~ \$0-array -loop 1 -continue 1, f 16
;
#X connect 0 0 26 0;
#X connect 0 0 23 1;
#X connect 0 0 43 0;
#X connect 1 0 43 0;
#X connect 2 0 1 0;
#X connect 6 0 29 0;
#X connect 10 0 9 0;
#X connect 12 0 17 0;
#X connect 12 0 18 0;
#X connect 13 0 35 0;
#X connect 14 0 34 0;
#X connect 16 0 43 1;
#X connect 17 0 14 0;
#X connect 17 0 25 0;
#X connect 18 0 13 0;
#X connect 22 0 0 0;
#X connect 23 0 40 0;
#X connect 24 0 23 0;
#X connect 25 0 24 0;
#X connect 26 0 27 0;
#X connect 26 0 33 0;
#X connect 27 0 42 0;
#X connect 28 0 19 0;
#X connect 29 0 43 0;
#X connect 30 0 31 0;
#X connect 31 0 16 0;
#X connect 32 0 41 1;
#X connect 33 0 32 0;
#X connect 34 0 8 0;
#X connect 34 0 38 2;
#X connect 34 0 39 2;
#X connect 34 0 40 1;
#X connect 35 0 36 0;
#X connect 36 0 37 1;
#X connect 37 0 39 0;
#X connect 38 0 42 1;
#X connect 39 0 28 0;
#X connect 40 0 41 0;
#X connect 41 0 38 0;
#X connect 42 0 37 0;
#X connect 43 0 32 0;
#X connect 43 0 42 0;
