#N canvas 638 329 450 300 10;
#X obj 108 133 realtime;
#X obj 108 109 t b b;
#X obj 198 133 realtime;
#X obj 198 109 t b b b;
#X obj 108 160 print metro;
#X obj 198 160 print delay;
#X obj 108 83 metro 0.5;
#X obj 112 60 tgl 15 0 empty empty empty 17 7 0 10 -262144 -1 -1 0
1;
#X obj 198 84 delay 0.5;
#X obj 203 61 bng 15 250 50 0 empty empty empty 17 7 0 10 -262144 -1
-1;
#X msg 172 32 1;
#X connect 0 0 4 0;
#X connect 1 0 0 0;
#X connect 1 1 0 1;
#X connect 2 0 5 0;
#X connect 3 0 2 0;
#X connect 3 1 2 1;
#X connect 3 2 8 0;
#X connect 6 0 1 0;
#X connect 7 0 6 0;
#X connect 8 0 3 0;
#X connect 9 0 8 0;
#X connect 10 0 7 0;
#X connect 10 0 9 0;
