#N canvas 0 22 1093 692 10;
#X obj 202 356 +~;
#X obj 217 329 *~;
#X floatatom 216 277 5 0 2000 1 delaytime - -;
#X floatatom 399 254 5 0 100 1 feedback - -;
#X obj 399 274 / 100;
#X obj 398 319 line~;
#X obj 398 296 pack f 30;
#X obj 656 386 +~;
#X obj 671 358 *~;
#X floatatom 832 278 5 0 100 1 feedback - -;
#X obj 832 298 / 100;
#X obj 832 342 line~;
#X obj 832 319 pack f 30;
#X obj 671 302 line~;
#X obj 151 424 outlet~;
#X obj 137 200 inlet~;
#X obj 217 303 delread~ delay1 400;
#X obj 202 381 delwrite~ delay1 2000;
#X floatatom 670 253 5 0 2000 1 delaytime - -;
#X obj 671 322 vd~ delay2;
#X obj 656 413 delwrite~ delay2 2000;
#X obj 557 207 inlet~;
#X obj 581 454 outlet~;
#X text 212 157 This delay effect does not change pitch \, but make
clicks noises everytime you change delaytime;
#X text 646 153 This delay effect is click free \, but changes pitch
when you change delaytime;
#X text 333 542 How do you make a delay effect that does not make clicknoises
and does not change pitch?;
#X obj 671 282 pack f 50;
#X connect 0 0 17 0;
#X connect 1 0 0 1;
#X connect 1 0 14 0;
#X connect 2 0 16 0;
#X connect 3 0 4 0;
#X connect 4 0 6 0;
#X connect 5 0 1 1;
#X connect 6 0 5 0;
#X connect 7 0 20 0;
#X connect 8 0 7 1;
#X connect 8 0 22 0;
#X connect 9 0 10 0;
#X connect 10 0 12 0;
#X connect 11 0 8 1;
#X connect 12 0 11 0;
#X connect 13 0 19 0;
#X connect 15 0 0 0;
#X connect 16 0 1 0;
#X connect 18 0 26 0;
#X connect 19 0 8 0;
#X connect 21 0 7 0;
#X connect 26 0 13 0;
