#N canvas 68 142 772 529 10;
#X obj 138 82 vsl 15 128 0 127 0 0 t1_1 rt1_1 empty 0 -8 32 8 -262144
-1 -1 12700 1;
#X obj 161 82 vsl 15 128 0 127 0 0 t1_2 rt1_2 empty 0 -8 32 8 -262144
-1 -1 12700 1;
#N canvas 0 0 450 300 graph1 0;
#X array channel1 8 float 1;
#A 0 127 127 127 0 127 127 127 127;
#X coords 0 128 7 0 200 140 1;
#X restore 482 16 graph;
#N canvas 0 22 450 300 graph1 0;
#X array channel2 8 float 1;
#A 0 0 0 0 0 0 0 0 0;
#X coords 0 128 7 0 200 140 1;
#X restore 483 169 graph;
#X obj 193 82 vsl 15 128 0 127 0 0 t1_3 rt1_3 empty 0 -8 32 8 -262144
-1 -1 0 1;
#X obj 216 82 vsl 15 128 0 127 0 0 t1_4 rt1_4 empty 0 -8 32 8 -262144
-1 -1 12700 1;
#X obj 255 82 vsl 15 128 0 127 0 0 t1_5 rt1_5 empty 0 -8 32 8 -262144
-1 -1 12700 1;
#X obj 278 82 vsl 15 128 0 127 0 0 t1_6 rt1_6 empty 0 -8 32 8 -262144
-1 -1 12700 1;
#X obj 310 82 vsl 15 128 0 127 0 0 t1_7 rt1_7 empty 0 -8 32 8 -262144
-1 -1 12700 1;
#X obj 333 82 vsl 15 128 0 127 0 0 t1_8 rt1_8 empty 0 -8 32 8 -262144
-1 -1 12700 1;
#X msg 44 135 1;
#X msg 44 160 2;
#X obj 44 195 s channel;
#N canvas 15 22 757 531 ugly 0;
#X obj 11 11 r t1_1;
#X obj 11 33 bng 15 250 50 0 empty empty empty 0 -6 32 8 -262144 -1
-1;
#X obj 92 32 bng 15 250 50 0 empty empty empty 0 -6 32 8 -262144 -1
-1;
#X obj 92 10 r t1_2;
#X obj 171 32 bng 15 250 50 0 empty empty empty 0 -6 32 8 -262144 -1
-1;
#X obj 252 31 bng 15 250 50 0 empty empty empty 0 -6 32 8 -262144 -1
-1;
#X obj 171 10 r t1_3;
#X obj 252 9 r t1_4;
#X obj 11 99 bng 15 250 50 0 empty empty empty 0 -6 32 8 -262144 -1
-1;
#X obj 92 98 bng 15 250 50 0 empty empty empty 0 -6 32 8 -262144 -1
-1;
#X obj 171 98 bng 15 250 50 0 empty empty empty 0 -6 32 8 -262144 -1
-1;
#X obj 252 97 bng 15 250 50 0 empty empty empty 0 -6 32 8 -262144 -1
-1;
#X obj 11 77 r t1_5;
#X obj 92 76 r t1_6;
#X obj 171 76 r t1_7;
#X obj 252 75 r t1_8;
#X obj 318 161 r channel;
#X obj 132 380 print;
#X msg 58 369 \; \$1 \$2 \$3;
#X obj 132 348 pack s f f;
#X msg 132 311 channel1 \$1 \$2;
#X msg 242 311 channel2 \$1 \$2;
#X msg 132 257 \$3 \$1 \$2;
#X obj 132 281 route 1 2;
#X obj 11 51 pack 0 f f;
#X obj 92 50 pack 1 f f;
#X obj 171 50 pack 2 f f;
#X obj 252 49 pack 3 f f;
#X obj 11 117 pack 4 f f;
#X obj 92 116 pack 5 f f;
#X obj 171 116 pack 6 f f;
#X obj 252 115 pack 7 f f;
#X connect 0 0 1 0;
#X connect 0 0 24 1;
#X connect 1 0 24 0;
#X connect 2 0 25 0;
#X connect 3 0 2 0;
#X connect 3 0 25 1;
#X connect 4 0 26 0;
#X connect 5 0 27 0;
#X connect 6 0 4 0;
#X connect 6 0 26 1;
#X connect 7 0 5 0;
#X connect 7 0 27 1;
#X connect 8 0 28 0;
#X connect 9 0 29 0;
#X connect 10 0 30 0;
#X connect 11 0 31 0;
#X connect 12 0 8 0;
#X connect 12 0 28 1;
#X connect 13 0 9 0;
#X connect 13 0 29 1;
#X connect 14 0 10 0;
#X connect 14 0 30 1;
#X connect 15 0 11 0;
#X connect 15 0 31 1;
#X connect 16 0 24 2;
#X connect 16 0 25 2;
#X connect 16 0 26 2;
#X connect 16 0 27 2;
#X connect 16 0 28 2;
#X connect 16 0 29 2;
#X connect 16 0 30 2;
#X connect 16 0 31 2;
#X connect 19 0 17 0;
#X connect 19 0 18 0;
#X connect 20 0 19 0;
#X connect 21 0 19 0;
#X connect 22 0 23 0;
#X connect 23 0 20 0;
#X connect 23 1 21 0;
#X connect 24 0 22 0;
#X connect 25 0 22 0;
#X connect 26 0 22 0;
#X connect 27 0 22 0;
#X connect 28 0 22 0;
#X connect 29 0 22 0;
#X connect 30 0 22 0;
#X connect 31 0 22 0;
#X restore 139 28 pd ugly;
#N canvas 0 55 539 328 really_ugly 1;
#X obj 2 5 r channel;
#X obj 2 167 s rt1_1;
#X obj 2 27 route 1 2;
#N canvas 317 22 289 519 load_em_up1 0;
#X obj 12 6 inlet;
#X obj 12 77 float;
#X obj 54 77 + 1;
#X floatatom 12 101 5 0 0 0 - - -;
#X msg 55 117 0;
#X obj 12 55 until;
#X obj 54 98 select 8;
#X msg 12 32 8;
#X obj 12 139 tabread channel1;
#X obj 12 163 pack;
#X msg 12 185 \$2 \$1;
#X obj 12 206 route 0 1 2 3 4 5 6 7;
#X obj 12 229 outlet;
#X obj 29 249 outlet;
#X obj 47 273 outlet;
#X obj 64 295 outlet;
#X obj 80 316 outlet;
#X obj 100 338 outlet;
#X obj 117 362 outlet;
#X obj 136 390 outlet;
#X connect 0 0 7 0;
#X connect 1 0 2 0;
#X connect 1 0 3 0;
#X connect 2 0 1 1;
#X connect 2 0 6 0;
#X connect 3 0 8 0;
#X connect 3 0 9 1;
#X connect 4 0 1 1;
#X connect 5 0 1 0;
#X connect 6 0 4 0;
#X connect 7 0 5 0;
#X connect 8 0 9 0;
#X connect 9 0 10 0;
#X connect 10 0 11 0;
#X connect 11 0 12 0;
#X connect 11 1 13 0;
#X connect 11 2 14 0;
#X connect 11 3 15 0;
#X connect 11 4 16 0;
#X connect 11 5 17 0;
#X connect 11 6 18 0;
#X connect 11 7 19 0;
#X restore 2 121 pd load_em_up1;
#X obj 58 167 s rt1_2;
#X obj 115 167 s rt1_3;
#X obj 172 167 s rt1_4;
#X obj 227 167 s rt1_5;
#X obj 283 167 s rt1_6;
#X obj 340 167 s rt1_7;
#X obj 397 167 s rt1_8;
#N canvas 2 22 297 527 load_em_up2 0;
#X obj 12 6 inlet;
#X obj 12 77 float;
#X obj 54 77 + 1;
#X floatatom 12 101 5 0 0 0 - - -;
#X msg 55 117 0;
#X obj 12 55 until;
#X obj 54 98 select 8;
#X msg 12 32 8;
#X obj 12 163 pack;
#X msg 12 185 \$2 \$1;
#X obj 12 206 route 0 1 2 3 4 5 6 7;
#X obj 12 229 outlet;
#X obj 29 249 outlet;
#X obj 47 273 outlet;
#X obj 64 295 outlet;
#X obj 80 316 outlet;
#X obj 100 338 outlet;
#X obj 117 362 outlet;
#X obj 136 390 outlet;
#X obj 12 139 tabread channel2;
#X connect 0 0 7 0;
#X connect 1 0 2 0;
#X connect 1 0 3 0;
#X connect 2 0 1 1;
#X connect 2 0 6 0;
#X connect 3 0 19 0;
#X connect 3 0 8 1;
#X connect 4 0 1 1;
#X connect 5 0 1 0;
#X connect 6 0 4 0;
#X connect 7 0 5 0;
#X connect 8 0 9 0;
#X connect 9 0 10 0;
#X connect 10 0 11 0;
#X connect 10 1 12 0;
#X connect 10 2 13 0;
#X connect 10 3 14 0;
#X connect 10 4 15 0;
#X connect 10 5 16 0;
#X connect 10 6 17 0;
#X connect 10 7 18 0;
#X connect 19 0 8 0;
#X restore 260 53 pd load_em_up2;
#X connect 0 0 2 0;
#X connect 2 0 3 0;
#X connect 2 1 11 0;
#X connect 3 0 1 0;
#X connect 3 1 4 0;
#X connect 3 2 5 0;
#X connect 3 3 6 0;
#X connect 3 4 7 0;
#X connect 3 5 8 0;
#X connect 3 6 9 0;
#X connect 3 7 10 0;
#X connect 11 0 1 0;
#X connect 11 1 4 0;
#X connect 11 2 5 0;
#X connect 11 3 6 0;
#X connect 11 4 7 0;
#X connect 11 5 8 0;
#X connect 11 6 9 0;
#X connect 11 7 10 0;
#X restore 202 28 pd really_ugly;
#X connect 10 0 12 0;
#X connect 11 0 12 0;
