#N canvas 527 291 646 501 10;
#X obj 389 96 gemwin;
#X msg 438 65 0 \, destroy;
#X obj 37 372 rotateXYZ 0 0 0;
#X obj 50 463 world_light;
#X obj 37 273 t a b;
#X obj 64 297 f;
#X obj 109 291 + 1;
#X obj 109 313 mod 360;
#X obj 37 122 gemframebuffer;
#X obj 380 316 gemhead;
#X obj 380 338 pix_texture;
#X obj 208 122 gemframebuffer;
#X obj 37 144 translateXYZ 0 0 -4;
#X obj 208 144 translateXYZ 0 0 -4;
#X obj 240 316 gemhead;
#X obj 240 338 pix_texture;
#X msg 383 38 dimen 800 400 \, create \, 1 \, lighting 1;
#X obj 240 360 translateXYZ -4 0 0;
#X obj 380 360 translateXYZ 4 0 0;
#X obj 240 389 square 4;
#X obj 380 389 square 4;
#X obj 37 394 teapot 1.5;
#X text 256 38 click here to start:;
#X obj 37 70 gemhead 50;
#X obj 50 441 gemhead 60;
#X obj 438 166 hsl 128 15 0 360 0 0 empty empty angle_between_textures
-2 -8 0 10 -262144 -1 -1 0 1;
#X floatatom 435 196 5 0 0 0 - - -;
#X obj 37 216 rotateXYZ 0 0 0;
#X obj 208 214 rotateXYZ 0 0 0;
#X text 199 290 original;
#X text 349 288 rotated;
#X connect 1 0 0 0;
#X connect 2 0 21 0;
#X connect 4 0 2 0;
#X connect 4 1 5 0;
#X connect 5 0 6 0;
#X connect 5 0 2 1;
#X connect 5 0 2 2;
#X connect 5 0 2 3;
#X connect 6 0 7 0;
#X connect 7 0 5 1;
#X connect 8 0 12 0;
#X connect 8 1 15 1;
#X connect 9 0 10 0;
#X connect 10 0 18 0;
#X connect 11 0 13 0;
#X connect 11 1 10 1;
#X connect 12 0 27 0;
#X connect 13 0 28 0;
#X connect 14 0 15 0;
#X connect 15 0 17 0;
#X connect 16 0 0 0;
#X connect 17 0 19 0;
#X connect 18 0 20 0;
#X connect 23 0 8 0;
#X connect 23 0 11 0;
#X connect 24 0 3 0;
#X connect 25 0 26 0;
#X connect 25 0 28 2;
#X connect 27 0 4 0;
#X connect 28 0 4 0;
