#N canvas 0 0 450 300 10;
#X obj 20 57 +;
#X msg 20 20 1;
#X msg 50 20 2;
#X msg 80 20 3;
#X obj 52 57 * 10;
#X floatatom 20 81 8 0 0 0 - - -;
#X connect 0 0 4 0;
#X connect 0 0 5 0;
#X connect 1 0 0 0;
#X connect 2 0 0 0;
#X connect 3 0 0 0;
#X connect 4 0 0 1;
