#N canvas 0 0 450 425 10;
#X obj 104 213 -;
#X msg 104 106 1;
#X msg 149 105 0;
#X obj 104 237 sel -1 1;
#X obj 104 261 t b b;
#X obj 144 262 t b b;
#X obj 104 144 t f f b;
#X obj 104 287 outlet;
#X obj 167 287 outlet;
#X obj 104 81 inlet;
#X obj 149 81 inlet;
#X msg 162 143 42;
#X obj 119 179 f 42;
#X text 97 357 Martin Schied \, 2009;
#X connect 0 0 3 0;
#X connect 1 0 6 0;
#X connect 2 0 6 0;
#X connect 3 0 4 0;
#X connect 3 1 5 0;
#X connect 4 0 7 0;
#X connect 4 1 11 0;
#X connect 5 0 8 0;
#X connect 5 1 11 0;
#X connect 6 0 0 0;
#X connect 6 1 12 1;
#X connect 6 2 12 0;
#X connect 9 0 1 0;
#X connect 10 0 2 0;
#X connect 11 0 12 1;
#X connect 12 0 0 1;
