#N canvas 417 182 450 300 10;
#X obj 54 80 table \$0-name;
#X msg 238 196 \; \$2 resize \$1;
#X floatatom 238 136 5 0 0 0 - - -;
#X obj 289 137 symbol \$0-name;
#X msg 289 112 bang;
#X obj 238 168 pack 0 s;
#X obj 289 88 loadbang;
#X text 142 133 resize table;
#X connect 2 0 5 0;
#X connect 3 0 5 1;
#X connect 4 0 3 0;
#X connect 5 0 1 0;
#X connect 6 0 4 0;
