#N canvas 113 168 548 391 10;
#N canvas 0 0 450 300 (subpatch) 0;
#X array \$0-local_table 1027 float 0;
#X coords 0 1 1026 -1 200 140 1;
#X restore 268 81 graph;
#X obj 38 197 s \$0-local_table;
#X msg 38 171 sinesum 1024 1;
#X msg 40 93 \; \$0-local_table sinesum 1024 1;
#N canvas 691 179 450 300 \$0-abc 1;
#X restore 40 323 pd \$0-abc;
#X obj 40 292 s pd-\$0-abc;
#X msg 40 260 clear;
#X text 133 291 this works in current Pd versions.;
#X msg 95 259 text 100 100 delete me;
#X connect 2 0 1 0;
#X connect 6 0 5 0;
#X connect 8 0 5 0;
