#N canvas 0 57 1004 682 12;
#N canvas 126 124 503 354 guts 0;
#X obj 137 42 route click;
#N canvas 0 0 500 232 init 0;
#X obj 224 122 pointer;
#X obj 187 12 loadbang;
#X obj 224 72 f \$0;
#X obj -93 175 outlet;
#X obj 187 37 t b b;
#X msg -93 125 666 888 333 666;
#X obj -93 150 append \$0-ds-tgl-template color s1 s2 bg;
#X msg 224 97 traverse \$1-ds-tgl-abs \, bang;
#X connect 0 0 6 4;
#X connect 1 0 4 0;
#X connect 2 0 7 0;
#X connect 4 0 5 0;
#X connect 4 1 2 0;
#X connect 5 0 6 0;
#X connect 6 0 3 0;
#X connect 7 0 0 0;
#X restore 430 236 pd init;
#X obj 137 67 b;
#X obj 39 15 inlet;
#N canvas 338 260 555 349 tgl-template 0;
#X obj 16 59 outlet;
#X obj 76 267 filledpolygon bg bg 1 3 3 3 38 37 38 37 3;
#X text 58 312 x;
#X obj 75 312 drawpolygon color 2 4 4 36 36 20 20 4 36 36 4;
#X obj 16 15 struct \$0-ds-tgl-template float s1 float s2 float bg
float color;
#X obj 76 157 filledpolygon s1 s1 1 0 0 40 0 39 0 39 1 38 1 38 2 37
2 37 3 3 3 3 37 2 37 2 38 1 38 1 39 0 39 0 40 0 0;
#X obj 76 217 filledpolygon s2 s2 1 0 40 40 40 40 0 40 1 39 1 39 2
38 2 38 3 37 3 37 37 3 37 3 38 2 38 2 39 1 39 1 40 0 40;
#X obj 76 109 filledpolygon 0 0 1 40 0 8 0 8 1 0 1 0 39 8 39 8 40 40
40 40 0 40 40 0 40 0 0 40 0;
#X connect 4 0 0 0;
#X restore 137 17 pd tgl-template;
#X obj 137 139 sel 0;
#X obj 174 169 b;
#X obj 31 268 outlet;
#X msg 31 200 0;
#X msg 137 207 666 666 888 333;
#X msg 280 206 0 444 333 888;
#X obj 171 108 == 0;
#X obj 137 108 f 1;
#X obj 39 42 route set;
#X obj 39 67 t b a b;
#X msg 92 109 0;
#X msg 39 109 1;
#N canvas 317 86 654 682 get-args 0;
#X obj 11 13 loadbang;
#X obj 268 158 sel char;
#X obj 268 118 symbol \$1-t;
#X obj 11 118 symbol \$2-t;
#X msg 110 87 2;
#X obj 11 38 t b b b b;
#X obj 174 247 f;
#X obj 216 247 + 1;
#X obj 174 205 b;
#X msg 371 88 1;
#X obj 371 118 makefilename $%d-t;
#X obj 110 118 makefilename $%d-t;
#X msg 329 186 0;
#X obj 268 211 spigot 1;
#X obj 208 205 t b b;
#X obj 174 272 sel 2 3;
#X obj 268 236 f \$0;
#X obj 174 297 pack \$1 \$0;
#X msg 174 320 \; \$2-ds-tgl-abs donecanvasdialog 1 -1 2 0 0 40 40
\$1 \$1 0 0;
#X msg 268 258 \; \$1-ds-tgl-abs donecanvasdialog 1 -1 2 0 0 40 40
40 40 0 0;
#X obj 200 374 pack \$1 \$2 \$0;
#X msg 200 400 \; \$3-ds-tgl-abs donecanvasdialog 1 -1 2 0 0 40 40
\$1 \$2 0 0;
#X connect 0 0 5 0;
#X connect 1 0 8 0;
#X connect 1 0 13 0;
#X connect 1 1 12 0;
#X connect 1 1 14 0;
#X connect 2 0 1 0;
#X connect 3 0 1 0;
#X connect 4 0 11 0;
#X connect 5 0 3 0;
#X connect 5 1 4 0;
#X connect 5 2 2 0;
#X connect 5 3 9 0;
#X connect 6 0 7 0;
#X connect 6 0 15 0;
#X connect 7 0 6 1;
#X connect 8 0 6 0;
#X connect 9 0 10 0;
#X connect 10 0 1 1;
#X connect 11 0 1 1;
#X connect 12 0 13 1;
#X connect 13 0 16 0;
#X connect 14 0 6 0;
#X connect 14 1 6 0;
#X connect 15 0 17 0;
#X connect 15 1 20 0;
#X connect 16 0 19 0;
#X connect 17 0 18 0;
#X connect 20 0 21 0;
#X restore 288 19 pd get-args;
#X obj 31 239 spigot 1;
#X obj 137 261 set \$0-ds-tgl-template color bg s1 s2;
#X text 324 325 2009 Jonathan Wilkes;
#X connect 0 0 2 0;
#X connect 1 0 19 4;
#X connect 2 0 12 0;
#X connect 3 0 13 0;
#X connect 4 0 0 0;
#X connect 5 0 9 0;
#X connect 5 0 8 0;
#X connect 5 1 6 0;
#X connect 5 1 18 0;
#X connect 6 0 10 0;
#X connect 8 0 18 0;
#X connect 9 0 19 0;
#X connect 10 0 19 0;
#X connect 11 0 12 1;
#X connect 12 0 11 0;
#X connect 12 0 5 0;
#X connect 13 0 14 0;
#X connect 13 1 12 0;
#X connect 14 0 16 0;
#X connect 14 1 12 0;
#X connect 14 2 15 0;
#X connect 15 0 18 1;
#X connect 16 0 18 1;
#X connect 18 0 7 0;
#X restore 561 27 pd guts;
#X obj 561 3 inlet;
#X obj 561 51 outlet;
#X obj 342 3 namecanvas \$0-ds-tgl-abs;
#X connect 0 0 2 0;
#X connect 1 0 0 0;
#X coords 0 0 40 40 40 40 2 0 0;
