#N canvas 168 362 489 282 10;
#X obj 22 204 dac~;
#N canvas 83 294 610 540 string 0;
#X obj 152 254 mtof;
#X obj 152 276 swap 1;
#X obj 152 303 /;
#X obj 152 210 * 2;
#X obj 201 275 *~;
#X obj 149 148 t b f;
#X obj 152 404 outlet~;
#X obj 217 250 ead~ 1 12;
#X obj 152 326 * 1000;
#X obj 201 229 sig~ 1;
#X obj 152 232 + 24;
#X obj 202 326 *~ 0.9;
#X obj 211 405 outlet~ fb;
#X obj 294 224 inlet~ fb;
#X obj 152 352 delread~ \$0-string;
#X obj 254 325 delwrite~ \$0-string 600;
#X obj 149 109 inlet;
#X connect 0 0 1 0;
#X connect 1 0 2 0;
#X connect 1 1 2 1;
#X connect 2 0 8 0;
#X connect 3 0 10 0;
#X connect 4 0 11 0;
#X connect 4 0 15 0;
#X connect 5 0 7 0;
#X connect 5 1 3 0;
#X connect 7 0 4 1;
#X connect 8 0 14 0;
#X connect 9 0 4 0;
#X connect 10 0 0 0;
#X connect 11 0 6 0;
#X connect 13 0 15 0;
#X connect 14 0 6 0;
#X connect 14 0 12 0;
#X connect 16 0 5 0;
#X restore 25 138 pd string;
#X obj 25 64 hradio 15 1 0 8 empty empty empty 0 -6 0 8 -262144 -1
-1 2;
#N canvas 0 0 375 213 feedback 0;
#X obj 90 26 inlet~;
#X obj 91 150 outlet~;
#X obj 90 103 *~;
#X obj 142 75 line~;
#X msg 142 52 \$1 50;
#X obj 142 26 inlet;
#X obj 91 127 z~;
#X connect 0 0 2 0;
#X connect 2 0 6 0;
#X connect 3 0 2 1;
#X connect 4 0 3 0;
#X connect 5 0 4 0;
#X connect 6 0 1 0;
#X restore 83 113 pd feedback;
#X obj 179 91 hsl 128 15 0.7 0.987 0 1 empty empty feedback 35 7 1
8 -260818 -1 -1 11000 1;
#X obj 82 163 s~ \$0-noloop;
#X obj 84 89 r~ \$0-noloop;
#X text 19 12 The right way. Pd does not search for DSP loops deeply
into subpatches. So the audio send and return must be outside both
subpatches.;
#X obj 25 168 *~ 0.75;
#X connect 1 0 8 0;
#X connect 1 1 5 0;
#X connect 2 0 1 0;
#X connect 3 0 1 1;
#X connect 4 0 3 1;
#X connect 6 0 3 0;
#X connect 8 0 0 0;
#X connect 8 0 0 1;
