#N canvas 0 23 796 561 10;
#X obj 217 172 canvasargs;
#X obj 220 129 list;
#X msg 216 44 0;
#X obj 383 324 outlet;
#X obj 216 15 loadbang;
#X obj 382 290 oreceive;
#X obj 369 230 list split 1;
#X obj 461 275 print oreceive;
#X msg 219 70 $\$1-receiver second;
#X obj 216 290 r \$1;
#X connect 1 0 0 0;
#X connect 2 0 8 0;
#X connect 4 0 2 0;
#X connect 5 0 3 0;
#X connect 6 0 5 0;
#X connect 6 0 7 0;
#X connect 8 0 1 0;
#X connect 8 0 6 0;
#X connect 9 0 3 0;
