#N canvas 76 109 450 300 10;
#X obj 207 111 r 61-midi;
#X obj 310 111 r 62-midi;
#X obj 207 138 print midi-61;
#X obj 310 140 print midi-62;
#X obj 104 117 t b f;
#X floatatom 104 88 5 0 0;
#X msg 82 44 61;
#X msg 85 66 62;
#X msg 69 210 \; \$1-midi \$2;
#X msg 131 169 61 127;
#X obj 69 146 pack 0 127;
#X connect 0 0 2 0;
#X connect 1 0 3 0;
#X connect 4 0 10 0;
#X connect 4 1 10 1;
#X connect 5 0 4 0;
#X connect 6 0 10 0;
#X connect 7 0 10 0;
#X connect 9 0 8 0;
#X connect 10 0 8 0;
