#N canvas 462 219 449 364 10;
#X msg 47 128 44.1;
#X msg 47 146 32;
#X msg 47 110 48;
#N canvas 44 22 703 807 stuff 0;
#X obj 414 427 loadbang;
#X obj 413 500 s ldb;
#X msg 350 457 \; pd dsp 1;
#X obj 10 728 dac~;
#X obj 138 77 soundfiler;
#X obj 10 653 *~;
#X obj 259 688 line~;
#X obj 137 318 tgl 15 0 empty empty empty 17 7 0 10 -262144 -1 -1 1
1;
#X msg 166 399 0;
#X obj 196 317 +;
#X obj 10 434 pack f f;
#X obj 10 452 t l b;
#X msg 40 492 0.9799;
#X msg 165 454 set \$1;
#X msg 11 385 0;
#X msg 12 341 set \$1;
#X msg 177 134 range 1 \$1;
#X obj 197 280 t b f;
#X msg 9 263 label \$1;
#X obj 339 141 -;
#X obj 344 123 t b f;
#X obj 339 267 abs;
#X msg 258 342 set \$1;
#X obj 340 195 / 44.1;
#X obj 139 227 / 44.1;
#X obj 344 177 t b f;
#X obj 196 556 snapshot~;
#X obj 10 518 vline~;
#X obj 196 538 metro 50;
#X obj 196 521 tgl 15 0 empty empty empty 0 -6 0 8 -262144 -1 -1 1
1;
#X obj 137 335 metro 500;
#X obj 148 115 t f f;
#X msg 99 441 stop;
#X obj 339 249 * 1;
#X obj 344 231 t b f;
#X obj 137 353 t b b;
#X obj 138 41 openpanel;
#X obj 137 300 r ldb;
#X obj 196 503 r ldb;
#X obj 197 251 inlet;
#X obj 25 23 trigger bang bang;
#X obj 259 670 pack 0 10;
#X obj 258 593 r \$0-volume;
#X obj 92 574 r \$0-panning;
#X obj 27 617 * -1;
#X obj 27 635 + 1;
#X obj 344 213 r \$0-speed;
#X obj 184 153 s \$0-in_in;
#X obj 168 190 s \$0-playhead;
#X obj 344 105 r \$0-in_out;
#X obj 196 574 s \$0-playhead;
#X obj 12 323 r \$0-out_out;
#X obj 165 435 r \$0-in_out;
#N canvas 0 22 458 308 (subpatch) 0;
#X array \$0-sample 290820 float 0;
#X coords 0 1 290819 -1 200 140 1;
#X restore 378 275 graph;
#X obj 25 5 r \$0-loadfile;
#X obj 8 189 splitfilename;
#X obj 9 281 s \$0-sample_display;
#X obj 336 636 * -1;
#X obj 259 650 spigot 1;
#X obj 337 550 r \$0-mute_out;
#X obj 336 617 - 1;
#X msg 273 611 set \$1;
#X msg 274 631 0.47619;
#X obj 345 582 sel 0 1;
#X msg 382 615 0;
#X obj 175 208 r \$0-rate;
#X obj 344 159 r \$0-rate;
#X obj 340 87 r \$0-out_out;
#X msg 25 42 \; \$0-in_out 1;
#X msg 426 456 \; \$0-speed_in 1;
#X msg 528 456 \; \$0-panning_in 0.5;
#X msg 253 481 label \$1;
#X obj 253 499 s \$0-play_stop;
#X obj 250 386 r \$0-trigger_ps;
#X obj 250 406 alternate;
#X msg 254 429 stop;
#X msg 309 430 play;
#X obj 253 463 symbol;
#X obj 264 306 r \$0-retrigger;
#X obj 93 690 line~;
#X obj 93 672 pack 0 10;
#X obj 42 710 *~;
#X obj 26 690 line~;
#X obj 26 672 pack 0 10;
#X obj 10 709 *~;
#X obj 444 626 r \$0-dummy_out;
#X obj 444 662 print what;
#X msg 444 644 function should be here?;
#X obj 177 172 s \$0-out_in;
#X msg 138 60 read -resize \$1 \$0-sample;
#X obj 10 556 tabread4~ \$0-sample;
#X connect 0 0 69 0;
#X connect 0 0 1 0;
#X connect 0 0 2 0;
#X connect 0 0 70 0;
#X connect 4 0 24 0;
#X connect 4 0 31 0;
#X connect 5 0 81 0;
#X connect 5 0 84 0;
#X connect 6 0 5 1;
#X connect 7 0 30 0;
#X connect 8 0 10 1;
#X connect 9 0 30 1;
#X connect 10 0 11 0;
#X connect 11 0 27 0;
#X connect 11 1 12 0;
#X connect 12 0 27 0;
#X connect 13 0 12 0;
#X connect 14 0 10 0;
#X connect 15 0 14 0;
#X connect 16 0 47 0;
#X connect 16 0 48 0;
#X connect 16 0 88 0;
#X connect 17 0 9 0;
#X connect 17 1 9 1;
#X connect 18 0 56 0;
#X connect 19 0 23 0;
#X connect 20 0 19 0;
#X connect 20 1 19 1;
#X connect 21 0 22 0;
#X connect 21 0 9 0;
#X connect 22 0 8 0;
#X connect 23 0 33 0;
#X connect 24 0 9 0;
#X connect 25 0 23 0;
#X connect 25 1 23 1;
#X connect 26 0 50 0;
#X connect 27 0 26 0;
#X connect 27 0 90 0;
#X connect 28 0 26 0;
#X connect 29 0 28 0;
#X connect 30 0 35 0;
#X connect 31 0 88 0;
#X connect 31 1 16 0;
#X connect 32 0 27 0;
#X connect 33 0 21 0;
#X connect 34 0 33 0;
#X connect 34 1 33 1;
#X connect 35 0 14 0;
#X connect 35 1 8 0;
#X connect 36 0 89 0;
#X connect 36 0 55 0;
#X connect 37 0 7 0;
#X connect 38 0 29 0;
#X connect 39 0 17 0;
#X connect 40 0 68 0;
#X connect 40 1 36 0;
#X connect 41 0 6 0;
#X connect 42 0 58 0;
#X connect 42 0 61 0;
#X connect 43 0 44 0;
#X connect 43 0 80 0;
#X connect 44 0 45 0;
#X connect 45 0 83 0;
#X connect 46 0 34 0;
#X connect 49 0 20 0;
#X connect 51 0 15 0;
#X connect 52 0 13 0;
#X connect 54 0 40 0;
#X connect 55 1 18 0;
#X connect 57 0 58 1;
#X connect 58 0 41 0;
#X connect 59 0 60 0;
#X connect 59 0 63 0;
#X connect 60 0 57 0;
#X connect 61 0 62 0;
#X connect 62 0 41 0;
#X connect 63 0 62 0;
#X connect 63 1 64 0;
#X connect 64 0 41 0;
#X connect 65 0 24 1;
#X connect 66 0 25 0;
#X connect 67 0 19 0;
#X connect 71 0 72 0;
#X connect 73 0 74 0;
#X connect 74 0 7 0;
#X connect 74 0 32 0;
#X connect 74 0 75 0;
#X connect 74 1 7 0;
#X connect 74 1 76 0;
#X connect 75 0 77 0;
#X connect 76 0 77 0;
#X connect 77 0 71 0;
#X connect 78 0 30 0;
#X connect 79 0 81 1;
#X connect 80 0 79 0;
#X connect 81 0 3 1;
#X connect 82 0 84 1;
#X connect 83 0 82 0;
#X connect 84 0 3 0;
#X connect 85 0 87 0;
#X connect 87 0 86 0;
#X connect 89 0 4 0;
#X connect 90 0 5 0;
#X restore 12 55 pd stuff;
#X floatatom 13 39 5 0 1e+06 0 - - -;
#X text 14 23 Pause;
#X text 7 94 kHz Samplerate;
#X text 80 129 default;
#X obj 12 181 s \$0-rate;
#X obj -5 -83 cnv 15 373 53 empty empty empty 20 12 0 14 -262144 -66577
0;
#X obj 34 -58 hsl 200 12 1 0 0 0 \$0-out_out \$0-out_in empty -2 -6
0 8 -262144 -1 -1 0 1;
#X text 14 -72 IN;
#X text 7 -60 OUT;
#X obj 42 -82 cnv 15 165 11 empty \$0-sample_display ratter.aif 3 5
0 11 -224695 -66577 0;
#X obj 34 -46 hsl 200 12 1 0 0 0 \$0-nope \$0-playhead empty -2 -6
0 8 -99865 -262144 -1 19900 1;
#X obj 34 -34 hsl 200 12 2 0.1 0 0 \$0-speed \$0-speed_in empty -2
-6 0 8 -262144 -1 -1 0 1;
#X text 220 -35 x2;
#X text 132 -35 x1;
#X text 32 -35 x0.1;
#X obj 31 -82 bng 12 250 50 0 \$0-loadfile \$0-nooo empty 0 -6 0 8
-262144 -1 -1;
#X obj 236 -68 vsl 18 43 0 1 0 0 \$0-volume dummy empty 0 -8 0 8 -262144
-1 -1 0 1;
#X obj 239 -22 hsl 13 12 0 1 0 0 \$0-panning \$0-panning_in empty -2
-6 0 8 -262144 -1 -1 0 1;
#X obj 34 -70 hsl 200 12 1 0 0 0 \$0-in_out \$0-in_in empty -2 -6 0
8 -262144 -1 -1 0 1;
#X text 1 -84 load;
#X text -6 -35 speed;
#X obj 224 -22 tgl 12 0 \$0-dummy_out \$0-dummy_in empty 0 -6 0 8 -262144
-258305 -1 0 1;
#X text 7 -48 pos;
#X obj 242 -82 tgl 12 0 \$0-mute_out \$0-mute_in empty 0 -6 0 8 -262144
-258305 -1 0 1;
#X text 211 -85 mute;
#X obj 115 -22 bng 12 250 50 0 \$0-retrigger \$0-nooo empty 0 -6 0
8 -262144 -1 -1;
#X obj 31 -22 bng 12 250 50 0 \$0-trigger_ps \$0-nooo empty 0 -6 0
8 -262144 -1 -1;
#X obj -2 -22 cnv 15 32 11 empty \$0-play_stop play 3 5 0 12 -262144
-1 0;
#X text 49 -24 retrigger;
#X text 144 -24 easysampler;
#X connect 0 0 8 0;
#X connect 1 0 8 0;
#X connect 2 0 8 0;
#X connect 4 0 3 0;
#X coords 0 -1 1 1 264 95 1 -10 -98;
