#N canvas 448 247 445 306 10;
#X obj 60 7 noise~;
#X obj 160 144 print b;
#X obj 84 148 print a;
#X obj 190 17 t b b;
#X obj 245 18 t b b;
#N canvas 0 22 511 309 env1 0;
#X obj 110 68 env~;
#X obj 112 34 inlet~;
#X obj 105 135 outlet envVal;
#X obj 223 31 inlet bang;
#X obj 221 64 t b b;
#X obj 225 90 switch~ 1024 1 1;
#X connect 0 0 2 0;
#X connect 1 0 0 0;
#X connect 3 0 4 0;
#X connect 4 0 5 0;
#X connect 4 1 5 0;
#X restore 75 97 pd env1;
#N canvas 0 22 511 309 env2 0;
#X obj 110 68 env~;
#X obj 112 34 inlet~;
#X obj 105 135 outlet envVal;
#X obj 223 31 inlet bang;
#X obj 224 58 t b b;
#X obj 226 89 switch~ 1024 1 1;
#X connect 0 0 2 0;
#X connect 1 0 0 0;
#X connect 3 0 4 0;
#X connect 4 0 5 0;
#X connect 4 1 5 0;
#X restore 143 97 pd env2;
#X msg 189 -39 b2a;
#X msg 245 -10 a2b;
#X connect 0 0 5 0;
#X connect 0 0 6 0;
#X connect 3 0 5 1;
#X connect 3 1 6 1;
#X connect 4 0 6 1;
#X connect 4 1 5 1;
#X connect 5 0 2 0;
#X connect 6 0 1 0;
#X connect 7 0 3 0;
#X connect 8 0 4 0;
