#N canvas 289 54 991 651 10;
#X obj 450 705 pix_texture;
#X msg 513 676 rectangle 1;
#X obj 513 655 loadbang;
#X obj 423 -109 alpha;
#X obj 101 134 cnv 15 98 160 empty empty empty 20 12 0 14 -228856 -66577
0;
#X obj 180 148 vsl 15 63 -1 1 0 0 /ev/vid/\$1/shift/y /ev/vid/\$1/shift/y
y -10 3 0 10 -262130 -1 -1 0 1;
#X obj 108 168 hsl 63 15 -2 2 0 0 /ev/vid/\$1/shift/x /ev/vid/\$1/shift/x
x -2 -8 0 10 -262130 -1 -1 0 1;
#X obj 105 138 tgl 15 0 /ev/vid/\$1/flip /ev/vid/\$1/flip flip 17 7
0 10 -204786 -1 -1 0 1;
#X obj 108 199 hsl 63 15 0 200 0 0 /ev/vid/\$1/shade /ev/vid/\$1/shade
shade -2 -8 0 10 -261234 -1 -1 0 1;
#X text 128 151 shift;
#N canvas 622 133 450 300 storage 0;
#X obj 93 138 ev_sto /ev/vid/\$1/state;
#X obj 93 118 ev_sto /ev/vid/\$1/shift/y;
#X obj 93 98 ev_sto /ev/vid/\$1/shift/x;
#X obj 93 58 ev_sto /ev/vid/\$1/flip;
#X obj 93 178 ev_sto /ev/vid/\$1/lens_compensation;
#X obj 93 78 ev_sto /ev/vid/\$1/shade;
#X obj 93 198 ev_sto /ev/vid/\$1/filename;
#X obj 93 158 ev_sto /ev/vid/\$1/vfx;
#X restore 427 -258 pd storage;
#X obj 450 791 translateXYZ 0 0 0;
#X obj 423 -190 inlet;
#X text 423 -211 inlet 1: gemlist;
#X obj 590 -200 inlet;
#X obj 520 769 r /ev/vid/\$1/shift/y;
#X obj 485 749 r /ev/vid/\$1/shift/x;
#X obj 513 728 s /ev/vid/\$1/texture_id;
#X obj 105 220 tgl 15 1 /ev/vid/\$1/state /ev/vid/\$1/state on/off
17 7 0 10 -4034 -1 -1 1 1;
#X obj 468 -163 r /ev/vid/\$1/state;
#X obj 423 -141 spigot 1;
#X obj 450 847 rectangle 1 0.75;
#X obj 405 849 /;
#X obj 163 220 tgl 15 0 /ev/vid/\$1/vfx /ev/vid/\$1/vfx vfx 17 7 0
10 -260097 -1 -1 0 1;
#X obj 105 239 bng 15 250 50 0 /ev/vid/\$1/open /ev/vid/\$1/open open
17 7 0 10 -262130 -1 -1;
#X obj 105 256 bng 15 250 50 0 /ev/vid/\$1/start /ev/vid/\$1/start
start 17 7 0 10 -4034 -1 -1;
#N canvas 0 383 531 336 ctlin 0;
#X obj 199 303 routeOSC /x /y;
#X obj 129 -6 inlet;
#X obj 129 22 routeOSC /ev;
#X obj 129 48 routeOSC /vid;
#X obj 239 328 s /ev/vid/\$1/shift/y;
#X obj 199 349 s /ev/vid/\$1/shift/x;
#X obj 129 391 s /ev/vid/\$1/flip;
#X obj 129 72 routeOSC /\$1;
#X obj 234 276 s /ev/vid/\$1/lens_compensation;
#X obj 164 370 s /ev/vid/\$1/shade;
#X obj 304 205 t b;
#X obj 409 137 t b;
#X obj 409 160 s /ev/vid/\$1/stop;
#X obj 374 181 s /ev/vid/\$1/vfx;
#X obj 339 205 s /ev/vid/\$1/filename;
#X obj 304 228 s /ev/vid/\$1/start;
#X obj 269 228 t b;
#X obj 270 252 s /ev/vid/\$1/open;
#X obj 129 96 routeOSC /flip /shade /shift /lens_compensation /open
/start /filename /vfx /stop;
#X connect 0 0 5 0;
#X connect 0 1 4 0;
#X connect 1 0 2 0;
#X connect 2 0 3 0;
#X connect 3 0 7 0;
#X connect 7 0 18 0;
#X connect 10 0 15 0;
#X connect 11 0 12 0;
#X connect 16 0 17 0;
#X connect 18 0 6 0;
#X connect 18 1 9 0;
#X connect 18 2 0 0;
#X connect 18 3 8 0;
#X connect 18 4 16 0;
#X connect 18 5 10 0;
#X connect 18 6 14 0;
#X connect 18 7 13 0;
#X connect 18 8 11 0;
#X restore 590 -165 pd ctlin;
#X obj 157 256 bng 15 250 50 0 /ev/vid/\$1/stop /ev/vid/\$1/stop stop
17 7 0 10 -258113 -1 -1;
#X msg 144 553 0;
#X obj 129 493 realtime;
#X msg 210 468 1000 \$1;
#X obj 210 501 /;
#X obj 129 576 i;
#X obj 129 465 t b;
#X obj 129 527 / 33.3333;
#X msg 202 553 0;
#X msg 174 553 1;
#X obj 157 603 spigot 1;
#X obj 423 123 t b a;
#X obj 210 443 r /ev/vid/\$1/framerate;
#X obj 179 420 r /ev/vid/\$1/stop;
#X obj 66 420 r /ev/vid/\$1/start;
#X msg 376 636 end;
#X msg 230 636 length \$1;
#X msg 298 636 dimen \$2 \$3;
#X msg 157 636 elapsed \$1;
#X msg 405 824 \$3 \$2;
#X text 424 -228 creation argument: id;
#X obj 633 -200 r /ev/ctl;
#X obj 147 277 nbx 2 14 1 99 0 0 /ev/vid/\$1/framerate /ev/vid/\$1/framerate
fps: -25 8 0 10 -262144 -1 -1 25 256;
#X obj 157 734 t a;
#X obj 43 -282 cnv 15 920 16 empty empty EXTENDED_VIEW_VIDEO_MODULE
2 8 0 14 -233017 -66577 0;
#X obj 405 470 t a;
#X obj 417 -86 cnv 15 545 200 empty empty shader:_parameters_to_control_softedge_and_lens_compensation
20 12 0 14 -204786 -66577 0;
#N canvas 293 22 792 790 glsl 0;
#X obj 78 339 glsl_vertex;
#X msg 32 338 print;
#X obj 78 626 glsl_program;
#X obj 163 555 pack 0 0;
#X msg 30 476 print;
#X obj 163 511 change;
#X obj 150 358 change;
#X msg 163 579 link \$1 \$2;
#X msg 32 620 print;
#X obj 77 490 glsl_fragment;
#X floatatom 163 535 2 0 0 0 ID - -;
#X floatatom 150 381 2 0 0 0 ID - -;
#X obj 181 600 print linking;
#X obj 15 21 inlet;
#X obj 78 662 outlet;
#X obj 577 95 inlet;
#X obj 15 44 route bang;
#X obj 255 11 gemhead 1;
#X msg 255 33 1;
#X obj 255 57 change;
#X obj 255 81 t b;
#X obj 157 647 change;
#X obj 157 668 t b;
#X obj 158 690 outlet;
#X obj 90 426 symbol;
#X obj 90 401 t b;
#X msg 287 598 0;
#X obj 15 65 t b b b;
#X msg 118 307 open cam.vert;
#X msg 90 453 open cam.frag;
#X connect 0 0 9 0;
#X connect 0 1 6 0;
#X connect 1 0 0 0;
#X connect 2 0 14 0;
#X connect 2 1 21 0;
#X connect 3 0 7 0;
#X connect 4 0 9 0;
#X connect 5 0 10 0;
#X connect 6 0 11 0;
#X connect 6 0 25 0;
#X connect 7 0 2 0;
#X connect 7 0 12 0;
#X connect 8 0 2 0;
#X connect 9 0 2 0;
#X connect 9 1 5 0;
#X connect 10 0 3 0;
#X connect 11 0 3 1;
#X connect 13 0 16 0;
#X connect 15 0 2 0;
#X connect 16 0 27 0;
#X connect 16 1 0 0;
#X connect 17 0 18 0;
#X connect 18 0 19 0;
#X connect 19 0 20 0;
#X connect 20 0 28 0;
#X connect 21 0 22 0;
#X connect 22 0 23 0;
#X connect 24 0 29 0;
#X connect 25 0 24 0;
#X connect 26 0 21 0;
#X connect 27 0 26 0;
#X connect 27 1 10 0;
#X connect 27 2 28 0;
#X connect 28 0 0 0;
#X connect 29 0 9 0;
#X restore 423 0 pd glsl;
#X msg 656 83 sizeX \$1;
#X msg 662 59 sizeY \$1;
#X msg 622 -17 ShadeL \$1;
#X obj 469 -31 loadbang;
#X obj 622 -39 f;
#X floatatom 764 41 5 0 0 0 - - -;
#X msg 764 60 dZ \$1;
#X obj 781 -9 loadbang;
#X obj 736 -60 r /ev/vid/\$1/lens_compensation;
#X obj 764 20 1.55;
#X obj 764 82 s /ev/vid/\$1/shaders;
#X obj 764 -32 r /ev/vid/\$1/init_shader;
#X obj 432 -52 r /ev/vid/\$1/shaders;
#X obj 452 93 s /ev/vid/\$1/init_shader;
#X obj 622 -60 r /ev/vid/\$1/shade;
#X obj 622 28 unpack 0 0 0;
#X obj 43 -61 cnv 15 360 60 empty empty creation_arguments: 5 12 0
12 -162280 -1 0;
#X obj 43 2 cnv 15 360 110 empty empty inlets/outlets 5 12 0 12 -233017
-66577 0;
#X text 48 22 Inlet 1: GEMlist;
#X text 48 34 Inlet 2: control input;
#X text 178 22 Outlet 1: list of video-properties;
#X text 238 33 & bang when end reached;
#X text 49 63 VFX works like an insertpoint on a Audiomixer: if you
want to add VideoFX to your stitched videos \, simply insert them via
the send and returns;
#X text 48 47 Inlet 3: VFX return;
#X text 178 47 Outlet 2: VFX send both VFX GEMLIST;
#X obj 43 -264 cnv 15 360 200 empty empty description 5 12 0 12 -233017
-66577 0;
#X obj 442 461 cnv 15 350 190 empty empty VFX_insert_break-point 20
12 0 14 -233017 -258113 0;
#X obj 496 541 * -1;
#X obj 496 562 + 1;
#X obj 451 589 spigot 1;
#X obj 613 574 spigot 0;
#X obj 471 628 spigot 0;
#X obj 723 487 inlet;
#X text 720 468 inlet 3: vfx return;
#X obj 678 518 r /ev/vid/\$1/vfx;
#X obj 442 148 cnv 15 520 300 empty empty file_handling/control 20
12 0 14 -228856 -66577 0;
#X obj 450 420 pix_flip;
#X msg 575 377 none;
#X msg 612 377 both;
#X msg 656 377 horizontal;
#X msg 728 377 vertical;
#X obj 625 352 sel 0 1 2 3;
#X obj 625 330 r /ev/vid/\$1/flip;
#X obj 450 249 pix_film;
#X obj 450 218 alpha;
#X obj 656 403 t a;
#X obj 660 252 list append;
#X msg 660 226 open;
#X obj 660 199 t b a;
#X obj 597 199 list trim;
#X obj 660 172 r /ev/vid/\$1/filename;
#X text 624 314 flip image \;;
#X obj 798 194 openpanel;
#X obj 798 172 r /ev/vid/\$1/open;
#X obj 798 217 s /ev/vid/\$1/filename;
#X msg 799 356 25;
#X obj 799 378 s /ev/vid/\$1/framerate;
#X obj 799 335 loadbang;
#X text 799 318 set framerate on load;
#X text 660 155 open file______________________________;
#X obj 662 603 cnv 15 120 40 empty empty empty 20 12 0 14 -261234 -66577
0;
#X text 666 603 outlet 2: vfx send;
#X obj 148 772 cnv 15 200 60 empty empty empty 20 12 0 14 -260097 -66577
0;
#X obj 158 809 outlet;
#X text 166 772 outlet 1 \; video properties & end signal;
#X obj 668 620 outlet;
#X text 576 -225 inlet 2: control input;
#X obj 371 469 t b;
#X obj 52 339 cnv 15 300 52 empty empty empty 20 12 0 14 -233017 -66577
0;
#X obj 52 389 cnv 15 10 260 empty empty empty 20 12 0 14 -233017 -66577
0;
#X text 46 -39 ID: the modules ID \, neccessary when used multiple
times in a patch and for the exact routing of the control parameters
;
#X text 45 -97 Contains specific EV Storage-subpatch to be used in
connection with ev_sto.pd;
#X text 46 -247 video playback module with image-stitching in mind.
based on openGLshader it is possible to softedge(shade) the left edge
of the file as well as correct the lens-distortion of the used camera(within
some limits).;
#X text 55 340 following part is to adjust the framerate of the;
#X text 56 351 video-file to the system framerate of GEM.;
#X text 56 362 If set wrong \, playback-speed is not right.;
#X text 56 374 set framerate of file with fps-parameter in GUI.;
#X obj 213 119 cnv 15 170 170 empty empty GUI_controls 5 8 0 12 -204800
-66577 0;
#X text 215 133 flip: flips input image;
#X text 215 145 shift x/y: translates;
#X text 281 156 image in x/y;
#X text 215 171 shade: sets width of;
#X text 257 181 left softedge;
#X text 215 195 on/off: toggles state;
#X text 215 209 vfx:toggles insert state;
#X text 215 221 open: open file;
#X text 214 232 start/stop: start/stop;
#X text 285 243 playback;
#X text 214 253 fps: set the files original;
#X text 243 264 framerate;
#X obj 411 519 t b;
#X obj 203 -125 parameters;
#X text 46 -195 Gives control over position of the image to align it
with other sources(shift x/y). Normally you would use multiple of those
modules to display a continouus panoramic video out of multiple \,
related sourcesCan be controlled via OSC \, see [parameters] for additional
information about the specific parameter-names.;
#X text 463 65 uses cam.frag;
#X text 463 75 uses cam.vert;
#N canvas 499 138 385 575 init 0;
#X obj 81 -256 loadbang;
#X obj 81 -232 \$1;
#X msg 81 -205 \; /ev/vid/\$1/flip 0 \; /ev/vid/\$1/shade 0 \; /ev/vid/\$1/shift/x
0 \; /ev/vid/\$1/shift/y 0 \; /ev/vid/\$1/lens_compensation 1.55 \;
/ev/vid/\$1/vfx 0 \;;
#X connect 0 0 1 0;
#X connect 1 0 2 0;
#X restore 123 307 pd init;
#X obj 472 327 s /ev/vid/\$1/dimen;
#X obj 622 6 r /ev/vid/\$1/dimen;
#X text 605 834 (c)2011 Cyrille Henry Marian Weger Peter Venus & IEM
/part of EXTENDED VIEW toolkit/ gpl v3;
#X obj 495 297 t a;
#X obj 23 703 route length elapsed;
#X obj 39 728 sel \$1;
#X obj 23 285 t a;
#X obj 329 400 s /ev/vid/\$1/stop;
#X connect 0 0 11 0;
#X connect 0 1 17 0;
#X connect 1 0 0 0;
#X connect 2 0 1 0;
#X connect 3 0 54 0;
#X connect 11 0 21 0;
#X connect 12 0 20 0;
#X connect 14 0 26 0;
#X connect 15 0 11 2;
#X connect 16 0 11 1;
#X connect 19 0 20 1;
#X connect 20 0 3 0;
#X connect 22 0 21 2;
#X connect 28 0 32 1;
#X connect 29 0 34 0;
#X connect 30 0 31 0;
#X connect 31 0 34 1;
#X connect 32 0 37 0;
#X connect 33 0 29 0;
#X connect 34 0 32 0;
#X connect 35 0 37 1;
#X connect 36 0 37 1;
#X connect 37 0 45 0;
#X connect 37 0 98 1;
#X connect 38 0 122 0;
#X connect 38 1 99 0;
#X connect 39 0 30 0;
#X connect 40 0 35 0;
#X connect 40 0 33 0;
#X connect 41 0 36 0;
#X connect 41 0 33 0;
#X connect 42 0 50 0;
#X connect 43 0 50 0;
#X connect 43 0 155 0;
#X connect 44 0 50 0;
#X connect 45 0 50 0;
#X connect 45 0 155 0;
#X connect 46 0 22 0;
#X connect 48 0 26 0;
#X connect 50 0 118 0;
#X connect 52 0 46 0;
#X connect 52 0 44 0;
#X connect 52 0 43 0;
#X connect 54 0 38 0;
#X connect 54 1 59 0;
#X connect 54 1 68 0;
#X connect 55 0 54 1;
#X connect 56 0 54 1;
#X connect 57 0 54 1;
#X connect 58 0 54 0;
#X connect 59 0 57 0;
#X connect 60 0 61 0;
#X connect 61 0 65 0;
#X connect 62 0 64 0;
#X connect 63 0 64 0;
#X connect 64 0 60 0;
#X connect 66 0 64 0;
#X connect 67 0 54 1;
#X connect 69 0 59 0;
#X connect 70 1 55 0;
#X connect 70 2 56 0;
#X connect 82 0 83 0;
#X connect 83 0 84 1;
#X connect 84 0 0 0;
#X connect 85 0 120 0;
#X connect 86 0 0 0;
#X connect 87 0 86 0;
#X connect 89 0 82 0;
#X connect 89 0 85 1;
#X connect 89 0 86 1;
#X connect 91 0 84 0;
#X connect 91 0 85 0;
#X connect 92 0 100 0;
#X connect 93 0 100 0;
#X connect 94 0 100 0;
#X connect 95 0 100 0;
#X connect 96 0 92 0;
#X connect 96 1 93 0;
#X connect 96 2 94 0;
#X connect 96 3 95 0;
#X connect 97 0 96 0;
#X connect 98 0 91 0;
#X connect 98 1 52 0;
#X connect 98 1 151 0;
#X connect 98 2 154 0;
#X connect 99 0 98 0;
#X connect 100 0 91 0;
#X connect 101 0 104 0;
#X connect 102 0 101 0;
#X connect 103 0 102 0;
#X connect 103 1 101 1;
#X connect 104 0 98 0;
#X connect 105 0 103 0;
#X connect 107 0 109 0;
#X connect 108 0 107 0;
#X connect 110 0 111 0;
#X connect 112 0 110 0;
#X connect 122 0 29 1;
#X connect 145 0 28 0;
#X connect 145 0 42 0;
#X connect 152 0 70 0;
#X connect 154 0 145 0;
#X connect 154 0 158 0;
#X connect 155 0 156 1;
#X connect 155 1 156 0;
#X connect 157 0 155 0;
#X connect 157 0 154 0;
#X coords 0 -1 1 1 100 180 1 100 118;
