#N canvas 331 280 558 300 10;
#X obj 61 99 exclusive \$0-GEM 1;
#X obj 61 121 tgl 15 0 empty empty empty 0 -6 0 8 -262144 -1 -1 1 1
;
#X obj 86 144 tgl 15 0 empty empty empty 0 -6 0 8 -262144 -1 -1 0 1
;
#X obj 111 167 tgl 15 0 empty empty empty 0 -6 0 8 -262144 -1 -1 0
1;
#X obj 134 188 tgl 15 0 empty empty empty 0 -6 0 8 -262144 -1 -1 0
1;
#X obj 158 210 tgl 15 0 empty empty empty 0 -6 0 8 -262144 -1 -1 0
1;
#X obj 86 122 exclusive \$0-GEM 2;
#X obj 111 145 exclusive \$0-GEM 3;
#X obj 134 166 exclusive \$0-GEM 4;
#X obj 158 188 exclusive \$0-GEM 5;
#X obj 179 234 tgl 15 0 empty empty empty 0 -6 0 8 -262144 -1 -1 0
1;
#X obj 200 259 tgl 15 0 empty empty empty 0 -6 0 8 -262144 -1 -1 0
1;
#X obj 38 95 tgl 15 0 empty empty empty 0 -6 0 8 -262144 -1 -1 0 1
;
#X obj 38 74 exclusive \$0-GEM 0;
#X obj 179 212 exclusive \$0-GEM 6;
#X obj 200 237 exclusive \$0-GEM 7;
#X obj 308 75 hradio 15 1 0 8 empty empty empty 0 -6 0 8 -262144 -1
-1 1;
#X obj 308 98 s \$0-GEM;
#X connect 0 0 1 0;
#X connect 6 0 2 0;
#X connect 7 0 3 0;
#X connect 8 0 4 0;
#X connect 9 0 5 0;
#X connect 13 0 12 0;
#X connect 14 0 10 0;
#X connect 15 0 11 0;
#X connect 16 0 17 0;
