#N canvas 419 44 595 492 10;
#X obj 87 198 expr~ if($f3==0 \, ($v1 + 1) / 2 \, if($v2>0 \, 3 \,
0));
#X floatatom 335 105 5 0 0 0 - - -;
#X obj 94 160 sig~;
#X floatatom 95 109 5 0 0 0 - - -;
#X obj 205 155 sig~;
#X floatatom 207 111 5 0 0 0 - - -;
#N canvas 440 100 250 195 sig 0;
#X obj 7 85 snapshot~;
#X obj 102 129 metro 100;
#X floatatom 115 101 5 0 0 0 - - -;
#X obj 103 37 loadbang;
#X obj 100 100 tgl 15 0 empty empty empty 17 7 0 10 -262144 -1 -1 1
1;
#X obj 8 31 inlet~;
#X obj 8 53 outlet~;
#X connect 0 0 2 0;
#X connect 1 0 0 0;
#X connect 3 0 4 0;
#X connect 4 0 1 0;
#X connect 5 0 6 0;
#X connect 5 0 0 0;
#X coords 0 -1 1 1 48 15 2 100 100;
#X restore 92 298 pd sig;
#N canvas 660 44 362 257 expr~ 0;
#X obj 126 82 *~ 3;
#X obj 125 51 purepd/gt~ 0;
#X obj 73 56 +~ 1;
#X obj 73 78 /~ 2;
#X obj 73 21 inlet~;
#X obj 126 22 inlet~;
#X obj 211 21 inlet;
#X obj 211 67 == 0;
#X obj 73 117 *~;
#X obj 127 118 *~;
#X obj 211 89 == 0;
#X obj 255 21 loadbang;
#X obj 74 177 outlet~;
#X connect 0 0 9 0;
#X connect 1 0 0 0;
#X connect 2 0 3 0;
#X connect 3 0 8 0;
#X connect 4 0 2 0;
#X connect 5 0 1 0;
#X connect 6 0 7 0;
#X connect 7 0 8 1;
#X connect 7 0 10 0;
#X connect 8 0 12 0;
#X connect 9 0 12 0;
#X connect 10 0 9 1;
#X connect 11 0 7 0;
#X restore 157 255 pd expr~ if($f3==0 \, ($v1 + 1) / 2 \, if($v2>0
\, 3 \, 0));
#N canvas 440 100 250 195 sig 0;
#X obj 7 85 snapshot~;
#X obj 102 129 metro 100;
#X floatatom 115 101 5 0 0 0 - - -;
#X obj 103 37 loadbang;
#X obj 100 100 tgl 15 0 empty empty empty 17 7 0 10 -262144 -1 -1 1
1;
#X obj 8 31 inlet~;
#X obj 8 53 outlet~;
#X connect 0 0 2 0;
#X connect 1 0 0 0;
#X connect 3 0 4 0;
#X connect 4 0 1 0;
#X connect 5 0 6 0;
#X connect 5 0 0 0;
#X coords 0 -1 1 1 48 15 2 100 100;
#X restore 162 308 pd sig;
#X connect 0 0 6 0;
#X connect 1 0 0 2;
#X connect 1 0 7 2;
#X connect 2 0 0 0;
#X connect 2 0 7 0;
#X connect 3 0 2 0;
#X connect 4 0 0 1;
#X connect 4 0 7 1;
#X connect 5 0 4 0;
#X connect 7 0 8 0;
