#N canvas 287 0 632 682 10;
#X obj 12 475 *~;
#X obj 79 475 *~;
#X obj 78 336 inlet~;
#X obj 13 336 inlet~;
#X obj 29 541 dac~;
#X obj 13 570 outlet~;
#X obj 80 571 outlet~;
#X obj 101 441 line~;
#X obj 101 390 dbtorms;
#X msg 101 415 \$1 50;
#X obj 167 373 moses 1;
#X msg 206 433 set 0;
#X obj 254 220 sel 0 1;
#X obj 167 263 inlet;
#X obj 213 6 loadbang;
#X obj 213 31 t b b b;
#N canvas 0 46 1004 682 \$0-gop 0;
#X coords 0 0 90 22 90 22 1;
#X restore 4 18 pd \$0-gop;
#X obj 232 103 s \$0-init;
#X obj 167 290 route float;
#X obj 230 409 b;
#X obj 206 462 s \$0-mute;
#X obj 254 146 r \$0-mute;
#N canvas 166 86 714 682 dsp-status 0;
#N canvas 299 278 611 300 \$0-dsp-status 0;
#X obj 86 73 outlet;
#X obj 86 48 struct \$0-dsp-status float x float y float status float
bg;
#X obj 132 175 filledpolygon bg 0 1 0 0 33 0 33 14 0 14;
#X obj 131 137 drawnumber status 2 0 0 dsp:;
#X connect 1 0 0 0;
#X restore 122 61 pd \$0-dsp-status;
#X msg 556 182 traverse \$1\$2\$3 \, bang;
#X obj 556 206 pointer;
#X obj 311 84 t b b;
#X obj 311 53 r \$0-init;
#X obj 122 86 route click;
#X obj 122 172 b;
#X obj 22 62 inlet;
#X obj 311 119 v GLOBAL-PDDP-DSP;
#X obj 556 155 list append pd- \$0 -dsp;
#X obj 122 219 t a a;
#X obj 149 247 sel 0 1;
#X obj 311 243 append \$0-dsp-status status x y bg;
#X obj 122 360 set \$0-dsp-status status bg;
#X obj 311 142 t a a;
#X obj 338 164 sel 1;
#X obj 338 186 696;
#X obj 25 324 outlet;
#X obj 208 318 s \$0-slider-color;
#X obj 311 216 pack f 0 0 999;
#X obj 149 292 999;
#X obj 168 269 696;
#X msg 208 294 459;
#X connect 0 0 5 0;
#X connect 1 0 2 0;
#X connect 2 0 12 4;
#X connect 3 0 8 0;
#X connect 3 1 9 0;
#X connect 4 0 3 0;
#X connect 5 0 6 0;
#X connect 6 0 17 0;
#X connect 7 0 10 0;
#X connect 8 0 14 0;
#X connect 9 0 1 0;
#X connect 10 0 13 0;
#X connect 10 1 11 0;
#X connect 11 0 20 0;
#X connect 11 1 21 0;
#X connect 12 0 13 2;
#X connect 14 0 19 0;
#X connect 14 1 15 0;
#X connect 15 0 16 0;
#X connect 16 0 19 3;
#X connect 19 0 12 0;
#X connect 20 0 13 1;
#X connect 20 0 18 0;
#X connect 21 0 22 0;
#X connect 21 0 13 1;
#X connect 22 0 18 0;
#X restore 414 586 pd dsp-status;
#X obj 371 472 r pd;
#X obj 371 497 route dsp;
#N canvas 0 0 1004 682 volume 0;
#X obj 558 309 pointer;
#X obj 88 53 route click;
#X obj 88 78 unpack p;
#X obj 285 53 route change;
#X obj 285 78 unpack p;
#X obj 88 258 * 2;
#X obj 106 382 outlet;
#X obj 88 103 get \$0-clickpoint x;
#X obj 285 103 get \$0-slider x0;
#X obj 495 646 append \$0-clickpoint x y;
#X obj 88 451 set \$0-slider x0;
#X obj 24 259 inlet;
#X obj 495 619 + 2;
#X obj 539 619 + 1;
#X obj 495 437 until;
#X msg 495 412 6;
#X obj 495 462 f;
#X obj 495 487 t a b;
#X obj 532 462 + 1;
#X obj 495 513 * 10;
#X msg 680 387 next;
#X obj 741 341 t b b a;
#X obj 822 341 t b b a;
#X obj 741 316 pointer \$0-clickpoint \$0-slider;
#X obj 667 481 set \$0-clickpoint vis;
#X obj 848 481 set \$0-slider vis;
#X obj 88 128 - 2;
#X obj 475 351 v \$0-vx;
#X obj 530 332 v \$0-vy;
#X obj 539 513 v \$0-vy;
#X obj 495 538 t a b;
#X obj 495 594 +;
#X obj 516 568 v \$0-vx;
#X obj 88 153 t a b;
#X obj 88 218 -;
#X obj 125 180 v \$0-vx;
#X obj 453 82 r \$0-init;
#X obj 453 107 f \$0;
#X obj 453 132 makefilename pd-%d-gop;
#X msg 558 284 traverse \$1 \, bang;
#X obj 767 419 f 1;
#X obj 848 456 f 1;
#X obj 453 157 t b a b b a;
#X msg 741 291 traverse \$1 \, bang;
#X obj 332 290 0;
#N canvas 306 292 580 300 \$0-slider 0;
#X obj 28 68 outlet;
#X obj 91 174 filledpolygon -v vis 999 999 1 0 0 64 0 64 14 0 14;
#X obj 28 30 struct \$0-slider float x float y float x0 float vis float
col;
#X obj 89 98 filledpolygon -v vis col 0 1 2 7 x0(0:100)(2:52) 7 x0(0:100)(2:52)
2 x0(0:100)(12:62) 2 x0(0:100)(12:62) 7 62 7 x0(0:100)(12:62) 7 x0(0:100)(12:62)
12 x0(0:100)(2:52) 12 x0(0:100)(2:52) 7 1 7;
#X connect 2 0 0 0;
#X restore 285 28 pd \$0-slider;
#N canvas 3 357 450 300 \$0-clickpoint 0;
#X obj 54 59 outlet;
#X obj 54 34 struct \$0-clickpoint float x float y float vis;
#X obj 92 125 filledpolygon -v vis 999 999 1 0 0 10 0 10 12 0 12;
#X connect 1 0 0 0;
#X restore 88 28 pd \$0-clickpoint;
#X obj 88 280 max 1;
#X obj 13 408 r \$0-fader;
#X obj 369 379 append \$0-slider vis col x y;
#X obj 302 538 set \$0-slider col;
#X obj 303 509 r \$0-slider-color;
#X obj 466 224 v GLOBAL-PDDP-DSP;
#X obj 466 246 sel 0 1;
#X msg 466 268 999;
#X obj 439 202 t b b b b;
#X obj 476 331 25;
#X obj 530 307 4;
#X obj 405 257 1;
#X msg 486 288 459;
#X connect 0 0 9 2;
#X connect 0 0 49 4;
#X connect 1 0 2 0;
#X connect 2 0 7 0;
#X connect 3 0 4 0;
#X connect 4 0 8 0;
#X connect 5 0 47 0;
#X connect 7 0 26 0;
#X connect 8 0 6 0;
#X connect 11 0 10 0;
#X connect 12 0 9 0;
#X connect 13 0 9 1;
#X connect 14 0 16 0;
#X connect 15 0 14 0;
#X connect 16 0 17 0;
#X connect 16 0 18 0;
#X connect 17 0 19 0;
#X connect 17 1 29 0;
#X connect 18 0 16 1;
#X connect 19 0 30 0;
#X connect 20 0 23 0;
#X connect 21 0 20 0;
#X connect 21 1 40 0;
#X connect 21 2 24 1;
#X connect 22 0 20 0;
#X connect 22 1 41 0;
#X connect 22 2 25 1;
#X connect 23 0 21 0;
#X connect 23 1 22 0;
#X connect 23 2 20 0;
#X connect 26 0 33 0;
#X connect 29 0 13 0;
#X connect 30 0 31 0;
#X connect 30 1 32 0;
#X connect 31 0 12 0;
#X connect 32 0 31 1;
#X connect 33 0 34 0;
#X connect 33 1 35 0;
#X connect 34 0 5 0;
#X connect 35 0 34 1;
#X connect 36 0 37 0;
#X connect 37 0 38 0;
#X connect 38 0 42 0;
#X connect 39 0 0 0;
#X connect 40 0 24 0;
#X connect 41 0 25 0;
#X connect 42 0 44 0;
#X connect 42 1 43 0;
#X connect 42 2 15 0;
#X connect 42 3 55 0;
#X connect 42 4 39 0;
#X connect 43 0 23 0;
#X connect 44 0 10 0;
#X connect 45 0 3 0;
#X connect 46 0 1 0;
#X connect 47 0 6 0;
#X connect 47 0 10 0;
#X connect 48 0 10 0;
#X connect 49 0 10 1;
#X connect 49 0 50 1;
#X connect 51 0 50 0;
#X connect 52 0 53 0;
#X connect 53 0 54 0;
#X connect 53 1 59 0;
#X connect 54 0 49 1;
#X connect 55 0 58 0;
#X connect 55 1 52 0;
#X connect 55 2 56 0;
#X connect 55 3 57 0;
#X connect 56 0 27 0;
#X connect 56 0 49 2;
#X connect 57 0 28 0;
#X connect 57 0 49 3;
#X connect 58 0 49 0;
#X connect 59 0 49 1;
#X restore 105 314 pd volume;
#N canvas 39 154 465 348 mute 0;
#X obj 74 90 route click;
#N canvas 258 229 741 372 \$0-mute 0;
#X obj 70 59 outlet;
#X text 60 209 drybrush;
#X text 87 140 horn;
#X text 113 109 x;
#X obj 133 180 drawpolygon c 1 14 6 15 7 15 9 14 10 15 9;
#X obj 133 210 drawpolygon c 1 16 4 17 5 18 6 18 10 17 11 16 12 17
11;
#X obj 133 240 drawpolygon c 1 19 2 20 3 20 4 21 5 21 11 20 12 20 13
19 14 18 15;
#X obj 70 34 struct \$0-mute float x float y float c float vis;
#X obj 133 139 filledpolygon 459 0 1 1 6 5 6 10 1 11 1 11 15 10 15
5 10 1 10;
#X obj 134 109 drawpolygon -v vis 911 2 13 3 23 13 18 8 13 13 23 3
18 8;
#X connect 7 0 0 0;
#X restore 74 65 pd \$0-mute;
#X obj 74 296 set \$0-mute c;
#X obj 168 64 inlet;
#X obj 74 245 sel 1;
#X obj 74 115 b;
#N canvas 0 0 450 509 init 0;
#X obj 12 15 inlet;
#X obj 12 176 outlet;
#X obj 169 127 pointer;
#X obj 12 46 t b b;
#X msg 169 102 traverse \$1\$2\$3 \, bang;
#X obj 12 147 append \$0-mute c x y vis;
#X msg 12 120 0 1 3 0;
#X obj 49 73 list prepend pd- \$0 -gop;
#X connect 0 0 3 0;
#X connect 2 0 5 4;
#X connect 3 0 6 0;
#X connect 3 1 7 0;
#X connect 4 0 2 0;
#X connect 5 0 1 0;
#X connect 6 0 5 0;
#X connect 7 0 4 0;
#X restore 377 80 pd init;
#X obj 150 239 set \$0-mute vis;
#X obj 377 50 r \$0-init;
#X msg 74 270 666;
#X obj 23 245 outlet;
#X obj 168 89 route set;
#X obj 168 111 t a;
#X connect 0 0 5 0;
#X connect 1 0 0 0;
#X connect 3 0 11 0;
#X connect 4 0 9 0;
#X connect 4 1 2 0;
#X connect 5 0 10 0;
#X connect 6 0 2 1;
#X connect 6 0 7 1;
#X connect 8 0 6 0;
#X connect 9 0 2 0;
#X connect 11 0 12 0;
#X connect 11 1 12 0;
#X connect 12 0 4 0;
#X connect 12 0 7 0;
#X restore 305 187 pd mute;
#X text 129 574 (c) 2009 Jonathan Wilkes;
#X msg 372 414 dsp 1;
#X obj 372 439 s pd;
#X obj 388 525 v GLOBAL-PDDP-DSP;
#X obj 308 81 s pd-\$0-gop;
#N canvas 0 0 450 300 \$0-dsp 1;
#X coords 0 0 5 5 5 5 1;
#X restore 61 4 pd \$0-dsp;
#X obj 308 127 s pd-\$0-dsp;
#X msg 308 57 clear \, donecanvasdialog 1 -1 2 0 0 90 22 90 22 0 0
;
#X msg 308 103 clear \, donecanvasdialog 1 -1 2 0 0 5 5 5 5 0 0;
#X msg 213 146 set 0;
#X obj 254 188 tgl 15 0 empty empty empty 17 7 0 10 -262144 -1 -1 0
1;
#X obj 273 248 0;
#X obj 167 314 f 1;
#X msg 167 395 1;
#X obj 273 272 s \$0-fader;
#X obj 371 587 tgl 15 0 empty empty empty 17 7 0 10 -262144 -1 -1 1
1;
#X msg 321 563 set \$1;
#X obj 371 562 change;
#X msg 371 632 dsp \$1;
#X obj 371 654 s pd;
#X connect 0 0 4 0;
#X connect 0 0 5 0;
#X connect 1 0 4 1;
#X connect 1 0 6 0;
#X connect 2 0 1 0;
#X connect 3 0 0 0;
#X connect 7 0 1 1;
#X connect 7 0 0 1;
#X connect 8 0 9 0;
#X connect 9 0 7 0;
#X connect 10 0 40 0;
#X connect 10 1 28 0;
#X connect 10 1 11 0;
#X connect 11 0 20 0;
#X connect 12 0 39 0;
#X connect 12 1 38 0;
#X connect 13 0 18 0;
#X connect 14 0 15 0;
#X connect 15 0 36 0;
#X connect 15 1 17 0;
#X connect 15 2 34 0;
#X connect 15 2 35 0;
#X connect 18 0 39 0;
#X connect 18 1 19 0;
#X connect 19 0 20 0;
#X connect 21 0 37 0;
#X connect 21 0 26 0;
#X connect 22 0 42 0;
#X connect 23 0 24 0;
#X connect 24 0 30 0;
#X connect 24 0 44 0;
#X connect 25 0 39 0;
#X connect 26 0 37 0;
#X connect 28 0 29 0;
#X connect 34 0 31 0;
#X connect 35 0 33 0;
#X connect 36 0 37 0;
#X connect 36 0 26 0;
#X connect 37 0 12 0;
#X connect 37 0 26 0;
#X connect 38 0 8 0;
#X connect 38 0 41 0;
#X connect 39 0 8 0;
#X connect 39 0 25 0;
#X connect 39 0 10 0;
#X connect 40 0 20 0;
#X connect 42 0 43 0;
#X connect 42 0 45 0;
#X connect 42 0 22 0;
#X connect 43 0 44 0;
#X connect 44 0 42 0;
#X connect 45 0 46 0;
#X coords 0 0 1 -1 98 44 1 0 0;
