#N canvas 505 376 450 300 12;
#X obj 31 202 noise~;
#X obj 21 231 writesf~ 2;
#X obj 89 202 noise~;
#X msg 60 117 \; pd fast-forward \$1;
#X obj 83 39 nbx 5 14 -1e+037 1e+037 0 0 empty empty ms 0 -8 0 10 -262144
-1 -1 0 256;
#X obj 37 62 f 10000;
#X obj 37 38 bng 15 250 50 0 empty empty empty 17 7 0 10 -262144 -1
-1;
#X obj 21 118 del;
#X msg 21 173 stop;
#X msg 83 166 open ./noise.wav \, start;
#X obj 37 86 t f f b;
#X text 101 65 write N ms of stereo noise;
#X text 35 14 go!;
#X obj 21 150 bng 15 250 50 0 empty empty empty 17 7 0 10 -262144 -1
-1;
#X text 40 148 done;
#X obj 266 132 loadbang;
#X msg 266 159 \; pd dsp 1;
#X connect 0 0 1 0;
#X connect 2 0 1 1;
#X connect 4 0 5 1;
#X connect 5 0 10 0;
#X connect 6 0 5 0;
#X connect 7 0 13 0;
#X connect 8 0 1 0;
#X connect 9 0 1 0;
#X connect 10 0 7 0;
#X connect 10 1 3 0;
#X connect 10 2 9 0;
#X connect 13 0 8 0;
#X connect 15 0 16 0;
