#N canvas 210 114 538 479 10;
#X obj 119 202 dac~;
#X text 60 0 analysis;
#N canvas 489 170 733 503 test-signal 0;
#N canvas 0 0 594 514 voter 0;
#X obj 135 415 outlet~;
#X obj 135 388 hip~ 5;
#X msg 224 96 90;
#X obj 135 322 *~ 0.333;
#X msg 336 94 95;
#X msg 72 96 83;
#X obj 271 1 inlet;
#X obj 271 29 sel 0 1 2;
#N canvas 0 0 469 371 xylophone 0;
#X obj 127 213 *~;
#X obj 127 245 *~;
#X obj 219 129 vline~;
#X msg 219 96 1 0 0 \, 0 400 0;
#X obj 127 278 outlet~;
#X obj 338 137 inlet~ amp;
#X obj 220 154 *~;
#X obj 126 88 osc~;
#X obj 123 61 mtof;
#X obj 135 6 inlet note;
#X obj 83 321 switch~;
#X obj 83 299 > 1;
#X obj 86 277 env~;
#X obj 135 29 t f b b;
#X msg 197 52 1;
#X connect 0 0 1 0;
#X connect 1 0 4 0;
#X connect 1 0 12 0;
#X connect 2 0 6 0;
#X connect 2 0 6 1;
#X connect 3 0 2 0;
#X connect 5 0 1 1;
#X connect 6 0 0 1;
#X connect 7 0 0 0;
#X connect 8 0 7 0;
#X connect 9 0 13 0;
#X connect 11 0 10 0;
#X connect 12 0 11 0;
#X connect 13 0 8 0;
#X connect 13 1 3 0;
#X connect 13 2 14 0;
#X connect 14 0 10 0;
#X restore 72 145 pd xylophone;
#X obj 152 121 sig~ 1;
#X obj 303 118 sig~ 1;
#X obj 414 117 sig~ 1;
#X obj 389 55 r \$0-amp;
#N canvas 0 0 469 371 xylophone 0;
#X obj 127 213 *~;
#X obj 127 245 *~;
#X obj 219 129 vline~;
#X msg 219 96 1 0 0 \, 0 400 0;
#X obj 127 278 outlet~;
#X obj 338 137 inlet~ amp;
#X obj 220 154 *~;
#X obj 126 88 osc~;
#X obj 123 61 mtof;
#X obj 135 6 inlet note;
#X obj 83 321 switch~;
#X obj 83 299 > 1;
#X obj 86 277 env~;
#X obj 135 29 t f b b;
#X msg 197 52 1;
#X connect 0 0 1 0;
#X connect 1 0 4 0;
#X connect 1 0 12 0;
#X connect 2 0 6 0;
#X connect 2 0 6 1;
#X connect 3 0 2 0;
#X connect 5 0 1 1;
#X connect 6 0 0 1;
#X connect 7 0 0 0;
#X connect 8 0 7 0;
#X connect 9 0 13 0;
#X connect 11 0 10 0;
#X connect 12 0 11 0;
#X connect 13 0 8 0;
#X connect 13 1 3 0;
#X connect 13 2 14 0;
#X connect 14 0 10 0;
#X restore 224 148 pd xylophone;
#N canvas 0 0 469 371 xylophone 0;
#X obj 127 213 *~;
#X obj 127 245 *~;
#X obj 219 129 vline~;
#X msg 219 96 1 0 0 \, 0 400 0;
#X obj 127 278 outlet~;
#X obj 338 137 inlet~ amp;
#X obj 220 154 *~;
#X obj 126 88 osc~;
#X obj 123 61 mtof;
#X obj 135 6 inlet note;
#X obj 83 321 switch~;
#X obj 83 299 > 1;
#X obj 86 277 env~;
#X obj 135 29 t f b b;
#X msg 197 52 1;
#X connect 0 0 1 0;
#X connect 1 0 4 0;
#X connect 1 0 12 0;
#X connect 2 0 6 0;
#X connect 2 0 6 1;
#X connect 3 0 2 0;
#X connect 5 0 1 1;
#X connect 6 0 0 1;
#X connect 7 0 0 0;
#X connect 8 0 7 0;
#X connect 9 0 13 0;
#X connect 11 0 10 0;
#X connect 12 0 11 0;
#X connect 13 0 8 0;
#X connect 13 1 3 0;
#X connect 13 2 14 0;
#X connect 14 0 10 0;
#X restore 336 151 pd xylophone;
#X connect 1 0 0 0;
#X connect 2 0 13 0;
#X connect 3 0 1 0;
#X connect 4 0 14 0;
#X connect 5 0 8 0;
#X connect 6 0 7 0;
#X connect 7 0 5 0;
#X connect 7 1 2 0;
#X connect 7 2 4 0;
#X connect 8 0 3 0;
#X connect 9 0 8 1;
#X connect 10 0 13 1;
#X connect 11 0 14 1;
#X connect 12 0 11 0;
#X connect 12 0 10 0;
#X connect 12 0 9 0;
#X connect 13 0 3 0;
#X connect 14 0 3 0;
#X restore 11 196 pd voter;
#X obj 217 392 outlet~;
#X obj 549 52 dbtorms;
#X obj 549 3 inlet;
#X obj 221 72 t b b b b b b b b b b;
#X obj 222 13 inlet;
#X obj 11 167 random 3;
#X obj 37 323 pack f f f f f f f f f f;
#X obj 277 46 bng 15 250 50 0 empty empty empty 0 -6 0 8 -262144 -1
-1;
#X obj 518 268 noise~;
#X text 521 250 background;
#X obj 519 294 *~ 0.1;
#X obj 591 270 r \$0-noisefloor;
#X obj 77 165 random 3;
#X obj 143 165 random 3;
#X obj 209 163 random 3;
#X obj 274 161 random 3;
#X obj 340 159 random 3;
#X obj 406 159 random 3;
#X obj 472 157 random 3;
#X obj 541 155 random 3;
#X obj 607 153 random 3;
#X obj 36 378 outlet list of votes;
#N canvas 0 0 450 300 dr 0;
#X obj 116 30 inlet;
#X obj 116 170 outlet;
#X obj 116 124 del;
#X obj 116 55 t b b;
#X obj 146 86 random 100;
#X connect 0 0 3 0;
#X connect 2 0 1 0;
#X connect 3 0 2 0;
#X connect 3 1 4 0;
#X connect 4 0 2 1;
#X restore 11 139 pd dr;
#N canvas 0 0 450 300 dr 0;
#X obj 116 30 inlet;
#X obj 116 170 outlet;
#X obj 116 124 del;
#X obj 116 55 t b b;
#X obj 146 86 random 100;
#X connect 0 0 3 0;
#X connect 2 0 1 0;
#X connect 3 0 2 0;
#X connect 3 1 4 0;
#X connect 4 0 2 1;
#X restore 77 137 pd dr;
#N canvas 0 0 450 300 dr 0;
#X obj 116 30 inlet;
#X obj 116 170 outlet;
#X obj 116 124 del;
#X obj 116 55 t b b;
#X obj 146 86 random 100;
#X connect 0 0 3 0;
#X connect 2 0 1 0;
#X connect 3 0 2 0;
#X connect 3 1 4 0;
#X connect 4 0 2 1;
#X restore 143 134 pd dr;
#N canvas 0 0 450 300 dr 0;
#X obj 116 30 inlet;
#X obj 116 170 outlet;
#X obj 116 124 del;
#X obj 116 55 t b b;
#X obj 146 86 random 100;
#X connect 0 0 3 0;
#X connect 2 0 1 0;
#X connect 3 0 2 0;
#X connect 3 1 4 0;
#X connect 4 0 2 1;
#X restore 209 132 pd dr;
#N canvas 0 0 450 300 dr 0;
#X obj 116 30 inlet;
#X obj 116 170 outlet;
#X obj 116 124 del;
#X obj 116 55 t b b;
#X obj 146 86 random 100;
#X connect 0 0 3 0;
#X connect 2 0 1 0;
#X connect 3 0 2 0;
#X connect 3 1 4 0;
#X connect 4 0 2 1;
#X restore 274 131 pd dr;
#N canvas 0 0 450 300 dr 0;
#X obj 116 30 inlet;
#X obj 116 170 outlet;
#X obj 116 124 del;
#X obj 116 55 t b b;
#X obj 146 86 random 100;
#X connect 0 0 3 0;
#X connect 2 0 1 0;
#X connect 3 0 2 0;
#X connect 3 1 4 0;
#X connect 4 0 2 1;
#X restore 340 129 pd dr;
#N canvas 0 0 450 300 dr 0;
#X obj 116 30 inlet;
#X obj 116 170 outlet;
#X obj 116 124 del;
#X obj 116 55 t b b;
#X obj 146 86 random 100;
#X connect 0 0 3 0;
#X connect 2 0 1 0;
#X connect 3 0 2 0;
#X connect 3 1 4 0;
#X connect 4 0 2 1;
#X restore 406 126 pd dr;
#N canvas 0 0 450 300 dr 0;
#X obj 116 30 inlet;
#X obj 116 170 outlet;
#X obj 116 124 del;
#X obj 116 55 t b b;
#X obj 146 86 random 100;
#X connect 0 0 3 0;
#X connect 2 0 1 0;
#X connect 3 0 2 0;
#X connect 3 1 4 0;
#X connect 4 0 2 1;
#X restore 472 124 pd dr;
#N canvas 0 0 450 300 dr 0;
#X obj 116 30 inlet;
#X obj 116 170 outlet;
#X obj 116 124 del;
#X obj 116 55 t b b;
#X obj 146 86 random 100;
#X connect 0 0 3 0;
#X connect 2 0 1 0;
#X connect 3 0 2 0;
#X connect 3 1 4 0;
#X connect 4 0 2 1;
#X restore 541 122 pd dr;
#N canvas 0 0 450 300 dr 0;
#X obj 116 30 inlet;
#X obj 116 170 outlet;
#X obj 116 124 del;
#X obj 116 55 t b b;
#X obj 146 86 random 100;
#X connect 0 0 3 0;
#X connect 2 0 1 0;
#X connect 3 0 2 0;
#X connect 3 1 4 0;
#X connect 4 0 2 1;
#X restore 607 120 pd dr;
#N canvas 0 0 594 514 voter 0;
#X obj 135 415 outlet~;
#X obj 135 388 hip~ 5;
#X msg 224 96 90;
#X obj 135 322 *~ 0.333;
#X msg 336 94 95;
#X msg 72 96 83;
#X obj 271 1 inlet;
#X obj 271 29 sel 0 1 2;
#N canvas 0 0 469 371 xylophone 0;
#X obj 127 213 *~;
#X obj 127 245 *~;
#X obj 219 129 vline~;
#X msg 219 96 1 0 0 \, 0 400 0;
#X obj 127 278 outlet~;
#X obj 338 137 inlet~ amp;
#X obj 220 154 *~;
#X obj 126 88 osc~;
#X obj 123 61 mtof;
#X obj 135 6 inlet note;
#X obj 83 321 switch~;
#X obj 83 299 > 1;
#X obj 86 277 env~;
#X obj 135 29 t f b b;
#X msg 197 52 1;
#X connect 0 0 1 0;
#X connect 1 0 4 0;
#X connect 1 0 12 0;
#X connect 2 0 6 0;
#X connect 2 0 6 1;
#X connect 3 0 2 0;
#X connect 5 0 1 1;
#X connect 6 0 0 1;
#X connect 7 0 0 0;
#X connect 8 0 7 0;
#X connect 9 0 13 0;
#X connect 11 0 10 0;
#X connect 12 0 11 0;
#X connect 13 0 8 0;
#X connect 13 1 3 0;
#X connect 13 2 14 0;
#X connect 14 0 10 0;
#X restore 72 145 pd xylophone;
#X obj 152 121 sig~ 1;
#X obj 303 118 sig~ 1;
#X obj 414 117 sig~ 1;
#X obj 389 55 r \$0-amp;
#N canvas 0 0 469 371 xylophone 0;
#X obj 127 213 *~;
#X obj 127 245 *~;
#X obj 219 129 vline~;
#X msg 219 96 1 0 0 \, 0 400 0;
#X obj 127 278 outlet~;
#X obj 338 137 inlet~ amp;
#X obj 220 154 *~;
#X obj 126 88 osc~;
#X obj 123 61 mtof;
#X obj 135 6 inlet note;
#X obj 83 321 switch~;
#X obj 83 299 > 1;
#X obj 86 277 env~;
#X obj 135 29 t f b b;
#X msg 197 52 1;
#X connect 0 0 1 0;
#X connect 1 0 4 0;
#X connect 1 0 12 0;
#X connect 2 0 6 0;
#X connect 2 0 6 1;
#X connect 3 0 2 0;
#X connect 5 0 1 1;
#X connect 6 0 0 1;
#X connect 7 0 0 0;
#X connect 8 0 7 0;
#X connect 9 0 13 0;
#X connect 11 0 10 0;
#X connect 12 0 11 0;
#X connect 13 0 8 0;
#X connect 13 1 3 0;
#X connect 13 2 14 0;
#X connect 14 0 10 0;
#X restore 224 148 pd xylophone;
#N canvas 0 0 469 371 xylophone 0;
#X obj 127 213 *~;
#X obj 127 245 *~;
#X obj 219 129 vline~;
#X msg 219 96 1 0 0 \, 0 400 0;
#X obj 127 278 outlet~;
#X obj 338 137 inlet~ amp;
#X obj 220 154 *~;
#X obj 126 88 osc~;
#X obj 123 61 mtof;
#X obj 135 6 inlet note;
#X obj 83 321 switch~;
#X obj 83 299 > 1;
#X obj 86 277 env~;
#X obj 135 29 t f b b;
#X msg 197 52 1;
#X connect 0 0 1 0;
#X connect 1 0 4 0;
#X connect 1 0 12 0;
#X connect 2 0 6 0;
#X connect 2 0 6 1;
#X connect 3 0 2 0;
#X connect 5 0 1 1;
#X connect 6 0 0 1;
#X connect 7 0 0 0;
#X connect 8 0 7 0;
#X connect 9 0 13 0;
#X connect 11 0 10 0;
#X connect 12 0 11 0;
#X connect 13 0 8 0;
#X connect 13 1 3 0;
#X connect 13 2 14 0;
#X connect 14 0 10 0;
#X restore 336 151 pd xylophone;
#X connect 1 0 0 0;
#X connect 2 0 13 0;
#X connect 3 0 1 0;
#X connect 4 0 14 0;
#X connect 5 0 8 0;
#X connect 6 0 7 0;
#X connect 7 0 5 0;
#X connect 7 1 2 0;
#X connect 7 2 4 0;
#X connect 8 0 3 0;
#X connect 9 0 8 1;
#X connect 10 0 13 1;
#X connect 11 0 14 1;
#X connect 12 0 11 0;
#X connect 12 0 10 0;
#X connect 12 0 9 0;
#X connect 13 0 3 0;
#X connect 14 0 3 0;
#X restore 78 197 pd voter;
#N canvas 0 0 594 514 voter 0;
#X obj 135 415 outlet~;
#X obj 135 388 hip~ 5;
#X msg 224 96 90;
#X obj 135 322 *~ 0.333;
#X msg 336 94 95;
#X msg 72 96 83;
#X obj 271 1 inlet;
#X obj 271 29 sel 0 1 2;
#N canvas 0 0 469 371 xylophone 0;
#X obj 127 213 *~;
#X obj 127 245 *~;
#X obj 219 129 vline~;
#X msg 219 96 1 0 0 \, 0 400 0;
#X obj 127 278 outlet~;
#X obj 338 137 inlet~ amp;
#X obj 220 154 *~;
#X obj 126 88 osc~;
#X obj 123 61 mtof;
#X obj 135 6 inlet note;
#X obj 83 321 switch~;
#X obj 83 299 > 1;
#X obj 86 277 env~;
#X obj 135 29 t f b b;
#X msg 197 52 1;
#X connect 0 0 1 0;
#X connect 1 0 4 0;
#X connect 1 0 12 0;
#X connect 2 0 6 0;
#X connect 2 0 6 1;
#X connect 3 0 2 0;
#X connect 5 0 1 1;
#X connect 6 0 0 1;
#X connect 7 0 0 0;
#X connect 8 0 7 0;
#X connect 9 0 13 0;
#X connect 11 0 10 0;
#X connect 12 0 11 0;
#X connect 13 0 8 0;
#X connect 13 1 3 0;
#X connect 13 2 14 0;
#X connect 14 0 10 0;
#X restore 72 145 pd xylophone;
#X obj 152 121 sig~ 1;
#X obj 303 118 sig~ 1;
#X obj 414 117 sig~ 1;
#X obj 389 55 r \$0-amp;
#N canvas 0 0 469 371 xylophone 0;
#X obj 127 213 *~;
#X obj 127 245 *~;
#X obj 219 129 vline~;
#X msg 219 96 1 0 0 \, 0 400 0;
#X obj 127 278 outlet~;
#X obj 338 137 inlet~ amp;
#X obj 220 154 *~;
#X obj 126 88 osc~;
#X obj 123 61 mtof;
#X obj 135 6 inlet note;
#X obj 83 321 switch~;
#X obj 83 299 > 1;
#X obj 86 277 env~;
#X obj 135 29 t f b b;
#X msg 197 52 1;
#X connect 0 0 1 0;
#X connect 1 0 4 0;
#X connect 1 0 12 0;
#X connect 2 0 6 0;
#X connect 2 0 6 1;
#X connect 3 0 2 0;
#X connect 5 0 1 1;
#X connect 6 0 0 1;
#X connect 7 0 0 0;
#X connect 8 0 7 0;
#X connect 9 0 13 0;
#X connect 11 0 10 0;
#X connect 12 0 11 0;
#X connect 13 0 8 0;
#X connect 13 1 3 0;
#X connect 13 2 14 0;
#X connect 14 0 10 0;
#X restore 224 148 pd xylophone;
#N canvas 0 0 469 371 xylophone 0;
#X obj 127 213 *~;
#X obj 127 245 *~;
#X obj 219 129 vline~;
#X msg 219 96 1 0 0 \, 0 400 0;
#X obj 127 278 outlet~;
#X obj 338 137 inlet~ amp;
#X obj 220 154 *~;
#X obj 126 88 osc~;
#X obj 123 61 mtof;
#X obj 135 6 inlet note;
#X obj 83 321 switch~;
#X obj 83 299 > 1;
#X obj 86 277 env~;
#X obj 135 29 t f b b;
#X msg 197 52 1;
#X connect 0 0 1 0;
#X connect 1 0 4 0;
#X connect 1 0 12 0;
#X connect 2 0 6 0;
#X connect 2 0 6 1;
#X connect 3 0 2 0;
#X connect 5 0 1 1;
#X connect 6 0 0 1;
#X connect 7 0 0 0;
#X connect 8 0 7 0;
#X connect 9 0 13 0;
#X connect 11 0 10 0;
#X connect 12 0 11 0;
#X connect 13 0 8 0;
#X connect 13 1 3 0;
#X connect 13 2 14 0;
#X connect 14 0 10 0;
#X restore 336 151 pd xylophone;
#X connect 1 0 0 0;
#X connect 2 0 13 0;
#X connect 3 0 1 0;
#X connect 4 0 14 0;
#X connect 5 0 8 0;
#X connect 6 0 7 0;
#X connect 7 0 5 0;
#X connect 7 1 2 0;
#X connect 7 2 4 0;
#X connect 8 0 3 0;
#X connect 9 0 8 1;
#X connect 10 0 13 1;
#X connect 11 0 14 1;
#X connect 12 0 11 0;
#X connect 12 0 10 0;
#X connect 12 0 9 0;
#X connect 13 0 3 0;
#X connect 14 0 3 0;
#X restore 144 197 pd voter;
#N canvas 0 0 594 514 voter 0;
#X obj 135 415 outlet~;
#X obj 135 388 hip~ 5;
#X msg 224 96 90;
#X obj 135 322 *~ 0.333;
#X msg 336 94 95;
#X msg 72 96 83;
#X obj 271 1 inlet;
#X obj 271 29 sel 0 1 2;
#N canvas 0 0 469 371 xylophone 0;
#X obj 127 213 *~;
#X obj 127 245 *~;
#X obj 219 129 vline~;
#X msg 219 96 1 0 0 \, 0 400 0;
#X obj 127 278 outlet~;
#X obj 338 137 inlet~ amp;
#X obj 220 154 *~;
#X obj 126 88 osc~;
#X obj 123 61 mtof;
#X obj 135 6 inlet note;
#X obj 83 321 switch~;
#X obj 83 299 > 1;
#X obj 86 277 env~;
#X obj 135 29 t f b b;
#X msg 197 52 1;
#X connect 0 0 1 0;
#X connect 1 0 4 0;
#X connect 1 0 12 0;
#X connect 2 0 6 0;
#X connect 2 0 6 1;
#X connect 3 0 2 0;
#X connect 5 0 1 1;
#X connect 6 0 0 1;
#X connect 7 0 0 0;
#X connect 8 0 7 0;
#X connect 9 0 13 0;
#X connect 11 0 10 0;
#X connect 12 0 11 0;
#X connect 13 0 8 0;
#X connect 13 1 3 0;
#X connect 13 2 14 0;
#X connect 14 0 10 0;
#X restore 72 145 pd xylophone;
#X obj 152 121 sig~ 1;
#X obj 303 118 sig~ 1;
#X obj 414 117 sig~ 1;
#X obj 389 55 r \$0-amp;
#N canvas 0 0 469 371 xylophone 0;
#X obj 127 213 *~;
#X obj 127 245 *~;
#X obj 219 129 vline~;
#X msg 219 96 1 0 0 \, 0 400 0;
#X obj 127 278 outlet~;
#X obj 338 137 inlet~ amp;
#X obj 220 154 *~;
#X obj 126 88 osc~;
#X obj 123 61 mtof;
#X obj 135 6 inlet note;
#X obj 83 321 switch~;
#X obj 83 299 > 1;
#X obj 86 277 env~;
#X obj 135 29 t f b b;
#X msg 197 52 1;
#X connect 0 0 1 0;
#X connect 1 0 4 0;
#X connect 1 0 12 0;
#X connect 2 0 6 0;
#X connect 2 0 6 1;
#X connect 3 0 2 0;
#X connect 5 0 1 1;
#X connect 6 0 0 1;
#X connect 7 0 0 0;
#X connect 8 0 7 0;
#X connect 9 0 13 0;
#X connect 11 0 10 0;
#X connect 12 0 11 0;
#X connect 13 0 8 0;
#X connect 13 1 3 0;
#X connect 13 2 14 0;
#X connect 14 0 10 0;
#X restore 224 148 pd xylophone;
#N canvas 0 0 469 371 xylophone 0;
#X obj 127 213 *~;
#X obj 127 245 *~;
#X obj 219 129 vline~;
#X msg 219 96 1 0 0 \, 0 400 0;
#X obj 127 278 outlet~;
#X obj 338 137 inlet~ amp;
#X obj 220 154 *~;
#X obj 126 88 osc~;
#X obj 123 61 mtof;
#X obj 135 6 inlet note;
#X obj 83 321 switch~;
#X obj 83 299 > 1;
#X obj 86 277 env~;
#X obj 135 29 t f b b;
#X msg 197 52 1;
#X connect 0 0 1 0;
#X connect 1 0 4 0;
#X connect 1 0 12 0;
#X connect 2 0 6 0;
#X connect 2 0 6 1;
#X connect 3 0 2 0;
#X connect 5 0 1 1;
#X connect 6 0 0 1;
#X connect 7 0 0 0;
#X connect 8 0 7 0;
#X connect 9 0 13 0;
#X connect 11 0 10 0;
#X connect 12 0 11 0;
#X connect 13 0 8 0;
#X connect 13 1 3 0;
#X connect 13 2 14 0;
#X connect 14 0 10 0;
#X restore 336 151 pd xylophone;
#X connect 1 0 0 0;
#X connect 2 0 13 0;
#X connect 3 0 1 0;
#X connect 4 0 14 0;
#X connect 5 0 8 0;
#X connect 6 0 7 0;
#X connect 7 0 5 0;
#X connect 7 1 2 0;
#X connect 7 2 4 0;
#X connect 8 0 3 0;
#X connect 9 0 8 1;
#X connect 10 0 13 1;
#X connect 11 0 14 1;
#X connect 12 0 11 0;
#X connect 12 0 10 0;
#X connect 12 0 9 0;
#X connect 13 0 3 0;
#X connect 14 0 3 0;
#X restore 211 198 pd voter;
#N canvas 0 0 594 514 voter 0;
#X obj 135 415 outlet~;
#X obj 135 388 hip~ 5;
#X msg 224 96 90;
#X obj 135 322 *~ 0.333;
#X msg 336 94 95;
#X msg 72 96 83;
#X obj 271 1 inlet;
#X obj 271 29 sel 0 1 2;
#N canvas 0 0 469 371 xylophone 0;
#X obj 127 213 *~;
#X obj 127 245 *~;
#X obj 219 129 vline~;
#X msg 219 96 1 0 0 \, 0 400 0;
#X obj 127 278 outlet~;
#X obj 338 137 inlet~ amp;
#X obj 220 154 *~;
#X obj 126 88 osc~;
#X obj 123 61 mtof;
#X obj 135 6 inlet note;
#X obj 83 321 switch~;
#X obj 83 299 > 1;
#X obj 86 277 env~;
#X obj 135 29 t f b b;
#X msg 197 52 1;
#X connect 0 0 1 0;
#X connect 1 0 4 0;
#X connect 1 0 12 0;
#X connect 2 0 6 0;
#X connect 2 0 6 1;
#X connect 3 0 2 0;
#X connect 5 0 1 1;
#X connect 6 0 0 1;
#X connect 7 0 0 0;
#X connect 8 0 7 0;
#X connect 9 0 13 0;
#X connect 11 0 10 0;
#X connect 12 0 11 0;
#X connect 13 0 8 0;
#X connect 13 1 3 0;
#X connect 13 2 14 0;
#X connect 14 0 10 0;
#X restore 72 145 pd xylophone;
#X obj 152 121 sig~ 1;
#X obj 303 118 sig~ 1;
#X obj 414 117 sig~ 1;
#X obj 389 55 r \$0-amp;
#N canvas 0 0 469 371 xylophone 0;
#X obj 127 213 *~;
#X obj 127 245 *~;
#X obj 219 129 vline~;
#X msg 219 96 1 0 0 \, 0 400 0;
#X obj 127 278 outlet~;
#X obj 338 137 inlet~ amp;
#X obj 220 154 *~;
#X obj 126 88 osc~;
#X obj 123 61 mtof;
#X obj 135 6 inlet note;
#X obj 83 321 switch~;
#X obj 83 299 > 1;
#X obj 86 277 env~;
#X obj 135 29 t f b b;
#X msg 197 52 1;
#X connect 0 0 1 0;
#X connect 1 0 4 0;
#X connect 1 0 12 0;
#X connect 2 0 6 0;
#X connect 2 0 6 1;
#X connect 3 0 2 0;
#X connect 5 0 1 1;
#X connect 6 0 0 1;
#X connect 7 0 0 0;
#X connect 8 0 7 0;
#X connect 9 0 13 0;
#X connect 11 0 10 0;
#X connect 12 0 11 0;
#X connect 13 0 8 0;
#X connect 13 1 3 0;
#X connect 13 2 14 0;
#X connect 14 0 10 0;
#X restore 224 148 pd xylophone;
#N canvas 0 0 469 371 xylophone 0;
#X obj 127 213 *~;
#X obj 127 245 *~;
#X obj 219 129 vline~;
#X msg 219 96 1 0 0 \, 0 400 0;
#X obj 127 278 outlet~;
#X obj 338 137 inlet~ amp;
#X obj 220 154 *~;
#X obj 126 88 osc~;
#X obj 123 61 mtof;
#X obj 135 6 inlet note;
#X obj 83 321 switch~;
#X obj 83 299 > 1;
#X obj 86 277 env~;
#X obj 135 29 t f b b;
#X msg 197 52 1;
#X connect 0 0 1 0;
#X connect 1 0 4 0;
#X connect 1 0 12 0;
#X connect 2 0 6 0;
#X connect 2 0 6 1;
#X connect 3 0 2 0;
#X connect 5 0 1 1;
#X connect 6 0 0 1;
#X connect 7 0 0 0;
#X connect 8 0 7 0;
#X connect 9 0 13 0;
#X connect 11 0 10 0;
#X connect 12 0 11 0;
#X connect 13 0 8 0;
#X connect 13 1 3 0;
#X connect 13 2 14 0;
#X connect 14 0 10 0;
#X restore 336 151 pd xylophone;
#X connect 1 0 0 0;
#X connect 2 0 13 0;
#X connect 3 0 1 0;
#X connect 4 0 14 0;
#X connect 5 0 8 0;
#X connect 6 0 7 0;
#X connect 7 0 5 0;
#X connect 7 1 2 0;
#X connect 7 2 4 0;
#X connect 8 0 3 0;
#X connect 9 0 8 1;
#X connect 10 0 13 1;
#X connect 11 0 14 1;
#X connect 12 0 11 0;
#X connect 12 0 10 0;
#X connect 12 0 9 0;
#X connect 13 0 3 0;
#X connect 14 0 3 0;
#X restore 277 197 pd voter;
#N canvas 0 0 594 514 voter 0;
#X obj 135 415 outlet~;
#X obj 135 388 hip~ 5;
#X msg 224 96 90;
#X obj 135 322 *~ 0.333;
#X msg 336 94 95;
#X msg 72 96 83;
#X obj 271 1 inlet;
#X obj 271 29 sel 0 1 2;
#N canvas 0 0 469 371 xylophone 0;
#X obj 127 213 *~;
#X obj 127 245 *~;
#X obj 219 129 vline~;
#X msg 219 96 1 0 0 \, 0 400 0;
#X obj 127 278 outlet~;
#X obj 338 137 inlet~ amp;
#X obj 220 154 *~;
#X obj 126 88 osc~;
#X obj 123 61 mtof;
#X obj 135 6 inlet note;
#X obj 83 321 switch~;
#X obj 83 299 > 1;
#X obj 86 277 env~;
#X obj 135 29 t f b b;
#X msg 197 52 1;
#X connect 0 0 1 0;
#X connect 1 0 4 0;
#X connect 1 0 12 0;
#X connect 2 0 6 0;
#X connect 2 0 6 1;
#X connect 3 0 2 0;
#X connect 5 0 1 1;
#X connect 6 0 0 1;
#X connect 7 0 0 0;
#X connect 8 0 7 0;
#X connect 9 0 13 0;
#X connect 11 0 10 0;
#X connect 12 0 11 0;
#X connect 13 0 8 0;
#X connect 13 1 3 0;
#X connect 13 2 14 0;
#X connect 14 0 10 0;
#X restore 72 145 pd xylophone;
#X obj 152 121 sig~ 1;
#X obj 303 118 sig~ 1;
#X obj 414 117 sig~ 1;
#X obj 389 55 r \$0-amp;
#N canvas 0 0 469 371 xylophone 0;
#X obj 127 213 *~;
#X obj 127 245 *~;
#X obj 219 129 vline~;
#X msg 219 96 1 0 0 \, 0 400 0;
#X obj 127 278 outlet~;
#X obj 338 137 inlet~ amp;
#X obj 220 154 *~;
#X obj 126 88 osc~;
#X obj 123 61 mtof;
#X obj 135 6 inlet note;
#X obj 83 321 switch~;
#X obj 83 299 > 1;
#X obj 86 277 env~;
#X obj 135 29 t f b b;
#X msg 197 52 1;
#X connect 0 0 1 0;
#X connect 1 0 4 0;
#X connect 1 0 12 0;
#X connect 2 0 6 0;
#X connect 2 0 6 1;
#X connect 3 0 2 0;
#X connect 5 0 1 1;
#X connect 6 0 0 1;
#X connect 7 0 0 0;
#X connect 8 0 7 0;
#X connect 9 0 13 0;
#X connect 11 0 10 0;
#X connect 12 0 11 0;
#X connect 13 0 8 0;
#X connect 13 1 3 0;
#X connect 13 2 14 0;
#X connect 14 0 10 0;
#X restore 224 148 pd xylophone;
#N canvas 0 0 469 371 xylophone 0;
#X obj 127 213 *~;
#X obj 127 245 *~;
#X obj 219 129 vline~;
#X msg 219 96 1 0 0 \, 0 400 0;
#X obj 127 278 outlet~;
#X obj 338 137 inlet~ amp;
#X obj 220 154 *~;
#X obj 126 88 osc~;
#X obj 123 61 mtof;
#X obj 135 6 inlet note;
#X obj 83 321 switch~;
#X obj 83 299 > 1;
#X obj 86 277 env~;
#X obj 135 29 t f b b;
#X msg 197 52 1;
#X connect 0 0 1 0;
#X connect 1 0 4 0;
#X connect 1 0 12 0;
#X connect 2 0 6 0;
#X connect 2 0 6 1;
#X connect 3 0 2 0;
#X connect 5 0 1 1;
#X connect 6 0 0 1;
#X connect 7 0 0 0;
#X connect 8 0 7 0;
#X connect 9 0 13 0;
#X connect 11 0 10 0;
#X connect 12 0 11 0;
#X connect 13 0 8 0;
#X connect 13 1 3 0;
#X connect 13 2 14 0;
#X connect 14 0 10 0;
#X restore 336 151 pd xylophone;
#X connect 1 0 0 0;
#X connect 2 0 13 0;
#X connect 3 0 1 0;
#X connect 4 0 14 0;
#X connect 5 0 8 0;
#X connect 6 0 7 0;
#X connect 7 0 5 0;
#X connect 7 1 2 0;
#X connect 7 2 4 0;
#X connect 8 0 3 0;
#X connect 9 0 8 1;
#X connect 10 0 13 1;
#X connect 11 0 14 1;
#X connect 12 0 11 0;
#X connect 12 0 10 0;
#X connect 12 0 9 0;
#X connect 13 0 3 0;
#X connect 14 0 3 0;
#X restore 344 198 pd voter;
#N canvas 0 0 594 514 voter 0;
#X obj 135 415 outlet~;
#X obj 135 388 hip~ 5;
#X msg 224 96 90;
#X obj 135 322 *~ 0.333;
#X msg 336 94 95;
#X msg 72 96 83;
#X obj 271 1 inlet;
#X obj 271 29 sel 0 1 2;
#N canvas 0 0 469 371 xylophone 0;
#X obj 127 213 *~;
#X obj 127 245 *~;
#X obj 219 129 vline~;
#X msg 219 96 1 0 0 \, 0 400 0;
#X obj 127 278 outlet~;
#X obj 338 137 inlet~ amp;
#X obj 220 154 *~;
#X obj 126 88 osc~;
#X obj 123 61 mtof;
#X obj 135 6 inlet note;
#X obj 83 321 switch~;
#X obj 83 299 > 1;
#X obj 86 277 env~;
#X obj 135 29 t f b b;
#X msg 197 52 1;
#X connect 0 0 1 0;
#X connect 1 0 4 0;
#X connect 1 0 12 0;
#X connect 2 0 6 0;
#X connect 2 0 6 1;
#X connect 3 0 2 0;
#X connect 5 0 1 1;
#X connect 6 0 0 1;
#X connect 7 0 0 0;
#X connect 8 0 7 0;
#X connect 9 0 13 0;
#X connect 11 0 10 0;
#X connect 12 0 11 0;
#X connect 13 0 8 0;
#X connect 13 1 3 0;
#X connect 13 2 14 0;
#X connect 14 0 10 0;
#X restore 72 145 pd xylophone;
#X obj 152 121 sig~ 1;
#X obj 303 118 sig~ 1;
#X obj 414 117 sig~ 1;
#X obj 389 55 r \$0-amp;
#N canvas 0 0 469 371 xylophone 0;
#X obj 127 213 *~;
#X obj 127 245 *~;
#X obj 219 129 vline~;
#X msg 219 96 1 0 0 \, 0 400 0;
#X obj 127 278 outlet~;
#X obj 338 137 inlet~ amp;
#X obj 220 154 *~;
#X obj 126 88 osc~;
#X obj 123 61 mtof;
#X obj 135 6 inlet note;
#X obj 83 321 switch~;
#X obj 83 299 > 1;
#X obj 86 277 env~;
#X obj 135 29 t f b b;
#X msg 197 52 1;
#X connect 0 0 1 0;
#X connect 1 0 4 0;
#X connect 1 0 12 0;
#X connect 2 0 6 0;
#X connect 2 0 6 1;
#X connect 3 0 2 0;
#X connect 5 0 1 1;
#X connect 6 0 0 1;
#X connect 7 0 0 0;
#X connect 8 0 7 0;
#X connect 9 0 13 0;
#X connect 11 0 10 0;
#X connect 12 0 11 0;
#X connect 13 0 8 0;
#X connect 13 1 3 0;
#X connect 13 2 14 0;
#X connect 14 0 10 0;
#X restore 224 148 pd xylophone;
#N canvas 0 0 469 371 xylophone 0;
#X obj 127 213 *~;
#X obj 127 245 *~;
#X obj 219 129 vline~;
#X msg 219 96 1 0 0 \, 0 400 0;
#X obj 127 278 outlet~;
#X obj 338 137 inlet~ amp;
#X obj 220 154 *~;
#X obj 126 88 osc~;
#X obj 123 61 mtof;
#X obj 135 6 inlet note;
#X obj 83 321 switch~;
#X obj 83 299 > 1;
#X obj 86 277 env~;
#X obj 135 29 t f b b;
#X msg 197 52 1;
#X connect 0 0 1 0;
#X connect 1 0 4 0;
#X connect 1 0 12 0;
#X connect 2 0 6 0;
#X connect 2 0 6 1;
#X connect 3 0 2 0;
#X connect 5 0 1 1;
#X connect 6 0 0 1;
#X connect 7 0 0 0;
#X connect 8 0 7 0;
#X connect 9 0 13 0;
#X connect 11 0 10 0;
#X connect 12 0 11 0;
#X connect 13 0 8 0;
#X connect 13 1 3 0;
#X connect 13 2 14 0;
#X connect 14 0 10 0;
#X restore 336 151 pd xylophone;
#X connect 1 0 0 0;
#X connect 2 0 13 0;
#X connect 3 0 1 0;
#X connect 4 0 14 0;
#X connect 5 0 8 0;
#X connect 6 0 7 0;
#X connect 7 0 5 0;
#X connect 7 1 2 0;
#X connect 7 2 4 0;
#X connect 8 0 3 0;
#X connect 9 0 8 1;
#X connect 10 0 13 1;
#X connect 11 0 14 1;
#X connect 12 0 11 0;
#X connect 12 0 10 0;
#X connect 12 0 9 0;
#X connect 13 0 3 0;
#X connect 14 0 3 0;
#X restore 410 198 pd voter;
#N canvas 0 0 594 514 voter 0;
#X obj 135 415 outlet~;
#X obj 135 388 hip~ 5;
#X msg 224 96 90;
#X obj 135 322 *~ 0.333;
#X msg 336 94 95;
#X msg 72 96 83;
#X obj 271 1 inlet;
#X obj 271 29 sel 0 1 2;
#N canvas 0 0 469 371 xylophone 0;
#X obj 127 213 *~;
#X obj 127 245 *~;
#X obj 219 129 vline~;
#X msg 219 96 1 0 0 \, 0 400 0;
#X obj 127 278 outlet~;
#X obj 338 137 inlet~ amp;
#X obj 220 154 *~;
#X obj 126 88 osc~;
#X obj 123 61 mtof;
#X obj 135 6 inlet note;
#X obj 83 321 switch~;
#X obj 83 299 > 1;
#X obj 86 277 env~;
#X obj 135 29 t f b b;
#X msg 197 52 1;
#X connect 0 0 1 0;
#X connect 1 0 4 0;
#X connect 1 0 12 0;
#X connect 2 0 6 0;
#X connect 2 0 6 1;
#X connect 3 0 2 0;
#X connect 5 0 1 1;
#X connect 6 0 0 1;
#X connect 7 0 0 0;
#X connect 8 0 7 0;
#X connect 9 0 13 0;
#X connect 11 0 10 0;
#X connect 12 0 11 0;
#X connect 13 0 8 0;
#X connect 13 1 3 0;
#X connect 13 2 14 0;
#X connect 14 0 10 0;
#X restore 72 145 pd xylophone;
#X obj 152 121 sig~ 1;
#X obj 303 118 sig~ 1;
#X obj 414 117 sig~ 1;
#X obj 389 55 r \$0-amp;
#N canvas 0 0 469 371 xylophone 0;
#X obj 127 213 *~;
#X obj 127 245 *~;
#X obj 219 129 vline~;
#X msg 219 96 1 0 0 \, 0 400 0;
#X obj 127 278 outlet~;
#X obj 338 137 inlet~ amp;
#X obj 220 154 *~;
#X obj 126 88 osc~;
#X obj 123 61 mtof;
#X obj 135 6 inlet note;
#X obj 83 321 switch~;
#X obj 83 299 > 1;
#X obj 86 277 env~;
#X obj 135 29 t f b b;
#X msg 197 52 1;
#X connect 0 0 1 0;
#X connect 1 0 4 0;
#X connect 1 0 12 0;
#X connect 2 0 6 0;
#X connect 2 0 6 1;
#X connect 3 0 2 0;
#X connect 5 0 1 1;
#X connect 6 0 0 1;
#X connect 7 0 0 0;
#X connect 8 0 7 0;
#X connect 9 0 13 0;
#X connect 11 0 10 0;
#X connect 12 0 11 0;
#X connect 13 0 8 0;
#X connect 13 1 3 0;
#X connect 13 2 14 0;
#X connect 14 0 10 0;
#X restore 224 148 pd xylophone;
#N canvas 0 0 469 371 xylophone 0;
#X obj 127 213 *~;
#X obj 127 245 *~;
#X obj 219 129 vline~;
#X msg 219 96 1 0 0 \, 0 400 0;
#X obj 127 278 outlet~;
#X obj 338 137 inlet~ amp;
#X obj 220 154 *~;
#X obj 126 88 osc~;
#X obj 123 61 mtof;
#X obj 135 6 inlet note;
#X obj 83 321 switch~;
#X obj 83 299 > 1;
#X obj 86 277 env~;
#X obj 135 29 t f b b;
#X msg 197 52 1;
#X connect 0 0 1 0;
#X connect 1 0 4 0;
#X connect 1 0 12 0;
#X connect 2 0 6 0;
#X connect 2 0 6 1;
#X connect 3 0 2 0;
#X connect 5 0 1 1;
#X connect 6 0 0 1;
#X connect 7 0 0 0;
#X connect 8 0 7 0;
#X connect 9 0 13 0;
#X connect 11 0 10 0;
#X connect 12 0 11 0;
#X connect 13 0 8 0;
#X connect 13 1 3 0;
#X connect 13 2 14 0;
#X connect 14 0 10 0;
#X restore 336 151 pd xylophone;
#X connect 1 0 0 0;
#X connect 2 0 13 0;
#X connect 3 0 1 0;
#X connect 4 0 14 0;
#X connect 5 0 8 0;
#X connect 6 0 7 0;
#X connect 7 0 5 0;
#X connect 7 1 2 0;
#X connect 7 2 4 0;
#X connect 8 0 3 0;
#X connect 9 0 8 1;
#X connect 10 0 13 1;
#X connect 11 0 14 1;
#X connect 12 0 11 0;
#X connect 12 0 10 0;
#X connect 12 0 9 0;
#X connect 13 0 3 0;
#X connect 14 0 3 0;
#X restore 477 199 pd voter;
#N canvas 0 0 594 514 voter 0;
#X obj 135 415 outlet~;
#X obj 135 388 hip~ 5;
#X msg 224 96 90;
#X obj 135 322 *~ 0.333;
#X msg 336 94 95;
#X msg 72 96 83;
#X obj 271 1 inlet;
#X obj 271 29 sel 0 1 2;
#N canvas 0 0 469 371 xylophone 0;
#X obj 127 213 *~;
#X obj 127 245 *~;
#X obj 219 129 vline~;
#X msg 219 96 1 0 0 \, 0 400 0;
#X obj 127 278 outlet~;
#X obj 338 137 inlet~ amp;
#X obj 220 154 *~;
#X obj 126 88 osc~;
#X obj 123 61 mtof;
#X obj 135 6 inlet note;
#X obj 83 321 switch~;
#X obj 83 299 > 1;
#X obj 86 277 env~;
#X obj 135 29 t f b b;
#X msg 197 52 1;
#X connect 0 0 1 0;
#X connect 1 0 4 0;
#X connect 1 0 12 0;
#X connect 2 0 6 0;
#X connect 2 0 6 1;
#X connect 3 0 2 0;
#X connect 5 0 1 1;
#X connect 6 0 0 1;
#X connect 7 0 0 0;
#X connect 8 0 7 0;
#X connect 9 0 13 0;
#X connect 11 0 10 0;
#X connect 12 0 11 0;
#X connect 13 0 8 0;
#X connect 13 1 3 0;
#X connect 13 2 14 0;
#X connect 14 0 10 0;
#X restore 72 145 pd xylophone;
#X obj 152 121 sig~ 1;
#X obj 303 118 sig~ 1;
#X obj 414 117 sig~ 1;
#X obj 389 55 r \$0-amp;
#N canvas 0 0 469 371 xylophone 0;
#X obj 127 213 *~;
#X obj 127 245 *~;
#X obj 219 129 vline~;
#X msg 219 96 1 0 0 \, 0 400 0;
#X obj 127 278 outlet~;
#X obj 338 137 inlet~ amp;
#X obj 220 154 *~;
#X obj 126 88 osc~;
#X obj 123 61 mtof;
#X obj 135 6 inlet note;
#X obj 83 321 switch~;
#X obj 83 299 > 1;
#X obj 86 277 env~;
#X obj 135 29 t f b b;
#X msg 197 52 1;
#X connect 0 0 1 0;
#X connect 1 0 4 0;
#X connect 1 0 12 0;
#X connect 2 0 6 0;
#X connect 2 0 6 1;
#X connect 3 0 2 0;
#X connect 5 0 1 1;
#X connect 6 0 0 1;
#X connect 7 0 0 0;
#X connect 8 0 7 0;
#X connect 9 0 13 0;
#X connect 11 0 10 0;
#X connect 12 0 11 0;
#X connect 13 0 8 0;
#X connect 13 1 3 0;
#X connect 13 2 14 0;
#X connect 14 0 10 0;
#X restore 224 148 pd xylophone;
#N canvas 0 0 469 371 xylophone 0;
#X obj 127 213 *~;
#X obj 127 245 *~;
#X obj 219 129 vline~;
#X msg 219 96 1 0 0 \, 0 400 0;
#X obj 127 278 outlet~;
#X obj 338 137 inlet~ amp;
#X obj 220 154 *~;
#X obj 126 88 osc~;
#X obj 123 61 mtof;
#X obj 135 6 inlet note;
#X obj 83 321 switch~;
#X obj 83 299 > 1;
#X obj 86 277 env~;
#X obj 135 29 t f b b;
#X msg 197 52 1;
#X connect 0 0 1 0;
#X connect 1 0 4 0;
#X connect 1 0 12 0;
#X connect 2 0 6 0;
#X connect 2 0 6 1;
#X connect 3 0 2 0;
#X connect 5 0 1 1;
#X connect 6 0 0 1;
#X connect 7 0 0 0;
#X connect 8 0 7 0;
#X connect 9 0 13 0;
#X connect 11 0 10 0;
#X connect 12 0 11 0;
#X connect 13 0 8 0;
#X connect 13 1 3 0;
#X connect 13 2 14 0;
#X connect 14 0 10 0;
#X restore 336 151 pd xylophone;
#X connect 1 0 0 0;
#X connect 2 0 13 0;
#X connect 3 0 1 0;
#X connect 4 0 14 0;
#X connect 5 0 8 0;
#X connect 6 0 7 0;
#X connect 7 0 5 0;
#X connect 7 1 2 0;
#X connect 7 2 4 0;
#X connect 8 0 3 0;
#X connect 9 0 8 1;
#X connect 10 0 13 1;
#X connect 11 0 14 1;
#X connect 12 0 11 0;
#X connect 12 0 10 0;
#X connect 12 0 9 0;
#X connect 13 0 3 0;
#X connect 14 0 3 0;
#X restore 545 197 pd voter;
#N canvas 0 0 594 514 voter 0;
#X obj 135 415 outlet~;
#X obj 135 388 hip~ 5;
#X msg 224 96 90;
#X obj 135 322 *~ 0.333;
#X msg 336 94 95;
#X msg 72 96 83;
#X obj 271 1 inlet;
#X obj 271 29 sel 0 1 2;
#N canvas 0 0 469 371 xylophone 0;
#X obj 127 213 *~;
#X obj 127 245 *~;
#X obj 219 129 vline~;
#X msg 219 96 1 0 0 \, 0 400 0;
#X obj 127 278 outlet~;
#X obj 338 137 inlet~ amp;
#X obj 220 154 *~;
#X obj 126 88 osc~;
#X obj 123 61 mtof;
#X obj 135 6 inlet note;
#X obj 83 321 switch~;
#X obj 83 299 > 1;
#X obj 86 277 env~;
#X obj 135 29 t f b b;
#X msg 197 52 1;
#X connect 0 0 1 0;
#X connect 1 0 4 0;
#X connect 1 0 12 0;
#X connect 2 0 6 0;
#X connect 2 0 6 1;
#X connect 3 0 2 0;
#X connect 5 0 1 1;
#X connect 6 0 0 1;
#X connect 7 0 0 0;
#X connect 8 0 7 0;
#X connect 9 0 13 0;
#X connect 11 0 10 0;
#X connect 12 0 11 0;
#X connect 13 0 8 0;
#X connect 13 1 3 0;
#X connect 13 2 14 0;
#X connect 14 0 10 0;
#X restore 72 145 pd xylophone;
#X obj 152 121 sig~ 1;
#X obj 303 118 sig~ 1;
#X obj 414 117 sig~ 1;
#X obj 389 55 r \$0-amp;
#N canvas 0 0 469 371 xylophone 0;
#X obj 127 213 *~;
#X obj 127 245 *~;
#X obj 219 129 vline~;
#X msg 219 96 1 0 0 \, 0 400 0;
#X obj 127 278 outlet~;
#X obj 338 137 inlet~ amp;
#X obj 220 154 *~;
#X obj 126 88 osc~;
#X obj 123 61 mtof;
#X obj 135 6 inlet note;
#X obj 83 321 switch~;
#X obj 83 299 > 1;
#X obj 86 277 env~;
#X obj 135 29 t f b b;
#X msg 197 52 1;
#X connect 0 0 1 0;
#X connect 1 0 4 0;
#X connect 1 0 12 0;
#X connect 2 0 6 0;
#X connect 2 0 6 1;
#X connect 3 0 2 0;
#X connect 5 0 1 1;
#X connect 6 0 0 1;
#X connect 7 0 0 0;
#X connect 8 0 7 0;
#X connect 9 0 13 0;
#X connect 11 0 10 0;
#X connect 12 0 11 0;
#X connect 13 0 8 0;
#X connect 13 1 3 0;
#X connect 13 2 14 0;
#X connect 14 0 10 0;
#X restore 224 148 pd xylophone;
#N canvas 0 0 469 371 xylophone 0;
#X obj 127 213 *~;
#X obj 127 245 *~;
#X obj 219 129 vline~;
#X msg 219 96 1 0 0 \, 0 400 0;
#X obj 127 278 outlet~;
#X obj 338 137 inlet~ amp;
#X obj 220 154 *~;
#X obj 126 88 osc~;
#X obj 123 61 mtof;
#X obj 135 6 inlet note;
#X obj 83 321 switch~;
#X obj 83 299 > 1;
#X obj 86 277 env~;
#X obj 135 29 t f b b;
#X msg 197 52 1;
#X connect 0 0 1 0;
#X connect 1 0 4 0;
#X connect 1 0 12 0;
#X connect 2 0 6 0;
#X connect 2 0 6 1;
#X connect 3 0 2 0;
#X connect 5 0 1 1;
#X connect 6 0 0 1;
#X connect 7 0 0 0;
#X connect 8 0 7 0;
#X connect 9 0 13 0;
#X connect 11 0 10 0;
#X connect 12 0 11 0;
#X connect 13 0 8 0;
#X connect 13 1 3 0;
#X connect 13 2 14 0;
#X connect 14 0 10 0;
#X restore 336 151 pd xylophone;
#X connect 1 0 0 0;
#X connect 2 0 13 0;
#X connect 3 0 1 0;
#X connect 4 0 14 0;
#X connect 5 0 8 0;
#X connect 6 0 7 0;
#X connect 7 0 5 0;
#X connect 7 1 2 0;
#X connect 7 2 4 0;
#X connect 8 0 3 0;
#X connect 9 0 8 1;
#X connect 10 0 13 1;
#X connect 11 0 14 1;
#X connect 12 0 11 0;
#X connect 12 0 10 0;
#X connect 12 0 9 0;
#X connect 13 0 3 0;
#X connect 14 0 3 0;
#X restore 612 198 pd voter;
#X obj 217 361 *~ 1;
#X connect 0 0 42 0;
#X connect 2 0 42 1;
#X connect 3 0 2 0;
#X connect 4 0 23 0;
#X connect 4 1 24 0;
#X connect 4 2 25 0;
#X connect 4 3 26 0;
#X connect 4 4 27 0;
#X connect 4 5 28 0;
#X connect 4 6 29 0;
#X connect 4 7 30 0;
#X connect 4 8 31 0;
#X connect 4 9 32 0;
#X connect 5 0 4 0;
#X connect 6 0 0 0;
#X connect 6 0 7 0;
#X connect 7 0 22 0;
#X connect 8 0 4 0;
#X connect 9 0 11 0;
#X connect 11 0 42 0;
#X connect 12 0 11 1;
#X connect 13 0 7 1;
#X connect 13 0 33 0;
#X connect 14 0 7 2;
#X connect 14 0 34 0;
#X connect 15 0 7 3;
#X connect 15 0 35 0;
#X connect 16 0 7 4;
#X connect 16 0 36 0;
#X connect 17 0 7 5;
#X connect 17 0 37 0;
#X connect 18 0 7 6;
#X connect 18 0 38 0;
#X connect 19 0 7 7;
#X connect 19 0 39 0;
#X connect 20 0 7 8;
#X connect 20 0 40 0;
#X connect 21 0 7 9;
#X connect 21 0 41 0;
#X connect 23 0 6 0;
#X connect 24 0 13 0;
#X connect 25 0 14 0;
#X connect 26 0 15 0;
#X connect 27 0 16 0;
#X connect 28 0 17 0;
#X connect 29 0 18 0;
#X connect 30 0 19 0;
#X connect 31 0 20 0;
#X connect 32 0 21 0;
#X connect 33 0 42 0;
#X connect 34 0 42 0;
#X connect 35 0 42 0;
#X connect 36 0 42 0;
#X connect 37 0 42 0;
#X connect 38 0 42 0;
#X connect 39 0 42 0;
#X connect 40 0 42 0;
#X connect 41 0 42 0;
#X connect 42 0 1 0;
#X restore 25 138 pd test-signal;
#X obj 118 174 *~ 0.5;
#X obj 36 73 bng 15 250 50 0 empty empty empty 0 -6 0 8 -262144 -1
-1;
#N canvas 0 0 450 300 show 0;
#X msg 92 127 set \$1 \$2 \$3 \$4 \$5 \$6 \$7 \$8 \$9 \$10;
#X obj 93 99 inlet;
#X obj 91 153 outlet;
#X connect 0 0 2 0;
#X connect 1 0 0 0;
#X restore 25 223 pd show;
#X msg 25 249 0 0 0 1 1 1 1 1 2 2;
#X obj 36 94 t b b;
#X obj 37 -51 hsl 128 15 0 0.1 0 1 \$0-noisefloor empty noisefloor
40 7 1 8 -262144 -258699 -1 1200 1;
#X obj 39 -74 hsl 128 15 0 1 0 1 \$0-amp empty pingamp 40 7 1 8 -262144
-258699 -1 3400 1;
#X obj 35 -3 tgl 15 0 empty empty empty 0 -6 0 8 -262144 -1 -1 1 1
;
#X obj 25 187 sort;
#X obj 34 -27 loadbang;
#X text 30 49 test - 10 random votes;
#X obj 34 23 metro 2000;
#N canvas 326 241 541 460 fbank 0;
#X obj 125 31 inlet~;
#X obj 150 91 mtof;
#X msg 227 33 83;
#X msg 259 33 90;
#X msg 293 35 95;
#X obj 218 89 mtof;
#X obj 283 87 mtof;
#X obj 258 110 bp~ 1 30;
#X obj 193 112 bp~ 1 30;
#X obj 125 114 bp~ 1 30;
#X obj 259 164 env~;
#X obj 193 164 env~;
#X obj 126 165 env~;
#X obj 193 221 - 100;
#X obj 126 223 - 100;
#X obj 259 221 - 100;
#X obj 227 2 loadbang;
#X obj 126 139 *~ 2;
#X obj 193 139 *~ 2;
#X obj 259 138 *~ 2;
#X obj 126 260 outlet;
#X obj 193 260 outlet;
#X obj 259 260 outlet;
#X connect 0 0 7 0;
#X connect 0 0 8 0;
#X connect 0 0 9 0;
#X connect 1 0 9 1;
#X connect 2 0 1 0;
#X connect 3 0 5 0;
#X connect 4 0 6 0;
#X connect 5 0 8 1;
#X connect 6 0 7 1;
#X connect 7 0 19 0;
#X connect 8 0 18 0;
#X connect 9 0 17 0;
#X connect 10 0 15 0;
#X connect 11 0 13 0;
#X connect 12 0 14 0;
#X connect 13 0 21 0;
#X connect 14 0 20 0;
#X connect 15 0 22 0;
#X connect 16 0 2 0;
#X connect 16 0 3 0;
#X connect 16 0 4 0;
#X connect 17 0 12 0;
#X connect 18 0 11 0;
#X connect 19 0 10 0;
#X restore 175 173 pd fbank;
#X obj 246 270 vu 15 120 empty empty -1 -8 0 8 -66577 -1 1 0;
#X obj 296 271 vu 15 120 empty empty -1 -8 0 8 -66577 -1 1 0;
#X obj 198 269 vu 15 120 empty empty -1 -8 0 8 -66577 -1 1 0;
#X connect 2 0 11 0;
#X connect 2 1 3 0;
#X connect 2 1 15 0;
#X connect 3 0 0 0;
#X connect 3 0 0 1;
#X connect 4 0 7 0;
#X connect 5 0 6 0;
#X connect 7 0 2 0;
#X connect 10 0 14 0;
#X connect 11 0 5 0;
#X connect 12 0 10 0;
#X connect 14 0 4 0;
#X connect 15 0 18 0;
#X connect 15 1 16 0;
#X connect 15 2 17 0;
