#N canvas 85 33 866 599 12;
#X obj 21 72 vasp.*xwindow hanning @detach 1;
#N canvas 0 0 450 300 graph1 0;
#X array audio 512 float 0;
#X coords 0 1 511 -1 512 140 1;
#X restore 48 378 graph;
#N canvas 0 0 450 300 graph2 0;
#X array spec 256 float 0;
#X coords 0 6 255 0 256 200 1;
#X restore 421 7 graph;
#X obj 21 41 vasp.!;
#X text 77 41 make temporary buffer;
#X obj 21 104 vasp.rfft @detach 1;
#X obj 77 293 vasp.u;
#N canvas 0 0 471 427 part 0;
#X obj 92 91 vasp.f?;
#X obj 40 172 vasp.f;
#X obj 96 116 / 2;
#X obj 40 60 t a a;
#X obj 94 144 - 1;
#X obj 114 278 vasp.o+ 1;
#X obj 201 277 vasp.o+;
#X obj 178 148 + 1;
#X obj 276 278 vasp.o+;
#X obj 276 306 vasp.f 1;
#X obj 41 33 inlet;
#X obj 114 336 outlet;
#X obj 200 337 outlet;
#X obj 275 337 outlet;
#X text 113 362 real;
#X text 199 361 complex;
#X obj 40 201 t a a a a;
#X obj 39 278 vasp.f 1;
#X obj 39 337 outlet;
#X text 39 361 f=0;
#X text 275 361 f=fN;
#X text 42 6 rfft input;
#X connect 0 0 2 0;
#X connect 1 0 16 0;
#X connect 2 0 4 0;
#X connect 2 0 7 0;
#X connect 2 0 8 1;
#X connect 3 0 1 0;
#X connect 3 1 0 0;
#X connect 4 0 1 1;
#X connect 5 0 11 0;
#X connect 6 0 12 0;
#X connect 7 0 6 1;
#X connect 8 0 9 0;
#X connect 9 0 13 0;
#X connect 10 0 3 0;
#X connect 16 0 17 0;
#X connect 16 1 5 0;
#X connect 16 2 6 0;
#X connect 16 3 8 0;
#X connect 17 0 18 0;
#X restore 21 141 pd part;
#X text 86 140 split rfft reference into parts;
#X text 127 258 assign to outarr;
#X text 133 293 update display;
#X text 19 168 omit static component;
#N canvas 0 0 460 310 power 0;
#X obj 93 72 vasp.sqr @detach 1;
#X obj 22 73 vasp.sqr @detach 1;
#X obj 32 145 vasp.+ @detach 1;
#X obj 183 74 vasp.sqr;
#X text 257 75 square parts in place;
#X obj 32 175 vasp.f+ 1;
#X text 114 174 add Nyquist frequency bin;
#X obj 29 235 outlet;
#X obj 21 31 inlet;
#X obj 94 30 inlet;
#X obj 186 31 inlet;
#X obj 34 114 vasp.sync 3;
#X text 129 115 wait for all parts to complete;
#X text 85 145 add to real part;
#X connect 0 0 11 1;
#X connect 1 0 11 0;
#X connect 2 0 5 0;
#X connect 3 0 11 2;
#X connect 5 0 7 0;
#X connect 8 0 1 0;
#X connect 9 0 0 0;
#X connect 10 0 3 0;
#X connect 11 0 2 0;
#X connect 11 1 2 1;
#X restore 27 218 pd power;
#X text 100 219 make power spectrum;
#X obj 593 496 vasp.u;
#X obj 593 408 vasp.noise;
#X text 197 72 multiply window;
#X text 102 106 do real FFT;
#X obj 24 258 vasp.-> spec;
#X msg 21 3 vasp audio;
#X msg 593 371 vasp audio;
#X obj 593 465 vasp.opt;
#X obj 593 434 vasp.flp 40;
#X text 691 436 low pass filter;
#X text 723 403 white noise;
#X text 669 464 normalize;
#X text 589 342 make a test signal;
#X text 681 370 BANG!;
#X text 114 3 BANG!;
#X connect 0 0 5 0;
#X connect 3 0 0 0;
#X connect 5 0 7 0;
#X connect 7 1 12 0;
#X connect 7 2 12 1;
#X connect 7 3 12 2;
#X connect 12 0 18 0;
#X connect 15 0 22 0;
#X connect 18 1 6 0;
#X connect 19 0 3 0;
#X connect 20 0 15 0;
#X connect 21 0 14 0;
#X connect 22 0 21 0;
