#N canvas 51 479 784 354 12;
#X obj 154 32 s2l /;
#X obj 154 51 prepend chdir;
#X obj 256 -30 inlet;
#X obj 153 87 prepend;
#X msg 366 180 symbol l;
#X msg 436 180 symbol b;
#X obj 364 156 route little-endian big-endian;
#X obj 423 93 route integer16 integer24 integer32 float32 unsigned8
;
#X msg 549 118 1;
#X msg 423 118 2;
#X msg 471 118 3;
#X msg 507 118 4;
#X obj 256 -4 t b s;
#X obj 391 276 Append \$1l \$1r;
#X obj 306 254 prepend read -resize -raw;
#X obj 321 230 pack f f f s s;
#X obj 153 69 pool w;
#X obj 251 52 route Header_length No._channels Data_type File_byte_order
File_name;
#X obj 459 204 l2s;
#X obj 337 293 outlet;
#X msg 193 125 get File_name;
#X obj 170 163 l2s;
#X obj 170 146 pool w;
#X obj 508 291 outlet;
#X msg 250 19 get File_name \, get File_byte_order \, get Data_type
\, get No._channels \, get Header_length;
#X connect 0 0 1 0;
#X connect 1 0 16 0;
#X connect 1 0 22 0;
#X connect 2 0 12 0;
#X connect 3 0 17 0;
#X connect 4 0 15 3;
#X connect 5 0 15 3;
#X connect 6 0 4 0;
#X connect 6 1 5 0;
#X connect 7 0 9 0;
#X connect 7 1 10 0;
#X connect 7 2 11 0;
#X connect 7 3 11 0;
#X connect 7 4 8 0;
#X connect 8 0 15 2;
#X connect 9 0 15 2;
#X connect 10 0 15 2;
#X connect 11 0 15 2;
#X connect 12 0 24 0;
#X connect 12 0 20 0;
#X connect 12 1 0 0;
#X connect 13 0 19 0;
#X connect 14 0 13 0;
#X connect 15 0 14 0;
#X connect 16 0 3 0;
#X connect 16 1 3 1;
#X connect 17 0 15 0;
#X connect 17 1 15 1;
#X connect 17 2 7 0;
#X connect 17 3 6 0;
#X connect 17 4 18 0;
#X connect 18 0 15 4;
#X connect 20 0 22 0;
#X connect 21 0 23 0;
#X connect 22 0 21 0;
#X connect 24 0 16 0;
