#N canvas 540 89 994 958 10;
#X text 391 631 open;
#X msg 39 183 \; pd-startbasic1.pd menuclose 1;
#X text 225 188 close;
#X text 46 216 and;
#X text 8 123 Basic 1;
#X text 226 466 close;
#X text 14 401 GoToBasic2;
#X obj 40 433 r basic1;
#X text 375 270 open;
#X msg 40 461 \; pd-basic1.pd menuclose 1;
#X text 26 577 Basic 2;
#X text 908 463 open;
#X text 762 5 close;
#X text 553 33 and;
#X text 733 402 close;
#X text 872 87 open;
#X text 897 634 open;
#X text 742 573 close;
#X text 515 130 Podstawowy 1;
#X text 26 -47 English;
#X text 514 -49 Polski;
#X text 247 9 close;
#X text 46 36 and;
#X text 415 90 open;
#X msg 39 3 \; pd-languagechoice.pd menuclose 1;
#X msg 546 0 \; pd-languagechoice.pd menuclose 1;
#X obj 546 -28 r polski;
#X obj 39 -25 r english;
#X text 865 188 close;
#X text 556 216 and;
#X text 908 270 open;
#X msg 549 183 \; pd-startpodstawowy1.pd menuclose 1;
#X obj 546 55 r polski;
#X obj 39 58 r english;
#X obj 549 155 r startPOL;
#X obj 549 238 r startPOL;
#X obj 547 369 r basic1POL;
#X obj 548 432 r basic1POL;
#X msg 547 397 \; pd-podstawowy1.pd menuclose 1;
#X obj 536 540 r basic2POL;
#X obj 537 603 r basic2POL;
#X msg 536 568 \; pd-gotopodstawowy2.pd menuclose 1;
#X text 908 803 open;
#X text 733 742 close;
#X msg 547 737 \; pd-podstawowy2.pd menuclose 1;
#X text 897 984 open;
#X text 742 923 close;
#X obj 536 890 r basic3POL;
#X msg 536 918 \; pd-gotopodstawowy3.pd menuclose 1;
#X text 524 514 Podstawowy 2;
#X text 521 337 GoToPodstawowy 2;
#X text 521 677 GoToPodstawowy 3;
#X text 524 862 Podstawowy 3;
#X obj 547 709 r basic2POL;
#X obj 548 772 r basic2POL;
#X obj 537 953 r basic3POL;
#X text 416 533 open;
#X obj 40 501 r basic1;
#X obj 31 600 r startbasic2;
#X text 227 342 close;
#X msg 41 337 \; pd-gotobasic2.pd menuclose 1;
#X obj 39 155 r start1;
#X obj 144 241 r start1;
#X obj 41 309 r closegotobasic2;
#X obj 39 240 r startbasic1;
#X text 392 793 open;
#X obj 32 766 r basic2;
#X text 220 705 close;
#X msg 34 700 \; pd-startbasic2.pd menuclose 1;
#X obj 34 672 r closestartbasic2;
#X msg 39 85 \; pd open startbasic1.pd /home/is/Desktop/IS \;;
#X msg 39 265 \; pd open basic1.pd /home/is/Desktop/IS \;;
#X msg 549 265 \; pd open podstawowy1.pd /home/is/Desktop/IS \;;
#X msg 546 82 \; pd open startpodstawowy1.pd /home/is/Desktop/IS \;
;
#X msg 40 528 \; pd open gotobasic2.pd /home/is/Desktop/IS \;;
#X msg 31 627 \; pd open startbasic2.pd /home/is/Desktop/IS \;;
#X msg 32 789 \; pd open basic2.pd /home/is/Desktop/IS \;;
#X msg 547 799 \; pd open gotopodstawowy3.pd /home/is/Desktop/IS \;
;
#X msg 537 630 \; pd open podstawowy2.pd /home/is/Desktop/IS \;;
#X msg 548 459 \; pd open gotopodstawowy2.pd /home/is/Desktop/IS \;
;
#X msg 537 980 \; pd open podstawowy3.pd /home/is/Desktop/IS \;;
#X connect 7 0 9 0;
#X connect 26 0 25 0;
#X connect 27 0 24 0;
#X connect 32 0 73 0;
#X connect 33 0 70 0;
#X connect 34 0 31 0;
#X connect 35 0 72 0;
#X connect 36 0 38 0;
#X connect 37 0 79 0;
#X connect 39 0 41 0;
#X connect 40 0 78 0;
#X connect 47 0 48 0;
#X connect 53 0 44 0;
#X connect 54 0 77 0;
#X connect 55 0 80 0;
#X connect 57 0 74 0;
#X connect 58 0 75 0;
#X connect 61 0 1 0;
#X connect 62 0 71 0;
#X connect 63 0 60 0;
#X connect 64 0 71 0;
#X connect 66 0 76 0;
#X connect 69 0 68 0;
