#N canvas 196 128 851 672 10;
#X obj 114 371 f+ 0 1;
#X floatatom 431 264 5 0 0 0 - #0-points-i #0-points;
#X floatatom 431 284 5 0 0 0 - #0-i-value-i #0-i-value;
#X floatatom 431 304 5 0 0 0 - #0-f-value-i #0-f-value;
#X obj 114 301 f;
#X obj 200 58 bng 15 250 50 0 empty empty empty 17 7 0 10 -228856 -1
-1;
#X text 217 58 Draw;
#X obj 114 321 t f b f;
#X obj 171 391 - 1;
#X obj 144 451 maxlib/scale;
#X obj 185 411 r \$0-i-value;
#X obj 199 431 r \$0-f-value;
#X obj 129 241 r \$0-points;
#X text 431 241 INPUT;
#X msg 149 271 resize \$1;
#X text 468 261 Nr points;
#X text 468 282 First value;
#X text 468 303 Last value;
#X obj 149 291 s \$0-plot;
#X obj 300 391 lbang;
#X obj 320 481 samplerate~;
#X obj 320 501 * 0.5;
#X obj 60 631 tabwrite \$0-plot;
#X obj 60 591 env~;
#X obj 144 531 osc~;
#X obj 114 391 t f f f;
#X msg 67 469 0;
#X obj 67 449 sel 440;
#X obj 144 491 t f b;
#X obj 171 511 0;
#X obj 324 284 tabread \$0-plot;
#X floatatom 377 58 6 0 0 0 - #0-rms-i #0-rms;
#X obj 300 571 s \$0-plot;
#X obj 320 521 s \$0-f-value-i;
#X obj 60 611 spigot;
#X msg 106 469 1;
#X obj 330 431 441;
#X obj 330 451 s \$0-points-i;
#X text 547 183 22K;
#X text 155 183 2205;
#X text 200 183 4410;
#X text 244 183 6615;
#X text 288 183 8820;
#X text 328 183 11025;
#X text 374 183 13230;
#X text 420 183 15435;
#X text 464 183 17640;
#X text 505 183 19845;
#X obj 114 341 metro 40;
#X floatatom 307 58 6 0 0 0 - #0-freq-i #0-freq;
#X msg 300 551 xticks 0 44.1 1 \, ylabel -11 0 50 100 \, yticks 0 50
1;
#X obj 324 264 / 50.11;
#X obj 324 244 r \$0-freq;
#X text 277 58 Freq;
#X text 353 58 RMS;
#X obj 324 304 s \$0-rms-i;
#X obj 565 88 cnv 1 1 90 \$0-cnv \$0-cnv-i empty 20 12 0 14 -162280
-66577 0;
#N canvas 0 0 450 300 (subpatch) 0;
#X array \$0-plot 441 float 0;
#X coords 0 110 440 0 441 100 1;
#X restore 124 83 graph;
#X msg 254 324 pos \$1 88;
#X obj 254 344 s \$0-cnv-i;
#X obj 254 304 + 124;
#X obj 360 421 565;
#X obj 60 571 inlet~;
#X obj 144 551 s~ filt-plot;
#X text 456 357 How to use:;
#X text 456 377 - connect the outlet of your filter to the inlet of
[filt-plot-lin~];
#X text 456 437 - click Draw \, and a graph of the function will be
plotted.;
#X text 456 407 - create an object named [r~ filt-plot] and connect
it's outlet to the inlet of your filter.;
#X text 157 20 An abstraction to draw the response of a filter;
#X text 456 465 (since it's not possible to make an audio loop \, it's
necessary to create an extra [r~] object);
#X connect 0 0 25 0;
#X connect 4 0 7 0;
#X connect 5 0 4 0;
#X connect 7 0 48 0;
#X connect 7 1 0 1;
#X connect 7 2 8 0;
#X connect 8 0 9 2;
#X connect 9 0 28 0;
#X connect 10 0 9 3;
#X connect 11 0 9 4;
#X connect 12 0 4 1;
#X connect 12 0 14 0;
#X connect 14 0 18 0;
#X connect 19 0 50 0;
#X connect 19 0 20 0;
#X connect 19 0 36 0;
#X connect 19 0 61 0;
#X connect 20 0 21 0;
#X connect 21 0 33 0;
#X connect 23 0 34 0;
#X connect 24 0 63 0;
#X connect 25 0 27 0;
#X connect 25 1 9 0;
#X connect 25 2 22 1;
#X connect 26 0 34 1;
#X connect 26 0 48 0;
#X connect 27 0 26 0;
#X connect 27 1 35 0;
#X connect 28 0 24 0;
#X connect 28 1 29 0;
#X connect 29 0 24 1;
#X connect 30 0 55 0;
#X connect 34 0 22 0;
#X connect 35 0 34 1;
#X connect 36 0 37 0;
#X connect 48 0 0 0;
#X connect 50 0 32 0;
#X connect 51 0 30 0;
#X connect 51 0 60 0;
#X connect 52 0 51 0;
#X connect 58 0 59 0;
#X connect 60 0 58 0;
#X connect 61 0 58 0;
#X connect 62 0 23 0;
#X coords 0 -1 1 1 470 150 1 100 50;
