#N canvas 356 79 304 261 12;
#X floatatom 14 108 5 0 0;
#X obj 14 62 route fSizeX fSizeY;
#X floatatom 87 109 5 0 0;
#X obj 14 17 flashserver 31337 2;
#X connect 1 0 0 0;
#X connect 1 1 2 0;
#X connect 3 0 1 0;
