#N canvas 0 0 528 319 12;
#X obj 33 140 expr 1/$f1;
#X floatatom 33 119 5 1 250;
#X text 37 98 fps;
#X obj 95 56 loadbang;
#X obj 33 161 /;
#X floatatom 165 35 5 1 128;
#X floatatom 165 119 5 0 0;
#X obj 165 140 t b f;
#X floatatom 33 203 0 0 0;
#X obj 165 98 pow;
#X msg 165 77 2;
#X obj 33 182 expr 1/$f1;
#X obj 33 224 * 2;
#X floatatom 116 182 5 1 512;
#X text 166 184 No. of blocks used to sychronise audio!;
#X obj 116 203 t b f;
#X floatatom 33 245 0 0 0;
#X text 215 121 blocksize;
#X text 84 244 samplerate~;
#X text 109 14 change this to try different blocksizes;
#X obj 165 56 t b f;
#X msg 95 77 25 6 30;
#X obj 67 98 unpack f f f;
#X text 163 198 (blocks-per-frame);
#X connect 0 0 4 0;
#X connect 1 0 0 0;
#X connect 3 0 21 0;
#X connect 4 0 11 0;
#X connect 5 0 20 0;
#X connect 6 0 7 0;
#X connect 7 0 1 0;
#X connect 7 1 4 1;
#X connect 8 0 12 0;
#X connect 9 0 6 0;
#X connect 10 0 9 0;
#X connect 11 0 8 0;
#X connect 12 0 16 0;
#X connect 13 0 15 0;
#X connect 15 0 8 0;
#X connect 15 1 12 1;
#X connect 20 0 10 0;
#X connect 20 1 9 1;
#X connect 21 0 22 0;
#X connect 22 0 1 0;
#X connect 22 1 5 0;
#X connect 22 2 13 0;
