#N canvas 339 79 265 306 10;
#X obj 95 125 cos~;
#X obj 138 103 +~ -0.25;
#X obj 149 135 cos~;
#X obj 79 204 *~;
#X obj 136 203 *~;
#X obj 79 226 -~;
#X obj 95 79 phasor~;
#X obj 80 164 hilbert~;
#X floatatom 94 53 5 0 0 0 - - -;
#X obj 97 23 inlet;
#X obj 18 22 inlet~;
#X obj 81 256 outlet~;
#X connect 0 0 3 1;
#X connect 1 0 2 0;
#X connect 2 0 4 1;
#X connect 3 0 5 0;
#X connect 4 0 5 1;
#X connect 5 0 11 0;
#X connect 6 0 1 0;
#X connect 6 0 0 0;
#X connect 7 0 3 0;
#X connect 7 1 4 0;
#X connect 8 0 6 0;
#X connect 9 0 8 0;
#X connect 10 0 7 0;
