#N canvas 457 235 653 545 10;
#X obj 47 134 + 0.1;
#X obj 111 -15 bng 15 250 50 0 empty empty empty 17 7 0 10 -204786
-1 -1;
#X floatatom 12 401 5 0 0 0 - - -;
#X floatatom 70 374 10 0 0 0 - - -;
#X text 49 402 <- this will never be 1;
#X symbolatom 454 311 20 0 0 0 - - -;
#X obj 312 286 makefilename %.16f;
#X obj 373 100 + 1;
#X obj 12 374 == 3.5;
#X msg 14 51 3;
#X msg 327 64 30;
#X obj 14 134 f 3;
#X obj 327 100 f 30;
#X obj 373 136 == 35;
#X floatatom 373 159 5 0 0 0 - - -;
#X obj 327 20 bng 15 250 50 0 empty empty empty 17 7 0 10 -258113 -1
-1;
#X floatatom 425 137 5 0 0 0 - - -;
#X obj 327 181 * 0.1;
#X floatatom 327 208 5 0 0 0 - - -;
#X text 346 19 reset;
#X obj 312 310 print the_real_thing;
#X obj 120 337 print what_you_may_think...;
#X obj 12 423 sel 1;
#X obj 12 448 print NEVER;
#X obj 373 180 sel 1;
#X text 369 -15 Also check the Pd Window;
#X text 131 -14 next (click 5 times after reset);
#X text 460 290 comment;
#X text 427 281 the actual float beint output;
#X obj 409 394 expr ($f1);
#X obj 409 426 print what_expr_says;
#X obj 288 426 makefilename %.16f;
#X floatatom 542 425 5 0 0 0 - - -;
#X symbolatom 421 453 20 0 0 0 - - -;
#X obj 288 478 print but_actually_expr_is_also_seeing_this;
#X obj 243 426 == 3.5;
#X obj 242 452 sel 1;
#X text 434 98 >> WORKAROUND <<;
#X obj 242 501 print NEVER2;
#X text 93 447 <- this is never \; printed...;
#X text 160 499 nor this ->;
#X obj 373 207 print OK_WORKAROUND-----------------------;
#X connect 0 0 11 1;
#X connect 1 0 11 0;
#X connect 1 0 12 0;
#X connect 2 0 22 0;
#X connect 6 0 5 0;
#X connect 6 0 20 0;
#X connect 7 0 12 1;
#X connect 8 0 2 0;
#X connect 9 0 11 0;
#X connect 10 0 12 0;
#X connect 11 0 0 0;
#X connect 11 0 3 0;
#X connect 11 0 6 0;
#X connect 11 0 8 0;
#X connect 11 0 21 0;
#X connect 11 0 29 0;
#X connect 12 0 7 0;
#X connect 12 0 13 0;
#X connect 12 0 16 0;
#X connect 12 0 17 0;
#X connect 13 0 14 0;
#X connect 14 0 24 0;
#X connect 15 0 10 0;
#X connect 15 0 9 0;
#X connect 17 0 18 0;
#X connect 22 0 23 0;
#X connect 24 0 41 0;
#X connect 29 0 30 0;
#X connect 29 0 32 0;
#X connect 29 0 31 0;
#X connect 29 0 35 0;
#X connect 31 0 33 0;
#X connect 31 0 34 0;
#X connect 35 0 36 0;
#X connect 36 0 38 0;
