#N canvas 90 177 678 517 10;
#X obj 194 112 @convolve << + 0 ( 3 3 # 1 1 1 1 0 );
#X obj 195 139 @ + 1;
#X obj 197 164 @ / 3;
#X obj 196 190 @ == 2;
#X obj 17 71 route grid_end;
#X obj 183 75 @store;
#X obj 14 114 @store;
#X obj 298 201 @! rand;
#X obj 181 53 bng 15 250 50 0 empty empty empty 0 -6 0 8 -262144 -1
-1;
#X obj 296 154 loadbang;
#X obj 197 264 @out 240 320;
#X obj 197 243 @outer * ( 255 255 255 );
#X msg 296 176 240 320 # 2;
#X obj 180 29 metro 50;
#X obj 180 10 tgl 15 0 empty empty empty 0 -6 0 8 -262144 -1 -1 0 1
;
#X connect 0 0 1 0;
#X connect 1 0 2 0;
#X connect 2 0 3 0;
#X connect 3 0 6 1;
#X connect 3 0 4 0;
#X connect 3 0 11 0;
#X connect 4 0 6 0;
#X connect 5 0 0 0;
#X connect 6 0 5 1;
#X connect 7 0 5 1;
#X connect 7 0 11 0;
#X connect 8 0 5 0;
#X connect 9 0 12 0;
#X connect 11 0 10 0;
#X connect 12 0 7 0;
#X connect 13 0 8 0;
#X connect 14 0 13 0;
