#N canvas 133 100 1069 736 10;
#X obj 24 448 gemwin;
#X msg 69 313 fullscreen 1;
#X msg 69 332 fullscreen 0;
#X msg 105 362 create;
#X msg 104 380 destroy;
#X msg 125 407 1;
#X msg 125 425 0;
#X obj 264 10 cnv 15 430 180 empty empty DANCE_MAT_INPUT 20 12 0 14
-138688 -66577 0;
#X floatatom 622 151 5 0 0 0 - - -;
#X floatatom 566 151 5 0 0 0 - - -;
#X obj 521 69 hid 3;
#X floatatom 321 153 5 0 0 0 - - -;
#X floatatom 368 153 5 0 0 0 - - -;
#X floatatom 414 154 5 0 0 0 - - -;
#X floatatom 273 154 5 0 0 0 - - -;
#X text 427 166 [];
#X text 283 166 tri;
#X text 337 169 O;
#X text 385 168 X;
#X floatatom 508 153 5 0 0 0 - - -;
#X text 511 169 Start;
#X floatatom 460 152 5 0 0 0 - - -;
#X text 457 169 Select;
#X obj 273 122 route btn_0 btn_1 btn_2 btn_3 btn_8 btn_9;
#X text 618 169 y Axis;
#X text 562 168 x Axis;
#X obj 566 121 route abs_x abs_y;
#X obj 522 95 route key abs;
#X msg 520 16 bang;
#X msg 566 16 stop;
#X obj 520 45 metro 100;
#X obj 277 215 route 1 0;
#X obj 399 217 route 1 0;
#X obj 435 328 cnv 15 250 350 empty empty empty 20 12 0 14 -228992
-66577 0;
#X obj 437 359 cnv 15 155 250 empty empty empty 20 12 0 14 -24198 -66577
0;
#X obj 436 333 gemhead;
#X obj 449 364 bng 25 250 50 0 empty empty empty 0 -6 0 8 -262144 -1
-1;
#X text 491 328 open a supported;
#X text 492 339 movie-clip;
#X obj 466 558 unpack 0 0 0;
#X floatatom 452 581 5 0 0 3 length - -;
#X floatatom 501 581 5 0 0 3 width - -;
#X floatatom 551 581 5 0 0 3 height - -;
#X obj 506 539 bng 15 250 50 0 empty empty end_reached 20 7 0 10 -262144
-1 -1;
#X floatatom 511 504 5 0 10000 1 frame# - -;
#X obj 449 393 openpanel;
#X msg 449 413 open \$1;
#X obj 437 653 rectangle 4 3;
#X msg 467 481 colorspace GREY;
#X msg 464 457 auto \$1;
#X obj 464 439 tgl 15 0 empty empty empty 0 -6 0 8 -262144 -1 -1 1
1;
#X text 1035 -1 comment;
#X text 2685 58 comment;
#X text 2649 610 comment;
#X text 1466 493 comment;
#X text 1830 31 comment;
#X obj 306 500 cnv 15 120 60 empty empty Pause/resume 20 12 0 14 -233017
-66577 0;
#X msg 343 543 rate 1;
#X msg 342 523 rate 0;
#X obj 437 522 pix_movie;
#X obj 834 357 cnv 15 155 250 empty empty empty 20 12 0 14 -24198 -66577
0;
#X obj 846 362 bng 25 250 50 0 empty empty empty 0 -6 0 8 -262144 -1
-1;
#X obj 846 391 openpanel;
#X msg 846 411 open \$1;
#X connect 1 0 0 0;
#X connect 2 0 0 0;
#X connect 3 0 0 0;
#X connect 4 0 0 0;
#X connect 5 0 0 0;
#X connect 6 0 0 0;
#X connect 10 0 27 0;
#X connect 12 0 32 0;
#X connect 14 0 31 0;
#X connect 23 0 14 0;
#X connect 23 1 11 0;
#X connect 23 2 12 0;
#X connect 23 3 13 0;
#X connect 23 4 21 0;
#X connect 23 5 19 0;
#X connect 26 0 9 0;
#X connect 26 1 8 0;
#X connect 27 0 23 0;
#X connect 27 1 26 0;
#X connect 28 0 30 0;
#X connect 29 0 30 0;
#X connect 29 0 30 0;
#X connect 30 0 10 0;
#X connect 31 0 36 0;
#X connect 32 0 61 0;
#X connect 35 0 59 0;
#X connect 36 0 45 0;
#X connect 39 0 40 0;
#X connect 39 1 41 0;
#X connect 39 2 42 0;
#X connect 44 0 59 1;
#X connect 45 0 46 0;
#X connect 46 0 59 0;
#X connect 48 0 59 0;
#X connect 49 0 59 0;
#X connect 50 0 49 0;
#X connect 57 0 59 0;
#X connect 58 0 59 0;
#X connect 59 0 47 0;
#X connect 59 2 43 0;
#X connect 61 0 62 0;
#X connect 62 0 63 0;
#X connect 63 0 59 0;
#X coords 0 0 15 1 0 0 0;
