#N canvas 96 55 817 467 10;
#X floatatom 81 182 5 0 0 0 - - -;
#N canvas 484 63 422 413 histogram-view 0;
#X obj 119 119 int;
#X obj 119 181 t f f;
#X obj 119 203 tabread \$0-histo;
#X obj 119 323 tabwrite \$0-histo;
#X obj 119 64 * 10000;
#X obj 119 86 + 10000;
#X obj 119 245 + 0.05;
#X obj 119 24 inlet;
#X obj 119 272 clip 0 1;
#X connect 0 0 1 0;
#X connect 1 0 2 0;
#X connect 1 1 3 1;
#X connect 2 0 6 0;
#X connect 4 0 5 0;
#X connect 5 0 0 0;
#X connect 6 0 8 0;
#X connect 7 0 4 0;
#X connect 8 0 3 0;
#X restore 249 235 pd histogram-view;
#N canvas 0 0 450 300 (subpatch) 0;
#X array \$0-histo 20000 float 0;
#X coords 0 1 19999 0 200 140 1;
#X restore 465 177 graph;
#X msg 81 118 bang;
#X obj 307 117 s \$0-histo;
#X obj 249 150 until;
#X obj 249 127 max;
#X msg 307 94 const 0;
#X obj 249 178 gaussian-random 0 0.01;
#X msg 249 94 10000;
#X msg 212 45 seed1 12 \, seed2 192313;
#X obj 81 145 gaussian-random;
#X connect 3 0 11 0;
#X connect 5 0 8 0;
#X connect 6 0 5 0;
#X connect 7 0 4 0;
#X connect 8 0 1 0;
#X connect 9 0 6 0;
#X connect 10 0 8 0;
#X connect 11 0 0 0;
