#N canvas 274 60 691 629 10;
#X floatatom 111 36 5 0 0 0 - - -;
#X obj 111 484 ezdac~;
#X obj 238 478 tabwrite~ \$0-scope;
#N canvas 0 0 450 300 (subpatch) 0;
#X array \$0-scope 4410 float 2;
#X coords 0 1 4409 -1 200 140 1;
#X restore 375 354 graph;
#X obj 238 452 metro 100;
#X obj 238 431 tgl 15 0 empty empty empty 17 7 0 10 -262144 -1 -1 1
1;
#X obj 325 280 throw~ \$0-asig;
#X obj 326 210 vline~;
#X obj 326 82 b;
#X obj 326 234 *~;
#X obj 326 253 *~;
#X obj 128 340 vline~;
#X obj 128 364 *~;
#X obj 128 383 *~;
#X obj 112 418 *~;
#X msg 128 319 0.9 100 \, 0.8 300 100 \, 0 1000 400;
#X obj 111 63 mtof;
#X obj 326 154 f;
#X obj 360 81 hsl 128 15 0 0.9 0 0 empty empty empty -2 -8 0 10 -262144
-1 -1 12700 1;
#X obj 357 111 moses 1;
#X obj 111 168 gbuzz~;
#X obj 149 134 catch~ \$0-asig;
#X text 440 279 Harmonicity-Env;
#X text 169 381 Amplitude-Env;
#X text 428 113 don't go equal or over 1!;
#X floatatom 365 135 5 0 0 0 - - -;
#X msg 326 179 \$1 200 \, 0.1 1000 200;
#X connect 0 0 8 0;
#X connect 0 0 16 0;
#X connect 4 0 2 0;
#X connect 5 0 4 0;
#X connect 7 0 9 0;
#X connect 7 0 9 1;
#X connect 8 0 15 0;
#X connect 8 0 17 0;
#X connect 9 0 10 0;
#X connect 9 0 10 1;
#X connect 10 0 6 0;
#X connect 11 0 12 0;
#X connect 11 0 12 1;
#X connect 12 0 13 0;
#X connect 12 0 13 1;
#X connect 13 0 14 1;
#X connect 14 0 1 0;
#X connect 14 0 1 1;
#X connect 14 0 2 0;
#X connect 15 0 11 0;
#X connect 16 0 20 0;
#X connect 17 0 26 0;
#X connect 18 0 19 0;
#X connect 19 0 17 1;
#X connect 19 0 25 0;
#X connect 20 0 14 0;
#X connect 21 0 20 1;
#X connect 26 0 7 0;
