#N canvas 228 509 511 340 10;
#X msg 77 253 draw line;
#X obj 119 173 gemhead;
#X obj 254 147 t b f;
#X obj 297 146 t b f;
#X obj 119 150 tgl 15 0 empty empty empty 0 -6 0 8 -262144 -1 -1 1
1;
#X obj 19 176 gemwin;
#X msg 19 150 create \, 1;
#X obj 165 286 rubber 20 20;
#X obj 296 67 % 20;
#X obj 255 102 / 20;
#X obj 255 125 * -6.5;
#X obj 227 173 pack 0 f f;
#X obj 165 239 rotate -60 1 0 0;
#X obj 163 204 translate 0.1 0 0 0;
#X floatatom 296 40 5 0 0 0 scroll - -;
#X obj 60 91 loadbang;
#X obj 59 117 t b b b;
#X connect 0 0 7 0;
#X connect 1 0 13 0;
#X connect 2 0 11 0;
#X connect 2 1 11 1;
#X connect 3 0 11 0;
#X connect 3 1 11 2;
#X connect 4 0 1 0;
#X connect 6 0 5 0;
#X connect 8 0 9 0;
#X connect 8 0 3 0;
#X connect 9 0 10 0;
#X connect 10 0 2 0;
#X connect 11 0 13 2;
#X connect 12 0 7 0;
#X connect 13 0 12 0;
#X connect 14 0 8 0;
#X connect 15 0 16 0;
#X connect 16 0 4 0;
#X connect 16 1 0 0;
#X connect 16 2 6 0;
