#N canvas 31 528 777 386 10;
#X obj 112 140 gemwin;
#X obj 240 68 gemhead;
#X msg 111 33 create;
#X msg 127 61 destroy;
#X msg 142 89 0;
#X msg 177 89 1;
#X obj 241 126 pix_movie /Users/seam/Desktop/108_matrix.mov;
#X floatatom 543 80 5 0 0 0 - - -;
#X obj 197 346 rectangle 4 3;
#X obj 307 12 bng 15 250 50 0 empty empty empty 0 -6 0 8 -262144 -1
-1;
#X obj 309 37 openpanel;
#X msg 311 62 open \$1;
#X obj 397 41 tgl 15 0 empty empty empty 0 -6 0 8 -262144 -1 -1 1 1
;
#X msg 395 62 auto \$1;
#X text 539 61 frame #;
#X obj 547 157 bng 15 250 50 0 empty empty empty 0 -6 0 8 -262144 -1
-1;
#X text 536 176 end of movie;
#X obj 393 177 unpack 1 2 3;
#X floatatom 379 212 5 0 0 0 - - -;
#X floatatom 426 213 5 0 0 0 - - -;
#X floatatom 475 216 5 0 0 0 - - -;
#X text 338 231 num frames;
#X text 422 233 width;
#X text 469 233 height;
#X obj 665 92 gate;
#X obj 656 56 tgl 15 0 empty empty empty 0 -6 0 8 -262144 -1 -1 1 1
;
#X msg 513 37 0;
#X text 639 35 loop;
#X floatatom 242 313 5 0 0 0 - - -;
#X floatatom 285 313 5 0 0 0 - - -;
#X text 243 295 width;
#X text 285 295 height;
#X obj 145 247 translateXYZ;
#X floatatom 205 210 5 0 0 0 - - -;
#X floatatom 249 210 5 0 0 0 - - -;
#X floatatom 293 210 5 0 0 0 - - -;
#X obj 150 188 scale 1 1 1;
#X floatatom 214 161 5 0 0 0 - - -;
#X connect 1 0 6 0;
#X connect 2 0 0 0;
#X connect 3 0 0 0;
#X connect 4 0 0 0;
#X connect 5 0 0 0;
#X connect 6 0 36 0;
#X connect 6 1 17 0;
#X connect 6 2 15 0;
#X connect 7 0 6 1;
#X connect 9 0 10 0;
#X connect 10 0 11 0;
#X connect 11 0 6 0;
#X connect 12 0 13 0;
#X connect 13 0 6 0;
#X connect 15 0 24 1;
#X connect 17 0 18 0;
#X connect 17 1 19 0;
#X connect 17 2 20 0;
#X connect 24 0 26 0;
#X connect 25 0 24 0;
#X connect 26 0 7 0;
#X connect 28 0 8 1;
#X connect 29 0 8 2;
#X connect 32 0 8 0;
#X connect 33 0 32 1;
#X connect 34 0 32 2;
#X connect 35 0 32 3;
#X connect 36 0 32 0;
#X connect 37 0 36 1;
