#N canvas 92 46 717 499 10;
#X obj 43 308 pix_texture;
#X obj 166 -63 \$1;
#X obj 43 146 scale 0.25;
#X obj 166 -97 r opnieuw;
#X obj 43 44 pix_buffer_read depot;
#X obj 43 17 depth 0;
#X obj 164 230 loadbang;
#X obj 151 307 r rect-w;
#X obj 214 308 r rect-h;
#X obj 43 125 translateXYZ 0 0 0;
#X msg 128 279 rectangle 0;
#X obj 195 57 tabread xx;
#X obj 266 58 tabread yy;
#X msg 128 254 quality 0;
#X obj 43 333 rectangle 4.2 2.8;
#X obj 43 -6 gemhead 50;
#X obj 43 248 pix_alpha;
#X msg 108 204 1 1 1;
#X msg 75 204 0;
#X msg 149 204 0 0 0;
#X obj 153 158 loadbang;
#X obj 43 95 pix_rgba;
#X obj 43 70 alpha;
#X obj 166 -36 t b f f;
#X obj 340 59 tabread alfa;
#X obj 340 93 s \$0-alfa;
#X obj -17 198 r \$0-alfa;
#X obj 341 186 pack f f;
#X obj 341 217 print;
#X msg 52 186 0;
#X obj 43 -85 r gemk_stop;
#X msg 43 -47 0;
#X msg 83 -45 1;
#X text 301 275 --with the pix_alpha a part is made not/half/fully
visible;
#X connect 0 0 14 0;
#X connect 1 0 23 0;
#X connect 2 0 16 0;
#X connect 3 0 1 0;
#X connect 4 0 22 0;
#X connect 5 0 4 0;
#X connect 6 0 10 0;
#X connect 6 0 13 0;
#X connect 7 0 14 1;
#X connect 8 0 14 2;
#X connect 9 0 2 0;
#X connect 10 0 0 0;
#X connect 11 0 9 1;
#X connect 12 0 9 2;
#X connect 13 0 0 0;
#X connect 15 0 5 0;
#X connect 16 0 0 0;
#X connect 17 0 16 3;
#X connect 18 0 16 2;
#X connect 19 0 16 4;
#X connect 20 0 29 0;
#X connect 20 0 18 0;
#X connect 20 0 17 0;
#X connect 20 0 19 0;
#X connect 21 0 9 0;
#X connect 22 0 21 0;
#X connect 23 0 32 0;
#X connect 23 1 4 1;
#X connect 23 2 11 0;
#X connect 23 2 12 0;
#X connect 23 2 24 0;
#X connect 23 2 27 1;
#X connect 24 0 25 0;
#X connect 24 0 27 0;
#X connect 26 0 16 1;
#X connect 29 0 16 1;
#X connect 30 0 31 0;
#X connect 31 0 15 0;
#X connect 32 0 15 0;
