#N canvas 508 94 435 395 10;
#X obj 236 34 adc~ 1 2;
#X obj 250 56 hip~ 5;
#X obj 250 77 s~ \$0-i1;
#X obj 386 54 r~ \$0-i1;
#X obj 320 14 loadbang;
#N canvas 116 40 924 369 init 0;
#X obj 163 94 inlet;
#X obj 139 -9 cnv 15 80 15 empty empty empty 20 12 0 14 -262131 -66577
0;
#X text 140 -9 floats;
#X text 17 -11 global variables:;
#X obj 19 -49 cnv 15 80 24 empty empty init 20 12 1 18 -233017 -1109
0;
#X obj 99 -49 cnv 15 120 24 empty empty subpatch 0 12 1 18 -233017
-1109 0;
#X text 231 -50 ... as the name says ...;
#X text 18 132 ------------------------------------------------------------
;
#X text 438 132 --------------------------------------------;
#X msg 262 164 1;
#X obj 262 186 tgl 15 0 empty empty empty 0 -6 0 8 -262144 -1 -1 1
1;
#X obj 232 259 cnv 15 115 25 empty empty empty 20 12 0 14 -262131 -66577
0;
#X msg 219 241 100;
#X obj 232 212 cnv 15 65 25 empty empty empty 20 12 0 14 -262131 -66577
0;
#X obj 440 213 cnv 15 40 25 empty empty empty 20 12 0 14 -262131 -66577
0;
#X obj 510 213 cnv 15 40 25 empty empty empty 20 12 0 14 -262131 -66577
0;
#X obj 580 213 cnv 15 40 25 empty empty empty 20 12 0 14 -262131 -66577
0;
#X obj 650 213 cnv 15 40 25 empty empty empty 20 12 0 14 -262131 -66577
0;
#X obj 720 213 cnv 15 40 25 empty empty empty 20 12 0 14 -262131 -66577
0;
#X obj 790 213 cnv 15 40 25 empty empty empty 20 12 0 14 -262131 -66577
0;
#X obj 440 243 cnv 15 40 25 empty empty empty 20 12 0 14 -262131 -66577
0;
#X obj 510 243 cnv 15 40 25 empty empty empty 20 12 0 14 -262131 -66577
0;
#X obj 580 243 cnv 15 40 25 empty empty empty 20 12 0 14 -262131 -66577
0;
#X obj 650 243 cnv 15 40 25 empty empty empty 20 12 0 14 -262131 -66577
0;
#X obj 720 243 cnv 15 40 25 empty empty empty 20 12 0 14 -262131 -66577
0;
#X obj 790 243 cnv 15 40 25 empty empty empty 20 12 0 14 -262131 -66577
0;
#X obj 440 273 cnv 15 40 25 empty empty empty 20 12 0 14 -262131 -66577
0;
#X obj 510 273 cnv 15 40 25 empty empty empty 20 12 0 14 -262131 -66577
0;
#X obj 580 273 cnv 15 40 25 empty empty empty 20 12 0 14 -262131 -66577
0;
#X obj 650 273 cnv 15 40 25 empty empty empty 20 12 0 14 -262131 -66577
0;
#X obj 720 273 cnv 15 40 25 empty empty empty 20 12 0 14 -262131 -66577
0;
#X obj 790 273 cnv 15 40 25 empty empty empty 20 12 0 14 -262131 -66577
0;
#X msg 590 164 15;
#X obj 62 259 cnv 15 115 25 empty empty empty 20 12 0 14 -262131 -66577
0;
#X msg 49 241 -40;
#X obj 62 327 cnv 15 40 25 empty empty empty 20 12 0 14 -262131 -66577
0;
#X msg 49 307 1;
#X obj 380 353 cnv 15 40 25 empty empty empty 20 12 0 14 -262131 -66577
0;
#X obj 470 353 cnv 15 40 25 empty empty empty 20 12 0 14 -262131 -66577
0;
#X obj 560 353 cnv 15 40 25 empty empty empty 20 12 0 14 -262131 -66577
0;
#X obj 650 353 cnv 15 40 25 empty empty empty 20 12 0 14 -262131 -66577
0;
#X obj 740 353 cnv 15 40 25 empty empty empty 20 12 0 14 -262131 -66577
0;
#X obj 830 353 cnv 15 40 25 empty empty empty 20 12 0 14 -262131 -66577
0;
#X obj 380 383 cnv 15 40 25 empty empty empty 20 12 0 14 -262131 -66577
0;
#X obj 470 383 cnv 15 40 25 empty empty empty 20 12 0 14 -262131 -66577
0;
#X obj 560 383 cnv 15 40 25 empty empty empty 20 12 0 14 -262131 -66577
0;
#X obj 650 383 cnv 15 40 25 empty empty empty 20 12 0 14 -262131 -66577
0;
#X obj 740 383 cnv 15 40 25 empty empty empty 20 12 0 14 -262131 -66577
0;
#X obj 830 383 cnv 15 40 25 empty empty empty 20 12 0 14 -262131 -66577
0;
#X obj 380 413 cnv 15 40 25 empty empty empty 20 12 0 14 -262131 -66577
0;
#X obj 470 413 cnv 15 40 25 empty empty empty 20 12 0 14 -262131 -66577
0;
#X obj 560 413 cnv 15 40 25 empty empty empty 20 12 0 14 -262131 -66577
0;
#X obj 650 413 cnv 15 40 25 empty empty empty 20 12 0 14 -262131 -66577
0;
#X obj 740 413 cnv 15 40 25 empty empty empty 20 12 0 14 -262131 -66577
0;
#X obj 830 413 cnv 15 40 25 empty empty empty 20 12 0 14 -262131 -66577
0;
#X msg 529 316 100;
#X obj 192 326 cnv 15 115 25 empty empty empty 20 12 0 14 -262131 -66577
0;
#X msg 179 308 0;
#X obj 62 387 cnv 15 40 25 empty empty empty 20 12 0 14 -262131 -66577
0;
#X msg 49 367 0;
#X text 229 -7 \$0-set_testsig_level \, \$0-set_scopes_xtime \, \$0-set_scope1_oo
;
#X text 229 6 \$0-t100 \, \$0-t125 \, \$0-t160 \, \$0-t200 \, \$0-t250
\, \$0-t315 \, \$0-t400 \, \$0-t500 \, \$0-t630 \, \$0-t800 \, \$0-t1k
\, \$0-t1k25 \, \$0-t1k6 \, \$0-t2k \, \$0-t2k5 \, \$0-t3k15 \, \$0-t4k
\, \$0-t5k;
#X obj 219 216 s \$0-scope1_oo;
#X obj 219 263 s \$0-set_scopes_xtime;
#X obj 49 263 s \$0-set_testsig_level;
#X obj 179 330 s \$0-set_monitor_level;
#X obj 427 216 s \$0-t100;
#X obj 497 216 s \$0-t200;
#X obj 568 216 s \$0-t400;
#X obj 637 216 s \$0-t800;
#X obj 707 216 s \$0-t1k6;
#X obj 777 216 s \$0-t3k15;
#X obj 427 246 s \$0-t125;
#X obj 497 246 s \$0-t250;
#X obj 568 246 s \$0-t500;
#X obj 637 246 s \$0-t1k;
#X obj 707 246 s \$0-t2k;
#X obj 777 246 s \$0-t4k;
#X obj 427 276 s \$0-t160;
#X obj 497 276 s \$0-t315;
#X obj 568 276 s \$0-t630;
#X obj 637 276 s \$0-t1k25;
#X obj 707 276 s \$0-t2k5;
#X obj 777 276 s \$0-t5k;
#X obj 367 356 s \$0-ns_l100;
#X obj 367 386 s \$0-ns_l125;
#X obj 367 416 s \$0-ns_l160;
#X obj 457 356 s \$0-ns_l200;
#X obj 457 386 s \$0-ns_l250;
#X obj 457 416 s \$0-ns_l315;
#X obj 548 356 s \$0-ns_l400;
#X obj 548 386 s \$0-ns_l500;
#X obj 548 416 s \$0-ns_l630;
#X obj 637 356 s \$0-ns_l800;
#X obj 637 386 s \$0-ns_l1k;
#X obj 637 416 s \$0-ns_l1k25;
#X obj 727 356 s \$0-ns_l1k6;
#X obj 727 386 s \$0-ns_l2k;
#X obj 728 416 s \$0-ns_l2k5;
#X obj 817 356 s \$0-ns_l3k15;
#X obj 817 386 s \$0-ns_l4k;
#X obj 817 416 s \$0-ns_l5k;
#X obj 49 330 s \$0-set_d2rt;
#X obj 49 390 s \$0-set_d2offset;
#X obj 58 544 samplerate~;
#X obj 58 567 == 44100;
#X obj 58 591 sel 0;
#X obj 75 668 cnv 15 135 20 empty empty empty 20 12 0 14 -228992 -66577
0;
#X msg 126 476 192;
#X msg 159 476 220;
#X obj 126 500 * 65536;
#X obj 160 522 * 256;
#X obj 144 544 +;
#X obj 144 566 +;
#X obj 144 588 - 1;
#X obj 144 610 * -1;
#X obj 108 632 pack 0 0 \$0;
#X msg 78 657 \; \$3-msg1 color \$2 13;
#X obj 75 703 cnv 15 135 20 empty empty empty 20 12 0 14 -228992 -66577
0;
#X obj 75 738 cnv 15 135 20 empty empty empty 20 12 0 14 -228992 -66577
0;
#X msg 78 692 \; \$3-msg2 color \$2 13;
#X msg 78 727 \; \$3-msg3 color \$2 13;
#X obj 116 447 t b b b b;
#X msg 190 476 238;
#X connect 0 0 12 0;
#X connect 0 0 9 0;
#X connect 0 0 32 0;
#X connect 0 0 34 0;
#X connect 0 0 36 0;
#X connect 0 0 55 0;
#X connect 0 0 57 0;
#X connect 0 0 59 0;
#X connect 0 0 122 0;
#X connect 9 0 10 0;
#X connect 10 0 62 0;
#X connect 12 0 63 0;
#X connect 32 0 66 0;
#X connect 32 0 67 0;
#X connect 32 0 68 0;
#X connect 32 0 69 0;
#X connect 32 0 70 0;
#X connect 32 0 71 0;
#X connect 32 0 72 0;
#X connect 32 0 73 0;
#X connect 32 0 74 0;
#X connect 32 0 75 0;
#X connect 32 0 76 0;
#X connect 32 0 77 0;
#X connect 32 0 78 0;
#X connect 32 0 79 0;
#X connect 32 0 80 0;
#X connect 32 0 81 0;
#X connect 32 0 82 0;
#X connect 32 0 83 0;
#X connect 34 0 64 0;
#X connect 36 0 102 0;
#X connect 55 0 84 0;
#X connect 55 0 85 0;
#X connect 55 0 86 0;
#X connect 55 0 87 0;
#X connect 55 0 88 0;
#X connect 55 0 89 0;
#X connect 55 0 90 0;
#X connect 55 0 91 0;
#X connect 55 0 92 0;
#X connect 55 0 93 0;
#X connect 55 0 94 0;
#X connect 55 0 95 0;
#X connect 55 0 96 0;
#X connect 55 0 97 0;
#X connect 55 0 98 0;
#X connect 55 0 99 0;
#X connect 55 0 100 0;
#X connect 55 0 101 0;
#X connect 57 0 65 0;
#X connect 59 0 103 0;
#X connect 104 0 105 0;
#X connect 105 0 106 0;
#X connect 106 0 116 0;
#X connect 108 0 110 0;
#X connect 109 0 111 0;
#X connect 110 0 112 0;
#X connect 111 0 112 1;
#X connect 112 0 113 0;
#X connect 113 0 114 0;
#X connect 114 0 115 0;
#X connect 115 0 116 1;
#X connect 116 0 117 0;
#X connect 116 0 120 0;
#X connect 116 0 121 0;
#X connect 122 0 104 0;
#X connect 122 1 108 0;
#X connect 122 2 109 0;
#X connect 122 3 123 0;
#X connect 123 0 113 1;
#X restore 319 36 pd init;
#X msg 320 65 bang;
#N canvas -5 -3 1015 674 decay 0;
#X obj 66 147 inlet~;
#X obj 44 436 snapshot~;
#X obj 44 458 powtodb;
#X obj 44 413 lp1_t~ 15 200;
#X obj 139 -5 cnv 15 80 15 empty empty empty 20 12 0 14 -262131 -66577
0;
#X text 140 -5 floats;
#X text 17 -7 global variables:;
#X obj 19 -45 cnv 15 80 24 empty empty decay 2 12 1 18 -233017 -1109
0;
#X obj 99 -45 cnv 15 120 24 empty empty subpatch 0 12 1 18 -233017
-1109 0;
#X text 18 172 ------------------------------------------------------------
;
#X text 231 -46 performs decay level estimation in 3rd octave bands.
;
#X obj 57 478 cnv 15 40 25 empty empty empty 20 12 0 14 -262131 -66577
0;
#X obj 100 385 cnv 15 40 25 empty empty empty 20 12 0 14 -262131 -66577
0;
#X obj 44 556 snapshot~;
#X obj 44 578 powtodb;
#X obj 44 533 lp1_t~ 15 200;
#X obj 57 598 cnv 15 40 25 empty empty empty 20 12 0 14 -262131 -66577
0;
#X obj 100 505 cnv 15 40 25 empty empty empty 20 12 0 14 -262131 -66577
0;
#X obj 44 676 snapshot~;
#X obj 44 698 powtodb;
#X obj 44 653 lp1_t~ 15 200;
#X obj 57 718 cnv 15 40 25 empty empty empty 20 12 0 14 -262131 -66577
0;
#X obj 100 625 cnv 15 40 25 empty empty empty 20 12 0 14 -262131 -66577
0;
#X obj 144 436 snapshot~;
#X obj 144 458 powtodb;
#X obj 144 413 lp1_t~ 15 200;
#X obj 157 478 cnv 15 40 25 empty empty empty 20 12 0 14 -262131 -66577
0;
#X obj 200 385 cnv 15 40 25 empty empty empty 20 12 0 14 -262131 -66577
0;
#X obj 144 556 snapshot~;
#X obj 144 578 powtodb;
#X obj 144 533 lp1_t~ 15 200;
#X obj 157 598 cnv 15 40 25 empty empty empty 20 12 0 14 -262131 -66577
0;
#X obj 200 505 cnv 15 40 25 empty empty empty 20 12 0 14 -262131 -66577
0;
#X obj 144 676 snapshot~;
#X obj 144 698 powtodb;
#X obj 144 653 lp1_t~ 15 200;
#X obj 157 718 cnv 15 40 25 empty empty empty 20 12 0 14 -262131 -66577
0;
#X obj 200 625 cnv 15 40 25 empty empty empty 20 12 0 14 -262131 -66577
0;
#X obj 244 436 snapshot~;
#X obj 244 458 powtodb;
#X obj 244 413 lp1_t~ 15 200;
#X obj 257 478 cnv 15 40 25 empty empty empty 20 12 0 14 -262131 -66577
0;
#X obj 300 385 cnv 15 40 25 empty empty empty 20 12 0 14 -262131 -66577
0;
#X obj 244 556 snapshot~;
#X obj 244 578 powtodb;
#X obj 244 533 lp1_t~ 15 200;
#X obj 257 598 cnv 15 40 25 empty empty empty 20 12 0 14 -262131 -66577
0;
#X obj 300 505 cnv 15 40 25 empty empty empty 20 12 0 14 -262131 -66577
0;
#X obj 244 676 snapshot~;
#X obj 244 698 powtodb;
#X obj 244 653 lp1_t~ 15 200;
#X obj 257 718 cnv 15 40 25 empty empty empty 20 12 0 14 -262131 -66577
0;
#X obj 300 625 cnv 15 40 25 empty empty empty 20 12 0 14 -262131 -66577
0;
#X obj 344 436 snapshot~;
#X obj 344 458 powtodb;
#X obj 344 413 lp1_t~ 15 200;
#X obj 357 478 cnv 15 40 25 empty empty empty 20 12 0 14 -262131 -66577
0;
#X obj 400 385 cnv 15 40 25 empty empty empty 20 12 0 14 -262131 -66577
0;
#X obj 344 556 snapshot~;
#X obj 344 578 powtodb;
#X obj 344 533 lp1_t~ 15 200;
#X obj 357 598 cnv 15 40 25 empty empty empty 20 12 0 14 -262131 -66577
0;
#X obj 400 505 cnv 15 40 25 empty empty empty 20 12 0 14 -262131 -66577
0;
#X obj 344 676 snapshot~;
#X obj 344 698 powtodb;
#X obj 344 653 lp1_t~ 15 200;
#X obj 357 718 cnv 15 40 25 empty empty empty 20 12 0 14 -262131 -66577
0;
#X obj 400 625 cnv 15 40 25 empty empty empty 20 12 0 14 -262131 -66577
0;
#X obj 444 436 snapshot~;
#X obj 444 458 powtodb;
#X obj 444 413 lp1_t~ 15 200;
#X obj 457 478 cnv 15 40 25 empty empty empty 20 12 0 14 -262131 -66577
0;
#X obj 500 385 cnv 15 40 25 empty empty empty 20 12 0 14 -262131 -66577
0;
#X obj 444 556 snapshot~;
#X obj 444 578 powtodb;
#X obj 444 533 lp1_t~ 15 200;
#X obj 457 598 cnv 15 40 25 empty empty empty 20 12 0 14 -262131 -66577
0;
#X obj 500 505 cnv 15 40 25 empty empty empty 20 12 0 14 -262131 -66577
0;
#X obj 444 676 snapshot~;
#X obj 444 698 powtodb;
#X obj 444 653 lp1_t~ 15 200;
#X obj 457 718 cnv 15 40 25 empty empty empty 20 12 0 14 -262131 -66577
0;
#X obj 500 625 cnv 15 40 25 empty empty empty 20 12 0 14 -262131 -66577
0;
#X obj 544 436 snapshot~;
#X obj 544 458 powtodb;
#X obj 544 413 lp1_t~ 15 200;
#X obj 557 478 cnv 15 40 25 empty empty empty 20 12 0 14 -262131 -66577
0;
#X obj 600 385 cnv 15 40 25 empty empty empty 20 12 0 14 -262131 -66577
0;
#X obj 544 556 snapshot~;
#X obj 544 578 powtodb;
#X obj 544 533 lp1_t~ 15 200;
#X obj 557 598 cnv 15 40 25 empty empty empty 20 12 0 14 -262131 -66577
0;
#X obj 600 505 cnv 15 40 25 empty empty empty 20 12 0 14 -262131 -66577
0;
#X obj 544 676 snapshot~;
#X obj 544 698 powtodb;
#X obj 544 653 lp1_t~ 15 200;
#X obj 557 718 cnv 15 40 25 empty empty empty 20 12 0 14 -262131 -66577
0;
#X obj 600 625 cnv 15 40 25 empty empty empty 20 12 0 14 -262131 -66577
0;
#X msg 366 293 1;
#X obj 366 155 loadbang;
#X obj 140 106 cnv 15 80 15 empty empty empty 20 12 0 14 -261681 -66577
0;
#X text 142 105 arrays;
#X obj 140 122 cnv 15 80 15 empty empty empty 20 12 0 14 -228992 -66577
0;
#X text 142 122 symbols;
#X obj 727 -5 cnv 15 45 20 empty empty empty 20 12 0 14 -261681 -66577
0;
#X obj 727 18 cnv 15 45 20 empty empty empty 20 12 0 14 -261681 -66577
0;
#X obj 727 41 cnv 15 45 20 empty empty empty 20 12 0 14 -261681 -66577
0;
#X obj 857 -5 cnv 15 45 20 empty empty empty 20 12 0 14 -261681 -66577
0;
#X obj 857 18 cnv 15 45 20 empty empty empty 20 12 0 14 -261681 -66577
0;
#X obj 857 41 cnv 15 45 20 empty empty empty 20 12 0 14 -261681 -66577
0;
#X obj 987 -5 cnv 15 45 20 empty empty empty 20 12 0 14 -261681 -66577
0;
#X obj 987 18 cnv 15 45 20 empty empty empty 20 12 0 14 -261681 -66577
0;
#X obj 987 41 cnv 15 45 20 empty empty empty 20 12 0 14 -261681 -66577
0;
#X obj 727 64 cnv 15 45 20 empty empty empty 20 12 0 14 -261681 -66577
0;
#X obj 727 87 cnv 15 45 20 empty empty empty 20 12 0 14 -261681 -66577
0;
#X obj 727 110 cnv 15 45 20 empty empty empty 20 12 0 14 -261681 -66577
0;
#X obj 864 64 cnv 15 45 20 empty empty empty 20 12 0 14 -261681 -66577
0;
#X obj 864 87 cnv 15 45 20 empty empty empty 20 12 0 14 -261681 -66577
0;
#X obj 864 110 cnv 15 45 20 empty empty empty 20 12 0 14 -261681 -66577
0;
#X obj 994 64 cnv 15 45 20 empty empty empty 20 12 0 14 -261681 -66577
0;
#X obj 994 87 cnv 15 45 20 empty empty empty 20 12 0 14 -261681 -66577
0;
#X obj 994 110 cnv 15 45 20 empty empty empty 20 12 0 14 -261681 -66577
0;
#X obj 87 307 cnv 15 210 25 empty empty empty 20 12 0 14 -225271 -66577
0;
#N canvas 86 158 1198 674 thirdoct_analfiltbank_44100Hz 0;
#X obj 433 28 inlet~;
#X text 136 172 200Hz;
#X text 156 281 250Hz;
#X text 176 391 315Hz;
#X text 398 172 400Hz;
#X text 668 172 800Hz;
#X text 425 282 500Hz;
#X text 446 391 630Hz;
#X text 695 281 1000Hz;
#X text 716 391 1250Hz;
#X obj 355 304 biquad~ 1.97934 -0.984368 1 0 -1;
#X obj 355 325 biquad~ 1.98529 -0.99141 1 0 -1;
#X obj 355 346 biquad~ 1.98873 -0.992902 1 0 -1;
#X obj 355 366 /~ 2.07896e+006;
#X obj 625 304 biquad~ 1.94903 -0.968981 1 0 -1;
#X obj 625 324 biquad~ 1.95858 -0.982903 1 0 -1;
#X obj 625 345 biquad~ 1.96922 -0.985843 1 0 -1;
#X obj 625 365 /~ 263948;
#X text 938 172 1600Hz;
#X text 965 281 2000Hz;
#X text 986 391 2500Hz;
#X text 1235 281 4000Hz;
#X text 1256 391 5000Hz;
#X text 1208 172 3150Hz;
#X obj 895 304 biquad~ 1.86068 -0.938895 1 0 -1;
#X obj 895 324 biquad~ 1.87027 -0.966166 1 0 -1;
#X obj 895 345 biquad~ 1.9061 -0.971835 1 0 -1;
#X obj 895 365 /~ 34024.4;
#X obj 1165 304 biquad~ 1.58358 -0.881301 1 0 -1;
#X obj 1165 324 biquad~ 1.56581 -0.934006 1 0 -1;
#X obj 1165 345 biquad~ 1.68907 -0.944046 1 0 -1;
#X obj 1165 365 /~ 4516.51;
#X obj 87 304 biquad~ 1.99091 -0.992174 1 0 -1;
#X obj 87 324 biquad~ 1.99418 -0.995714 1 0 -1;
#X obj 87 345 biquad~ 1.99536 -0.996406 1 0 -1;
#X obj 87 365 /~ 1.6502e+007;
#X obj 335 194 biquad~ 1.9844 -0.987574 1 0 -1;
#X obj 335 214 biquad~ 1.98932 -0.993176 1 0 -1;
#X obj 335 254 /~ 4.14453e+006;
#X obj 605 194 biquad~ 1.96268 -0.975302 1 0 -1;
#X obj 605 214 biquad~ 1.97104 -0.986403 1 0 -1;
#X obj 605 234 biquad~ 1.97826 -0.98875 1 0 -1;
#X obj 605 254 /~ 524523;
#X obj 107 414 biquad~ 1.98812 -0.990125 1 0 -1;
#X obj 107 434 biquad~ 1.99215 -0.99458 1 0 -1;
#X obj 107 454 biquad~ 1.99386 -0.995522 1 0 -1;
#X obj 107 474 /~ 8.26783e+006;
#X obj 375 414 biquad~ 1.97238 -0.980347 1 0 -1;
#X obj 375 434 biquad~ 1.9795 -0.989191 1 0 -1;
#X obj 375 454 biquad~ 1.98444 -0.991062 1 0 -1;
#X obj 375 474 /~ 1.04371e+006;
#X obj 645 414 biquad~ 1.92956 -0.961073 1 0 -1;
#X obj 645 434 biquad~ 1.94003 -0.978516 1 0 -1;
#X obj 645 454 biquad~ 1.95588 -0.98219 1 0 -1;
#X obj 645 474 /~ 133040;
#X obj 875 194 biquad~ 1.9015 -0.951199 1 0 -1;
#X obj 875 214 biquad~ 1.91222 -0.973024 1 0 -1;
#X obj 875 234 biquad~ 1.93598 -0.9776 1 0 -1;
#X obj 875 254 /~ 67194.4;
#X obj 915 414 biquad~ 1.8009 -0.923604 1 0 -1;
#X obj 915 434 biquad~ 1.80679 -0.957626 1 0 -1;
#X obj 915 454 biquad~ 1.86096 -0.964593 1 0 -1;
#X obj 915 474 /~ 17283.2;
#X obj 1185 414 biquad~ 1.39425 -0.852615 1 0 -1;
#X obj 1185 434 biquad~ 1.34945 -0.918106 1 0 -1;
#X obj 1185 454 biquad~ 1.53307 -0.929602 1 0 -1;
#X obj 1185 474 /~ 2328.2;
#X obj 1145 194 biquad~ 1.71264 -0.904603 1 0 -1;
#X obj 1145 214 biquad~ 1.71034 -0.947007 1 0 -1;
#X obj 1145 234 biquad~ 1.79234 -0.955463 1 0 -1;
#X obj 1145 254 /~ 8796.1;
#X obj 67 194 biquad~ 1.99298 -0.99378 1 0 -1;
#X obj 67 214 biquad~ 1.99563 -0.996592 1 0 -1;
#X obj 67 234 biquad~ 1.9965 -0.997155 1 0 -1;
#X obj 67 254 /~ 3.29506e+007;
#X obj 335 234 biquad~ 1.99173 -0.994362 1 0 -1;
#X obj 68 511 outlet~;
#X obj 127 511 outlet~;
#X obj 335 511 outlet~;
#X obj 605 511 outlet~;
#X obj 875 511 outlet~;
#X obj 1145 511 outlet~;
#X obj 187 511 outlet~;
#X obj 395 511 outlet~;
#X obj 455 511 outlet~;
#X obj 1205 511 outlet~;
#X obj 665 511 outlet~;
#X obj 725 511 outlet~;
#X obj 1265 511 outlet~;
#X obj 935 511 outlet~;
#X obj 995 511 outlet~;
#X obj -143 194 lp6_butt~ 2000;
#X obj -143 244 lp6_butt~ 2000;
#X obj -123 215 cnv 15 150 25 empty empty empty 20 12 0 14 -225271
-66577 0;
#N canvas 255 126 565 491 thirdoct_100_22050Hz 0;
#X obj 23 -19 inlet~;
#X text 8 5 ------------------------------------------------------------
;
#X text 8 245 ------------------------------------------------------------
;
#X obj 20 282 outlet~;
#X obj 21 176 *~ 2;
#X obj 341 34 block~ 64 1 0.5;
#X obj 19 -109 cnv 15 300 24 empty empty thirdoct_100_22050Hz 20 12
1 18 -233017 -1109 0;
#X obj 319 -109 cnv 15 120 24 empty empty subpatch 0 12 1 18 -233017
-1109 0;
#X text 26 -74 input;
#X text 24 -61 signal;
#X text 40 -46 |;
#X text 40 -36 V;
#X text 24 336 signal;
#X text 40 300 |;
#X text 40 310 V;
#X text 23 323 output;
#X obj 22 34 biquad~ 1.99298 -0.99378 1 0 -1;
#X obj 22 54 biquad~ 1.99563 -0.996592 1 0 -1;
#X obj 22 74 biquad~ 1.9965 -0.997155 1 0 -1;
#X obj 22 94 /~ 3.29506e+007;
#X text 428 5 ---;
#X text 428 245 ---;
#X connect 0 0 16 0;
#X connect 4 0 3 0;
#X connect 16 0 17 0;
#X connect 17 0 18 0;
#X connect 18 0 19 0;
#X connect 19 0 4 0;
#X restore -143 219 pd thirdoct_100_22050Hz;
#X text -84 172 100Hz;
#X obj -123 304 lp6_butt~ 2000;
#X obj -123 354 lp6_butt~ 2000;
#X obj -103 325 cnv 15 150 25 empty empty empty 20 12 0 14 -225271
-66577 0;
#X obj -103 414 lp6_butt~ 2000;
#X obj -103 464 lp6_butt~ 2000;
#X obj -83 435 cnv 15 150 25 empty empty empty 20 12 0 14 -225271 -66577
0;
#X text -64 282 125Hz;
#X text -44 392 160Hz;
#N canvas 143 500 565 491 thirdoct_125_22050Hz 0;
#X obj 23 -19 inlet~;
#X text 8 5 ------------------------------------------------------------
;
#X text 8 245 ------------------------------------------------------------
;
#X obj 20 282 outlet~;
#X obj 21 176 *~ 2;
#X obj 341 34 block~ 64 1 0.5;
#X obj 19 -109 cnv 15 300 24 empty empty thirdoct_125_22050Hz 20 12
1 18 -233017 -1109 0;
#X obj 319 -109 cnv 15 120 24 empty empty subpatch 0 12 1 18 -233017
-1109 0;
#X text 26 -74 input;
#X text 24 -61 signal;
#X text 40 -46 |;
#X text 40 -36 V;
#X text 24 336 signal;
#X text 40 300 |;
#X text 40 310 V;
#X text 23 323 output;
#X text 428 5 ---;
#X text 428 245 ---;
#X obj 22 44 biquad~ 1.99091 -0.992174 1 0 -1;
#X obj 22 64 biquad~ 1.99418 -0.995714 1 0 -1;
#X obj 22 85 biquad~ 1.99536 -0.996406 1 0 -1;
#X obj 22 105 /~ 1.6502e+007;
#X connect 0 0 18 0;
#X connect 4 0 3 0;
#X connect 18 0 19 0;
#X connect 19 0 20 0;
#X connect 20 0 21 0;
#X connect 21 0 4 0;
#X restore -123 329 pd thirdoct_125_22050Hz;
#N canvas 588 413 565 491 thirdoct_160_22050Hz 0;
#X obj 23 -19 inlet~;
#X text 8 5 ------------------------------------------------------------
;
#X text 8 245 ------------------------------------------------------------
;
#X obj 20 282 outlet~;
#X obj 21 176 *~ 2;
#X obj 341 34 block~ 64 1 0.5;
#X obj 19 -109 cnv 15 300 24 empty empty thirdoct_160_22050Hz 20 12
1 18 -233017 -1109 0;
#X obj 319 -109 cnv 15 120 24 empty empty subpatch 0 12 1 18 -233017
-1109 0;
#X text 26 -74 input;
#X text 24 -61 signal;
#X text 40 -46 |;
#X text 40 -36 V;
#X text 24 336 signal;
#X text 40 300 |;
#X text 40 310 V;
#X text 23 323 output;
#X text 428 5 ---;
#X text 428 245 ---;
#X obj 22 44 biquad~ 1.98812 -0.990125 1 0 -1;
#X obj 22 64 biquad~ 1.99215 -0.99458 1 0 -1;
#X obj 22 84 biquad~ 1.99386 -0.995522 1 0 -1;
#X obj 22 104 /~ 8.26783e+006;
#X connect 0 0 18 0;
#X connect 4 0 3 0;
#X connect 18 0 19 0;
#X connect 19 0 20 0;
#X connect 20 0 21 0;
#X connect 21 0 4 0;
#X restore -103 439 pd thirdoct_160_22050Hz;
#X obj -142 511 outlet~;
#X obj -83 511 outlet~;
#X obj -23 511 outlet~;
#X connect 0 0 71 0;
#X connect 0 0 32 0;
#X connect 0 0 43 0;
#X connect 0 0 36 0;
#X connect 0 0 39 0;
#X connect 0 0 55 0;
#X connect 0 0 67 0;
#X connect 0 0 10 0;
#X connect 0 0 14 0;
#X connect 0 0 47 0;
#X connect 0 0 51 0;
#X connect 0 0 59 0;
#X connect 0 0 63 0;
#X connect 0 0 24 0;
#X connect 0 0 28 0;
#X connect 0 0 91 0;
#X connect 0 0 96 0;
#X connect 0 0 99 0;
#X connect 10 0 11 0;
#X connect 11 0 12 0;
#X connect 12 0 13 0;
#X connect 13 0 83 0;
#X connect 14 0 15 0;
#X connect 15 0 16 0;
#X connect 16 0 17 0;
#X connect 17 0 86 0;
#X connect 24 0 25 0;
#X connect 25 0 26 0;
#X connect 26 0 27 0;
#X connect 27 0 89 0;
#X connect 28 0 29 0;
#X connect 29 0 30 0;
#X connect 30 0 31 0;
#X connect 31 0 85 0;
#X connect 32 0 33 0;
#X connect 33 0 34 0;
#X connect 34 0 35 0;
#X connect 35 0 77 0;
#X connect 36 0 37 0;
#X connect 37 0 75 0;
#X connect 38 0 78 0;
#X connect 39 0 40 0;
#X connect 40 0 41 0;
#X connect 41 0 42 0;
#X connect 42 0 79 0;
#X connect 43 0 44 0;
#X connect 44 0 45 0;
#X connect 45 0 46 0;
#X connect 46 0 82 0;
#X connect 47 0 48 0;
#X connect 48 0 49 0;
#X connect 49 0 50 0;
#X connect 50 0 84 0;
#X connect 51 0 52 0;
#X connect 52 0 53 0;
#X connect 53 0 54 0;
#X connect 54 0 87 0;
#X connect 55 0 56 0;
#X connect 56 0 57 0;
#X connect 57 0 58 0;
#X connect 58 0 80 0;
#X connect 59 0 60 0;
#X connect 60 0 61 0;
#X connect 61 0 62 0;
#X connect 62 0 90 0;
#X connect 63 0 64 0;
#X connect 64 0 65 0;
#X connect 65 0 66 0;
#X connect 66 0 88 0;
#X connect 67 0 68 0;
#X connect 68 0 69 0;
#X connect 69 0 70 0;
#X connect 70 0 81 0;
#X connect 71 0 72 0;
#X connect 72 0 73 0;
#X connect 73 0 74 0;
#X connect 74 0 76 0;
#X connect 75 0 38 0;
#X connect 91 0 94 0;
#X connect 92 0 106 0;
#X connect 94 0 92 0;
#X connect 96 0 104 0;
#X connect 97 0 107 0;
#X connect 99 0 105 0;
#X connect 100 0 108 0;
#X connect 104 0 97 0;
#X connect 105 0 100 0;
#X restore 66 311 pd thirdoct_analfiltbank_44100Hz;
#X obj 58 338 *~;
#X obj 83 338 *~;
#X obj 109 338 *~;
#X obj 135 338 *~;
#X obj 161 338 *~;
#X obj 186 338 *~;
#X obj 212 338 *~;
#X obj 238 338 *~;
#X obj 264 338 *~;
#X obj 71 358 *~;
#X obj 96 358 *~;
#X obj 122 358 *~;
#X obj 148 358 *~;
#X obj 174 358 *~;
#X obj 199 358 *~;
#X obj 225 358 *~;
#X obj 251 358 *~;
#X obj 277 358 *~;
#X obj 461 257 modulo_counter 1000;
#X msg 569 224 0;
#X obj 474 278 cnv 15 30 25 empty empty empty 20 12 0 14 -262131 -66577
0;
#X obj 366 336 t b b;
#X obj 366 314 metro 20;
#X obj 628 195 cnv 15 60 25 empty empty empty 20 12 0 14 -262131 -66577
0;
#X obj 615 224 t b b b b b;
#X obj 654 481 cnv 15 45 260 empty empty empty 20 12 0 14 -261681 -66577
0;
#X msg 399 293 0;
#X obj 550 338 cnv 15 100 25 empty empty empty 20 12 0 14 -262131 -66577
0;
#X msg 615 248 0;
#X obj 513 195 cnv 15 80 25 empty empty empty 20 12 0 14 -262131 -66577
0;
#X obj 524 292 nbx 5 14 -1e+037 1e+037 0 0 empty empty empty 0 -6 0
10 -262144 -1 -1 0 256;
#X obj 481 312 == 999;
#X obj 502 337 &&;
#X msg 530 312 0;
#X msg 560 312 1;
#X obj 502 362 sel 1;
#X obj 500 221 t b b;
#X obj 412 195 cnv 15 55 25 empty empty empty 20 12 0 14 -262131 -66577
0;
#X obj 88 244 dbtorms;
#X obj 88 219 + 140;
#X obj 88 265 / 100;
#X obj 65 286 *~ 0;
#X obj 147 276 cnv 15 140 25 empty empty empty 20 12 0 14 -228992 -66577
0;
#X obj 139 190 cnv 15 115 25 empty empty empty 20 12 1 14 -262131 -66577
0;
#X obj 149 219 makefilename %ddB;
#X obj 689 -3 table \$0-d100 1000;
#X obj 689 20 table \$0-d125 1000;
#X obj 689 43 table \$0-d160 1000;
#X obj 689 66 table \$0-d800 1000;
#X obj 689 89 table \$0-d1k 1000;
#X obj 689 112 table \$0-d1k25 1000;
#X obj 819 -3 table \$0-d200 1000;
#X obj 819 20 table \$0-d250 1000;
#X obj 819 43 table \$0-d315 1000;
#X obj 826 66 table \$0-d1k6 1000;
#X obj 826 89 table \$0-d2k 1000;
#X obj 826 112 table \$0-d2k5 1000;
#X obj 949 -3 table \$0-d400 1000;
#X obj 949 20 table \$0-d500 1000;
#X obj 949 43 table \$0-d630 1000;
#X obj 956 66 table \$0-d3k15 1000;
#X obj 956 89 table \$0-d4k 1000;
#X obj 956 112 table \$0-d5k 1000;
#X obj 127 194 r \$0-monitor_level;
#X obj 399 198 r \$0-stoprec;
#X obj 500 198 r \$0-testsig_pp;
#X obj 615 198 r \$0-trigger;
#X obj 537 341 s \$0-set_testsig_pp;
#X obj 461 281 s \$0-idx;
#X obj 587 388 r \$0-t3k15;
#X obj 487 388 r \$0-t1k6;
#X obj 387 388 r \$0-t800;
#X obj 287 388 r \$0-t400;
#X obj 187 388 r \$0-t200;
#X obj 87 388 r \$0-t100;
#X obj 44 481 s \$0-l100;
#X obj 144 481 s \$0-l200;
#X obj 244 481 s \$0-l400;
#X obj 344 481 s \$0-l800;
#X obj 444 481 s \$0-l1k6;
#X obj 544 481 s \$0-l3k15;
#X obj 587 508 r \$0-t4k;
#X obj 487 508 r \$0-t2k;
#X obj 387 508 r \$0-t1k;
#X obj 287 508 r \$0-t500;
#X obj 187 508 r \$0-t250;
#X obj 87 508 r \$0-t125;
#X obj 44 601 s \$0-l125;
#X obj 144 601 s \$0-l250;
#X obj 244 601 s \$0-l500;
#X obj 344 601 s \$0-l1k;
#X obj 444 601 s \$0-l2k;
#X obj 544 601 s \$0-l4k;
#X obj 87 628 r \$0-t160;
#X obj 187 628 r \$0-t315;
#X obj 287 628 r \$0-t630;
#X obj 387 628 r \$0-t1k25;
#X obj 487 628 r \$0-t2k5;
#X obj 587 628 r \$0-t5k;
#X obj 544 721 s \$0-l5k;
#X obj 444 721 s \$0-l2k5;
#X obj 344 721 s \$0-l1k25;
#X obj 244 721 s \$0-l630;
#X obj 144 721 s \$0-l315;
#X obj 44 721 s \$0-l160;
#X obj 149 242 pack s \$0;
#X msg 149 264 \; \$2-monitor_levelstr label \$1;
#X obj 994 478 cnv 15 40 25 empty empty empty 20 12 0 14 -262131 -66577
0;
#X obj 1064 478 cnv 15 40 25 empty empty empty 20 12 0 14 -262131 -66577
0;
#X obj 993 568 cnv 15 40 25 empty empty empty 20 12 0 14 -262131 -66577
0;
#X obj 1063 568 cnv 15 40 25 empty empty empty 20 12 0 14 -262131 -66577
0;
#X obj 994 658 cnv 15 40 25 empty empty empty 20 12 0 14 -262131 -66577
0;
#X obj 1064 658 cnv 15 40 25 empty empty empty 20 12 0 14 -262131 -66577
0;
#X obj 994 508 cnv 15 40 25 empty empty empty 20 12 0 14 -262131 -66577
0;
#X obj 1064 508 cnv 15 40 25 empty empty empty 20 12 0 14 -262131 -66577
0;
#X obj 993 598 cnv 15 40 25 empty empty empty 20 12 0 14 -262131 -66577
0;
#X obj 1063 598 cnv 15 40 25 empty empty empty 20 12 0 14 -262131 -66577
0;
#X obj 994 688 cnv 15 40 25 empty empty empty 20 12 0 14 -262131 -66577
0;
#X obj 1064 688 cnv 15 40 25 empty empty empty 20 12 0 14 -262131 -66577
0;
#X obj 994 538 cnv 15 40 25 empty empty empty 20 12 0 14 -262131 -66577
0;
#X obj 1064 538 cnv 15 40 25 empty empty empty 20 12 0 14 -262131 -66577
0;
#X obj 993 628 cnv 15 40 25 empty empty empty 20 12 0 14 -262131 -66577
0;
#X obj 1063 628 cnv 15 40 25 empty empty empty 20 12 0 14 -262131 -66577
0;
#X obj 994 718 cnv 15 40 25 empty empty empty 20 12 0 14 -262131 -66577
0;
#X obj 1064 718 cnv 15 40 25 empty empty empty 20 12 0 14 -262131 -66577
0;
#X msg 1003 429 15;
#X msg 1045 429 1000;
#X obj 981 481 s \$0-t100;
#X obj 1051 481 s \$0-t200;
#X obj 981 571 s \$0-t400;
#X obj 1050 571 s \$0-t800;
#X obj 981 661 s \$0-t1k6;
#X obj 1051 661 s \$0-t3k15;
#X obj 981 511 s \$0-t125;
#X obj 1051 511 s \$0-t250;
#X obj 981 601 s \$0-t500;
#X obj 1050 601 s \$0-t1k;
#X obj 981 691 s \$0-t2k;
#X obj 1051 691 s \$0-t4k;
#X obj 981 541 s \$0-t160;
#X obj 1051 541 s \$0-t315;
#X obj 981 631 s \$0-t630;
#X obj 1050 631 s \$0-t1k25;
#X obj 981 721 s \$0-t2k5;
#X obj 1051 721 s \$0-t5k;
#X obj 1026 375 cnv 15 60 25 empty empty empty 20 12 0 14 -262131 -66577
0;
#X obj 1013 378 r \$0-slow;
#X obj 1013 403 sel 0 1;
#X text 229 -4 \$0-l100 \, \$0-l125 \, \$0-l160 \, \$0-l200 \, \$0-l250
\, \$0-l315 \, \$0-l400 \, \$0-l500 \, \$0-l630 \, \$0-l800 \, \$0-l1k
\, \$0-l1k25 \, \$0-l1k6 \, \$0-l2k \, \$0-l2k5 \, \$0-l3k15 \, \$0-l4k
\, \$0-l5k \, \$0-idx \, \$0-t100 \, \$0-t125 \, \$0-t160 \, \$0-t200
\, \$0-t250 \, \$0-t315 \, \$0-t400 \, \$0-t500 \, \$0-t630 \, \$0-t800
\, \$0-t1k \, \$0-t1k25 \, \$0-t1k6 \, \$0-t2k \, \$0-t2k5 \, \$0-t3k15
\, \$0-t4k \, \$0-t5k \, \$0-trigger \, \$0-testsig_pp \, \$0-set_testsig_pp
\, \$0-stoprec \, \$0-slow;
#X text 438 172 ------------------------------------------------------------
;
#X obj 276 235 cnv 15 120 20 empty empty empty 20 12 0 14 -228992 -66577
0;
#X obj 279 200 f \$0;
#X msg 279 222 \; \$1-fnsavestr label Measurement;
#X obj 312 200 b;
#X text 858 172 ---------------------------------------;
#X connect 0 0 165 0;
#X connect 1 0 2 0;
#X connect 2 0 199 0;
#X connect 3 0 1 0;
#X connect 13 0 14 0;
#X connect 14 0 211 0;
#X connect 15 0 13 0;
#X connect 18 0 19 0;
#X connect 19 0 228 0;
#X connect 20 0 18 0;
#X connect 23 0 24 0;
#X connect 24 0 200 0;
#X connect 25 0 23 0;
#X connect 28 0 29 0;
#X connect 29 0 212 0;
#X connect 30 0 28 0;
#X connect 33 0 34 0;
#X connect 34 0 227 0;
#X connect 35 0 33 0;
#X connect 38 0 39 0;
#X connect 39 0 201 0;
#X connect 40 0 38 0;
#X connect 43 0 44 0;
#X connect 44 0 213 0;
#X connect 45 0 43 0;
#X connect 48 0 49 0;
#X connect 49 0 226 0;
#X connect 50 0 48 0;
#X connect 53 0 54 0;
#X connect 54 0 202 0;
#X connect 55 0 53 0;
#X connect 58 0 59 0;
#X connect 59 0 214 0;
#X connect 60 0 58 0;
#X connect 63 0 64 0;
#X connect 64 0 225 0;
#X connect 65 0 63 0;
#X connect 68 0 69 0;
#X connect 69 0 203 0;
#X connect 70 0 68 0;
#X connect 73 0 74 0;
#X connect 74 0 215 0;
#X connect 75 0 73 0;
#X connect 78 0 79 0;
#X connect 79 0 224 0;
#X connect 80 0 78 0;
#X connect 83 0 84 0;
#X connect 84 0 204 0;
#X connect 85 0 83 0;
#X connect 88 0 89 0;
#X connect 89 0 216 0;
#X connect 90 0 88 0;
#X connect 93 0 94 0;
#X connect 94 0 223 0;
#X connect 95 0 93 0;
#X connect 98 0 146 0;
#X connect 99 0 98 0;
#X connect 123 0 124 0;
#X connect 123 0 124 1;
#X connect 123 1 133 0;
#X connect 123 1 133 1;
#X connect 123 2 125 0;
#X connect 123 2 125 1;
#X connect 123 3 134 0;
#X connect 123 3 134 1;
#X connect 123 4 126 0;
#X connect 123 4 126 1;
#X connect 123 5 135 0;
#X connect 123 5 135 1;
#X connect 123 6 127 0;
#X connect 123 6 127 1;
#X connect 123 7 136 0;
#X connect 123 7 136 1;
#X connect 123 8 128 0;
#X connect 123 8 128 1;
#X connect 123 9 137 0;
#X connect 123 9 137 1;
#X connect 123 10 129 0;
#X connect 123 10 129 1;
#X connect 123 11 138 0;
#X connect 123 11 138 1;
#X connect 123 12 130 0;
#X connect 123 12 130 1;
#X connect 123 13 139 0;
#X connect 123 13 139 1;
#X connect 123 14 131 0;
#X connect 123 14 131 1;
#X connect 123 15 140 0;
#X connect 123 15 140 1;
#X connect 123 16 132 0;
#X connect 123 16 132 1;
#X connect 123 17 141 0;
#X connect 123 17 141 1;
#X connect 124 0 3 0;
#X connect 125 0 20 0;
#X connect 126 0 30 0;
#X connect 127 0 40 0;
#X connect 128 0 50 0;
#X connect 129 0 60 0;
#X connect 130 0 70 0;
#X connect 131 0 80 0;
#X connect 132 0 90 0;
#X connect 133 0 15 0;
#X connect 134 0 25 0;
#X connect 135 0 35 0;
#X connect 136 0 45 0;
#X connect 137 0 55 0;
#X connect 138 0 65 0;
#X connect 139 0 75 0;
#X connect 140 0 85 0;
#X connect 141 0 95 0;
#X connect 142 0 155 0;
#X connect 142 0 192 0;
#X connect 143 0 142 1;
#X connect 145 0 1 0;
#X connect 145 0 13 0;
#X connect 145 0 18 0;
#X connect 145 0 23 0;
#X connect 145 0 28 0;
#X connect 145 0 33 0;
#X connect 145 0 38 0;
#X connect 145 0 43 0;
#X connect 145 0 48 0;
#X connect 145 0 53 0;
#X connect 145 0 58 0;
#X connect 145 0 63 0;
#X connect 145 0 68 0;
#X connect 145 0 73 0;
#X connect 145 0 78 0;
#X connect 145 0 83 0;
#X connect 145 0 88 0;
#X connect 145 0 93 0;
#X connect 145 1 142 0;
#X connect 146 0 145 0;
#X connect 148 0 152 0;
#X connect 148 0 158 0;
#X connect 148 1 98 0;
#X connect 148 2 143 0;
#X connect 148 4 150 0;
#X connect 150 0 146 0;
#X connect 150 0 277 0;
#X connect 152 0 191 0;
#X connect 155 0 156 0;
#X connect 156 0 159 0;
#X connect 157 0 156 1;
#X connect 158 0 156 1;
#X connect 159 0 150 0;
#X connect 160 0 98 0;
#X connect 160 1 157 0;
#X connect 162 0 164 0;
#X connect 163 0 162 0;
#X connect 164 0 165 1;
#X connect 165 0 123 0;
#X connect 168 0 229 0;
#X connect 187 0 163 0;
#X connect 187 0 168 0;
#X connect 188 0 150 0;
#X connect 189 0 160 0;
#X connect 190 0 148 0;
#X connect 193 0 85 1;
#X connect 194 0 70 1;
#X connect 195 0 55 1;
#X connect 196 0 40 1;
#X connect 197 0 25 1;
#X connect 198 0 3 1;
#X connect 205 0 90 1;
#X connect 206 0 75 1;
#X connect 207 0 60 1;
#X connect 208 0 45 1;
#X connect 209 0 30 1;
#X connect 210 0 15 1;
#X connect 217 0 20 1;
#X connect 218 0 35 1;
#X connect 219 0 50 1;
#X connect 220 0 65 1;
#X connect 221 0 80 1;
#X connect 222 0 95 1;
#X connect 229 0 230 0;
#X connect 249 0 251 0;
#X connect 249 0 252 0;
#X connect 249 0 253 0;
#X connect 249 0 254 0;
#X connect 249 0 255 0;
#X connect 249 0 256 0;
#X connect 249 0 257 0;
#X connect 249 0 258 0;
#X connect 249 0 259 0;
#X connect 249 0 260 0;
#X connect 249 0 261 0;
#X connect 249 0 262 0;
#X connect 249 0 263 0;
#X connect 249 0 264 0;
#X connect 249 0 265 0;
#X connect 249 0 266 0;
#X connect 249 0 267 0;
#X connect 249 0 268 0;
#X connect 250 0 251 0;
#X connect 250 0 252 0;
#X connect 250 0 253 0;
#X connect 250 0 254 0;
#X connect 250 0 255 0;
#X connect 250 0 256 0;
#X connect 250 0 257 0;
#X connect 250 0 258 0;
#X connect 250 0 259 0;
#X connect 250 0 260 0;
#X connect 250 0 261 0;
#X connect 250 0 262 0;
#X connect 250 0 263 0;
#X connect 250 0 264 0;
#X connect 250 0 265 0;
#X connect 250 0 266 0;
#X connect 250 0 267 0;
#X connect 250 0 268 0;
#X connect 270 0 271 0;
#X connect 271 0 249 0;
#X connect 271 1 250 0;
#X connect 275 0 276 0;
#X connect 277 0 275 0;
#X restore 386 73 pd decay;
#N canvas 322 375 706 397 EQbands 0;
#X obj 481 104 r \$0-l100;
#X obj 42 82 r \$0-l125;
#X obj 42 137 r \$0-l160;
#X obj 105 18 r \$0-l200;
#X obj 125 82 r \$0-l250;
#X obj 127 137 r \$0-l315;
#X obj 202 28 r \$0-l400;
#X obj 202 83 r \$0-l500;
#X obj 202 138 r \$0-l630;
#X obj 283 28 r \$0-l800;
#X obj 283 83 r \$0-l1k;
#X obj 283 138 r \$0-l1k25;
#X obj 367 29 r \$0-l1k6;
#X obj 367 84 r \$0-l2k;
#X obj 354 135 r \$0-l2k5;
#X obj 448 28 r \$0-l3k15;
#X obj 448 83 r \$0-l4k;
#X obj 429 134 r \$0-l5k;
#X obj 123 264 outlet;
#X obj 561 68 inlet;
#X obj 222 261 print;
#X obj 456 240 t f f;
#X obj 303 273 pack 0 0;
#X obj 58 263 nbx 5 14 -1e+037 1e+037 0 0 empty empty empty 0 -6 0
10 -262144 -1 -1 0 256;
#X obj 123 229 multiplex 1 2 3 4 5 6 7 8 9 10 11 12 13 14 15 16;
#X obj 561 93 t b a;
#X obj 216 195 f;
#X obj 240 195 f;
#X obj 265 194 f;
#X obj 289 194 f;
#X obj 118 193 f;
#X obj 142 193 f;
#X obj 167 192 f;
#X obj 191 192 f;
#X obj 411 193 f;
#X obj 435 193 f;
#X obj 460 192 f;
#X obj 484 192 f;
#X obj 313 191 f;
#X obj 337 191 f;
#X obj 362 190 f;
#X obj 386 190 f;
#X connect 3 0 30 1;
#X connect 4 0 31 1;
#X connect 5 0 32 1;
#X connect 6 0 26 1;
#X connect 7 0 27 1;
#X connect 8 0 28 1;
#X connect 9 0 29 1;
#X connect 10 0 38 1;
#X connect 11 0 39 1;
#X connect 12 0 40 1;
#X connect 13 0 41 1;
#X connect 14 0 34 1;
#X connect 15 0 35 1;
#X connect 16 0 36 1;
#X connect 17 0 37 1;
#X connect 19 0 25 0;
#X connect 21 0 22 0;
#X connect 22 0 20 0;
#X connect 24 0 18 0;
#X connect 24 0 22 1;
#X connect 25 0 30 0;
#X connect 25 0 31 0;
#X connect 25 0 32 0;
#X connect 25 0 33 0;
#X connect 25 0 26 0;
#X connect 25 0 27 0;
#X connect 25 0 28 0;
#X connect 25 0 29 0;
#X connect 25 0 38 0;
#X connect 25 0 39 0;
#X connect 25 0 40 0;
#X connect 25 0 41 0;
#X connect 25 0 34 0;
#X connect 25 0 35 0;
#X connect 25 0 36 0;
#X connect 25 0 37 0;
#X connect 25 1 24 16;
#X connect 26 0 24 4;
#X connect 27 0 24 5;
#X connect 28 0 24 6;
#X connect 29 0 24 7;
#X connect 30 0 24 0;
#X connect 31 0 24 1;
#X connect 32 0 24 2;
#X connect 33 0 24 3;
#X connect 34 0 24 12;
#X connect 35 0 24 13;
#X connect 36 0 24 14;
#X connect 37 0 24 15;
#X connect 38 0 24 8;
#X connect 39 0 24 9;
#X connect 40 0 24 10;
#X connect 41 0 24 11;
#X restore 199 231 pd EQbands;
#X obj 9 11 cnv 15 175 90 empty empty empty 20 12 0 14 -195568 -66577
0;
#N canvas 527 323 474 324 gemwin 0;
#X obj 132 136 gemwin;
#X obj 67 89 outlet;
#X obj 67 10 inlet;
#X obj 67 41 route create;
#X msg 67 70 set destroy;
#X msg 142 68 set create;
#X msg 198 112 destroy;
#X msg 132 112 create \, 1;
#X obj 295 32 inlet;
#X connect 2 0 3 0;
#X connect 3 0 4 0;
#X connect 3 0 7 0;
#X connect 3 1 5 0;
#X connect 3 1 6 0;
#X connect 4 0 1 0;
#X connect 5 0 1 0;
#X connect 6 0 0 0;
#X connect 7 0 0 0;
#X connect 8 0 0 0;
#X restore 14 50 pd gemwin;
#X msg 14 31 destroy;
#X text 10 10 Create window:;
#X obj 72 31 tgl 15 0 empty empty empty 0 -6 0 8 -262144 -1 -1 1 1
;
#X obj 51 93 gemhead;
#X msg 8 341 draw line;
#X msg 8 361 draw fill;
#X msg 93 32 reset;
#X obj 150 271 - 7.5;
#X obj 149 215 t f f;
#X obj 143 336 translateXYZ 0 0 -15;
#X obj 199 251 / 70;
#X floatatom 234 253 5 0 0 0 - - -;
#X obj 142 377 cuboid;
#X obj 200 272 t f f;
#X floatatom 165 402 5 0 0 0 - - -;
#X obj 35 307 loadbang;
#X floatatom 138 33 5 0 0 0 - - -;
#X msg 101 58 frame \$1;
#X msg 36 386 0.3;
#X obj 284 102 cnv 15 230 120 empty empty empty 5 12 1 18 -225280 -1109
0;
#X obj 289 113 vsl 10 90 18 78 0 0 empty \$0-l100 empty 0 -8 0 8 -225280
-1 -1 92 1;
#X obj 299 113 vsl 10 90 18 78 0 0 empty \$0-l125 empty 0 -8 0 8 -225280
-1 -1 1281 1;
#X obj 309 113 vsl 10 90 18 78 0 0 empty \$0-l160 empty 0 -8 0 8 -225280
-1 -1 929 1;
#X obj 319 113 vsl 10 90 18 78 0 0 empty \$0-l200 empty 0 -8 0 8 -225280
-1 -1 0 1;
#X obj 329 113 vsl 10 90 18 78 0 0 empty \$0-l250 empty 0 -8 0 8 -225280
-1 -1 804 1;
#X obj 339 113 vsl 10 90 18 78 0 0 empty \$0-l315 empty 0 -8 0 8 -225280
-1 -1 449 1;
#X obj 349 113 vsl 10 90 18 78 0 0 empty \$0-l400 empty 0 -8 0 8 -225280
-1 -1 1738 1;
#X obj 359 113 vsl 10 90 18 78 0 0 empty \$0-l500 empty 0 -8 0 8 -225280
-1 -1 304 1;
#X obj 369 113 vsl 10 90 18 78 0 0 empty \$0-l630 empty 0 -8 0 8 -225280
-1 -1 123 1;
#X obj 379 113 vsl 10 90 18 78 0 0 empty \$0-l800 empty 0 -8 0 8 -225280
-1 -1 0 1;
#X obj 389 113 vsl 10 90 18 78 0 0 empty \$0-l1k empty 0 -8 0 8 -225280
-1 -1 0 1;
#X obj 399 113 vsl 10 90 18 78 0 0 empty \$0-l1k25 empty 0 -8 0 8 -225280
-1 -1 0 1;
#X obj 409 113 vsl 10 90 18 78 0 0 empty \$0-l1k6 empty 0 -8 0 8 -225280
-1 -1 0 1;
#X obj 419 113 vsl 10 90 18 78 0 0 empty \$0-l2k empty 0 -8 0 8 -225280
-1 -1 0 1;
#X obj 429 113 vsl 10 90 18 78 0 0 empty \$0-l2k5 empty 0 -8 0 8 -225280
-1 -1 0 1;
#X obj 439 113 vsl 10 90 18 78 0 0 empty \$0-l3k15 empty 0 -8 0 8 -225280
-1 -1 0 1;
#X obj 449 113 vsl 10 90 18 78 0 0 empty \$0-l4k empty 0 -8 0 8 -225280
-1 -1 0 1;
#X obj 459 113 vsl 10 90 18 78 0 0 empty \$0-l5k empty 0 -8 0 8 -225280
-1 -1 0 1;
#X obj 470 102 cnv 15 35 20 empty empty +10dB 2 10 1 8 -225280 -143491
0;
#X obj 471 195 cnv 15 35 20 empty empty -50dB 2 10 1 8 -225280 -143491
0;
#X obj 470 117 cnv 15 35 20 empty empty 0dB 14 10 1 8 -225280 -143491
0;
#X obj 292 207 cnv 15 35 15 empty empty 125 2 10 1 8 -225280 -143491
0;
#X obj 324 207 cnv 15 35 15 empty empty 250 2 10 1 8 -225280 -143491
0;
#X obj 354 207 cnv 15 35 15 empty empty 500 2 10 1 8 -225280 -143491
0;
#X obj 386 207 cnv 15 35 15 empty empty 1k 2 10 1 8 -225280 -143491
0;
#X obj 416 207 cnv 15 35 15 empty empty 2k 2 10 1 8 -225280 -143491
0;
#X obj 446 207 cnv 15 20 15 empty empty 4k 2 10 1 8 -225280 -143491
0;
#X obj 251 118 vsl 20 80 0 50 0 0 \$0-monitor_level \$0-set_monitor_level
GAIN -2 -10 1 8 -262144 -1 -143491 0 1;
#X obj 242 205 cnv 15 28 20 empty \$0-monitor_levelstr 0dB 0 10 1 14
-200188 -123526 0;
#X text 281 118 ...........................;
#X text 285 118 ...........................;
#X obj 482 136 tgl 18 0 \$0-slow empty slow -2 25 1 8 -262144 -1 -143491
0 1;
#X floatatom 161 243 5 0 0 0 - - -;
#X obj 113 234 print;
#X obj 19 189 color 0.5 0.5 0.5;
#X obj 19 208 rotateXYZ 0 0 90;
#X obj 303 289 t b f;
#X obj 302 312 +;
#X obj 18 169 separator;
#X floatatom 289 345 5 0 0 0 - - -;
#X obj 21 146 t a b;
#X obj 19 125 repeat 16;
#X obj 140 173 counter 0 15;
#X connect 0 0 1 0;
#X connect 0 1 1 0;
#X connect 1 0 2 0;
#X connect 3 0 7 0;
#X connect 4 0 5 0;
#X connect 6 0 5 0;
#X connect 8 0 21 0;
#X connect 10 0 11 0;
#X connect 11 0 10 0;
#X connect 13 0 10 1;
#X connect 14 0 72 0;
#X connect 15 0 23 0;
#X connect 16 0 23 0;
#X connect 17 0 10 1;
#X connect 18 0 20 2;
#X connect 19 0 18 0;
#X connect 19 1 8 0;
#X connect 20 0 23 0;
#X connect 21 0 24 0;
#X connect 22 0 21 1;
#X connect 24 0 23 1;
#X connect 24 1 20 1;
#X connect 25 0 23 2;
#X connect 26 0 15 0;
#X connect 26 0 29 0;
#X connect 27 0 28 0;
#X connect 28 0 10 1;
#X connect 29 0 25 0;
#X connect 63 0 18 1;
#X connect 65 0 66 0;
#X connect 66 0 20 0;
#X connect 67 0 68 0;
#X connect 67 1 68 1;
#X connect 69 0 65 0;
#X connect 70 0 20 3;
#X connect 71 0 69 0;
#X connect 71 1 73 0;
#X connect 72 0 71 0;
#X connect 73 0 19 0;
