#N canvas 448 384 533 362 10;
#X obj 181 43 gemhead;
#X msg 346 45 create \, 1;
#X msg 374 83 0 \, destroy;
#X obj 346 123 gemwin;
#X msg 161 13 0;
#X msg 196 14 1;
#X obj 181 214 t b a;
#X obj 181 80 gemframebuffer;
#X obj 161 -15 loadbang;
#X obj 181 131 pix_video;
#X obj 181 156 pix_texture;
#X obj 181 106 translateXYZ 0 0 0;
#X msg 237 42 dimen 320 240;
#X msg 411 110 dimen 320 240;
#X obj 181 245 pix_write 0 0 320 240;
#X obj 180 189 rectangle 5.333 4;
#X connect 0 0 7 0;
#X connect 1 0 3 0;
#X connect 2 0 3 0;
#X connect 4 0 0 0;
#X connect 5 0 0 0;
#X connect 6 0 14 0;
#X connect 6 1 14 0;
#X connect 7 0 11 0;
#X connect 8 0 4 0;
#X connect 9 0 10 0;
#X connect 10 0 15 0;
#X connect 11 0 9 0;
#X connect 12 0 7 0;
#X connect 13 0 3 0;
#X connect 15 0 6 0;
