#N canvas 591 94 698 581 10;
#X declare -lib py;
#X symbolatom 91 204 40 0 0 0 - - -;
#X obj 91 183 zexy/list2symbol;
#X obj 533 -5 import py;
#X msg 139 69 check;
#X msg 30 12 logout;
#X msg 142 120 delete 16437;
#X symbolatom 204 183 40 0 0 0 - - -;
#X text 89 222 uuids of emails;
#X text 338 198 email adress of newest;
#X msg 150 89 list;
#X obj 24 152 pyext gmail.box;
#X obj 203 161 zexy/list2symbol;
#X msg 13 98 deleteall;
#X floatatom 33 223 5 0 0 0 - - -;
#X text 222 7 1.fill your login data;
#X text 266 37 2.fill with some subject string of your emails;
#X text 260 65 3.press;
#X text 29 243 num of emails with given subject;
#X msg 113 10 login user pass;
#X msg 126 38 subject some subject;
#X connect 1 0 0 0;
#X connect 3 0 10 1;
#X connect 4 0 10 1;
#X connect 5 0 10 1;
#X connect 9 0 10 1;
#X connect 10 0 13 0;
#X connect 10 1 1 0;
#X connect 10 2 11 0;
#X connect 11 0 6 0;
#X connect 12 0 10 1;
#X connect 18 0 10 1;
#X connect 19 0 10 1;
