#N canvas 334 226 437 306 10;
#X obj 136 229 dac~;
#X floatatom 74 15 5 0 0;
#X obj 147 189 pluck~;
#X text 154 13 test notes;
#X msg 147 40 60 120;
#X msg 203 40 62 120;
#X obj 74 41 pack 0 60;
#X floatatom 220 160 5 0 0;
#X text 264 162 feedback [50 max];
#X msg 274 105 62 0;
#X obj 277 58 t b;
#X obj 274 81 del 100;
#X floatatom 318 57 5 0 0;
#X connect 1 0 6 0;
#X connect 2 0 0 0;
#X connect 2 0 0 1;
#X connect 4 0 2 0;
#X connect 5 0 2 0;
#X connect 5 0 10 0;
#X connect 6 0 2 0;
#X connect 7 0 2 1;
#X connect 9 0 2 0;
#X connect 10 0 11 0;
#X connect 11 0 9 0;
#X connect 12 0 11 1;
