#N canvas 491 108 1125 608 10;
#X obj 150 249 pix_image;
#X obj 581 248 pix_image;
#X msg 428 206 open zone200000.jpg;
#X msg 294 209 open zone100000.jpg;
#X obj 378 168 loadbang;
#X obj 15 54 pix_video;
#X obj 589 118 gemwin;
#X msg 591 44 dimen 640 480 \, create \, 1;
#X obj 89 510 pix_texture;
#X obj 91 443 translateXYZ 2 2 0;
#X obj 88 541 rectangle 3 2;
#X obj 525 525 pix_texture;
#X obj 525 548 rectangle 3 2;
#X obj 526 485 translateXYZ -2 -2 0;
#X floatatom 172 384 5 0 0 0 - - -, f 5;
#X floatatom 187 406 5 0 0 0 - - -, f 5;
#X msg 619 94 0 \, destroy;
#X obj 584 195 tgl 15 0 empty empty empty 17 7 0 10 -262144 -1 -1 0
1;
#X obj 150 189 tgl 15 0 empty empty empty 17 7 0 10 -262144 -1 -1 0
1;
#X floatatom 584 454 5 0 0 0 - - -, f 5;
#X floatatom 629 460 5 0 0 0 - - -, f 5;
#X obj 68 360 pix_mask;
#X obj 22 140 s vid;
#X obj 60 234 r vid;
#X obj 59 298 alpha;
#X obj 521 385 pix_mask;
#X obj 511 266 r vid;
#X obj 515 331 alpha;
#X obj 526 437 separator;
#X obj 14 24 gemhead;
#X obj 150 212 gemhead;
#X obj 581 221 gemhead;
#X msg 331 466 quality 0;
#X msg 222 114 dimen \$1 \$2;
#X floatatom 216 41 5 0 0 0 - - -, f 5;
#X floatatom 284 41 5 0 0 0 - - -, f 5;
#X obj 224 89 pack f f;
#X obj 268 63 t b f;
#X obj 220 137 s dim;
#X obj 64 78 r dim;
#X obj 183 273 r dim;
#X obj 627 280 r dim;
#X obj 59 387 t a a;
#X obj 15 449 s zone1;
#X obj 513 411 t a a;
#X obj 456 467 s zone2;
#X obj 771 171 r zone1;
#X obj 774 294 pix_dump;
#X obj 901 171 r zone2;
#X obj 913 328 print Z2;
#X obj 1019 176 r vid;
#X obj 19 416 pix_rgba;
#X obj 461 438 pix_rgba;
#X obj 18 109 pix_resize 13 7;
#X obj 149 296 pix_resize 13 7;
#X obj 581 303 pix_resize 13 7;
#X obj 771 204 t b a;
#X obj 816 326 print Z1;
#X obj 770 234 spigot 0;
#X obj 771 259 t b b;
#X obj 905 296 pix_dump;
#X obj 902 204 t b a;
#X obj 901 234 spigot 0;
#X obj 902 259 t b b;
#X obj 1020 297 pix_dump;
#X obj 1017 207 t b a;
#X obj 1016 237 spigot 0;
#X obj 1017 262 t b b;
#X msg 872 103 1;
#X msg 821 266 0;
#X msg 952 266 0;
#X msg 1067 269 0;
#X obj 1031 333 print VD;
#X connect 0 0 54 0;
#X connect 1 0 55 0;
#X connect 2 0 1 0;
#X connect 3 0 0 0;
#X connect 4 0 3 0;
#X connect 4 0 2 0;
#X connect 4 0 32 0;
#X connect 5 0 53 0;
#X connect 7 0 6 0;
#X connect 8 0 10 0;
#X connect 9 0 8 0;
#X connect 11 0 12 0;
#X connect 13 0 11 0;
#X connect 14 0 9 1;
#X connect 15 0 9 2;
#X connect 16 0 6 0;
#X connect 17 0 31 0;
#X connect 18 0 30 0;
#X connect 19 0 13 1;
#X connect 20 0 13 2;
#X connect 21 0 42 0;
#X connect 23 0 24 0;
#X connect 24 0 21 0;
#X connect 25 0 44 0;
#X connect 26 0 27 0;
#X connect 27 0 25 0;
#X connect 28 0 13 0;
#X connect 29 0 5 0;
#X connect 30 0 0 0;
#X connect 31 0 1 0;
#X connect 32 0 11 0;
#X connect 32 0 8 0;
#X connect 33 0 38 0;
#X connect 34 0 36 0;
#X connect 35 0 37 0;
#X connect 36 0 33 0;
#X connect 37 0 36 0;
#X connect 37 1 36 1;
#X connect 39 0 53 0;
#X connect 40 0 54 0;
#X connect 41 0 55 0;
#X connect 42 0 51 0;
#X connect 42 1 9 0;
#X connect 44 0 52 0;
#X connect 44 1 28 0;
#X connect 46 0 56 0;
#X connect 47 1 57 0;
#X connect 48 0 61 0;
#X connect 50 0 65 0;
#X connect 51 0 43 0;
#X connect 52 0 45 0;
#X connect 53 0 22 0;
#X connect 54 0 21 1;
#X connect 55 0 25 1;
#X connect 56 0 58 0;
#X connect 56 1 47 0;
#X connect 58 0 59 0;
#X connect 59 0 47 0;
#X connect 59 1 69 0;
#X connect 60 1 49 0;
#X connect 61 0 62 0;
#X connect 61 1 60 0;
#X connect 62 0 63 0;
#X connect 63 0 60 0;
#X connect 63 1 70 0;
#X connect 64 1 72 0;
#X connect 65 0 66 0;
#X connect 65 1 64 0;
#X connect 66 0 67 0;
#X connect 67 0 64 0;
#X connect 67 1 71 0;
#X connect 68 0 58 1;
#X connect 68 0 62 1;
#X connect 68 0 66 1;
#X connect 69 0 58 1;
#X connect 70 0 62 1;
#X connect 71 0 66 1;
