#N canvas 287 87 755 600 10;
#N canvas 293 494 450 300 list-drip 0;
#X obj 239 30 inlet;
#X obj 146 33 inlet;
#X obj 146 163 outlet;
#X obj 247 174 outlet;
#X obj 146 96 list;
#X obj 146 121 list split 1;
#X obj 216 57 list;
#X obj 247 120 bang;
#X obj 314 30 inlet;
#X obj 263 146 spigot 1;
#X connect 0 0 6 1;
#X connect 1 0 4 0;
#X connect 4 0 5 0;
#X connect 5 0 2 0;
#X connect 5 1 4 1;
#X connect 5 2 7 0;
#X connect 6 0 4 0;
#X connect 7 0 3 0;
#X connect 7 0 9 0;
#X connect 8 0 9 1;
#X connect 9 0 6 0;
#X restore 146 150 pd list-drip;
#X msg 185 109 2 2 1 2 2 2 1;
#X obj 146 260 * 200;
#X obj 146 325 vline~;
#X obj 174 353 osc~ 220;
#X obj 147 353 *~;
#X obj 146 375 *~;
#X obj 277 487 *~;
#X obj 306 489 dbtorms;
#X obj 364 490 hsl 128 15 0 100 0 0 empty empty empty -2 -8 0 10 -262144
-1 -1 12700 1;
#X obj 269 514 dac~;
#X floatatom 192 259 5 0 0 1 tempo-multiplier - -;
#X obj 96 153 delay;
#X msg 146 66 bang;
#X obj 146 90 t b b;
#X obj 158 171 bng 15 250 50 0 empty empty empty 17 7 0 10 -262144
-1 -1;
#X obj 225 129 tgl 15 0 empty empty loop 17 7 1 10 -262144 -1 -1 1
1;
#X obj 237 168 bng 15 250 50 0 empty empty end 17 7 1 10 -262144 -1
-1;
#X msg 70 101 bang;
#X msg 204 81 2 1 2 3 1 2;
#N canvas 293 494 450 300 list-drip 0;
#X obj 239 30 inlet;
#X obj 146 33 inlet;
#X obj 146 163 outlet;
#X obj 247 174 outlet;
#X obj 146 96 list;
#X obj 146 121 list split 1;
#X obj 216 57 list;
#X obj 247 120 bang;
#X obj 314 30 inlet;
#X obj 263 146 spigot 1;
#X connect 0 0 6 1;
#X connect 1 0 4 0;
#X connect 4 0 5 0;
#X connect 5 0 2 0;
#X connect 5 1 4 1;
#X connect 5 2 7 0;
#X connect 6 0 4 0;
#X connect 7 0 3 0;
#X connect 7 0 9 0;
#X connect 8 0 9 1;
#X connect 9 0 6 0;
#X restore 437 156 pd list-drip;
#X obj 437 266 * 200;
#X obj 436 331 vline~;
#X obj 437 359 *~;
#X obj 436 381 *~;
#X floatatom 483 265 5 0 0 1 tempo-multiplier - -;
#X obj 387 159 delay;
#X msg 437 72 bang;
#X obj 437 96 t b b;
#X obj 449 177 bng 15 250 50 0 empty empty empty 17 7 0 10 -262144
-1 -1;
#X obj 516 135 tgl 15 0 empty empty loop 17 7 1 10 -262144 -1 -1 0
1;
#X obj 528 174 bng 15 250 50 0 empty empty end 17 7 1 10 -262144 -1
-1;
#X msg 361 107 bang;
#X msg 519 103 1 2 3 2 1 2 1 2 2;
#X obj 464 359 osc~ 330;
#X msg 437 310 0.8 \, 0 200;
#X msg 146 304 0.8 \, 0 200;
#X msg 476 121 4 3 4 1;
#X obj 281 24 bng 15 250 50 0 empty empty empty 17 7 0 10 -262144 -1
-1;
#X floatatom 275 229 5 0 0 1 tempo-multiplier - -;
#X connect 0 0 2 0;
#X connect 0 0 15 0;
#X connect 0 1 17 0;
#X connect 1 0 0 1;
#X connect 2 0 36 0;
#X connect 2 0 12 0;
#X connect 3 0 5 0;
#X connect 3 0 5 1;
#X connect 4 0 6 1;
#X connect 5 0 6 0;
#X connect 6 0 7 0;
#X connect 7 0 10 0;
#X connect 7 0 10 1;
#X connect 8 0 7 1;
#X connect 9 0 8 0;
#X connect 11 0 2 1;
#X connect 12 0 0 0;
#X connect 13 0 14 0;
#X connect 14 0 0 0;
#X connect 14 1 1 0;
#X connect 16 0 0 2;
#X connect 18 0 0 0;
#X connect 19 0 0 1;
#X connect 20 0 21 0;
#X connect 20 0 29 0;
#X connect 20 1 31 0;
#X connect 21 0 35 0;
#X connect 21 0 26 0;
#X connect 22 0 23 0;
#X connect 22 0 23 1;
#X connect 23 0 24 0;
#X connect 24 0 7 0;
#X connect 25 0 21 1;
#X connect 26 0 20 0;
#X connect 27 0 28 0;
#X connect 28 0 20 0;
#X connect 28 1 37 0;
#X connect 30 0 20 2;
#X connect 32 0 20 0;
#X connect 33 0 20 1;
#X connect 34 0 24 1;
#X connect 35 0 22 0;
#X connect 36 0 3 0;
#X connect 37 0 20 1;
#X connect 38 0 14 0;
#X connect 38 0 28 0;
#X connect 39 0 11 0;
#X connect 39 0 25 0;
