#N canvas 218 217 450 300 10;
#X obj 122 41 inlet;
#X obj 110 230 outlet;
#X obj 152 102 f \$1;
#X obj 188 102 + \$3;
#X obj 176 139 select \$2;
#X obj 237 171 f \$1;
#X obj 237 206 s \$0-reset;
#X obj 175 40 r \$0-reset;
#X obj 110 208 f;
#X obj 122 70 t b b;
#X obj 176 174 outlet;
#X connect 0 0 9 0;
#X connect 2 0 4 0;
#X connect 2 0 8 1;
#X connect 3 0 2 1;
#X connect 4 0 5 0;
#X connect 4 0 10 0;
#X connect 4 1 3 0;
#X connect 5 0 6 0;
#X connect 7 0 2 1;
#X connect 8 0 1 0;
#X connect 9 0 8 0;
#X connect 9 1 2 0;
