#N canvas 455 382 546 330 10;
#X obj 54 157 jack_transport~;
#X floatatom 54 287 5 0 0 0 - - -;
#X floatatom 71 267 5 0 0 0 - - -;
#X floatatom 106 225 5 0 0 0 - - -;
#X floatatom 123 203 5 0 0 0 - - -;
#X floatatom 141 181 5 0 0 0 - - -;
#X msg 54 6 start;
#X msg 62 26 stop;
#X msg 109 89 bang;
#X text 144 224 beats per minute;
#X text 102 5 start the transport;
#X text 100 28 stop the transport;
#X text 110 266 beat#;
#X text 93 286 measure#;
#X text 145 81 get current transport position (useful when pd is not
computing audio);
#X text 163 203 numerator;
#X text 178 181 denominator;
#X floatatom 88 246 5 0 0 0 - - -;
#X text 128 245 tick \, as determined by the ticks-per-beat inlet;
#X text 175 131 ticks per beat (for more granularity);
#X msg 141 131 4;
#X text 149 52 reposition the transport to a new frame number;
#X msg 79 52 locate 0;
#X connect 0 0 1 0;
#X connect 0 1 2 0;
#X connect 0 2 17 0;
#X connect 0 3 3 0;
#X connect 0 4 4 0;
#X connect 0 5 5 0;
#X connect 6 0 0 0;
#X connect 7 0 0 0;
#X connect 8 0 0 0;
#X connect 20 0 0 1;
#X connect 22 0 0 0;
