#N canvas 0 0 450 549 10;
#X obj 24 317 dac~;
#X obj 31 33 metro 1.45125;
#X obj 117 3 tgl 15 0 empty empty empty 17 7 0 10 -262144 -1 -1 0 1
;
#X obj 31 53 f;
#X obj 66 53 +;
#X obj 66 73 wrap;
#X obj 227 201 / 689.062;
#X obj 227 181 mtof;
#X obj 31 250 *;
#X obj 56 250 dbtorms;
#X obj 56 230 line 0 1.45125;
#X obj 10 290 osc~;
#X obj 32 369 tgl 15 0 empty empty empty 17 7 0 10 -262144 -1 -1 1
1;
#X obj 32 349 loadbang;
#X obj 33 407 tabwrite~ \$0-son;
#X obj 33 387 metro 46.44;
#X obj 31 112 - 0.5;
#X obj 10 171 *;
#X text 395 462 -1;
#X text 396 338 1;
#X text 398 403 0;
#X text 381 475 1023;
#X text 134 475 0;
#N canvas 0 0 450 300 (subpatch) 0;
#X array \$0-son 1024 float 0;
#X coords 0 1 1023 -1 256 128 1;
#X restore 138 348 graph;
#X obj 203 31 metro 125;
#X obj 203 121 list split;
#X obj 203 51 t b b;
#X obj 240 51 f;
#X obj 265 51 + 1;
#X obj 231 161 sel -;
#X obj 290 51 mod 128;
#X obj 240 71 mod 16;
#X obj 283 121 t b f;
#X obj 283 161 list split;
#X obj 297 80 div 16;
#X msg 231 141 list \$1;
#X msg 311 181 \$1;
#X obj 258 181 +;
#X msg 203 101 4 - 4 - 3 4 - - 7 - - - 9 - 11 14;
#X obj 31 270 + 0.25;
#X msg 283 141 24 24 31 29 24 48 72 96;
#X msg 55 210 90 \, 0 1500;
#X text 160 275 Copyright nov.2011 par Mathieu Bouchard;
#X connect 1 0 3 0;
#X connect 2 0 1 0;
#X connect 2 0 24 0;
#X connect 3 0 4 0;
#X connect 3 0 16 0;
#X connect 4 0 5 0;
#X connect 5 0 3 1;
#X connect 6 0 4 1;
#X connect 6 0 41 0;
#X connect 7 0 6 0;
#X connect 7 0 17 1;
#X connect 8 0 39 0;
#X connect 9 0 8 1;
#X connect 9 0 17 0;
#X connect 10 0 9 0;
#X connect 11 0 0 0;
#X connect 11 0 0 1;
#X connect 11 0 14 0;
#X connect 12 0 15 0;
#X connect 13 0 12 0;
#X connect 15 0 14 0;
#X connect 16 0 8 0;
#X connect 17 0 11 0;
#X connect 24 0 26 0;
#X connect 25 1 35 0;
#X connect 26 0 38 0;
#X connect 26 1 27 0;
#X connect 27 0 28 0;
#X connect 27 0 31 0;
#X connect 27 0 34 0;
#X connect 28 0 30 0;
#X connect 29 1 37 0;
#X connect 30 0 27 1;
#X connect 31 0 25 1;
#X connect 32 0 40 0;
#X connect 32 1 33 1;
#X connect 33 1 36 0;
#X connect 34 0 32 0;
#X connect 35 0 29 0;
#X connect 36 0 37 1;
#X connect 37 0 7 0;
#X connect 38 0 25 0;
#X connect 39 0 11 1;
#X connect 40 0 33 0;
#X connect 41 0 10 0;
