#N canvas 2294 240 437 462 10;
#X obj 156 102 noise~;
#X obj 156 313 *~ 0.01;
#X obj 156 346 dac~;
#X obj 156 134 *~;
#X obj 203 105 vline~;
#X obj 216 238 *~ 0.97531;
#X obj 156 186 delwrite~ k 1000;
#X obj 156 268 delread~ k 0;
#X obj 216 216 fexpr~ $x1[-1];
#X text 133 51 symple karplus-strong;
#X msg 203 83 1 \, 0 30;
#X text 88 162 how to remove delwrite/read~ ??;
#X connect 0 0 3 0;
#X connect 1 0 2 0;
#X connect 1 0 2 1;
#X connect 3 0 6 0;
#X connect 4 0 3 1;
#X connect 5 0 6 0;
#X connect 7 0 8 0;
#X connect 7 0 1 0;
#X connect 8 0 5 0;
#X connect 10 0 4 0;
