#N canvas 337 303 855 618 12;
#X obj 292 409 gemhead;
#X obj 212 90 gemwin;
#X obj 28 11 bng 15 250 50 0 empty empty empty 0 -6 0 8 -258699 -1
-1;
#X obj 483 543 rectangle 5.3333 4;
#X obj 50 150 unpack f f;
#X msg 212 61 destroy \, dimen \$1 \$2 \, border 0 \, create \, 1;
#X obj 53 95 t l l l;
#X obj 167 134 unpack f f;
#X obj 203 175 /;
#X obj 62 255 * 1.3333;
#X obj 44 199 expr 1 / $f1;
#X obj 225 217 expr 1 / $f1;
#X obj 232 256 * 4;
#X obj 56 326 send aspectX;
#X obj 227 289 send aspectY;
#X obj 62 288 * 4;
#X obj 503 401 receive aspectX;
#X obj 687 409 receive aspectY;
#X obj 479 477 *;
#X obj 614 474 *;
#X floatatom 409 380 5 0 0 0 - - -;
#X floatatom 653 377 5 0 0 0 - - -;
#X text 410 354 width in pixels;
#X text 621 354 height in pixels;
#X text 95 36 Window size;
#X msg 28 40 400 480;
#X obj 497 438 t b f;
#X obj 642 438 t b f;
#X connect 0 0 3 0;
#X connect 2 0 25 0;
#X connect 4 0 10 0;
#X connect 4 1 11 0;
#X connect 5 0 1 0;
#X connect 6 0 4 0;
#X connect 6 1 7 0;
#X connect 6 2 5 0;
#X connect 7 0 8 0;
#X connect 7 1 8 1;
#X connect 8 0 9 1;
#X connect 9 0 15 0;
#X connect 10 0 9 0;
#X connect 11 0 12 0;
#X connect 12 0 14 0;
#X connect 15 0 13 0;
#X connect 16 0 26 0;
#X connect 17 0 27 0;
#X connect 18 0 3 1;
#X connect 19 0 3 2;
#X connect 20 0 18 0;
#X connect 21 0 19 0;
#X connect 25 0 6 0;
#X connect 26 0 18 0;
#X connect 26 1 18 1;
#X connect 27 0 19 0;
#X connect 27 1 19 1;
