#N canvas 847 82 516 684 12;
#X obj 107 133 keyname;
#X obj 107 167 t b f;
#X obj 107 234 pack s f;
#X obj 107 204 symbol;
#X obj 107 273 route list;
#X msg 211 398 0;
#X obj 211 475 pipe \$1;
#X obj 107 406 t b b;
#X msg 139 439 clear;
#X obj 107 514 change;
#X obj 107 545 outlet;
#X msg 107 477 1;
#X obj 107 350 sel 1 0;
#X obj 107 309 route \$2;
#N canvas 511 55 450 300 version-2019-05-01 0;
#X text 16 97 Bug/TODO: The symbol for the space bar has different
captitals 'space' and 'Space' for down and ups.;
#X text 18 31 Expanded from an idea posted by Katja Vetter on the pd
mailing list on March 8th 2019;
#X restore 331 647 pd version-2019-05-01;
#X text 40 648 (c) 2019 Peter P. under the BSD license.;
#X connect 0 0 1 0;
#X connect 0 1 3 1;
#X connect 1 0 3 0;
#X connect 1 1 2 1;
#X connect 2 0 4 0;
#X connect 3 0 2 0;
#X connect 4 0 13 0;
#X connect 5 0 6 0;
#X connect 6 0 9 0;
#X connect 7 0 11 0;
#X connect 7 1 8 0;
#X connect 8 0 6 0;
#X connect 9 0 10 0;
#X connect 11 0 9 0;
#X connect 12 0 7 0;
#X connect 12 1 5 0;
#X connect 13 0 12 0;
