#N canvas 377 242 368 394 10;
#X obj 133 3 ctlin;
#X obj 148 28 spigot;
#X msg 118 76 1;
#X msg 148 76 0;
#X obj 81 100 spigot;
#X obj 118 53 sel 0;
#X obj 185 3 r \$0-toggle;
#X obj 81 165 s \$0-ctrlval;
#X obj 1 14 cnv 15 99 35 empty empty empty 20 12 0 14 -162800 -66577
0;
#X obj 3 29 nbx 3 14 -1e+37 1e+37 0 0 \$0-ctrlval \$0-ctrlval control_value
0 -6 0 10 -175540 -1 -1 0 256;
#X obj 81 29 tgl 15 0 \$0-toggle empty set_ctrl -39 10 0 8 -261494
-1 -1 0 1;
#X obj 81 202 r \$0-ctrlval;
#X obj 81 237 outlet;
#X text 45 260 assign a midi control;
#X obj 81 143 line;
#X msg 81 121 \$1 20;
#X obj 292 4 inlet;
#X obj 26 239 inlet;
#X text 28 219 dummy;
#X connect 0 0 4 0;
#X connect 0 1 1 0;
#X connect 0 1 5 0;
#X connect 1 0 5 1;
#X connect 2 0 4 1;
#X connect 3 0 4 1;
#X connect 4 0 15 0;
#X connect 5 0 2 0;
#X connect 5 1 3 0;
#X connect 6 0 1 1;
#X connect 11 0 12 0;
#X connect 14 0 7 0;
#X connect 15 0 14 0;
#X connect 16 0 1 1;
#X coords 0 -1 1 1 100 50 1 0 0;
