#N struct 1004-blackKey float x float y float color;
#N struct 1004-whiteKey float x float y float color;
#N canvas 736 55 450 300 10;
#N canvas 0 22 450 300 \$0-kslider 0;
#X scalar 1004-blackKey 296 0 0 \;;
#X scalar 1004-blackKey 212 0 0 \;;
#X scalar 1004-blackKey 128 0 0 \;;
#X scalar 1004-blackKey 44 0 0 \;;
#X scalar 1004-blackKey 308 0 0 \;;
#X scalar 1004-blackKey 224 0 0 \;;
#X scalar 1004-blackKey 140 0 0 \;;
#X scalar 1004-blackKey 56 0 0 \;;
#X scalar 1004-blackKey 320 0 0 \;;
#X scalar 1004-blackKey 236 0 0 \;;
#X scalar 1004-blackKey 152 0 0 \;;
#X scalar 1004-blackKey 68 0 0 \;;
#X scalar 1004-blackKey 8 0 0 \;;
#X scalar 1004-blackKey 92 0 0 \;;
#X scalar 1004-blackKey 176 0 0 \;;
#X scalar 1004-blackKey 260 0 0 \;;
#X scalar 1004-blackKey 20 0 0 \;;
#X scalar 1004-blackKey 104 0 0 \;;
#X scalar 1004-blackKey 188 0 0 \;;
#X scalar 1004-blackKey 272 0 0 \;;
#X scalar 1004-whiteKey 0 0 0 \;;
#X scalar 1004-whiteKey 12 0 0 \;;
#X scalar 1004-whiteKey 24 0 0 \;;
#X scalar 1004-whiteKey 36 0 0 \;;
#X scalar 1004-whiteKey 48 0 0 \;;
#X scalar 1004-whiteKey 60 0 0 \;;
#X scalar 1004-whiteKey 72 0 0 \;;
#X scalar 1004-whiteKey 84 0 0 \;;
#X scalar 1004-whiteKey 96 0 0 \;;
#X scalar 1004-whiteKey 108 0 0 \;;
#X scalar 1004-whiteKey 120 0 0 \;;
#X scalar 1004-whiteKey 132 0 0 \;;
#X scalar 1004-whiteKey 144 0 0 \;;
#X scalar 1004-whiteKey 156 0 0 \;;
#X scalar 1004-whiteKey 168 0 0 \;;
#X scalar 1004-whiteKey 180 0 0 \;;
#X scalar 1004-whiteKey 192 0 0 \;;
#X scalar 1004-whiteKey 204 0 0 \;;
#X scalar 1004-whiteKey 216 0 0 \;;
#X scalar 1004-whiteKey 228 0 0 \;;
#X scalar 1004-whiteKey 240 0 0 \;;
#X scalar 1004-whiteKey 252 0 0 \;;
#X scalar 1004-whiteKey 264 0 0 \;;
#X scalar 1004-whiteKey 276 0 0 \;;
#X scalar 1004-whiteKey 288 0 0 \;;
#X scalar 1004-whiteKey 300 0 0 \;;
#X scalar 1004-whiteKey 312 0 0 \;;
#X scalar 1004-whiteKey 324 0 0 \;;
#X coords 0 0 337 53 337 53 1 0 0;
#X restore 10 30 pd \$0-kslider;
#N canvas 760 391 450 300 whiteKeys 0;
#X obj 29 82 filledpolygon 998 12 1 0 0 12 0 12 52 0 52;
#X obj 28 36 struct \$0-whiteKey float x float y float color;
#X restore 90 4 pd whiteKeys;
#N canvas 760 391 450 300 blackKeys 0;
#X obj 29 81 filledpolygon 0 12 1 0 0 8 0 8 32 0 32;
#X obj 28 36 struct \$0-blackKey float x float y float color;
#X restore 11 4 pd blackKeys;
#N canvas 168 179 452 436 Draw 0;
#X obj 248 222 pointer;
#X msg 248 201 traverse \$1 \, bang;
#X obj 248 181 symbol pd-\$0-kslider;
#X msg 83 227 \$1 0;
#X obj 168 100 symbol pd-\$0-kslider;
#X msg 168 128 \; \$1 clear;
#X obj 229 361 pointer;
#X msg 229 339 traverse \$1 \, bang;
#X obj 229 318 symbol pd-\$0-kslider;
#X msg 64 353 \$1 0;
#N canvas 342 313 450 300 blackKeys 0;
#X obj 42 16 inlet;
#X obj 112 151 + 84;
#X obj 38 127 t f f f f, f 19;
#X obj 75 151 + 168;
#X obj 38 151 + 252;
#X obj 42 86 cyclone/uzi 2 0;
#X obj 129 106 * 12;
#X obj 208 150 + 84;
#X obj 245 150 + 168;
#X obj 282 150 + 252;
#X obj 289 106 * 12;
#X obj 202 86 cyclone/uzi 3 0;
#X obj 171 126 t f f f f, f 19;
#X obj 171 195 + 36;
#X obj 149 229 + 8;
#X obj 149 261 outlet;
#X obj 42 38 t b b;
#X text 246 35 draw black keys;
#X connect 0 0 16 0;
#X connect 1 0 14 0;
#X connect 2 0 4 0;
#X connect 2 1 3 0;
#X connect 2 2 1 0;
#X connect 2 3 14 0;
#X connect 3 0 14 0;
#X connect 4 0 14 0;
#X connect 5 2 6 0;
#X connect 6 0 2 0;
#X connect 7 0 13 0;
#X connect 8 0 13 0;
#X connect 9 0 13 0;
#X connect 10 0 12 0;
#X connect 11 2 10 0;
#X connect 12 0 13 0;
#X connect 12 1 7 0;
#X connect 12 2 8 0;
#X connect 12 3 9 0;
#X connect 13 0 14 0;
#X connect 14 0 15 0;
#X connect 16 0 5 0;
#X connect 16 1 11 0;
#X restore 64 332 pd blackKeys;
#N canvas 0 22 330 190 whiteKeys 0;
#X obj 37 67 cyclone/uzi 28 0;
#X obj 130 91 * 12;
#X obj 37 37 inlet;
#X obj 130 120 outlet;
#X text 187 33 draw white keys;
#X connect 0 2 1 0;
#X connect 1 0 3 0;
#X connect 2 0 0 0;
#X restore 83 202 pd whiteKeys;
#X obj 64 301 t b b;
#X obj 83 164 t b b;
#X obj 168 64 bng 15 250 50 0 empty empty empty 17 7 0 10 -262144 -1
-1;
#X obj 92 141 bng 15 250 50 0 empty empty empty 17 7 0 10 -262144 -1
-1;
#X obj 77 280 bng 15 250 50 0 empty empty empty 17 7 0 10 -262144 -1
-1;
#X obj 83 247 append \$0-whiteKey x y color;
#X obj 64 382 append \$0-blackKey x y color;
#X obj 64 83 t b b b;
#X obj 64 41 inlet;
#X connect 0 0 17 3;
#X connect 1 0 0 0;
#X connect 2 0 1 0;
#X connect 3 0 17 0;
#X connect 4 0 5 0;
#X connect 6 0 18 3;
#X connect 7 0 6 0;
#X connect 8 0 7 0;
#X connect 9 0 18 0;
#X connect 10 0 9 0;
#X connect 11 0 3 0;
#X connect 12 0 10 0;
#X connect 12 1 8 0;
#X connect 13 0 11 0;
#X connect 13 1 2 0;
#X connect 14 0 4 0;
#X connect 15 0 13 0;
#X connect 16 0 12 0;
#X connect 19 0 12 0;
#X connect 19 1 13 0;
#X connect 19 2 4 0;
#X connect 20 0 19 0;
#X restore 46 227 pd Draw;
#X obj 39 140 loadbang;
#X obj 80 188 bng 15 250 50 0 empty empty empty 17 7 0 10 -262144 -1
-1;
#X text 102 137 [loadbang] lose black keys drawing;
#X text 102 187 but using bang... it works well;
#X connect 4 0 3 0;
#X connect 5 0 3 0;
#X coords 0 -1 1 1 337 53 1 10 30;
