#N canvas 494 71 670 631 10;
#X obj 138 117 s-lsystem 4;
#X msg 147 94 3 2 2 5 1;
#X obj 52 93 tgl 15 0 empty empty empty 0 -6 0 8 -262144 -1 -1 1 1
;
#X obj 52 365 osc~;
#X obj 52 267 s-lookup;
#X obj 52 342 mtof;
#X obj 91 365 line~;
#X msg 91 343 1 \, 0 100;
#X obj 52 407 *~;
#X obj 52 540 s-ezdac~ plonker;
#X obj 52 118 metro 110;
#X msg 103 244 60 62 64 68 71 0;
#X msg 138 30 clear \, rule 1 2 3 2 \, rule 2 6 5 1 \, rule 3 6 1 4
\, rule 4 3 1 1 \, rule 5 6 6 6 \, rule 6 1 2 3;
#X obj 52 429 s-reverb~ r;
#X obj 562 262 noise~;
#X obj 562 285 hip~ 5000;
#X obj 545 307 *~;
#X obj 513 262 vline~;
#X msg 513 241 0 \, 1 20 \, 0 10 20;
#X obj 544 339 s-ezdac~ hat;
#X obj 138 7 loadbang;
#X obj 513 197 0;
#X obj 541 197 == 0;
#X obj 513 220 sel 0;
#N canvas 0 0 450 300 datastore 0;
#X obj 10 10 r SSSADDATA;
#X msg 10 30 \; SSSAD plonker2/volume 86.6825 \; SSSAD plonker2/pan
61.9881 \; SSSAD hat/volume 16.127 \; SSSAD hat/pan 61.9881 \; SSSAD
r/wet 2.01587 \; SSSAD r/dry 106.841 \; SSSAD r/reverb 94.746 \; SSSAD
plonker/volume 82.6508 \; SSSAD plonker/pan 61.9881 \; SSSAD_ADMIN
set \;;
#X connect 0 0 1 0;
#X restore 546 77 pd datastore;
#X obj 546 97 sssad/datastore;
#X text 369 137 1 load fx parameters ->;
#X text 247 67 <- 2 then press me;
#X obj 103 222 loadbang;
#X obj 82 313 sel 0;
#X obj 52 289 t f f;
#X obj 52 166 s-serialize;
#X obj 234 198 s-serialize;
#X obj 224 117 s-lsystem 4;
#X msg 189 67 bang;
#X msg 224 94 6 6 6 2 3;
#X obj 52 141 t b b b;
#X obj 234 423 osc~;
#X obj 234 297 s-lookup;
#X obj 234 400 mtof;
#X obj 273 423 line~;
#X obj 234 465 *~;
#X obj 285 252 loadbang;
#X obj 264 371 sel 0;
#X obj 234 347 t f f;
#X obj 235 505 s-ezdac~ plonker2;
#X msg 273 401 1 \, 0 200;
#X msg 285 274 0 62 64 68 60 0;
#X connect 0 0 31 1;
#X connect 1 0 0 0;
#X connect 2 0 10 0;
#X connect 3 0 8 0;
#X connect 4 0 30 0;
#X connect 5 0 3 0;
#X connect 6 0 8 1;
#X connect 7 0 6 0;
#X connect 8 0 13 0;
#X connect 10 0 36 0;
#X connect 11 0 4 1;
#X connect 12 0 0 0;
#X connect 12 0 33 0;
#X connect 13 0 9 0;
#X connect 13 0 9 1;
#X connect 14 0 15 0;
#X connect 15 0 16 1;
#X connect 16 0 19 0;
#X connect 16 0 19 1;
#X connect 17 0 16 0;
#X connect 18 0 17 0;
#X connect 20 0 12 0;
#X connect 20 0 2 0;
#X connect 21 0 22 0;
#X connect 21 0 23 0;
#X connect 22 0 21 1;
#X connect 23 0 18 0;
#X connect 28 0 11 0;
#X connect 29 1 7 0;
#X connect 30 0 5 0;
#X connect 30 1 29 0;
#X connect 31 0 4 0;
#X connect 32 0 38 0;
#X connect 33 0 32 1;
#X connect 34 0 1 0;
#X connect 34 0 35 0;
#X connect 35 0 33 0;
#X connect 36 0 31 0;
#X connect 36 1 32 0;
#X connect 36 2 21 0;
#X connect 37 0 41 0;
#X connect 38 0 44 0;
#X connect 39 0 37 0;
#X connect 40 0 41 1;
#X connect 41 0 45 0;
#X connect 41 0 45 1;
#X connect 42 0 47 0;
#X connect 43 1 46 0;
#X connect 44 0 39 0;
#X connect 44 1 43 0;
#X connect 46 0 40 0;
#X connect 47 0 38 1;
