#N canvas -9 19 708 498 10;
#X obj 176 44 tgl 15 0 empty empty empty 17 7 0 10 -262144 -1 -1 0
1;
#X obj 176 65 metro 50;
#X obj 176 172 random 2;
#X obj 178 218 +;
#X obj 246 172 random 2;
#X obj 316 172 random 2;
#X obj 178 255 +;
#X obj 178 446 moses 1;
#X obj 46 99 t a;
#X obj 386 172 random 2;
#X obj 178 286 +;
#X obj 456 172 random 2;
#X obj 526 172 random 2;
#X obj 176 86 t b b b b b b b;
#X obj 596 172 random 2;
#X obj 178 327 +;
#X obj 178 368 +;
#X obj 178 413 +;
#X text 356 114 connect more to increase the difficulty;
#X text 358 271 ... and connect them here \, too;
#X obj 46 137 bng 15 250 50 0 empty empty empty 17 7 0 10 -262144 -1
-1;
#X connect 0 0 1 0;
#X connect 1 0 13 0;
#X connect 2 0 3 0;
#X connect 3 0 6 0;
#X connect 4 0 3 1;
#X connect 5 0 6 1;
#X connect 6 0 10 0;
#X connect 7 0 8 0;
#X connect 8 0 0 0;
#X connect 8 0 20 0;
#X connect 9 0 10 1;
#X connect 10 0 15 0;
#X connect 13 0 2 0;
#X connect 13 1 4 0;
#X connect 13 2 5 0;
#X connect 13 3 9 0;
#X connect 15 0 16 0;
#X connect 16 0 17 0;
#X connect 17 0 7 0;
