#N canvas 570 372 450 300 10;
#X obj 95 122 line~;
#X msg 95 70 0 \, 1 1000;
#X obj 95 194 bng 15 250 50 0 empty empty empty 17 7 0 10 -262144 -1
-1;
#X obj 95 157 threshold~ 1 0 1 0;
#X connect 0 0 3 0;
#X connect 1 0 0 0;
#X connect 3 0 2 0;
