#N canvas 318 223 880 506 10;
#X obj 59 274 gemhead;
#X obj 58 300 translateXYZ 1 2 0;
#X text 182 300 random translate;
#X text 183 322 random rotate;
#X obj 59 346 scaleXYZ 0 1 1;
#X floatatom 155 346 5 0 0 0 - - -;
#X obj 59 375 translateXYZ 0.5 0 0;
#X obj 59 322 rotateXYZ 0 0 -56;
#X obj 59 398 rectangle 0.5 0.01 0;
#X text 197 344 <- line length;
#X obj 373 208 gemhead;
#X obj 372 420 curve 2;
#X obj 468 161 random 1001;
#X obj 469 183 - 500;
#X obj 468 213 / 500;
#X obj 466 267 pack f f;
#X msg 391 390 \$1 \$2 0;
#X obj 466 136 t b b;
#X obj 465 108 loadbang;
#X obj 549 159 random 1001;
#X obj 550 181 - 500;
#X obj 549 211 / 500;
#X text 471 290 initial position;
#X obj 655 169 random 1001;
#X obj 656 191 - 500;
#X obj 655 221 / 500;
#X obj 653 275 pack f f;
#X msg 463 389 \$1 \$2 0;
#X obj 653 144 t b b;
#X obj 652 116 loadbang;
#X obj 736 167 random 1001;
#X obj 737 189 - 500;
#X obj 736 219 / 500;
#X text 664 296 final position;
#X obj 515 134 bng 15 250 50 0 empty empty empty 17 7 0 10 -262144
-1 -1;
#X obj 702 140 bng 15 250 50 0 empty empty empty 17 7 0 10 -262144
-1 -1;
#X text 529 367 interpolation from initial to final;
#X floatatom 570 345 5 0 0 0 - - -;
#N canvas 50 102 450 300 mix2 0;
#X obj 46 30 inlet;
#N canvas 50 92 450 300 mix 0;
#X obj 52 27 inlet;
#X obj 50 229 outlet;
#X obj 245 28 inlet;
#X obj 210 81 - 1;
#X obj 209 103 * -1;
#X obj 65 183 +;
#X obj 124 27 inlet;
#X obj 243 55 t f f;
#X obj 69 156 *;
#X obj 141 155 *;
#X connect 0 0 8 1;
#X connect 2 0 7 0;
#X connect 3 0 4 0;
#X connect 4 0 8 0;
#X connect 5 0 1 0;
#X connect 6 0 9 1;
#X connect 7 0 3 0;
#X connect 7 1 9 0;
#X connect 8 0 5 0;
#X connect 9 0 5 1;
#X restore 49 169 pd mix;
#X obj 182 32 inlet;
#X obj 348 35 inlet;
#X obj 47 259 outlet;
#N canvas 50 82 450 300 mix 0;
#X obj 52 27 inlet;
#X obj 50 229 outlet;
#X obj 245 28 inlet;
#X obj 69 156 *;
#X obj 210 81 - 1;
#X obj 209 103 * -1;
#X obj 65 183 +;
#X obj 124 27 inlet;
#X obj 141 156 *;
#X obj 243 55 t f f;
#X connect 0 0 3 1;
#X connect 2 0 9 0;
#X connect 3 0 6 0;
#X connect 4 0 5 0;
#X connect 5 0 3 0;
#X connect 6 0 1 0;
#X connect 7 0 8 1;
#X connect 8 0 6 1;
#X connect 9 0 4 0;
#X connect 9 1 8 0;
#X restore 103 168 pd mix;
#X obj 44 64 unpack f f;
#X obj 180 66 unpack f f;
#X obj 51 218 pack f f;
#X obj 344 55 t f f;
#X connect 0 0 6 0;
#X connect 1 0 8 0;
#X connect 2 0 7 0;
#X connect 3 0 9 0;
#X connect 5 0 8 1;
#X connect 6 0 1 0;
#X connect 6 1 5 0;
#X connect 7 0 1 1;
#X connect 7 1 5 1;
#X connect 8 0 4 0;
#X connect 9 0 1 2;
#X connect 9 1 5 2;
#X restore 516 345 pd mix2;
#X text 612 344 <- line length;
#X obj 38 141 gemwin;
#X msg 53 115 create \, 1;
#X obj 468 240 * 4;
#X obj 549 243 * 4;
#X obj 655 246 * 4;
#X obj 735 247 * 4;
#X connect 0 0 1 0;
#X connect 1 0 7 0;
#X connect 4 0 6 0;
#X connect 5 0 4 1;
#X connect 6 0 8 0;
#X connect 7 0 4 0;
#X connect 10 0 11 0;
#X connect 12 0 13 0;
#X connect 13 0 14 0;
#X connect 14 0 42 0;
#X connect 15 0 16 0;
#X connect 15 0 38 0;
#X connect 16 0 11 1;
#X connect 17 0 12 0;
#X connect 17 1 19 0;
#X connect 18 0 17 0;
#X connect 19 0 20 0;
#X connect 20 0 21 0;
#X connect 21 0 43 0;
#X connect 23 0 24 0;
#X connect 24 0 25 0;
#X connect 25 0 44 0;
#X connect 26 0 38 1;
#X connect 27 0 11 2;
#X connect 28 0 23 0;
#X connect 28 1 30 0;
#X connect 29 0 28 0;
#X connect 30 0 31 0;
#X connect 31 0 32 0;
#X connect 32 0 45 0;
#X connect 34 0 17 0;
#X connect 35 0 28 0;
#X connect 37 0 38 2;
#X connect 38 0 27 0;
#X connect 41 0 40 0;
#X connect 42 0 15 0;
#X connect 43 0 15 1;
#X connect 44 0 26 0;
#X connect 45 0 26 1;
