#N canvas 620 328 485 281 10;
#X obj 115 106 until;
#X obj 211 150 t l;
#X obj 115 129 urne 1000;
#X obj 90 236 print;
#X obj 115 83 max;
#X msg 90 30 1000;
#X obj 90 55 t b f f b;
#X obj 90 204 list;
#X obj 115 151 list append;
#X connect 0 0 2 0;
#X connect 1 0 8 1;
#X connect 2 0 8 0;
#X connect 4 0 0 0;
#X connect 5 0 6 0;
#X connect 6 0 7 0;
#X connect 6 1 4 0;
#X connect 6 2 2 1;
#X connect 6 3 8 1;
#X connect 7 0 3 0;
#X connect 8 0 1 0;
#X connect 8 0 7 1;
