#N canvas 0 0 450 300 10;
#X text 14 12 list_resample-help.pd by Claude Heiland-Allen 2012-05-22T03:30:37+0100
;
#X msg 170 100 16;
#X msg 135 100 8;
#X obj 59 182 print input;
#X obj 51 224 print output;
#X obj 49 159 t a a;
#X msg 49 82 1 2 3 4;
#X msg 34 62 1 2 3 4 1 2 3 4 1 2 3 4 1 2 3 4;
#X msg 347 188 0.5;
#X msg 347 209 0.25;
#X msg 349 166 0.75;
#X msg 351 145 0.9;
#X msg 344 232 0.1;
#X text 149 83 output length;
#X text 60 45 input list;
#X msg 201 99 32;
#X obj 51 203 list_resample;
#X msg 264 173 0.5;
#X msg 264 194 0.25;
#X msg 266 151 0.75;
#X msg 268 130 0.9;
#X msg 261 217 0.1;
#X text 265 86 output sharpness;
#X text 349 100 input sharpness;
#X msg 269 108 0.99;
#X msg 351 125 0.99;
#X connect 1 0 16 1;
#X connect 2 0 16 1;
#X connect 5 0 16 0;
#X connect 5 1 3 0;
#X connect 6 0 5 0;
#X connect 7 0 5 0;
#X connect 8 0 16 3;
#X connect 9 0 16 3;
#X connect 10 0 16 3;
#X connect 11 0 16 3;
#X connect 12 0 16 3;
#X connect 15 0 16 1;
#X connect 16 0 4 0;
#X connect 17 0 16 2;
#X connect 18 0 16 2;
#X connect 19 0 16 2;
#X connect 20 0 16 2;
#X connect 21 0 16 2;
#X connect 24 0 16 2;
#X connect 25 0 16 3;
