#N canvas 384 285 507 446 10;
#X obj 148 208 list-find;
#X msg 206 184 1 10 100 1000;
#X obj 206 229 > 0;
#X obj 206 250 select 1;
#X obj 206 277 f;
#X obj 148 152 list-drip;
#N canvas 516 236 450 300 collect 0;
#X obj 195 37 inlet;
#X obj 41 37 inlet;
#X obj 41 144 outlet;
#X msg 195 74 set;
#X text 143 140 1993-2004 by Karlheinz Essl;
#X text 143 160 vs. 1.1;
#X obj 41 99 list trim;
#X obj 41 74 list prepend add2;
#X connect 0 0 3 0;
#X connect 1 0 7 0;
#X connect 3 0 2 0;
#X connect 6 0 2 0;
#X connect 7 0 6 0;
#X restore 206 316 pd collect;
#X msg 148 124 0 2 4 6 8 10 20 30 40 100;
#X obj 148 177 t a a;
#X msg 148 82 bang;
#X obj 148 103 t b b b;
#X msg 206 337;
#X connect 0 1 2 0;
#X connect 1 0 0 1;
#X connect 2 0 3 0;
#X connect 3 0 4 0;
#X connect 4 0 6 0;
#X connect 5 0 8 0;
#X connect 6 0 11 0;
#X connect 7 0 5 0;
#X connect 8 0 0 0;
#X connect 8 1 4 1;
#X connect 9 0 10 0;
#X connect 10 0 7 0;
#X connect 10 1 1 0;
#X connect 10 2 6 1;
