#N canvas 175 204 672 383 10;
#X obj 47 255 r \$0list;
#X obj 109 208 s \$0list;
#X obj 47 209 s \$0list;
#X msg 47 182 mode \$1;
#X obj 47 156 tgl 15 0 empty empty empty 17 7 0 10 -262144 -1 -1 0
1;
#X text 54 133 random output pattern;
#X text 156 279 open for arguments;
#X obj 45 95 s \$0list;
#X text 43 44 outputs one item every 1001ms;
#X obj 132 305 t b b;
#X obj 132 327 timer;
#X floatatom 132 349 5 0 0 0 - - -;
#X msg 45 69 reset \, ft1 8008 \, 0 1 2 3 4 5 6 7;
#X msg 149 179 reset \, mode 1 \, 0 1 2 3 4 5 6 7;
#N canvas 679 287 450 465 sequencing 0;
#X obj 207 222 hsl 128 15 10 10000 0 0 empty empty empty -2 -8 0 10
-262144 -1 -1 0 1;
#X obj 117 59 tgl 20 0 empty empty empty 17 7 0 10 -258113 -1 -1 0
1;
#X msg 204 265 ft1 \$1;
#X obj 204 306 s \$0list;
#X obj 117 427 s \$0list;
#X obj 117 309 metro 1000;
#X obj 144 375 print TICK;
#X obj 117 345 t b b;
#X text 56 11 giving time object the same argument over ft1 will synchronize
the list tuplet;
#X text 238 183 time setting;
#X msg 145 130 reset;
#X obj 117 103 t a b;
#X obj 145 172 s \$0list;
#X msg 279 299 50 51 54 55 57 58 61 62;
#X msg 297 328 61 57 54;
#X obj 117 400 list append 48 48 50 48;
#X msg 304 360;
#X text 289 265 change pattern here;
#X connect 0 0 2 0;
#X connect 0 0 5 1;
#X connect 1 0 11 0;
#X connect 2 0 3 0;
#X connect 5 0 7 0;
#X connect 7 0 15 0;
#X connect 7 1 6 0;
#X connect 10 0 12 0;
#X connect 11 0 5 0;
#X connect 11 1 10 0;
#X connect 13 0 15 1;
#X connect 14 0 15 1;
#X connect 15 0 4 0;
#X connect 16 0 15 1;
#X restore 299 280 pd sequencing patterns;
#X text 134 12 outputs list items symmetrically over time;
#X text 44 12 list-tuplet;
#X obj 542 318 s \$0list;
#X msg 578 289 stop;
#X msg 109 156 un deux trois quatre cinq six sept huit;
#X msg 576 264 reset;
#X msg 540 94 ft1 \$1;
#X floatatom 541 72 5 0 0 0 - - -;
#X msg 569 238 mode \$1;
#X obj 569 215 tgl 15 0 empty empty empty 17 7 0 10 -262144 -1 -1 0
1;
#X msg 551 141 beats 2;
#N canvas 456 2 646 300 nesting 0;
#X obj 121 270 s \$0list;
#X msg 61 134 reset;
#X msg 17 135 mode 1;
#X msg 113 68 0;
#X msg 130 99 1;
#X text 54 22 nested 1 prepares a message for another list-tuplet instance
;
#X text 157 98 randomize;
#X msg 123 133 mode \$1 \, ft1 2000 \, beats 2 \, nested 1 \, separator
- \, 1 2 3 - 1 2 3 4 - 1 2 3 4 5 - 1 2 3 4 5 6 - 1 2 3 4 5 6 7;
#X text 152 65 normal;
#X obj 178 218 print NESTED;
#X obj 122 179 list-tuplet 1000;
#X connect 1 0 0 0;
#X connect 2 0 0 0;
#X connect 3 0 7 0;
#X connect 4 0 7 0;
#X connect 7 0 10 0;
#X connect 10 0 0 0;
#X connect 10 0 9 0;
#X restore 299 312 pd nesting tuplets;
#X msg 546 116 separator -;
#X msg 492 44 1 - 2 3 quatre;
#X obj 47 305 print TUPLET;
#X obj 47 277 list-tuplet 1000;
#X text 294 357 patko 2010;
#X msg 563 194 nested \$1;
#X obj 563 173 tgl 15 0 empty empty empty 17 7 0 10 -262144 -1 -1 0
1;
#X connect 0 0 30 0;
#X connect 3 0 2 0;
#X connect 4 0 3 0;
#X connect 9 0 10 0;
#X connect 9 1 10 1;
#X connect 10 0 11 0;
#X connect 12 0 7 0;
#X connect 13 0 1 0;
#X connect 18 0 17 0;
#X connect 19 0 1 0;
#X connect 20 0 17 0;
#X connect 21 0 17 0;
#X connect 22 0 21 0;
#X connect 23 0 17 0;
#X connect 24 0 23 0;
#X connect 25 0 17 0;
#X connect 27 0 17 0;
#X connect 28 0 17 0;
#X connect 30 0 9 0;
#X connect 30 0 29 0;
#X connect 32 0 17 0;
#X connect 33 0 32 0;
