#N canvas 0 0 450 300 10;
#X obj 133 211 textfile;
#X msg 68 175 print;
#X msg 133 91 add \$1;
#X floatatom 133 68 5 0 0;
#X obj 133 243 print tf;
#X msg 241 67 bang;
#X msg 240 35 rewind;
#X obj 241 135 until;
#X msg 241 106 3;
#X text 270 105 output next 3 elements;
#X text 280 65 output next element;
#X msg 80 66 clear;
#X text 120 42 add numbers;
#X msg 300 205 \; pd dsp 1;
#X connect 0 0 4 0;
#X connect 1 0 0 0;
#X connect 2 0 0 0;
#X connect 3 0 2 0;
#X connect 5 0 0 0;
#X connect 6 0 0 0;
#X connect 7 0 0 0;
#X connect 8 0 7 0;
#X connect 11 0 0 0;
