#N canvas 769 57 641 547 10;
#X declare -lib mrpeach;
#X obj 67 77 / 44100;
#X obj 67 108 pow -1;
#X obj 67 219 sig~;
#X obj 67 248 phasor~;
#X obj 67 288 *~;
#X obj 67 318 tabread4~ sonido;
#X obj 66 353 dac~;
#X obj 196 119 soundfiler;
#X floatatom 196 151 10 0 0 0 - - -;
#X obj 286 435 tgl 15 0 empty empty empty 17 7 0 10 -262144 -1 -1 0
1;
#X msg 285 461 \; pd dsp \$1;
#X obj 197 67 openpanel;
#X obj 196 35 bng 15 250 50 0 empty empty empty 17 7 0 10 -262144 -1
-1;
#X msg 196 94 read -resize \$1 sonido;
#N canvas 0 22 450 278 (subpatch) 0;
#X array sonido 2.23701e+07 float 2;
#X coords 0 1 2.23701e+07 -1 200 140 1;
#X restore 197 203 graph;
#X floatatom 67 193 8 0 0 0 - - -;
#X obj 383 31 import mrpeach;
#X obj 383 58 udpreceive 8000;
#X obj 383 86 unpackOSC;
#X obj 383 143 print;
#X obj 66 168 / 1000;
#X obj 383 114 routeOSC /1/Zfader1;
#X connect 0 0 1 0;
#X connect 2 0 3 0;
#X connect 3 0 4 0;
#X connect 4 0 5 0;
#X connect 5 0 6 0;
#X connect 5 0 6 1;
#X connect 7 0 8 0;
#X connect 8 0 0 0;
#X connect 8 0 4 1;
#X connect 9 0 10 0;
#X connect 11 0 13 0;
#X connect 12 0 11 0;
#X connect 13 0 7 0;
#X connect 15 0 2 0;
#X connect 16 0 17 0;
#X connect 17 0 18 0;
#X connect 18 0 21 0;
#X connect 20 0 15 0;
#X connect 21 0 19 0;
#X connect 21 0 20 0;
