#N canvas 786 176 448 298 10;
#X obj 88 118 * 0.1;
#X obj 88 141 +;
#X obj 122 141 * 0.9;
#X floatatom 196 209 5 0 0 0 - - -;
#X floatatom 192 44 5 0 0 0 - - -;
#X obj 88 95 f;
#X obj 88 4 loadbang;
#X obj 88 67 metro 100;
#X text 235 45 input;
#X floatatom 146 21 5 0 0 0 - - -;
#X text 187 21 samplingperiod;
#X text 239 208 output;
#X connect 0 0 1 0;
#X connect 1 0 2 0;
#X connect 1 0 3 0;
#X connect 2 0 1 1;
#X connect 4 0 5 1;
#X connect 5 0 0 0;
#X connect 6 0 7 0;
#X connect 7 0 5 0;
#X connect 9 0 7 1;
