#N canvas 226 81 881 697 10;
#X floatatom 37 77 5 0 0 1 aFloat - -;
#X obj 38 203 hradio 15 1 0 8 empty empty aRadio 0 -6 0 8 -262144 -1
-1 3;
#X symbolatom 86 154 10 0 0 2 - - -;
#X obj 36 153 symbol;
#X obj 36 129 commun /aSymbol \$0;
#X obj 36 96 commun /aFloat \$0;
#X obj 39 222 commun /aRadio \$0;
#X obj 36 21 hradio 15 1 0 8 empty empty empty 0 -6 0 8 -262144 -1
-1 0;
#N canvas 558 524 450 300 substate 0;
#X msg 21 72 set;
#X msg 58 72 substate \$1;
#X obj 28 48 t b f;
#X obj 21 97 originator \$1 \$0;
#X obj 145 72 r dumpOSC;
#X obj 28 25 inlet;
#X connect 0 0 3 0;
#X connect 1 0 3 0;
#X connect 2 0 0 0;
#X connect 2 1 1 0;
#X connect 4 0 3 1;
#X connect 5 0 2 0;
#X restore 36 40 pd substate;
#X connect 0 0 5 0;
#X connect 1 0 6 0;
#X connect 2 0 4 0;
#X connect 3 0 2 0;
#X connect 4 0 3 0;
#X connect 5 0 0 0;
#X connect 6 0 1 0;
#X connect 7 0 8 0;
#X coords 0 0 0.00113507 0.00143472 200 140 0;
