#N canvas 0 22 450 300 10;
#X obj 160 201 sys_gui;
#X obj 47 89 window_name;
#X obj 47 52 bng 15 250 50 0 empty empty empty 17 7 0 10 -262144 -1
-1;
#X msg 194 147 \$1 configure -menu "";
#X obj 47 118 trigger anything anything;
#X msg 47 147 wm minsize \$1 50 50;
#X connect 1 0 4 0;
#X connect 2 0 1 0;
#X connect 3 0 0 0;
#X connect 4 0 5 0;
#X connect 4 1 3 0;
#X connect 5 0 0 0;
