#N canvas 711 514 450 300 10;
#X msg 75 32 something like this example would be perfect;
#X obj 94 91 list-drip;
#X obj 94 151 t s s;
#X msg 121 175 set \$1%s;
#X obj 75 207 symbol;
#X obj 75 257 print;
#X obj 94 121 makefilename %s;
#X msg 75 229 \$1;
#X msg 159 91 set %s;
#X obj 75 61 t b a b;
#X text 260 225 jack/RYBN 2013;
#X connect 0 0 9 0;
#X connect 1 0 6 0;
#X connect 2 0 4 1;
#X connect 2 1 3 0;
#X connect 3 0 6 0;
#X connect 4 0 7 0;
#X connect 6 0 2 0;
#X connect 7 0 5 0;
#X connect 8 0 6 0;
#X connect 9 0 4 0;
#X connect 9 1 1 0;
#X connect 9 2 8 0;
