#N canvas 231 86 718 506 12;
#X obj 232 142 list prepend;
#X text 201 2 any message of any length here;
#X msg 283 219 set \, add;
#X obj 232 178 t b a b;
#X obj 246 265 list prepend add;
#X obj 511 336 r xxx;
#X obj 511 363 print;
#X msg 337 92 xxx;
#X text 335 71 receiver name here;
#X obj 246 290 list trim;
#X msg 200 25 6 7 foo bar;
#X msg 232 366;
#X connect 0 0 3 0;
#X connect 2 0 11 0;
#X connect 3 0 11 0;
#X connect 3 1 4 0;
#X connect 3 2 2 0;
#X connect 4 0 9 0;
#X connect 5 0 6 0;
#X connect 7 0 0 1;
#X connect 9 0 11 0;
#X connect 10 0 0 0;
