#N canvas 0 0 639 398 10;
#X obj 157 7 r ctrl_data;
#X obj 143 144 route in fx out;
#X obj 102 216 route cam0 mov1;
#X obj 59 256 route motionblur;
#X obj 169 256 route motionblur;
#X obj 59 283 print in/cam0/motionblur:;
#X obj 289 256 route motionblur;
#X obj 292 216 route cam0 mov1;
#X obj 194 187 bng 15 250 50 0 empty empty empty 0 -6 0 8 -262144 -1
-1;
#X obj 173 188 bng 15 250 50 0 empty empty empty 0 -6 0 8 -262144 -1
-1;
#X obj 251 214 print;
#X obj 170 312 print in/mov1/motionblur;
#X msg 186 122 in mov1 motionblur 666;
#X obj 399 256 route motionblur whatever;
#X obj 289 283 print fx/cam0/motionblur:;
#X obj 400 312 print fx/mov1/motionblur;
#X obj 254 24 print in:;
#X obj 229 53 pp set;
#X msg 226 97 fx mov1 motionblur 30;
#X obj 227 76 t b a;
#X obj 291 53 l2s;
#X obj 332 74 print l2s:;
#X connect 0 0 16 0;
#X connect 0 0 17 0;
#X connect 0 0 20 0;
#X connect 1 0 2 0;
#X connect 1 0 9 0;
#X connect 1 1 7 0;
#X connect 1 3 8 0;
#X connect 1 3 10 0;
#X connect 2 0 3 0;
#X connect 2 1 4 0;
#X connect 3 0 5 0;
#X connect 4 0 11 0;
#X connect 6 0 14 0;
#X connect 7 0 6 0;
#X connect 7 1 13 0;
#X connect 12 0 1 0;
#X connect 13 0 15 0;
#X connect 17 0 19 0;
#X connect 18 0 1 0;
#X connect 19 0 18 0;
#X connect 19 1 18 0;
#X connect 20 0 21 0;
#X connect 20 0 1 0;
