#N canvas 602 134 304 338 10;
#X obj 67 41 notein;
#X obj 67 129 phasor~;
#X obj 67 89 mtof;
#X obj 67 176 *~;
#X obj 66 217 output~;
#X obj 125 129 adsr 1 5 500 0 500;
#X connect 0 0 2 0;
#X connect 0 1 5 0;
#X connect 1 0 3 0;
#X connect 2 0 1 0;
#X connect 3 0 4 0;
#X connect 5 0 3 1;
