#N canvas 296 67 716 974 10;
#X obj 44 46 hsl 128 15 0 127 0 0 empty empty empty -2 -8 0 10 -262144
-1 -1 4100 1;
#X obj 41 155 osc~;
#X obj 41 484 route 0 1;
#X obj 41 569 unpack 0 0 0 0;
#X floatatom 41 691 5 0 0 0 - - -, f 5;
#X floatatom 81 661 5 0 0 0 - - -, f 5;
#X floatatom 121 636 5 0 0 0 - - -, f 5;
#X floatatom 162 610 5 0 0 0 - - -, f 5;
#X text 104 695 frequency (Hz.);
#X text 138 662 peak amplitude (linear);
#X text 183 636 cosine component;
#X text 218 610 sine component;
#X obj 326 583 unpack 0 0 0 0;
#X floatatom 326 705 5 0 0 0 - - -, f 5;
#X floatatom 366 675 5 0 0 0 - - -, f 5;
#X floatatom 406 650 5 0 0 0 - - -, f 5;
#X floatatom 447 624 5 0 0 0 - - -, f 5;
#X text 389 709 frequency (Hz.);
#X text 423 676 peak amplitude (linear);
#X text 468 650 cosine component;
#X text 503 624 sine component;
#X obj 52 763 hsl 128 15 0 127 0 0 empty empty empty -2 -8 0 10 -262144
-1 -1 12700 1;
#X obj 41 77 + 200;
#X obj 51 727 - 200;
#X obj 216 38 hsl 128 15 0 127 0 0 empty empty empty -2 -8 0 10 -262144
-1 -1 6900 1;
#X obj 213 69 + 200;
#X obj 244 160 samphold~;
#X obj 330 790 hsl 128 15 0 127 0 0 empty empty empty -2 -8 0 10 -262144
-1 -1 10146 1;
#X obj 329 754 - 200;
#X obj 214 102 osc~;
#X obj 214 128 *~ 0.8;
#X floatatom 570 269 0 0 0 0 - - -;
#X obj 570 181 cputime;
#X obj 570 41 loadbang;
#X obj 570 125 metro 1000;
#X msg 570 69 1;
#X floatatom 570 97 0 0 0 0 - - -;
#X obj 570 153 t b b;
#X obj 570 241 * 0.1;
#X obj 570 210 int;
#X text 615 97 <-- on/off;
#X text 503 297 CPU load in percent;
#X obj 41 455 sigmund~ -npeak 3 peaks;
#X obj 131 209 loadbang;
#X msg 88 223 1;
#X obj 28 191 cnv 15 200 250 empty empty Analog_domain 20 12 0 14 -261234
-66577 0;
#X obj 40 317 *~;
#X obj 86 282 line~;
#X msg 86 260 \$1 20;
#X obj 89 239 hsl 100 15 0 1 0 0 empty empty empty -2 -8 0 10 -262144
-1 -1 0 1;
#X obj 95 356 dac~;
#X connect 0 0 22 0;
#X connect 1 0 46 0;
#X connect 2 0 3 0;
#X connect 2 1 12 0;
#X connect 3 0 4 0;
#X connect 3 1 5 0;
#X connect 3 2 6 0;
#X connect 3 3 7 0;
#X connect 4 0 23 0;
#X connect 12 0 13 0;
#X connect 12 1 14 0;
#X connect 12 2 15 0;
#X connect 12 3 16 0;
#X connect 13 0 28 0;
#X connect 22 0 1 0;
#X connect 23 0 21 0;
#X connect 24 0 25 0;
#X connect 25 0 29 0;
#X connect 28 0 27 0;
#X connect 29 0 30 0;
#X connect 32 0 39 0;
#X connect 33 0 35 0;
#X connect 34 0 37 0;
#X connect 35 0 36 0;
#X connect 36 0 34 0;
#X connect 37 0 32 0;
#X connect 37 1 32 1;
#X connect 38 0 31 0;
#X connect 39 0 38 0;
#X connect 42 0 2 0;
#X connect 43 0 44 0;
#X connect 44 0 49 0;
#X connect 46 0 42 0;
#X connect 47 0 46 1;
#X connect 48 0 47 0;
#X connect 49 0 48 0;
