#N canvas 476 183 499 297 10;
#X obj 22 -229 tgl 15 1 empty empty empty 0 -6 1 8 -262144 -1 -1 1
1;
#X obj 159 21 dac~;
#N canvas 345 450 500 348 minib 0;
#X obj -143 103 inlet notes;
#X obj -144 151 outlet~;
#X obj 103 100 hsl 64 12 0 1 0 1 \$0-chirptime \$0-chirptime-r chirptime
14 6 1 8 -262144 -258699 -1 3300 1;
#X obj 103 208 hsl 64 12 0 1 0 1 \$0-snbody-width \$0-snbody-width-r
snwidth 14 6 1 8 -262144 -258699 -1 5800 1;
#X obj 103 220 hsl 64 12 0 1 0 1 \$0-snbody-smod \$0-snbody-smod-r
snsmod 14 6 1 8 -262144 -258699 -1 5500 1;
#X obj 241 220 hsl 64 12 0 1 0 1 \$0-snvol \$0-snvol-r snvol 14 6 1
8 -262144 -258699 -1 600 1;
#X obj 103 112 hsl 64 12 0 1 0 1 \$0-mbody-damping \$0-mbody-damping-r
damping 14 6 1 8 -262144 -258699 -1 1300 1;
#X obj 103 124 hsl 64 12 0 1 0 1 \$0-mbody-pitch \$0-mbody-pitch-r
pitch 14 6 1 8 -262144 -258699 -1 3800 1;
#X obj 103 136 hsl 64 12 0 1 0 1 \$0-mbody-width \$0-mbody-width-r
width 14 6 1 8 -262144 -258699 -1 5600 1;
#X obj 103 172 hsl 64 12 0 1 0 1 \$0-mbody-noisy \$0-mbody-noisy-r
noisy 14 6 1 8 -262144 -258699 -1 100 1;
#X obj 103 148 hsl 64 12 0 1 0 1 \$0-mbody-height \$0-mbody-height-r
height 14 6 1 8 -262144 -258699 -1 5500 1;
#X obj 103 160 hsl 64 12 0 1 0 1 \$0-mbody-length \$0-mbody-length-r
length 14 6 1 8 -262144 -258699 -1 1900 1;
#X obj 103 184 hsl 64 12 0 1 0 1 \$0-mbody-smod \$0-mbody-smod-r smod
14 6 1 8 -262144 -258699 -1 3500 1;
#X obj 241 208 hsl 64 12 0 1 0 1 \$0-mbody-vol \$0-mbody-vol-r mvol
14 6 1 8 -262144 -258699 -1 6300 1;
#X obj 172 112 hsl 64 12 0 1 0 1 \$0-bdpitch-out \$0-bdpitch-out-r
bdp 14 6 1 8 -262144 -258699 -1 5400 1;
#X obj 241 196 hsl 64 12 0 1 0 1 \$0-bdvol-out \$0-bdvol-out-r bdvol
14 6 1 8 -262144 -258699 -1 3000 1;
#X obj 172 124 hsl 64 12 0 1 0 1 \$0-bddecay-out \$0-bddecay-out-r
bddec 14 6 1 8 -262144 -258699 -1 2900 1;
#X obj 241 184 hsl 64 12 0 1 0 1 \$0-hhvol \$0-hhvol-r hhvol 14 6 1
8 -262144 -258699 -1 3900 1;
#X obj 172 148 hsl 64 12 0 1 0 1 \$0-bdselfmod \$0-bdselfmod-r bdsm
14 6 1 8 -262144 -258699 -1 0 1;
#X obj 172 160 hsl 64 12 0 1 0 1 \$0-bdindex \$0-bdindex-r bdidx 14
6 1 8 -262144 -258699 -1 900 1;
#X obj 172 172 hsl 64 12 0 1 0 1 \$0-bddia \$0-bddia-r bddia 14 6 1
8 -262144 -258699 -1 3900 1;
#X obj 172 100 hsl 64 12 0 1 0 1 \$0-bdblend \$0-bdblend-r bdblend
14 6 1 8 -262144 -258699 -1 4100 1;
#X obj 172 136 hsl 64 12 0 1 0 1 \$0-bdnoise \$0-bdnoise-r bdnoise
14 6 1 8 -262144 -258699 -1 0 1;
#X obj 286 137 tgl 12 1 \$0-pmkmute empty empty 0 -6 1 8 -262144 -258699
-1 1 1;
#X obj 241 112 hsl 64 12 0 1 0 1 \$0-pmkvol empty main-vol 14 6 1 8
-262144 -258699 -1 6300 1;
#X obj 172 184 hsl 64 12 0 1 0 1 \$0-hhf1 \$0-hhf1-r hhf1 14 6 1 8
-262144 -258699 -1 4400 1;
#X obj 172 196 hsl 64 12 0 1 0 1 \$0-hhf2 \$0-hhf2-r hhf2 14 6 1 8
-262144 -258699 -1 5000 1;
#X obj 172 208 hsl 64 12 0 1 0 1 \$0-hhfbase \$0-hhfbase-r hhfbase
14 6 1 8 -262144 -258699 -1 5100 1;
#X obj 172 220 hsl 64 12 0 1 0 1 \$0-hhmod \$0-hhmod-r hhmod 14 6 1
8 -262144 -258699 -1 6300 1;
#X obj 241 100 hsl 64 12 0 1 0 1 \$0-hhself \$0-hhself-r hhself 14
6 1 8 -262144 -258699 -1 5700 1;
#X obj 103 232 hsl 64 12 0 1 0 1 \$0-snarebounce \$0-snarebounce-r
bounce 14 6 1 8 -262144 -258699 -1 3400 1;
#N canvas 252 112 591 454 programs 0;
#X obj 116 191 inlet program;
#N canvas 536 193 714 742 send 0;
#X obj -93 -185 symbol;
#X obj -93 -162 s \$0-name;
#X obj -15 -304 inlet;
#X obj -29 -222 s \$0-chirptime-r;
#X obj -16 -200 s \$0-mbody-damping-r;
#X obj -1 -178 s \$0-mbody-pitch-r;
#X obj 14 -155 s \$0-mbody-width-r;
#X obj 22 -132 s \$0-mbody-height-r;
#X obj 31 -108 s \$0-mbody-length-r;
#X obj 44 -86 s \$0-mbody-noisy-r;
#X obj 55 -59 s \$0-mbody-smod-r;
#X obj 89 -25 s \$0-mbody-vol-r;
#X obj 134 27 s \$0-snbody-width-r;
#X obj 155 57 s \$0-snbody-smod-r;
#X obj 175 82 s \$0-snarebounce-r;
#X obj 241 137 s \$0-snvol-r;
#X obj 195 -192 s \$0-bdblend-r;
#X obj 212 -152 s \$0-bdpitch-out-r;
#X obj 241 -116 s \$0-bddecay-out-r;
#X obj 265 -86 s \$0-bdnoise-r;
#X obj 277 -61 s \$0-bdselfmod-r;
#X obj 289 -34 s \$0-bdindex-r;
#X obj 314 -10 s \$0-bddia-r;
#X obj 331 13 s \$0-bdvol-out-r;
#X obj -15 -276 unpack s f f f f f f f f f f f f f f f f f f f f f
f f f f f f;
#X obj 316 -208 s \$0-hhf1-r;
#X obj 338 -185 s \$0-hhf2-r;
#X obj 355 -160 s \$0-hhfbase-r;
#X obj 389 -133 s \$0-hhmod-r;
#X obj 425 -77 s \$0-hhvol-r;
#X obj 407 -103 s \$0-hhself-r;
#X connect 0 0 1 0;
#X connect 2 0 24 0;
#X connect 24 0 0 0;
#X connect 24 1 3 0;
#X connect 24 2 4 0;
#X connect 24 3 5 0;
#X connect 24 4 6 0;
#X connect 24 5 7 0;
#X connect 24 6 8 0;
#X connect 24 7 9 0;
#X connect 24 8 10 0;
#X connect 24 9 11 0;
#X connect 24 10 12 0;
#X connect 24 11 13 0;
#X connect 24 12 14 0;
#X connect 24 13 15 0;
#X connect 24 14 16 0;
#X connect 24 15 17 0;
#X connect 24 16 18 0;
#X connect 24 17 19 0;
#X connect 24 18 20 0;
#X connect 24 19 21 0;
#X connect 24 20 22 0;
#X connect 24 21 23 0;
#X connect 24 22 25 0;
#X connect 24 23 26 0;
#X connect 24 24 27 0;
#X connect 24 25 28 0;
#X connect 24 26 30 0;
#X connect 24 27 29 0;
#X restore 22 246 pd send all;
#N canvas 311 10 534 387 catch 0;
#X obj 73 125 t b f;
#X obj 105 150 t b f;
#X obj 151 158 t b f;
#X obj 64 314 outlet;
#X msg 68 282 0.920635 0.873016 0.539683 0.0952381;
#X obj -13 227 inlet bang;
#X obj 185 86 r \$0-snvol;
#X obj 68 211 pack f f f f;
#X msg 68 249 set \$1 \$2 \$3 \$4;
#X obj 170 62 r \$0-snarebounce;
#X obj 132 40 r \$0-snbody-smod;
#X obj 100 14 r \$0-snbody-width;
#X connect 0 0 7 0;
#X connect 0 1 7 1;
#X connect 1 0 7 0;
#X connect 1 1 7 2;
#X connect 2 0 7 0;
#X connect 2 1 7 3;
#X connect 4 0 3 0;
#X connect 5 0 4 0;
#X connect 6 0 2 0;
#X connect 7 0 8 0;
#X connect 8 0 4 0;
#X connect 9 0 1 0;
#X connect 10 0 0 0;
#X connect 11 0 7 0;
#X restore 157 43 pd catch a snare;
#N canvas 390 87 638 855 catch 0;
#X obj 73 125 t b f;
#X obj 105 150 t b f;
#X obj 130 175 t b f;
#X obj 181 198 t b f;
#X obj 196 222 t b f;
#X obj 55 510 outlet;
#X msg 59 478 0.52381 0.206349 0.603175 0.888889 0.873016 0.301587
0.015873 0.555556 1;
#X obj -22 423 inlet bang;
#X obj 254 228 t b f;
#X obj 304 231 t b f;
#X obj 100 14 r \$0-chirptime;
#X obj 132 40 r \$0-mbody-damping;
#X obj 170 62 r \$0-mbody-pitch;
#X obj 209 83 r \$0-mbody-width;
#X obj 239 107 r \$0-mbody-height;
#X obj 255 130 r \$0-mbody-length;
#X obj 285 160 r \$0-mbody-noisy;
#X obj 304 205 r \$0-mbody-smod;
#X obj 375 258 t b f;
#X obj 375 232 r \$0-mbody-vol;
#X obj 59 407 pack f f f f f f f f f;
#X msg 59 445 set \$1 \$2 \$3 \$4 \$5 \$6 \$7 \$8 \$9;
#X connect 0 0 20 0;
#X connect 0 1 20 1;
#X connect 1 0 20 0;
#X connect 1 1 20 2;
#X connect 2 0 20 0;
#X connect 2 1 20 3;
#X connect 3 0 20 0;
#X connect 3 1 20 4;
#X connect 4 0 20 0;
#X connect 4 1 20 5;
#X connect 6 0 5 0;
#X connect 7 0 6 0;
#X connect 8 0 20 0;
#X connect 8 1 20 6;
#X connect 9 0 20 0;
#X connect 9 1 20 7;
#X connect 10 0 20 0;
#X connect 11 0 0 0;
#X connect 12 0 1 0;
#X connect 13 0 2 0;
#X connect 14 0 3 0;
#X connect 15 0 4 0;
#X connect 16 0 8 0;
#X connect 17 0 9 0;
#X connect 18 0 20 0;
#X connect 18 1 20 8;
#X connect 19 0 18 0;
#X connect 20 0 21 0;
#X connect 21 0 6 0;
#X restore 45 43 pd catch a skin;
#N canvas 459 28 461 585 catch 0;
#X obj 73 125 t b f;
#X obj 105 150 t b f;
#X obj 130 175 t b f;
#X obj 181 198 t b f;
#X obj 196 222 t b f;
#X obj 55 510 outlet;
#X msg 59 478 0.650794 0.857143 0.460317 0 0 0.142857 0.619048 0.47619
;
#X obj -22 423 inlet bang;
#X obj 254 228 t b f;
#X obj 59 407 pack f f f f f f f f;
#X obj 304 231 t b f;
#X msg 59 445 set \$1 \$2 \$3 \$4 \$5 \$6 \$7 \$8;
#X obj 239 107 r \$0-bdselfmod;
#X obj 255 130 r \$0-bdindex;
#X obj 285 160 r \$0-bddia;
#X obj 304 205 r \$0-bdvol-out;
#X obj 100 14 r \$0-bdblend;
#X obj 132 40 r \$0-bdpitch-out;
#X obj 170 62 r \$0-bddecay-out;
#X obj 209 83 r \$0-bdnoise;
#X connect 0 0 9 0;
#X connect 0 1 9 1;
#X connect 1 0 9 0;
#X connect 1 1 9 2;
#X connect 2 0 9 0;
#X connect 2 1 9 3;
#X connect 3 0 9 0;
#X connect 3 1 9 4;
#X connect 4 0 9 0;
#X connect 4 1 9 5;
#X connect 6 0 5 0;
#X connect 7 0 6 0;
#X connect 8 0 9 0;
#X connect 8 1 9 6;
#X connect 9 0 11 0;
#X connect 10 0 9 0;
#X connect 10 1 9 7;
#X connect 11 0 6 0;
#X connect 12 0 3 0;
#X connect 13 0 4 0;
#X connect 14 0 8 0;
#X connect 15 0 10 0;
#X connect 16 0 9 0;
#X connect 17 0 0 0;
#X connect 18 0 1 0;
#X connect 19 0 2 0;
#X restore 279 44 pd catch a kick;
#N canvas 441 64 461 585 catch 0;
#X obj 73 125 t b f;
#X obj 105 150 t b f;
#X obj 130 175 t b f;
#X obj 242 241 t b f;
#X obj 55 510 outlet;
#X msg 59 478 0.698413 0.793651 0.809524 1 0.904762 0.619048;
#X obj -22 423 inlet bang;
#X obj 100 14 r \$0-hhf1;
#X obj 132 40 r \$0-hhf2;
#X obj 170 62 r \$0-hhfbase;
#X obj 209 83 r \$0-hhmod;
#X obj 259 211 r \$0-hhvol;
#X obj 59 407 pack f f f f f f;
#X obj 209 176 t b f;
#X obj 226 146 r \$0-hhself;
#X msg 59 445 set \$1 \$2 \$3 \$4 \$5 \$6;
#X connect 0 0 12 0;
#X connect 0 1 12 1;
#X connect 1 0 12 0;
#X connect 1 1 12 2;
#X connect 2 0 12 0;
#X connect 2 1 12 3;
#X connect 3 0 12 0;
#X connect 3 1 12 5;
#X connect 5 0 4 0;
#X connect 6 0 5 0;
#X connect 7 0 12 0;
#X connect 8 0 0 0;
#X connect 9 0 1 0;
#X connect 10 0 2 0;
#X connect 11 0 3 0;
#X connect 12 0 15 0;
#X connect 13 0 12 0;
#X connect 13 1 12 4;
#X connect 14 0 13 0;
#X connect 15 0 5 0;
#X restore 389 43 pd catch a hat;
#X obj 138 -14 t b b b b;
#X obj 279 90 list append;
#X obj 207 113 list append;
#X obj 135 135 list append;
#X obj 80 -63 t b b b b;
#N canvas 192 22 599 316 catch 0;
#X obj 113 47 t b f;
#X obj 96 246 outlet;
#X msg 96 193 3 bigsnare;
#X obj 15 138 inlet bang;
#X obj 68 76 r \$0-patchname;
#X obj 96 122 pack s f;
#X obj 113 23 r \$0-preset;
#X msg 96 160 set \$2 \$1;
#X connect 0 0 5 0;
#X connect 0 1 5 1;
#X connect 2 0 1 0;
#X connect 3 0 2 0;
#X connect 4 0 5 0;
#X connect 5 0 7 0;
#X connect 6 0 0 0;
#X connect 7 0 2 0;
#X restore -79 43 pd catch a name;
#X obj 24 168 list append;
#X obj 80 -86 r \$0-patchwrite;
#N canvas 422 511 758 500 patchmemory 0;
#X obj 22 43 inlet tosave;
#X obj 22 67 list split 1;
#X obj 244 41 inlet readme;
#X obj 197 382 outlet;
#X obj 1 220 list;
#N canvas 332 60 791 587 store0 0;
#X msg 116 285 ringy 0.126984 0.126984 0.809524 0.111111 0.936508 0.888889
0.0793651 0.047619 0.777778 0.460317 0.666667 0.47619 0.238095 0.253968
0.587302 0.666667 0.539683 0.492063 0.571429 0.634921 0.587302 0.761905
0.873016 0.936508 1 0.904762;
#X obj 293 158 inlet read;
#X obj 116 223 inlet write;
#X obj 292 180 t b;
#X obj 116 347 outlet;
#X msg 116 249 set \$1 \$2 \$3 \$4 \$5 \$6 \$7 \$8 \$9 \$10 \$11 \$12
\$13 \$14 \$15 \$16 \$17 \$18 \$19 \$20 \$21 \$22 \$23 \$24 \$25 \$26
\$27;
#X connect 0 0 4 0;
#X connect 1 0 3 0;
#X connect 2 0 5 0;
#X connect 3 0 0 0;
#X connect 5 0 0 0;
#X restore -95 295 pd store0;
#N canvas 332 60 791 587 store1 0;
#X obj 293 158 inlet read;
#X obj 116 223 inlet write;
#X obj 292 180 t b;
#X msg 116 249 set \$1 \$2 \$3 \$4 \$5 \$6 \$7 \$8 \$9 \$10 \$11 \$12
\$13 \$14 \$15 \$16 \$17 \$18 \$19 \$20 \$21 \$22 \$23 \$24 \$25;
#X obj 116 347 outlet;
#X msg 116 285 tight 0.0793651 0.555556 0.84127 0.619048 0.047619 0.111111
0.0793651 0.031746 0.968254 0.0952381 1 0.142857 0.238095 0.174603
0.825397 0.460317 0.301587 0.238095 0.269841 0.761905 0.603175 0.952381
0.111111 1;
#X connect 0 0 2 0;
#X connect 1 0 3 0;
#X connect 2 0 5 0;
#X connect 3 0 5 0;
#X connect 5 0 4 0;
#X restore -23 296 pd store1;
#N canvas 332 60 791 587 store2 0;
#X msg 116 285 techno 0.555556 0.507937 0.714286 0.412698 0.253968
0.365079 0.126984 0.68254 0.746032 0.0634921 1 0.68254 0.190476 0.777778
0.571429 0.84127 0 0.15873 0.190476 0.761905 0.634921 0.301587 0.365079
1;
#X obj 293 158 inlet read;
#X obj 116 223 inlet write;
#X obj 292 180 t b;
#X msg 116 249 set \$1 \$2 \$3 \$4 \$5 \$6 \$7 \$8 \$9 \$10 \$11 \$12
\$13 \$14 \$15 \$16 \$17 \$18 \$19 \$20 \$21 \$22 \$23 \$24 \$25;
#X obj 116 347 outlet;
#X connect 0 0 5 0;
#X connect 1 0 3 0;
#X connect 2 0 4 0;
#X connect 3 0 0 0;
#X connect 4 0 0 0;
#X restore 53 296 pd store2;
#N canvas 332 60 791 587 store3 0;
#X msg 116 285 bigsnare 0.52381 0.206349 0.603175 0.888889 0.873016
0.301587 0.015873 0.555556 1 0.920635 0.873016 0.539683 0.0952381 0.650794
0.857143 0.460317 0 0 0.142857 0.619048 0.47619 0.698413 0.793651 0.809524
;
#X obj 293 158 inlet read;
#X obj 116 223 inlet write;
#X obj 292 180 t b;
#X msg 116 249 set \$1 \$2 \$3 \$4 \$5 \$6 \$7 \$8 \$9 \$10 \$11 \$12
\$13 \$14 \$15 \$16 \$17 \$18 \$19 \$20 \$21 \$22 \$23 \$24 \$25;
#X obj 116 347 outlet;
#X connect 0 0 5 0;
#X connect 1 0 3 0;
#X connect 2 0 4 0;
#X connect 3 0 0 0;
#X connect 4 0 0 0;
#X restore 124 297 pd store3;
#N canvas 332 60 791 587 store5 0;
#X msg 116 285 echos 0.126984 0.031746 0.619048 0.47619 0.31746 0.111111
0.936508 0.047619 1 0.920635 0.873016 0.301587 0.0793651 0.444444 0.412698
0.31746 0.047619 0.047619 0.174603 0.460317 0.666667 0.698413 0.253968
0.761905;
#X obj 293 158 inlet read;
#X obj 116 223 inlet write;
#X obj 292 180 t b;
#X msg 116 249 set \$1 \$2 \$3 \$4 \$5 \$6 \$7 \$8 \$9 \$10 \$11 \$12
\$13 \$14 \$15 \$16 \$17 \$18 \$19 \$20 \$21 \$22 \$23 \$24 \$25;
#X obj 116 347 outlet;
#X connect 0 0 5 0;
#X connect 1 0 3 0;
#X connect 2 0 4 0;
#X connect 3 0 0 0;
#X connect 4 0 0 0;
#X restore 197 297 pd store5;
#N canvas 332 60 791 587 store6 0;
#X msg 116 285 loose 0.555556 0.174603 0.603175 0 0.047619 0.936508
0.031746 0 0.793651 0.920635 0.650794 0.936508 0.222222 0.444444 0.0952381
0.777778 0.174603 0.15873 0.412698 0.428571 0.396825 0.31746 0.777778
0.952381;
#X obj 293 158 inlet read;
#X obj 116 223 inlet write;
#X obj 292 180 t b;
#X msg 116 249 set \$1 \$2 \$3 \$4 \$5 \$6 \$7 \$8 \$9 \$10 \$11 \$12
\$13 \$14 \$15 \$16 \$17 \$18 \$19 \$20 \$21 \$22 \$23 \$24 \$25;
#X obj 116 347 outlet;
#X connect 0 0 5 0;
#X connect 1 0 3 0;
#X connect 2 0 4 0;
#X connect 3 0 0 0;
#X connect 4 0 0 0;
#X restore 269 298 pd store6;
#N canvas 332 60 791 587 store7 0;
#X msg 116 285 housey 1 0.952381 0.936508 0.888889 0.84127 0.777778
0.698413 0.603175 0 0.190476 0.857143 0.015873 0.444444 0 0.539683
0 0 0 0.174603 0.412698 0.619048 0.650794 0.555556 0.84127;
#X obj 293 158 inlet read;
#X obj 116 223 inlet write;
#X obj 292 180 t b;
#X msg 116 249 set \$1 \$2 \$3 \$4 \$5 \$6 \$7 \$8 \$9 \$10 \$11 \$12
\$13 \$14 \$15 \$16 \$17 \$18 \$19 \$20 \$21 \$22 \$23 \$24 \$25;
#X obj 116 347 outlet;
#X connect 0 0 5 0;
#X connect 1 0 3 0;
#X connect 2 0 4 0;
#X connect 3 0 0 0;
#X connect 4 0 0 0;
#X restore 345 298 pd store7;
#N canvas 332 60 791 587 store8 0;
#X msg 116 285 filter 0.0952381 0.126984 0.714286 0.111111 0.126984
0.888889 0.031746 0.047619 0.825397 0.0793651 0 0.746032 0.126984 0.142857
0.761905 0.444444 0 0 1 0.936508 0.47619 0.936508 0.904762 0.666667
;
#X obj 293 158 inlet read;
#X obj 116 223 inlet write;
#X obj 292 180 t b;
#X msg 116 249 set \$1 \$2 \$3 \$4 \$5 \$6 \$7 \$8 \$9 \$10 \$11 \$12
\$13 \$14 \$15 \$16 \$17 \$18 \$19 \$20 \$21 \$22 \$23 \$24 \$25;
#X obj 116 347 outlet;
#X connect 0 0 5 0;
#X connect 1 0 3 0;
#X connect 2 0 4 0;
#X connect 3 0 0 0;
#X connect 4 0 0 0;
#X restore 416 299 pd store8;
#X obj 244 124 sel 0 1 2 3 4 5 6 7;
#X obj 22 124 sel 0 1 2 3 4 5 6 7;
#X obj 36 220 list;
#X obj 61 93 t l l l l l l l l;
#X obj 73 220 list;
#X obj 108 220 list;
#X obj 147 220 list;
#X obj 182 219 list;
#X obj 219 219 list;
#X obj 254 219 list;
#X connect 0 0 1 0;
#X connect 1 0 14 0;
#X connect 1 1 16 0;
#X connect 2 0 13 0;
#X connect 4 0 5 0;
#X connect 5 0 3 0;
#X connect 6 0 3 0;
#X connect 7 0 3 0;
#X connect 8 0 3 0;
#X connect 9 0 3 0;
#X connect 10 0 3 0;
#X connect 11 0 3 0;
#X connect 12 0 3 0;
#X connect 13 0 5 1;
#X connect 13 1 6 1;
#X connect 13 2 7 1;
#X connect 13 3 8 1;
#X connect 13 4 9 1;
#X connect 13 5 10 1;
#X connect 13 6 11 1;
#X connect 13 7 12 1;
#X connect 14 0 4 0;
#X connect 14 1 15 0;
#X connect 14 2 17 0;
#X connect 14 3 18 0;
#X connect 14 4 19 0;
#X connect 14 5 20 0;
#X connect 14 6 21 0;
#X connect 14 7 22 0;
#X connect 15 0 6 0;
#X connect 16 0 4 1;
#X connect 16 1 15 1;
#X connect 16 2 17 1;
#X connect 16 3 18 1;
#X connect 16 4 19 1;
#X connect 16 5 20 1;
#X connect 16 6 21 1;
#X connect 16 7 22 1;
#X connect 17 0 7 0;
#X connect 18 0 8 0;
#X connect 19 0 9 0;
#X connect 20 0 10 0;
#X connect 21 0 11 0;
#X connect 22 0 12 0;
#X restore 23 223 pd patchmemory;
#X obj 23 195 list trim;
#X floatatom 129 214 5 0 0 0 - - -;
#X connect 0 0 14 1;
#X connect 0 0 16 0;
#X connect 2 0 8 0;
#X connect 3 0 9 0;
#X connect 4 0 7 0;
#X connect 5 0 7 1;
#X connect 6 0 3 0;
#X connect 6 1 2 0;
#X connect 6 2 4 0;
#X connect 6 3 5 0;
#X connect 7 0 8 1;
#X connect 8 0 9 1;
#X connect 9 0 12 1;
#X connect 10 2 11 0;
#X connect 10 3 6 0;
#X connect 11 0 12 0;
#X connect 12 0 15 0;
#X connect 13 0 10 0;
#X connect 14 0 1 0;
#X connect 15 0 14 0;
#X restore -4 162 pd programs;
#X symbolatom 196 245 11 0 0 0 - #0-name #0-patchname;
#X obj 159 246 nbx 3 12 0 7 0 0 \$0-preset \$0-preset-r empty 0 -6
1 10 -262144 -1 -1 0 256;
#X obj -3 102 inlet program;
#X obj -3 124 s \$0-preset-r;
#X obj 281 246 bng 12 250 50 0 \$0-patchwrite empty write 0 -6 1 8
-262144 -258699 -1;
#X obj -4 143 r \$0-preset;
#N canvas 590 312 365 234 feedback 0;
#X obj 23 48 inlet notes;
#X obj 23 106 / 128;
#X obj 72 106 / 128;
#X obj 121 106 / 128;
#X obj 165 106 / 128;
#X obj 78 210 outlet~;
#N canvas 348 53 638 363 jsd 0;
#N canvas 551 229 579 443 displacement 0;
#X obj 176 350 cos~;
#X obj 174 175 line~;
#X obj 175 327 wrap~;
#X obj 174 281 *~;
#X obj 126 36 inlet trigger;
#X obj 162 425 outlet~;
#X obj 102 285 *~;
#X obj 175 199 *~ 2;
#X obj 162 401 *~ 0.25;
#X obj 126 144 pack 0 10;
#X msg 197 144 1 0;
#X obj 175 226 clip~ 1 2;
#X obj 174 257 -~ 1;
#X obj 161 378 -~;
#X obj 104 226 clip~ 0 1;
#X obj 103 251 -~ 1;
#X text 151 7 Energetic displacement;
#X obj 174 305 *~ 3;
#X obj 228 38 r \$0-chirptime;
#X obj 228 60 * 30;
#X obj 212 113 +;
#X obj 126 65 t b b b f;
#X obj 184 85 * 40;
#X connect 0 0 13 1;
#X connect 1 0 7 0;
#X connect 2 0 0 0;
#X connect 3 0 17 0;
#X connect 4 0 21 0;
#X connect 6 0 13 0;
#X connect 7 0 11 0;
#X connect 7 0 14 0;
#X connect 8 0 5 0;
#X connect 9 0 1 0;
#X connect 10 0 1 0;
#X connect 11 0 12 0;
#X connect 12 0 3 0;
#X connect 12 0 3 1;
#X connect 13 0 8 0;
#X connect 14 0 15 0;
#X connect 15 0 6 0;
#X connect 15 0 6 1;
#X connect 17 0 2 0;
#X connect 18 0 19 0;
#X connect 19 0 20 1;
#X connect 20 0 9 1;
#X connect 21 0 9 0;
#X connect 21 1 10 0;
#X connect 21 3 22 0;
#X connect 22 0 20 0;
#X restore 169 131 pd displacement impulse;
#X obj 348 156 *~ 0.5;
#X obj 169 154 *~ 0.5;
#X obj 117 241 +~;
#N canvas 0 0 1107 761 overdriven 0;
#X msg 100 206 /feedback \$1;
#X obj 61 133 hip~ 2;
#X obj 100 159 swap 1;
#X obj 100 183 -;
#N canvas 0 0 588 510 bodyres 0;
#X obj -30 -33 inlet~;
#X obj 120 -60 inlet;
#X obj 185 142 +~;
#X obj 170 192 +~;
#X obj 274 193 +~;
#X obj 212 192 -~;
#X obj 314 192 -~;
#X obj 169 248 +~;
#X obj 213 249 +~;
#X obj 257 250 -~;
#X obj 296 250 -~;
#X obj 256 292 *~ 0;
#X obj 214 291 *~ 0;
#X obj 169 290 *~ 0;
#X obj 297 293 *~ 0;
#X obj 296 353 delwrite~ \$0-D 1000;
#X obj 257 376 delwrite~ \$0-C 1000;
#X obj 215 399 delwrite~ \$0-B 1000;
#X obj 170 421 delwrite~ \$0-A 1000;
#X obj -22 419 outlet~ hot;
#X obj 65 420 outlet~ cold;
#X obj 227 142 +~ 0;
#X obj 185 60 vd~ \$0-A 100;
#X obj 249 89 vd~ \$0-B 51;
#X obj 313 61 vd~ \$0-C 26;
#X obj 380 90 vd~ \$0-D 11;
#X obj 185 -12 * 20;
#X obj 249 -11 * 20;
#X obj 314 -12 * 20;
#X obj 380 -13 * 20;
#X obj 331 249 + 0.1;
#X obj 169 320 lop~;
#X obj 214 321 lop~;
#X obj 256 322 lop~;
#X obj 297 323 lop~;
#X obj 338 293 * 5000;
#X obj 120 -35 route /feedback /delay1 /delay2 /delay3 /delay4 /lowpass
;
#X obj 331 228 * 0.4;
#X obj 185 12 sig~;
#X obj 248 11 sig~;
#X obj 313 11 sig~;
#X obj 380 8 sig~;
#X obj 185 36 +~;
#X obj 248 35 +~;
#X obj 313 36 -~;
#X obj 379 33 -~;
#X obj 32 -33 inlet~ mod;
#X connect 0 0 2 0;
#X connect 1 0 36 0;
#X connect 2 0 3 0;
#X connect 2 0 5 0;
#X connect 2 0 19 0;
#X connect 3 0 7 0;
#X connect 3 0 9 0;
#X connect 4 0 9 1;
#X connect 4 0 7 1;
#X connect 5 0 8 0;
#X connect 5 0 10 0;
#X connect 6 0 8 1;
#X connect 6 0 10 1;
#X connect 7 0 13 0;
#X connect 8 0 12 0;
#X connect 9 0 11 0;
#X connect 10 0 14 0;
#X connect 11 0 33 0;
#X connect 12 0 32 0;
#X connect 13 0 31 0;
#X connect 14 0 34 0;
#X connect 21 0 3 1;
#X connect 21 0 5 1;
#X connect 21 0 20 0;
#X connect 22 0 2 1;
#X connect 23 0 21 0;
#X connect 24 0 6 0;
#X connect 24 0 4 0;
#X connect 25 0 6 1;
#X connect 25 0 4 1;
#X connect 26 0 38 0;
#X connect 27 0 39 0;
#X connect 28 0 40 0;
#X connect 29 0 41 0;
#X connect 30 0 14 1;
#X connect 30 0 11 1;
#X connect 30 0 12 1;
#X connect 30 0 13 1;
#X connect 31 0 18 0;
#X connect 32 0 17 0;
#X connect 33 0 16 0;
#X connect 34 0 15 0;
#X connect 35 0 34 1;
#X connect 35 0 33 1;
#X connect 35 0 32 1;
#X connect 35 0 31 1;
#X connect 36 0 37 0;
#X connect 36 1 26 0;
#X connect 36 2 27 0;
#X connect 36 3 28 0;
#X connect 36 4 29 0;
#X connect 36 5 35 0;
#X connect 37 0 30 0;
#X connect 38 0 42 0;
#X connect 39 0 43 0;
#X connect 40 0 44 0;
#X connect 41 0 45 0;
#X connect 42 0 22 0;
#X connect 43 0 23 0;
#X connect 44 0 24 0;
#X connect 45 0 25 0;
#X connect 46 0 45 1;
#X connect 46 0 44 1;
#X connect 46 0 43 1;
#X connect 46 0 42 1;
#X restore 61 331 pd bodyres;
#X msg 282 208 /delay1 \$1;
#X msg 362 208 /delay2 \$1;
#X msg 443 207 /delay3 \$1;
#X msg 523 207 /delay4 \$1;
#X obj 193 159 swap 1;
#X obj 193 183 -;
#X msg 194 206 /lowpass \$1;
#N canvas 0 0 710 439 cmplxmod 0;
#X obj 83 47 inlet~;
#X obj 256 46 phasor~ 0;
#X obj 255 198 cos~;
#X obj 291 198 cos~;
#X obj 166 47 inlet~;
#X obj 82 247 *~;
#X obj 165 248 *~;
#X obj 82 283 -~;
#X obj 82 316 outlet~;
#X obj 256 20 inlet~;
#X obj 323 68 noise~;
#X obj 324 112 *~ 10;
#X obj 256 144 +~;
#X obj 291 176 -~ 0.25;
#X obj 484 27 inlet noisy;
#X obj 323 90 vcf~ 100 25;
#X msg 389 60 25;
#X obj 388 38 loadbang;
#X connect 0 0 5 0;
#X connect 1 0 12 0;
#X connect 2 0 5 1;
#X connect 3 0 6 1;
#X connect 4 0 6 0;
#X connect 5 0 7 0;
#X connect 6 0 7 1;
#X connect 7 0 8 0;
#X connect 9 0 1 0;
#X connect 9 0 15 1;
#X connect 10 0 15 0;
#X connect 11 0 12 1;
#X connect 12 0 2 0;
#X connect 12 0 13 0;
#X connect 13 0 3 0;
#X connect 14 0 11 1;
#X connect 15 0 11 0;
#X connect 16 0 15 2;
#X connect 17 0 16 0;
#X restore 60 412 pd cmplxmod;
#X obj 220 379 * 10;
#X obj 164 311 * 20;
#X obj 164 332 swap 1;
#X obj 164 356 /;
#X obj 164 379 * 1000;
#X obj 281 161 swap 1;
#X obj 281 185 -;
#X obj 62 103 inlet~;
#X obj 59 568 outlet~;
#X obj 26 -40 r \$0-mbody-damping;
#X msg 26 -15 /damping \$1;
#X msg 160 -16 /pitch \$1;
#X obj 160 -41 r \$0-mbody-pitch;
#X obj 286 -42 r \$0-mbody-width;
#X msg 286 -17 /width \$1;
#X obj 407 -44 r \$0-mbody-height;
#X msg 407 -19 /height \$1;
#X obj 533 -46 r \$0-mbody-length;
#X msg 533 -21 /length \$1;
#X obj 662 -45 r \$0-mbody-noisy;
#X msg 662 -20 /noisy \$1;
#X obj 125 493 s~ \$0-mbselfmod;
#X obj 94 255 r~ \$0-mbselfmod;
#X obj 94 300 *~;
#X obj 780 -46 r \$0-mbody-smod;
#X msg 780 -21 /selfmod \$1;
#X obj 197 42 route /damping /pitch /width /height /length /noisy /selfmod
;
#X obj 59 493 hip~ 100;
#X obj 894 -48 r \$0-mbody-vol;
#X obj 58 533 *~;
#X obj 60 454 *~;
#X obj -40 354 vline~;
#X msg -40 331 1 0 0 \, 0 \$1 0;
#X obj -40 308 f 1000;
#X obj -41 104 inlet trig;
#X obj 110 277 * 30;
#X connect 0 0 4 2;
#X connect 1 0 4 0;
#X connect 2 0 3 0;
#X connect 2 1 3 1;
#X connect 3 0 0 0;
#X connect 4 0 12 0;
#X connect 4 1 12 1;
#X connect 5 0 4 2;
#X connect 6 0 4 2;
#X connect 7 0 4 2;
#X connect 8 0 4 2;
#X connect 9 0 10 0;
#X connect 9 1 10 1;
#X connect 10 0 11 0;
#X connect 11 0 4 2;
#X connect 12 0 43 0;
#X connect 13 0 12 3;
#X connect 14 0 15 0;
#X connect 15 0 16 0;
#X connect 15 1 16 1;
#X connect 16 0 17 0;
#X connect 17 0 12 2;
#X connect 18 0 19 0;
#X connect 18 1 19 1;
#X connect 19 0 5 0;
#X connect 19 0 14 0;
#X connect 20 0 1 0;
#X connect 22 0 23 0;
#X connect 23 0 39 0;
#X connect 24 0 39 0;
#X connect 25 0 24 0;
#X connect 26 0 27 0;
#X connect 27 0 39 0;
#X connect 28 0 29 0;
#X connect 29 0 39 0;
#X connect 30 0 31 0;
#X connect 31 0 39 0;
#X connect 32 0 33 0;
#X connect 33 0 39 0;
#X connect 35 0 36 0;
#X connect 36 0 4 1;
#X connect 37 0 38 0;
#X connect 38 0 39 0;
#X connect 39 0 9 0;
#X connect 39 0 2 0;
#X connect 39 1 18 0;
#X connect 39 2 6 0;
#X connect 39 3 7 0;
#X connect 39 4 8 0;
#X connect 39 5 13 0;
#X connect 39 6 48 0;
#X connect 40 0 42 0;
#X connect 41 0 42 1;
#X connect 42 0 21 0;
#X connect 43 0 40 0;
#X connect 43 0 34 0;
#X connect 44 0 43 1;
#X connect 45 0 44 0;
#X connect 46 0 45 0;
#X connect 47 0 46 0;
#X connect 48 0 36 1;
#X restore 34 209 pd overdriven lamina;
#X obj 131 39 inlet;
#X obj 116 264 outlet~;
#X obj 131 66 t b b f f;
#N canvas 551 229 330 426 snare 0;
#X obj 104 180 line~;
#X obj 105 315 wrap~;
#X obj 105 291 *~;
#X obj 85 49 inlet trigger;
#X obj 104 361 outlet~;
#X obj 104 337 *~ 0.25;
#X msg 120 121 1 0;
#X obj 105 231 clip~ 1 2;
#X obj 104 262 -~ 1;
#X text 68 16 Bounce of snare coil;
#X obj 104 156 pack 0 f;
#X obj 155 108 * 60;
#X obj 155 131 + 5;
#X obj 105 204 *~ 2;
#X obj 192 131 + 2;
#X obj 85 78 t b b b f f;
#X obj 192 106 * 2;
#X connect 0 0 13 0;
#X connect 1 0 5 0;
#X connect 2 0 1 0;
#X connect 3 0 15 0;
#X connect 5 0 4 0;
#X connect 6 0 0 0;
#X connect 7 0 8 0;
#X connect 8 0 2 0;
#X connect 8 0 2 1;
#X connect 10 0 0 0;
#X connect 11 0 12 0;
#X connect 12 0 10 1;
#X connect 13 0 7 0;
#X connect 14 0 13 1;
#X connect 15 0 10 0;
#X connect 15 1 6 0;
#X connect 15 3 11 0;
#X connect 15 4 16 0;
#X connect 16 0 14 0;
#X restore 349 108 pd snare bounce;
#X obj 385 135 r \$0-snarebounce;
#N canvas 169 89 584 575 snare 0;
#X obj 60 240 hip~ 2;
#X msg 281 208 /delay1 \$1;
#X msg 362 208 /delay2 \$1;
#X obj 281 161 swap 1;
#X obj 281 185 -;
#X obj 61 210 inlet~;
#X obj 92 536 outlet~;
#X msg 170 94 /pitch \$1;
#X msg 296 93 /width \$1;
#X obj 99 300 *~;
#X msg 421 91 /selfmod \$1;
#X obj 140 372 s~ \$0-snselfmod;
#X obj 100 277 r~ \$0-snselfmod;
#X obj 421 66 r \$0-snbody-smod;
#X obj 296 68 r \$0-snbody-width;
#N canvas 394 212 394 435 noisybody 0;
#X obj 18 -51 inlet~;
#X obj 159 -52 inlet;
#X obj 144 124 +~;
#X obj 144 192 +~;
#X obj 209 192 -~;
#X obj 28 297 outlet~ hot;
#X obj 261 191 outlet~ cold;
#X obj 223 0 * 20;
#X obj 159 23 sig~;
#X obj 222 22 sig~;
#X obj 159 47 +~;
#X obj 222 46 +~;
#X obj 72 -51 inlet~ mod;
#X obj 144 296 delwrite~ \$0-sna 1000;
#X obj 211 273 delwrite~ \$0-snb 1000;
#X obj 160 92 vd~ \$0-sna 100;
#X obj 224 123 vd~ \$0-snb 51;
#X obj 143 219 *~ 0.45;
#X obj 209 218 *~ 0.45;
#X obj 143 250 hip~ 20;
#X obj 210 249 hip~ 20;
#X obj 159 -27 route /delay1 /delay2;
#X obj 159 -1 * 80;
#X connect 0 0 2 0;
#X connect 1 0 21 0;
#X connect 2 0 3 0;
#X connect 2 0 4 0;
#X connect 2 0 5 0;
#X connect 3 0 17 0;
#X connect 4 0 18 0;
#X connect 7 0 9 0;
#X connect 8 0 10 0;
#X connect 9 0 11 0;
#X connect 10 0 15 0;
#X connect 11 0 16 0;
#X connect 12 0 11 1;
#X connect 12 0 10 1;
#X connect 15 0 2 1;
#X connect 16 0 6 0;
#X connect 16 0 4 1;
#X connect 16 0 3 1;
#X connect 17 0 19 0;
#X connect 18 0 20 0;
#X connect 19 0 13 0;
#X connect 20 0 14 0;
#X connect 21 0 22 0;
#X connect 21 1 7 0;
#X connect 22 0 8 0;
#X restore 61 331 pd noisybody;
#X obj 281 129 route /pitch /width /selfmod;
#X obj 93 509 *~;
#X obj 164 400 r \$0-snvol;
#X obj 115 254 * 70;
#X obj 92 428 *~ 10;
#X obj 93 459 clip~ -1 1;
#X obj 91 401 hip~ 1000;
#X obj 170 69 r \$0-mbody-pitch;
#X connect 0 0 15 0;
#X connect 1 0 15 2;
#X connect 2 0 15 2;
#X connect 3 0 4 0;
#X connect 3 1 4 1;
#X connect 4 0 1 0;
#X connect 5 0 0 0;
#X connect 7 0 16 0;
#X connect 8 0 16 0;
#X connect 9 0 15 1;
#X connect 10 0 16 0;
#X connect 12 0 9 0;
#X connect 13 0 10 0;
#X connect 14 0 8 0;
#X connect 15 0 22 0;
#X connect 15 1 11 0;
#X connect 15 1 22 0;
#X connect 16 0 3 0;
#X connect 16 1 2 0;
#X connect 16 2 19 0;
#X connect 17 0 6 0;
#X connect 18 0 17 1;
#X connect 19 0 9 1;
#X connect 20 0 21 0;
#X connect 21 0 17 0;
#X connect 22 0 20 0;
#X connect 23 0 7 0;
#X restore 187 208 pd snare cord;
#X text 161 10 snare model 2D pulse + resons;
#X connect 0 0 2 0;
#X connect 1 0 10 0;
#X connect 2 0 10 0;
#X connect 2 0 4 1;
#X connect 3 0 6 0;
#X connect 4 0 3 0;
#X connect 5 0 7 0;
#X connect 7 1 4 0;
#X connect 7 2 0 0;
#X connect 7 3 8 0;
#X connect 8 0 1 0;
#X connect 9 0 1 1;
#X connect 10 0 3 1;
#X restore 72 134 pd jsd;
#N canvas 622 187 424 302 jbd 0;
#X obj 24 21 inlet;
#X obj 23 253 outlet~;
#N canvas 66 417 542 441 stompattack 0;
#X obj 177 45 inlet;
#X obj 175 400 outlet~;
#X obj 176 142 vline~;
#X msg 176 114 1 0 0 \, 0 \$1 0;
#X obj 173 329 cos~;
#X obj 174 305 *~ 20;
#X obj 226 227 cos~;
#X obj 175 252 *~ 0.5;
#X obj 225 252 *~ 0.5;
#X obj 174 281 +~;
#X obj 226 205 +~ 0.25;
#X obj 226 183 *~ 0.25;
#X text 216 303 cycles;
#X obj 320 193 inlet volume;
#X obj 217 65 + 25;
#X obj 177 92 f 30;
#X obj 217 -16 inlet tone;
#X obj 217 45 * 60;
#X obj 177 66 t b;
#X obj 217 5 swap 1;
#X obj 217 25 -;
#X obj 320 238 line~;
#X msg 320 219 \$1 100;
#X obj 174 356 *~;
#X obj 174 378 hip~ 5;
#X text 265 39 beater pulse for kick drum;
#X connect 0 0 18 0;
#X connect 2 0 7 0;
#X connect 2 0 11 0;
#X connect 3 0 2 0;
#X connect 4 0 23 0;
#X connect 5 0 4 0;
#X connect 6 0 8 0;
#X connect 7 0 9 0;
#X connect 8 0 9 1;
#X connect 9 0 5 0;
#X connect 10 0 6 0;
#X connect 11 0 10 0;
#X connect 13 0 22 0;
#X connect 14 0 15 1;
#X connect 15 0 3 0;
#X connect 16 0 19 0;
#X connect 17 0 14 0;
#X connect 18 0 15 0;
#X connect 19 0 20 0;
#X connect 19 1 20 1;
#X connect 20 0 17 0;
#X connect 21 0 23 1;
#X connect 22 0 21 0;
#X connect 23 0 24 0;
#X connect 24 0 1 0;
#X restore 24 140 pd stompattack;
#X obj 24 166 hip~ 10;
#X obj 131 167 hip~ 2;
#X obj 115 53 r \$0-bdpitch-out;
#X obj 244 108 r \$0-bdvol-out;
#X obj 112 26 r \$0-bddecay-out;
#N canvas 180 50 689 608 stompymembrane 0;
#X obj 75 13 inlet;
#X obj 236 548 outlet~;
#X obj 75 142 vline~;
#X obj 236 459 cos~;
#X obj 75 92 f;
#X obj 173 149 * 0.25;
#X obj 75 64 t;
#X obj 74 259 *~;
#X obj 143 69 t f f;
#X obj 236 488 *~;
#X obj 88 175 *~;
#X obj 236 423 *~;
#X obj 305 99 + 0.25;
#X obj 305 144 line~;
#X msg 305 122 \$1 100;
#X obj 357 252 +~;
#X obj 374 213 r~ \$0-bdmfb;
#X obj 312 550 s~ \$0-bdmfb;
#X obj 313 523 *~;
#X obj 288 348 *~ 0.5;
#X obj 287 371 -~ 0.25;
#X obj 288 325 +~;
#X obj 234 272 osc~ 45;
#X obj 234 297 *~ 0.0125;
#X obj 435 32 * 0.01;
#X obj 519 31 * 0.0024;
#X obj 305 76 * 0.5;
#X obj 235 184 *~ 165;
#X obj 267 33 * 100;
#X obj 143 12 inlet length;
#X obj 267 9 inlet cf;
#X obj 333 10 inlet basemod;
#X obj 435 10 inlet index;
#X obj 519 10 inlet selfmod;
#X obj 617 10 inlet vol;
#X obj 143 46 * 1000;
#X msg 75 114 1 0 0 \, 0 \$1 0;
#X obj 356 74 noise~;
#X obj 357 192 *~;
#X obj 234 213 +~;
#X obj 234 240 +~ 50;
#X obj 305 297 +~;
#X obj 357 121 lop~ 100;
#X obj 356 99 lop~ 100;
#X obj 373 168 *~ 0.05;
#X obj 103 237 lop~ 100;
#X obj 103 260 clip~ 0 1;
#X obj 373 143 r \$0-bdnoise;
#X obj 277 485 line~;
#X msg 277 466 \$1 100;
#X obj 236 516 *~;
#X connect 0 0 6 0;
#X connect 2 0 7 0;
#X connect 2 0 10 0;
#X connect 2 0 10 1;
#X connect 3 0 9 0;
#X connect 4 0 36 0;
#X connect 5 0 7 1;
#X connect 6 0 4 0;
#X connect 7 0 11 0;
#X connect 8 0 4 1;
#X connect 8 1 5 0;
#X connect 9 0 18 0;
#X connect 9 0 50 0;
#X connect 10 0 45 0;
#X connect 11 0 3 0;
#X connect 12 0 14 0;
#X connect 13 0 27 0;
#X connect 13 0 41 0;
#X connect 14 0 13 0;
#X connect 15 0 41 1;
#X connect 16 0 15 1;
#X connect 18 0 17 0;
#X connect 19 0 20 0;
#X connect 20 0 11 1;
#X connect 21 0 19 0;
#X connect 22 0 23 0;
#X connect 23 0 21 0;
#X connect 24 0 23 1;
#X connect 25 0 18 1;
#X connect 26 0 12 0;
#X connect 27 0 39 0;
#X connect 28 0 27 1;
#X connect 28 0 43 1;
#X connect 28 0 42 1;
#X connect 29 0 35 0;
#X connect 30 0 28 0;
#X connect 31 0 26 0;
#X connect 32 0 24 0;
#X connect 33 0 25 0;
#X connect 34 0 49 0;
#X connect 35 0 8 0;
#X connect 36 0 2 0;
#X connect 37 0 43 0;
#X connect 38 0 15 0;
#X connect 39 0 40 0;
#X connect 40 0 22 0;
#X connect 41 0 21 1;
#X connect 42 0 38 0;
#X connect 43 0 42 0;
#X connect 44 0 38 1;
#X connect 45 0 46 0;
#X connect 46 0 9 1;
#X connect 47 0 44 0;
#X connect 48 0 50 1;
#X connect 49 0 48 0;
#X connect 50 0 1 0;
#X restore 130 139 pd stompymembrane;
#X obj 255 46 r \$0-bdselfmod;
#X obj 259 72 r \$0-bdindex;
#X obj 167 77 r \$0-bddia;
#N canvas 0 0 450 300 xfd 0;
#X obj 160 -40 inlet;
#X obj 48 -41 inlet~;
#X obj 104 -40 inlet~;
#X obj 45 84 *~;
#X obj 95 84 *~;
#X obj 65 141 outlet~;
#X obj 161 8 swap 1;
#X obj 163 32 -;
#X obj 160 -17 t f f;
#X connect 0 0 8 0;
#X connect 1 0 3 0;
#X connect 2 0 4 0;
#X connect 3 0 5 0;
#X connect 4 0 5 0;
#X connect 6 0 7 0;
#X connect 6 1 7 1;
#X connect 7 0 3 1;
#X connect 8 0 6 0;
#X connect 8 1 4 1;
#X restore 23 226 pd xfd;
#X obj 60 201 r \$0-bdblend;
#X connect 0 0 2 0;
#X connect 0 0 8 0;
#X connect 2 0 3 0;
#X connect 3 0 12 0;
#X connect 4 0 12 1;
#X connect 5 0 8 2;
#X connect 5 0 2 1;
#X connect 6 0 8 6;
#X connect 6 0 2 2;
#X connect 7 0 8 1;
#X connect 8 0 4 0;
#X connect 9 0 8 5;
#X connect 10 0 8 4;
#X connect 11 0 8 3;
#X connect 12 0 1 0;
#X connect 13 0 12 2;
#X restore 23 133 pd jbd;
#X obj 78 179 *~;
#X obj 206 133 line~;
#X obj 204 58 t b f;
#X obj 206 85 *;
#X obj 204 33 r \$0-pmkmute;
#X obj 181 12 r \$0-pmkvol;
#X msg 206 106 \$1 200;
#X obj 23 74 route 0 1 2 3;
#N canvas 628 17 569 852 fmhh 0;
#X obj 27 8 inlet;
#X obj 295 751 outlet~;
#X obj 135 9 inlet;
#X obj 267 195 *~;
#X obj 284 169 osc~ 3213;
#X obj 267 144 osc~ 3682;
#X obj 294 478 osc~;
#X obj 267 93 r \$0-hhf1;
#X obj 327 683 r \$0-hhvol;
#X obj 267 117 * 2000;
#X obj 339 117 * 2000;
#X obj 339 93 r \$0-hhf2;
#X obj 294 257 +~;
#X obj 347 371 r \$0-hhfbase;
#X obj 294 387 *~;
#X obj 328 247 *~ 5000;
#X obj 328 224 r \$0-hhmod;
#X obj 294 451 +~;
#X obj 310 509 *~;
#X obj 384 453 r \$0-hhself;
#X obj 324 535 s~ \$0-hhfbself;
#X obj 360 202 r~ \$0-hhfbself;
#X obj 327 323 +~;
#X obj 361 284 *~ 3;
#X obj 92 126 vline~;
#X obj 294 682 *~;
#X obj 88 152 *~;
#X obj 326 477 *~ 0.2;
#X obj 88 174 *~;
#X obj 89 203 *~;
#X obj 312 285 *~;
#X obj 127 157 * 0.2;
#X obj 128 180 + 0.7;
#X obj 295 704 *~;
#X obj 294 654 hip~ 100;
#X obj 294 631 *~ 0.1;
#X msg 135 59 1 0 0 \, 0 80 0;
#X obj 149 126 vline~;
#X obj 135 36 t b b f;
#X msg 157 101 0 50;
#X obj 358 632 +~;
#X obj 357 655 *~ 0.7;
#X obj 373 607 *~ 0.7;
#X obj 326 452 *~ 0.05;
#X msg 149 80 1 0 0 \, 0 500 0;
#X obj 294 727 *~ 2;
#X text 219 5 FM hi hat with feedback;
#X obj 294 607 *~ 1;
#X obj 347 392 sig~;
#X obj 311 429 *~ 8000;
#X obj 457 120 noise~;
#X obj 458 142 hip~ 1200;
#X obj 309 203 +~;
#X obj 129 203 sig~;
#X obj 408 142 +~ 0.5;
#X obj 408 167 *~;
#X obj 408 120 *~ 0.5;
#X msg 19 95 1 0 0 \, 0 \$1 0;
#X obj 27 37 t b f f;
#X obj 19 72 * 100;
#X connect 0 0 58 0;
#X connect 2 0 38 0;
#X connect 3 0 12 0;
#X connect 4 0 3 1;
#X connect 4 0 52 0;
#X connect 5 0 3 0;
#X connect 5 0 12 0;
#X connect 6 0 18 0;
#X connect 6 0 47 0;
#X connect 7 0 9 0;
#X connect 8 0 33 1;
#X connect 9 0 5 0;
#X connect 10 0 4 0;
#X connect 11 0 10 0;
#X connect 12 0 14 0;
#X connect 13 0 48 0;
#X connect 14 0 17 0;
#X connect 15 0 30 1;
#X connect 16 0 15 0;
#X connect 17 0 6 0;
#X connect 18 0 20 0;
#X connect 19 0 27 1;
#X connect 21 0 23 0;
#X connect 22 0 14 1;
#X connect 23 0 22 1;
#X connect 23 0 12 1;
#X connect 24 0 26 0;
#X connect 24 0 26 1;
#X connect 24 0 40 0;
#X connect 25 0 33 0;
#X connect 26 0 28 0;
#X connect 26 0 28 1;
#X connect 27 0 18 1;
#X connect 28 0 29 0;
#X connect 28 0 29 1;
#X connect 29 0 27 0;
#X connect 30 0 22 0;
#X connect 31 0 32 0;
#X connect 32 0 53 0;
#X connect 33 0 45 0;
#X connect 34 0 25 0;
#X connect 35 0 34 0;
#X connect 36 0 24 0;
#X connect 37 0 42 0;
#X connect 37 0 43 0;
#X connect 38 0 44 0;
#X connect 38 1 36 0;
#X connect 39 0 37 0;
#X connect 40 0 41 0;
#X connect 41 0 25 1;
#X connect 42 0 40 1;
#X connect 43 0 27 0;
#X connect 44 0 37 0;
#X connect 45 0 1 0;
#X connect 47 0 35 0;
#X connect 48 0 49 0;
#X connect 49 0 17 1;
#X connect 50 0 51 0;
#X connect 51 0 55 1;
#X connect 52 0 12 1;
#X connect 53 0 30 0;
#X connect 53 0 56 0;
#X connect 54 0 55 0;
#X connect 55 0 52 1;
#X connect 56 0 54 0;
#X connect 57 0 24 0;
#X connect 58 0 39 0;
#X connect 58 1 59 0;
#X connect 58 2 31 0;
#X connect 59 0 57 0;
#X restore 121 134 pd fmhh;
#X connect 0 0 15 0;
#X connect 1 0 7 0;
#X connect 2 0 6 0;
#X connect 3 0 16 0;
#X connect 4 0 16 1;
#X connect 6 0 8 0;
#X connect 7 0 8 0;
#X connect 8 0 5 0;
#X connect 9 0 8 1;
#X connect 10 0 11 0;
#X connect 10 1 11 1;
#X connect 11 0 14 0;
#X connect 12 0 10 0;
#X connect 13 0 11 0;
#X connect 14 0 9 0;
#X connect 15 0 1 0;
#X connect 15 1 2 0;
#X connect 15 2 3 0;
#X connect 15 3 4 0;
#X connect 16 0 8 0;
#X restore -143 126 pd feedback fm kit;
#X text -121 72 guts;
#X text -2 73 patch control;
#X text -100 29 modelling kit with fm feedback and laminar skins;
#X text 171 67 gui;
#X connect 0 0 38 0;
#X connect 34 0 35 0;
#X connect 37 0 31 0;
#X connect 38 0 1 0;
#X coords 0 -1 1 1 210 160 1 100 100;
#X restore 159 -160 pd minib;
#X obj 274 -223 tgl 15 0 empty empty empty 0 -6 0 8 -262144 -1 -1 0
1;
#X obj 159 -224 tgl 15 1 empty empty empty 0 -6 0 8 -262144 -1 -1 1
1;
#N canvas 60 108 770 753 randybeat 0;
#X obj 158 -18 r \$0-time;
#X obj 444 -196 r \$0-time;
#X obj 254 400 spigot;
#X obj 291 372 inlet;
#X obj 254 426 outlet;
#X obj 254 -195 r \$0-time;
#X obj 254 121 int;
#X obj 254 146 change;
#X obj 444 -149 int;
#X obj 444 -129 change;
#X obj 254 167 mod 16;
#X obj 254 373 list;
#X obj 158 225 select 0;
#X msg 158 267 0 \$1;
#X obj 158 246 random 127;
#X obj 254 218 sel 0 2 4 6 8 10 12 14;
#X msg 254 278 3 \$1;
#X msg 355 275 2 \$1;
#X obj 254 255 random 127;
#X obj 355 253 random 127;
#X obj 444 295 random 127;
#X msg 444 318 1 \$1;
#X obj 444 -171 / 1;
#X obj 158 182 select 0;
#X obj 444 240 random 2;
#X obj 444 263 sel 0;
#X obj 488 129 random 2;
#X obj 488 164 + 2;
#N canvas 0 0 450 300 each8 0;
#X obj 86 146 f;
#X obj 118 146 + 1;
#X obj 86 199 sel 0;
#X obj 86 224 outlet;
#X obj 86 174 mod 8;
#X obj 236 23 inlet reset;
#X obj 236 46 t b;
#X msg 236 69 0;
#X obj 164 23 inlet top;
#X obj 86 23 inlet bang;
#X connect 0 0 1 0;
#X connect 0 0 4 0;
#X connect 1 0 0 1;
#X connect 2 0 3 0;
#X connect 4 0 2 0;
#X connect 5 0 6 0;
#X connect 6 0 7 0;
#X connect 7 0 0 1;
#X connect 8 0 4 1;
#X connect 9 0 0 0;
#X restore 488 107 pd each8;
#X obj 444 77 t f b b b;
#X msg 552 129 2;
#X obj 527 218 random 6;
#X obj 254 97 / 2;
#N canvas 0 0 450 300 each8 0;
#X obj 86 146 f;
#X obj 118 146 + 1;
#X obj 86 199 sel 0;
#X obj 86 224 outlet;
#X obj 86 174 mod 8;
#X obj 236 23 inlet reset;
#X obj 236 46 t b;
#X msg 236 69 0;
#X obj 164 23 inlet top;
#X obj 86 23 inlet bang;
#X connect 0 0 1 0;
#X connect 0 0 4 0;
#X connect 1 0 0 1;
#X connect 2 0 3 0;
#X connect 4 0 2 0;
#X connect 5 0 6 0;
#X connect 6 0 7 0;
#X connect 7 0 0 1;
#X connect 8 0 4 1;
#X connect 9 0 0 0;
#X restore 312 28 pd each8;
#X obj 254 6 t f b b b;
#X obj 312 71 + 1;
#N canvas 0 0 450 300 each8 0;
#X obj 86 146 f;
#X obj 118 146 + 1;
#X obj 86 199 sel 0;
#X obj 86 224 outlet;
#X obj 86 174 mod 8;
#X obj 236 23 inlet reset;
#X obj 236 46 t b;
#X msg 236 69 0;
#X obj 164 23 inlet top;
#X obj 86 23 inlet bang;
#X connect 0 0 1 0;
#X connect 0 0 4 0;
#X connect 1 0 0 1;
#X connect 2 0 3 0;
#X connect 4 0 2 0;
#X connect 5 0 6 0;
#X connect 6 0 7 0;
#X connect 7 0 0 1;
#X connect 8 0 4 1;
#X connect 9 0 0 0;
#X restore 180 27 pd each8;
#X obj 180 70 + 1;
#X obj 158 5 t f b b;
#X obj 158 158 mod 2;
#X obj 180 49 random 2;
#X obj 158 204 random 4;
#X text 262 -229 higgledy pigggledy drumming;
#N canvas 0 0 450 300 each3 0;
#X obj 86 146 f;
#X obj 118 146 + 1;
#X obj 86 199 sel 0;
#X obj 86 224 outlet;
#X obj 236 23 inlet reset;
#X obj 236 46 t b;
#X msg 236 69 0;
#X obj 164 23 inlet top;
#X obj 86 23 inlet bang;
#X obj 86 174 mod 3;
#X connect 0 0 1 0;
#X connect 0 0 9 0;
#X connect 1 0 0 1;
#X connect 2 0 3 0;
#X connect 4 0 5 0;
#X connect 5 0 6 0;
#X connect 6 0 0 1;
#X connect 7 0 9 1;
#X connect 8 0 0 0;
#X connect 9 0 2 0;
#X restore 552 107 pd each3;
#X obj 444 153 mod 2;
#X obj 444 185 +;
#X obj 444 217 select 2;
#X obj 444 -109 t f f;
#X obj 158 117 int;
#X obj 158 137 change;
#X obj 158 97 / 2;
#X obj 474 -87 div 12;
#X obj 474 -64 t f f;
#X obj 504 -40 div 3;
#X obj 504 2 t b;
#X obj 504 -19 change;
#X obj 454 2 t b;
#X obj 454 -19 change;
#X obj 454 -40 div 7;
#X msg 504 24 2;
#X msg 454 24 6;
#X obj 288 -155 div 12;
#X obj 288 -132 t f f;
#X obj 318 -66 t b;
#X obj 318 -87 change;
#X obj 268 -66 t b;
#X obj 268 -87 change;
#X obj 254 -174 t f f;
#X msg 268 -42 0;
#X msg 318 -43 1;
#X obj 254 317 spigot;
#X obj 318 -108 div 5;
#X obj 268 -108 div 27;
#X obj 312 50 random 3;
#X obj 627 339 r \$0-time;
#X obj 627 403 random 7;
#X obj 627 382 sel 0;
#X obj 627 458 outlet patch change;
#X obj 627 361 mod 256;
#X obj 627 428 spigot;
#X connect 0 0 38 0;
#X connect 1 0 22 0;
#X connect 2 0 4 0;
#X connect 3 0 2 1;
#X connect 3 0 79 1;
#X connect 5 0 67 0;
#X connect 6 0 7 0;
#X connect 7 0 10 0;
#X connect 8 0 9 0;
#X connect 9 0 47 0;
#X connect 10 0 15 0;
#X connect 11 0 2 0;
#X connect 12 0 14 0;
#X connect 13 0 11 0;
#X connect 14 0 13 0;
#X connect 15 0 18 0;
#X connect 15 1 19 0;
#X connect 15 2 18 0;
#X connect 15 3 19 0;
#X connect 15 4 18 0;
#X connect 15 5 18 0;
#X connect 15 6 19 0;
#X connect 15 7 18 0;
#X connect 16 0 70 0;
#X connect 17 0 70 0;
#X connect 18 0 16 0;
#X connect 19 0 17 0;
#X connect 20 0 21 0;
#X connect 21 0 11 0;
#X connect 22 0 8 0;
#X connect 23 0 41 0;
#X connect 24 0 25 0;
#X connect 25 0 20 0;
#X connect 26 0 27 0;
#X connect 27 0 45 1;
#X connect 28 0 26 0;
#X connect 28 0 43 2;
#X connect 29 0 44 0;
#X connect 29 1 31 0;
#X connect 29 2 43 0;
#X connect 29 3 28 0;
#X connect 30 0 27 1;
#X connect 31 0 24 1;
#X connect 32 0 6 0;
#X connect 33 0 73 0;
#X connect 34 0 32 0;
#X connect 34 3 33 0;
#X connect 35 0 32 1;
#X connect 36 0 40 0;
#X connect 37 0 50 1;
#X connect 38 0 50 0;
#X connect 38 1 36 0;
#X connect 39 0 23 0;
#X connect 40 0 37 0;
#X connect 41 0 12 0;
#X connect 43 0 30 0;
#X connect 44 0 45 0;
#X connect 45 0 46 0;
#X connect 46 0 24 0;
#X connect 47 0 29 0;
#X connect 47 1 51 0;
#X connect 48 0 49 0;
#X connect 49 0 39 0;
#X connect 50 0 48 0;
#X connect 51 0 52 0;
#X connect 52 0 58 0;
#X connect 52 1 53 0;
#X connect 53 0 55 0;
#X connect 54 0 59 0;
#X connect 55 0 54 0;
#X connect 56 0 60 0;
#X connect 57 0 56 0;
#X connect 58 0 57 0;
#X connect 59 0 44 1;
#X connect 60 0 44 1;
#X connect 61 0 62 0;
#X connect 62 0 72 0;
#X connect 62 1 71 0;
#X connect 63 0 69 0;
#X connect 64 0 63 0;
#X connect 65 0 68 0;
#X connect 66 0 65 0;
#X connect 67 0 34 0;
#X connect 67 1 61 0;
#X connect 68 0 70 1;
#X connect 69 0 70 1;
#X connect 70 0 11 0;
#X connect 71 0 64 0;
#X connect 72 0 66 0;
#X connect 73 0 35 0;
#X connect 74 0 78 0;
#X connect 75 0 79 0;
#X connect 76 0 75 0;
#X connect 78 0 76 0;
#X connect 79 0 77 0;
#X restore 159 -204 pd randybeat;
#N canvas 397 386 792 494 technobeat 0;
#X obj 22 5 r \$0-time;
#X obj 22 27 / 2;
#X obj 22 49 int;
#X obj 22 71 change;
#X msg 584 152 1 25;
#X msg 500 152 1 100;
#X obj 459 -10 r \$0-time;
#X obj 381 260 spigot;
#X obj 418 231 inlet;
#X obj 382 286 outlet;
#X obj 318 38 mod 32;
#X obj 318 -55 r \$0-time;
#X obj 318 -9 int;
#X obj 318 16 change;
#X obj 318 -33 / 2;
#X msg 543 152 1 80;
#X msg 423 157 2 30;
#X msg 378 156 2 90;
#X msg 619 153 1 60;
#X msg 314 157 3 50;
#X obj 22 93 mod 32;
#X msg 44 171 0 100;
#X msg 102 171 0 60;
#X obj 459 85 mod 32;
#X obj 459 15 / 2;
#X obj 459 37 int;
#X obj 459 57 change;
#X obj 459 107 sel 4 12 15 20 28;
#X obj 23 116 select 0 2 7 9 10 16 22 29;
#X obj 318 62 mod 16;
#X obj 261 103 sel 0 2 4 6 7 8 10 12 14;
#X msg 271 158 3 20;
#X obj 379 230 list;
#X connect 0 0 1 0;
#X connect 1 0 2 0;
#X connect 2 0 3 0;
#X connect 3 0 20 0;
#X connect 4 0 32 0;
#X connect 5 0 32 0;
#X connect 6 0 24 0;
#X connect 7 0 9 0;
#X connect 8 0 7 1;
#X connect 10 0 29 0;
#X connect 11 0 14 0;
#X connect 12 0 13 0;
#X connect 13 0 10 0;
#X connect 14 0 12 0;
#X connect 15 0 32 0;
#X connect 16 0 32 0;
#X connect 17 0 32 0;
#X connect 18 0 32 0;
#X connect 19 0 32 0;
#X connect 20 0 28 0;
#X connect 21 0 32 0;
#X connect 22 0 32 0;
#X connect 23 0 27 0;
#X connect 24 0 25 0;
#X connect 25 0 26 0;
#X connect 26 0 23 0;
#X connect 27 0 5 0;
#X connect 27 1 15 0;
#X connect 27 2 4 0;
#X connect 27 3 5 0;
#X connect 27 4 18 0;
#X connect 28 0 21 0;
#X connect 28 2 21 0;
#X connect 28 3 21 0;
#X connect 28 4 21 0;
#X connect 28 5 21 0;
#X connect 28 6 21 0;
#X connect 28 7 22 0;
#X connect 29 0 30 0;
#X connect 30 0 17 0;
#X connect 30 1 17 0;
#X connect 30 2 17 0;
#X connect 30 3 17 0;
#X connect 30 4 19 0;
#X connect 30 5 16 0;
#X connect 30 6 16 0;
#X connect 30 7 16 0;
#X connect 30 8 31 0;
#X connect 31 0 32 0;
#X connect 32 0 7 0;
#X restore 274 -203 pd technobeat;
#N canvas 0 0 825 724 wobblytimebase 0;
#X obj 192 330 f;
#X obj 228 331 + 1;
#X obj 192 411 s \$0-time;
#X obj 195 -125 t f b;
#X obj 195 -154 inlet;
#X obj 293 -158 inlet;
#N canvas 0 0 450 300 each64 0;
#X obj 86 146 f;
#X obj 118 146 + 1;
#X obj 86 199 sel 0;
#X obj 86 224 outlet;
#X obj 236 23 inlet reset;
#X obj 236 46 t b;
#X msg 236 69 0;
#X obj 164 23 inlet top;
#X obj 86 23 inlet bang;
#X obj 86 174 mod 64;
#X connect 0 0 1 0;
#X connect 0 0 9 0;
#X connect 1 0 0 1;
#X connect 2 0 3 0;
#X connect 4 0 5 0;
#X connect 5 0 6 0;
#X connect 6 0 0 1;
#X connect 7 0 9 1;
#X connect 8 0 0 0;
#X connect 9 0 2 0;
#X restore 195 -25 pd each64;
#X obj 195 -49 metro;
#X obj 277 -89 f 2;
#X obj 293 -133 max 1e-04;
#X obj 293 -112 t f f;
#N canvas 0 0 492 563 lfo512 0;
#X obj 87 170 f;
#X obj 119 170 + 1;
#X obj 87 297 outlet;
#X obj 166 88 inlet reset;
#X obj 166 111 t b;
#X msg 166 134 0;
#X obj 87 88 inlet bang;
#X obj 87 250 * 3.14159;
#X obj 87 275 cos;
#X obj 87 198 mod 512;
#X obj 87 223 / 256;
#X connect 0 0 1 0;
#X connect 0 0 9 0;
#X connect 1 0 0 1;
#X connect 3 0 4 0;
#X connect 4 0 5 0;
#X connect 5 0 0 1;
#X connect 6 0 0 0;
#X connect 7 0 8 0;
#X connect 8 0 2 0;
#X connect 9 0 10 0;
#X connect 10 0 7 0;
#X restore 307 0 pd lfo512;
#X obj 307 24 abs;
#X obj 323 -65 t f f f;
#X obj 226 113 *;
#X obj 307 69 + 1;
#X obj 208 141 del;
#X obj 307 48 * 0.01;
#N canvas 0 0 450 300 each64 0;
#X obj 86 146 f;
#X obj 118 146 + 1;
#X obj 86 199 sel 0;
#X obj 86 224 outlet;
#X obj 236 23 inlet reset;
#X obj 236 46 t b;
#X msg 236 69 0;
#X obj 164 23 inlet top;
#X obj 86 23 inlet bang;
#X obj 86 174 mod 64;
#X connect 0 0 1 0;
#X connect 0 0 9 0;
#X connect 1 0 0 1;
#X connect 2 0 3 0;
#X connect 4 0 5 0;
#X connect 5 0 6 0;
#X connect 6 0 0 1;
#X connect 7 0 9 1;
#X connect 8 0 0 0;
#X connect 9 0 2 0;
#X restore 307 -21 pd each64;
#X obj 323 -90 * 32;
#X connect 0 0 1 0;
#X connect 0 0 2 0;
#X connect 1 0 0 1;
#X connect 3 0 7 0;
#X connect 3 1 8 0;
#X connect 4 0 3 0;
#X connect 5 0 9 0;
#X connect 6 0 0 0;
#X connect 6 0 16 0;
#X connect 7 0 6 0;
#X connect 7 0 18 0;
#X connect 8 0 7 1;
#X connect 9 0 10 0;
#X connect 10 0 8 1;
#X connect 10 1 19 0;
#X connect 11 0 12 0;
#X connect 12 0 17 0;
#X connect 13 0 14 1;
#X connect 14 0 16 1;
#X connect 15 0 14 0;
#X connect 16 0 0 0;
#X connect 17 0 15 0;
#X connect 18 0 11 0;
#X connect 19 0 13 0;
#X restore 22 -205 pd wobblytimebase;
#X obj 98 -228 nbx 5 14 1 12 0 1 empty empty empty 0 -6 0 10 -262144
-1 -1 2 256;
#X connect 0 0 7 0;
#X connect 2 0 1 0;
#X connect 2 0 1 1;
#X connect 3 0 6 0;
#X connect 4 0 5 0;
#X connect 5 0 2 0;
#X connect 5 1 2 1;
#X connect 6 0 2 0;
#X connect 8 0 7 1;
