#N canvas 471 118 504 384 10;
#X obj 115 100 gemwin;
#X msg 115 49 create \, 1;
#X obj 277 118 gemmouse;
#X obj 216 69 gemhead;
#X obj 216 154 f;
#X msg 62 67 destroy;
#X obj 243 197 f;
#X obj 216 227 -;
#X obj 216 253 abs;
#X floatatom 216 295 5 0 0 0 - - -;
#X obj 216 113 t b b;
#X connect 1 0 0 0;
#X connect 2 0 4 1;
#X connect 3 0 10 0;
#X connect 4 0 6 1;
#X connect 4 0 7 0;
#X connect 5 0 0 0;
#X connect 6 0 7 1;
#X connect 7 0 8 0;
#X connect 8 0 9 0;
#X connect 10 0 4 0;
#X connect 10 1 6 0;
