#N canvas 360 218 447 436 10;
#X obj 56 134 @import ( 5 );
#X obj 56 153 @export_list;
#X obj 56 174 unpack 0 0 0 0 0;
#X obj 194 222 +;
#X obj 153 222 +;
#X obj 52 364 pack 0 0 0;
#X obj 153 282 +;
#X obj 169 302 int;
#X obj 53 413 print;
#X msg 53 389 position \$3 \$2 \$1;
#X obj 55 89 & 255;
#X obj 55 67 - 128;
#X obj 56 111 - 128;
#X obj 200 302 int;
#X obj 184 282 +;
#X obj 190 252 * -1;
#X msg 261 286 0;
#X text 259 265 reset coords;
#X obj 2 333 @export_list;
#X obj 2 275 @ << ( 8 9 10 );
#X obj 2 301 @fold + 0;
#X obj 2 203 @outer >> ( 2 1 0 );
#X obj 2 223 @ & 1;
#X obj 1 245 @ ^ 1;
#X obj 124 74 print;
#X msg 60 9 baud 1200 \, bits 8 \, parity 0 \, stopbit 1 \, xonxoff
0;
#X obj 56 45 comport 0;
#X connect 0 0 1 0;
#X connect 1 0 2 0;
#X connect 2 0 21 0;
#X connect 2 1 4 0;
#X connect 2 2 3 0;
#X connect 2 3 4 1;
#X connect 2 4 3 1;
#X connect 3 0 15 0;
#X connect 4 0 6 0;
#X connect 5 0 9 0;
#X connect 6 0 7 0;
#X connect 7 0 6 1;
#X connect 7 0 5 1;
#X connect 9 0 8 0;
#X connect 10 0 12 0;
#X connect 11 0 10 0;
#X connect 12 0 0 0;
#X connect 13 0 14 1;
#X connect 13 0 5 2;
#X connect 14 0 13 0;
#X connect 15 0 14 0;
#X connect 16 0 6 1;
#X connect 16 0 14 1;
#X connect 18 0 5 0;
#X connect 19 0 20 0;
#X connect 20 0 18 0;
#X connect 21 0 22 0;
#X connect 22 0 23 0;
#X connect 23 0 19 0;
#X connect 25 0 26 0;
#X connect 26 0 11 0;
