#N canvas 619 48 444 531 10;
#X msg 36 59 0 \, destroy;
#X obj 39 154 gemhead;
#X obj 29 82 gemwin 12;
#X obj 39 177 pix_video;
#X obj 39 383 pix_texture;
#X obj 39 228 pix_mean_color;
#X obj 39 207 pix_movement;
#X obj 120 298 +;
#X obj 135 277 +;
#X floatatom 120 342 5 0 0 0 - - -;
#X obj 120 320 / 3;
#X msg 29 38 create \, 1;
#X obj 39 405 rectangle 4 3;
#X floatatom 108 186 5 0 0 0 - - -;
#X obj 120 253 unpack f f f f;
#X floatatom 200 281 5 0 0 0 - - -;
#X connect 0 0 2 0;
#X connect 1 0 3 0;
#X connect 3 0 6 0;
#X connect 4 0 12 0;
#X connect 5 0 4 0;
#X connect 5 1 14 0;
#X connect 6 0 5 0;
#X connect 7 0 10 0;
#X connect 8 0 7 1;
#X connect 10 0 9 0;
#X connect 11 0 2 0;
#X connect 13 0 6 1;
#X connect 14 0 7 0;
#X connect 14 1 8 0;
#X connect 14 2 8 1;
#X connect 14 3 15 0;
