#N canvas 70 232 1001 528 12;
#X obj 531 17 inlet root;
#X obj 377 18 inlet note;
#X obj 518 60 f \$1;
#X obj 286 343 outlet;
#X obj 375 54 t f f b;
#X text 103 199 find octave hz;
#X obj 218 242 mtof;
#X floatatom 219 266 5 0 0 0 - - -;
#X obj 281 298 * 1;
#X obj 370 103 expr ($f1 - $f2) % 12;
#X obj 229 159 -;
#X obj 423 138 route 0 1 2 3 4 5 6 7 8 9 10 11;
#X msg 390 171 1;
#X msg 469 170 1.25;
#X msg 537 167 1.5;
#X msg 628 166 1.75;
#X msg 466 232 1.33333;
#X msg 436 205 1.2;
#X msg 426 170 1.125;
#X msg 574 233 1.66667;
#X msg 644 208 1.875;
#X msg 393 225 1.05469;
#X msg 503 197 1.40625;
#X msg 562 199 1.6;
#X text 551 113 lookup for alleged ratios;
#X connect 0 0 2 1;
#X connect 1 0 4 0;
#X connect 2 0 9 1;
#X connect 4 0 10 0;
#X connect 4 1 9 0;
#X connect 4 2 2 0;
#X connect 6 0 7 0;
#X connect 7 0 8 0;
#X connect 8 0 3 0;
#X connect 9 0 10 1;
#X connect 9 0 11 0;
#X connect 10 0 6 0;
#X connect 11 0 12 0;
#X connect 11 1 21 0;
#X connect 11 2 18 0;
#X connect 11 3 17 0;
#X connect 11 4 13 0;
#X connect 11 5 16 0;
#X connect 11 6 22 0;
#X connect 11 7 14 0;
#X connect 11 8 23 0;
#X connect 11 9 19 0;
#X connect 11 10 15 0;
#X connect 11 11 20 0;
#X connect 12 0 8 1;
#X connect 13 0 8 1;
#X connect 14 0 8 1;
#X connect 15 0 8 1;
#X connect 16 0 8 1;
#X connect 17 0 8 1;
#X connect 18 0 8 1;
#X connect 19 0 8 1;
#X connect 20 0 8 1;
#X connect 21 0 8 1;
#X connect 22 0 8 1;
#X connect 23 0 8 1;
