#N canvas 99 276 450 300 10;
#X floatatom 241 79 4 0 0 0 - - -;
#X msg 242 98 column \$1;
#X msg 66 82 matrix 2 2 1 1 1 1;
#X obj 149 241 unpack 0 0 0 0;
#X obj 150 265 tgl 15 0 empty empty empty 17 7 0 10 -262144 -1 -1 0
1;
#X obj 173 267 tgl 15 0 empty empty empty 17 7 0 10 -262144 -1 -1 0
1;
#X obj 205 268 tgl 15 0 empty empty empty 17 7 0 10 -262144 -1 -1 0
1;
#X obj 241 266 tgl 15 0 empty empty empty 17 7 0 10 -262144 -1 -1 0
1;
#X obj 64 210 route matrix;
#X floatatom 241 35 5 0 0 0 - - -;
#X obj 64 133 mtx_tog 4 16;
#N canvas 0 0 450 300 count[16] 0;
#X obj 77 129 metro 100;
#X obj 78 161 f;
#X obj 111 158 + 1;
#X obj 139 174 >= 16;
#X msg 140 214 0;
#X obj 140 194 sel 1;
#X obj 176 98 inlet;
#X obj 92 35 inlet;
#X obj 94 61 moses 0;
#X msg 101 84 1;
#X floatatom 149 14 5 0 0 0 - - -;
#X msg 93 104 0;
#X obj 71 200 outlet;
#X connect 0 0 1 0;
#X connect 1 0 2 0;
#X connect 2 0 1 1;
#X connect 2 0 3 0;
#X connect 2 0 12 0;
#X connect 3 0 5 0;
#X connect 4 0 1 1;
#X connect 5 0 4 0;
#X connect 6 0 3 1;
#X connect 7 0 8 0;
#X connect 8 0 11 0;
#X connect 8 1 9 0;
#X connect 8 1 0 1;
#X connect 9 0 0 0;
#X connect 10 0 8 0;
#X connect 11 0 0 0;
#X restore 240 56 pd count[16];
#X text 282 34 <- step (msec);
#X connect 0 0 1 0;
#X connect 1 0 10 0;
#X connect 2 0 10 0;
#X connect 3 0 4 0;
#X connect 3 1 5 0;
#X connect 3 2 6 0;
#X connect 3 3 7 0;
#X connect 8 1 3 0;
#X connect 9 0 11 0;
#X connect 10 0 8 0;
#X connect 11 0 0 0;
