#N canvas 511 103 718 809 12;
#X obj 65 81 noise~;
#X obj 64 156 *~ 1;
#X obj 140 -9 vsl 15 128 0.01 100 1 1 empty empty empty 0 -9 0 10 -258699
-1 -1 11900 0;
#X obj 65 116 lop~ 1;
#X obj 165 81 noise~;
#X obj 164 156 *~ 1;
#X obj 240 -9 vsl 15 128 0.01 10 1 1 empty empty empty 0 -9 0 10 -260818
-1 -1 0 0;
#X obj 262 81 noise~;
#X obj 261 156 *~ 1;
#X obj 337 -9 vsl 15 128 0.01 10 1 1 empty empty empty 0 -9 0 10 -241291
-1 -1 0 0;
#X obj 165 116 lop~ 10;
#X obj 262 116 lop~ 100;
#X obj 146 346 dac~;
#X obj 144 192 +~;
#X obj 144 224 +~;
#X obj 15 372 table snd;
#X obj 181 346 tabwrite~ snd;
#X obj 211 320 metro 100;
#X obj 211 297 tgl 15 1 empty empty graph 17 7 0 10 -250685 -262144
-250685 1 1;
#X obj 378 81 noise~;
#X obj 377 156 *~ 1;
#X obj 453 -9 vsl 15 128 0.01 10 1 1 empty empty empty 0 -9 0 10 -24198
-1 -1 0 0;
#X obj 378 116 lop~ 1000;
#X obj 144 259 +~;
#X obj 496 81 noise~;
#X obj 495 156 *~ 1;
#X obj 580 -9 vsl 15 128 0.01 1 1 1 empty empty empty 0 -9 0 10 -44926
-1 -1 0 0;
#X obj 496 116 lop~ 10000;
#X obj 145 298 +~;
#X connect 0 0 3 0;
#X connect 1 0 13 0;
#X connect 2 0 1 1;
#X connect 3 0 1 0;
#X connect 4 0 10 0;
#X connect 5 0 13 1;
#X connect 6 0 5 1;
#X connect 7 0 11 0;
#X connect 8 0 14 1;
#X connect 9 0 8 1;
#X connect 10 0 5 0;
#X connect 11 0 8 0;
#X connect 13 0 14 0;
#X connect 14 0 23 0;
#X connect 17 0 16 0;
#X connect 18 0 17 0;
#X connect 19 0 22 0;
#X connect 20 0 23 1;
#X connect 21 0 20 1;
#X connect 22 0 20 0;
#X connect 23 0 28 0;
#X connect 24 0 27 0;
#X connect 25 0 28 1;
#X connect 26 0 25 1;
#X connect 27 0 25 0;
#X connect 28 0 12 0;
#X connect 28 0 12 1;
#X connect 28 0 16 0;

