#N canvas 192 235 652 454 10;
#N canvas 603 92 556 580 guts 0;
#X obj 110 21 inlet~;
#X obj 110 497 outlet~;
#X obj 110 162 *~;
#X obj 110 234 *~;
#X obj 129 188 wrap~;
#X obj 110 211 -~;
#X obj 307 68 sig~;
#X obj 306 48 max 1;
#X obj 221 22 inlet;
#X obj 306 22 inlet;
#X obj 292 180 sig~ 1;
#X obj 292 217 /~;
#X obj 110 372 *~;
#X obj 110 444 *~;
#X obj 129 398 wrap~;
#X obj 110 421 -~;
#X obj 234 388 sig~ 1;
#X obj 234 425 /~;
#X obj 253 341 *~;
#X obj 221 44 sig~;
#X obj 143 280 expr~ cos($v1) * $v2;
#X connect 0 0 2 0;
#X connect 2 0 4 0;
#X connect 2 0 5 0;
#X connect 3 0 12 0;
#X connect 3 0 20 0;
#X connect 4 0 5 1;
#X connect 5 0 3 0;
#X connect 6 0 11 1;
#X connect 6 0 2 1;
#X connect 6 0 18 1;
#X connect 7 0 6 0;
#X connect 8 0 19 0;
#X connect 9 0 7 0;
#X connect 10 0 11 0;
#X connect 11 0 3 1;
#X connect 12 0 14 0;
#X connect 12 0 15 0;
#X connect 13 0 1 0;
#X connect 14 0 15 1;
#X connect 15 0 13 0;
#X connect 16 0 17 0;
#X connect 17 0 13 1;
#X connect 18 0 12 1;
#X connect 18 0 17 1;
#X connect 19 0 20 1;
#X connect 20 0 18 0;
#X restore 48 125 pd guts;
#X obj 48 49 -~ 0.5;
#X obj 48 71 *~ 2;
#X floatatom 128 127 5 0 100 1 quantization #0-quant -;
#X floatatom 124 107 5 0 1 1 shape #0-shape -;
#X obj 52 346 tabwrite~ \$0-array;
#X obj 57 256 loadbang;
#X obj 58 305 metro 101;
#X obj 332 256 table \$0-array 479;
#X obj 59 280 1;
#X text 331 236 open me;
#X obj 392 12 loadbang;
#X obj 392 62 unpack f f;
#X obj 79 200 *~ 0.3;
#X obj 79 222 dac~;
#X obj 48 27 phasor~ 100;
#X msg 392 34 0.25 20;
#X text 125 89 vary from 0 to 1;
#X obj 392 111 s \$0-shape;
#X obj 443 89 s \$0-quant;
#X text 377 235 open me;
#X text 333 227 open me;
#X text 379 226 open me;
#X text 313 219 open me;
#X text 359 218 open me;
#X text 315 210 open me;
#X text 361 209 open me;
#X connect 0 0 5 0;
#X connect 0 0 13 0;
#X connect 1 0 2 0;
#X connect 2 0 0 0;
#X connect 3 0 0 2;
#X connect 4 0 0 1;
#X connect 6 0 9 0;
#X connect 7 0 5 0;
#X connect 9 0 7 0;
#X connect 11 0 16 0;
#X connect 12 0 18 0;
#X connect 12 1 19 0;
#X connect 13 0 14 0;
#X connect 13 0 14 1;
#X connect 15 0 1 0;
#X connect 16 0 12 0;
