#N canvas 66 225 832 687 10;
#X obj 98 122 soundfiler;
#N canvas 0 50 450 300 (subpatch) 0;
#X array bufferA 4100 float 2;
#X coords 0 1 4100 -1 200 140 1;
#X restore 566 95 graph;
#X floatatom 19 67 10 0 0 0 - - -, f 10;
#X obj 19 43 r bufA;
#X floatatom 149 41 10 0 0 0 - - -, f 10;
#X obj 146 18 r bufB;
#N canvas 0 50 450 300 (subpatch) 0;
#X array bufferB 4100 float 2;
#X coords 0 1 4100 -1 200 140 1;
#X restore 365 95 graph;
#X obj 431 509 vline~;
#X obj 275 386 f 0;
#X obj 248 350 bng 15 250 50 0 empty empty empty 17 7 0 10 -262144
-1 -1;
#X msg 269 317 0;
#X obj 64 378 f 0;
#X obj 100 378 + 1;
#X msg 94 342 0;
#X obj 66 341 bng 15 250 50 0 empty empty empty 17 7 0 10 -262144 -1
-1;
#X obj 54 491 f;
#X obj 54 515 s bufB;
#X obj 374 533 s bufA;
#X obj 375 505 f;
#X floatatom 187 203 5 0 0 1 ms-per-buffer - -, f 5;
#X obj 300 622 dac~;
#X obj 169 272 metro;
#X obj 168 246 tgl 15 0 empty empty empty 17 7 0 10 -262144 -1 -1 0
1;
#X text 495 8 double buffer playback;
#X obj 173 313 t b b b;
#X obj 406 421 t b b b;
#X obj 116 515 vline~;
#X obj 100 420 t b b b;
#X obj 550 533 vline~;
#X obj 550 457 f;
#X obj 509 567 *~;
#X obj 238 540 vline~;
#X obj 237 464 f;
#X obj 222 579 *~;
#X obj 141 269 bng 15 250 50 0 empty empty empty 17 7 0 10 -262144
-1 -1;
#X obj 309 585 +~;
#X msg 549 506 1 0 \, 1 \$1 \, 0 0 \$1;
#X msg 239 516 1 0 \, 1 \$1 \, 0 0 \$1;
#X obj 133 379 sel 1 0;
#X obj 57 464 delay 2;
#X obj 376 459 delay 2;
#X obj 115 538 tabread4~ bufferA;
#X obj 429 534 tabread4~ bufferB;
#X msg 139 487 2 0;
#X msg 446 482 2 0;
#X obj 431 459 pack 4098 f;
#X obj 117 464 pack 4098 f;
#X floatatom 276 423 10 0 0 3 current_sample - -, f 10;
#X msg 346 322 1e+006;
#X obj 50 157 loadbang;
#X obj 52 213 samplerate~;
#X obj 54 237 / 4096;
#X obj 325 371 + 4096;
#X floatatom 56 262 5 0 0 0 - - -, f 5;
#X obj 19 155 bng 15 250 50 0 empty empty empty 17 7 0 10 -262144 -1
-1;
#X obj 29 188 t b b;
#X msg 19 260 1000;
#X obj 36 281 /;
#X msg 19 86 read -skip \$1 ../_data_/test1.wav bufferA;
#X msg 148 59 read -skip \$1 ../_data_/test1.wav bufferB;
#X connect 2 0 58 0;
#X connect 3 0 2 0;
#X connect 4 0 59 0;
#X connect 5 0 4 0;
#X connect 7 0 42 0;
#X connect 8 0 15 1;
#X connect 8 0 18 1;
#X connect 8 0 47 0;
#X connect 8 0 52 0;
#X connect 9 0 8 0;
#X connect 10 0 8 1;
#X connect 11 0 12 0;
#X connect 11 0 38 0;
#X connect 12 0 11 1;
#X connect 13 0 11 1;
#X connect 14 0 11 0;
#X connect 15 0 16 0;
#X connect 18 0 17 0;
#X connect 19 0 21 1;
#X connect 19 0 29 1;
#X connect 19 0 32 1;
#X connect 19 0 45 1;
#X connect 19 0 46 1;
#X connect 21 0 24 0;
#X connect 22 0 21 0;
#X connect 24 0 11 0;
#X connect 24 2 8 0;
#X connect 25 0 40 0;
#X connect 25 1 29 0;
#X connect 25 1 45 0;
#X connect 25 2 44 0;
#X connect 26 0 41 0;
#X connect 27 0 39 0;
#X connect 27 1 32 0;
#X connect 27 1 46 0;
#X connect 27 2 43 0;
#X connect 28 0 30 1;
#X connect 29 0 36 0;
#X connect 30 0 35 1;
#X connect 31 0 33 1;
#X connect 32 0 37 0;
#X connect 33 0 35 0;
#X connect 34 0 24 0;
#X connect 35 0 20 0;
#X connect 35 0 20 1;
#X connect 36 0 28 0;
#X connect 37 0 31 0;
#X connect 38 0 13 0;
#X connect 38 0 27 0;
#X connect 38 1 25 0;
#X connect 39 0 15 0;
#X connect 40 0 18 0;
#X connect 41 0 33 0;
#X connect 42 0 30 0;
#X connect 43 0 26 0;
#X connect 44 0 7 0;
#X connect 45 0 7 0;
#X connect 46 0 26 0;
#X connect 48 0 8 1;
#X connect 49 0 55 0;
#X connect 50 0 51 0;
#X connect 51 0 53 0;
#X connect 52 0 8 1;
#X connect 53 0 57 1;
#X connect 54 0 55 0;
#X connect 55 0 56 0;
#X connect 55 1 50 0;
#X connect 56 0 57 0;
#X connect 57 0 19 0;
#X connect 58 0 0 0;
#X connect 59 0 0 0;
