#N canvas 26 455 1362 519 10;
#X obj 28 87 sendOSC;
#X floatatom 28 114 5 0 0 0 - - -;
#X floatatom 82 116 5 0 0 0 - - -;
#X text 89 314 ich;
#X text 187 10 joh;
#X obj 30 17 metro 1000;
#X obj 30 -10 tgl 15 0 empty empty empty 0 -6 0 8 -262144 -1 -1 0 1
;
#X obj 26 254 sendOSC;
#X floatatom 26 281 5 0 0 0 - - -;
#X floatatom 80 283 5 0 0 0 - - -;
#X obj 20 402 sendOSC;
#X floatatom 20 429 5 0 0 0 - - -;
#X floatatom 74 431 5 0 0 0 - - -;
#X text 123 434 bundleDepth;
#X obj 29 332 metro 1000;
#X obj 29 312 tgl 15 0 empty empty empty 0 -6 0 8 -262144 -1 -1 0 1
;
#X msg 24 356 send tanja ist geil;
#X obj 53 183 metro 1000;
#X obj 53 157 tgl 15 0 empty empty empty 0 -6 0 8 -262144 -1 -1 0 1
;
#X msg 237 162 triglevel 0.48;
#X obj 185 141 bng 15 250 50 0 empty empty empty 0 -6 0 8 -262144 -1
-1;
#X floatatom 392 210 5 0 0 0 - - -;
#X floatatom 418 175 5 0 0 0 - - -;
#X symbolatom 471 128 15 0 0 0 - - -;
#X text 433 209 received data;
#X text 471 175 number of connections;
#X msg 392 -12 print;
#X floatatom 444 149 5 0 0 0 - - -;
#X text 502 153 socket number;
#X msg 446 76 broadcast hallo world!;
#X text 591 76 send to all clients;
#X text 480 34 send message to client no. 1;
#X text 563 128 client's IP address;
#X obj 739 140 netclient;
#X msg 806 121 disconnect;
#X floatatom 806 169 5 0 0 0 - - -;
#X msg 426 15 send 380 17.3;
#X msg 441 56 client 1 23;
#X text 522 15 "send <socketnumber> <data>";
#X text 453 -6 send message on specified socket;
#X text 519 59 "client <clientnumber> <data>";
#X msg 739 57 connect 192.168.178.22 1001;
#X obj 972 196 netsend;
#X msg 981 174 send foo \$1;
#X floatatom 981 147 0 0 0 0 - - -;
#X msg 972 115 disconnect;
#X floatatom 972 223 0 0 0 0 - - -;
#X text 1023 13 TCP;
#X floatatom 1056 303 0 0 0 0 - - -;
#X msg 1169 168 send foo \$1;
#X floatatom 1169 141 0 0 0 0 - - -;
#X msg 1152 115 disconnect;
#X obj 1152 193 netsend 1;
#X floatatom 1152 220 0 0 0 0 - - -;
#X text 1227 10 UDP;
#X obj 974 295 prepend set;
#X msg 974 324 foo 5;
#X obj 953 325 bng 15 250 50 0 empty empty empty 0 -6 0 8 -262144 -1
-1;
#X obj 1146 292 prepend set;
#X msg 1146 321 wieder von max jetzt 22;
#X obj 1125 322 bng 15 250 50 0 empty empty empty 0 -6 0 8 -262144
-1 -1;
#X msg 972 34 connect 192.168.178.22 1002;
#X obj 974 273 netreceive 1002;
#X msg 1152 34 connect 192.168.178.22 1003;
#X obj 1146 271 netreceive 1003 1;
#X obj 719 4 metro 1000;
#X obj 719 -16 tgl 15 0 empty empty empty 0 -6 0 8 -262144 -1 -1 0
1;
#X msg 28 37 send osc von pd;
#X msg 48 207 send osc von pd;
#X msg 979 58 connect 192.168.6.39 2222;
#X obj 392 100 netserver 1001;
#X msg 36 62 disconnect \, connect 84.159.219.156 1000;
#X msg 739 77 disconnect \, connect 84.159.219.156 2005;
#X obj 185 159 f;
#X obj 213 158 + 1;
#X floatatom 187 192 5 0 0 0 - - -;
#X msg 739 97 disconnect \, connect 192.168.2.101 2005;
#X msg 719 28 send jo joao liebt furrer von graz;
#X obj 739 192 route al joh;
#X msg 739 247 53547;
#X obj 739 227 prepend set;
#X msg 794 290 latenztest;
#X obj 794 270 prepend set;
#X obj 716 248 bng 15 250 50 0 empty empty empty 0 -6 0 8 -262144 -1
-1;
#X obj 772 292 bng 15 250 50 0 empty empty empty 0 -6 0 8 -262144 -1
-1;
#X floatatom 553 334 5 0 0 0 - - -;
#X obj 554 290 until;
#X obj 553 313 f;
#X obj 581 312 + 1;
#X msg 499 308 0;
#X msg 590 375 send jo \$1;
#X obj 700 301 print;
#X obj 832 390 timer;
#X msg 552 263 500;
#X floatatom 834 422 5 0 0 0 - - -;
#X obj 831 343 bng 15 250 50 0 empty empty empty 0 -6 0 8 -262144 -1
-1;
#X msg 691 391 send jo latenztest;
#X obj 874 349 bng 15 250 50 0 empty empty empty 0 -6 0 8 -262144 -1
-1;
#X obj 906 361 bng 15 250 50 0 empty empty empty 0 -6 0 8 -262144 -1
-1;
#X obj 801 357 t b b;
#X obj 830 317 metro 200;
#X obj 888 255 tgl 15 0 empty empty empty 0 -6 0 8 -262144 -1 -1 0
1;
#X floatatom 899 282 5 0 0 0 - - -;
#X obj 237 122 list prepend set;
#X obj 237 142 list trim;
#X msg 25 228 disconnect \, connect 1.1.1.3 2000;
#X msg 31 379 disconnect \, connect 1.1.1.2 1000;
#X obj 237 101 dumpOSC 1000;
#X connect 0 0 1 0;
#X connect 0 1 2 0;
#X connect 5 0 67 0;
#X connect 6 0 5 0;
#X connect 7 0 8 0;
#X connect 7 1 9 0;
#X connect 10 0 11 0;
#X connect 10 1 12 0;
#X connect 14 0 16 0;
#X connect 15 0 14 0;
#X connect 16 0 10 0;
#X connect 17 0 68 0;
#X connect 18 0 17 0;
#X connect 20 0 73 0;
#X connect 26 0 70 0;
#X connect 29 0 70 0;
#X connect 33 0 78 0;
#X connect 33 1 35 0;
#X connect 34 0 33 0;
#X connect 36 0 70 0;
#X connect 37 0 70 0;
#X connect 41 0 33 0;
#X connect 42 0 46 0;
#X connect 43 0 42 0;
#X connect 44 0 43 0;
#X connect 45 0 42 0;
#X connect 49 0 52 0;
#X connect 50 0 49 0;
#X connect 51 0 52 0;
#X connect 52 0 53 0;
#X connect 55 0 56 0;
#X connect 55 0 57 0;
#X connect 58 0 59 0;
#X connect 58 0 60 0;
#X connect 61 0 42 0;
#X connect 62 0 55 0;
#X connect 62 1 48 0;
#X connect 63 0 52 0;
#X connect 64 0 58 0;
#X connect 65 0 77 0;
#X connect 66 0 65 0;
#X connect 67 0 0 0;
#X connect 68 0 7 0;
#X connect 69 0 42 0;
#X connect 70 0 21 0;
#X connect 70 1 22 0;
#X connect 70 2 27 0;
#X connect 70 3 23 0;
#X connect 71 0 0 0;
#X connect 72 0 33 0;
#X connect 73 0 74 0;
#X connect 73 0 75 0;
#X connect 74 0 73 1;
#X connect 76 0 33 0;
#X connect 77 0 33 0;
#X connect 78 0 80 0;
#X connect 78 0 83 0;
#X connect 78 0 91 0;
#X connect 78 1 82 0;
#X connect 78 1 84 0;
#X connect 78 1 98 0;
#X connect 80 0 79 0;
#X connect 82 0 81 0;
#X connect 85 0 90 0;
#X connect 86 0 87 0;
#X connect 87 0 88 0;
#X connect 87 0 85 0;
#X connect 88 0 87 1;
#X connect 89 0 87 0;
#X connect 90 0 33 0;
#X connect 92 0 94 0;
#X connect 93 0 86 0;
#X connect 95 0 99 0;
#X connect 96 0 33 0;
#X connect 97 0 92 0;
#X connect 98 0 92 1;
#X connect 99 0 96 0;
#X connect 99 1 92 0;
#X connect 100 0 95 0;
#X connect 101 0 100 0;
#X connect 102 0 100 1;
#X connect 103 0 20 0;
#X connect 103 0 104 0;
#X connect 104 0 19 0;
#X connect 105 0 7 0;
#X connect 106 0 10 0;
#X connect 107 0 103 0;
