#N struct 1260-elem float x float y float xgui float ygui float id
float color float vis;
#N canvas 496 201 1097 779 10;
#N canvas 0 0 450 300 struct 0;
#X obj 66 190 filledcurve color 0 1 xgui(0:100)(-5:95) ygui(0:100)(0:100)
xgui(0:100)(0:100) ygui(0:100)(-5:95) xgui(0:100)(5:105) ygui(0:100)(0:100)
xgui(0:100)(0:100) ygui(0:100)(5:105) xgui(0:100)(-5:95) ygui(0:100)(0:100)
;
#X obj 66 171 outlet;
#X obj 66 139 struct \$0-elem float x float y float xgui float ygui
float id float color float vis;
#X obj 93 70 inlet;
#X obj 91 260 drawnumber id xgui ygui 900;
#X connect 2 0 1 0;
#X connect 3 0 4 0;
#X restore 243 -98 pd struct;
#N canvas 219 347 450 300 \$0-data 0;
#X scalar 1260-elem 0 0 67 52 0 0 0 \;;
#X scalar 1260-elem 0 0 32 20 1 0 0 \;;
#X scalar 1260-elem 0 0 30 64 2 0 0 \;;
#X coords 0 0 100 100 100 100 1;
#X restore 0 0 pd \$0-data;
#X obj 241 358 s pd-\$0-data;
#X obj 79 394 pointer;
#X msg 79 375 traverse pd-\$1-data \, bang;
#X msg 241 339 clear;
#X obj 261 443 loadbang;
#X obj 79 356 f \$0;
#X obj -178 373 default 50;
#X obj -108 386 default 50;
#X obj 79 413 t p;
#X obj 77 467 t p;
#X obj -178 328 unpack f f f;
#X msg 450 398 coords 0 0 100 100 \$1 \$2 3 0 0;
#X obj 450 417 s pd-\$0-data;
#X obj 472 309 unpack f f;
#X obj 472 329 default 100;
#X obj 517 348 default 100;
#X obj 472 367 pack f f;
#X obj 472 290 r \$0-resize;
#X obj -65 273 r \$0-clear;
#X obj -178 256 r \$0-new;
#X obj 243 -79 route change;
#X obj -178 430 append \$0-elem xgui ygui color id;
#X obj -63 350 f;
#X obj -39 350 + 1;
#X msg -48 331 0;
#X obj 277 110 outlet;
#X obj 261 515 pack \$1 \$2;
#X obj 261 463 t b b;
#X obj 380 113 inlet;
#X obj 416 113 r \$0-method;
#X obj 261 553 s \$0-method;
#X msg 261 534 size \$1 \$2;
#X msg 288 482 clear;
#X obj 396 179 s \$0-new;
#X obj 380 200 s \$0-resize;
#X obj 458 178 s \$0-clear;
#X obj 321 447 bng 15 250 50 0 empty empty empty 17 7 0 10 -262144
-1 -1;
#X obj 366 60 / 100;
#X obj 300 53 / 100;
#X obj -178 354 * 100;
#X obj -130 354 * 100;
#X msg 469 25 new 0.5 0.5;
#X obj 469 52 s \$0-method;
#X obj -178 275 t l b;
#X obj 277 91 pack f f f;
#X obj 243 -60 get \$0-elem id xgui ygui;
#X obj -65 292 t b b b b;
#X msg 529 423 coords 0 -1 1 1 \$1 \$2 3 0 0;
#X obj 380 159 route size new clear drawid;
#X obj 243 -117 r \$0-drawid;
#X obj 529 192 s \$0-drawid;
#X obj 410 542 s \$0-drawid;
#X msg 410 509 0;
#X obj 507 548 namecanvas \$0-trackballself;
#X obj 533 501 s \$0-trackballself;
#X obj -146 538 pack f f f;
#X obj -131 408 default 50;
#X obj -146 588 s \$0-promotenew;
#X obj 136 -92 r \$0-promotenew;
#X obj 136 -54 unpack f f f;
#X msg 136 -73 \$3 \$1 \$2;
#X text 304 -97 <--magic!;
#X text 668 129 methods: new x y color(three digits) clear drawid 0
or 1 size x y;
#X connect 0 0 22 0;
#X connect 3 0 10 0;
#X connect 4 0 3 0;
#X connect 5 0 2 0;
#X connect 6 0 29 0;
#X connect 7 0 4 0;
#X connect 8 0 23 0;
#X connect 8 0 57 0;
#X connect 9 0 23 2;
#X connect 10 0 23 4;
#X connect 11 0 10 0;
#X connect 12 0 41 0;
#X connect 12 1 42 0;
#X connect 12 2 9 0;
#X connect 13 0 14 0;
#X connect 15 0 16 0;
#X connect 15 1 17 0;
#X connect 16 0 18 0;
#X connect 17 0 18 1;
#X connect 18 0 13 0;
#X connect 18 0 49 0;
#X connect 19 0 15 0;
#X connect 20 0 48 0;
#X connect 21 0 45 0;
#X connect 22 0 47 0;
#X connect 23 0 11 0;
#X connect 24 0 25 0;
#X connect 24 0 23 3;
#X connect 24 0 57 2;
#X connect 25 0 24 1;
#X connect 26 0 24 1;
#X connect 28 0 33 0;
#X connect 29 0 28 0;
#X connect 29 1 34 0;
#X connect 29 1 54 0;
#X connect 30 0 50 0;
#X connect 31 0 50 0;
#X connect 33 0 32 0;
#X connect 34 0 32 0;
#X connect 38 0 29 0;
#X connect 39 0 46 2;
#X connect 40 0 46 1;
#X connect 41 0 8 0;
#X connect 42 0 58 0;
#X connect 43 0 44 0;
#X connect 45 0 12 0;
#X connect 45 1 24 0;
#X connect 46 0 27 0;
#X connect 47 0 46 0;
#X connect 47 1 40 0;
#X connect 47 2 39 0;
#X connect 48 1 26 0;
#X connect 48 2 7 0;
#X connect 48 3 5 0;
#X connect 49 0 56 0;
#X connect 50 0 36 0;
#X connect 50 1 35 0;
#X connect 50 2 37 0;
#X connect 50 3 52 0;
#X connect 51 0 0 0;
#X connect 54 0 53 0;
#X connect 57 0 59 0;
#X connect 58 0 23 1;
#X connect 58 0 57 1;
#X connect 60 0 62 0;
#X connect 61 0 46 0;
#X connect 61 1 40 0;
#X connect 61 2 39 0;
#X connect 62 0 61 0;
#X coords 0 -1 1 1 100 100 2 0 0;
