#N canvas 435 36 450 457 10;
#X obj 174 53 inlet;
#X obj 199 108 repeat \$1;
#X obj 236 182 i;
#X obj 279 202 + 1;
#X obj 236 201 t f f;
#X msg 249 150 0;
#X obj 248 57 inlet repititions;
#X obj 27 301 outlet counter1;
#X obj 223 296 outlet counter2;
#X obj 156 352 outlet gemstream;
#X obj 199 149 t b a b;
#X obj 174 76 t b a;
#X obj 223 272 i;
#X connect 0 0 11 0;
#X connect 1 0 10 0;
#X connect 2 0 4 0;
#X connect 3 0 2 1;
#X connect 4 0 12 1;
#X connect 4 0 7 0;
#X connect 4 1 3 0;
#X connect 5 0 2 1;
#X connect 6 0 1 1;
#X connect 10 0 12 0;
#X connect 10 1 9 0;
#X connect 10 2 2 0;
#X connect 11 0 5 0;
#X connect 11 1 1 0;
#X connect 12 0 8 0;
