#N canvas 487 290 744 653 10;
#X obj 127 138 tabwrite \$0-activenotes;
#X obj 251 254 table \$0-activenotes 128;
#X obj 229 31 t f f;
#X obj 228 56 select 0;
#X msg 227 77 0;
#X msg 274 78 1;
#X obj 149 111 f;
#X obj 90 257 tabread \$0-activenotes;
#X obj 48 195 until;
#X msg 48 166 128;
#X obj 90 227 f;
#X obj 116 227 + 1;
#X msg 163 167 0;
#X obj 113 316 +;
#X obj 141 316 f;
#X obj 118 60 t b b b b f f;
#X obj 117 359 f;
#X obj 431 386 outlet;
#X obj 193 165 outlet;
#X obj 262 166 outlet;
#X obj 85 7 inlet;
#X obj 229 6 inlet;
#X text 123 8 notein pitch;
#X text 266 6 notein velocity;
#X text 182 185 pitch out;
#X text 263 186 velocity out;
#X text 480 386 number of keys pressed;
#X obj 163 200 t f f;
#X connect 2 0 3 0;
#X connect 2 1 19 0;
#X connect 3 0 4 0;
#X connect 3 1 5 0;
#X connect 4 0 6 1;
#X connect 5 0 6 1;
#X connect 6 0 0 0;
#X connect 7 0 13 0;
#X connect 8 0 10 0;
#X connect 9 0 8 0;
#X connect 10 0 11 0;
#X connect 10 0 7 0;
#X connect 11 0 10 1;
#X connect 12 0 27 0;
#X connect 13 0 14 0;
#X connect 13 0 16 1;
#X connect 14 0 13 1;
#X connect 15 0 16 0;
#X connect 15 1 9 0;
#X connect 15 2 6 0;
#X connect 15 3 12 0;
#X connect 15 4 0 1;
#X connect 15 5 18 0;
#X connect 16 0 17 0;
#X connect 20 0 15 0;
#X connect 21 0 2 0;
#X connect 27 0 10 1;
#X connect 27 1 14 0;
