#N canvas 234 176 717 437 10;
#X obj 10 -37 inlet;
#X obj 20 259 outlet~;
#X obj 108 264 outlet;
#X obj 349 138 symbol \$0-poly;
#X obj 87 -44 namecanvas \$0-poly;
#X obj 249 110 t b b;
#X obj 291 139 + 1;
#X obj 284 178 t f f;
#X obj 315 202 + 1;
#X obj 250 86 until;
#X obj 141 177 symbol \$0-poly;
#X obj 166 236 pack s f;
#X msg 163 279 \; \$1 connect \$2 1 2 0;
#X obj 249 20 f \$1;
#X obj 446 136 symbol \$2;
#X obj 511 137 symbol \$3;
#X obj 571 138 symbol \$4;
#X obj 288 238 pack f f s s s s s s s;
#X obj 468 205 symbol \$5;
#X obj 533 206 symbol \$6;
#X obj 593 207 symbol \$7;
#X obj 254 44 - 1;
#X obj 249 66 moses 1;
#X msg 296 270 \; \$3 obj 5 100 nqpwrap~ \$4 \$5 \$6 \$7 \$8 \$9 \;
\$3 connect \$1 1 \$2 0 \; \$3 connect \$2 0 1 0 \; \$3 connect 28
0 \$2 1;
#X msg 236 177 29;
#X obj 256 139 f 29;
#X text 281 -40 pix.test.at;
#X obj 208 -37 loadbang;
#X obj 210 -9 t b b b b;
#X obj 13 60 nqpwrap~ \$2 \$3 \$4 \$5 \$6 \$7;
#X connect 0 0 29 0;
#X connect 3 0 17 2;
#X connect 5 0 25 0;
#X connect 5 1 14 0;
#X connect 5 1 15 0;
#X connect 5 1 16 0;
#X connect 5 1 18 0;
#X connect 5 1 3 0;
#X connect 5 1 19 0;
#X connect 5 1 20 0;
#X connect 6 0 25 1;
#X connect 7 0 17 0;
#X connect 7 1 8 0;
#X connect 8 0 17 1;
#X connect 8 0 11 1;
#X connect 9 0 5 0;
#X connect 10 0 11 0;
#X connect 11 0 12 0;
#X connect 13 0 21 0;
#X connect 14 0 17 3;
#X connect 15 0 17 4;
#X connect 16 0 17 5;
#X connect 17 0 23 0;
#X connect 18 0 17 6;
#X connect 19 0 17 7;
#X connect 20 0 17 8;
#X connect 21 0 22 0;
#X connect 22 1 9 0;
#X connect 24 0 11 1;
#X connect 25 0 6 0;
#X connect 25 0 7 0;
#X connect 27 0 28 0;
#X connect 28 0 29 1;
#X connect 28 1 10 0;
#X connect 28 2 13 0;
#X connect 28 3 24 0;
#X connect 29 0 1 0;
