#N canvas 0 0 450 611 10;
#X obj 34 79 route d6t8l;
#X obj 34 111 unpack 1 2 3 4 5 6 7 8 9;
#X obj 34 39 netreceive 33333 1;
#X floatatom 34 197 5 0 0 0 - - -;
#X floatatom 74 197 5 0 0 0 - - -;
#X floatatom 114 197 5 0 0 0 - - -;
#X floatatom 154 197 5 0 0 0 - - -;
#X floatatom 194 197 5 0 0 0 - - -;
#X floatatom 234 197 5 0 0 0 - - -;
#X floatatom 274 197 5 0 0 0 - - -;
#X floatatom 314 197 5 0 0 0 - - -;
#X floatatom 354 197 5 0 0 0 - - -;
#X text 59 251 Martin Peach 2013_03_18;
#X obj 57 305 vsl 15 128 0 500 0 0 empty empty empty 0 -9 0 10 -260097
-1 -1 7188 1;
#X obj 77 305 vsl 15 128 0 500 0 0 empty empty empty 0 -9 0 10 -4034
-1 -1 6401 1;
#X obj 97 305 vsl 15 128 0 500 0 0 empty empty empty 0 -9 0 10 -4034
-1 -1 6350 1;
#X obj 117 305 vsl 15 128 0 500 0 0 empty empty empty 0 -9 0 10 -4034
-1 -1 6401 1;
#X obj 137 305 vsl 15 128 0 500 0 0 empty empty empty 0 -9 0 10 -4034
-1 -1 6452 1;
#X obj 157 305 vsl 15 128 0 500 0 0 empty empty empty 0 -9 0 10 -4034
-1 -1 6502 1;
#X obj 177 305 vsl 15 128 0 500 0 0 empty empty empty 0 -9 0 10 -4034
-1 -1 6502 1;
#X obj 197 305 vsl 15 128 0 500 0 0 empty empty empty 0 -9 0 10 -4034
-1 -1 6553 1;
#X obj 217 305 vsl 15 128 0 500 0 0 empty empty empty 0 -9 0 10 -4034
-1 -1 6553 1;
#X connect 0 0 1 0;
#X connect 1 0 3 0;
#X connect 1 1 4 0;
#X connect 1 2 5 0;
#X connect 1 3 6 0;
#X connect 1 4 7 0;
#X connect 1 5 8 0;
#X connect 1 6 9 0;
#X connect 1 7 10 0;
#X connect 1 8 11 0;
#X connect 2 0 0 0;
#X connect 3 0 13 0;
#X connect 4 0 14 0;
#X connect 5 0 15 0;
#X connect 6 0 16 0;
#X connect 7 0 17 0;
#X connect 8 0 18 0;
#X connect 9 0 19 0;
#X connect 10 0 20 0;
#X connect 11 0 21 0;
