#N canvas 384 232 893 541 10;
#X obj 47 -61 adc~;
#X obj 46 16 env~;
#X obj 47 69 vu 15 120 empty empty -1 -8 0 10 -66577 -1 1 0;
#X obj 46 42 - 100;
#X obj -126 192 output~;
#X floatatom 46 200 5 0 0 0 - - -;
#X obj -126 80 writesf~ 2;
#X msg -113 -59 start;
#X msg -47 -59 stop;
#X floatatom 176 266 5 0 0 0 - - -;
#X obj -113 -85 r starter;
#X obj -47 -85 r stopper;
#X obj 176 242 cup;
#X text 98 -129 enable video too?;
#N canvas 859 140 418 452 recordingsel 0;
#X msg -86 84 open sleeprecording01.wav;
#X msg -70 105 open sleeprecording02.wav;
#X msg -56 125 open sleeprecording03.wav;
#X msg -40 145 open sleeprecording04.wav;
#X msg -26 165 open sleeprecording05.wav;
#X msg -10 185 open sleeprecording06.wav;
#X msg 4 205 open sleeprecording07.wav;
#X msg 20 225 open sleeprecording08.wav;
#X msg 35 245 open sleeprecording09.wav;
#X msg 51 265 open sleeprecording10.wav;
#X msg 65 285 open sleeprecording11.wav;
#X msg 81 305 open sleeprecording12.wav;
#X msg 98 325 open sleeprecording13.wav;
#X msg 114 345 open sleeprecording14.wav;
#X msg 128 365 open sleeprecording15.wav;
#X msg 144 385 open sleeprecording16.wav;
#X obj -86 -18 r namer;
#X obj -86 4 cup;
#X obj -86 53 sel 0 1 2 3 4 5 6 7 8 9 10 11 12 13 14 15;
#X msg -27 -18 0;
#X obj -84 402 outlet bangedname;
#X floatatom -50 26 5 0 0 0 - - -;
#X connect 0 0 20 0;
#X connect 1 0 20 0;
#X connect 2 0 20 0;
#X connect 3 0 20 0;
#X connect 4 0 20 0;
#X connect 5 0 20 0;
#X connect 6 0 20 0;
#X connect 7 0 20 0;
#X connect 8 0 20 0;
#X connect 9 0 20 0;
#X connect 10 0 20 0;
#X connect 11 0 20 0;
#X connect 12 0 20 0;
#X connect 13 0 20 0;
#X connect 14 0 20 0;
#X connect 15 0 20 0;
#X connect 16 0 17 0;
#X connect 17 0 18 0;
#X connect 17 0 21 0;
#X connect 18 0 0 0;
#X connect 18 1 1 0;
#X connect 18 2 2 0;
#X connect 18 3 3 0;
#X connect 18 4 4 0;
#X connect 18 5 5 0;
#X connect 18 6 6 0;
#X connect 18 7 7 0;
#X connect 18 8 8 0;
#X connect 18 9 9 0;
#X connect 18 10 10 0;
#X connect 18 11 11 0;
#X connect 18 12 12 0;
#X connect 18 13 13 0;
#X connect 18 14 14 0;
#X connect 18 15 15 0;
#X connect 19 0 17 0;
#X connect 19 0 21 0;
#X restore -126 -135 pd recordingsel;
#X text 202 -47 threshold;
#X obj -126 -112 r namers;
#X text 383 -118 flow: 1 break threshold 2 name file 3 start recording
4 x time later \, stop recording 5 if threshold is broken during x
time \, restart x time.;
#X text 597 364 olivia.o glowpear@gmail.com;
#X obj 203 84 > 90;
#X obj 203 110 change;
#X floatatom 224 53 5 0 0 0 - - -;
#X obj 203 132 sel 1;
#X obj 176 192 timer;
#X obj 320 217 s starter;
#X obj 203 166 del 5000;
#X obj 277 166 spigot;
#X msg 310 141 0;
#X msg 310 121 1;
#X obj 113 242 s stopper;
#X obj 176 214 b;
#X msg -126 19 open \$1;
#X obj -126 -24 makefilename sleeprecording%02d.wav;
#X floatatom 135 88 5 0 0 0 - - -;
#X obj 161 296 f;
#X obj 161 320 s namers;
#X obj 320 194 t b b b;
#X connect 0 0 1 0;
#X connect 0 0 6 0;
#X connect 0 1 6 1;
#X connect 1 0 3 0;
#X connect 1 0 19 0;
#X connect 1 0 33 0;
#X connect 2 0 5 0;
#X connect 3 0 2 0;
#X connect 7 0 6 0;
#X connect 8 0 6 0;
#X connect 9 0 34 1;
#X connect 10 0 7 0;
#X connect 11 0 8 0;
#X connect 12 0 9 0;
#X connect 16 0 32 0;
#X connect 19 0 20 0;
#X connect 20 0 22 0;
#X connect 21 0 19 1;
#X connect 22 0 23 0;
#X connect 22 0 25 0;
#X connect 22 0 26 0;
#X connect 23 0 30 0;
#X connect 25 0 23 1;
#X connect 25 0 28 0;
#X connect 26 0 36 0;
#X connect 27 0 26 1;
#X connect 28 0 26 1;
#X connect 30 0 12 0;
#X connect 30 0 29 0;
#X connect 31 0 6 0;
#X connect 32 0 31 0;
#X connect 34 0 35 0;
#X connect 36 0 24 0;
#X connect 36 1 27 0;
#X connect 36 2 34 0;
