#N canvas 477 201 450 473 12;
#X obj 14 11 loadbang;
#X obj 40 66 f \$1;
#X obj 40 91 max 1;
#X obj 40 116 until;
#X obj 40 141 f;
#X obj 74 141 + 1;
#N canvas 0 0 450 300 \$0-oscbank 0;
#X restore 152 11 pd \$0-oscbank;
#X obj 40 166 t a a;
#X obj 40 241 pack;
#X msg 40 266 obj \$1 \$2 oscvoice~;
#X msg 94 66 clear;
#X obj 94 91 s pd-\$0-oscbank;
#X obj 40 321 s pd-\$0-oscbank;
#X obj 40 349 catch~ bus;
#X obj 359 86 f \$1;
#X msg 359 111 1 \$1;
#X obj 359 136 /;
#X obj 113 384 *~;
#X obj 113 409 outlet~;
#X obj 40 216 * 120;
#X obj 96 216 * 30;
#X obj 14 36 t b b b;
#X msg 14 292 loadbang;
#X obj 40 191 div 20;
#X obj 96 191 mod 20;
#X obj 277 408 outlet;
#X connect 0 0 21 0;
#X connect 1 0 2 0;
#X connect 2 0 3 0;
#X connect 3 0 4 0;
#X connect 4 0 5 0;
#X connect 4 0 7 0;
#X connect 5 0 4 1;
#X connect 7 0 23 0;
#X connect 7 1 24 0;
#X connect 8 0 9 0;
#X connect 9 0 12 0;
#X connect 10 0 11 0;
#X connect 13 0 17 0;
#X connect 14 0 15 0;
#X connect 15 0 16 0;
#X connect 16 0 17 1;
#X connect 17 0 18 0;
#X connect 19 0 8 0;
#X connect 20 0 8 1;
#X connect 21 0 22 0;
#X connect 21 0 25 0;
#X connect 21 1 1 0;
#X connect 21 2 14 0;
#X connect 21 2 10 0;
#X connect 22 0 12 0;
#X connect 23 0 19 0;
#X connect 24 0 20 0;
