#N canvas 666 22 774 428 10;
#X obj 219 66 route /joint;
#X obj 218 89 s joint;
#N canvas 268 45 773 541 headnecktorso 0;
#X obj 143 152 unpack f f f f;
#X floatatom 143 228 5 0 0 0 - - -;
#X floatatom 170 212 5 0 0 0 - - -;
#X floatatom 197 195 5 0 0 0 - - -;
#X floatatom 224 175 5 0 0 0 - - -;
#X obj 258 149 unpack f f f f;
#X floatatom 258 225 5 0 0 0 - - -;
#X floatatom 285 209 5 0 0 0 - - -;
#X floatatom 312 192 5 0 0 0 - - -;
#X floatatom 339 172 5 0 0 0 - - -;
#X obj 377 146 unpack f f f f;
#X floatatom 377 222 5 0 0 0 - - -;
#X floatatom 404 206 5 0 0 0 - - -;
#X floatatom 431 189 5 0 0 0 - - -;
#X floatatom 458 169 5 0 0 0 - - -;
#X obj 148 58 r joint;
#X obj 148 86 route head neck torso;
#X obj 162 322 s headx;
#X obj 172 342 s heady;
#X obj 231 344 s headz;
#X obj 270 288 s neckx;
#X obj 328 305 s necky;
#X obj 334 331 s neckz;
#X obj 429 293 s torsox;
#X obj 438 263 s torsoy;
#X obj 475 234 s torsoz;
#X connect 0 0 1 0;
#X connect 0 1 2 0;
#X connect 0 2 3 0;
#X connect 0 3 4 0;
#X connect 2 0 17 0;
#X connect 3 0 18 0;
#X connect 4 0 19 0;
#X connect 5 0 6 0;
#X connect 5 1 7 0;
#X connect 5 2 8 0;
#X connect 5 3 9 0;
#X connect 7 0 20 0;
#X connect 8 0 21 0;
#X connect 9 0 22 0;
#X connect 10 0 11 0;
#X connect 10 1 12 0;
#X connect 10 2 13 0;
#X connect 10 3 14 0;
#X connect 12 0 23 0;
#X connect 13 0 24 0;
#X connect 14 0 25 0;
#X connect 15 0 16 0;
#X connect 16 0 0 0;
#X connect 16 1 5 0;
#X connect 16 2 10 0;
#X restore 234 140 pd headnecktorso;
#N canvas 286 104 658 348 rightleg 0;
#X obj 143 152 unpack f f f f;
#X floatatom 143 228 5 0 0 0 - - -;
#X floatatom 158 203 5 0 0 0 - - -;
#X floatatom 197 195 5 0 0 0 - - -;
#X floatatom 224 175 5 0 0 0 - - -;
#X obj 258 149 unpack f f f f;
#X floatatom 258 225 5 0 0 0 - - -;
#X floatatom 285 209 5 0 0 0 - - -;
#X floatatom 312 192 5 0 0 0 - - -;
#X floatatom 339 172 5 0 0 0 - - -;
#X obj 377 146 unpack f f f f;
#X floatatom 377 222 5 0 0 0 - - -;
#X floatatom 404 206 5 0 0 0 - - -;
#X floatatom 431 189 5 0 0 0 - - -;
#X floatatom 458 169 5 0 0 0 - - -;
#X obj 148 58 r joint;
#X obj 180 311 s rhipx;
#X obj 226 310 s rhipy;
#X obj 277 314 s rhipz;
#X obj 314 285 s rkneex;
#X obj 352 302 s rkneey;
#X obj 391 325 s rkneez;
#X obj 462 237 s rfootx;
#X obj 472 256 s rfooty;
#X obj 483 276 s rfootz;
#X obj 148 86 route r_hip r_knee r_foot;
#X connect 0 0 1 0;
#X connect 0 1 2 0;
#X connect 0 2 3 0;
#X connect 0 3 4 0;
#X connect 2 0 16 0;
#X connect 3 0 17 0;
#X connect 4 0 18 0;
#X connect 5 0 6 0;
#X connect 5 1 7 0;
#X connect 5 2 8 0;
#X connect 5 3 9 0;
#X connect 7 0 19 0;
#X connect 8 0 20 0;
#X connect 9 0 21 0;
#X connect 10 0 11 0;
#X connect 10 1 12 0;
#X connect 10 2 13 0;
#X connect 10 3 14 0;
#X connect 12 0 22 0;
#X connect 13 0 23 0;
#X connect 14 0 24 0;
#X connect 15 0 25 0;
#X connect 25 0 0 0;
#X connect 25 1 5 0;
#X connect 25 2 10 0;
#X restore 96 160 pd rightleg;
#N canvas 605 247 777 450 rightarm 0;
#X obj 148 86 route r_shoulder r_elbow r_hand;
#X obj 143 152 unpack f f f f;
#X floatatom 143 228 5 0 0 0 - - -;
#X floatatom 170 212 5 0 0 0 - - -;
#X floatatom 197 195 5 0 0 0 - - -;
#X floatatom 224 175 5 0 0 0 - - -;
#X obj 258 149 unpack f f f f;
#X floatatom 258 225 5 0 0 0 - - -;
#X floatatom 285 209 5 0 0 0 - - -;
#X floatatom 312 192 5 0 0 0 - - -;
#X floatatom 339 172 5 0 0 0 - - -;
#X obj 377 146 unpack f f f f;
#X floatatom 377 222 5 0 0 0 - - -;
#X floatatom 404 206 5 0 0 0 - - -;
#X floatatom 431 189 5 0 0 0 - - -;
#X floatatom 458 169 5 0 0 0 - - -;
#X obj 148 58 r joint;
#X obj 466 239 s rhandx;
#X obj 528 241 s rhandy;
#X obj 584 241 s rhandz;
#X obj 310 295 s relbowx;
#X obj 373 292 s relbowy;
#X obj 430 296 s relbowz;
#X obj 170 301 s rshoulderx;
#X obj 176 332 s rshouldery;
#X obj 186 361 s rshoulderz;
#X connect 0 0 1 0;
#X connect 0 1 6 0;
#X connect 0 2 11 0;
#X connect 1 0 2 0;
#X connect 1 1 3 0;
#X connect 1 2 4 0;
#X connect 1 3 5 0;
#X connect 3 0 23 0;
#X connect 4 0 24 0;
#X connect 5 0 25 0;
#X connect 6 0 7 0;
#X connect 6 1 8 0;
#X connect 6 2 9 0;
#X connect 6 3 10 0;
#X connect 8 0 20 0;
#X connect 9 0 21 0;
#X connect 10 0 22 0;
#X connect 11 0 12 0;
#X connect 11 1 13 0;
#X connect 11 2 14 0;
#X connect 11 3 15 0;
#X connect 13 0 17 0;
#X connect 14 0 18 0;
#X connect 15 0 19 0;
#X connect 16 0 0 0;
#X restore 95 140 pd rightarm;
#N canvas 0 22 853 509 leftarm 0;
#X obj 143 152 unpack f f f f;
#X floatatom 143 228 5 0 0 0 - - -;
#X floatatom 170 212 5 0 0 0 - - -;
#X floatatom 197 195 5 0 0 0 - - -;
#X floatatom 224 175 5 0 0 0 - - -;
#X obj 258 149 unpack f f f f;
#X floatatom 258 225 5 0 0 0 - - -;
#X floatatom 285 209 5 0 0 0 - - -;
#X floatatom 312 192 5 0 0 0 - - -;
#X floatatom 339 172 5 0 0 0 - - -;
#X obj 377 146 unpack f f f f;
#X floatatom 377 222 5 0 0 0 - - -;
#X floatatom 404 206 5 0 0 0 - - -;
#X floatatom 431 189 5 0 0 0 - - -;
#X floatatom 458 169 5 0 0 0 - - -;
#X obj 148 58 r joint;
#X obj 148 86 route l_shoulder l_elbow l_hand;
#X obj 377 276 s lhandx;
#X obj 439 278 s lhandy;
#X obj 495 278 s lhandz;
#X obj 180 311 s lshoulderx;
#X obj 186 342 s lshouldery;
#X obj 196 371 s lshoulderz;
#X obj 320 305 s lelbowx;
#X obj 383 302 s lelbowy;
#X obj 440 306 s lelbowz;
#X connect 0 0 1 0;
#X connect 0 1 2 0;
#X connect 0 2 3 0;
#X connect 0 3 4 0;
#X connect 2 0 20 0;
#X connect 3 0 21 0;
#X connect 4 0 22 0;
#X connect 5 0 6 0;
#X connect 5 1 7 0;
#X connect 5 2 8 0;
#X connect 5 3 9 0;
#X connect 7 0 23 0;
#X connect 8 0 24 0;
#X connect 9 0 25 0;
#X connect 10 0 11 0;
#X connect 10 1 12 0;
#X connect 10 2 13 0;
#X connect 10 3 14 0;
#X connect 12 0 17 0;
#X connect 13 0 18 0;
#X connect 14 0 19 0;
#X connect 15 0 16 0;
#X connect 16 0 0 0;
#X connect 16 1 5 0;
#X connect 16 2 10 0;
#X restore 168 140 pd leftarm;
#N canvas 0 22 722 373 leftleg 0;
#X obj 143 152 unpack f f f f;
#X floatatom 143 228 5 0 0 0 - - -;
#X floatatom 178 268 5 0 0 0 - - -;
#X floatatom 197 195 5 0 0 0 - - -;
#X floatatom 224 175 5 0 0 0 - - -;
#X obj 258 149 unpack f f f f;
#X floatatom 258 225 5 0 0 0 - - -;
#X floatatom 285 209 5 0 0 0 - - -;
#X floatatom 312 192 5 0 0 0 - - -;
#X floatatom 339 172 5 0 0 0 - - -;
#X obj 377 146 unpack f f f f;
#X floatatom 377 222 5 0 0 0 - - -;
#X floatatom 404 206 5 0 0 0 - - -;
#X floatatom 431 189 5 0 0 0 - - -;
#X floatatom 458 169 5 0 0 0 - - -;
#X obj 148 58 r joint;
#X obj 148 86 route l_hip l_knee l_foot;
#X obj 190 321 s lhipx;
#X obj 236 320 s lhipy;
#X obj 287 324 s lhipz;
#X obj 324 295 s lkneex;
#X obj 362 312 s lkneey;
#X obj 401 335 s lkneez;
#X obj 472 247 s lfootx;
#X obj 482 266 s lfooty;
#X obj 493 286 s lfootz;
#X connect 0 0 1 0;
#X connect 0 1 2 0;
#X connect 0 2 3 0;
#X connect 0 3 4 0;
#X connect 2 0 17 0;
#X connect 3 0 18 0;
#X connect 4 0 19 0;
#X connect 5 0 6 0;
#X connect 5 1 7 0;
#X connect 5 2 8 0;
#X connect 5 3 9 0;
#X connect 7 0 20 0;
#X connect 8 0 21 0;
#X connect 9 0 22 0;
#X connect 10 0 11 0;
#X connect 10 1 12 0;
#X connect 10 2 13 0;
#X connect 10 3 14 0;
#X connect 12 0 23 0;
#X connect 13 0 24 0;
#X connect 14 0 25 0;
#X connect 15 0 16 0;
#X connect 16 0 0 0;
#X connect 16 1 5 0;
#X connect 16 2 10 0;
#X restore 169 160 pd leftleg;
#X obj 219 30 oscD 8110;
#X msg 110 219 ./osceleton-osx -p 8110 -mx 2 -my -2 -mz -1 -ox -1 -oy
0.75 -oz 1 -a 127.0.0.1;
#X connect 0 0 1 0;
#X connect 7 0 0 0;
