#N canvas 0 22 450 300 10;
#X obj 194 188 pix_write;
#X msg 281 131 bang;
#X obj 170 89 t b b;
#X obj 168 50 metro 1000;
#X obj 168 13 tgl 15 0 empty empty empty 17 7 0 10 -262144 -1 -1 0
1;
#X msg -48 131 file /Users/lazzaro/Desktop/occhio/file-;
#X connect 1 0 0 0;
#X connect 2 0 5 0;
#X connect 2 1 1 0;
#X connect 3 0 2 0;
#X connect 4 0 3 0;
#X connect 5 0 0 0;
