#N canvas 168 211 678 445 16;
#X obj 118 58 metro 500;
#X obj 118 25 tgl 15 0 empty empty empty 0 -6 0 8 -262144 -1 -1 0 1
;
#X msg 69 58 0;
#X obj 118 102 f;
#X floatatom 168 134 5 0 0 0 - - -;
#X obj 168 197 bng 15 250 50 0 empty empty empty 0 -6 0 8 -262144 -1
-1;
#X obj 168 102 + 0.01;
#X obj 168 163 sel 0.05;
#X floatatom 243 197 5 0 0 0 - - -;
#X text 144 22 <- start;
#X text 46 378 May be I do not see something ...;
#X text 49 253 For some strange reasons the "sel" object doesn't select
number "0.05" ... and some others ... when counting;
#X text 48 310 but perfectly selects it when dragging the mouse along
the number box;
#X connect 0 0 3 0;
#X connect 1 0 0 0;
#X connect 1 0 2 0;
#X connect 2 0 3 0;
#X connect 3 0 6 0;
#X connect 4 0 7 0;
#X connect 6 0 4 0;
#X connect 6 0 3 1;
#X connect 7 0 5 0;
#X connect 7 1 8 0;
