#N canvas 211 95 1024 700 10;
#X msg 245 70 create;
#X msg 270 90 destroy;
#X obj 379 18 gemhead;
#X obj 378 85 part_head;
#X msg 298 116 1;
#X msg 306 142 0;
#X text 488 259 set the number per frame;
#X text 543 280 set the age to kill at;
#X msg 500 201 0 0.2 0 0.3;
#X msg 587 200 0.2 0 0 0.3;
#N canvas 87 154 247 179 Gem.init 0;
#X msg 118 81 reset;
#X obj 118 113 outlet;
#X obj 118 48 t b b;
#X obj 116 18 loadbang;
#X connect 0 0 1 0;
#X connect 2 1 0 0;
#X connect 3 0 2 0;
#X restore 276 194 pd Gem.init;
#X obj 378 132 part_size 1;
#X obj 378 254 part_source 5;
#X obj 379 382 separator;
#X obj 379 408 translate 1 0 0 0;
#X obj 379 431 color;
#X obj 379 471 scale;
#X msg 488 518 draw line;
#X msg 467 105 2;
#X obj 380 502 rotateXYZ;
#X text 585 400 this is rather velocity;
#X text 589 416 than rotation;
#X obj 489 498 loadbang;
#X obj 380 537 square 0.2;
#X msg 473 380 \$1 \$2 0;
#X obj 379 56 rotateXYZ;
#X obj 378 205 part_color;
#X msg 410 180 1 0 0;
#X msg 462 180 0 0 1;
#X text 464 362 we don't allow particles spread along the z-axis;
#X msg 467 76 1;
#X obj 378 306 part_info;
#X obj 239 443 tabwrite asdf;
#X obj 261 559 tabread asdf;
#X obj 239 416 random 360;
#X obj 239 340 swap;
#X obj 245 217 gemwin 50;
#X obj 378 229 part_velocity sphere 0 0.1 0 0.1;
#X obj 378 279 part_killold 100;
#X obj 233 463 table asdf 500;
#X obj 239 369 <= 1;
#X obj 239 393 sel 1;
#X obj 116 417 swap;
#X obj 116 446 <= 1;
#X obj 116 470 sel 1;
#X obj 116 550 tabwrite rotVect;
#X obj 118 572 table rotVect 500;
#X obj 116 493 random 10;
#X obj 116 521 - 5;
#X obj 344 560 tabread rotVect;
#X obj 264 600 +;
#X obj 264 636 tabwrite asdf;
#X obj 293 502 t f f f;
#X connect 0 0 36 0;
#X connect 1 0 36 0;
#X connect 2 0 25 0;
#X connect 3 0 11 0;
#X connect 4 0 36 0;
#X connect 5 0 36 0;
#X connect 8 0 37 2;
#X connect 9 0 37 2;
#X connect 10 0 36 0;
#X connect 11 0 26 0;
#X connect 12 0 38 0;
#X connect 13 0 14 0;
#X connect 14 0 15 0;
#X connect 15 0 16 0;
#X connect 16 0 19 0;
#X connect 17 0 23 0;
#X connect 18 0 11 1;
#X connect 19 0 23 0;
#X connect 22 0 17 0;
#X connect 24 0 14 2;
#X connect 25 0 3 0;
#X connect 26 0 37 0;
#X connect 27 0 26 1;
#X connect 28 0 26 2;
#X connect 30 0 11 1;
#X connect 31 0 13 0;
#X connect 31 1 35 0;
#X connect 31 1 42 0;
#X connect 31 1 52 0;
#X connect 31 2 24 0;
#X connect 31 3 15 1;
#X connect 31 5 16 1;
#X connect 31 6 35 1;
#X connect 31 6 42 1;
#X connect 33 0 50 0;
#X connect 34 0 32 0;
#X connect 35 0 40 0;
#X connect 35 1 32 1;
#X connect 37 0 12 0;
#X connect 38 0 31 0;
#X connect 40 0 41 0;
#X connect 41 0 34 0;
#X connect 42 0 43 0;
#X connect 42 1 45 1;
#X connect 43 0 44 0;
#X connect 44 0 47 0;
#X connect 47 0 48 0;
#X connect 48 0 45 0;
#X connect 49 0 50 1;
#X connect 50 0 19 3;
#X connect 50 0 51 0;
#X connect 52 0 33 0;
#X connect 52 1 51 1;
#X connect 52 2 49 0;
