#N canvas 0 22 450 300 10;
#X floatatom 119 35 5 0 0 0 - - -;
#X obj 119 62 t f f;
#X obj 146 87 swap 1;
#X obj 146 114 -;
#X obj 146 142 *;
#X obj 119 143 +;
#X floatatom 119 183 5 0 0 0 - - -;
#X connect 0 0 1 0;
#X connect 1 0 5 0;
#X connect 1 1 2 0;
#X connect 2 0 3 0;
#X connect 2 1 3 1;
#X connect 3 0 4 1;
#X connect 4 0 5 1;
#X connect 5 0 4 0;
#X connect 5 0 6 0;
