#N canvas 0 87 1167 793 10;
#X obj 385 70 gemhead;
#X obj 404 397 f;
#X obj 404 419 until;
#X obj 404 441 t b b;
#X obj 404 463 gemlist;
#X obj 404 669 text3d M;
#X obj 419 373 r nb_vertical;
#X obj 578 494 f;
#X obj 608 494 + 1;
#X msg 593 469 0;
#X obj 578 518 * 160;
#X obj 578 565 array get lettres;
#X obj 627 517 r nb_horizontal;
#X obj 627 539 * 2;
#X obj 578 587 list prepend string;
#X obj 578 609 list trim;
#X obj 404 312 t b a b b;
#X obj 643 388 random 26;
#X obj 643 410 + 65;
#X obj 643 355 t b b;
#X obj 643 446 array set lettres;
#X obj 743 341 r size_lettres_espaces;
#X obj 710 388 random;
#X obj 710 410 * 2;
#X obj 743 363 / 2;
#X obj 321 623 r font_style;
#X obj 449 646 r font_size;
#X obj 404 288 color 0.2 1 0.2;
#X obj 284 53 loadbang;
#X obj 385 128 gemframebuffer;
#X obj 507 49 loadbang;
#X obj 404 230 translateXYZ 0 0 -4;
#X obj 424 173 poly_smooth;
#X obj 385 195 poly_smooth_dis;
#X obj 385 150 t a a a;
#X obj 643 333 until;
#X msg 643 311 25;
#X msg 507 71 perspec -1.77777 1.77777 -1 1 1 20 \, dimen 1920 1080
\, format RGBA \, color 0 0 0 0 \, rectangle 0;
#X obj 404 523 translateXYZ 0 0.14 0;
#X obj 385 23 r scene_selected;
#X obj 385 45 == 5;
#X msg 284 75 texunit 3;
#X obj 404 266 translateXYZ -7.06 -3.96 0;
#X connect 0 0 29 0;
#X connect 1 0 2 0;
#X connect 2 0 3 0;
#X connect 3 0 4 0;
#X connect 3 1 7 0;
#X connect 4 0 38 0;
#X connect 6 0 1 1;
#X connect 7 0 8 0;
#X connect 7 0 10 0;
#X connect 8 0 7 1;
#X connect 9 0 7 1;
#X connect 10 0 11 0;
#X connect 11 0 14 0;
#X connect 12 0 13 0;
#X connect 13 0 11 1;
#X connect 14 0 15 0;
#X connect 15 0 5 0;
#X connect 16 0 1 0;
#X connect 16 1 4 1;
#X connect 16 2 9 0;
#X connect 16 3 36 0;
#X connect 17 0 18 0;
#X connect 18 0 20 0;
#X connect 19 0 17 0;
#X connect 19 1 22 0;
#X connect 21 0 24 0;
#X connect 22 0 23 0;
#X connect 23 0 20 1;
#X connect 24 0 22 1;
#X connect 25 0 5 0;
#X connect 26 0 5 1;
#X connect 27 0 16 0;
#X connect 28 0 41 0;
#X connect 29 0 34 0;
#X connect 30 0 37 0;
#X connect 31 0 42 0;
#X connect 34 0 33 0;
#X connect 34 1 31 0;
#X connect 34 2 32 0;
#X connect 35 0 19 0;
#X connect 36 0 35 0;
#X connect 37 0 29 0;
#X connect 38 0 5 0;
#X connect 39 0 40 0;
#X connect 40 0 0 0;
#X connect 41 0 29 0;
#X connect 42 0 27 0;
