#N canvas 465 67 716 498 10;
#X obj 189 176 symbol2list;
#X obj 254 126 makefilename %c;
#X msg 254 105 92;
#X obj 126 139 unpack s s s;
#X obj 254 84 bang;
#X obj 188 208 list2symbol /;
#X msg 187 240 open \$1;
#X obj 188 302 pix_image;
#X obj 122 77 dumpOSC 9999;
#X obj 126 110 OSCroute /message;
#X text 254 290 Rest of patch removed...;
#X connect 0 0 5 0;
#X connect 1 0 0 1;
#X connect 2 0 1 0;
#X connect 3 2 0 0;
#X connect 4 0 2 0;
#X connect 5 0 6 0;
#X connect 6 0 7 0;
#X connect 8 0 9 0;
#X connect 9 0 3 0;
