#N canvas 96 143 300 152 10;
#X obj 79 68 timer;
#X obj 79 48 bng 15 250 50 0 empty empty empty 17 7 0 10 -262144 -1
-1;
#X obj 79 88 nbx 10 30 -1e+37 1e+37 0 0 empty empty empty 0 -8 0 20
-262144 -1 -1 1.45125 256;
#X obj 106 48 bng 15 250 50 0 empty empty empty 17 7 0 10 -262144 -1
-1;
#X obj 1 90 noteout 3;
#X obj 106 3 notein 3;
#X obj 1 2 notein 1;
#X connect 0 0 2 0;
#X connect 1 0 0 0;
#X connect 3 0 0 1;
#X connect 5 0 3 0;
#X connect 6 0 1 0;
#X connect 6 0 4 0;
#X connect 6 1 4 1;
