#N canvas 1967 322 663 202 12;
#X obj 25 156 ctlout 1;
#X obj 24 1 tgl 15 0 empty empty empty 17 7 0 10 -262144 -1 -1 0 1
;
#X obj 25 112 random 127;
#X obj 113 113 random 127;
#X obj 201 113 random 127;
#X obj 290 114 random 127;
#X obj 378 114 random 127;
#X obj 460 113 random 127;
#X obj 113 157 ctlout 2;
#X obj 202 157 ctlout 3;
#X obj 290 158 ctlout 4;
#X obj 378 158 ctlout 5;
#X obj 460 157 ctlout 6;
#X obj 24 30 metro 1;
#X connect 1 0 13 0;
#X connect 2 0 0 0;
#X connect 3 0 8 0;
#X connect 4 0 9 0;
#X connect 5 0 10 0;
#X connect 6 0 11 0;
#X connect 7 0 12 0;
#X connect 13 0 2 0;
#X connect 13 0 3 0;
#X connect 13 0 4 0;
#X connect 13 0 5 0;
#X connect 13 0 6 0;
#X connect 13 0 7 0;
