#N canvas 748 256 820 726 10;
#X msg 42 32 4 3;
#X obj 42 53 /;
#X msg 56 82 1.33333;
#X msg 75 109 1.33333;
#X msg 120 207 1.33333;
#X obj 120 233 + 3.33e-06;
#X obj 42 285 f;
#X floatatom 42 440 9 0 0 0 - - -, f 9;
#X obj 75 136 + 3e-06;
#X obj 59 382 - 1.33333;
#X floatatom 59 413 9 0 0 0 - - -, f 9;
#X msg 93 160 1.33333;
#X obj 93 186 + 3.3e-06;
#X floatatom 447 141 9 0 0 0 - - -, f 9;
#X msg 435 37 3e-06;
#X obj 435 92 + 1;
#X obj 435 115 - 1;
#X text 608 142 <- oups!;
#X floatatom 535 142 9 0 0 0 - - -, f 9;
#X obj 523 93 + 3;
#X obj 523 117 - 3;
#X obj 435 177 ==;
#X obj 435 66 t f f;
#X obj 435 203 tgl 15 0 empty empty empty 17 7 0 10 -262144 -1 -1 0
1;
#X text 458 205 !!!;
#X obj 229 334 tgl 15 0 empty empty empty 17 7 0 10 -262144 -1 -1 0
1;
#X text 310 313 <- created with 5 "3";
#X obj 229 311 == 1.33333;
#X obj 228 379 tgl 15 0 empty empty empty 17 7 0 10 -262144 -1 -1 0
1;
#X obj 228 355 == 1.333333;
#X text 309 356 <- created with 6 "3";
#X obj 226 424 tgl 15 0 empty empty empty 17 7 0 10 -262144 -1 -1 0
1;
#X obj 226 402 == 1.3333333;
#X text 306 403 <- created with 7 "3";
#X obj 225 472 tgl 15 0 empty empty empty 17 7 0 10 -262144 -1 -1 0
1;
#X obj 225 445 == 1.33333333;
#X text 305 446 <- created with 8 "3";
#X obj 225 522 tgl 15 0 empty empty empty 17 7 0 10 -262144 -1 -1 0
1;
#X text 305 496 <- created with 12 "3";
#X obj 225 495 == 1.333333333333;
#X connect 0 0 1 0;
#X connect 1 0 6 0;
#X connect 2 0 6 0;
#X connect 3 0 8 0;
#X connect 4 0 5 0;
#X connect 5 0 6 0;
#X connect 6 0 7 0;
#X connect 6 0 9 0;
#X connect 6 0 27 0;
#X connect 6 0 29 0;
#X connect 6 0 32 0;
#X connect 6 0 35 0;
#X connect 6 0 39 0;
#X connect 8 0 6 0;
#X connect 9 0 10 0;
#X connect 11 0 12 0;
#X connect 12 0 6 0;
#X connect 14 0 22 0;
#X connect 15 0 16 0;
#X connect 16 0 13 0;
#X connect 16 0 21 0;
#X connect 19 0 20 0;
#X connect 20 0 18 0;
#X connect 20 0 21 1;
#X connect 21 0 23 0;
#X connect 22 0 15 0;
#X connect 22 1 19 0;
#X connect 27 0 25 0;
#X connect 29 0 28 0;
#X connect 32 0 31 0;
#X connect 35 0 34 0;
#X connect 39 0 37 0;
