#N canvas 264 231 619 350 10;
#N canvas 0 22 450 300 shirt 0;
#X obj 186 122 inlet;
#X obj 186 200 outlet;
#X obj 239 200 outlet;
#X obj 294 200 outlet;
#X obj 186 164 route eats and_leaves;
#X connect 0 0 4 0;
#X connect 4 0 1 0;
#X connect 4 1 2 0;
#X connect 4 2 3 0;
#X restore 417 117 pd shirt;
#X msg 369 152 left arm;
#N canvas 466 443 530 376 human~ 1;
#X obj 81 98 inlet~;
#X obj 130 98 inlet;
#X obj 174 98 inlet;
#X obj 219 98 inlet;
#X obj 265 98 inlet;
#X obj 311 98 inlet;
#X obj 120 257 outlet~;
#X obj 175 257 outlet~;
#X obj 285 257 outlet;
#X obj 120 174 route all sensory input;
#X obj 120 213 sig~;
#X obj 234 257 outlet;
#X obj 165 213 sig~;
#X obj 81 137 unsig~;
#X obj 22 314 cnv 12 60 30 empty empty back 10 12 0 14 -204786 -261234
0;
#X connect 0 0 13 0;
#X connect 1 0 9 0;
#X connect 2 0 9 0;
#X connect 3 0 9 0;
#X connect 4 0 9 0;
#X connect 5 0 9 0;
#X connect 9 0 10 0;
#X connect 9 1 12 0;
#X connect 9 2 11 0;
#X connect 9 3 8 0;
#X connect 10 0 6 0;
#X connect 12 0 7 0;
#X connect 13 0 9 0;
#X restore 102 91 pd human~;
#X msg 439 152 head;
#X msg 488 152 right arm;
#X msg 417 91 $human;
#X obj 272 -8 bng 15 250 50 0 empty empty empty 17 7 0 10 -262144 -1
-1;
#X obj 272 292 bng 15 250 50 0 empty empty empty 17 7 0 10 -262144
-1 -1;
#X text 105 -18 shirt 1;
#X text 413 -18 shirt 2;
#X obj 19 265 cnv 12 60 30 empty empty front 10 12 0 14 -204786 -261234
0;
#X text 402 292 By Richard Cyngler CC BY NC SA 3;
#X connect 0 0 1 0;
#X connect 0 1 3 0;
#X connect 0 2 4 0;
#X connect 5 0 0 0;
#X connect 6 0 7 0;
