#N canvas 0 0 676 449 10;
#X obj 19 321 outlet;
#X obj 81 321 outlet;
#X obj 143 321 outlet;
#X obj 206 321 outlet;
#X obj 37 237 r OSC-in;
#X obj 16 18 inlet;
#X obj 159 17 inlet;
#X obj 302 16 inlet;
#X obj 444 15 inlet;
#X obj 230 195 s OSC-out;
#X obj 37 263 OSCroute \$1;
#X obj 16 90 pack f s;
#X obj 75 41 symbol \$1;
#X obj 75 18 loadbang;
#X obj 159 89 pack f s;
#X obj 218 40 symbol \$1;
#X obj 218 17 loadbang;
#X obj 302 88 pack f s;
#X obj 361 39 symbol \$1;
#X obj 361 16 loadbang;
#X obj 444 87 pack f s;
#X obj 503 38 symbol \$1;
#X obj 503 15 loadbang;
#X msg 16 113 send \$2 \$1;
#X msg 158 112 send \$2 \$1;
#X msg 302 111 send \$2 \$1;
#X msg 444 110 send \$2 \$1;
#X obj 37 289 OSCroute /r /g /b /a /alpha;
#X obj 263 319 outlet;
#X obj 75 64 makesymbol /v%s/r;
#X obj 218 63 makesymbol /v%s/g;
#X obj 361 62 makesymbol /v%s/b;
#X obj 503 61 makesymbol /v%s/a;
#X obj 594 19 inlet;
#X obj 594 91 pack f s;
#X obj 653 42 symbol \$1;
#X obj 653 19 loadbang;
#X msg 594 114 send \$2 \$1;
#X obj 653 65 makesymbol /v%s/alpha;
#X connect 4 0 10 0;
#X connect 5 0 11 0;
#X connect 6 0 14 0;
#X connect 7 0 17 0;
#X connect 8 0 20 0;
#X connect 10 0 27 0;
#X connect 11 0 23 0;
#X connect 12 0 29 0;
#X connect 13 0 12 0;
#X connect 14 0 24 0;
#X connect 15 0 30 0;
#X connect 16 0 15 0;
#X connect 17 0 25 0;
#X connect 18 0 31 0;
#X connect 19 0 18 0;
#X connect 20 0 26 0;
#X connect 21 0 32 0;
#X connect 22 0 21 0;
#X connect 23 0 9 0;
#X connect 24 0 9 0;
#X connect 25 0 9 0;
#X connect 26 0 9 0;
#X connect 27 0 0 0;
#X connect 27 1 1 0;
#X connect 27 2 2 0;
#X connect 27 3 3 0;
#X connect 27 4 28 0;
#X connect 29 0 11 1;
#X connect 30 0 14 1;
#X connect 31 0 17 1;
#X connect 32 0 20 1;
#X connect 33 0 34 0;
#X connect 34 0 37 0;
#X connect 35 0 38 0;
#X connect 36 0 35 0;
#X connect 37 0 9 0;
#X connect 38 0 34 1;
