#N canvas 528 22 792 542 10;
#X obj 242 18 gemhead;
#X obj 42 85 gemwin;
#X msg 42 32 create \, 1;
#X msg 62 58 0 \, destroy;
#X obj 242 44 t a b;
#X obj 242 98 t a b;
#X obj 246 182 translateXYZ 0.1 0 0;
#X floatatom 332 156 5 0 0 0 - - -;
#X obj 244 408 cube 0.1;
#X msg 417 120 0.43;
#N canvas 551 435 541 414 light 0;
#X obj 42 34 gemhead;
#X obj 58 229 world_light;
#X obj 273 71 loadbang;
#X msg 270 96 1 1 1;
#X floatatom 69 96 5 0 0 0 - laits -;
#X obj 24 135 rotateXYZ 0 -120 0;
#X floatatom 163 75 5 0 0 0 - - -;
#X obj 179 25 r light;
#X obj 76 6 loadbang;
#X msg 133 25 -11;
#X msg 394 122 -227;
#X obj 371 69 loadbang;
#X obj 399 171 s lighto;
#X connect 0 0 5 0;
#X connect 2 0 3 0;
#X connect 3 0 1 1;
#X connect 4 0 5 2;
#X connect 5 0 1 0;
#X connect 6 0 5 2;
#X connect 7 0 6 0;
#X connect 8 0 9 0;
#X connect 9 0 6 0;
#X connect 10 0 12 0;
#X connect 11 0 10 0;
#X restore 56 183 pd light;
#X msg 13 -32 fogmode 0 \, fog 0.9 \, color 1 1 0 \, fogcolor 0.9 0.3
0.3 \, lighting 1;
#X obj 60 -55 loadbang;
#X obj 492 97 loadbang;
#X obj 245 285 repeat 10;
#X obj 238 363 translateXYZ 0.1 0 0;
#X floatatom 324 309 5 0 0 0 - - -;
#X floatatom 369 305 5 0 0 0 - - -;
#X obj 242 240 separator;
#X obj 242 75 repeat 500;
#X msg 385 273 0.43;
#X connect 0 0 4 0;
#X connect 2 0 1 0;
#X connect 3 0 1 0;
#X connect 4 0 19 0;
#X connect 5 0 6 0;
#X connect 6 0 18 0;
#X connect 7 0 6 1;
#X connect 9 0 7 0;
#X connect 11 0 1 0;
#X connect 12 0 11 0;
#X connect 13 0 9 0;
#X connect 13 0 20 0;
#X connect 14 0 15 0;
#X connect 15 0 8 0;
#X connect 16 0 15 1;
#X connect 17 0 15 2;
#X connect 18 0 14 0;
#X connect 19 0 5 0;
#X connect 20 0 17 0;
