#N canvas 0 22 454 304 10;
#X obj 129 97 phasor~ 0.5;
#X obj 129 134 snapshot~;
#X obj 129 161 > 0.5;
#X obj 129 183 change;
#X obj 129 206 sel 1;
#X obj 129 229 bng 15 250 20 0 empty empty empty 0 -6 0 8 -262144 -1
-1;
#X floatatom 133 59 5 0 0 0 - - -;
#X obj 132 76 / 10;
#X obj 232 105 metro 1;
#X obj 236 85 tgl 15 1 empty empty empty 0 -6 0 8 -262144 -1 -1 1 1
;
#X connect 0 0 1 0;
#X connect 1 0 2 0;
#X connect 2 0 3 0;
#X connect 3 0 4 0;
#X connect 4 0 5 0;
#X connect 6 0 7 0;
#X connect 7 0 0 0;
#X connect 8 0 1 0;
#X connect 9 0 8 0;
