#N canvas 223 44 683 389 10;
#N canvas 0 22 450 300 phasor 0;
#X obj 142 47 inlet~;
#X obj 148 105 phasor~;
#X obj 153 165 outlet~;
#X obj 273 177 block~ 65536;
#X connect 0 0 1 0;
#X connect 1 0 2 0;
#X restore 238 131 pd phasor;
#X obj 237 171 *~;
#X obj 241 206 dac~;
#X floatatom 305 131 5 0 100 2 volume - -;
#X obj 305 152 / 100;
#X floatatom 223 54 5 0 0 1 Hz - -;
#X obj 224 90 sig~;
#X connect 0 0 1 0;
#X connect 1 0 2 0;
#X connect 1 0 2 1;
#X connect 3 0 4 0;
#X connect 4 0 1 1;
#X connect 5 0 6 0;
#X connect 6 0 0 0;
#X coords 0 0 1 1 95 60 0;
