#N canvas 272 88 903 654 10;
#X obj 373 101 i;
#X obj 373 125 + 1;
#X obj 373 74 metro 100;
#X obj 373 51 bng 15 250 50 0 empty empty empty 17 7 0 10 -262144 -1
-1;
#X obj 155 71 i;
#X obj 155 95 + 1;
#X obj 155 117 % 4;
#X obj 155 48 bng 15 250 50 0 empty empty empty 17 7 0 10 -262144 -1
-1;
#X obj 326 219 pack i i;
#X obj 326 244 route 0 1 2 3;
#X obj 47 313 % 4;
#X obj 47 339 sel 0 1 2 3;
#X msg 47 370 0;
#X msg 77 370 2;
#X msg 107 370 4;
#X msg 137 370 7;
#X obj 373 479 + 60;
#X obj 373 509 mtof;
#X obj 373 536 osc~;
#X obj 372 567 *~ 0.4;
#X obj 373 596 dac~;
#X obj 326 194 f;
#X obj 240 310 % 3;
#X obj 240 336 sel 0 1 2;
#X msg 240 367 4;
#X msg 270 367 7;
#X msg 300 367 9;
#X msg 411 363 7;
#X msg 441 363 9;
#X obj 381 306 % 6;
#X obj 381 332 sel 0 1 2 3 4 5;
#X msg 472 364 5;
#X msg 502 364 9;
#X msg 532 364 11;
#X msg 381 363 12;
#X obj 616 307 % 8;
#X obj 616 333 sel 0 1 2 3 4 5 6 7;
#X msg 616 364 0;
#X msg 646 364 4;
#X msg 676 364 7;
#X msg 707 365 9;
#X msg 737 365 12;
#X msg 767 365 9;
#X msg 797 365 7;
#X msg 827 365 4;
#X text 394 49 GO!;
#X text 66 49 CLICK HERE TO CHANGE PHRASES;
#X floatatom 76 314 5 0 0 0 - - -;
#X floatatom 270 310 5 0 0 0 - - -;
#X floatatom 410 306 5 0 0 0 - - -;
#X floatatom 645 307 5 0 0 0 - - -;
#X obj 213 82 sel 0;
#X obj 213 106 spigot;
#X obj 258 106 tgl 15 0 empty empty empty 17 7 0 10 -262144 -1 -1 1
1;
#X text 237 119 auto-switching;
#X obj 213 59 random 12;
#X connect 0 0 1 0;
#X connect 1 0 0 1;
#X connect 1 0 8 1;
#X connect 2 0 0 0;
#X connect 2 0 21 0;
#X connect 2 0 55 0;
#X connect 3 0 2 0;
#X connect 4 0 5 0;
#X connect 5 0 4 1;
#X connect 5 0 6 0;
#X connect 6 0 21 1;
#X connect 7 0 4 0;
#X connect 8 0 9 0;
#X connect 9 0 10 0;
#X connect 9 1 22 0;
#X connect 9 2 29 0;
#X connect 9 3 35 0;
#X connect 10 0 11 0;
#X connect 10 0 47 0;
#X connect 11 0 12 0;
#X connect 11 1 13 0;
#X connect 11 2 14 0;
#X connect 11 3 15 0;
#X connect 12 0 16 0;
#X connect 13 0 16 0;
#X connect 14 0 16 0;
#X connect 15 0 16 0;
#X connect 16 0 17 0;
#X connect 17 0 18 0;
#X connect 18 0 19 0;
#X connect 19 0 20 0;
#X connect 19 0 20 1;
#X connect 21 0 8 0;
#X connect 22 0 23 0;
#X connect 22 0 48 0;
#X connect 23 0 24 0;
#X connect 23 1 25 0;
#X connect 23 2 26 0;
#X connect 24 0 16 0;
#X connect 25 0 16 0;
#X connect 26 0 16 0;
#X connect 27 0 16 0;
#X connect 28 0 16 0;
#X connect 29 0 30 0;
#X connect 29 0 49 0;
#X connect 30 0 34 0;
#X connect 30 1 27 0;
#X connect 30 2 28 0;
#X connect 30 3 31 0;
#X connect 30 4 32 0;
#X connect 30 5 33 0;
#X connect 31 0 16 0;
#X connect 32 0 16 0;
#X connect 33 0 16 0;
#X connect 34 0 16 0;
#X connect 35 0 36 0;
#X connect 35 0 50 0;
#X connect 36 0 37 0;
#X connect 36 1 38 0;
#X connect 36 2 39 0;
#X connect 36 3 40 0;
#X connect 36 4 41 0;
#X connect 36 5 42 0;
#X connect 36 6 43 0;
#X connect 36 7 44 0;
#X connect 37 0 16 0;
#X connect 38 0 16 0;
#X connect 39 0 16 0;
#X connect 40 0 16 0;
#X connect 41 0 16 0;
#X connect 42 0 16 0;
#X connect 43 0 16 0;
#X connect 44 0 16 0;
#X connect 51 0 52 0;
#X connect 52 0 7 0;
#X connect 53 0 52 1;
#X connect 55 0 51 0;
