#N canvas 0 22 496 271 10;
#X obj 282 204 textfile;
#X msg 294 182 add \$1;
#X obj 282 84 tgl 15 0 empty empty empty 0 -6 0 8 -262144 -1 -1 0 1
;
#X obj 282 56 loadbang;
#X obj 102 109 fiddle~ 2048 3 100 3;
#X msg 352 205 clear;
#X obj 352 182 delay 5;
#X obj 282 112 metro 30;
#X obj 68 70 phasor~ 666;
#X obj 53 162 dac~;
#X msg 283 143 write /Users/roc/mypipe;
#X connect 1 0 0 0;
#X connect 2 0 7 0;
#X connect 3 0 2 0;
#X connect 4 3 1 0;
#X connect 5 0 0 0;
#X connect 6 0 5 0;
#X connect 7 0 10 0;
#X connect 7 0 6 0;
#X connect 8 0 4 0;
#X connect 8 0 9 1;
#X connect 8 0 9 0;
#X connect 10 0 0 0;
