#N canvas 378 437 738 384 12;
#X obj 62 162 gemwin;
#X msg 76 118 create \, 1;
#X obj 234 17 gemhead 1;
#X obj 234 170 rotateXYZ;
#X floatatom 256 119 5 0 0 0 - - -;
#X floatatom 301 143 5 0 0 0 - - -;
#X msg 256 229 draw line;
#X obj 234 259 cube 0.5;
#X obj 523 13 gemhead 99;
#X obj 523 142 pix_snap;
#X obj 547 44 t b;
#X msg 541 69 snap;
#X msg 552 99 0 0;
#X msg 591 98 500 500;
#X obj 523 243 pix_record;
#X msg 609 214 file \$1;
#X obj 609 164 bng 15 250 50 0 empty empty empty 0 -6 0 8 -262144 -1
-1;
#X obj 609 187 savepanel;
#X msg 440 209 record \$1;
#X obj 440 186 tgl 15 0 empty empty empty 0 -6 0 8 -262144 -1 -1 0
1;
#X connect 1 0 0 0;
#X connect 2 0 3 0;
#X connect 3 0 7 0;
#X connect 4 0 3 1;
#X connect 5 0 3 3;
#X connect 6 0 7 0;
#X connect 8 0 9 0;
#X connect 8 0 10 0;
#X connect 9 0 14 0;
#X connect 10 0 11 0;
#X connect 11 0 9 0;
#X connect 12 0 9 1;
#X connect 13 0 9 2;
#X connect 15 0 14 0;
#X connect 16 0 17 0;
#X connect 17 0 15 0;
#X connect 18 0 14 0;
#X connect 19 0 18 0;
