#N canvas 618 171 722 739 10;
#X obj 45 84 gemhead;
#X obj 185 386 pix_texture;
#X obj 185 438 rectangle 2 2;
#X msg 185 40 create \, 1;
#X obj 185 95 gemwin;
#X msg 198 65 0 \, destroy;
#X obj 409 243 tgl 15 0 empty empty without_reload 17 7 0 10 -260097
-1 -1 0 1;
#X obj 257 182 bng 15 250 50 0 empty empty reload_images 17 7 0 10
-257985 -1 -1;
#X obj 185 234 pix_image photo.jpg;
#X obj 185 326 pix_invert;
#X text 305 355 (same for other pix effects);
#X obj 185 411 translateXYZ 2 0 0;
#X obj 45 110 t a a;
#X text 186 20 1st:;
#X msg 257 205 open photo.jpg;
#X obj 47 352 pix_info --------;
#X obj 188 348 pix_info --------;
#X obj 211 303 f;
#X obj 186 281 t a b;
#X obj 71 297 f;
#X obj 46 275 t a b;
#X obj 46 324 pix_invert;
#X obj 45 234 pix_image photo.jpg;
#X obj 45 386 pix_texture;
#X obj 45 411 translateXYZ -2 0 0;
#X obj 45 439 rectangle 2 2;
#X obj 183 145 separator;
#X connect 0 0 12 0;
#X connect 1 0 11 0;
#X connect 3 0 4 0;
#X connect 5 0 4 0;
#X connect 6 0 17 1;
#X connect 6 0 19 1;
#X connect 7 0 14 0;
#X connect 8 0 18 0;
#X connect 9 0 16 0;
#X connect 11 0 2 0;
#X connect 12 0 22 0;
#X connect 12 1 26 0;
#X connect 14 0 8 0;
#X connect 14 0 22 0;
#X connect 15 0 23 0;
#X connect 16 0 1 0;
#X connect 17 0 9 0;
#X connect 18 0 9 0;
#X connect 18 1 17 0;
#X connect 19 0 21 0;
#X connect 20 0 21 0;
#X connect 20 1 19 0;
#X connect 21 0 15 0;
#X connect 22 0 20 0;
#X connect 23 0 24 0;
#X connect 24 0 25 0;
#X connect 26 0 8 0;
