#N canvas 200 148 863 652 10;
#X obj 40 67 inlet;
#X msg 114 253 open \$1;
#X obj 141 372 until;
#X obj 141 332 t f b;
#X obj 141 392 i;
#X obj 174 393 + 1;
#X msg 83 198 0;
#X obj 83 176 loadbang;
#X obj 40 90 route set open;
#X msg 40 132 set \$1;
#X obj 83 493 pix_buffer_write \$1;
#X obj 114 148 unpack s 0;
#X obj 114 122 t a b;
#X obj 187 174 t f;
#X msg 192 148 0;
#X obj 40 111 symbol;
#X obj 141 415 t b f f f;
#X obj 181 441 + 0;
#X msg 186 372 0;
#X text 24 19 read a film into a buffer;
#X obj 109 532 outlet info;
#X obj 238 532 outlet finished;
#X obj 184 334 t b;
#X obj 109 306 t a a;
#X obj 109 455 t a b;
#X obj 83 278 pix_film bass2.avi;
#X obj 83 223 gemhead 2;
#X text 317 234 TODO:;
#X text 362 234 set upper limit to write to;
#X text 361 249 guess write-limit from pix_buffer size;
#X text 322 318 ATTENTION:;
#X text 407 318 this object will only work with rendering turned on
;
#X text 374 441 (c) copyleft 2009 Max Neupert;
#X text 373 423 (c) copyleft 2008-2009 IOhannes m zmoelnig \, IEM \,
KUG;
#X connect 0 0 8 0;
#X connect 1 0 25 0;
#X connect 2 0 4 0;
#X connect 3 0 2 0;
#X connect 3 1 18 0;
#X connect 4 0 5 0;
#X connect 4 0 16 0;
#X connect 5 0 4 1;
#X connect 6 0 26 0;
#X connect 7 0 6 0;
#X connect 8 0 15 0;
#X connect 8 1 12 0;
#X connect 9 0 10 0;
#X connect 11 0 1 0;
#X connect 11 1 13 0;
#X connect 12 0 11 0;
#X connect 12 1 14 0;
#X connect 13 0 17 1;
#X connect 14 0 13 0;
#X connect 15 0 9 0;
#X connect 16 0 26 0;
#X connect 16 1 25 1;
#X connect 16 2 17 0;
#X connect 17 0 10 1;
#X connect 18 0 4 1;
#X connect 22 0 2 1;
#X connect 23 0 24 0;
#X connect 23 1 3 0;
#X connect 24 0 20 0;
#X connect 24 1 21 0;
#X connect 25 0 10 0;
#X connect 25 1 23 0;
#X connect 25 2 22 0;
#X connect 26 0 25 0;
