#N canvas 475 32 928 936 12;
#X obj 43 502 gemhead;
#X msg 248 424 enumerate;
#X msg 246 477 close;
#X obj 57 840 pix_texture2;
#X obj 248 401 tgl 15 0 empty empty empty 0 -6 0 8 -262144 -1 -1 0
1;
#X msg 251 536 dv res full;
#X msg 250 559 dv res half;
#X msg 249 580 dv res quarter;
#X msg 250 606 dv res dc;
#X text 597 21 pix_video_ds;
#X text 347 393 enable/disable;
#X text 346 420 list available devices;
#X text 348 447 open device N;
#X text 349 476 close the device;
#X text 382 538 (DV only) set decode res to full;
#X text 382 559 (DV only) set decode res to half;
#X text 382 581 (DV only) set decode res to quarter;
#X text 381 606 (DV only) set decode res to dc;
#X text 597 37 Live video capture using DirectShow;
#X obj 138 346 gemwin;
#X msg 162 67 create;
#X msg 167 97 destroy;
#X msg 202 134 1;
#X msg 225 158 0;
#X obj 60 666 pix_rgba;
#X obj 57 801 pix_film;
#X msg 159 653 1;
#X msg 165 676 0;
#X obj 97 722 pix_alpha;
#X obj 107 760 color;
#X msg 211 775 0.4 0 0 0.1;
#X msg 194 892 1 0 0 0.1;
#X msg 194 861 1 0 0 0.5;
#X msg 190 834 1 0 0 0.9;
#X msg 211 750 0.4 0 0 0.5;
#X msg 211 725 0.4 0 0 0.9;
#X msg 293 797 0.5 0 0 0.9;
#X msg 294 824 0.5 0 0 0.5;
#X msg 293 847 0.5 0 0 0.1;
#X msg 346 716 0 0 0;
#X text 342 695 Coloca a preto;
#X text 289 867 Diferentes tons de vermelho e de alfa;
#X text 342 747 Coloca a branco;
#X msg 347 769 1 1 1;
#X msg 442 796 0.9 1 1;
#X msg 442 821 0.5 1 1;
#X msg 444 846 0.1 1 1;
#X text 53 28 Inicializacoes;
#N canvas 530 115 658 422 Gem.init 1;
#X obj 136 57 loadbang;
#X obj 154 92 t b b;
#X msg 276 129 reset;
#X obj 123 208 outlet;
#X msg 283 173 fogcolor 1 0 0;
#X text 823 412 Carregamento do CPU em %;
#X text 823 412 Carregamento do CPU em %;
#X text 823 412 Carregamento do CPU em %;
#X text 192 207 Inicializa o nevoeiro a vermelho;
#X msg 41 167 dimen 640 480;
#X connect 0 0 1 0;
#X connect 1 0 9 0;
#X connect 1 0 4 0;
#X connect 1 1 2 0;
#X connect 2 0 3 0;
#X connect 4 0 3 0;
#X connect 9 0 3 0;
#X restore 49 74 pd Gem.init;
#X obj 58 880 rectangle 4 3;
#X obj 664 71 loadbang;
#X msg 663 102 1;
#X floatatom 661 130 5 0 0;
#X obj 665 159 metro 1000;
#X obj 665 186 t b b;
#X obj 673 245 int;
#X obj 673 279 * 0.1;
#X floatatom 671 316 5 0 0;
#X obj 663 214 cputime;
#X text 619 345 Carregamento do CPU em %;
#X text 713 130 on/off;
#X msg 248 450 open;
#N canvas 668 249 589 402 setup_dv 0;
#X obj 69 240 pix_video_ds;
#X msg 124 111 dialog format;
#X msg 124 139 dialog crossbar;
#X msg 124 162 dialog source;
#X msg 125 187 dialog display;
#X text 256 120 display format dialog;
#X text 253 94 display all configuration dialogs;
#X text 256 144 display crossbar dialog;
#X text 258 171 display source dialog;
#X text 257 194 display display dialog;
#X msg 125 83 setup;
#X obj 31 43 r \$1;
#X obj 34 73 print \$1;
#X msg 124 49 open;
#X connect 11 0 12 0;
#X restore 59 126 pd setup_dv;
#X msg 42 746 1;
#X text 14 773 Qualidade Linear;
#X obj 167 300 r fogness;
#X msg 294 38 \; fogness fogmode 0 \;;
#X text 331 19 Sem nevoeiro;
#X text 328 78 nevoeiro linear;
#X msg 294 94 \; fogness fogmode 1 \; fogness fog 0.7;
#X text 328 150 nevoeiro exponencial;
#X text 329 228 nevoeiro exp ^2;
#X msg 294 166 \; fogness fogmode 2 \; fogness fog 0.1;
#X msg 295 244 \; fogness fogmode 3 \; fogness fog 0.1;
#X obj 216 326 r gemwin_param;
#X obj 53 639 pix_video_ds;
#X connect 0 0 75 0;
#X connect 1 0 75 0;
#X connect 2 0 75 0;
#X connect 3 0 49 0;
#X connect 4 0 75 0;
#X connect 5 0 75 0;
#X connect 6 0 75 0;
#X connect 7 0 75 0;
#X connect 8 0 75 0;
#X connect 20 0 19 0;
#X connect 21 0 19 0;
#X connect 22 0 19 0;
#X connect 23 0 19 0;
#X connect 24 0 28 0;
#X connect 25 0 3 0;
#X connect 26 0 28 2;
#X connect 27 0 28 2;
#X connect 28 0 29 0;
#X connect 29 0 25 0;
#X connect 30 0 29 1;
#X connect 31 0 29 1;
#X connect 32 0 29 1;
#X connect 33 0 29 1;
#X connect 34 0 29 1;
#X connect 35 0 29 1;
#X connect 36 0 29 1;
#X connect 37 0 29 1;
#X connect 38 0 29 1;
#X connect 39 0 29 1;
#X connect 43 0 29 1;
#X connect 44 0 29 1;
#X connect 45 0 29 1;
#X connect 46 0 29 1;
#X connect 48 0 19 0;
#X connect 50 0 51 0;
#X connect 51 0 52 0;
#X connect 52 0 53 0;
#X connect 53 0 54 0;
#X connect 54 0 58 0;
#X connect 54 1 58 1;
#X connect 55 0 56 0;
#X connect 56 0 57 0;
#X connect 58 0 55 0;
#X connect 61 0 75 0;
#X connect 65 0 19 0;
#X connect 74 0 19 0;
#X connect 75 0 24 0;
