#N canvas 497 108 711 635 10;
#X floatatom 208 -337 5 0 0 0 - - -;
#X floatatom 266 -338 5 0 0 0 - - -;
#X obj 209 -360 unpack f f;
#X floatatom 209 -274 20 0 0 0 - - -;
#X obj 3 -377 bng 15 250 50 0 end empty empty 17 7 0 10 -262144 -1
-1;
#X text 500 -458 logika za puskane na filmi;
#N canvas 497 304 659 434 choise 0;
#X msg 105 -97 0;
#X msg 133 -96 3;
#X msg 164 -96 6;
#X msg 104 -143 symbol foo;
#X obj 105 -119 cycle 3;
#X obj 279 -79 bng 15 250 50 0 empty laugh empty 17 7 0 10 -257985
-1 -1;
#X obj 309 -79 bng 15 250 50 0 empty scream empty 17 7 0 10 -258113
-1 -1;
#X msg 279 -57 1;
#X msg 309 -56 2;
#X msg 411 44 8;
#X obj 266 -24 gate 3;
#X obj 109 -67 sel 0 3 6;
#X msg 266 47 1;
#X msg 296 47 2;
#X obj 266 26 sel 1 2;
#X obj 327 25 sel 1 2;
#X obj 384 25 sel 1 2;
#X msg 327 46 4;
#X msg 354 46 5;
#X msg 384 44 7;
#X obj 104 -177 inlet;
#X obj 13 -78 outlet;
#X obj 266 93 outlet;
#X msg 109 -42 1;
#X msg 138 -42 2;
#X msg 167 -42 3;
#X text 3 -58 still films;
#X text 339 -24 otvarq gate za BoxBangs ot suotvetniq film;
#X text 331 -78 scream;
#X text 237 -80 laugh;
#X connect 0 0 11 0;
#X connect 0 0 21 0;
#X connect 1 0 11 0;
#X connect 1 0 21 0;
#X connect 2 0 11 0;
#X connect 2 0 21 0;
#X connect 3 0 4 0;
#X connect 4 0 0 0;
#X connect 4 1 1 0;
#X connect 4 2 2 0;
#X connect 5 0 7 0;
#X connect 6 0 8 0;
#X connect 7 0 10 1;
#X connect 8 0 10 1;
#X connect 9 0 22 0;
#X connect 10 0 14 0;
#X connect 10 1 15 0;
#X connect 10 2 16 0;
#X connect 11 0 23 0;
#X connect 11 1 24 0;
#X connect 11 2 25 0;
#X connect 12 0 22 0;
#X connect 13 0 22 0;
#X connect 14 0 12 0;
#X connect 14 1 13 0;
#X connect 15 0 17 0;
#X connect 15 1 18 0;
#X connect 16 0 19 0;
#X connect 16 1 9 0;
#X connect 17 0 22 0;
#X connect 18 0 22 0;
#X connect 19 0 22 0;
#X connect 20 0 3 0;
#X connect 23 0 10 0;
#X connect 24 0 10 0;
#X connect 25 0 10 0;
#X restore 3 -354 pd choise;
#X obj 54 -332 s action;
#X obj 3 -331 s still;
#X obj 202 -415 r still;
#X obj 253 -415 r action;
#X obj 209 -385 Playlist;
#X floatatom 341 -274 20 0 0 0 - - -;
#X obj 209 -249 s in;
#X obj 342 -249 s out;
#X obj 24 -81 phasor~;
#X obj 25 -20 tabread4~ channelL;
#X obj 70 6 tabread4~ channelR;
#X obj 25 96 dac~ 1 2;
#X obj 25 72 *~;
#X obj 70 71 *~;
#X obj 85 36 r volume;
#X obj 23 -233 r in;
#X obj 104 -234 r out;
#X text 30 -191 duration in samples;
#X text 35 -121 convert duration to phasor freq;
#X obj 221 -24 snapshot~;
#X obj 221 -3 / 1764;
#X obj 221 60 s playFilm;
#X floatatom 315 59 5 0 0 0 - - -;
#X text 211 90 current frame \, send to pix_film;
#X obj 221 34 change;
#X obj 221 -50 metro 40;
#X obj 221 -68 tgl 15 0 empty empty empty 17 7 0 10 -262144 -1 -1 1
1;
#X obj 23 -212 expr ($f2-$f1);
#X obj 23 -47 *~;
#X obj 90 -77 r in;
#X obj 208 -317 * 1764;
#X obj 266 -317 * 1764;
#X obj 24 -139 expr (1 / ($f1/44100));
#X text -61 -312 logic for changing the clips(not ready yet);
#X text 284 -387 list wit beggining and end of the movie parts;
#X text 313 -319 nfps (44100/25);
#X text 183 -226 beggining of clip;
#X text 351 -228 end of clip;
#X connect 0 0 37 0;
#X connect 1 0 38 0;
#X connect 2 0 0 0;
#X connect 2 1 1 0;
#X connect 3 0 13 0;
#X connect 4 0 6 0;
#X connect 6 0 8 0;
#X connect 6 1 7 0;
#X connect 9 0 11 0;
#X connect 10 0 11 0;
#X connect 11 0 2 0;
#X connect 12 0 14 0;
#X connect 15 0 35 0;
#X connect 16 0 19 0;
#X connect 17 0 20 0;
#X connect 19 0 18 0;
#X connect 20 0 18 1;
#X connect 21 0 19 1;
#X connect 21 0 20 1;
#X connect 22 0 34 0;
#X connect 23 0 34 1;
#X connect 26 0 27 0;
#X connect 27 0 29 0;
#X connect 27 0 31 0;
#X connect 31 0 28 0;
#X connect 32 0 26 0;
#X connect 33 0 32 0;
#X connect 34 0 39 0;
#X connect 35 0 16 0;
#X connect 35 0 17 0;
#X connect 35 0 26 0;
#X connect 36 0 35 1;
#X connect 37 0 3 0;
#X connect 38 0 12 0;
#X connect 39 0 15 0;
