#N canvas 221 632 1150 301 10;
#N canvas 903 30 385 99 playstation-gui 1;
#X obj -1 -2 cnv 15 326 100 empty empty empty 20 12 0 14 -1 -66577
0;
#X obj 2 13 vsl 8 65 0 0.9 0 0 am-level-s am-level-r am-synth 0 -8
1 9 -62784 -241291 -250685 0 1;
#X obj 2 83 tgl 8 0 am-switch-s am-switch-r empty 0 -6 0 8 -260818
-1 -1 0 0.5;
#X obj 179 43 tgl 8 0 acid1-s acid1-r empty 0 -6 0 8 -355 -241291 -1
0 1;
#X obj 192 43 hsl 128 8 600 40 0 0 acid1-force-s acid1-force-r acid
15 4 1 9 -241291 -24198 -62784 0 1;
#X obj 179 51 tgl 8 0 acid2-s acid2-r empty 0 -6 0 8 -260818 -1 -1
0 1;
#X obj 192 51 hsl 61 8 0.1 20 1 0 bubble-s bubble-r acid-bubbles 0
4 1 9 -44926 -1 -260818 0 1;
#X obj 12 13 vsl 8 75 0.25 2048 0 0 amsynth1-s amsynth1-r empty 0 -8
1 9 -241291 -24198 -1 0 1;
#X obj 19 13 vsl 8 75 0.25 512 0 0 amsynth2-s amsynth2-r empty 0 -8
0 8 -44926 -250685 -1 0 1;
#X obj 27 13 vsl 8 75 0.25 512 0 0 amsynth3-s amsynth3-r empty 0 -8
0 8 -260818 -24198 -1 0 1;
#X obj 35 13 vsl 8 75 0.125 16 0 0 amsynth4-s amsynth4-r empty 0 -8
0 8 -24198 -258699 -1 0 1;
#X obj 192 11 hsl 128 8 0 2 0 0 racer-s racer-r racer 15 4 1 9 -195568
-250685 -228992 0 1;
#X obj 179 11 tgl 8 0 racerswitch-s racerswitch-r empty 0 -6 0 8 -99865
-262144 -1 0 1;
#X obj 192 19 hsl 128 8 0 100 0 0 high-volt-s high-volt-r high-voltage
6 4 1 9 -258699 -1 -241291 0 1;
#X obj 179 19 tgl 8 0 volt-s volt-r empty 0 6 0 9 -260818 -24198 -1
0 1;
#X obj 179 27 tgl 8 0 rain-s rain-r empty 13 5 1 10 -62784 -24198 -24198
0 1;
#X obj 179 35 tgl 8 0 blubub-s blubub-r empty 0 6 0 9 -44926 -250685
-1 0 1;
#X obj 192 35 hsl 128 8 52 250 0 0 blububspeed-s blububspeed-r blububber
6 4 1 9 -42814 -1 -163710 0 1;
#X obj 192 27 hsl 128 8 0 1.2 0 0 raingain-s raingain-r raining 6 4
1 9 -355 -44926 -228992 0 1;
#X obj 58 13 vsl 8 75 2 2000 0 0 chp-f1-s chp-f1-r empty 2 10 1 9 -241291
-24198 -1 0 1;
#X obj 48 13 vsl 8 65 0 1 0 0 chp-level-s chp-level-r chaospipe 0 -8
1 9 -258699 -241291 -260818 0 1;
#X obj 48 83 tgl 8 0 chp-switch-s chp-switch-r empty 0 -6 0 8 -260818
-1 -1 0 0.5;
#X obj 65 13 vsl 8 75 2 2000 0 0 chp-f2-s chp-f2-r empty 2 10 1 9 -355
-250685 -241291 0 1;
#X obj 73 13 vsl 8 75 2 2000 0 0 chp-f3-s chp-f3-r empty 2 10 1 9 -261681
-99865 -250685 0 1;
#X obj 81 13 vsl 8 75 2 100 0 0 chp-dense-s chp-dense-r empty 2 10
1 9 -195568 -99865 -44926 0 1;
#X obj 97 13 vsl 8 75 2 100 0 0 chp-tresh-s chp-tresh-r empty 2 10
1 9 -62784 -99865 -241291 0 1;
#X obj 105 13 vsl 8 75 0 1 0 0 chp-clip-s chp-clip-r empty 2 10 1 9
-241291 -99865 -355 0 1;
#X obj 89 13 vsl 8 75 2 100 0 0 chp-reso-s chp-reso-r empty 2 10 1
9 -258699 -241291 -24198 0 1;
#X obj 259 51 hsl 61 8 1 60 0 0 bubble2-s bubble2-r bubbles-attack
0 4 1 9 -24198 -241291 -258699 0 1;
#X obj 179 59 tgl 8 0 fire-vol-s fire-vol-r empty 0 -6 0 8 -258699
-1 -1 0 1;
#X obj 192 59 hsl 128 8 0 0.33 0 0 fire-s fire-r fire 15 4 1 9 -260818
-241291 -258699 12700 1;
#X obj 192 67 hsl 128 8 50 600 0 0 droid-speed-s droid-speed-r droids
15 4 1 9 -225280 -90881 -258699 0 1;
#X obj 179 67 tgl 8 0 droid-s droid-r empty 0 -6 0 8 -257472 -250685
-1 0 1;
#X obj 127 13 vsl 8 75 0 250 0 0 laser1-s laser1-r empty 2 -7 1 9 -241611
-24198 -355 0 1;
#X obj 134 13 vsl 8 75 0 250 0 0 laser2-s laser2-r empty 2 -7 1 9 -24198
-241291 -355 0 1;
#X obj 142 13 vsl 8 75 0 250 0 0 laser3-s laser3-r empty 2 -7 1 9 -241291
-260818 -355 0 1;
#X obj 150 13 vsl 8 75 0 250 0 0 laser4-s laser4-r empty 2 -7 1 9 -172731
-228992 -355 0 1;
#X obj 158 13 vsl 8 75 0 250 0 0 laser5-s laser5-r empty 2 -7 1 9 -260364
-24198 -355 0 1;
#X obj 117 83 tgl 8 0 laser-s laser-r empty 0 -6 0 8 -257472 -250685
-1 0 1;
#X obj 117 13 vsl 8 65 500 2000 0 0 laser-x-s laser-x-r laser 0 -8
1 9 -99865 -241291 -62784 0 1;
#X obj 166 13 vsl 8 75 0 250 0 0 laser6-s laser6-r empty 2 -7 1 9 -250685
-355 -355 0 1;
#X obj 335 13 bng 12 250 50 0 police jjjjjjjjjjjjjjjjjjjjjjj o_no!
13 6 1 9 -62784 -44926 -1;
#X obj 335 28 bng 12 250 50 0 thunder jjjjjjjjjjjjjjjjjjjjjjj wrbum
13 6 1 9 -241291 -44926 -1;
#X obj 192 75 hsl 128 8 0 35 0 0 stream-v-s stream-v-r stream 15 4
1 9 -62784 -44926 -225280 0 1;
#X obj 179 75 tgl 8 0 stream-s stream-r empty 0 -6 0 8 -44926 -225280
-1 0 1;
#X obj 192 83 hsl 61 8 1 200 1 0 wind1-s wind1-r wind1 15 4 1 9 -228992
-128992 -62784 0 1;
#X obj 179 83 tgl 8 0 wind-s wind-r empty 0 -6 0 8 -225271 -24198 -1
0 1;
#X obj 259 83 hsl 61 8 1 200 1 0 wind2-s wind2-r wind2 15 4 1 9 -233017
-128992 -62784 0 1;
#X restore 39 10 pd playstation-gui;
#N canvas 395 511 507 304 acid1 0;
#X obj 121 43 noise~;
#X obj 177 114 *~;
#X obj 216 80 bp~ 4094 69;
#X obj 122 81 bp~ 2519 69;
#X obj 176 161 bp~ 5000 5;
#X obj 177 137 *~ 12;
#X obj 177 183 clip~ -1 1;
#X obj 177 210 *~ 2;
#X obj 261 250 switch~;
#X obj 178 250 outlet~;
#X obj 261 221 netpd-fx \$0 acid1-s acid1-r 0;
#X obj 161 10 netpd-flx \$0 acid1-force-s acid1-force-r 600;
#X connect 0 0 2 0;
#X connect 0 0 3 0;
#X connect 1 0 5 0;
#X connect 2 0 1 1;
#X connect 3 0 1 0;
#X connect 4 0 6 0;
#X connect 5 0 4 0;
#X connect 6 0 7 0;
#X connect 7 0 9 0;
#X connect 10 0 8 0;
#X connect 11 0 3 2;
#X connect 11 0 2 2;
#X restore 44 75 pd acid1;
#X obj 419 220 i2mx~ \$0 p-station;
#N canvas 758 23 599 723 acid2 0;
#X obj 204 357 *~;
#X obj 185 172 random 100;
#X msg 185 245 bang;
#X text 119 270 amplitude;
#X text 206 271 pitch;
#X obj 205 376 *~ 0.03;
#X obj 87 83 f 0;
#X obj 118 83 + 1;
#X obj 87 108 mod 200;
#X obj 87 135 sel 29 37 47 67 89 113 157 197;
#X obj 87 57 metro 1;
#X obj 236 247 + 30;
#X obj 185 192 moses 29;
#X obj 273 227 * 80;
#X obj 206 529 clip~ -0.8 0.8;
#X obj 273 246 + 6600;
#X obj 238 228 * 5;
#X obj 207 551 bp~ 3000 5;
#X obj 206 573 lop~ 4000;
#X obj 204 311 *~;
#X obj 204 333 osc~;
#X obj 205 424 *~;
#X obj 225 401 osc~ 10;
#X obj 206 468 *~;
#X obj 226 445 osc~ 500;
#X obj 249 204 + 1;
#X obj 206 669 outlet~;
#X obj 382 129 netpd-flx \$0 bubble-s bubble-r;
#X obj 8 54 switch~;
#X obj 8 25 netpd-fx \$0 acid2-s acid2-r 0;
#X obj 341 163 netpd-flx \$0 bubble2-s bubble2-r;
#X obj 208 501 *~ 8;
#X obj 207 628 *~ 2;
#X obj 56 288 m-var~ 15 10 6;
#X obj 204 290 m-var~ 400 10 6;
#X connect 0 0 5 0;
#X connect 1 0 12 0;
#X connect 2 0 33 0;
#X connect 2 0 34 0;
#X connect 5 0 21 0;
#X connect 6 0 7 0;
#X connect 6 0 8 0;
#X connect 7 0 6 1;
#X connect 8 0 9 0;
#X connect 9 0 1 0;
#X connect 9 1 1 0;
#X connect 9 2 1 0;
#X connect 9 3 1 0;
#X connect 9 4 1 0;
#X connect 9 5 1 0;
#X connect 9 6 1 0;
#X connect 9 7 1 0;
#X connect 10 0 6 0;
#X connect 11 0 34 1;
#X connect 12 0 2 0;
#X connect 12 0 25 0;
#X connect 13 0 15 0;
#X connect 14 0 17 0;
#X connect 15 0 19 1;
#X connect 16 0 11 0;
#X connect 17 0 18 0;
#X connect 18 0 32 0;
#X connect 19 0 20 0;
#X connect 20 0 0 0;
#X connect 21 0 23 0;
#X connect 22 0 21 1;
#X connect 23 0 31 0;
#X connect 24 0 23 1;
#X connect 25 0 16 0;
#X connect 25 0 13 0;
#X connect 27 0 33 3;
#X connect 27 0 34 3;
#X connect 29 0 28 0;
#X connect 29 0 10 0;
#X connect 30 0 33 2;
#X connect 30 0 34 2;
#X connect 31 0 14 0;
#X connect 32 0 26 0;
#X connect 33 0 0 1;
#X connect 34 0 19 0;
#X restore 104 75 pd acid2;
#N canvas 178 153 532 436 am-synth 0;
#X obj 161 365 outlet~;
#X obj 208 219 *~ 0.3;
#X obj 209 181 *~;
#X obj 159 131 *~;
#X obj 92 80 *~;
#X obj 209 289 *~ 0.3;
#X obj 208 251 hip~ 20;
#X obj 6 34 osc~ 128;
#X obj 6 12 netpd-flx \$0 amsynth1-s amsynth1-r 128;
#X obj 109 37 netpd-flx \$0 amsynth2-s amsynth2-r 16;
#X obj 109 57 osc~ 16;
#X obj 174 89 netpd-flx \$0 amsynth3-s amsynth3-r 8;
#X obj 174 109 osc~ 8;
#X obj 224 133 netpd-flx \$0 amsynth4-s amsynth4-r 0.5;
#X obj 224 155 osc~ 0.5;
#X obj 246 270 netpd-flx \$0 am-level-s am-level-r 0.5;
#X obj 251 345 switch~;
#X obj 251 322 netpd-flx \$0 am-switch-s am-switch-r 0;
#X obj 88 365 outlet~;
#X obj 59 263 *~ 0.3;
#X obj 54 237 *~;
#X obj 60 333 *~ 0.3;
#X obj 59 295 hip~ 20;
#X obj 82 170 + 0.5;
#X obj 73 216 osc~ 0.5;
#X obj 81 190 osc~ 0.5;
#X connect 1 0 6 0;
#X connect 2 0 1 0;
#X connect 3 0 2 0;
#X connect 3 0 20 0;
#X connect 4 0 3 0;
#X connect 5 0 0 0;
#X connect 6 0 5 0;
#X connect 7 0 4 0;
#X connect 8 0 7 0;
#X connect 9 0 10 0;
#X connect 10 0 4 1;
#X connect 11 0 12 0;
#X connect 12 0 3 1;
#X connect 13 0 14 0;
#X connect 13 0 23 0;
#X connect 14 0 2 1;
#X connect 15 0 5 1;
#X connect 15 0 21 1;
#X connect 17 0 16 0;
#X connect 19 0 22 0;
#X connect 20 0 19 0;
#X connect 21 0 18 0;
#X connect 22 0 21 0;
#X connect 23 0 25 0;
#X connect 24 0 20 1;
#X connect 25 0 24 0;
#X restore 168 76 pd am-synth;
#N canvas 437 465 795 383 racer 0;
#X obj 153 199 line;
#X msg 221 165 0 1;
#X msg 153 166 0.6 3000;
#X msg 86 167 0.88 100;
#N canvas 0 0 1253 916 engine2 0;
#X obj 110 388 +~;
#X obj 110 358 phasor~;
#X obj 141 436 cos~;
#X obj 141 413 -~ 0.25;
#X obj 141 387 *~ 0.5;
#X obj 110 735 *~;
#X text 65 244 primary oscil;
#X obj 140 483 *~;
#X obj 141 459 *~ 1;
#X obj 359 225 noise~;
#X obj 110 711 *~;
#X obj 358 317 osc~;
#X obj 140 505 *~;
#X obj 141 527 *~;
#X obj 359 272 *~ 400;
#X obj 359 293 +~ 300;
#X obj 415 159 * 300;
#X obj 142 551 *~;
#X obj 143 573 *~;
#X obj 143 598 *~;
#X obj 144 620 *~;
#X obj 110 270 * 200;
#X obj 359 247 bp~ 100 10;
#X obj 279 223 noise~;
#X obj 278 315 osc~;
#X obj 279 245 bp~ 400 20;
#X obj 277 341 *~ 0.25;
#X obj 279 270 *~ 800;
#X obj 185 711 *~;
#X obj 253 757 bp~ 1600 2;
#X obj 276 378 clip~ -0.75 0.76;
#X obj 279 291 +~ 300;
#X obj 335 157 * 150;
#X obj 110 758 bp~ 700 1;
#X obj 184 757 bp~ 900 1;
#X obj 185 799 *~ 0.1;
#X obj 279 101 inlet;
#X text 269 79 engine speed;
#X obj 185 821 outlet~;
#X obj 110 296 +~ 12;
#X obj 109 327 +~;
#X obj 163 300 r~ overdrive;
#X obj 185 330 env~;
#X obj 345 190 +;
#X obj 421 197 +;
#X connect 0 0 10 0;
#X connect 1 0 0 0;
#X connect 1 0 4 0;
#X connect 2 0 8 0;
#X connect 3 0 2 0;
#X connect 4 0 3 0;
#X connect 5 0 33 0;
#X connect 7 0 12 0;
#X connect 7 0 12 1;
#X connect 8 0 7 0;
#X connect 8 0 7 1;
#X connect 9 0 22 0;
#X connect 10 0 5 0;
#X connect 11 0 26 0;
#X connect 11 0 28 1;
#X connect 12 0 13 0;
#X connect 12 0 13 1;
#X connect 13 0 17 0;
#X connect 13 0 17 1;
#X connect 14 0 15 0;
#X connect 15 0 11 0;
#X connect 16 0 44 0;
#X connect 17 0 18 0;
#X connect 17 0 18 1;
#X connect 18 0 19 0;
#X connect 18 0 19 1;
#X connect 18 0 28 0;
#X connect 19 0 20 0;
#X connect 19 0 20 1;
#X connect 20 0 5 1;
#X connect 21 0 39 0;
#X connect 22 0 14 0;
#X connect 23 0 25 0;
#X connect 24 0 26 0;
#X connect 24 0 10 1;
#X connect 25 0 27 0;
#X connect 26 0 30 0;
#X connect 27 0 31 0;
#X connect 28 0 34 0;
#X connect 29 0 35 0;
#X connect 30 0 29 0;
#X connect 31 0 24 0;
#X connect 32 0 43 0;
#X connect 33 0 35 0;
#X connect 34 0 35 0;
#X connect 35 0 38 0;
#X connect 36 0 21 0;
#X connect 36 0 32 0;
#X connect 36 0 16 0;
#X connect 39 0 40 0;
#X connect 40 0 1 0;
#X connect 41 0 40 1;
#X connect 41 0 42 0;
#X connect 42 0 43 1;
#X connect 42 0 44 1;
#X connect 43 0 25 1;
#X connect 43 0 31 1;
#X connect 44 0 22 1;
#X connect 44 0 15 1;
#X restore 326 211 pd engine2;
#X obj 262 183 r speed;
#N canvas 173 185 863 865 wheels 0;
#X obj 87 200 noise~;
#X obj 72 487 *~;
#X obj 88 411 *~;
#X obj 88 436 *~;
#X obj 89 461 *~;
#X obj 243 583 *~ 0.5;
#X obj 105 628 *~;
#X obj 247 505 *~;
#X obj 247 527 *~;
#X obj 244 548 *~;
#X obj 251 480 osc~ 6;
#X obj 29 415 phasor~;
#X obj 72 513 *~ 0.5;
#X obj 62 568 vcf~;
#X obj 98 568 vcf~;
#X obj 134 567 vcf~;
#X obj 169 567 vcf~;
#X obj 266 125 +~;
#X obj 187 208 *~ 1000;
#X obj 242 208 *~ 1050;
#X obj 297 208 *~ 1100;
#X obj 352 208 *~ 1250;
#X obj 244 99 sig~;
#X obj 282 76 *~ 0.13;
#X obj 282 98 abs~;
#X obj 281 52 osc~ 1.5;
#X obj 106 677 clip~ -1 1;
#X obj 106 653 *~ 0.005;
#X obj 351 74 *~ 0.1;
#X obj 350 50 osc~ 0.1;
#X obj 18 394 +~;
#X obj 414 187 *~ 800;
#X obj 412 209 +~ 200;
#X obj 34 322 *~ 100;
#X obj 34 342 +~ 70;
#X obj 18 371 *~;
#X obj 107 701 *~;
#X obj 88 296 vcf~;
#X obj 89 319 *~ 5;
#X obj 108 257 *~ 2000;
#X obj 114 276 init 0.19;
#X obj 192 510 * 200;
#X obj 252 454 * 7;
#X obj 226 13 inlet;
#X obj 106 752 outlet~;
#X text 327 352 ajf2006;
#X obj 530 165 noise~;
#X obj 485 331 *~;
#X obj 519 263 lop~ 200;
#X obj 519 286 lop~ 200;
#X obj 580 163 + 200;
#X obj 580 134 * 200;
#X obj 501 139 * 0.7;
#X obj 523 202 hip~ 200;
#X obj 523 225 hip~ 200;
#X obj 501 44 inlet;
#X text 280 16 skid;
#X text 549 45 wheel noise;
#X obj 381 713 outlet~;
#X obj 329 633 sig~ 1;
#X obj 381 664 -~;
#X obj 396 620 *~;
#X obj 381 689 *~;
#X text 415 643 lose traction;
#X obj 107 724 *~ 0.09;
#X obj 377 318 s~ overdrive;
#X obj 378 276 lop~ 0.5;
#X obj 404 296 *~ 50;
#X connect 0 0 37 0;
#X connect 1 0 12 0;
#X connect 2 0 3 0;
#X connect 2 0 3 1;
#X connect 3 0 4 0;
#X connect 3 0 4 1;
#X connect 4 0 1 1;
#X connect 5 0 6 1;
#X connect 6 0 27 0;
#X connect 7 0 8 0;
#X connect 7 0 8 1;
#X connect 8 0 9 0;
#X connect 8 0 9 1;
#X connect 9 0 5 0;
#X connect 9 0 61 0;
#X connect 10 0 7 0;
#X connect 10 0 7 1;
#X connect 11 0 1 0;
#X connect 12 0 13 0;
#X connect 12 0 14 0;
#X connect 12 0 15 0;
#X connect 12 0 16 0;
#X connect 13 0 6 0;
#X connect 14 0 6 0;
#X connect 15 0 6 0;
#X connect 16 0 6 0;
#X connect 17 0 18 0;
#X connect 17 0 19 0;
#X connect 17 0 20 0;
#X connect 17 0 21 0;
#X connect 17 0 31 0;
#X connect 17 0 33 0;
#X connect 18 0 13 1;
#X connect 19 0 14 1;
#X connect 20 0 15 1;
#X connect 21 0 16 1;
#X connect 22 0 17 0;
#X connect 22 0 36 1;
#X connect 22 0 39 0;
#X connect 22 0 61 1;
#X connect 22 0 66 0;
#X connect 23 0 24 0;
#X connect 24 0 17 1;
#X connect 25 0 23 0;
#X connect 26 0 36 0;
#X connect 27 0 26 0;
#X connect 28 0 24 0;
#X connect 29 0 28 0;
#X connect 30 0 11 0;
#X connect 31 0 32 0;
#X connect 32 0 30 1;
#X connect 33 0 34 0;
#X connect 34 0 35 1;
#X connect 35 0 30 0;
#X connect 36 0 64 0;
#X connect 37 0 38 0;
#X connect 38 0 2 0;
#X connect 38 0 2 1;
#X connect 38 0 35 0;
#X connect 39 0 37 1;
#X connect 40 0 37 2;
#X connect 41 0 13 2;
#X connect 41 0 14 2;
#X connect 41 0 15 2;
#X connect 41 0 16 2;
#X connect 42 0 10 0;
#X connect 43 0 22 0;
#X connect 43 0 41 0;
#X connect 43 0 42 0;
#X connect 46 0 53 0;
#X connect 47 0 62 1;
#X connect 48 0 49 0;
#X connect 49 0 47 0;
#X connect 50 0 48 1;
#X connect 50 0 49 1;
#X connect 51 0 50 0;
#X connect 52 0 47 1;
#X connect 53 0 54 0;
#X connect 54 0 48 0;
#X connect 55 0 52 0;
#X connect 55 0 51 0;
#X connect 59 0 60 0;
#X connect 60 0 62 0;
#X connect 61 0 60 1;
#X connect 62 0 58 0;
#X connect 64 0 44 0;
#X connect 66 0 67 0;
#X connect 67 0 65 0;
#X restore 153 223 pd wheels;
#X obj -10 134 * 100;
#X obj 162 56 r skid;
#X obj -8 201 s skid;
#X obj 153 144 del 100;
#X obj -9 179 > 1.6;
#X obj 161 79 sel 1 0;
#X obj 215 138 del 2000;
#X obj 174 289 outlet~;
#X obj 105 355 switch~;
#X obj 24 10 netpd-fx \$0 racer-s racer-r 0;
#X obj 105 329 netpd-fx \$0 racerswitch-s racerswitch-r 0;
#X obj -9 156 average 2;
#X obj -10 112 -;
#X obj -9 87 t f f;
#X connect 0 0 6 0;
#X connect 1 0 0 0;
#X connect 2 0 0 0;
#X connect 3 0 0 0;
#X connect 4 0 14 0;
#X connect 5 0 6 1;
#X connect 6 0 14 0;
#X connect 6 1 14 0;
#X connect 7 0 18 0;
#X connect 8 0 12 0;
#X connect 10 0 2 0;
#X connect 11 0 9 0;
#X connect 12 0 3 0;
#X connect 12 0 10 0;
#X connect 12 0 13 0;
#X connect 12 1 1 0;
#X connect 13 0 1 0;
#X connect 16 0 4 0;
#X connect 16 0 6 1;
#X connect 16 0 20 0;
#X connect 17 0 15 0;
#X connect 18 0 11 0;
#X connect 19 0 7 0;
#X connect 20 0 19 1;
#X connect 20 1 19 0;
#X restore 254 76 pd racer;
#N canvas 287 247 941 674 volt 0;
#X obj 374 806 *~;
#X obj 199 259 random 100;
#X obj 197 288 moses 50;
#X msg 248 316 1;
#X msg 198 314 0;
#X obj 363 578 *~;
#X obj 247 136 random 100;
#X msg 268 196 50;
#X obj 246 109 metro 50;
#X msg 221 72 bang;
#X obj 372 726 delread~ \$0-d1 100;
#X obj 365 555 +~;
#X obj 366 680 delwrite~ \$0-d1 250;
#X obj 381 502 hip~ 99;
#X obj 364 628 *~ 0.5;
#X obj 285 169 moses 40;
#X obj 199 235 metro 50;
#X msg 311 217 25;
#X msg 346 217 12.5;
#X obj 345 195 moses 80;
#X obj 210 159 moses 20;
#X msg 229 195 200;
#X obj 363 651 abs~;
#X obj 497 182 noise~;
#X obj 525 213 *~;
#X msg 670 123 bang;
#X obj 557 326 hip~ 200;
#X obj 524 277 lop~ 500;
#X obj 627 365 *~;
#X obj 671 300 random 100;
#X obj 671 321 / 200;
#X obj 671 344 + 0.5;
#X obj 624 205 env~;
#X obj 220 44 loadbang;
#X obj 304 86 + 5;
#X obj 462 615 *~;
#X obj 618 124 / 100;
#X obj 627 389 -~ 0.5;
#X obj 374 701 * 0.07;
#X obj 373 753 clip~ -0.28 0.28;
#X obj 59 162 *~ 0.55;
#X obj 381 525 *~ 0.334;
#X obj 60 189 +~ 0.33;
#X text 70 30 Mr Sparky 1;
#X text 77 3 ajf2005;
#X obj 423 840 +~;
#X obj 589 229 osc~ 0.3;
#X obj 578 254 env~ 500;
#X obj 608 301 env~ 200;
#X obj 608 278 osc~ 0.4;
#X obj 659 254 + 0.1;
#X obj 430 905 outlet~;
#X obj 853 89 hsl 128 15 0 100 0 0 empty empty empty -4 -8 0 12 -241291
-1 -1 0 1;
#X text 500 68 random noise burst generator;
#X text 395 576 distorted resonator;
#X text 20 105 beating saw source;
#X text 287 11 randomised gate;
#X obj 99 131 phasor~ 100.1;
#X obj 361 86 + 1;
#X obj 350 109 * 20;
#X obj 385 109 * 30;
#X obj 364 58 / 100;
#X obj 389 783 cos~;
#X obj 224 341 sel 0;
#X obj 467 474 *~;
#X obj 488 448 / 100;
#X obj 363 605 +~;
#X obj 310 265 + 600;
#X obj 310 245 * 5;
#N canvas 171 165 478 578 snapper 0;
#N canvas 0 0 611 810 attack 0;
#X obj 166 732 outlet~;
#X obj 147 543 *~;
#X obj 256 35 inlet;
#X obj 147 510 cos~;
#X obj 145 474 +~;
#X text 193 195 freq;
#X text 282 207 amp;
#X obj 182 211 *~;
#X obj 182 232 *~;
#X obj 162 397 noise~;
#X obj 161 420 *~;
#X obj 182 255 *~;
#X obj 181 280 *~;
#X obj 213 397 *~ 0.33;
#X obj 145 375 phasor~;
#X obj 269 592 bp~ 40 3;
#X obj 183 592 bp~ 360 5;
#X obj 179 652 *~ 2.5;
#X obj 348 593 hip~ 1000;
#X obj 6 657 *~ 2;
#X obj -79 597 bp~ 1800 30;
#X obj 11 596 bp~ 2300 20;
#X obj 103 652 *~ 1.2;
#X obj 245 650 *~ 10;
#X obj 349 622 lop~ 6000;
#X obj 165 703 bp~ 2500 0.5;
#X floatatom 286 239 5 0 0 0 - - -;
#X floatatom 335 239 5 0 0 0 - - -;
#X obj 112 120 t b f;
#X obj 270 59 unpack \$1 \$2 \$3;
#X floatatom 326 340 5 0 0 0 - - -;
#X obj 261 124 max 5;
#X obj 204 124 max 1;
#X obj 265 91 * 800;
#X obj 214 96 -;
#X msg 202 66 800;
#X obj 198 44 t;
#X obj 203 147 min 800;
#X obj 320 297 * 5000;
#X obj 144 331 *~;
#X obj 162 446 lop~;
#X obj 363 99 * 100;
#X obj 144 353 +~;
#X obj 294 568 * 80;
#X obj 212 571 * 720;
#X obj 131 576 * 480;
#X obj 47 574 * 4600;
#X obj -43 574 * 3600;
#X obj 101 598 bp~ 240 7;
#X obj 287 500 * 1;
#X text 321 500 filter freqs;
#X obj 260 148 min 800;
#X obj 364 157 * 50;
#X obj 359 181 - 25;
#X obj 396 180 + 25;
#X obj 398 206 - 75;
#X text -64 11 p1 = freq shape p2 = resonance peak p3 = bottom freq
;
#X text -61 -21 Transient attack click;
#X obj 181 178 m-var~ 0 400 6;
#X obj 236 270 m-var~ 25 10 6;
#X connect 1 0 15 0;
#X connect 1 0 16 0;
#X connect 1 0 18 0;
#X connect 1 0 20 0;
#X connect 1 0 21 0;
#X connect 1 0 48 0;
#X connect 2 0 28 0;
#X connect 2 0 29 0;
#X connect 3 0 1 0;
#X connect 4 0 3 0;
#X connect 7 0 8 0;
#X connect 7 0 8 1;
#X connect 8 0 11 0;
#X connect 8 0 11 1;
#X connect 9 0 10 0;
#X connect 10 0 40 0;
#X connect 11 0 12 0;
#X connect 11 0 12 1;
#X connect 11 0 13 0;
#X connect 12 0 39 0;
#X connect 13 0 10 1;
#X connect 14 0 4 0;
#X connect 15 0 23 0;
#X connect 16 0 17 0;
#X connect 17 0 25 0;
#X connect 18 0 24 0;
#X connect 19 0 25 0;
#X connect 20 0 19 0;
#X connect 21 0 19 0;
#X connect 22 0 25 0;
#X connect 23 0 25 0;
#X connect 24 0 25 0;
#X connect 25 0 0 0;
#X connect 28 0 58 0;
#X connect 28 0 59 0;
#X connect 29 0 33 0;
#X connect 29 0 52 0;
#X connect 29 1 38 0;
#X connect 29 1 49 0;
#X connect 29 2 41 0;
#X connect 31 0 51 0;
#X connect 32 0 37 0;
#X connect 33 0 31 0;
#X connect 33 0 34 1;
#X connect 33 0 36 0;
#X connect 34 0 32 0;
#X connect 35 0 34 0;
#X connect 36 0 35 0;
#X connect 37 0 26 0;
#X connect 37 0 58 1;
#X connect 38 0 39 1;
#X connect 38 0 30 0;
#X connect 38 0 40 1;
#X connect 39 0 42 0;
#X connect 40 0 4 1;
#X connect 41 0 42 1;
#X connect 42 0 14 0;
#X connect 43 0 15 1;
#X connect 44 0 16 1;
#X connect 45 0 48 1;
#X connect 46 0 21 1;
#X connect 47 0 20 1;
#X connect 48 0 22 0;
#X connect 49 0 47 0;
#X connect 49 0 46 0;
#X connect 49 0 45 0;
#X connect 49 0 44 0;
#X connect 49 0 43 0;
#X connect 51 0 27 0;
#X connect 51 0 58 2;
#X connect 52 0 53 0;
#X connect 52 0 54 0;
#X connect 53 0 59 1;
#X connect 54 0 55 0;
#X connect 55 0 59 2;
#X connect 58 0 7 0;
#X connect 58 0 7 1;
#X connect 59 0 1 1;
#X restore 40 300 pd attack;
#N canvas 0 0 627 469 tail 0;
#X obj 336 424 outlet~;
#X obj 345 12 inlet;
#X obj 253 156 noise~;
#X obj 338 364 *~;
#X obj 420 273 bp~ 40 3;
#X obj 348 273 bp~ 360 5;
#X obj 348 299 *~ 2.5;
#X obj 161 302 *~ 2;
#X obj 279 300 *~ 1.2;
#X obj 278 273 bp~ 235 7;
#X obj 421 297 *~ 10;
#X obj 337 340 bp~ 2500 0.5;
#X obj 420 110 *~;
#X obj 417 133 *~;
#X obj 313 117 +~ 10;
#X obj 312 95 *~ 600;
#X obj 310 179 *~ 10;
#X obj 293 200 *~;
#X obj 337 393 *~ 10;
#X obj 294 221 clip~ -0.3 0.3;
#X obj 310 158 *~;
#X obj 311 136 phasor~;
#X obj 195 274 bp~ 3600 8;
#X obj 111 272 bp~ 2300 7;
#X obj 21 273 bp~ 1800 7;
#X obj 346 40 t b;
#X obj 421 243 * 80;
#X obj 339 246 * 720;
#X obj 280 249 * 480;
#X obj 143 248 * 4600;
#X obj 57 245 * 3600;
#X obj 226 250 * 7200;
#X obj 496 49 * 5000;
#X obj 414 28 unpack 1 2;
#X obj 427 82 m-var~ 10 2600 6;
#X obj 311 72 m-var~ 10 5000 6;
#X connect 1 0 25 0;
#X connect 1 0 33 0;
#X connect 2 0 17 0;
#X connect 3 0 18 0;
#X connect 4 0 10 0;
#X connect 5 0 6 0;
#X connect 6 0 11 0;
#X connect 7 0 11 0;
#X connect 8 0 11 0;
#X connect 9 0 8 0;
#X connect 10 0 11 0;
#X connect 11 0 3 0;
#X connect 12 0 13 0;
#X connect 12 0 13 1;
#X connect 13 0 3 1;
#X connect 14 0 21 0;
#X connect 15 0 14 0;
#X connect 16 0 17 1;
#X connect 17 0 19 0;
#X connect 18 0 0 0;
#X connect 19 0 4 0;
#X connect 19 0 5 0;
#X connect 19 0 9 0;
#X connect 19 0 22 0;
#X connect 19 0 23 0;
#X connect 19 0 24 0;
#X connect 20 0 16 0;
#X connect 21 0 20 0;
#X connect 21 0 20 1;
#X connect 22 0 7 0;
#X connect 23 0 7 0;
#X connect 24 0 7 0;
#X connect 25 0 34 0;
#X connect 25 0 35 0;
#X connect 26 0 4 1;
#X connect 27 0 5 1;
#X connect 28 0 9 1;
#X connect 29 0 23 1;
#X connect 30 0 24 1;
#X connect 31 0 22 1;
#X connect 32 0 34 2;
#X connect 33 0 26 0;
#X connect 33 0 27 0;
#X connect 33 0 28 0;
#X connect 33 0 31 0;
#X connect 33 0 29 0;
#X connect 33 0 30 0;
#X connect 33 1 32 0;
#X connect 34 0 12 0;
#X connect 34 0 12 1;
#X connect 35 0 15 0;
#X restore 202 298 pd tail;
#X obj 200 330 *~;
#X obj 40 333 *~;
#X obj 83 48 inlet;
#X obj 230 229 f;
#X text 289 247 attack-tail balance;
#X obj 53 425 *~ 0.05;
#X text 258 195 time separation;
#X obj 239 126 f;
#X obj 239 172 min 300;
#X obj 239 148 max 5;
#X obj 201 171 t b;
#X obj 202 194 del 20;
#X obj 61 162 pack 1 2 3;
#X obj 151 231 pack 1 2 3;
#X obj 239 105 * 300;
#X text 171 12 attack [p1=shape p2=peak p3=bottom ] tail [ p4=freq
p5=decay p6=balance p7=time sep];
#X obj 83 72 unpack 1 2 3 4 5 6 7 8;
#X text 407 29 p8=amp;
#X obj 53 459 outlet~;
#X obj 145 423 *~ 0.05;
#X obj 160 461 outlet~;
#X obj 56 367 *~ 0.33;
#X obj 243 273 /;
#X msg 243 250 1 \$1;
#X connect 0 0 3 0;
#X connect 1 0 2 0;
#X connect 2 0 21 0;
#X connect 3 0 23 0;
#X connect 4 0 18 0;
#X connect 5 0 2 1;
#X connect 5 0 25 0;
#X connect 7 0 20 0;
#X connect 9 0 11 0;
#X connect 10 0 13 1;
#X connect 11 0 10 0;
#X connect 12 0 13 0;
#X connect 13 0 15 0;
#X connect 14 0 0 0;
#X connect 15 0 1 0;
#X connect 16 0 9 0;
#X connect 18 0 14 0;
#X connect 18 0 12 0;
#X connect 18 1 14 1;
#X connect 18 2 14 2;
#X connect 18 3 15 0;
#X connect 18 4 15 1;
#X connect 18 5 5 0;
#X connect 18 6 16 0;
#X connect 18 7 7 1;
#X connect 18 7 21 1;
#X connect 21 0 22 0;
#X connect 23 0 7 0;
#X connect 24 0 3 1;
#X connect 25 0 24 0;
#X coords 0 0 0.00307692 0.00200401 120 25 0;
#X restore 839 533 pd snapper;
#X obj 839 482 + 0.9;
#X obj 837 458 / 600;
#X obj 786 404 moses 90;
#X obj 850 351 >= 88;
#X obj 837 431 spigot;
#X obj 424 864 +~;
#X obj 472 810 *~;
#X obj 488 786 + 0.5;
#X obj 488 763 / 50;
#X obj 860 557 *~ 0.1;
#X obj 981 409 >= 95;
#X obj 944 433 spigot;
#X obj 892 350 <= 94;
#X obj 875 376 &&;
#X obj 893 409 moses 30;
#X msg 944 455 0.999 0.9 0.25 2 0.33 0.4 0.08 0.3;
#X msg 839 504 0.999 0.9 0.25 \$1 0.33 0.4 0.08 0.4;
#X obj 6 133 phasor~ 99.9;
#X obj 456 498 *~ 0.1;
#X obj 455 521 hip~ 100;
#X text 430 395 crackle generator;
#N canvas 0 0 779 784 snap3y 0;
#X obj 295 559 clip~ -0.3 0.3;
#X obj 192 422 *~;
#X obj 199 325 noise~;
#X obj 267 424 *~;
#X obj 347 422 *~;
#X obj 276 508 *~ 0.7;
#X obj 256 343 + 2000;
#X obj 295 535 hip~ 100;
#X obj 236 182 del 10;
#X obj 108 245 *~;
#X obj 335 508 *~ 0.2;
#X obj 303 183 del 40;
#X obj 157 154 del 15;
#X obj 207 130 + 10;
#X obj 205 105 random 6;
#N canvas 0 0 450 300 graph1 0;
#X array \$0-t1 259 float 3;
#A 0 -0.796435 -0.825006 -0.839292 -0.967865 -0.707148 -0.703577 -0.700005
-0.667862 0.717862 0.725005 0.732148 0.732148 0.732148 -0.675005 -0.667862
-0.667862 -0.667862 -0.667862 -0.667862 -0.664291 -0.660719 -0.657148
-0.653576 -0.653576 -0.81072 -0.825006 -0.825006 -0.825006 -0.825006
-0.825006 0.460718 0.475004 0.560719 0.575005 0.746435 -0.139287 -0.182144
-0.332145 -0.310717 -0.253573 -0.239288 -0.203573 -0.182144 -0.153573
-0.125001 -0.0464289 -0.039286 0.307145 0.314288 0.450003 0.578576
0.0857149 0.0928578 0.100001 0.107144 0.114287 -0.750006 -0.757149
-0.764292 -0.664291 -0.600005 -0.56429 -0.500004 -0.464289 0.400003
0.421432 0.432146 0.442861 0.453575 0.164287 0.064286 0.0357143 0.00714269
-0.00714313 -0.56429 -0.585719 -0.635719 -0.628577 -0.621434 0.507147
0.495718 0.484289 0.472861 0.461432 0.435718 0.426194 -0.521433 -0.542861
-0.56429 -0.535718 0.421432 0.22143 -0.0500003 -0.0642862 -0.164287
-0.185716 -0.421432 0.107144 0.0928579 0.0785721 0.0642863 0.0500005
0.0357146 0.0214288 0.721434 0.721434 0.721434 0.657148 0.650005 0.628576
0.621433 0.578576 0.571433 0.56429 0.542861 0.421432 -0.56531 -0.522453
-0.486738 -0.308166 -0.286737 -0.165307 -0.143879 -0.0510207 -0.557147
-0.552555 -0.462248 -0.433676 -0.390819 0.0520416 0.109185 0.1949 0.223471
0.280615 0.302043 0.609189 0.580617 0.566331 0.494902 -0.485718 -0.542861
-0.585719 -0.657148 -0.664291 -0.700005 -0.707148 -0.714291 -0.335717
-0.292859 -0.235716 -0.200001 -0.0928577 -0.0500003 -0.0500003 -0.0642861
-0.0785719 -0.0857149 -0.0928578 -0.110715 -0.128572 -0.14643 -0.164287
-0.192859 -0.164287 -0.150001 -0.135715 -0.128572 -0.121429 -0.100001
-0.157144 -0.17143 -0.642862 -0.500004 -0.485718 0.285717 0.278574
0.271431 0.264288 0.235716 0.678576 0.592861 0.578576 0.56429 0.550004
0.535718 0.0142859 -0.0785719 -0.0928578 -0.121429 -0.150001 -0.142858
-0.135715 -0.128572 -0.121429 -0.114286 -0.107144 0.807149 0.678577
0.664291 0.535718 0.521433 0.414289 0.407146 0.328574 0.307145 0.157144
0.12143 0.778577 0.742863 0.721434 0.671434 0.650005 0.500004 0.450003
0.428575 0.407146 0.385717 0.364288 0.242859 0.292859 0.307145 0.321431
0.335717 0.350003 0.435718 0.464289 0.421432 0.364289 0.592862 0.635719
0.678577 0.621434 0.607148 0.592862 0.571433 0.550005 0.528576 0.507147
0.678577 0.68572 0.764292 0.771435 0.821435 0.821435 0.821435 0.821435
0.821435 0.821435 0.721434 0.892864 0.892864 0.892864 0.892864 0.900007
0.90715 0.90715 0.90715 0.90715 0.921436;
#X coords 0 1 258 -1 140 140 1;
#X restore 442 458 graph;
#X obj 294 584 *~ 128;
#X obj 294 617 tabread~ \$0-t1;
#X obj 317 287 * 0.5;
#X obj 421 208 + 1;
#X obj 375 289 * 0.5;
#X obj 456 286 * 0.5;
#X obj 255 321 random 1000;
#X obj 380 325 random 500;
#X obj 381 347 + 1000;
#X obj 465 325 random 250;
#X obj 465 347 + 500;
#X obj 92 218 phasor~;
#X obj 295 645 *~;
#X obj 41 143 *~ 100;
#X obj 41 164 +~;
#X obj 40 187 env~;
#X obj 41 122 phasor~ 100;
#X obj 139 41 inlet;
#X obj 418 32 inlet;
#X obj 295 694 outlet~;
#X obj 295 667 hip~ 590;
#X obj 190 389 bp~ 4096 8;
#X obj 268 389 bp~ 1600 8;
#X obj 347 389 bp~ 1024 8;
#X text 441 398 random bands of noise source;
#X text 408 615 extreme wrapping;
#X obj 264 239 m-var~ 0 90 6;
#X obj 358 240 m-var~ 0 150 6;
#X obj 166 239 m-var~ 0 25 6;
#X obj 86 189 m-var~ 0 800 6;
#X connect 0 0 16 0;
#X connect 1 0 7 0;
#X connect 2 0 37 0;
#X connect 2 0 38 0;
#X connect 2 0 39 0;
#X connect 3 0 5 0;
#X connect 4 0 10 0;
#X connect 5 0 7 0;
#X connect 6 0 37 1;
#X connect 7 0 0 0;
#X connect 8 0 11 0;
#X connect 8 0 23 0;
#X connect 8 0 42 0;
#X connect 9 0 28 1;
#X connect 10 0 7 0;
#X connect 11 0 25 0;
#X connect 11 0 43 0;
#X connect 12 0 8 0;
#X connect 12 0 22 0;
#X connect 12 0 44 0;
#X connect 13 0 12 1;
#X connect 14 0 13 0;
#X connect 16 0 17 0;
#X connect 17 0 28 0;
#X connect 18 0 20 0;
#X connect 18 0 22 1;
#X connect 18 0 24 0;
#X connect 19 0 6 1;
#X connect 19 0 18 0;
#X connect 19 0 30 1;
#X connect 20 0 21 0;
#X connect 20 0 23 1;
#X connect 20 0 26 0;
#X connect 21 0 25 1;
#X connect 21 0 43 2;
#X connect 22 0 6 0;
#X connect 23 0 24 0;
#X connect 24 0 38 1;
#X connect 25 0 26 0;
#X connect 26 0 39 1;
#X connect 27 0 9 0;
#X connect 28 0 36 0;
#X connect 29 0 30 0;
#X connect 30 0 31 0;
#X connect 31 0 27 1;
#X connect 32 0 29 0;
#X connect 33 0 14 0;
#X connect 33 0 12 0;
#X connect 33 0 45 0;
#X connect 34 0 19 0;
#X connect 36 0 35 0;
#X connect 37 0 1 0;
#X connect 38 0 3 0;
#X connect 39 0 4 0;
#X connect 42 0 3 1;
#X connect 43 0 4 1;
#X connect 44 0 1 1;
#X connect 45 0 9 1;
#X restore 467 425 pd snap3y;
#X obj 850 63 netpd-fx \$0 high-volt-s high-volt-r;
#X obj 541 40 switch~;
#X obj 467 40 sel 1;
#X obj 543 13 netpd-fx \$0 volt-s volt-r 0;
#X obj 431 885 *~ 0.5;
#X obj 625 181 m-var~ 0 300 6;
#X obj 545 177 m-var~ 0 200 6;
#X connect 0 0 45 0;
#X connect 1 0 2 0;
#X connect 1 0 72 0;
#X connect 2 0 4 0;
#X connect 2 1 3 0;
#X connect 3 0 5 1;
#X connect 3 0 25 0;
#X connect 3 0 63 0;
#X connect 4 0 5 1;
#X connect 4 0 63 0;
#X connect 5 0 66 0;
#X connect 6 0 20 0;
#X connect 6 0 68 0;
#X connect 7 0 16 1;
#X connect 8 0 6 0;
#X connect 9 0 8 0;
#X connect 9 0 16 0;
#X connect 9 0 25 0;
#X connect 10 0 39 0;
#X connect 10 0 13 0;
#X connect 10 0 76 0;
#X connect 11 0 5 0;
#X connect 13 0 41 0;
#X connect 14 0 22 0;
#X connect 15 0 7 0;
#X connect 15 1 19 0;
#X connect 16 0 1 0;
#X connect 17 0 16 1;
#X connect 18 0 16 1;
#X connect 19 0 17 0;
#X connect 19 1 18 0;
#X connect 20 0 21 0;
#X connect 20 1 15 0;
#X connect 21 0 16 1;
#X connect 22 0 12 0;
#X connect 23 0 24 0;
#X connect 24 0 27 0;
#X connect 25 0 29 0;
#X connect 25 0 97 0;
#X connect 25 0 98 0;
#X connect 26 0 28 0;
#X connect 27 0 26 0;
#X connect 28 0 37 0;
#X connect 29 0 30 0;
#X connect 29 0 84 0;
#X connect 30 0 31 0;
#X connect 31 0 28 1;
#X connect 32 0 38 0;
#X connect 33 0 9 0;
#X connect 34 0 6 1;
#X connect 35 0 12 0;
#X connect 36 0 35 1;
#X connect 36 0 46 1;
#X connect 36 0 50 0;
#X connect 37 0 35 0;
#X connect 38 0 10 0;
#X connect 39 0 0 0;
#X connect 40 0 42 0;
#X connect 41 0 11 1;
#X connect 42 0 11 0;
#X connect 45 0 75 0;
#X connect 46 0 47 0;
#X connect 47 0 27 1;
#X connect 48 0 26 1;
#X connect 49 0 48 0;
#X connect 50 0 49 1;
#X connect 52 0 36 0;
#X connect 52 0 34 0;
#X connect 52 0 61 0;
#X connect 52 0 65 0;
#X connect 52 0 73 0;
#X connect 52 0 78 0;
#X connect 52 0 80 0;
#X connect 52 0 82 0;
#X connect 57 0 40 0;
#X connect 58 0 20 1;
#X connect 58 0 59 1;
#X connect 58 0 60 1;
#X connect 59 0 15 1;
#X connect 60 0 19 1;
#X connect 61 0 58 0;
#X connect 62 0 0 1;
#X connect 63 0 91 0;
#X connect 64 0 88 0;
#X connect 65 0 64 1;
#X connect 66 0 14 0;
#X connect 67 0 91 1;
#X connect 68 0 67 0;
#X connect 69 0 79 0;
#X connect 69 1 79 0;
#X connect 70 0 86 0;
#X connect 71 0 70 0;
#X connect 72 1 74 0;
#X connect 73 0 83 0;
#X connect 74 0 71 0;
#X connect 75 0 96 0;
#X connect 76 0 75 1;
#X connect 77 0 76 1;
#X connect 78 0 77 0;
#X connect 79 0 45 1;
#X connect 80 0 81 1;
#X connect 81 0 85 0;
#X connect 82 0 83 1;
#X connect 83 0 74 1;
#X connect 84 1 81 0;
#X connect 85 0 69 0;
#X connect 86 0 69 0;
#X connect 87 0 62 0;
#X connect 87 0 40 0;
#X connect 88 0 89 0;
#X connect 89 0 66 1;
#X connect 91 0 64 0;
#X connect 92 0 52 0;
#X connect 94 0 9 0;
#X connect 95 0 93 0;
#X connect 95 0 94 0;
#X connect 96 0 51 0;
#X connect 97 0 32 0;
#X connect 98 0 24 1;
#X restore 317 76 pd volt;
#N canvas 99 220 439 168 rain 0;
#X obj 23 100 outlet~;
#N canvas 269 308 687 629 left 0;
#X obj 226 263 osc~;
#X obj 237 59 noise~;
#X obj 226 337 *~;
#X obj 193 234 +~ 2000;
#X obj 264 262 *~;
#X obj 264 287 *~;
#X obj 226 441 *~ 0.01;
#X obj 227 463 lop~ 10000;
#X obj 238 155 bp~ 2.064 0.002;
#X obj 265 312 *~;
#X obj 225 371 *~ 0.3;
#X obj 239 178 *~ 3.2;
#X obj 226 396 hip~ 500;
#X obj 227 419 hip~ 500;
#X obj 192 210 *~ 3000;
#X obj 226 486 *~ 0.02;
#X obj 112 263 osc~;
#X obj 123 59 noise~;
#X obj 112 337 *~;
#X obj 150 262 *~;
#X obj 150 287 *~;
#X obj 112 441 *~ 0.01;
#X obj 113 463 lop~ 10000;
#X obj 124 155 bp~ 2.064 0.002;
#X obj 151 312 *~;
#X obj 111 371 *~ 0.3;
#X obj 125 178 *~ 3.2;
#X obj 112 396 hip~ 500;
#X obj 113 419 hip~ 500;
#X obj 340 262 osc~;
#X obj 351 58 noise~;
#X obj 340 336 *~;
#X obj 307 233 +~ 2000;
#X obj 378 261 *~;
#X obj 378 286 *~;
#X obj 340 440 *~ 0.01;
#X obj 341 462 lop~ 10000;
#X obj 352 154 bp~ 2.064 0.002;
#X obj 379 311 *~;
#X obj 339 370 *~ 0.3;
#X obj 340 395 hip~ 500;
#X obj 341 418 hip~ 500;
#X obj 78 210 *~ 344;
#X obj 79 234 +~ 3000;
#X obj 112 486 *~ 0.01;
#X obj 306 209 *~ 5000;
#X obj 353 177 *~ 3.8;
#X obj 340 485 *~ 0.01;
#X obj 427 201 *~;
#X obj 135 92 lop~ 16;
#X obj 427 492 *~ 1;
#X obj 499 195 /~;
#X obj 498 302 clip~ 0 0.9;
#X obj 427 287 bp~ 333 4;
#X obj 232 534 lop~ 12000;
#X obj 428 335 *~ 0.4;
#X obj 9 335 *~ 0.007;
#X obj 251 85 lop~ 0.01;
#X obj 498 220 hip~ 10000;
#X obj 429 87 lop~ 1900;
#X obj 499 281 *~;
#X obj 500 256 *~ 0.03;
#X text 201 3 Rain generator;
#X obj 498 413 vcf~ 3333 30;
#X obj 537 345 +~ 1000;
#X obj 136 118 *~ 300000;
#X obj 536 381 clip~ 1000 10000;
#X obj 589 413 init 20;
#X obj 495 440 *~ 0.7;
#X text 25 377 ambience;
#X text 433 364 rumble;
#X text 494 465 drips;
#X text 143 349 droplets;
#X text 266 349 droplets;
#X text 176 24 with ambience gen highlighted;
#X obj 233 566 outlet~;
#X connect 0 0 2 0;
#X connect 1 0 8 0;
#X connect 1 0 57 0;
#X connect 2 0 10 0;
#X connect 3 0 0 0;
#X connect 4 0 5 0;
#X connect 4 0 5 1;
#X connect 5 0 9 0;
#X connect 5 0 9 1;
#X connect 6 0 7 0;
#X connect 7 0 15 0;
#X connect 8 0 11 0;
#X connect 9 0 2 1;
#X connect 10 0 12 0;
#X connect 11 0 4 0;
#X connect 11 0 4 1;
#X connect 11 0 14 0;
#X connect 12 0 13 0;
#X connect 13 0 6 0;
#X connect 14 0 3 0;
#X connect 15 0 54 0;
#X connect 16 0 18 0;
#X connect 17 0 23 0;
#X connect 17 0 49 0;
#X connect 17 0 56 0;
#X connect 18 0 25 0;
#X connect 19 0 20 0;
#X connect 19 0 20 1;
#X connect 20 0 24 0;
#X connect 20 0 24 1;
#X connect 21 0 22 0;
#X connect 22 0 44 0;
#X connect 23 0 26 0;
#X connect 24 0 18 1;
#X connect 25 0 27 0;
#X connect 26 0 19 0;
#X connect 26 0 19 1;
#X connect 26 0 42 0;
#X connect 27 0 28 0;
#X connect 28 0 21 0;
#X connect 29 0 31 0;
#X connect 30 0 37 0;
#X connect 30 0 48 1;
#X connect 30 0 59 0;
#X connect 31 0 39 0;
#X connect 32 0 29 0;
#X connect 33 0 34 0;
#X connect 33 0 34 1;
#X connect 34 0 38 0;
#X connect 34 0 38 1;
#X connect 35 0 36 0;
#X connect 36 0 47 0;
#X connect 37 0 46 0;
#X connect 38 0 31 1;
#X connect 39 0 40 0;
#X connect 40 0 41 0;
#X connect 41 0 35 0;
#X connect 42 0 43 0;
#X connect 43 0 16 0;
#X connect 44 0 54 0;
#X connect 45 0 32 0;
#X connect 46 0 33 0;
#X connect 46 0 33 1;
#X connect 46 0 45 0;
#X connect 47 0 54 0;
#X connect 48 0 53 0;
#X connect 49 0 48 0;
#X connect 49 0 65 0;
#X connect 50 0 54 0;
#X connect 51 0 58 0;
#X connect 52 0 63 0;
#X connect 53 0 55 0;
#X connect 54 0 75 0;
#X connect 55 0 50 0;
#X connect 56 0 54 0;
#X connect 57 0 51 0;
#X connect 58 0 61 0;
#X connect 59 0 51 1;
#X connect 60 0 52 0;
#X connect 61 0 60 0;
#X connect 61 0 60 1;
#X connect 63 0 68 0;
#X connect 64 0 66 0;
#X connect 65 0 64 0;
#X connect 66 0 63 1;
#X connect 67 0 63 2;
#X connect 68 0 54 0;
#X restore 24 26 pd left;
#X obj 84 103 outlet~;
#N canvas 269 308 687 629 left 0;
#X obj 226 263 osc~;
#X obj 237 59 noise~;
#X obj 226 337 *~;
#X obj 193 234 +~ 2000;
#X obj 264 262 *~;
#X obj 264 287 *~;
#X obj 226 441 *~ 0.01;
#X obj 227 463 lop~ 10000;
#X obj 238 155 bp~ 2.064 0.002;
#X obj 265 312 *~;
#X obj 225 371 *~ 0.3;
#X obj 239 178 *~ 3.2;
#X obj 226 396 hip~ 500;
#X obj 227 419 hip~ 500;
#X obj 192 210 *~ 3000;
#X obj 226 486 *~ 0.02;
#X obj 112 263 osc~;
#X obj 123 59 noise~;
#X obj 112 337 *~;
#X obj 150 262 *~;
#X obj 150 287 *~;
#X obj 112 441 *~ 0.01;
#X obj 113 463 lop~ 10000;
#X obj 124 155 bp~ 2.064 0.002;
#X obj 151 312 *~;
#X obj 111 371 *~ 0.3;
#X obj 125 178 *~ 3.2;
#X obj 112 396 hip~ 500;
#X obj 113 419 hip~ 500;
#X obj 340 262 osc~;
#X obj 351 58 noise~;
#X obj 340 336 *~;
#X obj 307 233 +~ 2000;
#X obj 378 261 *~;
#X obj 378 286 *~;
#X obj 340 440 *~ 0.01;
#X obj 341 462 lop~ 10000;
#X obj 352 154 bp~ 2.064 0.002;
#X obj 379 311 *~;
#X obj 339 370 *~ 0.3;
#X obj 340 395 hip~ 500;
#X obj 341 418 hip~ 500;
#X obj 78 210 *~ 344;
#X obj 79 234 +~ 3000;
#X obj 112 486 *~ 0.01;
#X obj 306 209 *~ 5000;
#X obj 353 177 *~ 3.8;
#X obj 340 485 *~ 0.01;
#X obj 427 201 *~;
#X obj 135 92 lop~ 16;
#X obj 427 492 *~ 1;
#X obj 499 195 /~;
#X obj 498 302 clip~ 0 0.9;
#X obj 427 287 bp~ 333 4;
#X obj 232 534 lop~ 12000;
#X obj 428 335 *~ 0.4;
#X obj 9 335 *~ 0.007;
#X obj 251 85 lop~ 0.01;
#X obj 498 220 hip~ 10000;
#X obj 429 87 lop~ 1900;
#X obj 499 281 *~;
#X obj 500 256 *~ 0.03;
#X text 201 3 Rain generator;
#X obj 498 413 vcf~ 3333 30;
#X obj 537 345 +~ 1000;
#X obj 136 118 *~ 300000;
#X obj 536 381 clip~ 1000 10000;
#X obj 589 413 init 20;
#X obj 495 440 *~ 0.7;
#X text 25 377 ambience;
#X text 433 364 rumble;
#X text 494 465 drips;
#X text 143 349 droplets;
#X text 266 349 droplets;
#X text 176 24 with ambience gen highlighted;
#X obj 233 566 outlet~;
#X connect 0 0 2 0;
#X connect 1 0 8 0;
#X connect 1 0 57 0;
#X connect 2 0 10 0;
#X connect 3 0 0 0;
#X connect 4 0 5 0;
#X connect 4 0 5 1;
#X connect 5 0 9 0;
#X connect 5 0 9 1;
#X connect 6 0 7 0;
#X connect 7 0 15 0;
#X connect 8 0 11 0;
#X connect 9 0 2 1;
#X connect 10 0 12 0;
#X connect 11 0 4 0;
#X connect 11 0 4 1;
#X connect 11 0 14 0;
#X connect 12 0 13 0;
#X connect 13 0 6 0;
#X connect 14 0 3 0;
#X connect 15 0 54 0;
#X connect 16 0 18 0;
#X connect 17 0 23 0;
#X connect 17 0 49 0;
#X connect 17 0 56 0;
#X connect 18 0 25 0;
#X connect 19 0 20 0;
#X connect 19 0 20 1;
#X connect 20 0 24 0;
#X connect 20 0 24 1;
#X connect 21 0 22 0;
#X connect 22 0 44 0;
#X connect 23 0 26 0;
#X connect 24 0 18 1;
#X connect 25 0 27 0;
#X connect 26 0 19 0;
#X connect 26 0 19 1;
#X connect 26 0 42 0;
#X connect 27 0 28 0;
#X connect 28 0 21 0;
#X connect 29 0 31 0;
#X connect 30 0 37 0;
#X connect 30 0 48 1;
#X connect 30 0 59 0;
#X connect 31 0 39 0;
#X connect 32 0 29 0;
#X connect 33 0 34 0;
#X connect 33 0 34 1;
#X connect 34 0 38 0;
#X connect 34 0 38 1;
#X connect 35 0 36 0;
#X connect 36 0 47 0;
#X connect 37 0 46 0;
#X connect 38 0 31 1;
#X connect 39 0 40 0;
#X connect 40 0 41 0;
#X connect 41 0 35 0;
#X connect 42 0 43 0;
#X connect 43 0 16 0;
#X connect 44 0 54 0;
#X connect 45 0 32 0;
#X connect 46 0 33 0;
#X connect 46 0 33 1;
#X connect 46 0 45 0;
#X connect 47 0 54 0;
#X connect 48 0 53 0;
#X connect 49 0 48 0;
#X connect 49 0 65 0;
#X connect 50 0 54 0;
#X connect 51 0 58 0;
#X connect 52 0 63 0;
#X connect 53 0 55 0;
#X connect 54 0 75 0;
#X connect 55 0 50 0;
#X connect 56 0 54 0;
#X connect 57 0 51 0;
#X connect 58 0 61 0;
#X connect 59 0 51 1;
#X connect 60 0 52 0;
#X connect 61 0 60 0;
#X connect 61 0 60 1;
#X connect 63 0 68 0;
#X connect 64 0 66 0;
#X connect 65 0 64 0;
#X connect 66 0 63 1;
#X connect 67 0 63 2;
#X connect 68 0 54 0;
#X restore 85 26 pd left;
#X obj 26 127 netpd-fx \$0 rain-s rain-r;
#X obj 26 153 switch~;
#X obj 23 67 *~;
#X obj 84 66 *~;
#X obj 162 8 netpd-flx \$0 raingain-s raingain-r 0;
#X connect 1 0 6 0;
#X connect 3 0 7 0;
#X connect 4 0 5 0;
#X connect 6 0 0 0;
#X connect 7 0 2 0;
#X connect 8 0 7 1;
#X connect 8 0 6 1;
#X restore 381 77 pd rain;
#N canvas 772 292 543 582 bubbles 0;
#X obj 135 281 osc~ 440;
#X obj 135 305 *~;
#X msg 135 191 bang;
#X text 7 219 amplitude;
#X text 137 219 pitch;
#X obj 135 259 *~ 1500;
#X obj 135 4 sel 0;
#X obj 177 141 random 2500;
#X obj 177 161 + 500;
#X obj 135 -34 metro 50;
#X obj 138 395 *~;
#X obj 199 393 *~;
#X obj 360 206 + 1;
#X obj 360 110 random 40;
#X obj 360 231 * 0.025;
#X obj 360 260 - 1;
#X obj 360 281 abs;
#X obj 137 348 hip~ 80;
#X obj 135 -15 random 4;
#X obj 267 148 + 1000;
#X obj 267 127 random 6000;
#X obj 135 233 m-var-mod~ 400 50 4;
#X obj 135 24 t b b;
#X obj 442 103 line~;
#X obj 135 67 t b b b b;
#X obj 139 440 outlet~;
#X obj 199 440 outlet~;
#X obj 136 324 *~ 0.3;
#X obj 39 -29 switch~;
#X obj 39 -86 netpd-fx \$0 blubub-s blubub-r;
#X obj 39 -66 t f f;
#X msg 442 79 0 40;
#X obj 135 45 del 50;
#X obj 186 -60 netpd-flx \$0 blububspeed-s blububspeed-r 100;
#X obj -4 237 m-var~ 23 100 6;
#X connect 0 0 1 0;
#X connect 1 0 27 0;
#X connect 2 0 21 0;
#X connect 2 0 34 0;
#X connect 5 0 0 0;
#X connect 6 0 22 0;
#X connect 7 0 8 0;
#X connect 8 0 21 1;
#X connect 9 0 18 0;
#X connect 10 0 25 0;
#X connect 11 0 26 0;
#X connect 12 0 14 0;
#X connect 13 0 12 0;
#X connect 14 0 15 0;
#X connect 14 0 10 1;
#X connect 15 0 16 0;
#X connect 16 0 11 1;
#X connect 17 0 11 0;
#X connect 17 0 10 0;
#X connect 18 0 6 0;
#X connect 19 0 5 1;
#X connect 20 0 19 0;
#X connect 21 0 5 0;
#X connect 22 0 32 0;
#X connect 22 1 31 0;
#X connect 23 0 1 1;
#X connect 24 0 2 0;
#X connect 24 1 7 0;
#X connect 24 2 20 0;
#X connect 24 3 13 0;
#X connect 27 0 17 0;
#X connect 29 0 30 0;
#X connect 30 0 28 0;
#X connect 30 1 9 0;
#X connect 31 0 23 0;
#X connect 32 0 24 0;
#X connect 33 0 9 1;
#X connect 34 0 1 1;
#X restore 441 76 pd bubbles;
#N canvas 413 121 870 728 chaospipe 0;
#X obj 262 86 noise~;
#X obj 231 483 clip~ -0.9 0.9;
#X obj 288 462 * -1;
#X obj 261 113 hip~ 6;
#X obj 261 136 hip~ 5;
#X obj 344 119 + 1;
#X obj 346 92 + 0;
#X obj 262 163 lop~ 8;
#X obj 262 186 lop~ 9;
#X obj 344 146 + 2;
#X obj 343 169 + 1;
#X obj 60 225 + 1;
#X obj 60 198 + 0;
#X obj 60 252 + 2;
#X obj 60 172 t b;
#X obj 174 394 bp~ 30 8;
#X obj 252 394 bp~ 31 8;
#X obj 319 395 bp~ 32 8;
#X obj 230 292 *~;
#X obj 229 318 *~;
#X obj 228 339 *~ 100;
#X obj 279 269 *~;
#X obj 280 293 *~;
#X obj 281 314 *~ 0.01;
#X obj 362 69 t b;
#X obj 233 524 *~;
#X obj 85 675 outlet~;
#X text -37 164 formant;
#X obj 261 210 *~ 100;
#X obj 249 363 *~;
#X text 340 293 maximised d/dt;
#X text 385 135 narrow window;
#X text 400 397 formant;
#X text 341 480 ceiling;
#X obj 232 447 *~ 1000;
#X obj -177 88 netpd-flx \$0 chp-f1-s chp-f1-r;
#X obj 27 135 netpd-flx \$0 chp-f2-s chp-f2-r;
#X obj -77 112 netpd-flx \$0 chp-f3-s chp-f3-r;
#X obj 90 -3 switch~;
#X obj 90 -24 netpd-fx \$0 chp-switch-s chp-switch-r 0;
#X obj 324 433 netpd-fx \$0 chp-clip-s chp-clip-r 0;
#X obj 370 343 netpd-fx \$0 chp-reso-s chp-reso-r 2;
#X obj 346 18 netpd-fx \$0 chp-dense-s chp-dense-r 2;
#X obj 407 43 netpd-fx \$0 chp-tresh-s chp-tresh-r 2;
#X obj 290 502 netpd-flx \$0 chp-level-s chp-level-r 0;
#X obj 312 659 outlet~;
#X obj 270 560 delwrite~ \$0-chp2 200;
#X obj 85 560 delwrite~ \$0-chp1 200;
#X obj 84 655 vd~ \$0-chp1;
#X obj 84 635 *~ 101;
#X obj 84 614 +~ 1;
#X obj 85 591 osc~ 0.005;
#X obj 312 638 delread~ \$0-chp2 50;
#X obj 229 266 abs~;
#X obj 229 246 rzero~ 1;
#X connect 0 0 3 0;
#X connect 1 0 25 0;
#X connect 2 0 1 1;
#X connect 3 0 4 0;
#X connect 4 0 7 0;
#X connect 5 0 3 1;
#X connect 5 0 9 0;
#X connect 6 0 4 1;
#X connect 6 0 5 0;
#X connect 7 0 8 0;
#X connect 8 0 28 0;
#X connect 9 0 10 0;
#X connect 9 0 7 1;
#X connect 10 0 8 1;
#X connect 11 0 13 0;
#X connect 11 0 16 1;
#X connect 12 0 11 0;
#X connect 12 0 15 1;
#X connect 13 0 17 1;
#X connect 14 0 12 0;
#X connect 15 0 34 0;
#X connect 16 0 34 0;
#X connect 17 0 34 0;
#X connect 18 0 19 0;
#X connect 18 0 19 1;
#X connect 19 0 20 0;
#X connect 20 0 29 0;
#X connect 21 0 22 0;
#X connect 21 0 22 1;
#X connect 22 0 23 0;
#X connect 23 0 29 1;
#X connect 24 0 6 0;
#X connect 25 0 46 0;
#X connect 25 0 47 0;
#X connect 28 0 21 0;
#X connect 28 0 21 1;
#X connect 28 0 54 0;
#X connect 29 0 15 0;
#X connect 29 0 16 0;
#X connect 29 0 17 0;
#X connect 34 0 1 0;
#X connect 35 0 12 0;
#X connect 36 0 14 0;
#X connect 36 0 11 1;
#X connect 37 0 14 0;
#X connect 37 0 13 1;
#X connect 39 0 38 0;
#X connect 40 0 2 0;
#X connect 40 0 1 2;
#X connect 41 0 17 2;
#X connect 41 0 16 2;
#X connect 41 0 15 2;
#X connect 42 0 6 0;
#X connect 43 0 24 0;
#X connect 43 0 9 1;
#X connect 44 0 25 1;
#X connect 48 0 26 0;
#X connect 49 0 48 0;
#X connect 50 0 49 0;
#X connect 51 0 50 0;
#X connect 52 0 45 0;
#X connect 53 0 18 1;
#X connect 53 0 18 0;
#X connect 54 0 53 0;
#X restore 519 77 pd chaospipe;
#N canvas 466 289 654 401 fire 0;
#X obj 294 85 hip~ 1000;
#X obj 99 84 bp~ 1200 0.6;
#X obj 194 84 bp~ 2600 0.4;
#X obj 13 83 bp~ 600 0.2;
#N canvas 27 401 450 300 firegen 0;
#N canvas 0 0 242 473 crackles 0;
#X obj 64 394 *~;
#X obj 77 104 env~;
#X obj 77 80 lop~ 1;
#X msg 128 170 bang;
#X obj 77 127 moses 50;
#X obj 128 148 moses 51;
#X obj 128 193 random 30;
#X obj 128 237 line~;
#X msg 128 216 1 \, 0 \$1;
#X obj 128 265 *~;
#X obj 96 325 + 1500;
#X obj 64 349 bp~ 4000 1;
#X obj 95 303 * 500;
#X obj 64 419 outlet~;
#X obj 63 52 inlet~;
#X connect 0 0 13 0;
#X connect 1 0 4 0;
#X connect 2 0 1 0;
#X connect 3 0 6 0;
#X connect 4 1 5 0;
#X connect 5 0 3 0;
#X connect 6 0 8 0;
#X connect 6 0 12 0;
#X connect 7 0 9 0;
#X connect 7 0 9 1;
#X connect 8 0 7 0;
#X connect 9 0 0 1;
#X connect 10 0 11 1;
#X connect 11 0 0 0;
#X connect 12 0 10 0;
#X connect 14 0 2 0;
#X connect 14 0 11 0;
#X restore 57 96 pd crackles;
#N canvas 0 0 450 300 hissing 0;
#X obj 106 188 *~;
#X obj 141 57 lop~ 1;
#X obj 142 107 *~;
#X obj 66 58 hip~ 1000;
#X obj 141 133 *~;
#X obj 142 80 *~ 10;
#X obj 141 157 *~ 600;
#X obj 105 222 outlet~;
#X obj 111 27 inlet~;
#X connect 0 0 7 0;
#X connect 1 0 5 0;
#X connect 2 0 4 0;
#X connect 2 0 4 1;
#X connect 3 0 0 0;
#X connect 4 0 6 0;
#X connect 5 0 2 0;
#X connect 5 0 2 1;
#X connect 6 0 0 1;
#X connect 8 0 1 0;
#X connect 8 0 3 0;
#X restore 149 96 pd hissing;
#N canvas 0 0 170 271 lapping 0;
#X obj 21 109 clip~ -0.9 0.9;
#X obj 21 129 hip~ 25;
#X obj 21 86 hip~ 25;
#X obj 21 40 bp~ 30 5;
#X obj 21 65 *~ 100;
#X obj 21 153 *~ 0.6;
#X obj 20 177 outlet~;
#X obj 21 12 inlet~;
#X connect 0 0 1 0;
#X connect 1 0 5 0;
#X connect 2 0 0 0;
#X connect 3 0 4 0;
#X connect 4 0 2 0;
#X connect 5 0 6 0;
#X connect 7 0 3 0;
#X restore 246 97 pd lapping;
#X obj 148 61 noise~;
#X text 203 60 factor common noise;
#X text 305 129 mix levels;
#X obj 151 154 outlet~;
#X obj 57 123 *~ 0.2;
#X obj 246 123 *~ 0.6;
#X obj 150 122 *~ 0.3;
#X text 144 30 fire generator;
#X connect 0 0 7 0;
#X connect 1 0 9 0;
#X connect 2 0 8 0;
#X connect 3 0 0 0;
#X connect 3 0 1 0;
#X connect 3 0 2 0;
#X connect 7 0 6 0;
#X connect 8 0 6 0;
#X connect 9 0 6 0;
#X restore 100 58 pd firegen;
#N canvas 27 401 424 180 firegen 0;
#N canvas 0 0 242 473 crackles 0;
#X obj 64 394 *~;
#X obj 77 104 env~;
#X obj 77 80 lop~ 1;
#X msg 128 170 bang;
#X obj 77 127 moses 50;
#X obj 128 148 moses 51;
#X obj 128 193 random 30;
#X obj 128 237 line~;
#X msg 128 216 1 \, 0 \$1;
#X obj 128 265 *~;
#X obj 96 325 + 1500;
#X obj 64 349 bp~ 4000 1;
#X obj 95 303 * 500;
#X obj 64 419 outlet~;
#X obj 63 52 inlet~;
#X connect 0 0 13 0;
#X connect 1 0 4 0;
#X connect 2 0 1 0;
#X connect 3 0 6 0;
#X connect 4 1 5 0;
#X connect 5 0 3 0;
#X connect 6 0 8 0;
#X connect 6 0 12 0;
#X connect 7 0 9 0;
#X connect 7 0 9 1;
#X connect 8 0 7 0;
#X connect 9 0 0 1;
#X connect 10 0 11 1;
#X connect 11 0 0 0;
#X connect 12 0 10 0;
#X connect 14 0 2 0;
#X connect 14 0 11 0;
#X restore 60 77 pd crackles;
#N canvas 0 0 450 300 hissing 0;
#X obj 106 188 *~;
#X obj 141 57 lop~ 1;
#X obj 142 107 *~;
#X obj 66 58 hip~ 1000;
#X obj 141 133 *~;
#X obj 142 80 *~ 10;
#X obj 141 157 *~ 600;
#X obj 105 222 outlet~;
#X obj 111 27 inlet~;
#X connect 0 0 7 0;
#X connect 1 0 5 0;
#X connect 2 0 4 0;
#X connect 2 0 4 1;
#X connect 3 0 0 0;
#X connect 4 0 6 0;
#X connect 5 0 2 0;
#X connect 5 0 2 1;
#X connect 6 0 0 1;
#X connect 8 0 1 0;
#X connect 8 0 3 0;
#X restore 152 77 pd hissing;
#N canvas 0 0 170 271 lapping 0;
#X obj 21 109 clip~ -0.9 0.9;
#X obj 21 129 hip~ 25;
#X obj 21 86 hip~ 25;
#X obj 21 40 bp~ 30 5;
#X obj 21 65 *~ 100;
#X obj 21 153 *~ 0.6;
#X obj 20 177 outlet~;
#X obj 21 12 inlet~;
#X connect 0 0 1 0;
#X connect 1 0 5 0;
#X connect 2 0 0 0;
#X connect 3 0 4 0;
#X connect 4 0 2 0;
#X connect 5 0 6 0;
#X connect 7 0 3 0;
#X restore 249 78 pd lapping;
#X obj 151 42 noise~;
#X text 206 41 factor common noise;
#X text 308 110 mix levels;
#X obj 154 135 outlet~;
#X obj 60 104 *~ 0.2;
#X obj 249 104 *~ 0.6;
#X obj 153 103 *~ 0.3;
#X text 147 11 fire generator;
#X connect 0 0 7 0;
#X connect 1 0 9 0;
#X connect 2 0 8 0;
#X connect 3 0 0 0;
#X connect 3 0 1 0;
#X connect 3 0 2 0;
#X connect 7 0 6 0;
#X connect 8 0 6 0;
#X connect 9 0 6 0;
#X restore 193 57 pd firegen;
#N canvas 27 401 450 300 firegen 0;
#N canvas 0 0 242 473 crackles 0;
#X obj 64 394 *~;
#X obj 77 104 env~;
#X obj 77 80 lop~ 1;
#X msg 128 170 bang;
#X obj 77 127 moses 50;
#X obj 128 148 moses 51;
#X obj 128 193 random 30;
#X obj 128 237 line~;
#X msg 128 216 1 \, 0 \$1;
#X obj 128 265 *~;
#X obj 96 325 + 1500;
#X obj 64 349 bp~ 4000 1;
#X obj 95 303 * 500;
#X obj 64 419 outlet~;
#X obj 63 52 inlet~;
#X connect 0 0 13 0;
#X connect 1 0 4 0;
#X connect 2 0 1 0;
#X connect 3 0 6 0;
#X connect 4 1 5 0;
#X connect 5 0 3 0;
#X connect 6 0 8 0;
#X connect 6 0 12 0;
#X connect 7 0 9 0;
#X connect 7 0 9 1;
#X connect 8 0 7 0;
#X connect 9 0 0 1;
#X connect 10 0 11 1;
#X connect 11 0 0 0;
#X connect 12 0 10 0;
#X connect 14 0 2 0;
#X connect 14 0 11 0;
#X restore 57 96 pd crackles;
#N canvas 0 0 450 300 hissing 0;
#X obj 106 188 *~;
#X obj 141 57 lop~ 1;
#X obj 142 107 *~;
#X obj 66 58 hip~ 1000;
#X obj 141 133 *~;
#X obj 142 80 *~ 10;
#X obj 141 157 *~ 600;
#X obj 105 222 outlet~;
#X obj 111 27 inlet~;
#X connect 0 0 7 0;
#X connect 1 0 5 0;
#X connect 2 0 4 0;
#X connect 2 0 4 1;
#X connect 3 0 0 0;
#X connect 4 0 6 0;
#X connect 5 0 2 0;
#X connect 5 0 2 1;
#X connect 6 0 0 1;
#X connect 8 0 1 0;
#X connect 8 0 3 0;
#X restore 149 96 pd hissing;
#N canvas 0 0 170 271 lapping 0;
#X obj 21 109 clip~ -0.9 0.9;
#X obj 21 129 hip~ 25;
#X obj 21 86 hip~ 25;
#X obj 21 40 bp~ 30 5;
#X obj 21 65 *~ 100;
#X obj 21 153 *~ 0.6;
#X obj 20 177 outlet~;
#X obj 21 12 inlet~;
#X connect 0 0 1 0;
#X connect 1 0 5 0;
#X connect 2 0 0 0;
#X connect 3 0 4 0;
#X connect 4 0 2 0;
#X connect 5 0 6 0;
#X connect 7 0 3 0;
#X restore 246 97 pd lapping;
#X obj 148 61 noise~;
#X text 203 60 factor common noise;
#X text 305 129 mix levels;
#X obj 151 154 outlet~;
#X obj 57 123 *~ 0.2;
#X obj 246 123 *~ 0.6;
#X obj 150 122 *~ 0.3;
#X text 144 30 fire generator;
#X connect 0 0 7 0;
#X connect 1 0 9 0;
#X connect 2 0 8 0;
#X connect 3 0 0 0;
#X connect 3 0 1 0;
#X connect 3 0 2 0;
#X connect 7 0 6 0;
#X connect 8 0 6 0;
#X connect 9 0 6 0;
#X restore 295 58 pd firegen;
#N canvas 27 401 450 300 firegen 0;
#N canvas 0 0 242 473 crackles 0;
#X obj 64 394 *~;
#X obj 77 104 env~;
#X obj 77 80 lop~ 1;
#X msg 128 170 bang;
#X obj 77 127 moses 50;
#X obj 128 148 moses 51;
#X obj 128 193 random 30;
#X obj 128 237 line~;
#X msg 128 216 1 \, 0 \$1;
#X obj 128 265 *~;
#X obj 96 325 + 1500;
#X obj 64 349 bp~ 4000 1;
#X obj 95 303 * 500;
#X obj 64 419 outlet~;
#X obj 63 52 inlet~;
#X connect 0 0 13 0;
#X connect 1 0 4 0;
#X connect 2 0 1 0;
#X connect 3 0 6 0;
#X connect 4 1 5 0;
#X connect 5 0 3 0;
#X connect 6 0 8 0;
#X connect 6 0 12 0;
#X connect 7 0 9 0;
#X connect 7 0 9 1;
#X connect 8 0 7 0;
#X connect 9 0 0 1;
#X connect 10 0 11 1;
#X connect 11 0 0 0;
#X connect 12 0 10 0;
#X connect 14 0 2 0;
#X connect 14 0 11 0;
#X restore 57 96 pd crackles;
#N canvas 0 0 450 300 hissing 0;
#X obj 106 188 *~;
#X obj 141 57 lop~ 1;
#X obj 142 107 *~;
#X obj 66 58 hip~ 1000;
#X obj 141 133 *~;
#X obj 142 80 *~ 10;
#X obj 141 157 *~ 600;
#X obj 105 222 outlet~;
#X obj 111 27 inlet~;
#X connect 0 0 7 0;
#X connect 1 0 5 0;
#X connect 2 0 4 0;
#X connect 2 0 4 1;
#X connect 3 0 0 0;
#X connect 4 0 6 0;
#X connect 5 0 2 0;
#X connect 5 0 2 1;
#X connect 6 0 0 1;
#X connect 8 0 1 0;
#X connect 8 0 3 0;
#X restore 149 96 pd hissing;
#N canvas 0 0 170 271 lapping 0;
#X obj 21 109 clip~ -0.9 0.9;
#X obj 21 129 hip~ 25;
#X obj 21 86 hip~ 25;
#X obj 21 40 bp~ 30 5;
#X obj 21 65 *~ 100;
#X obj 21 153 *~ 0.6;
#X obj 20 177 outlet~;
#X obj 21 12 inlet~;
#X connect 0 0 1 0;
#X connect 1 0 5 0;
#X connect 2 0 0 0;
#X connect 3 0 4 0;
#X connect 4 0 2 0;
#X connect 5 0 6 0;
#X connect 7 0 3 0;
#X restore 246 97 pd lapping;
#X obj 148 61 noise~;
#X text 203 60 factor common noise;
#X text 305 129 mix levels;
#X obj 151 154 outlet~;
#X obj 57 123 *~ 0.2;
#X obj 246 123 *~ 0.6;
#X obj 150 122 *~ 0.3;
#X text 144 30 fire generator;
#X connect 0 0 7 0;
#X connect 1 0 9 0;
#X connect 2 0 8 0;
#X connect 3 0 0 0;
#X connect 3 0 1 0;
#X connect 3 0 2 0;
#X connect 7 0 6 0;
#X connect 8 0 6 0;
#X connect 9 0 6 0;
#X restore 13 56 pd firegen;
#X obj 35 226 *~ 0.2;
#X obj 33 362 outlet~;
#X obj 291 363 outlet~;
#X obj 375 298 switch~;
#X obj 290 220 *~ 0.2;
#X obj 407 83 bp~ 600 0.2;
#N canvas 27 401 450 300 firegen 0;
#N canvas 0 0 242 473 crackles 0;
#X obj 64 394 *~;
#X obj 77 104 env~;
#X obj 77 80 lop~ 1;
#X msg 128 170 bang;
#X obj 77 127 moses 50;
#X obj 128 148 moses 51;
#X obj 128 193 random 30;
#X obj 128 237 line~;
#X msg 128 216 1 \, 0 \$1;
#X obj 128 265 *~;
#X obj 96 325 + 1500;
#X obj 64 349 bp~ 4000 1;
#X obj 95 303 * 500;
#X obj 64 419 outlet~;
#X obj 63 52 inlet~;
#X connect 0 0 13 0;
#X connect 1 0 4 0;
#X connect 2 0 1 0;
#X connect 3 0 6 0;
#X connect 4 1 5 0;
#X connect 5 0 3 0;
#X connect 6 0 8 0;
#X connect 6 0 12 0;
#X connect 7 0 9 0;
#X connect 7 0 9 1;
#X connect 8 0 7 0;
#X connect 9 0 0 1;
#X connect 10 0 11 1;
#X connect 11 0 0 0;
#X connect 12 0 10 0;
#X connect 14 0 2 0;
#X connect 14 0 11 0;
#X restore 57 96 pd crackles;
#N canvas 0 0 450 300 hissing 0;
#X obj 106 188 *~;
#X obj 141 57 lop~ 1;
#X obj 142 107 *~;
#X obj 66 58 hip~ 1000;
#X obj 141 133 *~;
#X obj 142 80 *~ 10;
#X obj 141 157 *~ 600;
#X obj 105 222 outlet~;
#X obj 111 27 inlet~;
#X connect 0 0 7 0;
#X connect 1 0 5 0;
#X connect 2 0 4 0;
#X connect 2 0 4 1;
#X connect 3 0 0 0;
#X connect 4 0 6 0;
#X connect 5 0 2 0;
#X connect 5 0 2 1;
#X connect 6 0 0 1;
#X connect 8 0 1 0;
#X connect 8 0 3 0;
#X restore 149 96 pd hissing;
#N canvas 0 0 170 271 lapping 0;
#X obj 21 109 clip~ -0.9 0.9;
#X obj 21 129 hip~ 25;
#X obj 21 86 hip~ 25;
#X obj 21 40 bp~ 30 5;
#X obj 21 65 *~ 100;
#X obj 21 153 *~ 0.6;
#X obj 20 177 outlet~;
#X obj 21 12 inlet~;
#X connect 0 0 1 0;
#X connect 1 0 5 0;
#X connect 2 0 0 0;
#X connect 3 0 4 0;
#X connect 4 0 2 0;
#X connect 5 0 6 0;
#X connect 7 0 3 0;
#X restore 246 97 pd lapping;
#X obj 148 61 noise~;
#X text 203 60 factor common noise;
#X text 305 129 mix levels;
#X obj 151 154 outlet~;
#X obj 57 123 *~ 0.2;
#X obj 246 123 *~ 0.6;
#X obj 150 122 *~ 0.3;
#X text 144 30 fire generator;
#X connect 0 0 7 0;
#X connect 1 0 9 0;
#X connect 2 0 8 0;
#X connect 3 0 0 0;
#X connect 3 0 1 0;
#X connect 3 0 2 0;
#X connect 7 0 6 0;
#X connect 8 0 6 0;
#X connect 9 0 6 0;
#X restore 407 56 pd firegen;
#X obj 375 275 netpd-fx \$0 fire-vol-s fire-vol-r 0;
#X obj 401 166 netpd-fx \$0 fire-s fire-r 0;
#X connect 0 0 8 0;
#X connect 0 0 12 0;
#X connect 1 0 8 0;
#X connect 1 0 12 0;
#X connect 2 0 8 0;
#X connect 2 0 12 0;
#X connect 3 0 8 0;
#X connect 4 0 1 0;
#X connect 5 0 2 0;
#X connect 6 0 0 0;
#X connect 7 0 3 0;
#X connect 8 0 9 0;
#X connect 12 0 10 0;
#X connect 13 0 12 0;
#X connect 14 0 13 0;
#X connect 15 0 11 0;
#X connect 16 0 12 1;
#X connect 16 0 8 1;
#X restore 618 77 pd fire;
#N canvas 0 0 317 174 abslist 0;
#X msg 29 30 m-var~;
#X msg 28 76 m-var-mod~;
#X msg 55 127 pad;
#X restore 173 11 pd abslist;
#X obj 419 246 switch~;
#X text 531 13 Netpd-ised by moritz wettstein--> many thanx to padawan12!
--> check out www.obiwannabe.co.uk for great gamedesign-tutorial made
in puredata.;
#N canvas 0 0 659 878 droids 0;
#X obj 176 659 +~;
#X obj 176 681 cos~;
#X obj 191 502 phasor~;
#X obj 253 610 osc~;
#X obj 191 271 random 1000;
#X obj 191 293 / 1000;
#X obj 191 437 line~;
#X obj 191 414 pack f f;
#X obj 191 316 t f b;
#X obj 242 346 random 2;
#X obj 242 392 *;
#X obj 160 707 *~;
#X obj 159 732 lop~ 10000;
#X obj 159 754 lop~ 10000;
#X obj 159 776 hip~ 100;
#X obj 159 798 hip~ 100;
#X obj 252 584 *~;
#X obj 254 633 *~;
#X obj 175 539 *~;
#X obj 142 503 +~ 100;
#X obj 312 69 s period;
#X obj 258 370 r period;
#X obj 59 414 line~;
#X obj 59 392 pack f f;
#X obj 110 324 random 2;
#X obj 110 370 *;
#X obj 126 348 r period;
#X obj 128 270 s change;
#X obj 59 251 r change;
#X obj 24 323 random 9000;
#X obj 59 272 random 3;
#X obj 59 294 sel 0;
#X obj 48 668 line~;
#X obj 48 646 pack f f;
#X obj 99 557 random 2;
#X obj 99 603 *;
#X obj 115 581 r period;
#X obj 48 484 r change;
#X obj 48 527 sel 0;
#X obj 13 556 random 2;
#X obj 48 505 random 2;
#X obj 290 586 line~;
#X obj 290 564 pack f f;
#X obj 341 496 random 2;
#X obj 341 542 *;
#X obj 357 520 r period;
#X obj 290 423 r change;
#X obj 290 466 sel 0;
#X obj 291 609 +~ 0.2;
#X obj 255 495 random 100;
#X obj 255 518 / 200;
#X obj 290 444 random 4;
#X obj 381 439 line~;
#X obj 381 417 pack f f;
#X obj 432 352 random 2;
#X obj 432 395 *;
#X obj 448 373 r period;
#X obj 381 282 r change;
#X obj 381 325 sel 0;
#X obj 346 351 random 800;
#X obj 380 461 +~ 20;
#X obj 381 303 random 4;
#X obj 191 473 *~ 0.6;
#X obj 156 122 r period;
#X obj 191 249 metro;
#X obj 221 35 r change;
#X obj 221 56 random 3;
#X obj 221 78 sel 0;
#X obj 221 99 random 2;
#X obj 221 120 + 1;
#X obj 221 164 /;
#X obj 221 141 t b f;
#X obj 191 187 loadbang;
#X obj 191 207 del 100;
#X msg 191 228 1;
#X text 160 0 R2D2? Is that you?;
#X text 271 684 ajf2006;
#X obj 99 624 + 3;
#X msg 160 227 0;
#X obj 313 152 switch~;
#X obj 312 45 netpd-flx \$0 droid-speed-s droid-speed-r 200;
#X obj 313 132 netpd-flx \$0 droid-s droid-r 0;
#X obj 160 854 outlet~;
#X obj 160 822 *~ 0.2;
#X connect 0 0 1 0;
#X connect 1 0 11 1;
#X connect 2 0 18 1;
#X connect 3 0 17 0;
#X connect 4 0 5 0;
#X connect 5 0 8 0;
#X connect 6 0 62 0;
#X connect 7 0 6 0;
#X connect 8 0 7 0;
#X connect 8 1 9 0;
#X connect 9 0 10 0;
#X connect 10 0 7 1;
#X connect 11 0 12 0;
#X connect 12 0 13 0;
#X connect 13 0 14 0;
#X connect 14 0 15 0;
#X connect 15 0 83 0;
#X connect 16 0 3 0;
#X connect 17 0 0 1;
#X connect 18 0 0 0;
#X connect 19 0 18 0;
#X connect 21 0 10 1;
#X connect 22 0 19 0;
#X connect 23 0 22 0;
#X connect 24 0 25 0;
#X connect 25 0 23 1;
#X connect 26 0 25 1;
#X connect 28 0 30 0;
#X connect 29 0 23 0;
#X connect 30 0 31 0;
#X connect 31 0 29 0;
#X connect 31 0 24 0;
#X connect 32 0 11 0;
#X connect 33 0 32 0;
#X connect 34 0 35 0;
#X connect 35 0 77 0;
#X connect 36 0 35 1;
#X connect 37 0 40 0;
#X connect 38 0 34 0;
#X connect 38 0 39 0;
#X connect 39 0 33 0;
#X connect 40 0 38 0;
#X connect 41 0 48 0;
#X connect 42 0 41 0;
#X connect 43 0 44 0;
#X connect 44 0 42 1;
#X connect 45 0 44 1;
#X connect 46 0 51 0;
#X connect 47 0 43 0;
#X connect 47 0 49 0;
#X connect 48 0 17 1;
#X connect 49 0 50 0;
#X connect 50 0 42 0;
#X connect 51 0 47 0;
#X connect 52 0 60 0;
#X connect 53 0 52 0;
#X connect 54 0 55 0;
#X connect 55 0 53 1;
#X connect 56 0 55 1;
#X connect 57 0 61 0;
#X connect 58 0 54 0;
#X connect 58 0 59 0;
#X connect 59 0 53 0;
#X connect 60 0 16 1;
#X connect 61 0 58 0;
#X connect 62 0 2 0;
#X connect 62 0 16 0;
#X connect 63 0 70 0;
#X connect 64 0 4 0;
#X connect 64 0 27 0;
#X connect 65 0 66 0;
#X connect 66 0 67 0;
#X connect 67 0 68 0;
#X connect 68 0 69 0;
#X connect 69 0 71 0;
#X connect 70 0 64 1;
#X connect 71 0 70 0;
#X connect 71 1 70 1;
#X connect 72 0 73 0;
#X connect 73 0 74 0;
#X connect 74 0 64 0;
#X connect 77 0 33 1;
#X connect 78 0 64 0;
#X connect 80 0 20 0;
#X connect 81 0 79 0;
#X connect 83 0 82 0;
#X restore 680 77 pd droids;
#N canvas 896 134 400 503 laser 0;
#X obj 97 405 *~;
#X obj 34 374 phasor~;
#X obj 97 377 phasor~;
#X obj 167 375 phasor~;
#X obj 96 429 osc~;
#X obj 96 451 *~ 0.08;
#X obj 111 295 line~;
#X obj 33 328 *~;
#X obj 97 326 *~;
#X obj 166 326 *~;
#X obj 168 352 +~;
#X obj 98 352 +~;
#X obj 34 351 +~;
#X msg 111 273 \$1 10;
#X text 8 4 Forcefield and laser beam generator;
#X obj 42 59 switch~;
#X obj 96 478 outlet~;
#X obj 43 25 netpd-fx \$0 laser-s laser-r 0;
#X obj 111 52 netpd-fx \$0 laser-x-s laser-x-r;
#X obj 129 85 netpd-fx \$0 laser1-s laser1-r;
#X obj 134 105 netpd-fx \$0 laser2-s laser2-r;
#X obj 144 127 netpd-fx \$0 laser3-s laser3-r;
#X obj 159 159 netpd-fx \$0 laser4-s laser4-r;
#X obj 166 181 netpd-fx \$0 laser5-s laser5-r;
#X obj 175 202 netpd-fx \$0 laser6-s laser6-r;
#X connect 0 0 4 0;
#X connect 1 0 0 0;
#X connect 2 0 0 0;
#X connect 3 0 0 0;
#X connect 4 0 5 0;
#X connect 5 0 16 0;
#X connect 6 0 0 1;
#X connect 6 0 7 0;
#X connect 6 0 8 0;
#X connect 6 0 9 0;
#X connect 7 0 12 0;
#X connect 8 0 11 0;
#X connect 9 0 10 0;
#X connect 10 0 3 0;
#X connect 11 0 2 0;
#X connect 12 0 1 0;
#X connect 13 0 6 0;
#X connect 17 0 15 0;
#X connect 18 0 13 0;
#X connect 19 0 12 1;
#X connect 20 0 11 1;
#X connect 21 0 10 1;
#X connect 22 0 7 1;
#X connect 23 0 8 1;
#X connect 24 0 9 1;
#X restore 751 78 pd laser;
#X obj 363 12 pad \$0 playstation;
#X obj 349 34 netpd-x \$0 playstation;
#N canvas 850 118 512 327 onebangs 0;
#X obj 17 302 outlet~;
#X obj 15 145 *~ 1000;
#X obj 16 207 *~ 0.1;
#X obj 15 166 osc~ 440;
#X obj 15 188 clip~ -0.7 0.7;
#X obj 17 231 bp~ 1200 7;
#X obj 16 38 netpd-a police;
#X obj 13 59 netpd-r police;
#X obj 136 281 switch~;
#X obj 15 9 r police;
#X obj 15 123 m-var~ 1400 9001 6;
#N canvas 3 0 987 730 lightning 0;
#X obj 10 426 noise~;
#X obj 96 478 noise~;
#X obj 81 512 *~;
#X obj 80 562 bp~ 333 4;
#X obj 9 449 lop~ 3;
#X obj 81 535 clip~ -1 1;
#X obj 61 380 line;
#X obj 61 426 + 3;
#X obj 61 405 * 30;
#X obj 10 473 *~ 80;
#X obj 126 377 line;
#X obj 79 586 *~;
#X obj 399 334 noise~;
#X obj 561 454 bp~ 40 3;
#X obj 489 454 bp~ 360 5;
#X obj 489 480 *~ 2.5;
#X obj 302 483 *~ 2;
#X obj 420 481 *~ 1.2;
#X obj 419 454 bp~ 235 7;
#X obj 562 478 *~ 10;
#X obj 478 521 bp~ 2500 0.5;
#X obj 451 360 *~ 10;
#X obj 434 381 *~;
#X obj 435 402 clip~ -0.3 0.3;
#X obj 336 455 bp~ 3600 8;
#X obj 252 453 bp~ 2300 7;
#X obj 562 424 * 80;
#X obj 480 427 * 720;
#X obj 421 430 * 480;
#X obj 284 429 * 4600;
#X obj 198 426 * 3600;
#X obj 367 431 * 7200;
#X obj 531 289 /;
#X msg 524 263 1;
#X obj 530 239 t b f;
#X obj 361 141 del;
#X obj 426 141 del;
#X obj 493 140 del;
#X obj 565 140 del;
#X msg 603 72 bang;
#X obj 639 139 del;
#X obj 712 138 del;
#X obj 795 137 del;
#X obj 878 136 del;
#X obj 655 98 random 70;
#X obj 377 120 + 10;
#X obj 377 100 random 15;
#X obj 442 120 + 10;
#X obj 442 100 random 25;
#X obj 509 119 + 10;
#X obj 509 99 random 50;
#X obj 581 99 random 65;
#X obj 728 97 random 90;
#X obj 811 96 random 120;
#X obj 895 95 random 140;
#X obj 261 364 / 20;
#X obj 530 207 f 10;
#X obj 566 207 - 1;
#X msg 530 180 10;
#X obj 477 574 *~ 0.1;
#X obj 531 311 * 4000;
#X msg 61 353 1 \, 0 600;
#X msg 126 353 1 \, 0 6000;
#X obj 261 386 + 0.01;
#X obj 79 608 *~ 0.9;
#X obj 162 454 bp~ 4700 7;
#X obj 690 480 biquad~;
#X obj 692 528 lop~ 200;
#X obj 691 504 hip~ 5;
#X obj 639 453 noise~;
#X obj 692 581 *~;
#X obj 693 551 *~ 20;
#X obj 758 469 *~;
#X obj 758 498 clip~ 0 0.77;
#X obj 758 413 del 1000;
#X obj 108 321 del 200;
#X obj 478 677 *~ 0.9;
#X obj 424 17 inlet;
#X obj 478 701 outlet~;
#X obj 599 667 switch~;
#X msg 598 645 1;
#X obj 539 677 env~;
#X obj 539 699 > 1;
#X obj 452 332 m-var~ 10 5000 6;
#X obj 758 439 m-var~ 2000 20000 6;
#X msg 661 369 1.99829 -0.99842 0.000790062 0 -0.000790062;
#X obj 661 346 loadbang;
#X connect 0 0 4 0;
#X connect 1 0 2 1;
#X connect 2 0 5 0;
#X connect 3 0 11 0;
#X connect 4 0 9 0;
#X connect 5 0 3 0;
#X connect 6 0 8 0;
#X connect 7 0 4 1;
#X connect 8 0 7 0;
#X connect 9 0 2 0;
#X connect 10 0 11 1;
#X connect 11 0 64 0;
#X connect 12 0 22 0;
#X connect 13 0 19 0;
#X connect 14 0 15 0;
#X connect 15 0 20 0;
#X connect 16 0 20 0;
#X connect 17 0 20 0;
#X connect 18 0 17 0;
#X connect 19 0 20 0;
#X connect 20 0 59 0;
#X connect 21 0 22 1;
#X connect 22 0 23 0;
#X connect 23 0 13 0;
#X connect 23 0 14 0;
#X connect 23 0 18 0;
#X connect 23 0 24 0;
#X connect 23 0 25 0;
#X connect 23 0 65 0;
#X connect 24 0 16 0;
#X connect 25 0 16 0;
#X connect 26 0 13 1;
#X connect 27 0 14 1;
#X connect 28 0 18 1;
#X connect 29 0 25 1;
#X connect 30 0 65 1;
#X connect 31 0 24 1;
#X connect 32 0 60 0;
#X connect 33 0 32 0;
#X connect 34 0 33 0;
#X connect 34 0 83 0;
#X connect 34 1 32 1;
#X connect 35 0 36 0;
#X connect 35 0 56 0;
#X connect 36 0 37 0;
#X connect 36 0 56 0;
#X connect 37 0 38 0;
#X connect 37 0 56 0;
#X connect 38 0 40 0;
#X connect 38 0 56 0;
#X connect 39 0 44 0;
#X connect 39 0 35 0;
#X connect 39 0 46 0;
#X connect 39 0 48 0;
#X connect 39 0 50 0;
#X connect 39 0 51 0;
#X connect 39 0 52 0;
#X connect 39 0 53 0;
#X connect 39 0 54 0;
#X connect 39 0 58 0;
#X connect 39 0 74 0;
#X connect 40 0 41 0;
#X connect 40 0 56 0;
#X connect 41 0 42 0;
#X connect 41 0 56 0;
#X connect 42 0 43 0;
#X connect 42 0 56 0;
#X connect 43 0 56 0;
#X connect 44 0 40 1;
#X connect 45 0 35 1;
#X connect 46 0 45 0;
#X connect 47 0 36 1;
#X connect 48 0 47 0;
#X connect 49 0 37 1;
#X connect 50 0 49 0;
#X connect 51 0 38 1;
#X connect 52 0 41 1;
#X connect 53 0 42 1;
#X connect 54 0 43 1;
#X connect 55 0 63 0;
#X connect 56 0 57 0;
#X connect 56 0 55 0;
#X connect 56 0 34 0;
#X connect 57 0 56 1;
#X connect 58 0 56 0;
#X connect 59 0 76 0;
#X connect 60 0 83 2;
#X connect 61 0 6 0;
#X connect 62 0 10 0;
#X connect 63 0 26 0;
#X connect 63 0 27 0;
#X connect 63 0 28 0;
#X connect 63 0 31 0;
#X connect 63 0 29 0;
#X connect 63 0 30 0;
#X connect 64 0 76 0;
#X connect 65 0 16 0;
#X connect 66 0 68 0;
#X connect 67 0 71 0;
#X connect 68 0 67 0;
#X connect 69 0 66 0;
#X connect 70 0 76 0;
#X connect 71 0 70 0;
#X connect 72 0 73 0;
#X connect 73 0 70 1;
#X connect 74 0 84 0;
#X connect 75 0 61 0;
#X connect 75 0 62 0;
#X connect 76 0 78 0;
#X connect 76 0 81 0;
#X connect 77 0 39 0;
#X connect 77 0 75 0;
#X connect 77 0 80 0;
#X connect 80 0 79 0;
#X connect 81 0 82 0;
#X connect 82 0 79 0;
#X connect 83 0 21 0;
#X connect 84 0 72 0;
#X connect 84 0 72 1;
#X connect 85 0 66 0;
#X connect 86 0 85 0;
#X restore 266 184 pd lightning;
#X obj 267 215 env~;
#X obj 267 237 > 0;
#X obj 266 134 t b b;
#X obj 240 166 1;
#X obj 267 75 r thunder;
#X obj 267 94 netpd-a thunder;
#X obj 266 115 netpd-r thunder;
#X obj 13 79 t b b;
#X obj 152 122 1;
#X floatatom 245 292 5 0 0 0 - - -;
#X obj 157 173 sig~;
#X obj 137 149 t f f;
#X connect 1 0 3 0;
#X connect 2 0 5 0;
#X connect 3 0 4 0;
#X connect 4 0 2 0;
#X connect 5 0 0 0;
#X connect 7 0 19 0;
#X connect 9 0 6 0;
#X connect 10 0 1 0;
#X connect 10 1 21 0;
#X connect 10 1 23 0;
#X connect 11 0 12 0;
#X connect 11 0 0 0;
#X connect 12 0 13 0;
#X connect 13 0 8 0;
#X connect 13 0 21 0;
#X connect 14 0 11 0;
#X connect 14 1 15 0;
#X connect 15 0 8 0;
#X connect 15 0 21 0;
#X connect 16 0 17 0;
#X connect 18 0 14 0;
#X connect 19 0 10 0;
#X connect 19 1 20 0;
#X connect 20 0 23 0;
#X connect 22 0 12 0;
#X connect 23 0 22 0;
#X connect 23 1 8 0;
#X restore 827 78 pd onebangs;
#N canvas 150 18 1109 676 stream 0;
#X obj 68 221 osc~;
#X obj 63 166 line~;
#X obj 65 122 + 800;
#X obj 65 98 random 1600;
#X obj 50 281 *~;
#X obj 9 226 lop~ 10;
#X obj 178 203 osc~;
#X obj 177 170 line~;
#X obj 162 282 *~;
#X obj 121 227 lop~ 10;
#X obj 177 123 + 600;
#X obj 107 306 *~;
#X obj 177 99 random 1200;
#X obj 50 330 *~ 0.04;
#X obj 162 331 *~ 0.05;
#X obj 108 330 *~ 0.2;
#X obj 288 202 osc~;
#X obj 287 169 line~;
#X obj 271 278 *~;
#X obj 231 226 lop~ 10;
#X obj 400 203 osc~;
#X obj 399 170 line~;
#X obj 383 278 *~;
#X obj 343 222 lop~ 10;
#X obj 329 310 *~;
#X obj 328 336 *~ 0.2;
#X obj 239 419 *~;
#X obj 287 122 + 900;
#X obj 399 99 random 2200;
#X obj 399 123 + 1100;
#X obj 270 336 *~ 0.1;
#X obj 382 337 *~ 0.1;
#X obj 287 98 random 1800;
#X obj 288 70 metro 5;
#X obj 66 70 metro 3;
#X obj 239 467 hip~ 1000;
#X obj 239 519 hip~ 800;
#X obj 239 545 *~ 20;
#X obj 65 144 pack 1 5;
#X obj 178 145 pack 1 6;
#X obj 107 353 bp~ 1000 8;
#X obj 106 387 hip~ 600;
#X obj 105 426 *~ 0.05;
#X obj 231 250 *~;
#X obj 344 249 *~;
#X obj 287 144 pack 1 6;
#X obj 399 145 pack 1 8;
#X obj 327 360 bp~ 2000 8;
#X obj 326 393 hip~ 700;
#X obj 326 419 *~ 0.009;
#X obj 239 443 bp~ 700 8;
#X obj 238 490 *~ 2;
#X obj 9 252 *~;
#X obj 121 251 *~;
#X obj 239 573 outlet~;
#X obj 479 62 switch~;
#X obj 480 0 netpd-fx \$0 stream-s stream-r 0;
#X obj 428 514 netpd-fx \$0 stream-v-s stream-v-r 0;
#X obj 591 223 osc~;
#X obj 590 190 line~;
#X obj 590 143 + 800;
#X obj 590 119 random 1600;
#X obj 575 302 *~;
#X obj 534 247 lop~ 10;
#X obj 703 224 osc~;
#X obj 702 191 line~;
#X obj 687 303 *~;
#X obj 646 248 lop~ 10;
#X obj 702 144 + 600;
#X obj 632 327 *~;
#X obj 702 120 random 1200;
#X obj 575 351 *~ 0.04;
#X obj 687 352 *~ 0.05;
#X obj 633 351 *~ 0.2;
#X obj 813 223 osc~;
#X obj 812 190 line~;
#X obj 796 299 *~;
#X obj 756 247 lop~ 10;
#X obj 925 224 osc~;
#X obj 924 191 line~;
#X obj 908 299 *~;
#X obj 868 243 lop~ 10;
#X obj 854 331 *~;
#X obj 853 357 *~ 0.2;
#X obj 764 440 *~;
#X obj 812 143 + 900;
#X obj 924 120 random 2200;
#X obj 924 144 + 1100;
#X obj 795 357 *~ 0.1;
#X obj 907 358 *~ 0.1;
#X obj 812 119 random 1800;
#X obj 813 91 metro 5;
#X obj 591 91 metro 3;
#X obj 764 488 hip~ 1000;
#X obj 764 540 hip~ 800;
#X obj 764 566 *~ 20;
#X obj 590 165 pack 1 5;
#X obj 703 166 pack 1 6;
#X obj 632 374 bp~ 1000 8;
#X obj 631 408 hip~ 600;
#X obj 630 447 *~ 0.05;
#X obj 756 271 *~;
#X obj 869 270 *~;
#X obj 812 165 pack 1 6;
#X obj 924 166 pack 1 8;
#X obj 852 381 bp~ 2000 8;
#X obj 851 414 hip~ 700;
#X obj 851 440 *~ 0.009;
#X obj 764 464 bp~ 700 8;
#X obj 763 511 *~ 2;
#X obj 534 273 *~;
#X obj 646 272 *~;
#X obj 764 594 outlet~;
#X obj 8 189 rzero~ 1;
#X obj 117 199 rzero~ 1;
#X obj 226 199 rzero~ 1;
#X obj 338 198 rzero~ 1;
#X obj 520 221 rzero~ 1;
#X obj 638 222 rzero~ 1;
#X obj 748 223 rzero~ 1;
#X obj 857 222 rzero~ 1;
#X connect 0 0 4 1;
#X connect 1 0 0 0;
#X connect 1 0 113 0;
#X connect 2 0 38 0;
#X connect 3 0 2 0;
#X connect 4 0 11 0;
#X connect 4 0 13 0;
#X connect 5 0 52 0;
#X connect 5 0 52 1;
#X connect 6 0 8 1;
#X connect 7 0 6 0;
#X connect 7 0 114 0;
#X connect 8 0 11 1;
#X connect 8 0 14 0;
#X connect 9 0 53 0;
#X connect 9 0 53 1;
#X connect 10 0 39 0;
#X connect 11 0 15 0;
#X connect 12 0 10 0;
#X connect 13 0 41 0;
#X connect 14 0 41 0;
#X connect 15 0 40 0;
#X connect 16 0 18 1;
#X connect 17 0 16 0;
#X connect 17 0 115 0;
#X connect 18 0 24 0;
#X connect 18 0 30 0;
#X connect 19 0 43 0;
#X connect 19 0 43 1;
#X connect 20 0 22 1;
#X connect 21 0 20 0;
#X connect 21 0 116 0;
#X connect 22 0 24 1;
#X connect 22 0 31 0;
#X connect 23 0 44 0;
#X connect 23 0 44 1;
#X connect 24 0 25 0;
#X connect 25 0 47 0;
#X connect 26 0 50 0;
#X connect 27 0 45 0;
#X connect 28 0 29 0;
#X connect 29 0 46 0;
#X connect 30 0 48 0;
#X connect 31 0 48 0;
#X connect 32 0 27 0;
#X connect 33 0 28 0;
#X connect 33 0 32 0;
#X connect 34 0 3 0;
#X connect 34 0 12 0;
#X connect 35 0 51 0;
#X connect 36 0 37 0;
#X connect 37 0 54 0;
#X connect 38 0 1 0;
#X connect 39 0 7 0;
#X connect 40 0 41 0;
#X connect 41 0 42 0;
#X connect 41 0 26 0;
#X connect 42 0 36 0;
#X connect 43 0 18 0;
#X connect 44 0 22 0;
#X connect 45 0 17 0;
#X connect 46 0 21 0;
#X connect 47 0 48 0;
#X connect 48 0 49 0;
#X connect 48 0 26 1;
#X connect 49 0 36 0;
#X connect 50 0 35 0;
#X connect 51 0 36 0;
#X connect 52 0 4 0;
#X connect 53 0 8 0;
#X connect 56 0 34 0;
#X connect 56 0 33 0;
#X connect 56 0 55 0;
#X connect 56 0 92 0;
#X connect 56 0 91 0;
#X connect 57 0 37 1;
#X connect 57 0 95 1;
#X connect 58 0 62 1;
#X connect 59 0 58 0;
#X connect 59 0 117 0;
#X connect 60 0 96 0;
#X connect 61 0 60 0;
#X connect 62 0 69 0;
#X connect 62 0 71 0;
#X connect 63 0 110 0;
#X connect 63 0 110 1;
#X connect 64 0 66 1;
#X connect 65 0 64 0;
#X connect 65 0 118 0;
#X connect 66 0 69 1;
#X connect 66 0 72 0;
#X connect 67 0 111 0;
#X connect 67 0 111 1;
#X connect 68 0 97 0;
#X connect 69 0 73 0;
#X connect 70 0 68 0;
#X connect 71 0 99 0;
#X connect 72 0 99 0;
#X connect 73 0 98 0;
#X connect 74 0 76 1;
#X connect 75 0 74 0;
#X connect 75 0 119 0;
#X connect 76 0 82 0;
#X connect 76 0 88 0;
#X connect 77 0 101 0;
#X connect 77 0 101 1;
#X connect 78 0 80 1;
#X connect 79 0 78 0;
#X connect 79 0 120 0;
#X connect 80 0 82 1;
#X connect 80 0 89 0;
#X connect 81 0 102 0;
#X connect 81 0 102 1;
#X connect 82 0 83 0;
#X connect 83 0 105 0;
#X connect 84 0 108 0;
#X connect 85 0 103 0;
#X connect 86 0 87 0;
#X connect 87 0 104 0;
#X connect 88 0 106 0;
#X connect 89 0 106 0;
#X connect 90 0 85 0;
#X connect 91 0 86 0;
#X connect 91 0 90 0;
#X connect 92 0 61 0;
#X connect 92 0 70 0;
#X connect 93 0 109 0;
#X connect 94 0 95 0;
#X connect 95 0 112 0;
#X connect 96 0 59 0;
#X connect 97 0 65 0;
#X connect 98 0 99 0;
#X connect 99 0 100 0;
#X connect 99 0 84 0;
#X connect 100 0 94 0;
#X connect 101 0 76 0;
#X connect 102 0 80 0;
#X connect 103 0 75 0;
#X connect 104 0 79 0;
#X connect 105 0 106 0;
#X connect 106 0 107 0;
#X connect 106 0 84 1;
#X connect 107 0 94 0;
#X connect 108 0 93 0;
#X connect 109 0 94 0;
#X connect 110 0 62 0;
#X connect 111 0 66 0;
#X connect 113 0 5 0;
#X connect 114 0 9 0;
#X connect 115 0 19 0;
#X connect 116 0 23 0;
#X connect 117 0 63 0;
#X connect 118 0 67 0;
#X connect 119 0 77 0;
#X connect 120 0 81 0;
#X restore 918 78 pd stream;
#N canvas 365 243 933 615 wind 0;
#X obj 131 146 *~ 80000;
#X obj 230 175 *~ 160000;
#X obj 131 170 clip~ 0 1000;
#X obj 230 200 clip~ 0 1000;
#X obj 95 325 *~;
#X obj 59 137 lop~ 1;
#X obj 130 123 lop~ 0.1;
#X obj 231 122 lop~ 0.19;
#X obj 94 349 bp~ 1000 7;
#X obj 56 217 +~ 0.5;
#X obj 56 189 *~ 2000;
#X obj 56 163 *~;
#X obj 94 294 *~ 0.45;
#X obj 130 46 noise~;
#X obj 131 229 +~ 500;
#X obj 231 232 +~ 600;
#X text 127 17 Wind 2;
#X obj 194 262 vcf~ 600 20;
#X obj 96 261 vcf~ 600 7;
#X obj 560 143 *~ 80000;
#X obj 659 172 *~ 160000;
#X obj 560 167 clip~ 0 1000;
#X obj 659 197 clip~ 0 1000;
#X obj 524 322 *~;
#X obj 488 134 lop~ 1;
#X obj 559 120 lop~ 0.1;
#X obj 660 119 lop~ 0.19;
#X obj 523 346 bp~ 1000 7;
#X obj 485 214 +~ 0.5;
#X obj 485 186 *~ 2000;
#X obj 485 160 *~;
#X obj 523 291 *~ 0.45;
#X obj 559 43 noise~;
#X obj 560 226 +~ 500;
#X obj 660 229 +~ 600;
#X obj 623 259 vcf~ 600 20;
#X obj 525 258 vcf~ 600 7;
#X obj 188 417 *~ 0.2;
#X obj 421 423 *~ 0.2;
#X obj 95 475 outlet~;
#X obj 522 475 outlet~;
#X obj 560 2 switch~;
#X obj 560 -19 netpd-flx \$0 wind-s wind-r 0;
#X obj 310 -12 netpd-flx \$0 wind1-s wind1-r 180;
#X obj 324 27 netpd-flx \$0 wind2-s wind2-r 180;
#X connect 0 0 2 0;
#X connect 1 0 3 0;
#X connect 2 0 14 0;
#X connect 3 0 15 0;
#X connect 4 0 8 0;
#X connect 5 0 11 0;
#X connect 5 0 11 1;
#X connect 6 0 0 0;
#X connect 7 0 1 0;
#X connect 8 0 38 0;
#X connect 8 0 39 0;
#X connect 9 0 4 1;
#X connect 10 0 9 0;
#X connect 11 0 10 0;
#X connect 12 0 4 0;
#X connect 13 0 5 0;
#X connect 13 0 6 0;
#X connect 13 0 7 0;
#X connect 13 0 17 0;
#X connect 13 0 18 0;
#X connect 14 0 18 1;
#X connect 15 0 17 1;
#X connect 17 0 12 0;
#X connect 18 0 12 0;
#X connect 19 0 21 0;
#X connect 20 0 22 0;
#X connect 21 0 33 0;
#X connect 22 0 34 0;
#X connect 23 0 27 0;
#X connect 24 0 30 0;
#X connect 24 0 30 1;
#X connect 25 0 19 0;
#X connect 26 0 20 0;
#X connect 27 0 37 0;
#X connect 27 0 40 0;
#X connect 28 0 23 1;
#X connect 29 0 28 0;
#X connect 30 0 29 0;
#X connect 31 0 23 0;
#X connect 32 0 24 0;
#X connect 32 0 25 0;
#X connect 32 0 26 0;
#X connect 32 0 35 0;
#X connect 32 0 36 0;
#X connect 33 0 36 1;
#X connect 34 0 35 1;
#X connect 35 0 31 0;
#X connect 36 0 31 0;
#X connect 37 0 39 0;
#X connect 38 0 40 0;
#X connect 42 0 41 0;
#X connect 43 0 17 2;
#X connect 43 0 35 2;
#X connect 44 0 18 2;
#X connect 44 0 36 2;
#X restore 991 78 pd wind;
#X msg 252 11 version 0.0.7;
#X connect 1 0 2 0;
#X connect 1 0 2 1;
#X connect 2 0 12 0;
#X connect 3 0 2 0;
#X connect 3 0 2 1;
#X connect 4 0 2 0;
#X connect 4 1 2 1;
#X connect 5 0 2 1;
#X connect 5 0 2 0;
#X connect 6 0 2 0;
#X connect 6 0 2 1;
#X connect 7 0 2 0;
#X connect 7 1 2 1;
#X connect 8 0 2 0;
#X connect 8 1 2 1;
#X connect 9 0 2 0;
#X connect 9 1 2 1;
#X connect 10 0 2 0;
#X connect 10 1 2 1;
#X connect 14 0 2 0;
#X connect 14 0 2 1;
#X connect 15 0 2 0;
#X connect 15 0 2 1;
#X connect 16 0 17 0;
#X connect 16 1 17 1;
#X connect 18 0 2 0;
#X connect 18 0 2 1;
#X connect 19 0 2 0;
#X connect 19 1 2 1;
#X connect 20 0 2 0;
#X connect 20 1 2 1;
