#N canvas 384 114 654 323 10;
#X obj 66 168 play-samp-start~;
#X text 246 124 reversed \, attenuated;
#X text 246 101 transposed \, attenuated;
#X obj 318 185 openpanel;
#X obj 315 276 table play-samp;
#X msg 318 206 read -resize \$1 play-samp;
#X obj 318 232 soundfiler;
#X msg 95 103 2.5 play-samp 0.25;
#X obj 318 158 bng 20 250 50 0 empty empty open-sample 0 -6 0 8 -262144
-1 -1;
#X msg 115 124 -1 play-samp 0.8;
#X obj 185 168 tgl 15 0 empty empty empty 17 7 0 10 -262144 -1 -1 0
1;
#X floatatom 318 253 10 0 0 0 - - -;
#X obj 66 20 tgl 15 0 empty empty empty 17 7 0 10 -262144 -1 -1 0 1
;
#X floatatom 124 19 5 0 0 0 - - -;
#X text 248 80 pitch \, table \, gain \, start sample \, duration;
#X obj 66 40 metro 400;
#X floatatom 66 59 10 0 0 0 - - -;
#X msg 66 80 1 play-samp 1 \$1 400;
#X obj 181 219 dbtorms;
#X obj 181 196 hsl 128 15 0 100 0 0 empty empty empty -2 -8 0 10 -262144
-1 -1 11000 1;
#X obj 65 230 dac~;
#X obj 65 200 *~ 0;
#X floatatom 180 242 5 0 0 0 - - -;
#X connect 0 0 21 0;
#X connect 3 0 5 0;
#X connect 5 0 6 0;
#X connect 6 0 11 0;
#X connect 7 0 0 0;
#X connect 8 0 3 0;
#X connect 9 0 0 0;
#X connect 10 0 0 1;
#X connect 12 0 15 0;
#X connect 13 0 15 1;
#X connect 15 0 16 0;
#X connect 16 0 17 0;
#X connect 17 0 0 0;
#X connect 18 0 21 1;
#X connect 18 0 22 0;
#X connect 19 0 18 0;
#X connect 21 0 20 0;
#X connect 21 0 20 1;
