#N canvas 214 100 915 589 10;
#X floatatom 285 80 0 0 0 0 - - -;
#X obj 310 19 loadbang;
#X msg 284 109 control freq \$1;
#X msg 388 109 control amp \$1;
#X msg 388 52 0.7;
#X floatatom 388 83 0 0 0 0 - - -;
#X obj 318 187 plugin~ sine_fcac;
#X obj 416 255 tabwrite~ array1;
#X msg 461 206 1;
#X obj 461 184 loadbang;
#X msg 28 153 info;
#X obj 318 210 print;
#N canvas 0 22 450 300 (subpatch) 0;
#X array array1 100 float 0;
#X coords 0 1 100 -1 200 140 1;
#X restore 538 30 graph;
#X obj 282 686 metro 500;
#X msg 281 664 1;
#X obj 281 642 loadbang;
#X msg 451 515 bindscaled help2;
#X msg 153 516 bind help1;
#X obj 153 476 hsl 128 15 0 8000 0 0 help1-Cutoff empty cutoff_frequency
-2 -8 0 10 -262144 -1 -1 0 1;
#X obj 367 692 tabwrite~ array2;
#N canvas 0 22 450 300 (subpatch) 0;
#X array array2 100 float 0;
#X coords 0 1 100 -1 200 140 1;
#X restore 542 578 graph;
#X obj 453 477 hsl 128 15 0 127 0 0 help2-Cutoff empty cutoff_frequency
-2 -8 0 10 -262144 -1 -1 0 1;
#X obj 368 582 phasor~ 440;
#X text 449 497 or click me;
#X text 155 497 click me;
#X text 246 433 sends values as help1-Cutoff;
#X text 263 454 v;
#X text 263 445 |;
#X text 559 458 v;
#X text 559 449 |;
#X text 542 437 sends values as help2-Cutoff;
#X text 471 374 bindscaled is like bind \, but it translates numbers
from the range 0-127 to the input range defined by the plugin. This
is useful for MIDI controllers.;
#X msg 209 598 unbind;
#X text 91 372 You can use the bind message to bind plugin parameters
to message names automatically.;
#X msg 589 527 bindscaled help2 0 1;
#X text 588 507 You can also override the input range;
#X obj 104 438 loadbang;
#X msg 793 91 \; pd dsp \$1;
#X obj 793 58 tgl 15 0 empty empty empty 17 7 0 10 -262144 -1 -1 1
1;
#X msg 285 50 1000;
#X msg 20 87 control #1 \$1;
#X msg 119 95 control #2 \$1;
#X obj 23 38 hsl 128 15 0.5 10000 0 0 empty empty freq -2 -8 0 10 -204800
-1 -1 1400 1;
#X obj 122 73 hsl 128 15 0 1 0 0 empty empty amp -2 -8 0 10 -191407
-1 -1 7900 1;
#X floatatom 31 61 7 0 0 0 - - -;
#X msg 413 139 listplugins;
#X msg 209 622 info;
#X obj 304 607 plugin~ lpf;
#X text 23 188 print: port in control Frequency 0 0.5;
#X text 23 202 print: port in control Amplitude 0 1;
#X text 21 217 control for Frequency can be sent as either;
#X text 23 234 #1 or freq;
#X text 23 251 control for Amplitude can be sent as either;
#X text 25 268 #2 or amp;
#X obj 461 229 metro 500;
#X text 244 313 ------------------------------------------------------------
;
#X obj 250 331 cnv 15 300 23 empty empty empty 20 12 0 14 -258113 -66577
0;
#X text 257 322;
#X text 23 174 [info] will print the info below in the console;
#X text 13 291 *** is using 'freq' or '#1' instead of Frequency clear
or logical to anyone? ***;
#X text 250 333 [bind] & [bindscaled] do NOT seem to be working;
#X connect 0 0 2 0;
#X connect 1 0 39 0;
#X connect 1 0 4 0;
#X connect 2 0 6 0;
#X connect 3 0 6 0;
#X connect 4 0 5 0;
#X connect 5 0 3 0;
#X connect 6 0 11 0;
#X connect 6 1 7 0;
#X connect 8 0 54 0;
#X connect 9 0 8 0;
#X connect 10 0 6 0;
#X connect 13 0 19 0;
#X connect 14 0 13 0;
#X connect 15 0 14 0;
#X connect 16 0 47 0;
#X connect 17 0 47 0;
#X connect 22 0 47 1;
#X connect 32 0 47 0;
#X connect 34 0 47 0;
#X connect 36 0 17 0;
#X connect 38 0 37 0;
#X connect 39 0 0 0;
#X connect 40 0 6 0;
#X connect 41 0 6 0;
#X connect 42 0 40 0;
#X connect 42 0 44 0;
#X connect 43 0 41 0;
#X connect 45 0 6 0;
#X connect 46 0 47 0;
#X connect 47 1 19 0;
#X connect 54 0 7 0;
