#N canvas 653 526 450 300 10;
#X obj 88 150 element masses m;
#X msg 180 70 traverse pd-paint \, next;
#X obj 181 105 pointer masses;
#X obj 38 194 set mass y;
#X obj 92 113 float \$1;
#X obj 23 39 inlet;
#X obj 20 61 t f b b;
#X obj 132 198 get mass y;
#X obj 133 227 outlet;
#X obj 167 29 inlet;
#X connect 0 0 3 1;
#X connect 0 0 7 0;
#X connect 1 0 2 0;
#X connect 2 0 0 1;
#X connect 4 0 0 0;
#X connect 5 0 6 0;
#X connect 6 0 3 0;
#X connect 6 1 4 0;
#X connect 6 2 1 0;
#X connect 7 0 8 0;
#X connect 9 0 4 0;
