#N canvas 231 73 451 572 10;
#X declare -lib pof;
#X obj 290 469 declare -lib pof;
#X obj 35 313 print BuzaumS;
#X obj 625 512 print MapaS;
#X obj 35 248 pofxml buzaums;
#X obj 617 486 pofxml mapas;
#X msg 35 50 load ./modelo.xml;
#X msg 59 118 symbol 1015-10-0;
#X msg 59 147 gets bus[@id=\$1][@start_time];
#X msg 270 73 symbol 1016-10-1;
#X msg 617 67 getnum /;
#X msg 617 42 load ./mapa_modelo.xml;
#X msg 617 104 getnum links;
#X msg 266 262 symbol 1016-10-1;
#X msg 617 85 getnum nodes;
#X obj 647 127 hradio 15 1 0 15 empty empty empty 0 -8 0 10 -262144
-1 -1 6;
#X msg 617 154 gets node[\$1][@id];
#X msg 617 234 gets node[@id=\$1][@x];
#X msg 756 189 18849;
#X msg 766 203 symbol "18850";
#X msg 617 297 gets nodes[@id=\$1][@x];
#X msg 766 252 18849;
#X msg 764 270 symbol "18850";
#X obj 724 469 print msg;
#X obj 617 453 t a a;
#X text 956 533 .;
#X text 395 470 ======>;
#X msg 617 178 gets nodes[\$1][@id];
#X msg 617 371 gets node[@id=18849]/node;
#X msg 617 394 gets nodes[@id=18849]/node;
#X msg 266 283 get bus[@id=\$1][@interval];
#X obj 35 277 route get gets;
#X msg 270 199 gets bus[@id=\$1][@stops];
#X connect 3 0 30 0;
#X connect 4 0 2 0;
#X connect 5 0 3 0;
#X connect 6 0 7 0;
#X connect 7 0 3 0;
#X connect 8 0 31 0;
#X connect 9 0 23 0;
#X connect 10 0 23 0;
#X connect 11 0 23 0;
#X connect 12 0 29 0;
#X connect 13 0 23 0;
#X connect 14 0 15 0;
#X connect 14 0 26 0;
#X connect 15 0 23 0;
#X connect 16 0 23 0;
#X connect 17 0 16 0;
#X connect 18 0 16 0;
#X connect 19 0 23 0;
#X connect 20 0 19 0;
#X connect 21 0 19 0;
#X connect 23 0 4 0;
#X connect 23 1 22 0;
#X connect 26 0 23 0;
#X connect 27 0 23 0;
#X connect 28 0 23 0;
#X connect 29 0 3 0;
#X connect 30 0 1 0;
#X connect 30 1 1 0;
#X connect 31 0 3 0;
