#N canvas 264 37 332 200 10;
#X obj 38 56 pack 60 120;
#X obj 63 5 bng 15 250 50 0 empty empty empty 0 -6 0 8 -262144 -1 -1
;
#X obj 63 26 t b b;
#X obj 38 88 polypoly 12 1 polytestvox;
#X obj 123 56 pack 1 2 3 4 5 6 7;
#X connect 0 0 3 0;
#X connect 1 0 2 0;
#X connect 2 0 0 0;
#X connect 2 1 4 0;
#X connect 4 0 3 1;
