#N canvas 437 22 380 411 10;
#X obj 93 260 cnv 1 1 1 empty 1-poo empty 20 12 0 14 -1 -66577 0;
#X obj 102 262 cnv 1 1 1 empty 2-poo empty 20 12 0 14 -1 -66577 0;
#X obj 93 260 cnv 1 1 1 empty 3-poo empty 20 12 0 14 -1 -66577 0;
#X obj 93 260 cnv 1 1 1 empty 4-poo empty 20 12 0 14 -1 -66577 0;
#X obj 93 260 cnv 1 1 1 empty 5-poo empty 20 12 0 14 -1 -66577 0;
#X obj 93 260 cnv 1 1 1 empty 6-poo empty 20 12 0 14 -1 -66577 0;
#X obj 93 260 cnv 1 1 1 empty 7-poo empty 20 12 0 14 -1 -66577 0;
#X obj 93 260 cnv 1 1 1 empty 8-poo empty 20 12 0 14 -1 -66577 0;
#X obj 101 262 cnv 1 1 1 empty 9-poo empty 20 12 0 14 -1 -66577 0;
#X obj 93 260 cnv 1 1 1 empty 10-poo empty 20 12 0 14 -1 -66577 0;
#X text 137 181 .;
#X text 118 192 .;
#X text 126 188 .;
#X text 109 199 .;
#X text 139 175 .;
#X text 141 166 .;
#X text 146 175 .;
#X text 150 184 .;
#X text 157 187 .;
#X text 165 192 .;
#X text 132 184 .;
#X text 109 207 .;
#X text 106 203 .;
#X text 130 210 .;
#X text 159 208 .;
#X text 171 197 .;
#X text 112 196 .;
#X text 117 210 .;
#X text 144 210 .;
#X text 171 204 .;
#X text 175 201 .;
#X text 125 230 .;
#X text 97 219 .;
#X text 114 230 .;
#X text 101 230 .;
#X text 188 215 .;
#X text 106 210 .;
#X text 102 215 .;
#X text 95 225 .;
#X text 137 229 .;
#X text 168 223 .;
#X text 148 227 .;
#X text 189 210 .;
#X text 181 201 .;
#X text 182 217 .;
#X text 176 220 .;
#X text 147 181 .;
#X text 143 170 .;
#X text 195 216 .;
#X text 203 219 .;
#X text 208 222 .;
#X text 186 246 .;
#X text 203 239 .;
#X text 196 242 .;
#X text 210 233 .;
#X text 159 225 .;
#X text 163 251 .;
#X text 166 206 .;
#X text 153 208 .;
#X text 138 210 .;
#X text 176 249 .;
#X text 150 253 .;
#X text 82 240 .;
#X text 107 254 .;
#X text 138 254 .;
#X text 125 254 .;
#X text 83 247 .;
#X text 89 251 .;
#X text 88 233 .;
#X text 186 246 .;
#X text 207 237 .;
#X text 196 242 .;
#X text 120 254 .;
#X text 163 251 .;
#X text 176 249 .;
#X text 150 253 .;
#X text 98 253 .;
#X text 115 254 .;
#X text 120 230 .;
#X text 107 229 .;
#X text 132 254 .;
#X text 181 248 .;
#X text 155 226 .;
#X text 142 228 .;
#X text 191 244 .;
#X text 124 210 .;
#X text 169 250 .;
#X text 96 230 .;
#X text 144 253 .;
#X text 131 230 .;
#X text 156 252 .;
#X text 186 205 .;
#X text 85 235 .;
#X text 210 228 .;
#N canvas 253 385 831 299 inside 0;
#N canvas 145 205 563 608 /SUBPATCH/ 0;
#X obj 173 272 line;
#X obj 173 294 t b f;
#X obj 109 316 random 3;
#X obj 109 411 0;
#X obj 109 338 * 0.25;
#X obj 109 361 - 0.25;
#X obj 119 180 metro 5000;
#X obj 173 227 5000;
#X msg 173 248 200 \, 100 \$1;
#X obj 109 385 + 100;
#X obj 206 161 + 5000;
#X obj 204 126 random 5000;
#X obj 159 73 t b b;
#X floatatom 228 196 5 0 0 0 - - -;
#X obj 119 230 delay 0;
#X obj 163 356 100;
#X obj 378 111 * 10;
#X obj 378 138 + 90;
#X msg 109 490 \; \$3-poo pos \$1 \$2;
#X obj 109 434 pack 0 0 0;
#X obj 334 59 inlet;
#X obj 334 82 t b f f;
#X obj 119 150 delay 0;
#X obj 119 206 t b b b;
#X connect 0 0 1 0;
#X connect 1 0 2 0;
#X connect 1 1 19 1;
#X connect 2 0 4 0;
#X connect 3 0 9 1;
#X connect 3 0 19 0;
#X connect 4 0 5 0;
#X connect 5 0 9 0;
#X connect 6 0 23 0;
#X connect 7 0 8 0;
#X connect 8 0 0 0;
#X connect 9 0 3 0;
#X connect 10 0 6 1;
#X connect 10 0 7 1;
#X connect 10 0 13 0;
#X connect 11 0 10 0;
#X connect 11 0 22 1;
#X connect 12 0 22 0;
#X connect 12 1 11 0;
#X connect 14 0 11 0;
#X connect 15 0 9 1;
#X connect 16 0 17 0;
#X connect 17 0 15 1;
#X connect 19 0 18 0;
#X connect 20 0 21 0;
#X connect 21 0 12 0;
#X connect 21 1 19 2;
#X connect 21 2 16 0;
#X connect 22 0 6 0;
#X connect 23 0 14 0;
#X connect 23 1 7 0;
#X connect 23 2 15 0;
#X restore 56 172 pd;
#X obj 56 69 loadbang;
#X msg 56 148 1;
#X obj 56 128 r \$0-st;
#X obj 56 91 s \$0-st;
#X obj 126 69 loadbang;
#X obj 126 128 r \$0-st;
#X obj 126 91 s \$0-st;
#X msg 126 148 2;
#X obj 196 69 loadbang;
#X obj 196 128 r \$0-st;
#X obj 196 91 s \$0-st;
#X obj 266 69 loadbang;
#X obj 266 128 r \$0-st;
#X obj 266 91 s \$0-st;
#X msg 196 148 3;
#X msg 266 148 4;
#X obj 336 69 loadbang;
#X obj 336 128 r \$0-st;
#X obj 336 91 s \$0-st;
#X msg 336 148 5;
#X obj 406 69 loadbang;
#X obj 406 128 r \$0-st;
#X obj 406 91 s \$0-st;
#X obj 476 69 loadbang;
#X obj 476 128 r \$0-st;
#X obj 476 91 s \$0-st;
#X obj 546 69 loadbang;
#X obj 546 128 r \$0-st;
#X obj 546 91 s \$0-st;
#X obj 616 69 loadbang;
#X obj 616 128 r \$0-st;
#X obj 616 91 s \$0-st;
#X obj 686 69 loadbang;
#X obj 686 128 r \$0-st;
#X obj 686 91 s \$0-st;
#X msg 406 148 6;
#X msg 476 148 7;
#X msg 546 148 8;
#X msg 616 148 9;
#X msg 686 148 10;
#N canvas 145 205 563 608 /SUBPATCH/ 0;
#X obj 173 272 line;
#X obj 173 294 t b f;
#X obj 109 316 random 3;
#X obj 109 411 0;
#X obj 109 338 * 0.25;
#X obj 109 361 - 0.25;
#X obj 119 180 metro 5000;
#X obj 173 227 5000;
#X msg 173 248 200 \, 100 \$1;
#X obj 109 385 + 100;
#X obj 206 161 + 5000;
#X obj 204 126 random 5000;
#X obj 159 73 t b b;
#X floatatom 228 196 5 0 0 0 - - -;
#X obj 119 230 delay 0;
#X obj 163 356 100;
#X obj 378 111 * 10;
#X obj 378 138 + 90;
#X msg 109 490 \; \$3-poo pos \$1 \$2;
#X obj 109 434 pack 0 0 0;
#X obj 334 59 inlet;
#X obj 334 82 t b f f;
#X obj 119 150 delay 0;
#X obj 119 206 t b b b;
#X connect 0 0 1 0;
#X connect 1 0 2 0;
#X connect 1 1 19 1;
#X connect 2 0 4 0;
#X connect 3 0 9 1;
#X connect 3 0 19 0;
#X connect 4 0 5 0;
#X connect 5 0 9 0;
#X connect 6 0 23 0;
#X connect 7 0 8 0;
#X connect 8 0 0 0;
#X connect 9 0 3 0;
#X connect 10 0 6 1;
#X connect 10 0 7 1;
#X connect 10 0 13 0;
#X connect 11 0 10 0;
#X connect 11 0 22 1;
#X connect 12 0 22 0;
#X connect 12 1 11 0;
#X connect 14 0 11 0;
#X connect 15 0 9 1;
#X connect 16 0 17 0;
#X connect 17 0 15 1;
#X connect 19 0 18 0;
#X connect 20 0 21 0;
#X connect 21 0 12 0;
#X connect 21 1 19 2;
#X connect 21 2 16 0;
#X connect 22 0 6 0;
#X connect 23 0 14 0;
#X connect 23 1 7 0;
#X connect 23 2 15 0;
#X restore 126 172 pd;
#N canvas 145 205 563 608 /SUBPATCH/ 0;
#X obj 173 272 line;
#X obj 173 294 t b f;
#X obj 109 316 random 3;
#X obj 109 411 0;
#X obj 109 338 * 0.25;
#X obj 109 361 - 0.25;
#X obj 119 180 metro 5000;
#X obj 173 227 5000;
#X msg 173 248 200 \, 100 \$1;
#X obj 109 385 + 100;
#X obj 206 161 + 5000;
#X obj 204 126 random 5000;
#X obj 159 73 t b b;
#X floatatom 228 196 5 0 0 0 - - -;
#X obj 119 230 delay 0;
#X obj 163 356 100;
#X obj 378 111 * 10;
#X obj 378 138 + 90;
#X msg 109 490 \; \$3-poo pos \$1 \$2;
#X obj 109 434 pack 0 0 0;
#X obj 334 59 inlet;
#X obj 334 82 t b f f;
#X obj 119 150 delay 0;
#X obj 119 206 t b b b;
#X connect 0 0 1 0;
#X connect 1 0 2 0;
#X connect 1 1 19 1;
#X connect 2 0 4 0;
#X connect 3 0 9 1;
#X connect 3 0 19 0;
#X connect 4 0 5 0;
#X connect 5 0 9 0;
#X connect 6 0 23 0;
#X connect 7 0 8 0;
#X connect 8 0 0 0;
#X connect 9 0 3 0;
#X connect 10 0 6 1;
#X connect 10 0 7 1;
#X connect 10 0 13 0;
#X connect 11 0 10 0;
#X connect 11 0 22 1;
#X connect 12 0 22 0;
#X connect 12 1 11 0;
#X connect 14 0 11 0;
#X connect 15 0 9 1;
#X connect 16 0 17 0;
#X connect 17 0 15 1;
#X connect 19 0 18 0;
#X connect 20 0 21 0;
#X connect 21 0 12 0;
#X connect 21 1 19 2;
#X connect 21 2 16 0;
#X connect 22 0 6 0;
#X connect 23 0 14 0;
#X connect 23 1 7 0;
#X connect 23 2 15 0;
#X restore 196 172 pd;
#N canvas 145 205 563 608 /SUBPATCH/ 0;
#X obj 173 272 line;
#X obj 173 294 t b f;
#X obj 109 316 random 3;
#X obj 109 411 0;
#X obj 109 338 * 0.25;
#X obj 109 361 - 0.25;
#X obj 119 180 metro 5000;
#X obj 173 227 5000;
#X msg 173 248 200 \, 100 \$1;
#X obj 109 385 + 100;
#X obj 206 161 + 5000;
#X obj 204 126 random 5000;
#X obj 159 73 t b b;
#X floatatom 228 196 5 0 0 0 - - -;
#X obj 119 230 delay 0;
#X obj 163 356 100;
#X obj 378 111 * 10;
#X obj 378 138 + 90;
#X msg 109 490 \; \$3-poo pos \$1 \$2;
#X obj 109 434 pack 0 0 0;
#X obj 334 59 inlet;
#X obj 334 82 t b f f;
#X obj 119 150 delay 0;
#X obj 119 206 t b b b;
#X connect 0 0 1 0;
#X connect 1 0 2 0;
#X connect 1 1 19 1;
#X connect 2 0 4 0;
#X connect 3 0 9 1;
#X connect 3 0 19 0;
#X connect 4 0 5 0;
#X connect 5 0 9 0;
#X connect 6 0 23 0;
#X connect 7 0 8 0;
#X connect 8 0 0 0;
#X connect 9 0 3 0;
#X connect 10 0 6 1;
#X connect 10 0 7 1;
#X connect 10 0 13 0;
#X connect 11 0 10 0;
#X connect 11 0 22 1;
#X connect 12 0 22 0;
#X connect 12 1 11 0;
#X connect 14 0 11 0;
#X connect 15 0 9 1;
#X connect 16 0 17 0;
#X connect 17 0 15 1;
#X connect 19 0 18 0;
#X connect 20 0 21 0;
#X connect 21 0 12 0;
#X connect 21 1 19 2;
#X connect 21 2 16 0;
#X connect 22 0 6 0;
#X connect 23 0 14 0;
#X connect 23 1 7 0;
#X connect 23 2 15 0;
#X restore 266 172 pd;
#N canvas 145 205 563 608 /SUBPATCH/ 0;
#X obj 173 272 line;
#X obj 173 294 t b f;
#X obj 109 316 random 3;
#X obj 109 411 0;
#X obj 109 338 * 0.25;
#X obj 109 361 - 0.25;
#X obj 119 180 metro 5000;
#X obj 173 227 5000;
#X msg 173 248 200 \, 100 \$1;
#X obj 109 385 + 100;
#X obj 206 161 + 5000;
#X obj 204 126 random 5000;
#X obj 159 73 t b b;
#X floatatom 228 196 5 0 0 0 - - -;
#X obj 119 230 delay 0;
#X obj 163 356 100;
#X obj 378 111 * 10;
#X obj 378 138 + 90;
#X msg 109 490 \; \$3-poo pos \$1 \$2;
#X obj 109 434 pack 0 0 0;
#X obj 334 59 inlet;
#X obj 334 82 t b f f;
#X obj 119 150 delay 0;
#X obj 119 206 t b b b;
#X connect 0 0 1 0;
#X connect 1 0 2 0;
#X connect 1 1 19 1;
#X connect 2 0 4 0;
#X connect 3 0 9 1;
#X connect 3 0 19 0;
#X connect 4 0 5 0;
#X connect 5 0 9 0;
#X connect 6 0 23 0;
#X connect 7 0 8 0;
#X connect 8 0 0 0;
#X connect 9 0 3 0;
#X connect 10 0 6 1;
#X connect 10 0 7 1;
#X connect 10 0 13 0;
#X connect 11 0 10 0;
#X connect 11 0 22 1;
#X connect 12 0 22 0;
#X connect 12 1 11 0;
#X connect 14 0 11 0;
#X connect 15 0 9 1;
#X connect 16 0 17 0;
#X connect 17 0 15 1;
#X connect 19 0 18 0;
#X connect 20 0 21 0;
#X connect 21 0 12 0;
#X connect 21 1 19 2;
#X connect 21 2 16 0;
#X connect 22 0 6 0;
#X connect 23 0 14 0;
#X connect 23 1 7 0;
#X connect 23 2 15 0;
#X restore 336 172 pd;
#N canvas 145 205 563 608 /SUBPATCH/ 0;
#X obj 173 272 line;
#X obj 173 294 t b f;
#X obj 109 316 random 3;
#X obj 109 411 0;
#X obj 109 338 * 0.25;
#X obj 109 361 - 0.25;
#X obj 119 180 metro 5000;
#X obj 173 227 5000;
#X msg 173 248 200 \, 100 \$1;
#X obj 109 385 + 100;
#X obj 206 161 + 5000;
#X obj 204 126 random 5000;
#X obj 159 73 t b b;
#X floatatom 228 196 5 0 0 0 - - -;
#X obj 119 230 delay 0;
#X obj 163 356 100;
#X obj 378 111 * 10;
#X obj 378 138 + 90;
#X msg 109 490 \; \$3-poo pos \$1 \$2;
#X obj 109 434 pack 0 0 0;
#X obj 334 59 inlet;
#X obj 334 82 t b f f;
#X obj 119 150 delay 0;
#X obj 119 206 t b b b;
#X connect 0 0 1 0;
#X connect 1 0 2 0;
#X connect 1 1 19 1;
#X connect 2 0 4 0;
#X connect 3 0 9 1;
#X connect 3 0 19 0;
#X connect 4 0 5 0;
#X connect 5 0 9 0;
#X connect 6 0 23 0;
#X connect 7 0 8 0;
#X connect 8 0 0 0;
#X connect 9 0 3 0;
#X connect 10 0 6 1;
#X connect 10 0 7 1;
#X connect 10 0 13 0;
#X connect 11 0 10 0;
#X connect 11 0 22 1;
#X connect 12 0 22 0;
#X connect 12 1 11 0;
#X connect 14 0 11 0;
#X connect 15 0 9 1;
#X connect 16 0 17 0;
#X connect 17 0 15 1;
#X connect 19 0 18 0;
#X connect 20 0 21 0;
#X connect 21 0 12 0;
#X connect 21 1 19 2;
#X connect 21 2 16 0;
#X connect 22 0 6 0;
#X connect 23 0 14 0;
#X connect 23 1 7 0;
#X connect 23 2 15 0;
#X restore 406 172 pd;
#N canvas 145 205 563 608 /SUBPATCH/ 0;
#X obj 173 272 line;
#X obj 173 294 t b f;
#X obj 109 316 random 3;
#X obj 109 411 0;
#X obj 109 338 * 0.25;
#X obj 109 361 - 0.25;
#X obj 119 180 metro 5000;
#X obj 173 227 5000;
#X msg 173 248 200 \, 100 \$1;
#X obj 109 385 + 100;
#X obj 206 161 + 5000;
#X obj 204 126 random 5000;
#X obj 159 73 t b b;
#X floatatom 228 196 5 0 0 0 - - -;
#X obj 119 230 delay 0;
#X obj 163 356 100;
#X obj 378 111 * 10;
#X obj 378 138 + 90;
#X msg 109 490 \; \$3-poo pos \$1 \$2;
#X obj 109 434 pack 0 0 0;
#X obj 334 59 inlet;
#X obj 334 82 t b f f;
#X obj 119 150 delay 0;
#X obj 119 206 t b b b;
#X connect 0 0 1 0;
#X connect 1 0 2 0;
#X connect 1 1 19 1;
#X connect 2 0 4 0;
#X connect 3 0 9 1;
#X connect 3 0 19 0;
#X connect 4 0 5 0;
#X connect 5 0 9 0;
#X connect 6 0 23 0;
#X connect 7 0 8 0;
#X connect 8 0 0 0;
#X connect 9 0 3 0;
#X connect 10 0 6 1;
#X connect 10 0 7 1;
#X connect 10 0 13 0;
#X connect 11 0 10 0;
#X connect 11 0 22 1;
#X connect 12 0 22 0;
#X connect 12 1 11 0;
#X connect 14 0 11 0;
#X connect 15 0 9 1;
#X connect 16 0 17 0;
#X connect 17 0 15 1;
#X connect 19 0 18 0;
#X connect 20 0 21 0;
#X connect 21 0 12 0;
#X connect 21 1 19 2;
#X connect 21 2 16 0;
#X connect 22 0 6 0;
#X connect 23 0 14 0;
#X connect 23 1 7 0;
#X connect 23 2 15 0;
#X restore 476 172 pd;
#N canvas 145 205 563 608 /SUBPATCH/ 0;
#X obj 173 272 line;
#X obj 173 294 t b f;
#X obj 109 316 random 3;
#X obj 109 411 0;
#X obj 109 338 * 0.25;
#X obj 109 361 - 0.25;
#X obj 119 180 metro 5000;
#X obj 173 227 5000;
#X msg 173 248 200 \, 100 \$1;
#X obj 109 385 + 100;
#X obj 206 161 + 5000;
#X obj 204 126 random 5000;
#X obj 159 73 t b b;
#X floatatom 228 196 5 0 0 0 - - -;
#X obj 119 230 delay 0;
#X obj 163 356 100;
#X obj 378 111 * 10;
#X obj 378 138 + 90;
#X msg 109 490 \; \$3-poo pos \$1 \$2;
#X obj 109 434 pack 0 0 0;
#X obj 334 59 inlet;
#X obj 334 82 t b f f;
#X obj 119 150 delay 0;
#X obj 119 206 t b b b;
#X connect 0 0 1 0;
#X connect 1 0 2 0;
#X connect 1 1 19 1;
#X connect 2 0 4 0;
#X connect 3 0 9 1;
#X connect 3 0 19 0;
#X connect 4 0 5 0;
#X connect 5 0 9 0;
#X connect 6 0 23 0;
#X connect 7 0 8 0;
#X connect 8 0 0 0;
#X connect 9 0 3 0;
#X connect 10 0 6 1;
#X connect 10 0 7 1;
#X connect 10 0 13 0;
#X connect 11 0 10 0;
#X connect 11 0 22 1;
#X connect 12 0 22 0;
#X connect 12 1 11 0;
#X connect 14 0 11 0;
#X connect 15 0 9 1;
#X connect 16 0 17 0;
#X connect 17 0 15 1;
#X connect 19 0 18 0;
#X connect 20 0 21 0;
#X connect 21 0 12 0;
#X connect 21 1 19 2;
#X connect 21 2 16 0;
#X connect 22 0 6 0;
#X connect 23 0 14 0;
#X connect 23 1 7 0;
#X connect 23 2 15 0;
#X restore 546 172 pd;
#N canvas 145 205 563 608 /SUBPATCH/ 0;
#X obj 173 272 line;
#X obj 173 294 t b f;
#X obj 109 316 random 3;
#X obj 109 411 0;
#X obj 109 338 * 0.25;
#X obj 109 361 - 0.25;
#X obj 119 180 metro 5000;
#X obj 173 227 5000;
#X msg 173 248 200 \, 100 \$1;
#X obj 109 385 + 100;
#X obj 206 161 + 5000;
#X obj 204 126 random 5000;
#X obj 159 73 t b b;
#X floatatom 228 196 5 0 0 0 - - -;
#X obj 119 230 delay 0;
#X obj 163 356 100;
#X obj 378 111 * 10;
#X obj 378 138 + 90;
#X msg 109 490 \; \$3-poo pos \$1 \$2;
#X obj 109 434 pack 0 0 0;
#X obj 334 59 inlet;
#X obj 334 82 t b f f;
#X obj 119 150 delay 0;
#X obj 119 206 t b b b;
#X connect 0 0 1 0;
#X connect 1 0 2 0;
#X connect 1 1 19 1;
#X connect 2 0 4 0;
#X connect 3 0 9 1;
#X connect 3 0 19 0;
#X connect 4 0 5 0;
#X connect 5 0 9 0;
#X connect 6 0 23 0;
#X connect 7 0 8 0;
#X connect 8 0 0 0;
#X connect 9 0 3 0;
#X connect 10 0 6 1;
#X connect 10 0 7 1;
#X connect 10 0 13 0;
#X connect 11 0 10 0;
#X connect 11 0 22 1;
#X connect 12 0 22 0;
#X connect 12 1 11 0;
#X connect 14 0 11 0;
#X connect 15 0 9 1;
#X connect 16 0 17 0;
#X connect 17 0 15 1;
#X connect 19 0 18 0;
#X connect 20 0 21 0;
#X connect 21 0 12 0;
#X connect 21 1 19 2;
#X connect 21 2 16 0;
#X connect 22 0 6 0;
#X connect 23 0 14 0;
#X connect 23 1 7 0;
#X connect 23 2 15 0;
#X restore 616 172 pd;
#N canvas 145 205 563 608 /SUBPATCH/ 0;
#X obj 173 272 line;
#X obj 173 294 t b f;
#X obj 109 316 random 3;
#X obj 109 411 0;
#X obj 109 338 * 0.25;
#X obj 109 361 - 0.25;
#X obj 119 180 metro 5000;
#X obj 173 227 5000;
#X msg 173 248 200 \, 100 \$1;
#X obj 109 385 + 100;
#X obj 206 161 + 5000;
#X obj 204 126 random 5000;
#X obj 159 73 t b b;
#X floatatom 228 196 5 0 0 0 - - -;
#X obj 119 230 delay 0;
#X obj 163 356 100;
#X obj 378 111 * 10;
#X obj 378 138 + 90;
#X msg 109 490 \; \$3-poo pos \$1 \$2;
#X obj 109 434 pack 0 0 0;
#X obj 334 59 inlet;
#X obj 334 82 t b f f;
#X obj 119 150 delay 0;
#X obj 119 206 t b b b;
#X connect 0 0 1 0;
#X connect 1 0 2 0;
#X connect 1 1 19 1;
#X connect 2 0 4 0;
#X connect 3 0 9 1;
#X connect 3 0 19 0;
#X connect 4 0 5 0;
#X connect 5 0 9 0;
#X connect 6 0 23 0;
#X connect 7 0 8 0;
#X connect 8 0 0 0;
#X connect 9 0 3 0;
#X connect 10 0 6 1;
#X connect 10 0 7 1;
#X connect 10 0 13 0;
#X connect 11 0 10 0;
#X connect 11 0 22 1;
#X connect 12 0 22 0;
#X connect 12 1 11 0;
#X connect 14 0 11 0;
#X connect 15 0 9 1;
#X connect 16 0 17 0;
#X connect 17 0 15 1;
#X connect 19 0 18 0;
#X connect 20 0 21 0;
#X connect 21 0 12 0;
#X connect 21 1 19 2;
#X connect 21 2 16 0;
#X connect 22 0 6 0;
#X connect 23 0 14 0;
#X connect 23 1 7 0;
#X connect 23 2 15 0;
#X restore 686 172 pd;
#X connect 1 0 4 0;
#X connect 2 0 0 0;
#X connect 3 0 2 0;
#X connect 5 0 7 0;
#X connect 6 0 8 0;
#X connect 8 0 41 0;
#X connect 9 0 11 0;
#X connect 10 0 15 0;
#X connect 12 0 14 0;
#X connect 13 0 16 0;
#X connect 15 0 42 0;
#X connect 16 0 43 0;
#X connect 17 0 19 0;
#X connect 18 0 20 0;
#X connect 20 0 44 0;
#X connect 21 0 23 0;
#X connect 22 0 36 0;
#X connect 24 0 26 0;
#X connect 25 0 37 0;
#X connect 27 0 29 0;
#X connect 28 0 38 0;
#X connect 30 0 32 0;
#X connect 31 0 39 0;
#X connect 33 0 35 0;
#X connect 34 0 40 0;
#X connect 36 0 45 0;
#X connect 37 0 46 0;
#X connect 38 0 47 0;
#X connect 39 0 48 0;
#X connect 40 0 49 0;
#X restore 245 343 pd inside;
