#N canvas 511 273 694 304 10;
#X obj 170 151 osc~;
#X obj 168 80 noise~;
#X obj 169 128 *~ 100000;
#X obj 169 106 +~ 2;
#X obj 171 211 snapshot~;
#X obj 171 252 nbx 5 14 -1e+037 1e+037 0 0 empty empty empty 0 -8 0
10 -262144 -1 -1 0 256;
#X obj 171 231 > 0;
#X obj 19 42 metro 0.02;
#X obj 19 20 tgl 15 0 empty empty empty 17 7 0 10 -262144 -1 -1 1 1
;
#X obj 19 -1 loadbang;
#X text 215 79 start with pseudorandom noise on [-1...1];
#X text 207 104 make it on [1...2];
#X text 233 126 make it on [100000...200000];
#X text 203 151 the high frequency jittery oscillator;
#X text 91 42 the low frequency sampling oscillator;
#X text 229 250 a more random sequence of 0s and 1s;
#X text 234 0 A "pseudo-hardware" random generator;
#X connect 0 0 4 0;
#X connect 1 0 3 0;
#X connect 2 0 0 0;
#X connect 3 0 2 0;
#X connect 4 0 6 0;
#X connect 6 0 5 0;
#X connect 7 0 4 0;
#X connect 8 0 7 0;
#X connect 9 0 8 0;
