#N canvas 67 247 131 52 10;
#X obj 1 1 cnv 5 128 47 empty empty empty 5 6 1 9 -249661 -66577 0
;
#X text 6 52 layer_fx;
#X obj 10 91 inlet;
#X obj 10 135 outlet;
#X obj 75 135 outlet;
#X obj 152 4 commun /amount \$0;
#X obj 212 82 commun /fx-index \$0;
#X obj 9 4 hsl 112 14 0.01 1 0 0 \$0-fxAmount \$0 fx_amount 38 8 1
8 -262144 -1 -128992 0 1;
#X obj 233 57 s \$0-index;
#X obj 233 104 r \$0-index-set;
#X text 122 262 Due to dynamics this index could change!! Use symbol
references? (how to manage them?) dir2Abstraction array would need
to do the work... the paths would be absolute.;
#X obj 159 28 route bang;
#X obj 75 91 inlet;
#N canvas 348 193 786 602 new 0;
#X obj 13 28 inlet;
#X text 13 -1 Pixel Effects;
#X obj 13 407 outlet;
#X obj 252 7 cnv 15 250 140 empty empty empty 5 8 1 10 -260390 -1 0
;
#X obj 441 19 inlet;
#X obj 441 122 outlet;
#X obj 65 46 r \$0-fxAmount;
#X obj 264 57 mementoSetup pt.layerfx \$0;
#X obj 119 349 prepend options;
#X obj 169 273 r \$0-index;
#X obj 119 376 s \$0-index-set;
#X msg 72 193 pattern fx/*.pd;
#X obj 106 407 print pt.layerfx-Directory;
#X floatatom 228 307 5 0 0 0 - - -;
#X text 433 257 ^ Hard-coded \, bad bad bad!;
#X obj 84 72 r pt.updateArrays;
#X obj 137 95 loadbang;
#X msg 212 232 clear bang;
#X obj 308 392 s \$0-loadbang;
#X obj 83 473 print pt.layerfx-Dynamic-FX;
#X msg 83 451 bang;
#X obj 13 306 dir2abstractionArray \$0;
#X obj 264 79 s \$0-defaults;
#X obj 70 169 delay 1200;
#X obj 320 128 route layerNum;
#X obj 360 345 print DEBUG;
#X msg 138 212 set-dir d:/pixeltango/;
#X obj 383 290 pack s s f;
#X obj 121 452 prepend symbol;
#X msg 354 325 Dir: \$2 Read-dir: \$1 Layernum \$3;
#X obj 271 260 prepend symbol;
#X text 180 148 <- 500ms per layer... weird....;
#X obj 138 147 * 800;
#X obj 123 116 t b b b;
#X text 310 412 now a delay is no more necessary. i added a [t b a
b] in [dir2abstractionArray].;
#X text 312 449 i would recommend to place the outlets in their execution
order from right to left \, like pd-objs do \, to make such troubles
visibly obvious.;
#X connect 0 0 21 0;
#X connect 4 0 7 0;
#X connect 6 0 21 1;
#X connect 7 0 22 0;
#X connect 7 1 5 0;
#X connect 7 1 24 0;
#X connect 8 0 10 0;
#X connect 9 0 13 0;
#X connect 9 0 21 3;
#X connect 11 0 20 0;
#X connect 11 0 21 2;
#X connect 15 0 33 0;
#X connect 16 0 33 0;
#X connect 17 0 21 2;
#X connect 20 0 19 0;
#X connect 20 0 28 0;
#X connect 21 0 2 0;
#X connect 21 3 12 0;
#X connect 21 3 30 0;
#X connect 21 4 8 0;
#X connect 21 5 18 0;
#X connect 24 0 27 2;
#X connect 24 0 32 0;
#X connect 26 0 21 2;
#X connect 27 0 29 0;
#X connect 28 0 27 0;
#X connect 29 0 25 0;
#X connect 30 0 27 1;
#X connect 32 0 23 1;
#X connect 33 0 11 0;
#X connect 33 1 26 0;
#X connect 33 2 17 0;
#X restore 16 112 pd new interna;
#X msg 140 207 options empty;
#N canvas 0 22 619 303 ugly-magic 0;
#X text 20 11 Our special message "options blah blah ..." needs this
kludge to be able to store the message in "lister" temporarily. UGLY!
is this PD or Zexy's fault? (or popup's?);
#X obj 49 183 lister;
#X obj 86 161 prepend list;
#X obj 49 204 route list;
#X obj 86 139 inlet;
#X obj 49 82 inlet;
#X obj 49 225 outlet;
#X connect 1 0 3 0;
#X connect 2 0 1 1;
#X connect 3 0 6 0;
#X connect 4 0 2 0;
#X connect 5 0 1 0;
#X restore 177 129 pd ugly-magic;
#X text 176 150 ^ mess to only set options when popup is ready.;
#X obj 235 185 r \$0-defaults;
#X obj 159 104 delay 250;
#X obj 3 21 popup 124 float grey95 Effects empty;
#X connect 2 0 13 0;
#X connect 5 0 7 0;
#X connect 6 0 19 0;
#X connect 7 0 5 0;
#X connect 9 0 15 1;
#X connect 11 0 18 0;
#X connect 11 1 6 0;
#X connect 11 1 8 0;
#X connect 12 0 13 1;
#X connect 13 0 3 0;
#X connect 13 1 4 0;
#X connect 14 0 19 0;
#X connect 15 0 19 0;
#X connect 18 0 15 0;
#X connect 19 0 11 0;
#X coords 0 0 1 1 130 49 1;
