#N canvas 277 312 551 357 10;
#X msg 82 111 list one 2 3 4;
#X msg 149 145 bang;
#X msg 264 144 bang;
#X msg 89 143 bang;
#X msg 354 141 bang;
#X obj 264 168 pvar y;
#X obj 342 166 pvar y;
#X obj 149 165 pvar x;
#X obj 82 165 pvar x;
#X obj 342 196 print y2;
#X obj 264 198 print y1;
#X obj 149 195 print x2;
#X obj 82 194 print x1;
#X obj 342 120 pack 0 1 2 3;
#X floatatom 342 99 5 0 0 0 - - -;
#X connect 0 0 8 0;
#X connect 1 0 7 0;
#X connect 2 0 5 0;
#X connect 3 0 8 0;
#X connect 4 0 6 0;
#X connect 5 0 10 0;
#X connect 6 0 9 0;
#X connect 7 0 11 0;
#X connect 8 0 12 0;
#X connect 13 0 6 0;
#X connect 14 0 13 0;
