#N canvas 222 160 808 479 10;
#N canvas 483 205 297 292 square 0;
#X obj 154 123 wrap~;
#X obj 49 68 phasor~ 0;
#X obj 48 210 -~;
#X obj 48 241 outlet~;
#X obj 154 174 -~ 0.5;
#X obj 155 152 splicetrans~;
#X obj 49 175 -~ 0.5;
#X obj 50 153 splicetrans~;
#X obj 49 46 inlet;
#X obj 170 49 inlet~;
#X obj 171 72 +~ 0.5;
#X obj 154 98 -~;
#X connect 0 0 5 0;
#X connect 1 0 11 0;
#X connect 1 0 7 0;
#X connect 2 0 3 0;
#X connect 4 0 2 1;
#X connect 5 0 4 0;
#X connect 6 0 2 0;
#X connect 7 0 6 0;
#X connect 8 0 1 0;
#X connect 8 0 7 1;
#X connect 8 0 5 1;
#X connect 9 0 10 0;
#X connect 10 0 11 1;
#X connect 11 0 0 0;
#X restore 91 263 pd square;
#X obj 91 211 mtof;
#X obj 91 138 random 12;
#X obj 168 159 * 12;
#X obj 168 181 + 30;
#X obj 91 104 t b b;
#X obj 91 187 +;
#X obj 91 60 tgl 15 0 empty empty empty 17 7 0 10 -262144 -1 -1 1 1
;
#X floatatom 204 181 5 0 0 0 - - -;
#X obj 168 138 random 6;
#X floatatom 149 54 5 0 0 0 - - -;
#X floatatom 219 120 5 0 0 0 - - -;
#X obj 247 271 *~;
#X obj 257 241 vline~;
#X obj 90 329 *~;
#X floatatom 29 245 8 0 0 0 - - -;
#X msg 257 216 1 5 \, 0 800 5;
#X msg 162 78 bang;
#N canvas 483 205 297 292 square 0;
#X obj 154 123 wrap~;
#X obj 49 68 phasor~ 0;
#X obj 48 210 -~;
#X obj 48 241 outlet~;
#X obj 154 174 -~ 0.5;
#X obj 49 175 -~ 0.5;
#X obj 49 46 inlet;
#X obj 170 49 inlet~;
#X obj 171 72 +~ 0.5;
#X obj 154 98 -~;
#X connect 0 0 4 0;
#X connect 1 0 9 0;
#X connect 1 0 5 0;
#X connect 2 0 3 0;
#X connect 4 0 2 1;
#X connect 5 0 2 0;
#X connect 6 0 1 0;
#X connect 7 0 8 0;
#X connect 8 0 9 1;
#X connect 9 0 0 0;
#X restore 417 266 pd square;
#X obj 417 214 mtof;
#X obj 417 141 random 12;
#X obj 494 162 * 12;
#X obj 494 184 + 30;
#X obj 417 107 t b b;
#X obj 417 190 +;
#X obj 417 63 tgl 15 0 empty empty empty 17 7 0 10 -262144 -1 -1 0
1;
#X floatatom 530 184 5 0 0 0 - - -;
#X obj 494 141 random 6;
#X floatatom 475 57 5 0 0 0 - - -;
#X floatatom 545 123 5 0 0 0 - - -;
#X obj 573 274 *~;
#X obj 583 244 vline~;
#X obj 416 332 *~;
#X floatatom 355 248 8 0 0 0 - - -;
#X msg 583 219 1 5 \, 0 800 5;
#X msg 488 81 bang;
#X text 416 25 aliased;
#X text 100 28 bandlimited;
#X obj 91 80 metro 150;
#X obj 417 83 metro 150;
#X obj 91 371 *~ 0;
#X obj 129 369 dbtorms;
#X floatatom 129 352 5 0 100 0 - - -;
#X obj 91 396 dac~;
#X obj 417 368 *~ 0;
#X obj 455 366 dbtorms;
#X floatatom 455 349 5 0 100 0 - - -;
#X obj 417 393 dac~;
#X obj 171 233 osc~ 1;
#X obj 172 257 *~ 0.2;
#X floatatom 171 217 5 0 0 0 - - -;
#X obj 490 238 osc~ 1;
#X obj 491 262 *~ 0.2;
#X floatatom 490 222 5 0 0 0 - - -;
#X connect 0 0 14 0;
#X connect 1 0 0 0;
#X connect 1 0 15 0;
#X connect 2 0 6 0;
#X connect 3 0 4 0;
#X connect 4 0 6 1;
#X connect 5 0 2 0;
#X connect 5 1 9 0;
#X connect 6 0 1 0;
#X connect 6 0 16 0;
#X connect 7 0 38 0;
#X connect 8 0 4 1;
#X connect 9 0 3 0;
#X connect 10 0 38 1;
#X connect 11 0 9 1;
#X connect 12 0 14 1;
#X connect 13 0 12 0;
#X connect 13 0 12 1;
#X connect 14 0 40 0;
#X connect 16 0 13 0;
#X connect 17 0 5 0;
#X connect 18 0 32 0;
#X connect 19 0 18 0;
#X connect 19 0 33 0;
#X connect 20 0 24 0;
#X connect 21 0 22 0;
#X connect 22 0 24 1;
#X connect 23 0 20 0;
#X connect 23 1 27 0;
#X connect 24 0 19 0;
#X connect 24 0 34 0;
#X connect 25 0 39 0;
#X connect 26 0 22 1;
#X connect 27 0 21 0;
#X connect 28 0 39 1;
#X connect 29 0 27 1;
#X connect 30 0 32 1;
#X connect 31 0 30 0;
#X connect 31 0 30 1;
#X connect 32 0 44 0;
#X connect 34 0 31 0;
#X connect 35 0 23 0;
#X connect 38 0 5 0;
#X connect 39 0 23 0;
#X connect 40 0 43 0;
#X connect 40 0 43 1;
#X connect 41 0 40 1;
#X connect 42 0 41 0;
#X connect 44 0 47 0;
#X connect 44 0 47 1;
#X connect 45 0 44 1;
#X connect 46 0 45 0;
#X connect 48 0 49 0;
#X connect 49 0 0 1;
#X connect 50 0 48 0;
#X connect 51 0 52 0;
#X connect 52 0 18 1;
#X connect 53 0 51 0;
