#N canvas 326 262 450 300 10;
#X obj 180 177 qrec;
#X obj 92 180 print qrec;
#X obj 93 153 r note;
#X obj 278 123 random 127;
#X obj 197 82 t b b;
#X obj 181 126 random 127;
#X obj 199 54 metro 200;
#X obj 199 33 tgl 15 0 empty empty empty 0 -6 0 8 -262144 -1 -1 0 1
;
#X connect 2 0 1 0;
#X connect 3 0 0 1;
#X connect 4 0 5 0;
#X connect 4 1 3 0;
#X connect 5 0 0 0;
#X connect 6 0 4 0;
#X connect 7 0 6 0;
