#N canvas 2 47 1276 751 12;
#X msg 364 285 \; pd dsp 1;
#X obj 70 11 netreceive 3489 0;
#X msg 280 364 \; pd quit;
#X msg 289 285 \; pd dsp 0;
#X obj 281 332 delay 20;
#X msg 88 303 connect localhost 3488;
#X obj 184 75 s control;
#X obj 317 201 route quit run;
#X obj 317 164 r control;
#X msg 80 269 disconnect;
#X obj 80 335 s socketcontrol;
#X obj 70 43 route volume next control;
#X obj 70 74 s vol;
#X obj 127 74 s next;
#X connect 1 0 11 0;
#X connect 4 0 2 0;
#X connect 5 0 10 0;
#X connect 7 0 3 0;
#X connect 7 0 4 0;
#X connect 7 0 9 0;
#X connect 7 1 0 0;
#X connect 7 1 5 0;
#X connect 8 0 7 0;
#X connect 9 0 10 0;
#X connect 11 0 12 0;
#X connect 11 1 13 0;
#X connect 11 2 6 0;
