#N canvas 586 272 612 586 10;
#X obj 160 417 curve 2;
#X obj 160 88 gemhead;
#X obj 160 298 gemhead;
#X obj 94 244 loadbang;
#X msg 94 273 0;
#X obj 160 109 b;
#X obj 58 73 gemwin;
#X msg 58 52 create \, 1;
#X obj 160 65 tgl 15 0 empty empty empty 17 7 0 10 -262144 -1 -1 1
1;
#X msg 160 175 -0.13 0.81 0 \, -3.05 1.93 0 \, -3.62 3.12 0 \, -0.62
0.55 0 \, 2.26 3.52 0 \, 2.4 -2.66 0 \, -3.72 3.88 0 \, -1.64 3.99
0 \, 2.09 2.58 0 \, 0.66 1.42 0 \,;
#N canvas 0 0 763 534 random-list 0;
#N canvas 415 350 450 300 frand2 0;
#X obj 81 67 t b b;
#X obj 81 36 inlet;
#X obj 81 197 outlet;
#X obj 81 96 random 800;
#X obj 163 97 random 800;
#X obj 81 147 - 4;
#X obj 163 147 - 4;
#X obj 163 123 / 100;
#X obj 81 122 / 100;
#X obj 81 171 pack 0 0 0;
#X connect 0 0 3 0;
#X connect 0 1 4 0;
#X connect 1 0 0 0;
#X connect 3 0 8 0;
#X connect 4 0 7 0;
#X connect 5 0 9 0;
#X connect 6 0 9 1;
#X connect 7 0 6 0;
#X connect 8 0 5 0;
#X connect 9 0 2 0;
#X restore 241 204 pd frand2;
#X obj 241 155 until;
#X obj 241 179 t b b;
#X text 99 203 random coordinates;
#X obj 241 136 f 10;
#X floatatom 271 114 5 0 0 0 - - -;
#X msg 358 299 set;
#X msg 241 253 add2 \$1 \$2 \$3 \, addcomma;
#X obj 241 95 t b b;
#X obj 241 344 outlet;
#X obj 241 74 inlet;
#X connect 0 0 7 0;
#X connect 1 0 2 0;
#X connect 2 0 0 0;
#X connect 4 0 1 0;
#X connect 5 0 4 1;
#X connect 6 0 9 0;
#X connect 7 0 9 0;
#X connect 8 0 4 0;
#X connect 8 1 6 0;
#X connect 10 0 8 0;
#X restore 243 75 pd random-list;
#X msg 243 51 bang;
#N canvas 0 0 463 340 alternate 0;
#X obj 182 119 f;
#X obj 210 119 ==;
#X text 240 117 toggle 0/1;
#X obj 103 143 list prepend;
#X obj 103 168 route 0 1;
#X obj 103 51 inlet;
#X obj 103 77 t a b;
#X obj 103 242 outlet;
#X obj 132 212 outlet;
#X connect 0 0 1 0;
#X connect 0 0 3 1;
#X connect 1 0 0 1;
#X connect 3 0 4 0;
#X connect 4 0 7 0;
#X connect 4 1 8 0;
#X connect 5 0 6 0;
#X connect 6 0 3 0;
#X connect 6 1 0 0;
#X restore 190 380 pd alternate;
#X obj 160 276 t b a;
#X text 238 148 list of coordinates:;
#X connect 1 0 5 0;
#X connect 2 0 0 0;
#X connect 3 0 4 0;
#X connect 4 0 2 0;
#X connect 5 0 9 0;
#X connect 7 0 6 0;
#X connect 8 0 1 0;
#X connect 9 0 13 0;
#X connect 10 0 9 0;
#X connect 11 0 10 0;
#X connect 12 0 0 1;
#X connect 12 1 0 2;
#X connect 13 0 2 0;
#X connect 13 1 12 0;
