#N canvas 0 0 450 377 10;
#X obj 188 184 osc~;
#X obj 177 42 loadbang;
#X obj 186 61 random 500;
#X obj 191 225 *~ 0.1;
#X obj 186 154 t f f;
#X obj 235 153 print randosc;
#X obj 187 110 + 100;
#X obj 317 249 env~;
#X obj 327 304 print \$1-env;
#X obj 112 298 outlet~;
#X connect 0 0 3 0;
#X connect 1 0 2 0;
#X connect 2 0 6 0;
#X connect 3 0 7 0;
#X connect 3 0 9 0;
#X connect 4 0 0 0;
#X connect 4 1 5 0;
#X connect 6 0 4 0;
#X connect 7 0 8 0;
