#N canvas 91 45 952 660 12;
#X obj 36 619 dac~ 1 2 3 4 5 6 7 8, f 46;
#X obj 257 362 makefilename signal%d;
#X msg 257 388 set \$1;
#X obj 313 388 makefilename signal%d;
#X msg 313 414 set \$1;
#X obj 374 412 makefilename signal%d;
#X msg 374 438 set \$1;
#X msg 276 143 clear \, bang;
#X obj 258 173 c_urn 3;
#X obj 258 106 until;
#X msg 235 51 3;
#X obj 36 493 catch~ signal0;
#X obj 81 520 catch~ signal1;
#X obj 127 546 catch~ signal2;
#X obj 257 446 throw~ signal0;
#X obj 313 481 throw~ signal1;
#X obj 375 510 throw~ signal2;
#X msg 258 246 append \$1;
#X obj 257 279 list store;
#X obj 235 76 t b f b;
#X obj 257 310 unpack f f f;
#X text 229 22 bang here to generate lists with 3 unique elements;
#X connect 1 0 2 0;
#X connect 2 0 14 0;
#X connect 3 0 4 0;
#X connect 4 0 15 0;
#X connect 5 0 6 0;
#X connect 6 0 16 0;
#X connect 7 0 8 0;
#X connect 8 0 17 0;
#X connect 8 1 7 0;
#X connect 9 0 8 0;
#X connect 10 0 19 0;
#X connect 11 0 0 0;
#X connect 12 0 0 1;
#X connect 13 0 0 2;
#X connect 17 0 18 0;
#X connect 18 0 20 0;
#X connect 19 0 18 0;
#X connect 19 1 9 0;
#X connect 19 2 18 1;
#X connect 20 0 1 0;
#X connect 20 1 3 0;
#X connect 20 2 5 0;
