#N canvas 435 305 484 374 12;
#X obj 123 29 nbx 5 14 0 100 0 0 empty empty empty 0 -6 0 10 -262144
-1 -1 38 256;
#X obj 123 52 / 100;
#X floatatom 123 82 5 0 0 0 - - -;
#X text 183 29 (0-100);
#X text 172 83 (0-1);
#X floatatom 123 334 5 0 0 0 - - -;
#X floatatom 216 152 5 0 0 0 Minimum - -;
#X obj 123 176 expr ($f1-$f2)/($f3-$f2);
#X floatatom 353 152 5 0 0 0 Maximum - -;
#X obj 123 212 clip 0 1;
#X text 64 111 -------------------------;
#X obj 307 81 loadbang;
#X msg 294 111 0.2;
#X msg 353 111 0.6;
#X obj 123 276 * 127;
#X text 172 273 New range;
#X connect 0 0 1 0;
#X connect 1 0 2 0;
#X connect 2 0 7 0;
#X connect 6 0 7 1;
#X connect 7 0 9 0;
#X connect 8 0 7 2;
#X connect 9 0 14 0;
#X connect 11 0 12 0;
#X connect 11 0 13 0;
#X connect 12 0 6 0;
#X connect 13 0 8 0;
#X connect 14 0 5 0;
