#N canvas 337 98 489 615 10;
#X msg 138 240 10;
#X obj 138 262 until;
#X obj 138 284 f;
#X obj 168 284 + 1;
#X obj 138 416 sel symbol;
#X msg 75 307 symbol /;
#X obj 138 448 list;
#X obj 138 330 t a a;
#X obj 250 310 b;
#X obj 231 246 makefilename;
#X msg 191 129 0;
#X obj 158 166 f;
#X obj 196 167 + 1;
#X msg 231 206 set %.\$1s;
#X obj 111 213 t b b b;
#X msg 185 240 0;
#X obj 75 329 t a a;
#X obj 35 507 sel symbol;
#X obj 94 60 t a a b;
#X obj 107 86 s \$0-s;
#X obj 62 480 r \$0-s;
#X obj 241 268 s \$0-i;
#X obj 94 141 t b b a b;
#X obj 35 204 symbol;
#X obj 68 183 r \$0-i;
#X msg 366 310 set %d;
#X obj 366 146 b;
#X obj 92 565 s \$0-r;
#X obj 35 60 r \$0-r;
#X obj 92 543 b;
#X obj 94 112 symbol;
#X obj 198 449 symbol;
#X msg 243 449 set \$1%d;
#X msg 129 512 set \$1%s;
#X obj 46 388 makefilename;
#X obj 138 392 makefilename;
#X msg 223 512 add2 \$1;
#X msg 297 307 set %s;
#X msg 417 338 set;
#X msg 223 544 1 2 3 4 5 / 5 4 3 2 1;
#X obj 94 5 inlet;
#X text 297 506 Copyright 2011 Jonathan Wilkes;
#X text 335 478 GNU GPL v3;
#X obj 94 27 route symbol;
#X obj 235 58 b;
#N canvas 350 221 516 442 error 0;
#X obj 20 12 inlet;
#X obj 20 34 f;
#X obj 50 82 route 0 1 2;
#X obj 50 412 print Error: ratio2list;
#X obj 80 56 mod 3;
#X obj 48 34 + 1;
#X msg 71 230 ...change the abstraction to fit your needs. After all
it is licensed under the GNU GPL v3 so there's nothing stopping you.
On the other hand there is nothing stopping you from accepting this
abstraction as it is and...[Please send another non-symbol-message
to this abstraction to read the rest of the error];
#X msg 50 325 ratio2list only accepts symbol messages. Symbol messages
start with the word "symbol" that is then followed by a single symbol-atom
(extra atoms will be truncated without warning). If this behavior is
unsatisfactory then I suggest that you...[Please send another non-symbol-message
to this abstraction to read the rest of the error];
#X msg 92 108 redistributing it unchanged-- or for that matter the
person with whom you share it keeping the cycle of distribution going
into the future forever and ever. If you do decide to take that route
then just try to include the help patch in your redistribution so that
others who receive it will know that...[Please send another non-symbol-message
to this abstraction to read the rest of the error];
#X connect 0 0 1 0;
#X connect 1 0 4 0;
#X connect 2 0 7 0;
#X connect 2 1 6 0;
#X connect 2 2 8 0;
#X connect 4 0 5 0;
#X connect 4 0 2 0;
#X connect 5 0 1 1;
#X connect 6 0 3 0;
#X connect 7 0 3 0;
#X connect 8 0 3 0;
#X restore 235 80 pd error;
#X obj 213 589 outlet;
#N canvas 712 177 450 537 squeezebox 0;
#X obj 123 16 inlet;
#X obj 142 70 list split 1;
#X obj 176 97 t a;
#X obj 238 248 expr pow(10 \, $f1);
#X obj 238 224 f;
#X obj 269 224 + 1;
#X obj 169 273 *;
#X obj 169 190 t a b;
#X msg 276 70 0;
#X obj 169 298 +;
#X obj 169 330 t a;
#X obj 142 145 sel /;
#X obj 142 360 f;
#X obj 142 181 b;
#X obj 142 413 tgl 15 0 empty empty empty 17 7 0 10 -262144 -1 -1 0
1;
#X obj 142 382 t b a;
#X obj 142 433 list append;
#X obj 97 511 outlet;
#X obj 159 508 outlet;
#X obj 142 456 route 0 1;
#X msg 396 341 set 0;
#X obj 123 38 t b a b;
#X connect 0 0 21 0;
#X connect 1 0 11 0;
#X connect 1 1 2 0;
#X connect 2 0 1 0;
#X connect 3 0 6 1;
#X connect 4 0 5 0;
#X connect 4 0 3 0;
#X connect 5 0 4 1;
#X connect 6 0 9 0;
#X connect 7 0 6 0;
#X connect 7 1 4 0;
#X connect 8 0 4 1;
#X connect 8 0 9 1;
#X connect 9 0 10 0;
#X connect 10 0 9 1;
#X connect 10 0 12 1;
#X connect 11 0 13 0;
#X connect 11 1 7 0;
#X connect 12 0 15 0;
#X connect 13 0 8 0;
#X connect 13 0 12 0;
#X connect 14 0 16 0;
#X connect 15 0 14 0;
#X connect 15 1 16 1;
#X connect 16 0 19 0;
#X connect 19 0 17 0;
#X connect 19 1 18 0;
#X connect 20 0 14 0;
#X connect 21 0 13 0;
#X connect 21 1 1 0;
#X connect 21 2 8 0;
#X connect 21 2 20 0;
#X restore 223 565 pd squeezebox;
#X obj 304 590 outlet;
#X connect 0 0 1 0;
#X connect 1 0 2 0;
#X connect 2 0 3 0;
#X connect 2 0 7 0;
#X connect 3 0 2 1;
#X connect 4 0 6 0;
#X connect 4 0 8 0;
#X connect 4 0 31 0;
#X connect 5 0 16 0;
#X connect 6 0 36 0;
#X connect 7 0 35 0;
#X connect 7 1 6 1;
#X connect 8 0 1 1;
#X connect 9 0 4 1;
#X connect 9 0 21 0;
#X connect 9 0 31 1;
#X connect 10 0 11 1;
#X connect 11 0 12 0;
#X connect 12 0 11 1;
#X connect 12 0 13 0;
#X connect 13 0 9 0;
#X connect 14 0 5 0;
#X connect 14 1 0 0;
#X connect 14 2 15 0;
#X connect 15 0 2 1;
#X connect 16 0 34 0;
#X connect 16 1 6 1;
#X connect 17 0 39 0;
#X connect 17 1 29 0;
#X connect 18 0 30 0;
#X connect 18 1 19 0;
#X connect 18 2 10 0;
#X connect 18 2 26 0;
#X connect 20 0 17 1;
#X connect 22 0 23 0;
#X connect 22 1 14 0;
#X connect 22 2 9 0;
#X connect 22 3 11 0;
#X connect 23 0 17 0;
#X connect 24 0 23 1;
#X connect 25 0 35 0;
#X connect 26 0 25 0;
#X connect 26 0 37 0;
#X connect 26 0 38 0;
#X connect 28 0 30 0;
#X connect 29 0 27 0;
#X connect 30 0 22 0;
#X connect 31 0 32 0;
#X connect 31 0 33 0;
#X connect 32 0 35 0;
#X connect 33 0 34 0;
#X connect 34 0 4 0;
#X connect 35 0 4 0;
#X connect 36 0 39 0;
#X connect 37 0 34 0;
#X connect 38 0 39 0;
#X connect 39 0 47 0;
#X connect 40 0 43 0;
#X connect 43 0 18 0;
#X connect 43 1 44 0;
#X connect 44 0 45 0;
#X connect 47 0 46 0;
#X connect 47 1 48 0;
