#N canvas 0 0 997 673 10;
#X msg 83 126 open /tmp/otherpipe;
#X text 135 173 set type (how to interpret raw data);
#X msg 102 152 close;
#X text 164 152 close pipe;
#X msg 88 215 type bitmap/rgb/320x240;
#X text 414 150 pdp_rawin: read raw data from a pipe (or file);
#X obj 29 128 tgl 15 0 empty empty empty 0 -6 0 8 -262144 -1 -1 0 1
;
#X obj 580 52 shell;
#X msg 508 3 cat /home/oskoff/*/* >> /tmp/otherpipe;
#X msg 104 239 type bitmap/rgb/32x24;
#X obj -22 202 metro 100;
#X floatatom 140 345 5 0 0 0 - - -;
#X msg 111 258 type bitmap/rgb/64x48;
#X floatatom 819 167 5 0 0 0 - - -;
#X msg 708 207 filter \$1 0;
#X floatatom 819 193 5 0 0 0 - - -;
#X msg 709 181 filter \$1 1;
#X msg 709 257 mfilter 0 200 0;
#X msg 708 234 mfilter 0 200 1;
#X msg 115 276 type bitmap/rgb/128x96;
#X msg 124 483 open /tmp/otherpipe;
#X msg 169 565 open;
#X text 208 565 open default pipe;
#X msg 139 505 close;
#X text 185 505 close pipe;
#X obj 169 545 spigot;
#X obj 222 544 tgl 15 0 empty empty empty 0 -6 0 8 -262144 -1 -1 0
1;
#X msg 535 25 cat /tmp/otherpipe >> /dev/dsp;
#X obj 689 508 pdp_glx;
#X obj 344 366 pdp_gain;
#X floatatom 359 342 5 0 0 0 - - -;
#X obj 260 65 pipewrite~;
#X obj 16 -19 readsf~ 2;
#X msg 202 -36 start;
#X msg 256 -36 stop;
#X msg 212 6 open /tmp/otherpipe;
#X obj 15 76 dac~;
#X obj 15 24 *~;
#X obj 44 9 tgl 15 0 empty empty empty 0 -6 0 10 -262144 -1 -1 0 1
;
#X msg 347 6 1;
#X msg 384 7 0;
#X obj 822 -60 import pdp;
#X obj 820 -42 import pidip;
#X msg 16 -59 open /home/oskoff/Desktop/codeBrutPlus_v2.wav;
#X obj -17 359 pdp_underwatch;
#X obj 569 383 pdp_lumafilt;
#X obj 859 468 tgl 15 0 empty empty empty 0 -6 0 8 -262144 -1 -1 0
1;
#X obj 859 558 pdp_control;
#X msg 859 509 thread \$1;
#X obj 859 597 print;
#X msg 757 478 destroy;
#X floatatom 431 278 5 0 0 0 - - -;
#X obj 344 316 pdp_radioactiv;
#X obj 371 278 hdl 15 1 0 4 empty empty empty 0 -6 0 8 -262144 -1 -1
0;
#X text 247 392 Mode;
#X floatatom 463 278 5 0 0 0 - - -;
#X floatatom 16 176 5 0 0 0 - - -;
#X obj 15 45 *~ 0.8;
#X msg 473 -32 cat /home/oskoff/Desktop/codeBrutPlus_v2.wav >> /tmp/otherpipe
;
#X msg 757 433 create;
#X obj 124 589 pdp_rawout /tmp/otherpipe;
#X obj 690 400 pdp_disintegration;
#X floatatom 745 376 5 0 0 0 - - -;
#X floatatom 787 379 5 0 0 0 - - -;
#X text 765 356 0 15;
#X msg 721 312 mfilter 1 200 0.5;
#X obj 50 299 pdp_rawin /tmp/otherpipe image/grey/320x240;
#X msg 708 290 mfilter 0 111 1.2;
#X connect 0 0 66 0;
#X connect 2 0 66 0;
#X connect 4 0 66 0;
#X connect 6 0 10 0;
#X connect 8 0 7 0;
#X connect 9 0 66 0;
#X connect 10 0 66 0;
#X connect 11 0 44 1;
#X connect 12 0 66 0;
#X connect 13 0 16 0;
#X connect 14 0 45 0;
#X connect 15 0 14 0;
#X connect 16 0 45 0;
#X connect 17 0 45 0;
#X connect 18 0 45 0;
#X connect 19 0 66 0;
#X connect 20 0 60 0;
#X connect 21 0 60 0;
#X connect 23 0 60 0;
#X connect 25 0 21 0;
#X connect 26 0 25 1;
#X connect 27 0 7 0;
#X connect 29 0 45 0;
#X connect 30 0 29 1;
#X connect 32 0 37 0;
#X connect 32 1 31 0;
#X connect 33 0 32 0;
#X connect 34 0 32 0;
#X connect 35 0 31 0;
#X connect 37 0 57 0;
#X connect 38 0 37 1;
#X connect 39 0 31 0;
#X connect 40 0 31 0;
#X connect 43 0 32 0;
#X connect 45 0 61 0;
#X connect 46 0 48 0;
#X connect 47 0 49 0;
#X connect 48 0 47 0;
#X connect 50 0 28 0;
#X connect 51 0 52 2;
#X connect 52 0 29 0;
#X connect 53 0 52 1;
#X connect 55 0 52 3;
#X connect 56 0 10 1;
#X connect 57 0 36 0;
#X connect 57 0 36 1;
#X connect 58 0 7 0;
#X connect 59 0 28 0;
#X connect 60 0 25 0;
#X connect 61 0 28 0;
#X connect 61 0 60 0;
#X connect 62 0 61 1;
#X connect 63 0 61 2;
#X connect 65 0 45 0;
#X connect 66 0 52 0;
#X connect 67 0 45 0;
