#N canvas 498 19 630 639 12;
#X msg 409 45 print;
#X msg 176 58 start;
#X msg 283 67 stop;
#X obj 130 136 osc~ 440;
#X msg 51 88 open \$1.wav;
#X obj 52 31 bng 15 250 50 0 empty empty empty 17 7 0 10 -262144 -1
-1;
#X obj 53 60 savepanel;
#X text 53 7 1;
#X text 171 11 2;
#X obj 41 438 bng 15 250 50 0 empty empty empty 17 7 0 10 -262144 -1
-1;
#X obj 40 467 openpanel;
#X msg 140 436 1;
#X obj 98 581 dac~;
#X obj 132 165 *~ 0.1;
#X msg 40 495 open \$1;
#X obj 176 33 bng 15 250 50 0 empty empty empty 17 7 0 10 -262144 -1
-1;
#X obj 281 43 bng 15 250 50 0 empty empty empty 17 7 0 10 -262144 -1
-1;
#X text 281 12 3;
#X obj 143 216 writesf~ 1;
#X obj 458 170 print;
#X obj 102 547 readsf~ 1;
#X obj 112 315 timer;
#X obj 112 339 print time_beween_open_and_start;
#X obj 343 269 print time_beween_start_and_stop;
#X obj 78 290 bang;
#X obj 175 290 bang;
#X obj 386 235 timer;
#X obj 368 206 bang;
#X obj 417 207 bang;
#X text 424 19 4;
#X msg 206 461 yes;
#X msg 300 464 no;
#X obj 250 530 print readsf_sound?;
#X msg 443 448 print;
#X text 250 464 or;
#X obj 34 606 print;
#X text 205 435 did you hear sound?;
#X text 42 404 5;
#X text 144 405 6;
#X text 260 408 7;
#X text 441 411 8;
#X obj 182 615 timer;
#X obj 182 639 print time_beween_open_and_start;
#X obj 148 590 bang;
#X obj 245 590 bang;
#X connect 0 0 18 0;
#X connect 1 0 18 0;
#X connect 1 0 19 0;
#X connect 1 0 25 0;
#X connect 1 0 27 0;
#X connect 2 0 18 0;
#X connect 2 0 19 0;
#X connect 2 0 28 0;
#X connect 3 0 13 0;
#X connect 4 0 18 0;
#X connect 4 0 19 0;
#X connect 4 0 24 0;
#X connect 5 0 6 0;
#X connect 6 0 4 0;
#X connect 9 0 10 0;
#X connect 10 0 14 0;
#X connect 11 0 20 0;
#X connect 11 0 35 0;
#X connect 11 0 44 0;
#X connect 13 0 18 0;
#X connect 14 0 20 0;
#X connect 14 0 35 0;
#X connect 14 0 43 0;
#X connect 15 0 1 0;
#X connect 16 0 2 0;
#X connect 20 0 12 0;
#X connect 20 0 12 1;
#X connect 21 0 22 0;
#X connect 24 0 21 0;
#X connect 25 0 21 1;
#X connect 26 0 23 0;
#X connect 27 0 26 0;
#X connect 28 0 26 1;
#X connect 30 0 32 0;
#X connect 31 0 32 0;
#X connect 33 0 20 0;
#X connect 41 0 42 0;
#X connect 43 0 41 0;
#X connect 44 0 41 1;
