#N canvas 721 118 544 614 10;
#X declare -lib Gem;
#X obj 8 6 declare -lib Gem;
#X msg 10 38 create \, 1;
#X obj 20 123 gemhead;
#X obj 20 279 teapot;
#X obj 207 417 pix_record;
#X msg 253 260 codeclist;
#X obj 271 439 print;
#X obj 20 251 rotateXYZ;
#X floatatom 38 221 5 0 0 0 - - -, f 5;
#X obj 267 364 tgl 15 0 empty empty empty 17 7 0 10 -262144 -1 -1 1
1;
#X floatatom 235 441 5 0 0 0 - - -, f 5;
#X msg 260 283 codec 0;
#X obj 168 192 t b b a;
#X msg 267 307 auto 0;
#X obj 207 234 pix_snap 0 0 500 500;
#X msg 267 384 record \$1;
#X obj 168 138 gemhead 51;
#X obj 38 198 random 360;
#X obj 38 173 metro 100;
#X obj 38 149 loadbang;
#X text 238 140 <- renders after everything else;
#X obj 10 73 gemwin 20;
#X msg 267 341 file /tmp/mymovie.mov \, auto 0;
#X text 68 74 <-20fps is Gem's default;
#X connect 1 0 21 0;
#X connect 2 0 7 0;
#X connect 4 1 10 0;
#X connect 4 2 6 0;
#X connect 5 0 4 0;
#X connect 7 0 3 0;
#X connect 8 0 7 1;
#X connect 8 0 7 2;
#X connect 8 0 7 3;
#X connect 9 0 15 0;
#X connect 11 0 4 0;
#X connect 12 0 4 0;
#X connect 12 1 14 0;
#X connect 12 2 14 0;
#X connect 13 0 4 0;
#X connect 14 0 4 0;
#X connect 15 0 4 0;
#X connect 16 0 12 0;
#X connect 17 0 8 0;
#X connect 18 0 17 0;
#X connect 19 0 18 0;
#X connect 22 0 4 0;
