#N canvas 489 218 411 207 10;
#X obj 27 22 adc~;
#X obj 27 51 bonk~;
#X msg 27 79 1;
#X obj 138 75 f;
#X obj 165 75 + 1;
#X msg 196 74 -1;
#X msg 206 32 stop;
#X msg 224 120 const 0;
#X obj 137 52 metro 5;
#X obj 28 125 array set rhythm;
#X msg 137 27 bang;
#X obj 138 101 select 499;
#X obj 224 148 array define rhythm 500;
#X obj 137 7 loadbang;
#X connect 0 0 1 0;
#X connect 1 0 2 0;
#X connect 2 0 9 0;
#X connect 3 0 4 0;
#X connect 3 0 9 1;
#X connect 3 0 11 0;
#X connect 4 0 3 1;
#X connect 5 0 3 0;
#X connect 6 0 8 0;
#X connect 6 0 5 0;
#X connect 6 0 7 0;
#X connect 7 0 12 0;
#X connect 8 0 3 0;
#X connect 10 0 8 0;
#X connect 11 0 5 0;
#X connect 11 0 7 0;
#X connect 13 0 10 0;
