#N canvas 326 102 704 630 10;
#X obj 430 24 cnv 15 100 60 empty empty empty 20 12 0 14 -195568 -66577
0;
#N canvas 0 0 450 300 gemwin 0;
#X obj 132 136 gemwin;
#X obj 67 89 outlet;
#X obj 67 10 inlet;
#X obj 67 41 route create;
#X msg 67 70 set destroy;
#X msg 142 68 set create;
#X msg 198 112 destroy;
#X msg 132 112 create \, 1;
#X connect 2 0 3 0;
#X connect 3 0 4 0;
#X connect 3 0 7 0;
#X connect 3 1 5 0;
#X connect 3 1 6 0;
#X connect 4 0 1 0;
#X connect 5 0 1 0;
#X connect 6 0 0 0;
#X connect 7 0 0 0;
#X restore 435 63 pd gemwin;
#X msg 435 44 destroy;
#X text 431 23 Create window:;
#X obj 165 228 gemhead;
#X obj 78 157 loadbang;
#X msg 78 184 0;
#N canvas 360 375 450 300 count 0;
#X obj 106 121 f;
#X obj 140 122 + 1;
#X obj 175 32 inlet;
#X msg 175 58 0;
#X obj 106 30 inlet;
#X obj 106 151 outlet;
#X connect 0 0 1 0;
#X connect 0 0 5 0;
#X connect 1 0 0 1;
#X connect 2 0 3 0;
#X connect 3 0 0 1;
#X connect 4 0 0 0;
#X restore 233 342 pd count;
#X obj 259 67 bng 15 250 50 0 empty empty open-textfile 0 -6 1 8 -262144
-1 -1;
#N canvas 0 0 429 387 textfile 0;
#X obj 85 209 textfile;
#X obj 85 182 until;
#X obj 85 152 t b b;
#X msg 136 182 rewind;
#X obj 148 124 openpanel;
#X msg 148 146 read \$1 cr \, rewind;
#X obj 148 99 inlet;
#X obj 85 101 inlet;
#X obj 85 289 outlet;
#X obj 85 256 list trim;
#X obj 85 233 list prepend text;
#X connect 0 0 10 0;
#X connect 0 1 1 1;
#X connect 1 0 0 0;
#X connect 2 0 1 0;
#X connect 2 1 3 0;
#X connect 3 0 0 0;
#X connect 4 0 5 0;
#X connect 5 0 0 0;
#X connect 6 0 4 0;
#X connect 7 0 2 0;
#X connect 9 0 8 0;
#X connect 10 0 9 0;
#X restore 165 93 pd textfile;
#X floatatom 303 382 5 0 0 1 stretch - -;
#X obj 189 525 text2d;
#X msg 291 471 font \$1;
#X obj 291 452 openpanel;
#X obj 291 435 bng 15 250 50 0 empty empty empty 0 -6 0 8 -262144 -1
-1;
#X obj 165 25 gemhead;
#X obj 165 116 t b a b;
#X obj 165 50 t b b;
#X msg 291 498 justify left center;
#X obj 165 414 translateXYZ;
#X floatatom 308 217 5 0 0 0 - - -;
#X floatatom 359 216 5 0 0 0 - - -;
#X obj 165 282 translateXYZ -3.8 3.8 0;
#X text 310 195 Position;
#X floatatom 254 524 5 0 0 0 - - -;
#X obj 233 382 * -0.3;
#X connect 1 0 2 0;
#X connect 2 0 1 0;
#X connect 4 0 22 0;
#X connect 5 0 6 0;
#X connect 6 0 4 0;
#X connect 7 0 25 0;
#X connect 8 0 9 1;
#X connect 9 0 16 0;
#X connect 10 0 25 1;
#X connect 12 0 11 0;
#X connect 13 0 12 0;
#X connect 14 0 13 0;
#X connect 15 0 17 0;
#X connect 16 0 4 0;
#X connect 16 1 11 0;
#X connect 16 2 7 0;
#X connect 17 0 9 0;
#X connect 17 1 7 1;
#X connect 18 0 11 0;
#X connect 19 0 11 0;
#X connect 20 0 22 1;
#X connect 21 0 22 2;
#X connect 22 0 19 0;
#X connect 24 0 11 1;
#X connect 25 0 19 2;
