#N canvas 340 256 395 569 10;
#X obj 37 70 inlet~;
#X obj 111 70 inlet~;
#X obj 36 523 outlet~;
#X obj 74 502 outlet~;
#X obj 36 481 cpole~;
#X obj 163 147 samplerate~;
#X obj 227 424 *~;
#X obj 185 424 *~;
#X obj 112 171 /~ 44100;
#X obj 159 235 +~ 0.25;
#X obj 158 263 cos~;
#X obj 113 264 cos~;
#X obj 163 125 loadbang;
#X obj 287 73 inlet~;
#X connect 0 0 4 0;
#X connect 1 0 8 0;
#X connect 4 0 2 0;
#X connect 4 1 3 0;
#X connect 5 0 8 1;
#X connect 6 0 4 3;
#X connect 7 0 4 2;
#X connect 8 0 11 0;
#X connect 8 0 9 0;
#X connect 9 0 10 0;
#X connect 10 0 6 0;
#X connect 11 0 7 0;
#X connect 12 0 5 0;
#X connect 13 0 7 1;
#X connect 13 0 6 1;
#X coords 0 0 1 1 85 60 0;
