#N canvas 129 12 356 356 12;
#X msg 80 52 bang;
#X obj 80 118 print;
#X obj 80 86 route bang;
#X msg 120 202 bang;
#X obj 120 268 print;
#X obj 120 236 route;
#X msg 178 57 bang;
#X obj 178 123 print;
#X obj 178 91 route float;
#X text 72 24 these work for me .;
#X text 69 174 this doesnt seem to work for me .;
#X connect 0 0 2 0;
#X connect 2 0 1 0;
#X connect 3 0 5 0;
#X connect 5 1 4 0;
#X connect 6 0 8 0;
#X connect 8 1 7 0;
