#N canvas 622 211 650 439 10;
#X obj 29 -58 gemhead;
#X obj 29 -35 pix_video;
#X obj 29 104 pix_texture;
#X obj 28 192 rectangle 4 3;
#X obj 159 9 gemwin;
#X msg 136 -34 create \, 1;
#X msg 214 -33 destroy;
#X obj 135 -57 loadbang;
#X obj 29 77 pix_rtx;
#X obj 29 134 pix_coordinate;
#X msg 141 100 0 0.5 0.5 1 1 0.5 0.5 0;
#X floatatom 361 46 5 0 0 0 - - -;
#N canvas 75 188 790 544 4corners 0;
#X obj 221 273 sin;
#X obj 191 273 cos;
#X obj 191 197 / 360;
#X obj 191 217 * 6.2832;
#X obj 191 237 t f f;
#X obj 191 383 + 1;
#X obj 221 383 + 1;
#X floatatom 191 412 5 0 0 0 - - -;
#X floatatom 231 412 5 0 0 0 - - -;
#X obj 191 17 inlet;
#X obj 311 273 sin;
#X obj 281 273 cos;
#X obj 281 197 / 360;
#X obj 281 217 * 6.2832;
#X obj 281 237 t f f;
#X obj 281 383 + 1;
#X obj 311 383 + 1;
#X floatatom 281 412 5 0 0 0 - - -;
#X floatatom 321 412 5 0 0 0 - - -;
#X obj 391 273 sin;
#X obj 361 273 cos;
#X obj 361 197 / 360;
#X obj 361 217 * 6.2832;
#X obj 361 237 t f f;
#X obj 361 383 + 1;
#X obj 391 383 + 1;
#X floatatom 361 412 5 0 0 0 - - -;
#X floatatom 401 412 5 0 0 0 - - -;
#X obj 481 273 sin;
#X obj 451 273 cos;
#X obj 451 197 / 360;
#X obj 451 217 * 6.2832;
#X obj 451 237 t f f;
#X obj 451 383 + 1;
#X obj 481 383 + 1;
#X floatatom 451 412 5 0 0 0 - - -;
#X floatatom 491 412 5 0 0 0 - - -;
#X obj 191 147 t f f f f;
#X obj 191 177 + 0;
#X obj 281 177 + 90;
#X obj 361 177 + 180;
#X obj 451 177 + 270;
#X obj 171 453 pack 0 0 0 0 0 0 0 0;
#X obj 171 473 outlet;
#X floatatom 568 338 5 0 0 0 - - -;
#X obj 564 28 inlet;
#X obj 191 333 * 1;
#X obj 221 333 * 1;
#X obj 281 333 * 1;
#X obj 311 333 * 1;
#X obj 361 333 * 1;
#X obj 391 333 * 1;
#X obj 451 333 * 1;
#X obj 481 333 * 1;
#X floatatom 618 278 5 0 0 0 - - -;
#X obj 614 28 inlet;
#X obj 191 117 0;
#X obj 564 48 t b f;
#X obj 614 48 t b f;
#X obj 191 47 + 45;
#X connect 0 0 47 0;
#X connect 1 0 46 0;
#X connect 2 0 3 0;
#X connect 3 0 4 0;
#X connect 4 0 1 0;
#X connect 4 1 0 0;
#X connect 5 0 7 0;
#X connect 5 0 42 0;
#X connect 6 0 8 0;
#X connect 6 0 42 1;
#X connect 9 0 59 0;
#X connect 10 0 49 0;
#X connect 11 0 48 0;
#X connect 12 0 13 0;
#X connect 13 0 14 0;
#X connect 14 0 11 0;
#X connect 14 1 10 0;
#X connect 15 0 17 0;
#X connect 15 0 42 2;
#X connect 16 0 18 0;
#X connect 16 0 42 3;
#X connect 19 0 51 0;
#X connect 20 0 50 0;
#X connect 21 0 22 0;
#X connect 22 0 23 0;
#X connect 23 0 20 0;
#X connect 23 1 19 0;
#X connect 24 0 26 0;
#X connect 24 0 42 4;
#X connect 25 0 27 0;
#X connect 25 0 42 5;
#X connect 28 0 53 0;
#X connect 29 0 52 0;
#X connect 30 0 31 0;
#X connect 31 0 32 0;
#X connect 32 0 29 0;
#X connect 32 1 28 0;
#X connect 33 0 35 0;
#X connect 33 0 42 6;
#X connect 34 0 36 0;
#X connect 34 0 42 7;
#X connect 37 0 38 0;
#X connect 37 1 39 0;
#X connect 37 2 40 0;
#X connect 37 3 41 0;
#X connect 38 0 2 0;
#X connect 39 0 12 0;
#X connect 40 0 21 0;
#X connect 41 0 30 0;
#X connect 42 0 43 0;
#X connect 44 0 34 1;
#X connect 44 0 33 1;
#X connect 44 0 25 1;
#X connect 44 0 24 1;
#X connect 44 0 16 1;
#X connect 44 0 15 1;
#X connect 44 0 6 1;
#X connect 44 0 5 1;
#X connect 45 0 57 0;
#X connect 46 0 5 0;
#X connect 47 0 6 0;
#X connect 48 0 15 0;
#X connect 49 0 16 0;
#X connect 50 0 24 0;
#X connect 51 0 25 0;
#X connect 52 0 33 0;
#X connect 53 0 34 0;
#X connect 54 0 53 1;
#X connect 54 0 52 1;
#X connect 54 0 51 1;
#X connect 54 0 50 1;
#X connect 54 0 49 1;
#X connect 54 0 48 1;
#X connect 54 0 47 1;
#X connect 54 0 46 1;
#X connect 55 0 58 0;
#X connect 56 0 37 0;
#X connect 57 0 56 0;
#X connect 57 1 44 0;
#X connect 58 0 56 0;
#X connect 58 1 54 0;
#X connect 59 0 56 0;
#X restore 356 100 pd 4corners;
#X msg 141 140 \$1 \$2 \$3 \$4 \$5 \$6 \$7 \$8;
#X floatatom 419 46 5 0 0 0 - - -;
#X floatatom 489 46 5 0 0 0 - - -;
#X text 349 27 0-360;
#X text 348 12 degrees;
#X text 419 27 0-1;
#X text 418 12 offset;
#X text 488 12 size;
#X text 489 27 0-1;
#X connect 0 0 1 0;
#X connect 1 0 8 0;
#X connect 2 0 9 0;
#X connect 5 0 4 0;
#X connect 6 0 4 0;
#X connect 7 0 5 0;
#X connect 8 0 2 0;
#X connect 9 0 3 0;
#X connect 10 0 9 1;
#X connect 11 0 12 0;
#X connect 12 0 13 0;
#X connect 13 0 9 1;
#X connect 14 0 12 1;
#X connect 15 0 12 2;
