#N canvas 290 51 611 383 10;
#X text 178 2 ADDITIVE SYNTHESIS;
#X obj 26 307 output~;
#X obj 290 202 loadbang;
#X msg 290 233 72;
#X floatatom 290 262 0 0 0 0 - - -;
#X obj 290 290 mtof;
#X obj 290 319 s frequency;
#X floatatom 380 263 0 0 0 0 - - -;
#X obj 380 292 * 100;
#X obj 380 319 s duration;
#X text 322 262 pitch;
#X text 200 119 duration in 10ths sec;
#X obj 473 120 bng 30 250 50 0 empty empty empty 17 7 0 10 -262144
-1 -1;
#X obj 473 159 s trigger;
#X obj 26 251 catch~ sum_jb;
#X obj 26 25 partial_jb 1 1 0.56 0;
#X obj 335 94 bng 15 250 50 0 empty empty empty 17 7 0 10 -262144 -1
-1;
#X msg 423 120 15;
#X obj 383 90 bng 15 250 50 0 empty empty empty 17 7 0 10 -262144 -1
-1;
#X obj 423 91 bng 15 250 50 0 empty empty empty 17 7 0 10 -262144 -1
-1;
#X obj 282 24 key;
#X floatatom 282 47 5 0 0 0 - - -;
#X obj 274 67 route 113 119 101;
#X floatatom 65 281 0 0 98 0 - - -;
#X msg 95 281 0;
#X msg 336 120 7;
#X obj 26 44 partial_jb 0.67 0.9 0.56 1;
#X obj 27 63 partial_jb 1 0.65 0.92 0;
#X obj 27 82 partial_jb 1.8 0.55 0.92 1.7;
#X obj 27 101 partial_jb 2.67 0.325 1.19 0;
#X obj 27 121 partial_jb 1.67 0.35 1.7 0;
#X obj 28 143 partial_jb 1.46 0.25 2 0;
#X obj 26 163 partial_jb 1.33 0.2 2.74 0;
#X obj 26 183 partial_jb 1 0.1 3.76 0;
#X obj 26 205 partial_jb 1.33 0.075 4.07 0;
#X msg 381 120 15;
#X connect 2 0 3 0;
#X connect 3 0 4 0;
#X connect 5 0 6 0;
#X connect 7 0 8 0;
#X connect 8 0 9 0;
#X connect 12 0 13 0;
#X connect 14 0 1 0;
#X connect 16 0 25 0;
#X connect 16 0 12 0;
#X connect 17 0 7 0;
#X connect 18 0 35 0;
#X connect 18 0 12 0;
#X connect 19 0 17 0;
#X connect 19 0 12 0;
#X connect 20 0 21 0;
#X connect 20 0 22 0;
#X connect 22 0 16 0;
#X connect 22 1 18 0;
#X connect 22 2 19 0;
#X connect 23 0 1 1;
#X connect 24 0 1 1;
#X connect 25 0 7 0;
#X connect 35 0 7 0;
