#N canvas 0 0 373 315 10;
#X obj 102 138 match s m p;
#X obj 65 63 keyname;
#X obj 65 86 pack 0 s;
#X obj 65 109 route 1;
#X obj 65 205 spigot;
#X obj 102 184 tgl 15 0 empty empty empty 0 -6 0 8 -262144 -1 -1 1
1;
#X obj 65 256 bng 15 250 50 0 empty empty empty 0 -6 0 8 -262144 -1
-1;
#X obj 84 256 bng 15 250 50 0 empty empty empty 0 -6 0 8 -262144 -1
-1;
#X obj 103 256 bng 15 250 50 0 empty empty empty 0 -6 0 8 -262144 -1
-1;
#X obj 122 256 bng 15 250 50 0 empty empty empty 0 -6 0 8 -262144 -1
-1;
#X obj 141 256 bng 15 250 50 0 empty empty empty 0 -6 0 8 -262144 -1
-1;
#X obj 160 256 bng 15 250 50 0 empty empty empty 0 -6 0 8 -262144 -1
-1;
#X obj 179 256 bng 15 250 50 0 empty empty empty 0 -6 0 8 -262144 -1
-1;
#X obj 198 256 bng 15 250 50 0 empty empty empty 0 -6 0 8 -262144 -1
-1;
#X obj 217 256 bng 15 250 50 0 empty empty empty 0 -6 0 8 -262144 -1
-1;
#X obj 102 161 bang;
#X obj 65 232 route 1 2 3 4 5 6 7 8 9;
#X obj 65 161 atoi;
#X text 58 32 to open or close the gate;
#X text 58 16 type "s" \, "m" \, and "p";
#X text 126 205 type "1" to "9";
#X connect 0 0 15 0;
#X connect 1 0 2 0;
#X connect 1 1 2 1;
#X connect 2 0 3 0;
#X connect 3 0 0 0;
#X connect 3 0 17 0;
#X connect 4 0 16 0;
#X connect 5 0 4 1;
#X connect 15 0 5 0;
#X connect 16 0 6 0;
#X connect 16 1 7 0;
#X connect 16 2 8 0;
#X connect 16 3 9 0;
#X connect 16 4 10 0;
#X connect 16 5 11 0;
#X connect 16 6 12 0;
#X connect 16 7 13 0;
#X connect 16 8 14 0;
#X connect 17 0 4 0;
