#N canvas 532 205 748 570 10;
#X obj 26 128 adc~;
#X obj 26 165 dac~;
#X obj 28 79 gemwin;
#X msg 23 45 create \, 1;
#X obj 452 -37 gemhead -1;
#X obj 452 84 pix_snap2tex;
#X obj 497 37 t b b;
#X obj 452 44 t b a;
#X obj 452 122 alpha;
#X obj 452 190 square 4;
#X obj 452 146 colorRGB 1 1 1 0.888;
#X obj 497 18 loadbang;
#X msg 491 59 0 0;
#N canvas 523 444 606 360 leftscope 0;
#X obj 126 151 scopeXYZ~;
#X obj 199 -27 adc~;
#X obj 198 -2 +~;
#X obj 85 110 gemhead;
#X msg 18 130 draw line;
#X obj 17 35 loadbang;
#X msg 140 65 3.8;
#X msg 177 130 0.01;
#X obj 192 52 +~ 1;
#X obj 142 309 scopeXYZ~;
#X obj 209 169 adc~;
#X obj 208 194 +~;
#X obj 101 268 gemhead;
#X msg 34 288 draw line;
#X obj 33 193 loadbang;
#X msg 156 223 3.8;
#X msg 193 288 0.01;
#X obj 202 248 +~ 1;
#X obj 461 160 scopeXYZ~;
#X obj 528 20 adc~;
#X obj 527 45 +~;
#X obj 420 119 gemhead;
#X msg 353 139 draw line;
#X obj 352 44 loadbang;
#X msg 475 74 3.8;
#X msg 512 139 0.01;
#X obj 521 99 +~ 1;
#X obj 477 318 scopeXYZ~;
#X obj 534 173 adc~;
#X obj 543 203 +~;
#X obj 436 277 gemhead;
#X msg 369 297 draw line;
#X obj 368 202 loadbang;
#X msg 491 232 3.8;
#X msg 528 297 0.01;
#X obj 537 257 +~ 1;
#X obj 194 19 *~ 1.5;
#X obj 523 66 *~ 1.5;
#X obj 205 215 *~ 1.5;
#X obj 539 225 *~ 1.5;
#X obj 205 89 delwrite~ l1 2;
#X obj 207 108 delread~ l1 2;
#X obj 239 272 delwrite~ l2 4;
#X obj 241 291 delread~ l2 4;
#X connect 1 1 2 0;
#X connect 2 0 36 0;
#X connect 3 0 0 0;
#X connect 4 0 0 0;
#X connect 5 0 4 0;
#X connect 5 0 6 0;
#X connect 5 0 7 0;
#X connect 6 0 0 1;
#X connect 7 0 0 3;
#X connect 8 0 40 0;
#X connect 10 1 11 0;
#X connect 11 0 38 0;
#X connect 12 0 9 0;
#X connect 13 0 9 0;
#X connect 14 0 13 0;
#X connect 14 0 15 0;
#X connect 14 0 16 0;
#X connect 15 0 9 1;
#X connect 16 0 9 3;
#X connect 17 0 42 0;
#X connect 19 1 20 0;
#X connect 20 0 37 0;
#X connect 21 0 18 0;
#X connect 22 0 18 0;
#X connect 23 0 22 0;
#X connect 23 0 24 0;
#X connect 23 0 25 0;
#X connect 24 0 18 1;
#X connect 25 0 18 3;
#X connect 26 0 18 2;
#X connect 28 1 29 0;
#X connect 29 0 39 0;
#X connect 30 0 27 0;
#X connect 31 0 27 0;
#X connect 32 0 31 0;
#X connect 32 0 33 0;
#X connect 32 0 34 0;
#X connect 33 0 27 1;
#X connect 34 0 27 3;
#X connect 35 0 27 2;
#X connect 36 0 8 0;
#X connect 37 0 26 0;
#X connect 38 0 17 0;
#X connect 39 0 35 0;
#X connect 41 0 0 2;
#X connect 43 0 9 2;
#X restore 163 118 pd leftscope;
#X msg 542 59 500 500;
#N canvas 565 436 606 360 rightscope 0;
#X obj 126 151 scopeXYZ~;
#X obj 193 11 adc~;
#X obj 192 36 +~;
#X obj 85 110 gemhead;
#X msg 18 130 draw line;
#X obj 17 35 loadbang;
#X msg 140 65 3.8;
#X msg 177 130 0.01;
#X obj 142 309 scopeXYZ~;
#X obj 209 169 adc~;
#X obj 208 194 +~;
#X obj 101 268 gemhead;
#X msg 34 288 draw line;
#X obj 33 193 loadbang;
#X msg 156 223 3.8;
#X msg 193 288 0.01;
#X obj 461 160 scopeXYZ~;
#X obj 528 20 adc~;
#X obj 527 45 +~;
#X obj 420 119 gemhead;
#X msg 353 139 draw line;
#X obj 352 44 loadbang;
#X msg 475 74 3.8;
#X msg 512 139 0.01;
#X obj 477 318 scopeXYZ~;
#X obj 544 178 adc~;
#X obj 543 203 +~;
#X obj 436 277 gemhead;
#X msg 369 297 draw line;
#X obj 368 202 loadbang;
#X msg 491 232 3.8;
#X msg 528 297 0.01;
#X obj 186 90 +~ -1;
#X obj 521 99 +~ -1;
#X obj 537 257 +~ -1;
#X obj 202 248 +~ -1;
#X obj 188 56 *~ 1.5;
#X obj 523 66 *~ 1.5;
#X obj 204 215 *~ 1.5;
#X obj 539 224 *~ 1.5;
#X connect 1 0 2 1;
#X connect 2 0 36 0;
#X connect 3 0 0 0;
#X connect 4 0 0 0;
#X connect 5 0 4 0;
#X connect 5 0 6 0;
#X connect 5 0 7 0;
#X connect 6 0 0 1;
#X connect 7 0 0 3;
#X connect 9 0 10 0;
#X connect 10 0 38 0;
#X connect 11 0 8 0;
#X connect 12 0 8 0;
#X connect 13 0 12 0;
#X connect 13 0 14 0;
#X connect 13 0 15 0;
#X connect 14 0 8 1;
#X connect 15 0 8 3;
#X connect 17 0 18 0;
#X connect 18 0 37 0;
#X connect 19 0 16 0;
#X connect 20 0 16 0;
#X connect 21 0 20 0;
#X connect 21 0 22 0;
#X connect 21 0 23 0;
#X connect 22 0 16 1;
#X connect 23 0 16 3;
#X connect 25 0 26 0;
#X connect 26 0 39 0;
#X connect 27 0 24 0;
#X connect 28 0 24 0;
#X connect 29 0 28 0;
#X connect 29 0 30 0;
#X connect 29 0 31 0;
#X connect 30 0 24 1;
#X connect 31 0 24 3;
#X connect 32 0 0 2;
#X connect 33 0 16 2;
#X connect 34 0 24 2;
#X connect 35 0 8 2;
#X connect 36 0 32 0;
#X connect 37 0 33 0;
#X connect 38 0 35 0;
#X connect 39 0 34 0;
#X restore 163 138 pd rightscope;
#N canvas 658 82 480 368 parts 0;
#X obj 18 71 part_head;
#X obj 18 43 gemhead;
#X obj 21 288 part_draw;
#X obj 21 106 part_source 1;
#X obj 19 129 part_killold 10;
#X obj 21 265 part_gravity 0 -0.02 0;
#X obj 111 45 loadbang;
#X obj 154 90 adc~;
#X obj 154 111 env~;
#X obj 132 236 pack 0 f 0;
#X obj 102 216 bang;
#X floatatom 174 183 5 0 0 0 - - -;
#X obj 151 134 - 90;
#X obj 152 154 range 0 10 0 -0.02;
#X msg 101 74 3.8 3.5 0.01;
#X obj 276 86 part_head;
#X obj 276 58 gemhead;
#X obj 279 303 part_draw;
#X obj 279 121 part_source 1;
#X obj 277 144 part_killold 10;
#X obj 279 280 part_gravity 0 -0.02 0;
#X obj 369 60 loadbang;
#X obj 412 105 adc~;
#X obj 412 126 env~;
#X obj 390 251 pack 0 f 0;
#X obj 360 231 bang;
#X floatatom 432 198 5 0 0 0 - - -;
#X obj 409 149 - 90;
#X obj 410 169 range 0 10 0 0.02;
#X msg 359 89 3.8 -3.5 0.01;
#X connect 0 0 3 0;
#X connect 1 0 0 0;
#X connect 3 0 4 0;
#X connect 4 0 5 0;
#X connect 5 0 2 0;
#X connect 6 0 14 0;
#X connect 7 0 8 0;
#X connect 7 1 8 0;
#X connect 8 0 12 0;
#X connect 9 0 5 1;
#X connect 10 0 9 0;
#X connect 12 0 13 0;
#X connect 12 0 11 0;
#X connect 13 0 10 0;
#X connect 13 0 9 1;
#X connect 14 0 3 3;
#X connect 16 0 15 0;
#X connect 18 0 19 0;
#X connect 19 0 20 0;
#X connect 20 0 17 0;
#X connect 21 0 29 0;
#X connect 22 0 23 0;
#X connect 22 1 23 0;
#X connect 23 0 27 0;
#X connect 24 0 20 1;
#X connect 25 0 24 0;
#X connect 27 0 26 0;
#X connect 27 0 28 0;
#X connect 28 0 25 0;
#X connect 28 0 24 1;
#X connect 29 0 18 3;
#X restore 163 160 pd parts;
#X obj 15 12 loadbang;
#X msg 600 110 1;
#X obj 597 75 loadbang;
#X obj 27 247 s~ sound;
#N canvas 0 22 450 300 (subpatch) 0;
#X array E01-spectrum 128 float 0;
#X coords 0 4300 127 -40 257 130 1;
#X restore 465 258 graph;
#N canvas 522 591 450 300 bars 0;
#X obj 24 62 s sc;
#X msg 25 15 1;
#X obj 63 15 loadbang;
#N canvas 574 186 450 300 bar 0;
#X obj 33 45 gemhead;
#X obj 33 157 rectangle 0.01 0.01;
#X obj 144 114 tabread E01-spectrum;
#X obj 144 136 range 0 1000 0 2;
#X msg 145 68 5;
#X obj 144 42 r sc;
#X obj 33 92 translateXYZ -3.75 -4 0.01;
#X connect 0 0 6 0;
#X connect 2 0 3 0;
#X connect 3 0 1 2;
#X connect 4 0 2 0;
#X connect 5 0 4 0;
#X connect 6 0 1 0;
#X restore 14 105 pd bar;
#N canvas 574 186 450 300 bar 0;
#X obj -16 47 gemhead;
#X obj 33 157 rectangle 0.01 0.01;
#X obj 144 114 tabread E01-spectrum;
#X obj 144 136 range 0 1000 0 2;
#X obj 144 42 r sc;
#X msg 145 67 6;
#X obj -16 94 translateXYZ -3.5 -4 0.01;
#X obj -17 71 colourRGB 0.95 0.95 0.95;
#X connect 0 0 7 0;
#X connect 2 0 3 0;
#X connect 3 0 1 2;
#X connect 4 0 5 0;
#X connect 5 0 2 0;
#X connect 6 0 1 0;
#X connect 7 0 6 0;
#X restore 13 125 pd bar;
#N canvas 574 186 450 300 bar 0;
#X obj -16 47 gemhead;
#X obj 33 157 rectangle 0.01 0.01;
#X obj 144 114 tabread E01-spectrum;
#X obj 144 136 range 0 1000 0 2;
#X obj 144 42 r sc;
#X msg 145 67 7;
#X obj -16 94 translateXYZ -3.25 -4 0.01;
#X obj -17 71 colourRGB 0.9 0.9 0.9;
#X connect 0 0 7 0;
#X connect 2 0 3 0;
#X connect 3 0 1 2;
#X connect 4 0 5 0;
#X connect 5 0 2 0;
#X connect 6 0 1 0;
#X connect 7 0 6 0;
#X restore 14 146 pd bar;
#N canvas 574 186 450 300 bar 0;
#X obj -16 47 gemhead;
#X obj 33 157 rectangle 0.01 0.01;
#X obj 144 114 tabread E01-spectrum;
#X obj 144 136 range 0 1000 0 2;
#X obj 144 42 r sc;
#X msg 145 67 8;
#X obj -17 71 colourRGB 0.85 0.85 0.85;
#X obj -16 94 translateXYZ -3 -4 0.01;
#X connect 0 0 6 0;
#X connect 2 0 3 0;
#X connect 3 0 1 2;
#X connect 4 0 5 0;
#X connect 5 0 2 0;
#X connect 6 0 7 0;
#X connect 7 0 1 0;
#X restore 14 167 pd bar;
#N canvas 574 186 450 300 bar 0;
#X obj -16 47 gemhead;
#X obj 33 157 rectangle 0.01 0.01;
#X obj 144 114 tabread E01-spectrum;
#X obj 144 136 range 0 1000 0 2;
#X obj 144 42 r sc;
#X msg 145 67 9;
#X obj -16 94 translateXYZ -2.75 -4 0.01;
#X obj -17 71 colourRGB 0.8 0.8 0.8;
#X connect 0 0 7 0;
#X connect 2 0 3 0;
#X connect 3 0 1 2;
#X connect 4 0 5 0;
#X connect 5 0 2 0;
#X connect 6 0 1 0;
#X connect 7 0 6 0;
#X restore 15 188 pd bar;
#N canvas 574 186 450 300 bar 0;
#X obj -16 47 gemhead;
#X obj 33 157 rectangle 0.01 0.01;
#X obj 144 114 tabread E01-spectrum;
#X obj 144 136 range 0 1000 0 2;
#X obj 144 42 r sc;
#X msg 145 67 10;
#X obj -17 70 colourRGB 0.75 0.75 0.75;
#X obj -16 94 translateXYZ -2.5 -4 0.01;
#X connect 0 0 6 0;
#X connect 2 0 3 0;
#X connect 3 0 1 2;
#X connect 4 0 5 0;
#X connect 5 0 2 0;
#X connect 6 0 7 0;
#X connect 7 0 1 0;
#X restore 15 211 pd bar;
#N canvas 574 186 450 300 bar 0;
#X obj -16 47 gemhead;
#X obj 33 157 rectangle 0.01 0.01;
#X obj 144 114 tabread E01-spectrum;
#X obj 144 136 range 0 1000 0 2;
#X obj 144 42 r sc;
#X obj -16 94 translateXYZ -2.25 -4 0.01;
#X msg 145 67 11;
#X obj -17 70 colourRGB 0.7 0.7 0.7;
#X connect 0 0 7 0;
#X connect 2 0 3 0;
#X connect 3 0 1 2;
#X connect 4 0 6 0;
#X connect 5 0 1 0;
#X connect 6 0 2 0;
#X connect 7 0 5 0;
#X restore 17 232 pd bar;
#N canvas 574 186 450 300 bar 0;
#X obj -16 47 gemhead;
#X obj 33 157 rectangle 0.01 0.01;
#X obj 144 114 tabread E01-spectrum;
#X obj 144 136 range 0 1000 0 2;
#X obj 144 42 r sc;
#X obj -17 70 colourRGB 0.65 0.65 0.65;
#X obj -16 93 translateXYZ -2 -4 0.01;
#X msg 145 67 12;
#X connect 0 0 5 0;
#X connect 2 0 3 0;
#X connect 3 0 1 2;
#X connect 4 0 7 0;
#X connect 5 0 6 0;
#X connect 6 0 1 0;
#X connect 7 0 2 0;
#X restore 21 252 pd bar;
#N canvas 574 186 450 300 bar 0;
#X obj -16 47 gemhead;
#X obj 33 157 rectangle 0.01 0.01;
#X obj 144 114 tabread E01-spectrum;
#X obj 144 136 range 0 1000 0 2;
#X obj 144 42 r sc;
#X msg 145 67 13;
#X obj -17 70 colourRGB 0.6 0.6 0.6;
#X obj -16 93 translateXYZ -1.75 -4 0.01;
#X connect 0 0 6 0;
#X connect 2 0 3 0;
#X connect 3 0 1 2;
#X connect 4 0 5 0;
#X connect 5 0 2 0;
#X connect 6 0 7 0;
#X connect 7 0 1 0;
#X restore 81 102 pd bar;
#N canvas 574 186 450 300 bar 0;
#X obj -16 47 gemhead;
#X obj 33 157 rectangle 0.01 0.01;
#X obj 184 106 tabread E01-spectrum;
#X obj 184 128 range 0 1000 0 2;
#X obj 184 34 r sc;
#X msg 185 59 14;
#X obj -17 93 translateXYZ -1.5 -4 0.01;
#X obj -18 70 colourRGB 0.55 0.55 0.55;
#X connect 0 0 7 0;
#X connect 2 0 3 0;
#X connect 3 0 1 2;
#X connect 4 0 5 0;
#X connect 5 0 2 0;
#X connect 6 0 1 0;
#X connect 7 0 6 0;
#X restore 81 122 pd bar;
#N canvas 575 186 450 300 bar 0;
#X obj -16 47 gemhead;
#X obj 33 157 rectangle 0.01 0.01;
#X obj 184 106 tabread E01-spectrum;
#X obj 184 128 range 0 1000 0 2;
#X obj 184 34 r sc;
#X msg 185 59 15;
#X obj -18 70 colourRGB 0.5 0.5 0.5;
#X obj -17 93 translateXYZ -1.25 -4 0.01;
#X connect 0 0 6 0;
#X connect 2 0 3 0;
#X connect 3 0 1 2;
#X connect 4 0 5 0;
#X connect 5 0 2 0;
#X connect 6 0 7 0;
#X connect 7 0 1 0;
#X restore 80 146 pd bar;
#N canvas 574 186 450 300 bar 0;
#X obj -16 47 gemhead;
#X obj 33 157 rectangle 0.01 0.01;
#X obj 184 106 tabread E01-spectrum;
#X obj 184 128 range 0 1000 0 2;
#X obj 184 34 r sc;
#X obj -17 93 translateXYZ -1 -4 0.01;
#X obj -18 70 colourRGB 0.48 0.48 0.48;
#X msg 185 59 16;
#X connect 0 0 6 0;
#X connect 2 0 3 0;
#X connect 3 0 1 2;
#X connect 4 0 7 0;
#X connect 5 0 1 0;
#X connect 6 0 5 0;
#X connect 7 0 2 0;
#X restore 82 173 pd bar;
#N canvas 574 186 450 300 bar 0;
#X obj -16 47 gemhead;
#X obj 33 157 rectangle 0.01 0.01;
#X obj 184 106 tabread E01-spectrum;
#X obj 184 128 range 0 1000 0 2;
#X obj 184 34 r sc;
#X msg 185 59 17;
#X obj -18 70 colourRGB 0.46 0.46 0.46;
#X obj -16 93 translateXYZ -0.75 -4 0.01;
#X connect 0 0 6 0;
#X connect 2 0 3 0;
#X connect 3 0 1 2;
#X connect 4 0 5 0;
#X connect 5 0 2 0;
#X connect 6 0 7 0;
#X connect 7 0 1 0;
#X restore 84 194 pd bar;
#N canvas 574 186 450 300 bar 0;
#X obj -16 47 gemhead;
#X obj 33 157 rectangle 0.01 0.01;
#X obj 184 106 tabread E01-spectrum;
#X obj 184 128 range 0 1000 0 2;
#X obj 184 34 r sc;
#X msg 185 59 18;
#X obj -18 70 colourRGB 0.44 0.44 0.44;
#X obj -16 93 translateXYZ -0.5 -4 0.01;
#X connect 0 0 6 0;
#X connect 2 0 3 0;
#X connect 3 0 1 2;
#X connect 4 0 5 0;
#X connect 5 0 2 0;
#X connect 6 0 7 0;
#X connect 7 0 1 0;
#X restore 88 215 pd bar;
#N canvas 574 186 450 300 bar 0;
#X obj -16 47 gemhead;
#X obj 33 157 rectangle 0.01 0.01;
#X obj 184 106 tabread E01-spectrum;
#X obj 184 128 range 0 1000 0 2;
#X obj 184 34 r sc;
#X msg 185 59 19;
#X obj -18 70 colourRGB 0.42 0.42 0.42;
#X obj -16 93 translateXYZ -0.25 -4 0.01;
#X connect 0 0 6 0;
#X connect 2 0 3 0;
#X connect 3 0 1 2;
#X connect 4 0 5 0;
#X connect 5 0 2 0;
#X connect 6 0 7 0;
#X connect 7 0 1 0;
#X restore 87 240 pd bar;
#N canvas 574 186 450 300 bar 0;
#X obj -16 47 gemhead;
#X obj 33 157 rectangle 0.01 0.01;
#X obj 184 106 tabread E01-spectrum;
#X obj 184 128 range 0 1000 0 2;
#X obj 184 34 r sc;
#X obj -18 70 colourRGB 0.42 0.42 0.42;
#X obj -16 93 translateXYZ 0.25 -4 0.01;
#X msg 185 59 20;
#X connect 0 0 5 0;
#X connect 2 0 3 0;
#X connect 3 0 1 2;
#X connect 4 0 7 0;
#X connect 5 0 6 0;
#X connect 6 0 1 0;
#X connect 7 0 2 0;
#X restore 180 99 pd bar;
#N canvas 574 186 450 300 bar 0;
#X obj -16 47 gemhead;
#X obj 33 157 rectangle 0.01 0.01;
#X obj 184 106 tabread E01-spectrum;
#X obj 184 128 range 0 1000 0 2;
#X obj 184 34 r sc;
#X obj -18 70 colourRGB 0.44 0.44 0.44;
#X obj -16 93 translateXYZ 0.5 -4 0.01;
#X msg 185 59 214;
#X connect 0 0 5 0;
#X connect 2 0 3 0;
#X connect 3 0 1 2;
#X connect 4 0 7 0;
#X connect 5 0 6 0;
#X connect 6 0 1 0;
#X connect 7 0 2 0;
#X restore 179 123 pd bar;
#N canvas 574 186 450 300 bar 0;
#X obj -16 47 gemhead;
#X obj 33 157 rectangle 0.01 0.01;
#X obj 184 106 tabread E01-spectrum;
#X obj 184 128 range 0 1000 0 2;
#X obj 184 34 r sc;
#X obj -18 70 colourRGB 0.46 0.46 0.46;
#X obj -16 92 translateXYZ 0.75 -4 0.01;
#X msg 185 59 22;
#X connect 0 0 5 0;
#X connect 2 0 3 0;
#X connect 3 0 1 2;
#X connect 4 0 7 0;
#X connect 5 0 6 0;
#X connect 6 0 1 0;
#X connect 7 0 2 0;
#X restore 180 145 pd bar;
#N canvas 574 186 450 300 bar 0;
#X obj -16 47 gemhead;
#X obj 33 157 rectangle 0.01 0.01;
#X obj 184 106 tabread E01-spectrum;
#X obj 184 128 range 0 1000 0 2;
#X obj 184 34 r sc;
#X obj -18 70 colourRGB 0.48 0.48 0.48;
#X obj -17 93 translateXYZ 1 -4 0.01;
#X msg 185 59 23;
#X connect 0 0 5 0;
#X connect 2 0 3 0;
#X connect 3 0 1 2;
#X connect 4 0 7 0;
#X connect 5 0 6 0;
#X connect 6 0 1 0;
#X connect 7 0 2 0;
#X restore 178 172 pd bar;
#N canvas 575 186 450 300 bar 0;
#X obj -16 47 gemhead;
#X obj 33 157 rectangle 0.01 0.01;
#X obj 184 106 tabread E01-spectrum;
#X obj 184 128 range 0 1000 0 2;
#X obj 184 34 r sc;
#X obj -18 70 colourRGB 0.5 0.5 0.5;
#X obj -19 95 translateXYZ 1.25 -4 0.01;
#X msg 185 59 24;
#X connect 0 0 5 0;
#X connect 2 0 3 0;
#X connect 3 0 1 2;
#X connect 4 0 7 0;
#X connect 5 0 6 0;
#X connect 6 0 1 0;
#X connect 7 0 2 0;
#X restore 171 192 pd bar;
#N canvas 574 186 450 300 bar 0;
#X obj -16 47 gemhead;
#X obj 33 157 rectangle 0.01 0.01;
#X obj 184 106 tabread E01-spectrum;
#X obj 184 128 range 0 1000 0 2;
#X obj 184 34 r sc;
#X obj -18 70 colourRGB 0.55 0.55 0.55;
#X obj -17 93 translateXYZ 1.5 -4 0.01;
#X msg 185 59 25;
#X connect 0 0 5 0;
#X connect 2 0 3 0;
#X connect 3 0 1 2;
#X connect 4 0 7 0;
#X connect 5 0 6 0;
#X connect 6 0 1 0;
#X connect 7 0 2 0;
#X restore 174 216 pd bar;
#N canvas 573 186 450 300 bar 0;
#X obj -16 47 gemhead;
#X obj 33 157 rectangle 0.01 0.01;
#X obj 144 114 tabread E01-spectrum;
#X obj 144 136 range 0 1000 0 2;
#X obj 144 42 r sc;
#X obj -17 70 colourRGB 0.6 0.6 0.6;
#X obj -16 93 translateXYZ 1.75 -4 0.01;
#X msg 145 67 26;
#X connect 0 0 5 0;
#X connect 2 0 3 0;
#X connect 3 0 1 2;
#X connect 4 0 7 0;
#X connect 5 0 6 0;
#X connect 6 0 1 0;
#X connect 7 0 2 0;
#X restore 174 242 pd bar;
#N canvas 574 186 450 300 bar 0;
#X obj -16 47 gemhead;
#X obj 33 157 rectangle 0.01 0.01;
#X obj 144 114 tabread E01-spectrum;
#X obj 144 136 range 0 1000 0 2;
#X obj 144 42 r sc;
#X obj -16 93 translateXYZ 2 -4 0.01;
#X msg 145 67 27;
#X obj -16 69 colourRGB 0.65 0.65 0.65;
#X connect 0 0 7 0;
#X connect 2 0 3 0;
#X connect 3 0 1 2;
#X connect 4 0 6 0;
#X connect 5 0 1 0;
#X connect 6 0 2 0;
#X connect 7 0 5 0;
#X restore 254 99 pd bar;
#N canvas 574 186 450 300 bar 0;
#X obj -16 47 gemhead;
#X obj 33 157 rectangle 0.01 0.01;
#X obj 144 114 tabread E01-spectrum;
#X obj 144 136 range 0 1000 0 2;
#X obj 144 42 r sc;
#X obj -17 70 colourRGB 0.7 0.7 0.7;
#X obj -16 94 translateXYZ 2.25 -4 0.01;
#X msg 146 67 28;
#X connect 0 0 5 0;
#X connect 2 0 3 0;
#X connect 3 0 1 2;
#X connect 4 0 7 0;
#X connect 5 0 6 0;
#X connect 6 0 1 0;
#X connect 7 0 2 0;
#X restore 246 127 pd bar;
#N canvas 574 186 450 300 bar 0;
#X obj -16 47 gemhead;
#X obj 33 157 rectangle 0.01 0.01;
#X obj 144 114 tabread E01-spectrum;
#X obj 144 136 range 0 1000 0 2;
#X obj 144 42 r sc;
#X obj -17 70 colourRGB 0.75 0.75 0.75;
#X obj -16 94 translateXYZ 2.5 -4 0.01;
#X msg 143 67 29;
#X connect 0 0 5 0;
#X connect 2 0 3 0;
#X connect 3 0 1 2;
#X connect 4 0 7 0;
#X connect 5 0 6 0;
#X connect 6 0 1 0;
#X connect 7 0 2 0;
#X restore 244 150 pd bar;
#N canvas 574 186 450 300 bar 0;
#X obj -16 47 gemhead;
#X obj 33 157 rectangle 0.01 0.01;
#X obj 144 114 tabread E01-spectrum;
#X obj 144 136 range 0 1000 0 2;
#X obj 144 42 r sc;
#X obj -17 71 colourRGB 0.8 0.8 0.8;
#X obj -16 94 translateXYZ 2.75 -4 0.01;
#X msg 145 67 30;
#X connect 0 0 5 0;
#X connect 2 0 3 0;
#X connect 3 0 1 2;
#X connect 4 0 7 0;
#X connect 5 0 6 0;
#X connect 6 0 1 0;
#X connect 7 0 2 0;
#X restore 245 172 pd bar;
#N canvas 574 186 450 300 bar 0;
#X obj 33 45 gemhead;
#X obj 33 157 rectangle 0.01 0.01;
#X obj 144 114 tabread E01-spectrum;
#X obj 144 136 range 0 1000 0 2;
#X obj 144 42 r sc;
#X obj 34 92 translateXYZ 3.75 -4 0.01;
#X msg 145 68 31;
#X connect 0 0 5 0;
#X connect 2 0 3 0;
#X connect 3 0 1 2;
#X connect 4 0 6 0;
#X connect 5 0 1 0;
#X connect 6 0 2 0;
#X restore 245 191 pd bar;
#N canvas 574 186 450 300 bar 0;
#X obj -16 47 gemhead;
#X obj 33 157 rectangle 0.01 0.01;
#X obj 144 114 tabread E01-spectrum;
#X obj 144 136 range 0 1000 0 2;
#X obj 144 42 r sc;
#X obj -17 71 colourRGB 0.95 0.95 0.95;
#X obj -16 94 translateXYZ 3.5 -4 0.01;
#X msg 145 67 32;
#X connect 0 0 5 0;
#X connect 2 0 3 0;
#X connect 3 0 1 2;
#X connect 4 0 7 0;
#X connect 5 0 6 0;
#X connect 6 0 1 0;
#X connect 7 0 2 0;
#X restore 246 212 pd bar;
#N canvas 574 186 450 300 bar 0;
#X obj -16 47 gemhead;
#X obj 33 157 rectangle 0.01 0.01;
#X obj 144 114 tabread E01-spectrum;
#X obj 144 136 range 0 1000 0 2;
#X obj 144 42 r sc;
#X obj -17 71 colourRGB 0.9 0.9 0.9;
#X obj -17 94 translateXYZ 3.25 -4 0.01;
#X msg 145 67 33;
#X connect 0 0 5 0;
#X connect 2 0 3 0;
#X connect 3 0 1 2;
#X connect 4 0 7 0;
#X connect 5 0 6 0;
#X connect 6 0 1 0;
#X connect 7 0 2 0;
#X restore 244 233 pd bar;
#N canvas 574 186 450 300 bar 0;
#X obj -16 47 gemhead;
#X obj 33 157 rectangle 0.01 0.01;
#X obj 144 114 tabread E01-spectrum;
#X obj 144 136 range 0 1000 0 2;
#X obj 144 42 r sc;
#X obj -17 71 colourRGB 0.85 0.85 0.85;
#X obj -17 95 translateXYZ 3 -4 0.01;
#X msg 145 68 34;
#X connect 0 0 5 0;
#X connect 2 0 3 0;
#X connect 3 0 1 2;
#X connect 4 0 7 0;
#X connect 5 0 6 0;
#X connect 6 0 1 0;
#X connect 7 0 2 0;
#X restore 243 255 pd bar;
#X obj 24 36 metro 10;
#X connect 1 0 33 0;
#X connect 2 0 1 0;
#X connect 33 0 0 0;
#X restore 164 185 pd bars;
#X text 133 44 Remember: set your music player output (usuallly from
the OS) to soundflower \, 2 output. and the output of PD to your main
audio out.;
#N canvas 547 187 558 569 fft 0;
#X obj 19 62 inlet~;
#X obj 85 214 inlet;
#X obj 19 92 rfft~;
#X obj 19 125 *~;
#X obj 50 125 *~;
#X obj 19 155 sqrt~;
#X obj 85 248 tabwrite~ E01-spectrum;
#X obj 332 109 block~ 4096 1;
#X obj 19 181 biquad~ 0 0 0 0 1;
#X text 83 93 Fourier series;
#X text 88 146 magnitude;
#X text 86 131 calculate;
#X text 21 3 This subpatch computes the spectrum of the incoming signal
with a (rectangular windowed) FFT. FFTs aren't properly introduced
until much later.;
#X text 83 62 signal to analyze;
#X text 181 182 for better graphing;
#X obj 90 425 samplerate~;
#X obj 90 402 bng 18 250 50 0 empty empty empty 0 -6 0 8 -262144 -1
-1;
#X floatatom 90 472 5 0 0 0 - - -;
#X obj 90 448 / 256;
#X obj 90 378 loadbang;
#X floatatom 90 541 5 0 0 0 - - -;
#X obj 98 494 s fundamental;
#X obj 90 517 ftom;
#X text 146 540 <-just out of curiosity \, here's the pitch;
#X text 14 319 At load time \, calculate a good choice of fundamental
frequency for showing spectra: the 16th bin in a 4096-point spectrum
\, so SR*16/4096 or SR/256.;
#X text 135 216 "bang" into this inlet to graph it;
#X obj 169 136 loadbang;
#X obj 141 198 metro 10;
#X text 182 166 ´;
#X msg 133 175 1;
#X connect 0 0 2 0;
#X connect 1 0 6 0;
#X connect 2 0 3 0;
#X connect 2 0 3 1;
#X connect 2 1 4 0;
#X connect 2 1 4 1;
#X connect 3 0 5 0;
#X connect 4 0 5 0;
#X connect 5 0 8 0;
#X connect 8 0 6 0;
#X connect 15 0 18 0;
#X connect 16 0 15 0;
#X connect 17 0 21 0;
#X connect 17 0 22 0;
#X connect 18 0 17 0;
#X connect 19 0 16 0;
#X connect 22 0 20 0;
#X connect 26 0 29 0;
#X connect 27 0 6 0;
#X connect 29 0 27 0;
#X restore 67 189 pd fft;
#X obj 65 165 *~ 1;
#X obj 451 168 translateXYZ -0.02 0 0;
#X connect 0 0 1 0;
#X connect 0 0 20 0;
#X connect 0 1 1 1;
#X connect 0 1 20 0;
#X connect 0 1 25 0;
#X connect 3 0 2 0;
#X connect 4 0 7 0;
#X connect 5 0 8 0;
#X connect 6 0 12 0;
#X connect 6 1 14 0;
#X connect 7 0 5 0;
#X connect 7 1 5 0;
#X connect 8 0 10 0;
#X connect 10 0 26 0;
#X connect 11 0 6 0;
#X connect 12 0 5 1;
#X connect 14 0 5 2;
#X connect 17 0 3 0;
#X connect 18 0 10 4;
#X connect 19 0 18 0;
#X connect 25 0 24 0;
#X connect 26 0 9 0;
