#N canvas 561 305 506 356 12;
#N canvas 0 0 462 312 lines 0;
#X obj 70 33 struct lines float x float y;
#X obj 75 76 drawcurve 0 1 0 0 500 0;
#X obj 74 104 drawcurve 0 1 0 7 500 7;
#X obj 72 136 drawcurve 0 1 0 14 500 14;
#X obj 73 168 drawcurve 0 1 0 21 500 21;
#X obj 75 200 drawcurve 0 1 0 28 500 28;
#X restore 27 33 pd lines;
#X text 29 82 notes;
#N canvas 0 0 466 316 bar 0;
#X obj 70 67 drawcurve 0 1 0 0 0 28;
#X obj 71 31 struct bar float x float y float;
#X restore 104 33 pd bar;
#N canvas 0 0 470 320 high_notes 0;
#N canvas 493 315 490 340 noire 0;
#X text 107 45 rgb \, line with \, x y \, x y \, x y;
#X obj 92 68 filledcurve 0 1 3 0 9 4 7 7 12;
#X obj 85 8 struct noire-h float x float y;
#X obj 111 279 drawcurve 0 1 7 10 7 30;
#X restore 30 198 pd noire;
#N canvas 21 316 482 332 blanche 0;
#X text 89 104 rgb \, line with \, x y \, x y \, x y;
#X obj 90 67 filledcurve 999 0 1 -1 10 4 6 7 13;
#X obj 85 8 struct blanche-h float x float y;
#X obj 111 279 drawcurve 0 1 7 10 7 30;
#X restore 31 233 pd blanche;
#N canvas 94 383 486 336 croche 0;
#X obj 92 68 filledcurve 0 1 3 0 9 4 7 7 12;
#X text 51 117 rgb out \, rgb in \, line with \, x y \, x y \, x y
;
#X obj 85 8 struct croche-h float x float y;
#X obj 109 191 filledcurve 0 1 1 7 30 7 27 14 24;
#X obj 111 279 drawcurve 0 1 7 10 7 30;
#X restore 30 165 pd croche;
#N canvas 94 383 490 340 double-croche 0;
#X obj 92 68 filledcurve 0 1 3 0 9 4 7 7 12;
#X text 64 32 rgb out \, rgb in \, line with \, x y \, x y \, x y;
#X obj 85 8 struct double-croche-h float x float y;
#X obj 106 156 filledcurve 0 1 1 7 30 7 27 14 24;
#X obj 107 184 filledcurve 0 1 1 7 26 7 23 14 20;
#X obj 108 244 drawcurve 0 1 7 10 7 30;
#X restore 30 132 pd double-croche;
#N canvas 94 383 494 344 triple-croche 0;
#X obj 92 68 filledcurve 0 1 3 0 9 4 7 7 12;
#X text 64 32 rgb out \, rgb in \, line with \, x y \, x y \, x y;
#X obj 85 8 struct triple-croche-h float x float y;
#X obj 134 249 drawcurve 0 1 7 10 7 30;
#X obj 89 100 filledcurve 0 1 1 7 30 7 27 14 24;
#X obj 90 128 filledcurve 0 1 1 7 26 7 23 14 20;
#X obj 92 155 filledcurve 0 1 1 7 22 7 19 14 16;
#X restore 29 104 pd triple-croche;
#N canvas 94 383 494 344 triple-croche-pointe 0;
#X obj 92 68 filledcurve 0 1 3 0 9 4 7 7 12;
#X text 64 32 rgb out \, rgb in \, line with \, x y \, x y \, x y;
#X obj 133 217 filledcurve 0 1 1 10 10 10 10;
#X obj 85 7 struct triple-croche-pointe-h float x float y;
#X obj 92 96 filledcurve 0 1 1 7 30 7 27 14 24;
#X obj 93 124 filledcurve 0 1 1 7 26 7 23 14 20;
#X obj 95 151 filledcurve 0 1 1 7 22 7 19 14 16;
#X obj 133 245 drawcurve 0 1 7 10 7 30;
#X restore 166 103 pd triple-croche-pointe;
#N canvas 94 383 494 344 double-croche-pointe 0;
#X obj 92 68 filledcurve 0 1 3 0 9 4 7 7 12;
#X text 64 32 rgb out \, rgb in \, line with \, x y \, x y \, x y;
#X obj 133 217 filledcurve 0 1 1 10 10 10 10;
#X obj 85 8 struct double-croche-pointe-h float x float y;
#X obj 96 101 filledcurve 0 1 1 7 30 7 27 14 24;
#X obj 96 136 filledcurve 0 1 1 7 26 7 23 14 20;
#X obj 91 258 drawcurve 0 1 7 10 7 30;
#X restore 167 131 pd double-croche-pointe;
#N canvas 94 383 494 344 croche-pointe 0;
#X obj 92 68 filledcurve 0 1 3 0 9 4 7 7 12;
#X text 51 117 rgb out \, rgb in \, line with \, x y \, x y \, x y
;
#X obj 85 8 struct croche-pointe-h float x float y;
#X obj 87 169 filledcurve 0 1 1 7 30 7 27 14 24;
#X obj 89 257 drawcurve 0 1 7 10 7 30;
#X restore 167 164 pd croche-pointe;
#N canvas 493 315 490 340 noire-pointe 0;
#X text 107 45 rgb \, line with \, x y \, x y \, x y;
#X obj 92 68 filledcurve 0 1 3 0 9 4 7 7 12;
#X obj 133 217 filledcurve 0 1 1 10 10 10 10;
#X obj 85 8 struct noire-pointe-h float x float y;
#X obj 122 257 drawcurve 0 1 7 10 7 30;
#X restore 167 197 pd noire-pointe;
#N canvas 21 316 490 340 blanche-pointe 0;
#X text 89 104 rgb \, line with \, x y \, x y \, x y;
#X obj 90 67 filledcurve 999 0 1 -1 10 4 6 7 13;
#X obj 133 217 filledcurve 0 1 1 10 10 10 10;
#X obj 85 8 struct blanche-pointe-h float x float y;
#X obj 135 255 drawcurve 0 1 7 10 7 30;
#X restore 168 232 pd blanche-pointe;
#X restore 24 119 pd high_notes;
#N canvas 0 0 466 316 low_notes 1;
#N canvas 493 315 482 332 noire 0;
#X obj 85 8 struct noire float x float y;
#X obj 115 213 drawcurve 0 1 -3 0 -3 -23;
#X obj 75 130 filledcurve 0 1 3 0 0 -3 0 0 -3 4 0 0 2;
#X restore 30 198 pd noire;
#N canvas 21 316 539 328 blanche 0;
#X text 113 255 rgb \, line with \, x y \, x y \, x y;
#X obj 85 8 struct blanche float x float y;
#X obj 115 213 drawcurve 0 1 -3 0 -3 -23;
#X obj 88 65 filledcurve 999 0 1 0 0 -4 0 0 -3 6 2 0 3 -3 1;
#X restore 31 233 pd blanche;
#N canvas 94 383 486 336 croche 0;
#X obj 85 8 struct croche float x float y;
#X obj 67 103 filledcurve 0 1 1 -3 -23 -3 -20 -10 -16;
#X obj 70 69 filledcurve 0 1 3 0 0 -3 0 0 -3 4 0 0 2;
#X obj 115 213 drawcurve 0 1 -3 0 -3 -23;
#X restore 30 165 pd croche;
#N canvas 94 383 482 332 double-croche 0;
#X text 64 32 rgb out \, rgb in \, line with \, x y \, x y \, x y;
#X obj 85 8 struct double-croche float x float y;
#X obj 88 105 filledcurve 0 1 1 -3 -23 -3 -20 -10 -16;
#X obj 92 131 filledcurve 0 1 1 -3 -19 -3 -16 -10 -12;
#X obj 91 71 filledcurve 0 1 3 0 0 -3 0 0 -3 4 0 0 2;
#X obj 136 215 drawcurve 0 1 -3 0 -3 -23;
#X restore 30 132 pd double-croche;
#N canvas 94 383 490 340 triple-croche 0;
#X text 64 32 rgb out \, rgb in \, line with \, x y \, x y \, x y;
#X obj 85 8 struct triple-croche float x float y;
#X obj 91 100 filledcurve 0 1 1 -3 -23 -3 -20 -10 -16;
#X obj 95 126 filledcurve 0 1 1 -3 -19 -3 -16 -10 -12;
#X obj 92 155 filledcurve 0 1 1 -3 -15 -3 -12 -10 -8;
#X obj 135 248 drawcurve 0 1 -3 0 -3 -23;
#X obj 94 66 filledcurve 0 1 3 0 0 -3 0 0 -3 4 0 0 2;
#X restore 29 104 pd triple-croche;
#N canvas 94 383 490 340 triple-croche-pointe 0;
#X text 64 32 rgb out \, rgb in \, line with \, x y \, x y \, x y;
#X obj 85 8 struct triple-croche-pointe float x float y;
#X obj 133 217 filledcurve 0 1 1 10 10 10 10;
#X obj 113 108 filledcurve 0 1 1 -3 -23 -3 -20 -10 -16;
#X obj 117 134 filledcurve 0 1 1 -3 -19 -3 -16 -10 -12;
#X obj 114 163 filledcurve 0 1 1 -3 -15 -3 -12 -10 -8;
#X obj 157 256 drawcurve 0 1 -3 0 -3 -23;
#X obj 116 74 filledcurve 0 1 3 0 0 -3 0 0 -3 4 0 0 2;
#X restore 166 103 pd triple-croche-pointe;
#N canvas 94 383 486 336 double-croche-pointe 0;
#X text 64 32 rgb out \, rgb in \, line with \, x y \, x y \, x y;
#X obj 85 8 struct double-croche-pointe float x float y;
#X obj 132 255 filledcurve 0 1 1 10 10 10 10;
#X obj 94 111 filledcurve 0 1 1 -3 -23 -3 -20 -10 -16;
#X obj 98 137 filledcurve 0 1 1 -3 -19 -3 -16 -10 -12;
#X obj 97 77 filledcurve 0 1 3 0 0 -3 0 0 -3 4 0 0 2;
#X obj 142 221 drawcurve 0 1 -3 0 -3 -23;
#X restore 167 131 pd double-croche-pointe;
#N canvas 94 383 490 340 croche-pointe 0;
#X obj 85 8 struct croche-pointe float x float y;
#X obj 107 252 filledcurve 0 1 1 10 10 10 10;
#X obj 61 100 filledcurve 0 1 1 -3 -23 -3 -20 -10 -16;
#X obj 64 66 filledcurve 0 1 3 0 0 -3 0 0 -3 4 0 0 2;
#X obj 109 210 drawcurve 0 1 -3 0 -3 -23;
#X restore 167 164 pd croche-pointe;
#N canvas 493 315 482 332 noire-pointe 0;
#X obj 85 8 struct noire-pointe float x float y;
#X obj 133 217 filledcurve 0 1 1 10 10 10 10;
#X obj 117 193 drawcurve 0 1 -3 0 -3 -23;
#X obj 77 110 filledcurve 0 1 3 0 0 -3 0 0 -3 4 0 0 2;
#X restore 167 197 pd noire-pointe;
#N canvas 21 316 482 332 blanche-pointe 0;
#X obj 85 8 struct blanche-pointe float x float y;
#X obj 133 217 filledcurve 0 1 1 10 10 10 10;
#X obj 125 180 drawcurve 0 1 -3 0 -3 -23;
#X obj 95 47 filledcurve 999 0 1 0 0 -4 0 0 -3 6 2 0 3 -3 1;
#X restore 168 232 pd blanche-pointe;
#N canvas 21 316 490 340 ronde 0;
#X obj 85 8 struct ronde float x float y;
#X obj 56 169 filledcurve 999 0 1 0 0 -4 0 0 -3 6 2 0 3 -3 1;
#X text 86 104 rgb \, line with \, x y \, x y \, x y \, ...;
#X restore 26 266 pd ronde;
#N canvas 20 336 490 340 ronde-pointe 0;
#X obj 133 217 filledcurve 0 1 1 10 10 10 10;
#X obj 82 8 struct ronde-pointe float x float y;
#X obj 56 169 filledcurve 999 0 1 0 0 -4 0 0 -3 6 2 0 3 -3 1;
#X restore 163 264 pd ronde-pointe;
#X restore 24 149 pd low_notes;
#N canvas 0 0 462 312 keys 0;
#N canvas 0 0 548 312 g-key 0;
#X obj 52 24 struct g-key float x float y;
#X obj 7 82 drawcurve 0 2 0 0 -1 -2 5 -5 5 5 -5 5 0 -8 5 -15 0 -25
-2 -5 3 0 3 20 -7 15 -3 10;
#X text 72 152 feel free to make a better drawing!;
#X restore 77 65 pd g-key;
#X restore 170 34 pd keys;
#N canvas 0 0 458 308 silences 1;
#X obj 91 61 struct demi-soupir float x float y;
#X obj 99 116 drawcurve 0 2 0 0 3 2 15 0 3 7 3 20;
#X restore 163 118 pd silences;
#X text 29 7 staff;
