#N canvas 598 131 531 562 10;
#X obj 164 156 moses 1;
#X obj 222 316 until;
#X msg 222 335 findagain;
#X floatatom 209 31 5 0 0 0 - - -;
#X obj 164 57 pack s f;
#X msg 164 116 \$2;
#X obj 164 79 t a a;
#X msg 305 316 +f;
#X msg 305 210 set \$1;
#X msg 305 354 find \$1 1;
#X msg 164 31 +f;
#X obj 305 335 symbol;
#X obj 164 511 s pd-sandbox;
#N canvas 107 380 450 359 sandbox 0;
#X obj 10 0 f 0;
#X obj 10 20 f 1;
#X obj 10 40 f 2;
#X obj 10 60 f 3;
#X restore 25 79 pd sandbox;
#X obj 203 186 t b f b;
#X msg 164 328 cut;
#X obj 164 186 t b b;
#X obj 164 396 spigot;
#X obj 415 381 tgl 15 0 empty empty destroy? 17 7 0 10 -262144 -1 -1
1 1;
#N canvas 62 81 448 416 initSandbox 0;
#X msg 256 124 clear;
#X msg 60 92 4;
#X obj 60 120 until;
#X obj 60 147 f;
#X obj 95 147 + 1;
#X obj 60 256 t f f;
#X obj 60 310 pack f f;
#X msg 60 329 obj 10 \$2 f \$1;
#X msg 126 147 0;
#X obj 80 176 select 3;
#X obj 105 291 * 20;
#X obj 60 51 t b b;
#X obj 53 15 inlet;
#X obj 256 375 outlet;
#X connect 0 0 13 0;
#X connect 1 0 2 0;
#X connect 2 0 3 0;
#X connect 3 0 4 0;
#X connect 3 0 5 0;
#X connect 3 0 9 0;
#X connect 4 0 3 1;
#X connect 5 0 6 0;
#X connect 5 1 10 0;
#X connect 6 0 7 0;
#X connect 7 0 13 0;
#X connect 8 0 3 1;
#X connect 9 0 8 0;
#X connect 10 0 6 1;
#X connect 11 0 1 0;
#X connect 11 1 0 0;
#X connect 12 0 11 0;
#X restore 25 50 pd initSandbox;
#X obj 25 33 bng 15 250 50 0 empty empty empty 17 7 0 10 -262144 -1
-1;
#X text 406 32 search;
#X connect 0 0 16 0;
#X connect 0 1 14 0;
#X connect 1 0 2 0;
#X connect 2 0 12 0;
#X connect 3 0 4 1;
#X connect 4 0 6 0;
#X connect 5 0 0 0;
#X connect 6 0 5 0;
#X connect 6 1 8 0;
#X connect 7 0 11 0;
#X connect 8 0 7 0;
#X connect 9 0 12 0;
#X connect 10 0 4 0;
#X connect 11 0 9 0;
#X connect 14 0 15 0;
#X connect 14 1 1 0;
#X connect 14 2 7 0;
#X connect 15 0 17 0;
#X connect 16 0 15 0;
#X connect 16 1 7 0;
#X connect 17 0 12 0;
#X connect 18 0 17 1;
#X connect 19 0 12 0;
#X connect 20 0 19 0;
