#N canvas 0 62 820 604 10;
#X obj 89 411 gemwin;
#X msg 89 355 create \, 1;
#X obj 273 396 counter;
#X obj 273 365 bng 15 250 50 0 empty empty empty 17 7 0 10 -262144
-1 -1;
#X obj 273 428 % 8;
#N canvas 22 34 842 535 midrow 1;
#N canvas 35 60 508 539 skwer 1;
#X obj 216 385 square;
#X msg 249 359 0.4;
#X obj 279 228 line;
#X obj 329 153 delay 120;
#X obj 279 294 pack f f f;
#X obj 279 261 t f f f;
#X obj 284 359 loadbang;
#X obj 155 261 gemhead;
#X msg 207 262 1;
#X obj 207 229 loadbang;
#X obj 239 262 inlet;
#X obj 176 51 inlet;
#X obj 231 133 t b b;
#X obj 216 331 color 0 0 0;
#X msg 280 192 1 \$1;
#X msg 191 192 20;
#X msg 235 194 500;
#X msg 329 227 0 \$1;
#X obj 155 294 translate;
#X obj 386 74 +;
#X obj 371 47 t b f;
#X obj 223 67 bng 15 250 50 0 empty empty empty 17 7 0 10 -262144 -1
-1;
#X msg 377 190 set \$1;
#X msg 379 226 495;
#X obj 271 33 unpack f f f;
#X obj 280 5 inlet;
#X connect 1 0 0 1;
#X connect 2 0 5 0;
#X connect 3 0 23 0;
#X connect 4 0 13 1;
#X connect 5 0 4 0;
#X connect 5 1 4 1;
#X connect 5 2 4 2;
#X connect 6 0 1 0;
#X connect 7 0 18 0;
#X connect 8 0 18 1;
#X connect 9 0 8 0;
#X connect 9 0 15 0;
#X connect 9 0 16 0;
#X connect 10 0 18 2;
#X connect 11 0 12 0;
#X connect 12 0 14 0;
#X connect 12 1 3 0;
#X connect 13 0 0 0;
#X connect 14 0 2 0;
#X connect 15 0 14 0;
#X connect 16 0 22 0;
#X connect 17 0 2 0;
#X connect 18 0 13 0;
#X connect 19 0 3 1;
#X connect 20 0 19 0;
#X connect 20 1 19 1;
#X connect 21 0 12 0;
#X connect 22 0 23 0;
#X connect 23 0 17 0;
#X connect 24 0 14 0;
#X connect 24 1 19 0;
#X connect 24 2 22 0;
#X connect 24 2 20 0;
#X connect 25 0 24 0;
#X restore 37 229 pd skwer;
#X obj 37 195 bng 15 250 50 0 empty empty empty 17 7 0 10 -262144 -1
-1;
#X obj 83 188 r flist;
#N canvas 35 60 508 539 skwer 0;
#X obj 216 385 square;
#X msg 249 359 0.4;
#X obj 279 228 line;
#X obj 329 153 delay 120;
#X obj 279 294 pack f f f;
#X obj 279 261 t f f f;
#X obj 284 359 loadbang;
#X obj 155 261 gemhead;
#X msg 207 262 1;
#X obj 207 229 loadbang;
#X obj 239 262 inlet;
#X obj 176 51 inlet;
#X obj 231 133 t b b;
#X obj 216 331 color 0 0 0;
#X msg 280 192 1 \$1;
#X msg 191 192 20;
#X msg 235 194 500;
#X msg 329 227 0 \$1;
#X obj 155 294 translate;
#X obj 386 74 +;
#X obj 371 47 t b f;
#X obj 223 67 bng 15 250 50 0 empty empty empty 17 7 0 10 -262144 -1
-1;
#X msg 377 190 set \$1;
#X msg 379 226 495;
#X obj 271 33 unpack f f f;
#X obj 280 5 inlet;
#X connect 1 0 0 1;
#X connect 2 0 5 0;
#X connect 3 0 23 0;
#X connect 4 0 13 1;
#X connect 5 0 4 0;
#X connect 5 1 4 1;
#X connect 5 2 4 2;
#X connect 6 0 1 0;
#X connect 7 0 18 0;
#X connect 8 0 18 1;
#X connect 9 0 8 0;
#X connect 9 0 15 0;
#X connect 9 0 16 0;
#X connect 10 0 18 2;
#X connect 11 0 12 0;
#X connect 12 0 14 0;
#X connect 12 1 3 0;
#X connect 13 0 0 0;
#X connect 14 0 2 0;
#X connect 15 0 14 0;
#X connect 16 0 22 0;
#X connect 17 0 2 0;
#X connect 18 0 13 0;
#X connect 19 0 3 1;
#X connect 20 0 19 0;
#X connect 20 1 19 1;
#X connect 21 0 12 0;
#X connect 22 0 23 0;
#X connect 23 0 17 0;
#X connect 24 0 14 0;
#X connect 24 1 19 0;
#X connect 24 2 22 0;
#X connect 24 2 20 0;
#X connect 25 0 24 0;
#X restore 147 223 pd skwer;
#X obj 147 189 bng 15 250 50 0 empty empty empty 17 7 0 10 -262144
-1 -1;
#X obj 192 182 r flist;
#N canvas 35 60 508 539 skwer 0;
#X obj 216 385 square;
#X msg 249 359 0.4;
#X obj 279 228 line;
#X obj 329 153 delay 120;
#X obj 279 294 pack f f f;
#X obj 279 261 t f f f;
#X obj 284 359 loadbang;
#X obj 155 261 gemhead;
#X msg 207 262 1;
#X obj 207 229 loadbang;
#X obj 239 262 inlet;
#X obj 176 51 inlet;
#X obj 231 133 t b b;
#X obj 216 331 color 0 0 0;
#X msg 280 192 1 \$1;
#X msg 191 192 20;
#X msg 235 194 500;
#X msg 329 227 0 \$1;
#X obj 155 294 translate;
#X obj 386 74 +;
#X obj 371 47 t b f;
#X obj 223 67 bng 15 250 50 0 empty empty empty 17 7 0 10 -262144 -1
-1;
#X msg 377 190 set \$1;
#X msg 379 226 495;
#X obj 271 33 unpack f f f;
#X obj 280 5 inlet;
#X connect 1 0 0 1;
#X connect 2 0 5 0;
#X connect 3 0 23 0;
#X connect 4 0 13 1;
#X connect 5 0 4 0;
#X connect 5 1 4 1;
#X connect 5 2 4 2;
#X connect 6 0 1 0;
#X connect 7 0 18 0;
#X connect 8 0 18 1;
#X connect 9 0 8 0;
#X connect 9 0 15 0;
#X connect 9 0 16 0;
#X connect 10 0 18 2;
#X connect 11 0 12 0;
#X connect 12 0 14 0;
#X connect 12 1 3 0;
#X connect 13 0 0 0;
#X connect 14 0 2 0;
#X connect 15 0 14 0;
#X connect 16 0 22 0;
#X connect 17 0 2 0;
#X connect 18 0 13 0;
#X connect 19 0 3 1;
#X connect 20 0 19 0;
#X connect 20 1 19 1;
#X connect 21 0 12 0;
#X connect 22 0 23 0;
#X connect 23 0 17 0;
#X connect 24 0 14 0;
#X connect 24 1 19 0;
#X connect 24 2 22 0;
#X connect 24 2 20 0;
#X connect 25 0 24 0;
#X restore 257 229 pd skwer;
#X obj 257 195 bng 15 250 50 0 empty empty empty 17 7 0 10 -262144
-1 -1;
#N canvas 35 60 508 539 skwer 0;
#X obj 216 385 square;
#X msg 249 359 0.4;
#X obj 279 228 line;
#X obj 329 153 delay 120;
#X obj 279 294 pack f f f;
#X obj 279 261 t f f f;
#X obj 284 359 loadbang;
#X obj 155 261 gemhead;
#X msg 207 262 1;
#X obj 207 229 loadbang;
#X obj 239 262 inlet;
#X obj 176 51 inlet;
#X obj 231 133 t b b;
#X obj 216 331 color 0 0 0;
#X msg 280 192 1 \$1;
#X msg 191 192 20;
#X msg 235 194 500;
#X msg 329 227 0 \$1;
#X obj 155 294 translate;
#X obj 386 74 +;
#X obj 371 47 t b f;
#X obj 223 67 bng 15 250 50 0 empty empty empty 17 7 0 10 -262144 -1
-1;
#X msg 377 190 set \$1;
#X msg 379 226 495;
#X obj 271 33 unpack f f f;
#X obj 280 5 inlet;
#X connect 1 0 0 1;
#X connect 2 0 5 0;
#X connect 3 0 23 0;
#X connect 4 0 13 1;
#X connect 5 0 4 0;
#X connect 5 1 4 1;
#X connect 5 2 4 2;
#X connect 6 0 1 0;
#X connect 7 0 18 0;
#X connect 8 0 18 1;
#X connect 9 0 8 0;
#X connect 9 0 15 0;
#X connect 9 0 16 0;
#X connect 10 0 18 2;
#X connect 11 0 12 0;
#X connect 12 0 14 0;
#X connect 12 1 3 0;
#X connect 13 0 0 0;
#X connect 14 0 2 0;
#X connect 15 0 14 0;
#X connect 16 0 22 0;
#X connect 17 0 2 0;
#X connect 18 0 13 0;
#X connect 19 0 3 1;
#X connect 20 0 19 0;
#X connect 20 1 19 1;
#X connect 21 0 12 0;
#X connect 22 0 23 0;
#X connect 23 0 17 0;
#X connect 24 0 14 0;
#X connect 24 1 19 0;
#X connect 24 2 22 0;
#X connect 24 2 20 0;
#X connect 25 0 24 0;
#X restore 367 229 pd skwer;
#X obj 367 195 bng 15 250 50 0 empty empty empty 17 7 0 10 -262144
-1 -1;
#X obj 412 188 r flist;
#N canvas 35 60 508 539 skwer 0;
#X obj 216 385 square;
#X msg 249 359 0.4;
#X obj 279 228 line;
#X obj 329 153 delay 120;
#X obj 279 294 pack f f f;
#X obj 279 261 t f f f;
#X obj 284 359 loadbang;
#X obj 155 261 gemhead;
#X msg 207 262 1;
#X obj 207 229 loadbang;
#X obj 239 262 inlet;
#X obj 176 51 inlet;
#X obj 231 133 t b b;
#X obj 216 331 color 0 0 0;
#X msg 280 192 1 \$1;
#X msg 191 192 20;
#X msg 235 194 500;
#X msg 329 227 0 \$1;
#X obj 155 294 translate;
#X obj 386 74 +;
#X obj 371 47 t b f;
#X obj 223 67 bng 15 250 50 0 empty empty empty 17 7 0 10 -262144 -1
-1;
#X msg 377 190 set \$1;
#X msg 379 226 495;
#X obj 271 33 unpack f f f;
#X obj 280 5 inlet;
#X connect 1 0 0 1;
#X connect 2 0 5 0;
#X connect 3 0 23 0;
#X connect 4 0 13 1;
#X connect 5 0 4 0;
#X connect 5 1 4 1;
#X connect 5 2 4 2;
#X connect 6 0 1 0;
#X connect 7 0 18 0;
#X connect 8 0 18 1;
#X connect 9 0 8 0;
#X connect 9 0 15 0;
#X connect 9 0 16 0;
#X connect 10 0 18 2;
#X connect 11 0 12 0;
#X connect 12 0 14 0;
#X connect 12 1 3 0;
#X connect 13 0 0 0;
#X connect 14 0 2 0;
#X connect 15 0 14 0;
#X connect 16 0 22 0;
#X connect 17 0 2 0;
#X connect 18 0 13 0;
#X connect 19 0 3 1;
#X connect 20 0 19 0;
#X connect 20 1 19 1;
#X connect 21 0 12 0;
#X connect 22 0 23 0;
#X connect 23 0 17 0;
#X connect 24 0 14 0;
#X connect 24 1 19 0;
#X connect 24 2 22 0;
#X connect 24 2 20 0;
#X connect 25 0 24 0;
#X restore 77 329 pd skwer;
#X obj 77 295 bng 15 250 50 0 empty empty empty 17 7 0 10 -262144 -1
-1;
#X obj 122 296 r flist;
#N canvas 35 60 508 539 skwer 0;
#X obj 216 385 square;
#X msg 249 359 0.4;
#X obj 279 228 line;
#X obj 329 153 delay 120;
#X obj 279 294 pack f f f;
#X obj 279 261 t f f f;
#X obj 284 359 loadbang;
#X obj 155 261 gemhead;
#X msg 207 262 1;
#X obj 207 229 loadbang;
#X obj 239 262 inlet;
#X obj 176 51 inlet;
#X obj 231 133 t b b;
#X obj 216 331 color 0 0 0;
#X msg 280 192 1 \$1;
#X msg 191 192 20;
#X msg 235 194 500;
#X msg 329 227 0 \$1;
#X obj 155 294 translate;
#X obj 386 74 +;
#X obj 371 47 t b f;
#X obj 223 67 bng 15 250 50 0 empty empty empty 17 7 0 10 -262144 -1
-1;
#X msg 377 190 set \$1;
#X msg 379 226 495;
#X obj 271 33 unpack f f f;
#X obj 280 5 inlet;
#X connect 1 0 0 1;
#X connect 2 0 5 0;
#X connect 3 0 23 0;
#X connect 4 0 13 1;
#X connect 5 0 4 0;
#X connect 5 1 4 1;
#X connect 5 2 4 2;
#X connect 6 0 1 0;
#X connect 7 0 18 0;
#X connect 8 0 18 1;
#X connect 9 0 8 0;
#X connect 9 0 15 0;
#X connect 9 0 16 0;
#X connect 10 0 18 2;
#X connect 11 0 12 0;
#X connect 12 0 14 0;
#X connect 12 1 3 0;
#X connect 13 0 0 0;
#X connect 14 0 2 0;
#X connect 15 0 14 0;
#X connect 16 0 22 0;
#X connect 17 0 2 0;
#X connect 18 0 13 0;
#X connect 19 0 3 1;
#X connect 20 0 19 0;
#X connect 20 1 19 1;
#X connect 21 0 12 0;
#X connect 22 0 23 0;
#X connect 23 0 17 0;
#X connect 24 0 14 0;
#X connect 24 1 19 0;
#X connect 24 2 22 0;
#X connect 24 2 20 0;
#X connect 25 0 24 0;
#X restore 187 329 pd skwer;
#X obj 187 295 bng 15 250 50 0 empty empty empty 17 7 0 10 -262144
-1 -1;
#X obj 232 288 r flist;
#N canvas 35 60 508 539 skwer 0;
#X obj 216 385 square;
#X msg 249 359 0.4;
#X obj 279 228 line;
#X obj 329 153 delay 120;
#X obj 279 294 pack f f f;
#X obj 279 261 t f f f;
#X obj 284 359 loadbang;
#X obj 155 261 gemhead;
#X msg 207 262 1;
#X obj 207 229 loadbang;
#X obj 239 262 inlet;
#X obj 176 51 inlet;
#X obj 231 133 t b b;
#X obj 216 331 color 0 0 0;
#X msg 280 192 1 \$1;
#X msg 191 192 20;
#X msg 235 194 500;
#X msg 329 227 0 \$1;
#X obj 155 294 translate;
#X obj 386 74 +;
#X obj 371 47 t b f;
#X obj 223 67 bng 15 250 50 0 empty empty empty 17 7 0 10 -262144 -1
-1;
#X msg 377 190 set \$1;
#X msg 379 226 495;
#X obj 271 33 unpack f f f;
#X obj 280 5 inlet;
#X connect 1 0 0 1;
#X connect 2 0 5 0;
#X connect 3 0 23 0;
#X connect 4 0 13 1;
#X connect 5 0 4 0;
#X connect 5 1 4 1;
#X connect 5 2 4 2;
#X connect 6 0 1 0;
#X connect 7 0 18 0;
#X connect 8 0 18 1;
#X connect 9 0 8 0;
#X connect 9 0 15 0;
#X connect 9 0 16 0;
#X connect 10 0 18 2;
#X connect 11 0 12 0;
#X connect 12 0 14 0;
#X connect 12 1 3 0;
#X connect 13 0 0 0;
#X connect 14 0 2 0;
#X connect 15 0 14 0;
#X connect 16 0 22 0;
#X connect 17 0 2 0;
#X connect 18 0 13 0;
#X connect 19 0 3 1;
#X connect 20 0 19 0;
#X connect 20 1 19 1;
#X connect 21 0 12 0;
#X connect 22 0 23 0;
#X connect 23 0 17 0;
#X connect 24 0 14 0;
#X connect 24 1 19 0;
#X connect 24 2 22 0;
#X connect 24 2 20 0;
#X connect 25 0 24 0;
#X restore 322 323 pd skwer;
#X obj 322 280 bng 15 250 50 0 empty empty empty 17 7 0 10 -262144
-1 -1;
#X obj 367 285 r flist;
#N canvas 35 60 508 539 skwer 0;
#X obj 216 385 square;
#X msg 249 359 0.4;
#X obj 279 228 line;
#X obj 329 153 delay 120;
#X obj 279 294 pack f f f;
#X obj 279 261 t f f f;
#X obj 284 359 loadbang;
#X obj 155 261 gemhead;
#X msg 207 262 1;
#X obj 207 229 loadbang;
#X obj 239 262 inlet;
#X obj 176 51 inlet;
#X obj 231 133 t b b;
#X obj 216 331 color 0 0 0;
#X msg 280 192 1 \$1;
#X msg 191 192 20;
#X msg 235 194 500;
#X msg 329 227 0 \$1;
#X obj 155 294 translate;
#X obj 386 74 +;
#X obj 371 47 t b f;
#X obj 223 67 bng 15 250 50 0 empty empty empty 17 7 0 10 -262144 -1
-1;
#X msg 377 190 set \$1;
#X msg 379 226 495;
#X obj 271 33 unpack f f f;
#X obj 280 5 inlet;
#X connect 1 0 0 1;
#X connect 2 0 5 0;
#X connect 3 0 23 0;
#X connect 4 0 13 1;
#X connect 5 0 4 0;
#X connect 5 1 4 1;
#X connect 5 2 4 2;
#X connect 6 0 1 0;
#X connect 7 0 18 0;
#X connect 8 0 18 1;
#X connect 9 0 8 0;
#X connect 9 0 15 0;
#X connect 9 0 16 0;
#X connect 10 0 18 2;
#X connect 11 0 12 0;
#X connect 12 0 14 0;
#X connect 12 1 3 0;
#X connect 13 0 0 0;
#X connect 14 0 2 0;
#X connect 15 0 14 0;
#X connect 16 0 22 0;
#X connect 17 0 2 0;
#X connect 18 0 13 0;
#X connect 19 0 3 1;
#X connect 20 0 19 0;
#X connect 20 1 19 1;
#X connect 21 0 12 0;
#X connect 22 0 23 0;
#X connect 23 0 17 0;
#X connect 24 0 14 0;
#X connect 24 1 19 0;
#X connect 24 2 22 0;
#X connect 24 2 20 0;
#X connect 25 0 24 0;
#X restore 445 319 pd skwer;
#X obj 445 285 bng 15 250 50 0 empty empty empty 17 7 0 10 -262144
-1 -1;
#X obj 490 283 r flist;
#X obj 37 30 inlet;
#X obj 265 107 loadbang;
#X obj 37 63 sel 0 1 2 3 4 5 6 7 8 9 10 11 12 13 14 15 16 17 18 19
20 21 22 23 24 25;
#X msg 59 153 -3.5 -3.5 0;
#X msg 169 147 -3.5 -2.5 0;
#X msg 279 154 -3.5 -1.5 0;
#X msg 389 154 -3.5 -0.5 0;
#X msg 99 268 -3.5 0.5 0;
#X msg 209 260 -3.5 1.5 0;
#X msg 344 258 -3.5 2.5 0;
#X msg 467 249 -3.5 3.5 0;
#N canvas 35 60 508 539 skwer 0;
#X obj 216 385 square;
#X msg 249 359 0.4;
#X obj 279 228 line;
#X obj 329 153 delay 120;
#X obj 279 294 pack f f f;
#X obj 279 261 t f f f;
#X obj 284 359 loadbang;
#X obj 155 261 gemhead;
#X msg 207 262 1;
#X obj 207 229 loadbang;
#X obj 239 262 inlet;
#X obj 176 51 inlet;
#X obj 231 133 t b b;
#X obj 216 331 color 0 0 0;
#X msg 280 192 1 \$1;
#X msg 191 192 20;
#X msg 235 194 500;
#X msg 329 227 0 \$1;
#X obj 155 294 translate;
#X obj 386 74 +;
#X obj 371 47 t b f;
#X obj 223 67 bng 15 250 50 0 empty empty empty 17 7 0 10 -262144 -1
-1;
#X msg 377 190 set \$1;
#X msg 379 226 495;
#X obj 271 33 unpack f f f;
#X obj 280 5 inlet;
#X connect 1 0 0 1;
#X connect 2 0 5 0;
#X connect 3 0 23 0;
#X connect 4 0 13 1;
#X connect 5 0 4 0;
#X connect 5 1 4 1;
#X connect 5 2 4 2;
#X connect 6 0 1 0;
#X connect 7 0 18 0;
#X connect 8 0 18 1;
#X connect 9 0 8 0;
#X connect 9 0 15 0;
#X connect 9 0 16 0;
#X connect 10 0 18 2;
#X connect 11 0 12 0;
#X connect 12 0 14 0;
#X connect 12 1 3 0;
#X connect 13 0 0 0;
#X connect 14 0 2 0;
#X connect 15 0 14 0;
#X connect 16 0 22 0;
#X connect 17 0 2 0;
#X connect 18 0 13 0;
#X connect 19 0 3 1;
#X connect 20 0 19 0;
#X connect 20 1 19 1;
#X connect 21 0 12 0;
#X connect 22 0 23 0;
#X connect 23 0 17 0;
#X connect 24 0 14 0;
#X connect 24 1 19 0;
#X connect 24 2 22 0;
#X connect 24 2 20 0;
#X connect 25 0 24 0;
#X restore 36 439 pd skwer;
#X obj 36 405 bng 15 250 50 0 empty empty empty 17 7 0 10 -262144 -1
-1;
#X obj 81 398 r flist;
#N canvas 35 60 508 539 skwer 0;
#X obj 216 385 square;
#X msg 249 359 0.4;
#X obj 279 228 line;
#X obj 329 153 delay 120;
#X obj 279 294 pack f f f;
#X obj 279 261 t f f f;
#X obj 284 359 loadbang;
#X obj 155 261 gemhead;
#X msg 207 262 1;
#X obj 207 229 loadbang;
#X obj 239 262 inlet;
#X obj 176 51 inlet;
#X obj 231 133 t b b;
#X obj 216 331 color 0 0 0;
#X msg 280 192 1 \$1;
#X msg 191 192 20;
#X msg 235 194 500;
#X msg 329 227 0 \$1;
#X obj 155 294 translate;
#X obj 386 74 +;
#X obj 371 47 t b f;
#X obj 223 67 bng 15 250 50 0 empty empty empty 17 7 0 10 -262144 -1
-1;
#X msg 377 190 set \$1;
#X msg 379 226 495;
#X obj 271 33 unpack f f f;
#X obj 280 5 inlet;
#X connect 1 0 0 1;
#X connect 2 0 5 0;
#X connect 3 0 23 0;
#X connect 4 0 13 1;
#X connect 5 0 4 0;
#X connect 5 1 4 1;
#X connect 5 2 4 2;
#X connect 6 0 1 0;
#X connect 7 0 18 0;
#X connect 8 0 18 1;
#X connect 9 0 8 0;
#X connect 9 0 15 0;
#X connect 9 0 16 0;
#X connect 10 0 18 2;
#X connect 11 0 12 0;
#X connect 12 0 14 0;
#X connect 12 1 3 0;
#X connect 13 0 0 0;
#X connect 14 0 2 0;
#X connect 15 0 14 0;
#X connect 16 0 22 0;
#X connect 17 0 2 0;
#X connect 18 0 13 0;
#X connect 19 0 3 1;
#X connect 20 0 19 0;
#X connect 20 1 19 1;
#X connect 21 0 12 0;
#X connect 22 0 23 0;
#X connect 23 0 17 0;
#X connect 24 0 14 0;
#X connect 24 1 19 0;
#X connect 24 2 22 0;
#X connect 24 2 20 0;
#X connect 25 0 24 0;
#X restore 140 442 pd skwer;
#X obj 140 409 bng 15 250 50 0 empty empty empty 17 7 0 10 -262144
-1 -1;
#X obj 185 405 r flist;
#X msg 58 363 -2.5 -3.5 0;
#X msg 162 369 -2.5 -2.5 0;
#X obj 302 192 r flist;
#X connect 1 0 0 0;
#X connect 2 0 0 2;
#X connect 4 0 3 0;
#X connect 5 0 3 2;
#X connect 7 0 6 0;
#X connect 9 0 8 0;
#X connect 10 0 8 2;
#X connect 12 0 11 0;
#X connect 13 0 11 2;
#X connect 15 0 14 0;
#X connect 16 0 14 2;
#X connect 18 0 17 0;
#X connect 19 0 17 2;
#X connect 21 0 20 0;
#X connect 22 0 20 2;
#X connect 23 0 25 0;
#X connect 24 0 26 0;
#X connect 24 0 27 0;
#X connect 24 0 28 0;
#X connect 24 0 29 0;
#X connect 24 0 33 0;
#X connect 24 0 32 0;
#X connect 24 0 31 0;
#X connect 24 0 30 0;
#X connect 25 0 1 0;
#X connect 25 1 4 0;
#X connect 25 2 7 0;
#X connect 25 3 9 0;
#X connect 25 4 12 0;
#X connect 25 5 15 0;
#X connect 25 6 18 0;
#X connect 25 7 21 0;
#X connect 25 8 35 0;
#X connect 25 9 38 0;
#X connect 26 0 0 1;
#X connect 27 0 3 1;
#X connect 28 0 6 1;
#X connect 29 0 8 1;
#X connect 30 0 11 1;
#X connect 31 0 14 1;
#X connect 32 0 17 1;
#X connect 33 0 20 1;
#X connect 35 0 34 0;
#X connect 36 0 34 2;
#X connect 38 0 37 0;
#X connect 39 0 37 2;
#X connect 40 0 34 1;
#X connect 41 0 37 1;
#X connect 42 0 6 2;
#X restore 342 364 pd midrow;
#X obj 274 131 pdp_v4l2;
#X msg 304 75 open /dev/video1;
#X obj 274 10 bng 15 250 50 0 empty empty empty 17 7 0 10 -262144 -1
-1;
#X obj 274 47 metro 100;
#X msg 305 102 dim 320 240;
#X obj 274 266 pdp_xv;
#X obj 274 220 pdp_mgrid;
#X msg 299 190 7;
#X obj 299 158 loadbang;
#X floatatom 375 330 5 0 0 0 - - -;
#X obj 342 303 +;
#X obj 368 264 t b f;
#X obj 342 330 - 2;
#X text 267 346 test;
#X msg 105 383 destroy \, 0;
#X text 75 334 create gemwin first;
#X text 237 -10 then start cam;
#X connect 1 0 0 0;
#X connect 2 0 4 0;
#X connect 3 0 2 0;
#X connect 4 0 5 0;
#X connect 6 0 12 0;
#X connect 7 0 6 0;
#X connect 8 0 9 0;
#X connect 9 0 6 0;
#X connect 10 0 6 0;
#X connect 12 0 11 0;
#X connect 12 1 16 0;
#X connect 12 2 17 0;
#X connect 13 0 12 2;
#X connect 13 0 12 3;
#X connect 14 0 13 0;
#X connect 16 0 15 0;
#X connect 16 0 18 0;
#X connect 17 0 16 0;
#X connect 17 1 16 1;
#X connect 18 0 5 0;
#X connect 20 0 0 0;
