#N canvas 74 404 943 489 10;
#X obj 113 73 loadbang;
#X obj 113 237 gemwin;
#X obj 66 84 tgl 15 0 empty empty empty 17 7 0 10 -262144 -1 -1 1 1
;
#X msg 113 95 dimen 1000 1000;
#X msg 129 129 create;
#X msg 149 159 destroy;
#X obj 291 88 world_light;
#X obj 219 155 loadbang;
#X msg 219 177 lighting 1;
#X msg 219 197 lighting 0;
#X obj 493 72 hradio 15 1 0 11 empty empty empty 0 -8 0 10 -262144
-1 -1 2;
#X obj 493 102 s scene_selected;
#N canvas 1 82 450 300 one 0;
#X obj 160 58 r scene_selected;
#X obj 160 80 == 0;
#X obj 160 102 gemhead;
#X obj 160 124 square;
#X connect 0 0 1 0;
#X connect 1 0 2 0;
#X connect 2 0 3 0;
#X restore 494 221 pd one;
#X obj 291 66 gemhead 40;
#N canvas 1 92 450 300 two 0;
#X obj 160 58 r scene_selected;
#X obj 160 102 gemhead;
#X obj 160 124 circle;
#X obj 160 80 == 1;
#X connect 0 0 3 0;
#X connect 1 0 2 0;
#X connect 3 0 1 0;
#X restore 544 221 pd two;
#N canvas 1 97 450 300 three 0;
#X obj 160 58 r scene_selected;
#X obj 160 102 gemhead;
#X obj 160 124 triangle;
#X obj 160 80 == 2;
#X connect 0 0 3 0;
#X connect 1 0 2 0;
#X connect 3 0 1 0;
#X restore 594 221 pd three;
#X text 659 222 etc.;
#X connect 0 0 3 0;
#X connect 2 0 1 0;
#X connect 3 0 1 0;
#X connect 4 0 1 0;
#X connect 5 0 1 0;
#X connect 7 0 8 0;
#X connect 8 0 1 0;
#X connect 9 0 1 0;
#X connect 10 0 11 0;
#X connect 13 0 6 0;
