#N canvas 0 0 454 304 10;
#X obj 272 189 select;
#X msg 267 128 bang;
#X obj 267 156 t a a;
#X msg 228 126 1;
#X obj 271 219 bng 15 250 50 0 empty empty empty 0 -6 0 10 -262144
-1 -1;
#X obj 301 219 bng 15 250 50 0 empty empty empty 0 -6 0 10 -262144
-1 -1;
#X obj 312 125 bng 15 250 50 0 empty empty empty 0 -6 0 10 -262144
-1 -1;
#X connect 0 0 4 0;
#X connect 0 1 5 0;
#X connect 1 0 2 0;
#X connect 2 0 0 0;
#X connect 2 1 0 1;
#X connect 3 0 2 0;
#X connect 6 0 2 0;
