#N canvas 204 81 986 647 10;
#X obj 91 75 hsl 128 15 0 127 0 0 empty empty osc-1 -2 -8 0 10 -4160
-262144 -258113 9500 1;
#X obj 255 55 vradio 15 1 0 3 empty empty empty 0 -8 0 10 -262144 -1
-1 0;
#X obj 254 109 s setting;
#X obj 337 21 r setting;
#X msg 343 78 label osc-\$1;
#X obj 340 52 + 1;
#X text 273 54 1;
#X text 275 70 2;
#X text 279 85 3;
#X obj 91 101 s slider-value;
#X obj 33 24 r slider-in;
#X obj 344 107 s slider-in;
#X obj 133 208 r slider-value;
#X obj 224 235 r setting;
#X obj 131 315 table values 3;
#X obj 133 273 tabwrite values;
#X obj 318 214 r setting;
#X obj 318 244 tabread values;
#X msg 318 276 set \$1;
#X obj 318 303 s slider-in;
#X obj 132 353 loadbang;
#X obj 365 379 r slider-value;
#X obj 421 406 r setting;
#X obj 370 548 s \$0-osc1;
#X obj 436 549 s \$0-osc2;
#X obj 499 551 s \$0-osc3;
#X obj 370 447 pack 0 0;
#X obj 134 374 t b b b;
#X obj 178 420 s values;
#X msg 178 397 0 64 100 15;
#X msg 147 447 0;
#X obj 147 471 s setting;
#X obj 126 499 s initvalues;
#X obj 521 256 r initvalues;
#X obj 553 422 tabread values;
#X obj 525 346 until;
#X msg 523 278 3;
#X obj 524 299 t f b;
#X msg 570 337 0;
#X obj 524 370 f;
#X obj 549 375 + 1;
#X obj 649 157 osc~;
#X floatatom 646 112 5 0 0 0 - - -;
#X obj 649 134 mtof;
#X obj 646 89 r \$0-osc1;
#X obj 719 157 osc~;
#X floatatom 716 112 5 0 0 0 - - -;
#X obj 719 134 mtof;
#X obj 716 89 r \$0-osc2;
#X obj 788 157 osc~;
#X floatatom 785 112 5 0 0 0 - - -;
#X obj 788 134 mtof;
#X obj 785 89 r \$0-osc3;
#X obj 718 239 +~;
#X obj 525 399 t f f;
#X obj 525 448 pack 0 0;
#X msg 371 468 \$2 \$1;
#X obj 375 512 route 0 1 2;
#X connect 0 0 9 0;
#X connect 1 0 2 0;
#X connect 3 0 5 0;
#X connect 4 0 11 0;
#X connect 5 0 4 0;
#X connect 10 0 0 0;
#X connect 12 0 15 0;
#X connect 13 0 15 1;
#X connect 16 0 17 0;
#X connect 17 0 18 0;
#X connect 18 0 19 0;
#X connect 20 0 27 0;
#X connect 21 0 26 0;
#X connect 22 0 26 1;
#X connect 26 0 56 0;
#X connect 27 0 32 0;
#X connect 27 1 30 0;
#X connect 27 2 29 0;
#X connect 29 0 28 0;
#X connect 30 0 31 0;
#X connect 33 0 36 0;
#X connect 34 0 55 1;
#X connect 35 0 39 0;
#X connect 36 0 37 0;
#X connect 37 0 35 0;
#X connect 37 1 38 0;
#X connect 38 0 39 1;
#X connect 39 0 40 0;
#X connect 39 0 54 0;
#X connect 40 0 39 1;
#X connect 41 0 53 0;
#X connect 42 0 43 0;
#X connect 43 0 41 0;
#X connect 44 0 42 0;
#X connect 45 0 53 0;
#X connect 46 0 47 0;
#X connect 47 0 45 0;
#X connect 48 0 46 0;
#X connect 49 0 53 0;
#X connect 50 0 51 0;
#X connect 51 0 49 0;
#X connect 52 0 50 0;
#X connect 54 0 55 0;
#X connect 54 1 34 0;
#X connect 55 0 57 0;
#X connect 56 0 57 0;
#X connect 57 0 23 0;
#X connect 57 1 24 0;
#X connect 57 2 25 0;
