#N canvas 207 95 321 232 10;
#X obj 5 -5 cnv 15 220 220 empty empty empty 20 12 0 14 -195568 -66577
0;
#X obj 12 3 bng 100 250 50 0 red redr empty 0 -6 0 8 -262144 -1 -1
;
#X obj 12 3 cnv 10 100 100 cRed cRedr empty 20 12 0 14 -143491 -143491
0;
#X obj 117 3 bng 100 250 50 0 green greenr empty 0 -6 0 8 -262144 -1
-1;
#X obj 117 3 cnv 10 100 100 cGreen cGreenr empty 20 12 0 14 -10435
-10435 0;
#X obj 12 108 bng 100 250 50 0 blue bluer empty 0 -6 0 8 -262144 -1
-1;
#X obj 12 108 cnv 10 100 100 cBlue cBluer empty 20 12 0 14 -29995 -29995
0;
#X obj 117 108 bng 100 250 50 0 yellow yellowr empty 0 -6 0 8 -262144
-1 -1;
#X obj 117 108 cnv 10 100 100 cYellow cYellowr empty 20 12 0 14 -166411
-166411 0;
#X obj 230 -5 cnv 15 84 220 empty empty empty 20 12 0 14 -195568 -66577
0;
#X obj 238 20 bng 30 250 50 0 \$0-start \$0-startr start 0 -10 1 16
-99865 -262144 -262144;
#N canvas 172 419 474 433 game 0;
#X obj 96 80 r \$0-start;
#N canvas 134 347 474 540 generateMove 0;
#X obj 58 48 inlet generateMoveBang;
#X obj 58 318 outlet done;
#X obj 149 152 v gamePosition;
#X obj 76 214 tabwrite game;
#X obj 76 152 random 4;
#X obj 76 177 + 1;
#X obj 58 81 t b b b;
#X obj 215 239 + 1;
#X obj 215 271 s \$0-moveDisplayr;
#X connect 0 0 6 0;
#X connect 2 0 3 1;
#X connect 2 0 7 0;
#X connect 4 0 5 0;
#X connect 5 0 3 0;
#X connect 6 0 1 0;
#X connect 6 1 4 0;
#X connect 6 2 2 0;
#X connect 7 0 8 0;
#X restore 96 173 pd generateMove;
#N canvas 777 172 482 703 displayMoves 0;
#X obj 258 463 outlet done;
#X obj 137 44 inlet;
#X obj 137 288 tabread game;
#X obj 137 318 sel 1 2 3 4;
#X obj 137 166 metro;
#X obj 162 138 v time;
#X msg 137 138 1;
#X obj 137 226 f;
#X msg 169 197 0;
#X obj 271 222 v gamePosition;
#X obj 173 225 + 1;
#X obj 137 413 s redr;
#X obj 152 392 s greenr;
#X obj 167 370 s bluer;
#X obj 182 349 s yellowr;
#X obj 258 299 sel 1;
#X msg 105 138 0;
#X obj 258 271 >=;
#X obj 258 352 t b b;
#X obj 258 432 del 100;
#X obj 137 110 t b b b b b;
#N canvas 0 0 458 308 disableUserMove 0;
#X obj 90 77 inlet;
#X obj 90 175 s userCanMove;
#X msg 90 145 0;
#X connect 0 0 2 0;
#X connect 2 0 1 0;
#X restore 267 139 pd disableUserMove;
#X connect 1 0 20 0;
#X connect 2 0 3 0;
#X connect 3 0 11 0;
#X connect 3 1 12 0;
#X connect 3 2 13 0;
#X connect 3 3 14 0;
#X connect 4 0 7 0;
#X connect 5 0 4 1;
#X connect 6 0 4 0;
#X connect 7 0 10 0;
#X connect 7 0 2 0;
#X connect 7 0 17 0;
#X connect 8 0 7 1;
#X connect 9 0 17 1;
#X connect 10 0 7 1;
#X connect 15 0 16 0;
#X connect 15 0 18 0;
#X connect 16 0 4 0;
#X connect 17 0 15 0;
#X connect 18 0 19 0;
#X connect 19 0 0 0;
#X connect 20 0 6 0;
#X connect 20 1 5 0;
#X connect 20 2 8 0;
#X connect 20 3 9 0;
#X connect 20 4 21 0;
#X restore 96 222 pd displayMoves;
#N canvas 27 66 636 829 userMoves 0;
#X obj 42 756 outlet done;
#X obj 58 48 inlet;
#X obj 129 322 t b b;
#X msg 129 343 0;
#X msg 178 133 2000;
#X obj 163 161 del;
#X obj 129 299 spigot;
#X msg 160 264 0;
#X msg 195 264 1;
#X obj 63 202 bng 15 250 50 0 empty empty try_too_late 0 -6 0 8 -262144
-1 -1;
#X obj 66 398 bng 15 250 50 0 empty empty too_late 0 -6 0 8 -262144
-1 -1;
#X obj 160 235 loadbang;
#X obj 313 436 v gamePosition;
#X obj 347 224 f;
#X msg 372 193 0;
#X obj 347 163 t b b;
#N canvas 0 0 462 312 getClickedButton 0;
#X obj 35 59 r red;
#X obj 78 59 r green;
#X obj 128 59 r blue;
#X obj 176 60 r yellow;
#X obj 216 275 outlet clickedButtonNumber;
#X msg 35 110 1;
#X msg 78 110 2;
#X msg 128 110 3;
#X msg 176 109 4;
#X obj 216 237 spigot;
#X obj 247 138 r userCanMove;
#X connect 0 0 5 0;
#X connect 1 0 6 0;
#X connect 2 0 7 0;
#X connect 3 0 8 0;
#X connect 5 0 9 0;
#X connect 6 0 9 0;
#X connect 7 0 9 0;
#X connect 8 0 9 0;
#X connect 9 0 4 0;
#X connect 10 0 9 1;
#X restore 313 304 pd getClickedButton;
#X obj 326 276 tabread game;
#X obj 313 346 ==;
#X obj 313 522 ==;
#X msg 259 676 1;
#X obj 313 546 sel 1 0;
#X obj 421 617 f;
#X obj 421 640 + 1;
#X obj 347 247 t f f f;
#X obj 396 578 t b b;
#X floatatom 235 340 5 0 0 0 - - -;
#X obj 397 722 bng 15 250 50 0 empty empty sequence_ok 0 -6 0 8 -262144
-1 -1;
#X obj 490 524 bng 15 250 50 0 empty empty need_next_usermove 0 -6
0 8 -262144 -1 -1;
#X floatatom 235 524 5 0 0 0 - - -;
#X obj 313 375 sel 1 0;
#X msg 143 486 0;
#X obj 485 429 bng 15 250 50 0 empty empty wrong_move 0 -6 0 8 -262144
-1 -1;
#X obj 486 394 bng 15 250 50 0 empty empty ok_move 0 -6 0 8 -262144
-1 -1;
#N canvas 0 0 454 304 enableUserMove 0;
#X obj 90 77 inlet;
#X obj 90 175 s userCanMove;
#X msg 90 145 1;
#X connect 0 0 2 0;
#X connect 2 0 1 0;
#X restore 471 152 pd enableUserMove;
#X obj 163 91 t b b b b b;
#X obj 313 602 t b b b;
#X obj 259 650 del 600;
#X obj 144 575 print wrongMove!!!;
#X obj 143 462 t b;
#X obj 184 518 bng 15 250 50 0 empty empty empty 0 -6 0 8 -262144 -1
-1;
#X obj 143 440 del 200;
#X floatatom 351 521 5 0 0 0 - - -;
#X floatatom 445 675 5 0 0 0 - - -;
#X floatatom 290 258 5 0 0 0 - - -;
#X connect 1 0 35 0;
#X connect 2 0 3 0;
#X connect 2 0 10 0;
#X connect 2 1 7 0;
#X connect 3 0 0 0;
#X connect 4 0 5 1;
#X connect 5 0 6 0;
#X connect 5 0 9 0;
#X connect 6 0 2 0;
#X connect 7 0 6 1;
#X connect 8 0 6 1;
#X connect 11 0 7 0;
#X connect 12 0 19 0;
#X connect 12 0 29 0;
#X connect 13 0 24 0;
#X connect 13 0 44 0;
#X connect 14 0 13 1;
#X connect 15 0 13 0;
#X connect 15 1 14 0;
#X connect 16 0 18 0;
#X connect 17 0 18 1;
#X connect 17 0 26 0;
#X connect 18 0 30 0;
#X connect 19 0 21 0;
#X connect 20 0 0 0;
#X connect 21 0 36 0;
#X connect 21 1 25 0;
#X connect 22 0 23 0;
#X connect 23 0 13 1;
#X connect 23 0 43 0;
#X connect 24 0 17 0;
#X connect 24 1 19 1;
#X connect 24 2 22 1;
#X connect 25 0 13 0;
#X connect 25 1 22 0;
#X connect 25 1 28 0;
#X connect 30 0 12 0;
#X connect 30 0 5 0;
#X connect 30 1 32 0;
#X connect 30 1 41 0;
#X connect 30 1 7 0;
#X connect 31 0 0 0;
#X connect 31 0 38 0;
#X connect 35 0 5 0;
#X connect 35 1 4 0;
#X connect 35 2 8 0;
#X connect 35 3 15 0;
#X connect 35 4 34 0;
#X connect 36 0 37 0;
#X connect 36 1 7 0;
#X connect 36 1 27 0;
#X connect 37 0 20 0;
#X connect 39 0 31 0;
#X connect 39 0 40 0;
#X connect 41 0 39 0;
#X restore 96 259 pd userMoves;
#N canvas 0 0 478 328 validateSucces 0;
#X obj 58 48 inlet;
#X obj 58 271 outlet failure;
#X obj 251 271 outlet succes;
#X obj 58 128 sel 0 1;
#X obj 174 270 print;
#X msg 76 194 game over;
#X msg 174 175 next move;
#X connect 0 0 3 0;
#X connect 3 0 5 0;
#X connect 3 0 1 0;
#X connect 3 1 2 0;
#X connect 3 1 6 0;
#X connect 5 0 4 0;
#X connect 6 0 4 0;
#X restore 96 296 pd validateSucces;
#N canvas 0 0 470 320 adjustTime 0;
#X obj 90 265 outlet done;
#X obj 90 58 inlet;
#X obj 90 84 t b b;
#X connect 1 0 2 0;
#X connect 2 0 0 0;
#X restore 193 336 pd adjustTime;
#N canvas 0 0 772 493 increaseGamePosition 0;
#X obj 90 265 outlet done;
#X obj 90 58 inlet;
#X obj 90 84 t b b;
#X obj 182 141 v gamePosition;
#X obj 157 222 v gamePosition;
#X obj 157 113 t b b;
#X msg 157 164 1;
#X obj 157 192 +;
#X obj 312 209 mod 4;
#X obj 312 238 sel 0;
#X text 355 209 increase time with each 4 correct moves;
#X obj 312 271 v time;
#X obj 312 337 v time;
#X obj 312 305 - 70;
#X connect 1 0 2 0;
#X connect 2 0 0 0;
#X connect 2 1 5 0;
#X connect 3 0 7 1;
#X connect 3 0 8 0;
#X connect 5 0 6 0;
#X connect 5 1 3 0;
#X connect 6 0 7 0;
#X connect 7 0 4 0;
#X connect 8 0 9 0;
#X connect 9 0 11 0;
#X connect 11 0 13 0;
#X connect 13 0 12 0;
#X restore 193 365 pd increaseGamePosition;
#N canvas 0 0 458 308 error 0;
#X obj 75 67 inlet;
#X obj 75 135 s soundNumber;
#X msg 75 107 0;
#N canvas 0 0 458 308 disableUserMove 0;
#X obj 90 77 inlet;
#X obj 90 175 s userCanMove;
#X msg 90 145 0;
#X connect 0 0 2 0;
#X connect 2 0 1 0;
#X restore 267 139 pd disableUserMove;
#X connect 0 0 2 0;
#X connect 0 0 3 0;
#X connect 2 0 1 0;
#X restore 96 339 pd error;
#N canvas 0 0 454 304 gameTable 0;
#N canvas 0 0 450 300 graph3 0;
#X array game 100 float 2;
#X coords 0 4 99 0 200 140 1;
#X restore 92 55 graph;
#X restore 328 23 pd gameTable;
#N canvas 0 0 392 292 buttonClicked 0;
#N canvas 728 388 478 502 redHilight 0;
#X obj 266 184 t b f;
#X obj 200 218 +;
#X obj 200 243 t b f;
#X obj 200 274 +;
#X obj 123 161 * -65536;
#X obj 200 162 * -256;
#X obj 266 162 * -1;
#X obj 200 305 - 1;
#X msg 200 135 8;
#X msg 266 135 8;
#X obj 123 95 t b b b;
#X msg 200 330 \; cRedr color \$1 \$1;
#X msg 123 133 255;
#X msg 69 132 140;
#X obj 69 40 t b b;
#X obj 69 14 r red;
#X obj 69 69 del 100;
#X msg 266 82 1;
#X obj 266 102 s soundNumber;
#X connect 0 0 1 0;
#X connect 0 1 1 1;
#X connect 1 0 2 0;
#X connect 2 0 3 0;
#X connect 2 1 3 1;
#X connect 3 0 7 0;
#X connect 4 0 3 0;
#X connect 5 0 1 0;
#X connect 6 0 0 0;
#X connect 7 0 11 0;
#X connect 8 0 5 0;
#X connect 9 0 6 0;
#X connect 10 0 12 0;
#X connect 10 1 8 0;
#X connect 10 2 9 0;
#X connect 12 0 4 0;
#X connect 13 0 4 0;
#X connect 14 0 16 0;
#X connect 14 1 10 0;
#X connect 14 1 17 0;
#X connect 15 0 14 0;
#X connect 16 0 13 0;
#X connect 17 0 18 0;
#X restore 57 67 pd redHilight;
#N canvas 728 388 470 494 greenHilight 0;
#X obj 266 184 t b f;
#X obj 200 218 +;
#X obj 200 243 t b f;
#X obj 200 274 +;
#X obj 123 161 * -65536;
#X obj 200 162 * -256;
#X obj 266 162 * -1;
#X obj 200 305 - 1;
#X msg 266 135 8;
#X obj 123 95 t b b b;
#X msg 69 132 140;
#X obj 69 40 t b b;
#X obj 69 14 r green;
#X msg 200 330 \; cGreenr color \$1 \$1;
#X msg 200 135 255;
#X msg 123 133 8;
#X obj 69 69 del 100;
#X obj 266 102 s soundNumber;
#X msg 266 82 2;
#X connect 0 0 1 0;
#X connect 0 1 1 1;
#X connect 1 0 2 0;
#X connect 2 0 3 0;
#X connect 2 1 3 1;
#X connect 3 0 7 0;
#X connect 4 0 3 0;
#X connect 5 0 1 0;
#X connect 6 0 0 0;
#X connect 7 0 13 0;
#X connect 8 0 6 0;
#X connect 9 0 15 0;
#X connect 9 1 14 0;
#X connect 9 2 8 0;
#X connect 10 0 5 0;
#X connect 11 0 16 0;
#X connect 11 1 9 0;
#X connect 11 1 18 0;
#X connect 12 0 11 0;
#X connect 14 0 5 0;
#X connect 15 0 4 0;
#X connect 16 0 10 0;
#X connect 18 0 17 0;
#X restore 182 65 pd greenHilight;
#N canvas 728 388 474 498 blueHilight 0;
#X obj 266 184 t b f;
#X obj 200 218 +;
#X obj 200 243 t b f;
#X obj 200 274 +;
#X obj 123 161 * -65536;
#X obj 200 162 * -256;
#X obj 266 162 * -1;
#X obj 200 305 - 1;
#X obj 123 95 t b b b;
#X obj 69 40 t b b;
#X obj 69 14 r blue;
#X msg 200 330 \; cBluer color \$1 \$1;
#X msg 236 136 170;
#X msg 171 135 80;
#X msg 69 132 30;
#X msg 123 133 113;
#X msg 200 135 157;
#X msg 266 135 232;
#X obj 69 69 del 100;
#X obj 266 102 s soundNumber;
#X msg 266 82 3;
#X connect 0 0 1 0;
#X connect 0 1 1 1;
#X connect 1 0 2 0;
#X connect 2 0 3 0;
#X connect 2 1 3 1;
#X connect 3 0 7 0;
#X connect 4 0 3 0;
#X connect 5 0 1 0;
#X connect 6 0 0 0;
#X connect 7 0 11 0;
#X connect 8 0 15 0;
#X connect 8 1 16 0;
#X connect 8 2 17 0;
#X connect 9 0 18 0;
#X connect 9 1 8 0;
#X connect 9 1 20 0;
#X connect 10 0 9 0;
#X connect 12 0 6 0;
#X connect 13 0 5 0;
#X connect 14 0 4 0;
#X connect 15 0 4 0;
#X connect 16 0 5 0;
#X connect 17 0 6 0;
#X connect 18 0 14 0;
#X connect 18 0 13 0;
#X connect 18 0 12 0;
#X connect 20 0 19 0;
#X restore 54 142 pd blueHilight;
#N canvas 728 388 466 490 yellowHilight 0;
#X obj 266 184 t b f;
#X obj 200 218 +;
#X obj 200 243 t b f;
#X obj 200 274 +;
#X obj 123 161 * -65536;
#X obj 200 162 * -256;
#X obj 266 162 * -1;
#X obj 200 305 - 1;
#X obj 123 95 t b b b;
#X obj 69 40 t b b;
#X obj 69 14 r yellow;
#X msg 200 330 \; cYellowr color \$1 \$1;
#X msg 266 135 16;
#X msg 238 135 40;
#X msg 69 132 160;
#X msg 123 133 232;
#X msg 171 135 160;
#X msg 200 135 232;
#X obj 69 69 del 100;
#X obj 266 102 s soundNumber;
#X msg 266 82 4;
#X connect 0 0 1 0;
#X connect 0 1 1 1;
#X connect 1 0 2 0;
#X connect 2 0 3 0;
#X connect 2 1 3 1;
#X connect 3 0 7 0;
#X connect 4 0 3 0;
#X connect 5 0 1 0;
#X connect 6 0 0 0;
#X connect 7 0 11 0;
#X connect 8 0 15 0;
#X connect 8 1 17 0;
#X connect 8 2 12 0;
#X connect 9 0 18 0;
#X connect 9 1 8 0;
#X connect 9 1 20 0;
#X connect 10 0 9 0;
#X connect 12 0 6 0;
#X connect 13 0 6 0;
#X connect 14 0 4 0;
#X connect 15 0 4 0;
#X connect 16 0 5 0;
#X connect 17 0 5 0;
#X connect 18 0 14 0;
#X connect 18 0 16 0;
#X connect 18 0 13 0;
#X connect 20 0 19 0;
#X restore 177 143 pd yellowHilight;
#X restore 329 71 pd buttonClicked;
#N canvas 97 399 458 492 sound 0;
#X obj 199 116 sel 0 1 2 3 4;
#X obj 199 79 r soundNumber;
#X obj 237 276 phasor~;
#X obj 198 295 line~;
#X obj 237 295 *~ 0.3;
#X obj 225 335 *~;
#X obj 226 366 dac~;
#X obj 144 191 t b b b;
#X msg 198 230 0 2;
#X msg 162 257 1 1;
#X obj 162 231 del 2;
#X msg 269 230 300;
#X msg 296 230 360;
#X msg 324 230 410;
#X msg 351 230 440;
#X floatatom 303 121 5 0 0 0 - - -;
#X obj 112 231 del 150;
#X obj 342 351 dac~;
#X msg 112 257 0 2;
#X obj 49 140 t b b b;
#X msg 103 179 0 2;
#X msg 67 206 1 1;
#X obj 67 180 del 2;
#X msg 17 206 0 2;
#X msg 237 230 50;
#X obj 14 180 del 500;
#X connect 0 0 24 0;
#X connect 0 0 19 0;
#X connect 0 1 11 0;
#X connect 0 1 7 0;
#X connect 0 2 12 0;
#X connect 0 2 7 0;
#X connect 0 3 13 0;
#X connect 0 3 7 0;
#X connect 0 4 14 0;
#X connect 0 4 7 0;
#X connect 0 5 7 0;
#X connect 1 0 0 0;
#X connect 1 0 15 0;
#X connect 2 0 4 0;
#X connect 3 0 5 0;
#X connect 4 0 5 1;
#X connect 5 0 6 0;
#X connect 5 0 6 1;
#X connect 7 0 16 0;
#X connect 7 1 10 0;
#X connect 7 2 8 0;
#X connect 8 0 3 0;
#X connect 9 0 3 0;
#X connect 10 0 9 0;
#X connect 11 0 2 0;
#X connect 12 0 2 0;
#X connect 13 0 2 0;
#X connect 14 0 2 0;
#X connect 16 0 18 0;
#X connect 18 0 3 0;
#X connect 19 0 25 0;
#X connect 19 1 22 0;
#X connect 19 2 20 0;
#X connect 20 0 3 0;
#X connect 21 0 3 0;
#X connect 22 0 21 0;
#X connect 23 0 3 0;
#X connect 24 0 2 0;
#X connect 25 0 23 0;
#X restore 329 94 pd sound;
#N canvas 0 0 458 308 init 0;
#X obj 81 62 loadbang;
#X msg 81 94 1;
#X msg 81 122 \; pd dsp \$1;
#N canvas 0 0 458 308 disableUserMove 0;
#X obj 90 77 inlet;
#X obj 90 175 s userCanMove;
#X msg 90 145 0;
#X connect 0 0 2 0;
#X connect 2 0 1 0;
#X restore 267 139 pd disableUserMove;
#X connect 0 0 1 0;
#X connect 0 0 3 0;
#X connect 1 0 2 0;
#X restore 328 48 pd init;
#N canvas 0 0 462 312 startGame 0;
#X obj 88 24 inlet;
#X msg 106 130 0;
#X obj 106 156 v gamePosition;
#X obj 217 157 v time;
#X obj 88 96 t b b b;
#X obj 88 240 outlet;
#X msg 217 130 500;
#X connect 0 0 4 0;
#X connect 1 0 2 0;
#X connect 4 0 5 0;
#X connect 4 1 1 0;
#X connect 4 2 6 0;
#X connect 6 0 3 0;
#X restore 96 133 pd startGame;
#X connect 0 0 12 0;
#X connect 1 0 2 0;
#X connect 2 0 3 0;
#X connect 3 0 4 0;
#X connect 4 0 7 0;
#X connect 4 1 5 0;
#X connect 5 0 6 0;
#X connect 6 0 1 0;
#X connect 12 0 1 0;
#X restore 242 78 pd game;
#X obj 239 73 nbx 3 26 -1e+037 1e+037 0 0 \$0-moveDisplay \$0-moveDisplayr
move# 0 -10 1 16 -79060 -262144 -262144 4 256;
