#N canvas 236 111 554 588 10;
#X obj 16 151 throw~ \$0-fx1;
#X obj -72 200 catch~ \$0-fx1;
#X obj 62 202 catch~ \$0-fx2;
#X obj -62 431 pack s \$0;
#X msg -62 455 set \$2-\$1;
#X msg -34 404 out;
#X obj -76 502 throw~ \$0-fx2;
#X msg -62 404 fx2;
#X obj -60 352 r \$0-order;
#X obj -60 376 sel 0 1;
#X obj 94 442 pack s \$0;
#X msg 94 466 set \$2-\$1;
#X obj 96 363 r \$0-order;
#X obj 96 387 sel 0 1;
#X obj 62 509 throw~ \$0-out;
#X msg 94 415 out;
#X msg 122 415 fx1;
#X obj 279 432 dac~;
#X obj 263 144 s \$0-order;
#X obj 261 107 vradio 15 1 1 2 empty empty empty 0 -8 0 10 -262144
-1 -1 1;
#X text 278 107 fx1->fx2;
#X text 279 123 fx2->fx1;
#X obj 91 89 pack s \$0;
#X msg 91 113 set \$2-\$1;
#X obj 93 10 r \$0-order;
#X obj 93 34 sel 0 1;
#X msg 91 62 fx1;
#X msg 119 62 fx2;
#X obj 62 287 *~ 5;
#X obj -74 286 +~ 2;
#X obj 287 372 phasor~;
#X obj 287 397 *~ 0.2;
#X obj 287 347 mtof~;
#X obj 288 304 catch~ \$0-out;
#X obj -42 61 sig~ 10;
#X connect 1 0 29 0;
#X connect 2 0 28 0;
#X connect 3 0 4 0;
#X connect 4 0 6 0;
#X connect 5 0 3 0;
#X connect 7 0 3 0;
#X connect 8 0 9 0;
#X connect 9 0 7 0;
#X connect 9 1 5 0;
#X connect 10 0 11 0;
#X connect 11 0 14 0;
#X connect 12 0 13 0;
#X connect 13 0 15 0;
#X connect 13 1 16 0;
#X connect 15 0 10 0;
#X connect 16 0 10 0;
#X connect 19 0 18 0;
#X connect 22 0 23 0;
#X connect 23 0 0 0;
#X connect 24 0 25 0;
#X connect 25 0 26 0;
#X connect 25 1 27 0;
#X connect 26 0 22 0;
#X connect 27 0 22 0;
#X connect 28 0 14 0;
#X connect 29 0 6 0;
#X connect 30 0 31 0;
#X connect 31 0 17 0;
#X connect 31 0 17 1;
#X connect 32 0 30 0;
#X connect 33 0 32 0;
#X connect 34 0 0 0;
