#N canvas 511 218 424 347 10;
#X obj 88 206 *~;
#X obj 62 70 legato;
#X obj 30 111 mtof;
#X obj 48 32 inlet;
#X obj 125 31 inlet;
#X text 48 13 note;
#X text 121 13 velocity;
#X obj 42 253 outlet~;
#X obj 135 252 outlet~;
#X text 48 276 left;
#X text 136 274 right;
#X obj 122 128 adsr 0.1 5 500 50 50;
#X obj 29 177 osc~;
#X obj 30 132 pack 0 \$1;
#X obj 30 154 line~;
#X text 240 11 creation argument:;
#X text 256 25 portamento time (ms);
#X connect 0 0 7 0;
#X connect 0 0 8 0;
#X connect 1 0 2 0;
#X connect 1 1 11 0;
#X connect 2 0 13 0;
#X connect 3 0 1 0;
#X connect 4 0 1 1;
#X connect 11 0 0 1;
#X connect 12 0 0 0;
#X connect 13 0 14 0;
#X connect 14 0 12 0;
