#N canvas 101 77 614 521 10;
#N canvas 657 27 492 688 bouncer 0;
#X obj -171 541 f;
#X obj 134 180 hsl 128 15 0 1 0 1 empty empty gravity 40 7 1 8 -262144
-1 -1 9600 1;
#X obj -135 540 /;
#X obj -142 425 del 10;
#X obj -82 537 spigot;
#X obj -71 427 f 400;
#X obj -101 303 inlet;
#X obj 85 448 * 0.5;
#X obj 86 468 + 0.75;
#X obj 135 164 hsl 128 15 0 1 0 1 empty empty init-height 40 7 1 8
-262144 -1 -1 1800 1;
#X obj 92 367 * 400;
#X obj 134 145 hsl 128 15 0.01 1 1 1 empty empty irregularity 40 7
1 8 -262144 -1 -1 6500 1;
#X obj -142 394 t f b;
#X msg -57 397 0;
#X obj -64 454 random 1000;
#X obj -65 479 /;
#X obj 97 312 + 1000;
#X obj 97 292 * 50000;
#X obj -66 501 / 1;
#X obj -135 503 *;
#X obj -119 479 + 1;
#X obj 93 387 + 20;
#X obj -114 591 > 30;
#X obj 133 126 hsl 128 15 0.01 1 1 1 empty empty rollspeed 40 7 1 8
-262144 -1 -1 4100 1;
#X obj 98 229 * 100;
#X obj 98 249 + 10;
#X obj -169 660 outlet bounces;
#X obj -172 564 t f f f f f;
#X obj -101 374 t b b b b;
#X obj -151 593 t b;
#X msg -76 591 0;
#X obj -169 636 f 0;
#X obj -132 636 + 1;
#X connect 0 0 27 0;
#X connect 1 0 7 0;
#X connect 2 0 0 1;
#X connect 3 0 0 0;
#X connect 4 0 12 0;
#X connect 5 0 0 1;
#X connect 6 0 28 0;
#X connect 7 0 8 0;
#X connect 8 0 2 1;
#X connect 9 0 10 0;
#X connect 10 0 21 0;
#X connect 11 0 17 0;
#X connect 12 0 3 0;
#X connect 12 1 14 0;
#X connect 13 0 3 1;
#X connect 14 0 15 0;
#X connect 15 0 18 0;
#X connect 16 0 15 1;
#X connect 17 0 16 0;
#X connect 18 0 20 0;
#X connect 19 0 2 0;
#X connect 20 0 19 1;
#X connect 21 0 5 1;
#X connect 22 0 4 1;
#X connect 23 0 24 0;
#X connect 24 0 25 0;
#X connect 25 0 22 1;
#X connect 27 0 19 0;
#X connect 27 1 29 0;
#X connect 27 2 4 0;
#X connect 27 3 22 0;
#X connect 28 0 3 0;
#X connect 28 1 5 0;
#X connect 28 2 13 0;
#X connect 28 3 30 0;
#X connect 29 0 31 0;
#X connect 30 0 31 1;
#X connect 31 0 26 0;
#X connect 31 0 32 0;
#X connect 32 0 31 1;
#X coords 0 -1 1 1 200 100 1 100 100;
#X restore 50 -113 pd bouncer;
#X obj 50 -137 bng 15 250 50 0 empty empty empty 0 -6 0 8 -262144 -1
-1;
#X obj 50 -183 tgl 15 0 empty empty empty 0 -6 0 8 -262144 -1 -1 0
1;
#N canvas 593 225 602 572 mapping 0;
#X obj 117 179 hsl 128 15 0 1 0 1 empty empty f1 40 7 1 8 -262144 -1
-1 10300 1;
#X obj -103 352 t f f f f f b b b;
#X obj -103 327 f;
#X obj -144 423 * 1;
#X obj -87 259 * 2000;
#X obj -87 287 + 20;
#X obj -140 504 pack f f 1 f f 1 f f 1 f f 1 f f;
#X obj 117 195 hsl 128 15 0 1 0 1 empty empty f2 40 7 1 8 -262144 -1
-1 10800 1;
#X obj 117 211 hsl 128 15 0 1 0 1 empty empty f3 40 7 1 8 -262144 -1
-1 11300 1;
#X obj 117 227 hsl 128 15 0 1 0 1 empty empty d1 40 7 1 8 -262144 -1
-1 800 1;
#X obj 117 243 hsl 128 15 0 1 0 1 empty empty d2 40 7 1 8 -262144 -1
-1 1900 1;
#X obj 117 259 hsl 128 15 0 1 0 1 empty empty d3 40 7 1 8 -262144 -1
-1 1525 1;
#X obj 117 131 hsl 128 15 0 1 0 1 empty empty deform 40 7 1 8 -262144
-1 -1 800 1;
#X obj 117 147 hsl 128 15 0 1 0 1 empty empty noisy 40 7 1 8 -262144
-1 -1 500 1;
#X obj 28 323 * 1000;
#X obj 27 349 t f f f f;
#X obj 117 163 hsl 128 15 0 1 0 1 empty empty size 40 7 1 8 -262144
-1 -1 2400 1;
#X obj 117 115 hsl 128 15 0 1 0 1 empty empty freq 40 7 1 8 -262144
-1 -1 1300 1;
#X obj -103 135 inlet bang;
#X obj -140 536 outlet hits;
#X obj -110 423 *;
#X obj -79 421 *;
#X obj -49 422 *;
#X obj -18 422 *;
#X obj 13 422 *;
#X obj 45 423 *;
#X obj -103 161 t b f;
#X obj -75 183 swap 1;
#X obj -75 204 /;
#X obj 302 487 hsl 128 15 0 1 0 1 empty empty f1 40 7 1 8 -262144 -1
-1 7100 1;
#X obj 302 503 hsl 128 15 0 1 0 1 empty empty f2 40 7 1 8 -262144 -1
-1 4768 1;
#X obj 302 519 hsl 128 15 0 1 0 1 empty empty f3 40 7 1 8 -262144 -1
-1 6600 1;
#X obj 254 227 hsl 128 15 0 1 0 1 empty empty d1 40 7 1 8 -262144 -1
-1 600 1;
#X obj 254 243 hsl 128 15 0 1 0 1 empty empty d2 40 7 1 8 -262144 -1
-1 400 1;
#X obj 254 259 hsl 128 15 0 1 0 1 empty empty d3 40 7 1 8 -262144 -1
-1 900 1;
#X obj 302 439 hsl 128 15 0 1 0 1 empty empty deform 40 7 1 8 -262144
-1 -1 3000 1;
#X obj 302 455 hsl 128 15 0 1 0 1 empty empty noisy 40 7 1 8 -262144
-1 -1 4800 1;
#X obj 302 471 hsl 128 15 0 1 0 1 empty empty size 40 7 1 8 -262144
-1 -1 5500 1;
#X obj 302 423 hsl 128 15 0 1 0 1 empty empty freq 40 7 1 8 -262144
-1 -1 9000 1;
#X obj 183 369 *;
#X obj 214 367 *;
#X obj 244 368 *;
#X obj 275 368 *;
#X obj 306 368 *;
#X obj 338 369 *;
#X obj 117 368 *;
#X obj 150 369 *;
#X obj 173 326 t f f f f f f f f;
#X obj 39 469 *;
#X obj 60 447 + 1;
#X obj -7 475 *;
#X obj 14 453 + 1;
#X obj -60 480 *;
#X obj -39 458 + 1;
#X text 274 204 mods;
#X text -89 228 energy expended per collision;
#X connect 0 0 20 1;
#X connect 1 0 3 0;
#X connect 1 1 20 0;
#X connect 1 2 21 0;
#X connect 1 3 22 0;
#X connect 1 5 23 0;
#X connect 1 6 24 0;
#X connect 1 7 25 0;
#X connect 2 0 1 0;
#X connect 3 0 6 0;
#X connect 4 0 5 0;
#X connect 5 0 2 1;
#X connect 6 0 19 0;
#X connect 7 0 21 1;
#X connect 8 0 22 1;
#X connect 9 0 23 1;
#X connect 10 0 24 1;
#X connect 11 0 25 1;
#X connect 12 0 6 13;
#X connect 13 0 6 12;
#X connect 14 0 15 0;
#X connect 15 0 23 0;
#X connect 15 1 24 0;
#X connect 15 2 25 0;
#X connect 15 3 6 1;
#X connect 16 0 14 0;
#X connect 17 0 4 0;
#X connect 18 0 26 0;
#X connect 20 0 6 3;
#X connect 21 0 6 6;
#X connect 22 0 6 9;
#X connect 23 0 52 0;
#X connect 24 0 50 0;
#X connect 25 0 48 0;
#X connect 26 0 2 0;
#X connect 26 1 27 0;
#X connect 27 0 28 0;
#X connect 27 1 28 1;
#X connect 28 0 47 0;
#X connect 29 0 39 1;
#X connect 30 0 40 1;
#X connect 31 0 41 1;
#X connect 32 0 42 1;
#X connect 33 0 43 1;
#X connect 34 0 44 1;
#X connect 35 0 45 1;
#X connect 36 0 46 1;
#X connect 42 0 53 1;
#X connect 43 0 51 0;
#X connect 44 0 49 0;
#X connect 47 0 45 0;
#X connect 47 1 46 0;
#X connect 47 2 39 0;
#X connect 47 3 40 0;
#X connect 47 4 41 0;
#X connect 47 5 42 0;
#X connect 47 6 43 0;
#X connect 47 7 44 0;
#X connect 48 0 6 10;
#X connect 49 0 48 1;
#X connect 50 0 6 7;
#X connect 51 0 50 1;
#X connect 52 0 6 4;
#X connect 53 0 52 1;
#X coords 0 -1 1 1 320 180 1 100 100;
#X restore 50 -7 pd mapping;
#N canvas 0 0 573 448 synthesiser 0;
#X obj 39 214 dac~;
#N canvas 211 160 465 639 partial 0;
#X obj 67 92 vline~;
#X obj 29 419 *~;
#X obj 29 445 *~;
#X obj 30 466 outlet~;
#X obj 66 124 *~;
#N canvas 587 171 450 300 sincx 0;
#X obj 172 70 *~ 3.14159;
#X obj 214 223 /~;
#X obj 246 104 *~ 3.14159;
#X obj 229 197 *~;
#X obj 247 79 /~;
#X obj 172 42 inlet~ x;
#X obj 267 38 inlet~ m;
#X obj 214 248 outlet~;
#X obj 156 116 -~;
#X obj 156 142 cos~;
#X obj 155 92 sig~ 0.25;
#X obj 229 151 -~;
#X obj 229 173 cos~;
#X obj 216 127 sig~ 0.25;
#X connect 0 0 8 1;
#X connect 1 0 7 0;
#X connect 2 0 11 1;
#X connect 3 0 1 1;
#X connect 4 0 2 0;
#X connect 5 0 0 0;
#X connect 5 0 4 0;
#X connect 6 0 3 1;
#X connect 6 0 4 1;
#X connect 8 0 9 0;
#X connect 9 0 1 0;
#X connect 10 0 8 0;
#X connect 11 0 12 0;
#X connect 12 0 3 0;
#X connect 13 0 11 0;
#X restore 118 167 pd sincx;
#X obj 119 121 sig~ 1;
#X obj 119 144 -~;
#X obj 29 124 *~;
#X obj 28 52 sig~;
#X obj 29 281 wrap~;
#X obj 29 357 cos~;
#X msg 169 145 6;
#X obj 169 122 loadbang;
#X obj 30 251 +~;
#X msg 67 54 1 0 0 \, 0 \$1 0;
#X obj 29 383 hip~ 0;
#X obj 117 189 *~ 0;
#X obj 28 -21 inlet paramlist freq decay amp mod;
#X obj 28 7 unpack f f f;
#X obj 244 16 inlet mod;
#X connect 0 0 4 0;
#X connect 0 0 4 1;
#X connect 0 0 7 1;
#X connect 0 0 8 1;
#X connect 1 0 2 0;
#X connect 2 0 3 0;
#X connect 4 0 1 1;
#X connect 5 0 17 0;
#X connect 6 0 7 0;
#X connect 7 0 5 0;
#X connect 8 0 14 0;
#X connect 9 0 8 0;
#X connect 10 0 11 0;
#X connect 11 0 16 0;
#X connect 12 0 5 1;
#X connect 13 0 12 0;
#X connect 14 0 10 0;
#X connect 15 0 0 0;
#X connect 16 0 1 0;
#X connect 17 0 14 1;
#X connect 18 0 19 0;
#X connect 19 0 9 0;
#X connect 19 1 15 0;
#X connect 19 2 2 1;
#X connect 20 0 17 1;
#X restore -50 63 pd partial;
#X obj 3 90 *~;
#X obj 114 88 *~;
#N canvas 0 0 454 462 noisypart 0;
#X obj 119 204 noise~;
#X obj 119 272 bp~ 100 1;
#X obj 137 300 bp~ 100 1;
#X obj 162 330 bp~ 100 1;
#X obj 118 363 *~;
#X obj 228 157 f;
#X obj 228 204 vline~;
#X obj 228 225 *~;
#X obj 123 -26 inlet params cf cf cf q decay amp;
#X obj 153 30 unpack f f f f f f;
#X obj 118 385 *~;
#X obj 118 414 outlet~;
#X obj 123 3 t b l;
#X obj 119 242 *~ 1;
#X obj 154 237 *;
#X obj 175 203 *;
#X obj 191 174 *;
#X obj 352 96 swap 1;
#X obj 352 120 -;
#X obj 349 72 / 1000;
#X obj 288 134 * 8;
#X msg 228 180 1 5 0 \, 0 \$1 5;
#X connect 0 0 13 0;
#X connect 1 0 4 0;
#X connect 2 0 4 0;
#X connect 3 0 4 0;
#X connect 4 0 10 0;
#X connect 5 0 21 0;
#X connect 6 0 7 0;
#X connect 6 0 7 1;
#X connect 7 0 4 1;
#X connect 8 0 12 0;
#X connect 9 0 14 0;
#X connect 9 1 15 0;
#X connect 9 2 16 0;
#X connect 9 3 1 2;
#X connect 9 3 2 2;
#X connect 9 3 3 2;
#X connect 9 4 5 1;
#X connect 9 4 19 0;
#X connect 9 5 10 1;
#X connect 10 0 11 0;
#X connect 12 0 5 0;
#X connect 12 1 9 0;
#X connect 13 0 1 0;
#X connect 13 0 2 0;
#X connect 13 0 3 0;
#X connect 14 0 1 1;
#X connect 15 0 2 1;
#X connect 16 0 3 1;
#X connect 17 0 18 0;
#X connect 17 1 18 1;
#X connect 18 0 20 0;
#X connect 19 0 17 0;
#X connect 20 0 16 1;
#X connect 20 0 15 1;
#X connect 20 0 14 1;
#X connect 21 0 6 0;
#X restore 277 59 pd noisypart;
#X obj 58 -116 t l l;
#X obj 243 -53 unpack f f 1 f f 1 f f 1 f f 1 f;
#X obj 51 147 *~ 0.25;
#X obj 53 176 *~;
#X obj 120 134 hsl 128 15 0 1 0 1 empty empty volume 40 7 1 8 -262144
-1 -1 1700 1;
#X obj 276 103 clip~ -1 1;
#X obj 277 81 *~ 6;
#X obj 277 18 pack f f f 44 f 1;
#X obj 12 -89 list split 3;
#X obj 51 -64 list split 3;
#X obj 90 -40 list split 3;
#N canvas 211 160 465 639 partial 0;
#X obj 67 92 vline~;
#X obj 29 419 *~;
#X obj 29 445 *~;
#X obj 30 466 outlet~;
#X obj 66 124 *~;
#N canvas 587 171 450 300 sincx 0;
#X obj 172 70 *~ 3.14159;
#X obj 214 223 /~;
#X obj 246 104 *~ 3.14159;
#X obj 229 197 *~;
#X obj 247 79 /~;
#X obj 172 42 inlet~ x;
#X obj 267 38 inlet~ m;
#X obj 214 248 outlet~;
#X obj 156 116 -~;
#X obj 156 142 cos~;
#X obj 155 92 sig~ 0.25;
#X obj 229 151 -~;
#X obj 229 173 cos~;
#X obj 216 127 sig~ 0.25;
#X connect 0 0 8 1;
#X connect 1 0 7 0;
#X connect 2 0 11 1;
#X connect 3 0 1 1;
#X connect 4 0 2 0;
#X connect 5 0 0 0;
#X connect 5 0 4 0;
#X connect 6 0 3 1;
#X connect 6 0 4 1;
#X connect 8 0 9 0;
#X connect 9 0 1 0;
#X connect 10 0 8 0;
#X connect 11 0 12 0;
#X connect 12 0 3 0;
#X connect 13 0 11 0;
#X restore 118 167 pd sincx;
#X obj 119 121 sig~ 1;
#X obj 119 144 -~;
#X obj 29 124 *~;
#X obj 28 52 sig~;
#X obj 29 281 wrap~;
#X obj 29 357 cos~;
#X msg 169 145 6;
#X obj 169 122 loadbang;
#X obj 30 251 +~;
#X msg 67 54 1 0 0 \, 0 \$1 0;
#X obj 29 383 hip~ 0;
#X obj 117 189 *~ 0;
#X obj 28 -21 inlet paramlist freq decay amp mod;
#X obj 28 7 unpack f f f;
#X obj 244 16 inlet mod;
#X connect 0 0 4 0;
#X connect 0 0 4 1;
#X connect 0 0 7 1;
#X connect 0 0 8 1;
#X connect 1 0 2 0;
#X connect 2 0 3 0;
#X connect 4 0 1 1;
#X connect 5 0 17 0;
#X connect 6 0 7 0;
#X connect 7 0 5 0;
#X connect 8 0 14 0;
#X connect 9 0 8 0;
#X connect 10 0 11 0;
#X connect 11 0 16 0;
#X connect 12 0 5 1;
#X connect 13 0 12 0;
#X connect 14 0 10 0;
#X connect 15 0 0 0;
#X connect 16 0 1 0;
#X connect 17 0 14 1;
#X connect 18 0 19 0;
#X connect 19 0 9 0;
#X connect 19 1 15 0;
#X connect 19 2 2 1;
#X connect 20 0 17 1;
#X restore 29 62 pd partial;
#N canvas 211 160 465 639 partial 0;
#X obj 67 92 vline~;
#X obj 29 419 *~;
#X obj 29 445 *~;
#X obj 30 466 outlet~;
#X obj 66 124 *~;
#N canvas 587 171 450 300 sincx 0;
#X obj 172 70 *~ 3.14159;
#X obj 214 223 /~;
#X obj 246 104 *~ 3.14159;
#X obj 229 197 *~;
#X obj 247 79 /~;
#X obj 172 42 inlet~ x;
#X obj 267 38 inlet~ m;
#X obj 214 248 outlet~;
#X obj 156 116 -~;
#X obj 156 142 cos~;
#X obj 155 92 sig~ 0.25;
#X obj 229 151 -~;
#X obj 229 173 cos~;
#X obj 216 127 sig~ 0.25;
#X connect 0 0 8 1;
#X connect 1 0 7 0;
#X connect 2 0 11 1;
#X connect 3 0 1 1;
#X connect 4 0 2 0;
#X connect 5 0 0 0;
#X connect 5 0 4 0;
#X connect 6 0 3 1;
#X connect 6 0 4 1;
#X connect 8 0 9 0;
#X connect 9 0 1 0;
#X connect 10 0 8 0;
#X connect 11 0 12 0;
#X connect 12 0 3 0;
#X connect 13 0 11 0;
#X restore 118 167 pd sincx;
#X obj 119 121 sig~ 1;
#X obj 119 144 -~;
#X obj 29 124 *~;
#X obj 28 52 sig~;
#X obj 29 281 wrap~;
#X obj 29 357 cos~;
#X msg 169 145 6;
#X obj 169 122 loadbang;
#X obj 30 251 +~;
#X msg 67 54 1 0 0 \, 0 \$1 0;
#X obj 29 383 hip~ 0;
#X obj 117 189 *~ 0;
#X obj 28 -21 inlet paramlist freq decay amp mod;
#X obj 28 7 unpack f f f;
#X obj 244 16 inlet mod;
#X connect 0 0 4 0;
#X connect 0 0 4 1;
#X connect 0 0 7 1;
#X connect 0 0 8 1;
#X connect 1 0 2 0;
#X connect 2 0 3 0;
#X connect 4 0 1 1;
#X connect 5 0 17 0;
#X connect 6 0 7 0;
#X connect 7 0 5 0;
#X connect 8 0 14 0;
#X connect 9 0 8 0;
#X connect 10 0 11 0;
#X connect 11 0 16 0;
#X connect 12 0 5 1;
#X connect 13 0 12 0;
#X connect 14 0 10 0;
#X connect 15 0 0 0;
#X connect 16 0 1 0;
#X connect 17 0 14 1;
#X connect 18 0 19 0;
#X connect 19 0 9 0;
#X connect 19 1 15 0;
#X connect 19 2 2 1;
#X connect 20 0 17 1;
#X restore 110 62 pd partial;
#N canvas 211 160 465 639 partial 0;
#X obj 67 92 vline~;
#X obj 29 419 *~;
#X obj 29 445 *~;
#X obj 30 466 outlet~;
#X obj 66 124 *~;
#N canvas 587 171 450 300 sincx 0;
#X obj 172 70 *~ 3.14159;
#X obj 214 223 /~;
#X obj 246 104 *~ 3.14159;
#X obj 229 197 *~;
#X obj 247 79 /~;
#X obj 172 42 inlet~ x;
#X obj 267 38 inlet~ m;
#X obj 214 248 outlet~;
#X obj 156 116 -~;
#X obj 156 142 cos~;
#X obj 155 92 sig~ 0.25;
#X obj 229 151 -~;
#X obj 229 173 cos~;
#X obj 216 127 sig~ 0.25;
#X connect 0 0 8 1;
#X connect 1 0 7 0;
#X connect 2 0 11 1;
#X connect 3 0 1 1;
#X connect 4 0 2 0;
#X connect 5 0 0 0;
#X connect 5 0 4 0;
#X connect 6 0 3 1;
#X connect 6 0 4 1;
#X connect 8 0 9 0;
#X connect 9 0 1 0;
#X connect 10 0 8 0;
#X connect 11 0 12 0;
#X connect 12 0 3 0;
#X connect 13 0 11 0;
#X restore 118 167 pd sincx;
#X obj 119 121 sig~ 1;
#X obj 119 144 -~;
#X obj 29 124 *~;
#X obj 28 52 sig~;
#X obj 29 281 wrap~;
#X obj 29 357 cos~;
#X msg 169 145 6;
#X obj 169 122 loadbang;
#X obj 30 251 +~;
#X msg 67 54 1 0 0 \, 0 \$1 0;
#X obj 29 383 hip~ 0;
#X obj 117 189 *~ 0;
#X obj 28 -21 inlet paramlist freq decay amp mod;
#X obj 28 7 unpack f f f;
#X obj 244 16 inlet mod;
#X connect 0 0 4 0;
#X connect 0 0 4 1;
#X connect 0 0 7 1;
#X connect 0 0 8 1;
#X connect 1 0 2 0;
#X connect 2 0 3 0;
#X connect 4 0 1 1;
#X connect 5 0 17 0;
#X connect 6 0 7 0;
#X connect 7 0 5 0;
#X connect 8 0 14 0;
#X connect 9 0 8 0;
#X connect 10 0 11 0;
#X connect 11 0 16 0;
#X connect 12 0 5 1;
#X connect 13 0 12 0;
#X connect 14 0 10 0;
#X connect 15 0 0 0;
#X connect 16 0 1 0;
#X connect 17 0 14 1;
#X connect 18 0 19 0;
#X connect 19 0 9 0;
#X connect 19 1 15 0;
#X connect 19 2 2 1;
#X connect 20 0 17 1;
#X restore 189 61 pd partial;
#X obj 129 -15 list split 3;
#X obj 168 6 list split 1;
#X obj 58 -148 inlet events;
#X text 15 30 sinc curve fm;
#X connect 1 0 7 0;
#X connect 1 0 2 0;
#X connect 2 0 7 0;
#X connect 3 0 7 0;
#X connect 4 0 11 0;
#X connect 5 0 13 0;
#X connect 5 1 6 0;
#X connect 6 0 12 0;
#X connect 6 1 12 4;
#X connect 6 3 12 1;
#X connect 6 6 12 2;
#X connect 6 12 12 5;
#X connect 7 0 8 0;
#X connect 8 0 0 0;
#X connect 8 0 0 1;
#X connect 9 0 8 1;
#X connect 10 0 8 0;
#X connect 11 0 10 0;
#X connect 12 0 4 0;
#X connect 13 0 1 0;
#X connect 13 1 14 0;
#X connect 14 0 16 0;
#X connect 14 1 15 0;
#X connect 15 0 17 0;
#X connect 15 1 19 0;
#X connect 16 0 2 1;
#X connect 16 0 7 0;
#X connect 17 0 3 0;
#X connect 17 0 7 0;
#X connect 18 0 3 1;
#X connect 18 0 7 0;
#X connect 19 0 18 0;
#X connect 19 1 20 0;
#X connect 20 1 18 1;
#X connect 20 1 17 1;
#X connect 20 1 16 1;
#X connect 20 1 1 1;
#X connect 21 0 5 0;
#X coords 0 -1 1 1 160 60 1 100 100;
#X restore 50 185 pd synthesiser;
#X obj 50 -161 metro 100;
#X obj 111 -183 hsl 128 15 10 5000 1 1 empty empty period 40 7 1 8
-262144 -1 -1 9300 1;
#X text 152 -157 elastic object model driven by converging or diverging
events;
#X connect 0 0 3 0;
#X connect 1 0 0 0;
#X connect 2 0 5 0;
#X connect 3 0 4 0;
#X connect 5 0 1 0;
#X connect 6 0 5 1;
