#N canvas 440 52 371 426 10;
#X obj 47 98 f 0;
#X obj 136 195 f 1;
#X obj 47 58 s \$1.st.req;
#X obj 47 78 r \$1.st.req;
#N canvas 0 22 236 173 1042-container 0;
#X restore 227 18 pd \$0-container;
#X obj 17 268 f \$0;
#X obj 68 328 symbol \$1;
#X obj 17 288 makefilename pd-%d-container;
#X obj 17 18 loadbang;
#X obj 17 208 f 0;
#X obj 47 178 f 1;
#X obj 47 158 sel 1;
#X obj 17 228 sel 0;
#X obj 17 38 t b b;
#X obj 17 248 t b b;
#X obj 259 278 outlet;
#X obj 17 348 pack s s;
#X obj 17 308 t s b;
#X msg 17 368 \; \$1 obj 10 10 table \$2;
#X obj 47 118 s \$1.st.res;
#X obj 47 138 r \$1.st.res;
#X connect 0 0 19 0;
#X connect 1 0 0 1;
#X connect 1 0 15 0;
#X connect 3 0 0 0;
#X connect 5 0 7 0;
#X connect 6 0 16 1;
#X connect 7 0 17 0;
#X connect 8 0 13 0;
#X connect 9 0 12 0;
#X connect 10 0 9 1;
#X connect 11 0 10 0;
#X connect 12 0 14 0;
#X connect 13 0 9 0;
#X connect 13 1 2 0;
#X connect 14 0 5 0;
#X connect 14 1 1 0;
#X connect 16 0 18 0;
#X connect 17 0 16 0;
#X connect 17 1 6 0;
#X connect 20 0 11 0;
