#N struct slider float y0 symbol event;
#N canvas 129 166 483 447 12;
#N canvas 392 32 541 411 slider 0;
#X msg 45 77 1;
#X obj 8 15 struct slider float y0 symbol event;
#X obj 151 47 unpack s p;
#X obj 151 137 set -symbol slider event;
#X obj 8 47 t b b;
#X obj 151 77 makefilename %s);
#X msg 8 77 0;
#X msg 45 148 clear;
#X obj 153 175 r info-vis;
#X obj 55 106 s info-vis;
#X obj 153 204 drawnumber y0 20 y0(127:0)(-2:125) 0 y=;
#X obj 153 240 drawsymbol event -70 y0(127:0)(-2:125) 0 (;
#X obj 153 274 filledpolygon 900 0 1 1 y0(127:0)(1:128) 11 y0(127:0)(1:128)
11 y0(127:0)(11:138) 1 y0(127:0)(11:138);
#X obj 8 220 pipe 600;
#X obj 8 184 pipe 4000;
#X connect 0 0 7 0;
#X connect 0 0 9 0;
#X connect 1 0 2 0;
#X connect 1 0 4 0;
#X connect 2 0 5 0;
#X connect 2 1 3 1;
#X connect 4 0 6 0;
#X connect 4 1 0 0;
#X connect 5 0 3 0;
#X connect 6 0 13 0;
#X connect 6 0 14 0;
#X connect 7 0 13 0;
#X connect 7 0 14 0;
#X connect 8 0 10 0;
#X connect 8 0 11 0;
#X connect 13 0 11 0;
#X connect 14 0 10 0;
#X restore 6 7 pd slider;
#N canvas 0 0 450 300 gop 0;
#X scalar slider 0 symbol \;;
#X coords 0 0 12 139 12 139 1;
#X restore 98 108 pd gop;
#X msg 349 129 traverse pd-gop \, bang;
#X obj 349 159 pointer;
#X obj 224 189 append slider y0;
#X msg 224 159 0;
#X obj 182 7 loadbang;
#X msg 182 293 \; pd-gop donecanvasdialog 0 -1 2 0 0 12 139 12 139
0 0;
#X msg 350 73 \; pd-gop clear;
#N canvas 0 0 450 300 motion 0;
#X obj 159 159 sin;
#X obj 159 130 * 6.28319;
#X obj 160 48 f;
#X obj 198 49 + 1;
#X obj 160 20 bng 15 250 50 0 empty empty empty 17 7 0 10 -262144 -1
-1;
#X text 284 316 linear;
#X obj 159 251 int;
#X obj 280 240 +;
#X obj 280 130 t a a;
#X obj 317 154 sel 0;
#X obj 317 180 tgl 15 0 empty empty empty 17 7 0 10 -262144 -1 -1 0
1;
#X obj 317 200 sel 0 1;
#X floatatom 280 344 5 0 0 0 - - -;
#X msg 316 237 0;
#X msg 317 274 1;
#X obj 25 140 metro 100;
#X obj 280 298 *;
#X floatatom 453 90 5 0 0 0 - - -;
#X msg 357 274 -1;
#X floatatom 159 344 5 0 0 0 - - -;
#X text 166 314 sine;
#X obj 500 288 t a b;
#X msg 537 319 traverse pd-gop \, next;
#X obj 536 343 pointer;
#X obj 435 370 set slider y0;
#X obj 164 385 spigot;
#X obj 275 389 spigot;
#X obj 448 148 tgl 25 0 empty empty empty 17 7 0 10 -262144 -1 -1 0
1;
#X text 480 148 sine vs. linear;
#X obj 422 196 == 0;
#X obj 161 93 / 256;
#X obj 281 105 mod 128;
#X msg 352 238 -128;
#X obj 161 194 * 64;
#X obj 161 222 + 64;
#X text 500 93 speed;
#X connect 0 0 33 0;
#X connect 1 0 0 0;
#X connect 2 0 3 0;
#X connect 2 0 30 0;
#X connect 2 0 31 0;
#X connect 3 0 2 1;
#X connect 4 0 2 0;
#X connect 6 0 19 0;
#X connect 7 0 16 0;
#X connect 8 0 7 0;
#X connect 8 1 9 0;
#X connect 9 0 10 0;
#X connect 10 0 11 0;
#X connect 11 0 14 0;
#X connect 11 0 13 0;
#X connect 11 1 32 0;
#X connect 11 1 18 0;
#X connect 12 0 26 0;
#X connect 13 0 7 1;
#X connect 14 0 16 1;
#X connect 15 0 2 0;
#X connect 16 0 12 0;
#X connect 17 0 15 1;
#X connect 18 0 16 1;
#X connect 19 0 25 0;
#X connect 21 0 24 0;
#X connect 21 1 22 0;
#X connect 22 0 23 0;
#X connect 23 0 24 1;
#X connect 25 0 21 0;
#X connect 26 0 21 0;
#X connect 27 0 29 0;
#X connect 27 0 26 1;
#X connect 29 0 25 1;
#X connect 30 0 1 0;
#X connect 31 0 8 0;
#X connect 32 0 7 1;
#X connect 33 0 34 0;
#X connect 34 0 6 0;
#X restore 358 507 pd motion;
#X msg 203 222 0;
#X obj 182 37 t b b b b b;
#X obj 203 262 s info-vis;
#X connect 2 0 3 0;
#X connect 3 0 4 1;
#X connect 5 0 4 0;
#X connect 6 0 11 0;
#X connect 10 0 12 0;
#X connect 11 0 7 0;
#X connect 11 1 10 0;
#X connect 11 2 5 0;
#X connect 11 3 2 0;
#X connect 11 4 8 0;
