#N canvas 425 22 669 313 10;
#X msg 32 44 bang;
#X obj 65 67 tgl 15 0 empty empty empty 17 7 0 10 -262144 -1 -1 0 1
;
#X floatatom 129 92 5 0 0 0 - - -;
#N canvas 238 27 891 622 create-slowly 0;
#X obj 235 31 inlet file;
#X obj 56 33 inlet trigger;
#X msg 522 118 \; pd-c1 clear;
#X msg 506 500 symbol pd-c1;
#X msg 123 313 bang;
#X msg 506 520 set \$1;
#X msg 341 120 clear;
#X obj 56 223 t a b;
#X msg 459 133 1;
#X obj 56 163 route #N #X #A;
#X obj 253 247 list split 1;
#X obj 148 213 s;
#X obj 412 238 outlet done;
#N canvas 828 130 326 332 list-digest 0;
#X obj 39 95 list append;
#X obj 39 145 list split 1;
#X obj 221 139 t a;
#X obj 138 55 route set;
#X obj 138 75 t a b;
#X obj 154 177 list append;
#X obj 39 75 t b;
#X obj 34 204 list split 1;
#X obj 138 35 inlet eat;
#X obj 39 35 inlet digest;
#X obj 34 224 outlet output;
#X connect 0 0 1 0;
#X connect 1 1 5 1;
#X connect 1 1 0 1;
#X connect 1 1 7 0;
#X connect 2 0 5 1;
#X connect 3 0 4 0;
#X connect 3 1 5 0;
#X connect 4 0 5 0;
#X connect 4 1 5 1;
#X connect 5 0 0 1;
#X connect 5 0 2 0;
#X connect 6 0 0 0;
#X connect 7 0 10 0;
#X connect 8 0 3 0;
#X connect 9 0 6 0;
#X restore 413 540 pd list-digest;
#X obj 690 73 list prepend set;
#X obj 690 93 list trim;
#X obj 690 114 cnv 15 100 15 empty empty empty 20 12 0 14 -261249 -66577
0;
#X msg 690 113 #X connect 38 0 36 0;
#X text 558 519 remember subpatch hirarchie;
#X text 159 192 set array data;
#X text 57 51 creates objects (bang);
#N canvas 296 44 842 644 string-replace-dollars 0;
#X obj 27 24 inlet;
#X obj 27 536 outlet;
#X obj 526 337 loadbang;
#X obj 268 241 s2l;
#X msg 526 357 symbol;
#X obj 174 181 drip;
#X obj 235 371 list prepend;
#X obj 175 391 list;
#X obj 327 371 t a;
#X obj 247 431 l2s;
#X obj 268 261 list trim;
#X obj 268 281 route $;
#X obj 268 301 list split 1;
#X obj 268 341 list append;
#X obj 175 461 list prepend;
#X obj 152 481 list;
#X obj 267 461 t a;
#X obj 152 161 t b a b;
#X obj 425 289 b;
#X obj 174 201 t b a b;
#X obj 353 339 b;
#X obj 27 84 route msg;
#X obj 27 513 list trim;
#X obj 126 556 cnv 15 100 15 empty empty empty 20 12 0 14 -261249 -66577
0;
#X obj 126 535 list prepend set;
#X obj 126 555 list trim;
#X msg 126 575 connect 1 0 2 0;
#X obj 186 97 cnv 15 100 15 empty empty empty 20 12 0 14 -261249 -66577
0;
#X obj 186 76 list prepend set;
#X obj 186 96 list trim;
#X msg 186 116 connect 1 0 2 0;
#X obj 175 411 route float;
#X obj 196 221 route float;
#X obj 27 104 list prepend msg;
#X obj 387 24 inlet arguments;
#X text 73 24 find dollar in line and replace it;
#X obj 510 199 list;
#X obj 549 239 list split 1;
#X obj 510 219 list split 1;
#X obj 589 199 - 1;
#X obj 510 179 t b f;
#N canvas 0 22 454 304 list-len 0;
#X obj 75 36 inlet;
#X obj 110 175 + 1;
#X obj 31 138 b;
#X obj 65 215 f;
#X obj 65 242 outlet;
#X obj 97 149 1;
#X obj 81 177 f 1;
#X obj 155 179 0;
#X obj 75 70 t a b b;
#N canvas 0 22 533 407 drip 0;
#X obj 64 206 list split 1;
#X obj 64 123 until;
#X obj 64 181 list append;
#X obj 194 206 bang;
#X text 146 90 First store list \, then start the loop;
#X text 163 118 "until" bangs its output until told to stop by a "bang"
to its right inlet.;
#X text 182 160 Store the remaining list.;
#X text 239 205 third outlet of "split" tells us to stop.;
#X obj 64 243 outlet;
#X obj 64 57 inlet;
#X text 237 44 From list-help.pd;
#X obj 143 243 outlet;
#X obj 64 86 t b a;
#X connect 0 0 8 0;
#X connect 0 1 2 1;
#X connect 0 2 3 0;
#X connect 0 2 11 0;
#X connect 1 0 2 0;
#X connect 2 0 0 0;
#X connect 3 0 1 1;
#X connect 9 0 12 0;
#X connect 12 0 1 0;
#X connect 12 1 2 1;
#X restore 75 100 pd drip;
#X connect 0 0 8 0;
#X connect 1 0 6 1;
#X connect 2 0 6 0;
#X connect 3 0 4 0;
#X connect 5 0 6 1;
#X connect 6 0 1 0;
#X connect 6 0 3 1;
#X connect 7 0 3 1;
#X connect 8 0 9 0;
#X connect 8 1 5 0;
#X connect 8 2 7 0;
#X connect 9 0 2 0;
#X connect 9 1 3 0;
#X restore 540 119 pd list-len;
#X obj 510 159 moses;
#X obj 540 139 + 1;
#N canvas 0 22 292 173 warniung 0;
#X obj 21 144 print warning;
#X obj 21 74 list append;
#X obj 21 114 list trim;
#X obj 21 24 inlet;
#X obj 93 24 inlet;
#X msg 21 54 couldn't find \$1th argument in ";
#X obj 21 94 list append ";
#X connect 1 0 6 0;
#X connect 2 0 0 0;
#X connect 3 0 5 0;
#X connect 4 0 1 1;
#X connect 5 0 1 0;
#X connect 6 0 2 0;
#X restore 569 176 pd warniung;
#X connect 0 0 21 0;
#X connect 0 0 28 0;
#X connect 2 0 4 0;
#X connect 3 0 10 0;
#X connect 4 0 3 1;
#X connect 4 0 9 1;
#X connect 5 0 19 0;
#X connect 6 0 8 0;
#X connect 6 0 7 1;
#X connect 7 0 31 0;
#X connect 8 0 6 1;
#X connect 9 0 14 0;
#X connect 10 0 11 0;
#X connect 11 0 12 0;
#X connect 11 1 6 0;
#X connect 12 0 42 0;
#X connect 12 1 13 1;
#X connect 13 0 6 0;
#X connect 14 0 16 0;
#X connect 14 0 15 1;
#X connect 15 0 22 0;
#X connect 16 0 14 1;
#X connect 17 0 15 0;
#X connect 17 1 5 0;
#X connect 17 2 18 0;
#X connect 18 0 14 1;
#X connect 18 0 20 0;
#X connect 19 0 7 0;
#X connect 19 1 32 0;
#X connect 19 2 20 0;
#X connect 20 0 6 1;
#X connect 21 0 33 0;
#X connect 21 1 17 0;
#X connect 22 0 1 0;
#X connect 22 0 24 0;
#X connect 24 0 25 0;
#X connect 25 0 26 0;
#X connect 28 0 29 0;
#X connect 29 0 30 0;
#X connect 31 0 14 0;
#X connect 31 1 9 0;
#X connect 32 0 6 0;
#X connect 32 1 3 0;
#X connect 33 0 22 0;
#X connect 34 0 36 1;
#X connect 34 0 41 0;
#X connect 34 0 44 1;
#X connect 36 0 38 0;
#X connect 37 0 13 0;
#X connect 38 1 37 0;
#X connect 39 0 38 1;
#X connect 40 0 36 0;
#X connect 40 1 39 0;
#X connect 41 0 43 0;
#X connect 42 0 40 0;
#X connect 42 1 44 0;
#X connect 43 0 42 1;
#X restore 299 342 pd string-replace-dollars;
#X obj 205 541 pack s s;
#X msg 205 561 add list \$1 \$2;
#X text 375 71 [read yourpatch.pd( + reset;
#N canvas 13 378 566 305 read-patch 0;
#X obj 191 21 inlet trigger;
#X obj 306 21 inlet file;
#X obj 326 212 outlet line;
#X obj 325 121 textfile;
#X obj 326 182 spigot;
#X msg 363 162 0;
#X msg 306 152 1;
#X obj 306 51 t b b a b;
#X msg 427 81 clear;
#X msg 325 81 rewind \, bang;
#X obj 63 151 route #N;
#X obj 63 171 route struct;
#X obj 63 131 spigot;
#X msg 100 111 0;
#X msg 130 111 1;
#X obj 63 191 b;
#X text 31 75 skip #N struct at begining;
#X obj 63 211 value line-number;
#X obj 36 211 + 1;
#X obj 421 212 outlet end;
#X connect 0 0 3 0;
#X connect 1 0 7 0;
#X connect 3 0 4 0;
#X connect 3 0 12 0;
#X connect 3 1 19 0;
#X connect 4 0 2 0;
#X connect 5 0 4 1;
#X connect 6 0 4 1;
#X connect 7 0 6 0;
#X connect 7 0 13 0;
#X connect 7 1 9 0;
#X connect 7 2 3 0;
#X connect 7 3 5 0;
#X connect 7 3 8 0;
#X connect 7 3 14 0;
#X connect 8 0 3 0;
#X connect 9 0 3 0;
#X connect 10 0 11 0;
#X connect 11 0 15 0;
#X connect 12 0 10 0;
#X connect 13 0 12 1;
#X connect 14 0 12 1;
#X connect 15 0 3 0;
#X connect 15 0 17 0;
#X connect 17 0 18 0;
#X connect 18 0 17 0;
#X restore 56 123 pd read-patch;
#X obj 90 243 value line-number;
#X obj 63 243 + 1;
#X obj 459 153 value line-number;
#N canvas 0 22 281 288 rename-original-subpatchnames 0;
#X obj 30 32 inlet trigger;
#X obj 130 32 inlet textfile;
#X obj 67 219 outlet done;
#X obj 89 159 textfile;
#X msg 111 119 rewind;
#X obj 67 99 t b b b;
#X obj 89 139 until;
#X msg 89 179 \; \$1 rename \$2;
#X connect 0 0 5 0;
#X connect 1 0 3 0;
#X connect 3 0 7 0;
#X connect 3 1 6 1;
#X connect 4 0 3 0;
#X connect 5 0 2 0;
#X connect 5 1 6 0;
#X connect 5 2 4 0;
#X connect 6 0 3 0;
#X restore 412 218 pd rename-original-subpatchnames;
#X obj 335 71 t a b;
#X obj 413 560 s subpatch;
#X obj 299 382 s;
#X obj 315 362 r subpatch;
#X text 67 333 go up one level in subpatch;
#X obj 118 193 t b a;
#X msg 56 381 symbol \$5;
#X obj 56 401 t a a;
#N canvas 0 22 698 390 create-id-subpatch 0;
#X obj 75 22 inlet subpatchname;
#X obj 546 22 inlet file;
#X obj 135 292 s;
#X obj 75 112 f 1;
#X obj 47 112 + 1;
#X msg 105 152 symbol \$1-graph1;
#X obj 105 112 makefilename 1-%s;
#X msg 105 132 set symbol \, adddollsym \$1;
#X obj 105 172 t a a;
#X obj 135 232 list append;
#X obj 135 192 list prepend;
#X msg 135 212 obj \$1 \$2 pd \$3;
#X obj 306 132 list split 2;
#X obj 345 152 list split 2;
#X obj 75 52 t a b;
#N canvas 700 31 559 489 find-end-of-a-subpatch-(restore) 0;
#X obj 230 205 list split 1;
#X obj 269 225 list trim;
#X obj 269 245 route restore canvas;
#X obj 269 375 list trim;
#X obj 269 395 route 1;
#X obj 269 355 list prepend 1;
#N canvas 0 22 470 320 f 0;
#X obj 23 22 inlet;
#X obj 93 52 inlet;
#X obj 23 82 f;
#X obj 23 52 t b f;
#X obj 23 112 +;
#X obj 23 142 outlet;
#X connect 0 0 3 0;
#X connect 1 0 2 1;
#X connect 2 0 4 0;
#X connect 3 0 2 0;
#X connect 3 1 4 1;
#X connect 4 0 5 0;
#X connect 4 0 2 1;
#X restore 362 315 pd f;
#X msg 336 285 1;
#X msg 299 285 -1;
#X obj 362 335 max 1;
#X obj 269 265 t a b;
#X obj 269 425 outlet;
#X obj 248 114 textfile;
#X obj 230 185 spigot;
#X msg 267 155 0;
#X msg 210 155 1;
#X msg 229 84 rewind \, bang;
#X obj 210 54 t b b a b;
#X msg 331 84 clear;
#X obj 129 124 until;
#X obj 93 76 t b b a b b;
#X obj 93 155 until;
#X obj 121 367 b;
#X msg 410 272 2;
#X obj 20 21 inlet line-number;
#X obj 210 24 inlet read-file;
#X text 87 245 check level of subpatches;
#X text 30 394 find the restore on the same level;
#X text 6 39 start search from line number;
#X text 79 124 scroll;
#X text 41 155 search;
#X text 321 22 read file and reset code;
#X connect 0 1 1 0;
#X connect 1 0 2 0;
#X connect 2 0 10 0;
#X connect 2 1 7 0;
#X connect 3 0 4 0;
#X connect 4 0 11 0;
#X connect 4 0 22 0;
#X connect 5 0 3 0;
#X connect 6 0 9 0;
#X connect 7 0 6 0;
#X connect 8 0 6 0;
#X connect 9 0 5 1;
#X connect 10 0 5 0;
#X connect 10 1 8 0;
#X connect 12 0 13 0;
#X connect 12 1 21 1;
#X connect 13 0 0 0;
#X connect 14 0 13 1;
#X connect 15 0 13 1;
#X connect 16 0 12 0;
#X connect 17 0 15 0;
#X connect 17 1 16 0;
#X connect 17 2 12 0;
#X connect 17 3 14 0;
#X connect 17 3 18 0;
#X connect 18 0 12 0;
#X connect 19 0 12 0;
#X connect 20 0 21 0;
#X connect 20 1 15 0;
#X connect 20 2 19 0;
#X connect 20 3 16 0;
#X connect 20 4 14 0;
#X connect 20 4 23 0;
#X connect 21 0 12 0;
#X connect 22 0 21 1;
#X connect 23 0 6 1;
#X connect 24 0 20 0;
#X connect 25 0 17 0;
#X restore 306 112 pd find-end-of-a-subpatch-(restore);
#X text 20 74 change and create subpatch to id+subpatchname;
#X text 23 114 id;
#X text 221 232 create subpatch;
#X obj 135 252 list trim;
#X text 301 166 get x- \, y-pos and rest of the name of subpatch;
#X obj 306 92 value line-number;
#X obj 151 272 r subpatch;
#X obj 75 92 t b a;
#X obj 105 342 outlet id-subpatchname;
#X obj 105 322 makefilename pd-%s;
#X connect 0 0 14 0;
#X connect 1 0 15 1;
#X connect 3 0 4 0;
#X connect 3 0 5 0;
#X connect 4 0 3 1;
#X connect 5 0 8 0;
#X connect 6 0 7 0;
#X connect 7 0 5 0;
#X connect 8 0 25 0;
#X connect 8 1 10 0;
#X connect 9 0 19 0;
#X connect 10 0 11 0;
#X connect 11 0 9 0;
#X connect 12 0 10 1;
#X connect 12 1 13 0;
#X connect 13 1 9 1;
#X connect 14 0 23 0;
#X connect 14 1 21 0;
#X connect 15 0 12 0;
#X connect 19 0 2 0;
#X connect 21 0 15 0;
#X connect 22 0 2 1;
#X connect 23 0 3 0;
#X connect 23 1 6 0;
#X connect 25 0 24 0;
#X restore 56 421 pd create-id-subpatch;
#X text 204 521 [list new-name original-name(;
#X msg 56 541 \; \$1 vis 0 \; subpatch symbol \$1;
#X obj 253 227 route array;
#X obj 56 283 route canvas restore;
#X msg 478 297 10 20 30;
#X obj 235 51 route arguments;
#X connect 0 0 44 0;
#X connect 1 0 25 0;
#X connect 3 0 5 0;
#X connect 3 0 31 0;
#X connect 4 0 13 0;
#X connect 5 0 13 1;
#X connect 6 0 29 1;
#X connect 7 0 42 0;
#X connect 7 1 26 0;
#X connect 8 0 28 0;
#X connect 9 0 7 0;
#X connect 9 1 7 0;
#X connect 9 2 35 0;
#X connect 10 0 11 1;
#X connect 13 0 31 0;
#X connect 14 0 15 0;
#X connect 15 0 17 0;
#X connect 21 0 32 0;
#X connect 22 0 23 0;
#X connect 23 0 29 1;
#X connect 25 0 9 0;
#X connect 25 1 29 0;
#X connect 26 0 27 0;
#X connect 27 0 26 0;
#X connect 29 0 12 0;
#X connect 30 0 25 1;
#X connect 30 0 38 1;
#X connect 30 1 2 0;
#X connect 30 1 8 0;
#X connect 30 1 3 0;
#X connect 30 1 6 0;
#X connect 33 0 32 1;
#X connect 35 0 26 0;
#X connect 35 1 11 0;
#X connect 36 0 37 0;
#X connect 37 0 38 0;
#X connect 37 1 22 1;
#X connect 38 0 13 1;
#X connect 38 0 22 0;
#X connect 38 0 40 0;
#X connect 41 0 10 0;
#X connect 42 0 36 0;
#X connect 42 1 4 0;
#X connect 42 2 41 0;
#X connect 42 2 21 0;
#X connect 43 0 21 1;
#X connect 44 0 21 1;
#X connect 44 1 30 0;
#X restore 24 140 pd create-slowly;
#X msg 44 89 0;
#X obj 26 270 s~ 1-nothing;
#X obj 79 112 metro 20;
#N canvas 0 22 415 480 c1 1;
#X restore 22 15 pd c1;
#X text 70 15 <- a) open subatch;
#X text 237 97 <- b) reset stuff and load patch;
#X text 78 52 <- c) create the patch slowly;
#X msg 24 170 \; pd-c1 loadbang;
#X msg 28 238 \; pd-c1 clear;
#X msg 192 156 read /Users/pd/Desktop/asdf.pd;
#X obj 192 116 openpanel;
#X msg 192 96 bang;
#X msg 192 136 set read \$1 \, bang;
#X msg 512 15 version 0.1.3;
#X text 287 187 <- b2) set argument list to replace dollars;
#N canvas 0 22 233 175 rebuild-chain 0;
#X obj 23 21 inlet;
#N canvas 132 265 458 308 sub 0;
#X restore 23 111 pd sub;
#X msg 22 51 \; pd-sub obj 10 10 +~ \; pd-sub clear;
#X connect 0 0 2 0;
#X restore 160 257 pd rebuild-chain;
#X msg 154 185 arguments 440 0.6;
#X msg 159 236 bang;
#X connect 0 0 3 0;
#X connect 1 0 6 0;
#X connect 2 0 6 1;
#X connect 3 0 4 0;
#X connect 3 0 11 0;
#X connect 4 0 1 0;
#X connect 6 0 3 0;
#X connect 13 0 3 1;
#X connect 14 0 16 0;
#X connect 15 0 14 0;
#X connect 16 0 13 0;
#X connect 20 0 3 1;
#X connect 21 0 19 0;
