#N canvas 290 62 543 721 10;
#N canvas 0 0 450 300 \$0-data 0;
#X restore 389 92 pd \$0-data;
#N canvas 408 405 450 300 \$0-pair 0;
#X obj 81 72 struct \$0-pair float x symbol s;
#X obj 88 162 drawnumber x;
#X restore 389 70 pd \$0-pair;
#X obj 192 217 pointer;
#X obj 192 174 symbol pd-\$0-data;
#X msg 192 196 traverse \$1 \, bang;
#X msg 51 124 1 this \, 4 my \, 3 is \, 10 file \,;
#X msg 128 65 clear;
#X obj 128 88 s pd-\$0-data;
#X obj 51 67 t b b b;
#X msg 51 36 bang;
#X text 46 13 Fill:;
#X obj 54 548 get \$0-pair x s;
#X obj 54 520 pointer;
#X obj 54 477 symbol pd-\$0-data;
#X msg 54 499 traverse \$1 \, next;
#X msg 144 521 next;
#X msg 54 646;
#X obj 124 452 s pd-\$0-data;
#X obj 54 440 t b b;
#X msg 124 429 sort;
#X msg 54 416 bang;
#X text 45 390 sort and dump;
#N canvas 0 0 450 300 cocollect 0;
#X obj 255 37 inlet;
#X obj 49 20 inlet;
#X obj 49 157 outlet;
#X msg 255 74 set;
#X obj 81 99 list trim;
#X obj 81 74 list prepend add2;
#X obj 49 44 t b a;
#X msg 49 119 addcomma;
#X connect 0 0 3 0;
#X connect 1 0 6 0;
#X connect 3 0 2 0;
#X connect 4 0 2 0;
#X connect 5 0 4 0;
#X connect 6 0 7 0;
#X connect 6 1 5 0;
#X connect 7 0 2 0;
#X restore 54 621 pd cocollect;
#X obj 54 573 pack 0 s;
#X obj 157 574 print;
#X msg 151 620 clear;
#X obj 51 303 set -symbol \$0-pair s;
#X obj 51 281 symbol;
#X obj 83 246 append \$0-pair x;
#X obj 51 147 t a a;
#X msg 83 183 \$1;
#X msg 51 183 \$2;
#X connect 2 0 28 1;
#X connect 3 0 4 0;
#X connect 4 0 2 0;
#X connect 5 0 29 0;
#X connect 6 0 7 0;
#X connect 8 0 5 0;
#X connect 8 1 3 0;
#X connect 8 2 6 0;
#X connect 9 0 8 0;
#X connect 11 0 23 0;
#X connect 11 1 23 1;
#X connect 11 1 24 0;
#X connect 12 0 11 0;
#X connect 12 0 15 0;
#X connect 13 0 14 0;
#X connect 14 0 12 0;
#X connect 15 0 12 0;
#X connect 18 0 13 0;
#X connect 18 1 19 0;
#X connect 18 1 25 0;
#X connect 19 0 17 0;
#X connect 20 0 18 0;
#X connect 22 0 16 0;
#X connect 23 0 22 0;
#X connect 25 0 22 1;
#X connect 27 0 26 0;
#X connect 28 0 26 1;
#X connect 29 0 31 0;
#X connect 29 1 30 0;
#X connect 30 0 28 0;
#X connect 31 0 27 0;
