#N canvas 0 22 645 462 10;
#X obj 82 33 t f b;
#X obj 204 50 + 1;
#X obj 175 50 f 0;
#X obj 202 -7 sel 1;
#X obj 175 -53 t f f;
#X msg 202 16 0;
#X obj 128 -89 loadbang;
#N canvas 99 46 405 390 spectral_flux 0;
#X obj 45 95 *~;
#X obj 70 95 *~;
#X obj 45 146 sqrt~;
#X obj 45 268 snapshot~;
#X obj 119 12 bang~;
#X obj 45 329 outlet;
#X msg 120 60 clear;
#X obj 90 -15 inlet;
#X obj 45 298 /;
#X obj 214 31 block~;
#X msg 214 2 set \$1 1 1;
#X obj 147 251 spigot;
#X obj 300 -13 inlet;
#X obj 300 20 sel 1 0;
#X obj 45 -15 inlet~;
#X msg 300 137 start;
#X msg 319 159 stop;
#X obj 120 34 t b b;
#X obj 45 195 fexpr~ $x1-$y;
#X obj 45 234 max~ 0;
#X obj 45 34 rfft~;
#X connect 0 0 2 0;
#X connect 1 0 2 0;
#X connect 2 0 18 0;
#X connect 3 0 8 0;
#X connect 4 0 17 0;
#X connect 6 0 18 0;
#X connect 7 0 8 1;
#X connect 7 0 10 0;
#X connect 8 0 5 0;
#X connect 10 0 9 0;
#X connect 11 0 3 0;
#X connect 12 0 11 1;
#X connect 12 0 13 0;
#X connect 13 0 15 0;
#X connect 13 1 16 0;
#X connect 14 0 20 0;
#X connect 15 0 18 0;
#X connect 16 0 18 0;
#X connect 17 0 6 0;
#X connect 17 1 11 0;
#X connect 18 0 19 0;
#X connect 19 0 3 0;
#X connect 20 0 0 0;
#X connect 20 0 0 1;
#X connect 20 1 1 0;
#X connect 20 1 1 1;
#X restore 82 -4 pd spectral_flux;
#N canvas 0 22 450 300 (subpatch) 0;
#X array \$0-flux 200 float 0;
#X coords 0 -1 200 1 500 140 1;
#X restore -146 -279 graph;
#X obj 82 95 tabwrite \$0-flux;
#X obj 82 -88 adc~;
#X obj -98 -68 tgl 15 0 empty empty empty 17 7 0 10 -262144 -1 -1 0
1;
#X obj 204 73 % 200;
#X obj -86 50 hsl 128 15 0 1 0 0 empty empty empty -2 -8 0 10 -262144
-1 -1 0 1;
#X text -81 -71 On/Off;
#X msg 128 -65 1024;
#X connect 0 0 9 0;
#X connect 0 0 13 0;
#X connect 0 1 2 0;
#X connect 1 0 12 0;
#X connect 2 0 1 0;
#X connect 2 0 9 1;
#X connect 3 0 5 0;
#X connect 4 0 7 2;
#X connect 4 1 3 0;
#X connect 5 0 2 1;
#X connect 6 0 15 0;
#X connect 7 0 0 0;
#X connect 10 0 7 0;
#X connect 10 1 7 0;
#X connect 11 0 4 0;
#X connect 12 0 2 1;
#X connect 15 0 7 1;
