#N canvas 377 16 686 626 12;
#X obj 35 49 inlet~;
#X obj 296 113 table \$0-sm \$1;
#X obj 26 148 *~;
#X obj 66 148 *~;
#X obj 26 189 sqrt~;
#X obj 35 101 fft~;
#X obj 24 392 snapshot~;
#X obj 192 393 snapshot~;
#X obj 192 426 / \$1;
#X obj 125 548 /;
#X obj 179 162 t b b b;
#X obj 174 103 bang~;
#X obj 125 580 outlet;
#X obj 295 82 block~ \$1 1 1;
#X obj 24 265 rmstodb~;
#X obj 24 294 -~ 100;
#X obj 24 331 fexpr~ $y[-1]+$x[0];
#X obj 188 332 fexpr~ $y[-1]+$x[0];
#X obj 24 422 / \$1;
#X obj 24 452 + 100;
#X obj 24 487 dbtorms;
#X msg 116 194 clear;
#X text 292 23 \$1: block size;
#X connect 0 0 5 0;
#X connect 2 0 4 0;
#X connect 3 0 4 0;
#X connect 4 0 14 0;
#X connect 4 0 17 0;
#X connect 5 0 2 0;
#X connect 5 0 2 1;
#X connect 5 1 3 0;
#X connect 5 1 3 1;
#X connect 6 0 18 0;
#X connect 7 0 8 0;
#X connect 8 0 9 1;
#X connect 9 0 12 0;
#X connect 10 0 21 0;
#X connect 10 1 6 0;
#X connect 10 2 7 0;
#X connect 11 0 10 0;
#X connect 14 0 15 0;
#X connect 15 0 16 0;
#X connect 16 0 6 0;
#X connect 17 0 7 0;
#X connect 18 0 19 0;
#X connect 19 0 20 0;
#X connect 20 0 9 0;
#X connect 21 0 16 0;
#X connect 21 0 17 0;
