#N canvas 99 213 736 461 10;
#X obj 45 167 l2s;
#X obj 45 190 s2l;
#X obj 45 263 s2l;
#X obj 150 238 s2l;
#X obj 45 213 unpack s s;
#X msg 161 111 symbol _;
#X obj 45 285 print list1;
#X obj 150 287 print list2;
#X obj 45 138 l2s;
#X msg 160 86 symbol _;
#X msg 229 162 symbol _am;
#X obj 150 263 list prepend;
#X obj 229 107 makefilename _%s;
#X msg 312 131 set symbol;
#X obj 229 130 prepend add2;
#X obj 229 84 t s b;
#X symbolatom 229 35 10 0 0 0 - - -;
#X obj 161 65 loadbang;
#X msg 45 34 hi i am a robot;
#X obj 474 149 list-find;
#X msg 525 31 hi i am a robot;
#X obj 474 172 t b f;
#X obj 474 250 list prepend;
#X msg 474 31 am;
#X obj 474 194 list;
#X obj 474 280 print list1;
#X obj 555 280 print list2;
#X symbolatom 474 109 10 0 0 0 - - -;
#X obj 474 79 symbol;
#X obj 229 61 symbol;
#X obj 474 216 list split;
#X connect 0 0 1 0;
#X connect 1 0 4 0;
#X connect 2 0 6 0;
#X connect 3 0 11 0;
#X connect 4 0 2 0;
#X connect 4 1 3 0;
#X connect 5 0 2 1;
#X connect 5 0 3 1;
#X connect 8 0 0 0;
#X connect 9 0 8 1;
#X connect 10 0 1 1;
#X connect 11 0 7 0;
#X connect 12 0 14 0;
#X connect 13 0 10 0;
#X connect 14 0 10 0;
#X connect 15 0 12 0;
#X connect 15 1 13 0;
#X connect 16 0 29 0;
#X connect 17 0 9 0;
#X connect 17 0 10 0;
#X connect 17 0 5 0;
#X connect 18 0 8 0;
#X connect 19 0 21 0;
#X connect 20 0 19 1;
#X connect 20 0 24 1;
#X connect 21 0 24 0;
#X connect 21 1 30 1;
#X connect 22 0 25 0;
#X connect 23 0 28 0;
#X connect 24 0 30 0;
#X connect 27 0 19 0;
#X connect 27 0 22 1;
#X connect 28 0 27 0;
#X connect 29 0 15 0;
#X connect 30 0 22 0;
#X connect 30 1 26 0;
