#N canvas 0 0 682 911 10;
#X obj 38 216 gemwin;
#X obj 115 163 tgl 20 0 empty empty empty 0 -6 0 8 -262144 -1 -1 1
1;
#X msg 40 47 create;
#X msg 53 77 lighting 1;
#X msg 112 197 dimen 400 400;
#X msg 61 108 lighting 0;
#X obj 76 339 gemhead;
#X msg 28 295 debug 1;
#X obj 301 98 gemhead;
#X obj 81 380 translateXYZ 0 0 2;
#X obj 81 599 spot_light;
#X floatatom 147 330 5 0 0 0 - - -;
#X obj 296 147 rotateXYZ 0 0 0;
#X floatatom 192 331 5 0 0 0 - - -;
#X obj 306 11 loadbang;
#X msg 369 189 50;
#X obj 79 489 rotateXYZ;
#X floatatom 96 453 5 0 0 0 - - -;
#X floatatom 139 454 5 0 0 0 - - -;
#X msg 219 438 0.1 0.4 0.7;
#X obj 296 219 sphere 7;
#X obj 219 388 loadbang;
#X msg 126 417 180;
#X msg 105 564 0.1 20 0;
#X msg 148 289 0;
#X msg 191 283 10;
#X msg 87 138 view 1 0 \$1 0 0;
#X msg 155 76 12;
#X floatatom 155 101 5 0 0 0 - - -;
#X text 28 649 spot_light first inlet: parameters (linear attenuation
\; cone cutoff angle \; decay at edges);
#X text 29 686 second inlet: Color;
#X connect 1 0 0 0;
#X connect 2 0 0 0;
#X connect 3 0 0 0;
#X connect 4 0 0 0;
#X connect 5 0 0 0;
#X connect 6 0 9 0;
#X connect 7 0 10 0;
#X connect 8 0 12 0;
#X connect 9 0 16 0;
#X connect 11 0 9 1;
#X connect 12 0 20 0;
#X connect 13 0 9 3;
#X connect 14 0 15 0;
#X connect 14 0 24 0;
#X connect 14 0 25 0;
#X connect 14 0 7 0;
#X connect 14 0 27 0;
#X connect 14 0 3 0;
#X connect 15 0 20 2;
#X connect 16 0 10 0;
#X connect 17 0 16 1;
#X connect 18 0 16 2;
#X connect 19 0 10 2;
#X connect 21 0 19 0;
#X connect 21 0 22 0;
#X connect 21 0 23 0;
#X connect 22 0 17 0;
#X connect 22 0 18 0;
#X connect 23 0 10 1;
#X connect 24 0 11 0;
#X connect 25 0 13 0;
#X connect 26 0 0 0;
#X connect 27 0 28 0;
#X connect 28 0 26 0;
