#N canvas 525 255 454 304 10;
#X obj 31 117 gemwin;
#X msg 18 18 create;
#X msg 31 46 1;
#X msg 44 77 destroy \, 0;
#X obj 201 17 gemhead;
#X floatatom 241 136 5 0 0 0 - - -;
#X text 279 133 number of branches;
#X floatatom 244 192 5 0 0 0 - - -;
#X msg 242 160 branch \$1;
#X msg 240 216 depth \$1;
#X floatatom 239 75 5 0 0 0 - - -;
#X msg 235 98 size \$1;
#X obj 201 244 starbirth 0.2 8 2;
#X connect 1 0 0 0;
#X connect 2 0 0 0;
#X connect 3 0 0 0;
#X connect 4 0 12 0;
#X connect 5 0 8 0;
#X connect 7 0 9 0;
#X connect 8 0 12 0;
#X connect 9 0 12 0;
#X connect 10 0 11 0;
#X connect 11 0 12 0;
