#N canvas 268 172 450 300 10;
#X floatatom 304 16 5 0 0 0 - - -;
#X obj 289 105 f;
#X obj 224 122 f;
#X obj 224 177 <;
#X msg 224 91 bang;
#X obj 224 207 sel 1;
#X floatatom 166 139 5 0 0 0 - - -;
#X text 109 141 max -->;
#X text 344 16 <--input;
#X connect 0 0 1 1;
#X connect 0 0 3 1;
#X connect 0 0 4 0;
#X connect 1 0 2 1;
#X connect 2 0 3 0;
#X connect 2 0 6 0;
#X connect 3 0 5 0;
#X connect 4 0 2 0;
#X connect 5 0 1 0;
