#N canvas 1 0 453 304 10;
#N canvas 494 404 247 472 stripextension 0;
#X obj 12 8 inlet;
#X obj 12 412 outlet;
#X obj 28 146 list split 1;
#X obj 28 104 until;
#X obj 28 125 list append;
#X obj 12 81 t b b l b;
#X obj 157 134 b;
#X obj 61 190 list;
#X obj 12 342 list;
#X obj 28 256 list append;
#X obj 28 233 list;
#X obj 28 210 t b s;
#X obj 120 247 loadbang;
#X obj 12 299 f;
#X obj 163 208 0;
#X obj 88 211 b;
#X obj 88 232 1;
#X obj 12 321 sel 1 0;
#X obj 61 170 route list symbol;
#X obj 12 59 symbol2list .;
#X obj 12 368 l2s;
#X obj 120 269 symbol .;
#X obj 97 356 symbol;
#X obj 12 33 t s s;
#X text 48 6 [file.ext];
#X text 55 413 [file];
#X connect 0 0 23 0;
#X connect 2 0 11 0;
#X connect 2 1 18 0;
#X connect 3 0 4 0;
#X connect 4 0 2 0;
#X connect 5 0 13 0;
#X connect 5 1 3 0;
#X connect 5 2 4 1;
#X connect 5 3 10 1;
#X connect 5 3 14 0;
#X connect 6 0 3 1;
#X connect 7 0 4 1;
#X connect 7 0 15 0;
#X connect 8 0 20 0;
#X connect 9 0 10 1;
#X connect 9 0 8 1;
#X connect 10 0 9 0;
#X connect 11 0 10 0;
#X connect 11 1 9 1;
#X connect 12 0 21 0;
#X connect 13 0 17 0;
#X connect 14 0 13 1;
#X connect 15 0 16 0;
#X connect 16 0 13 1;
#X connect 17 0 8 0;
#X connect 17 1 22 0;
#X connect 18 0 7 0;
#X connect 18 1 6 0;
#X connect 18 1 15 0;
#X connect 18 2 6 0;
#X connect 19 0 5 0;
#X connect 20 0 1 0;
#X connect 21 0 20 1;
#X connect 22 0 1 0;
#X connect 23 0 19 0;
#X connect 23 1 22 1;
#X restore 36 212 pd stripextension;
#X msg 62 53 symbol yoyo.pd;
#X msg 77 79 symbol yoyo.yeah.pd;
#X msg 104 100 symbol yoyo;
#X text 273 167 suddenly does not;
#X msg 40 30 symbol ../netpd/patches/yoyo.pd;
#X msg 99 166 symbol ../some.thing/yoyo;
#X text 306 62 works;
#X obj 36 245 print;
#X connect 0 0 8 0;
#X connect 1 0 0 0;
#X connect 2 0 0 0;
#X connect 3 0 0 0;
#X connect 5 0 0 0;
#X connect 6 0 0 0;
