#N canvas 649 223 579 516 10;
#X obj 296 43 block~ 768;
#X obj 292 99 table foo;
#X obj 292 73 table bar;
#X obj 114 194 tabreceive~ bar;
#X obj 225 192 tabreceive~ foo;
#X obj 169 235 -~;
#X msg 7 109 \; bar sinesum 1024 1 \; bar resize 768;
#X obj 93 30 loadbang;
#X obj 169 266 pack~;
#X obj 170 299 sum;
#X floatatom 174 338 5 0 0 0 - - -;
#X msg 15 60 \; foo sinesum 1024 -1 \; foo resize 768;
#X connect 3 0 5 0;
#X connect 4 0 5 1;
#X connect 5 0 8 0;
#X connect 7 0 6 0;
#X connect 7 0 11 0;
#X connect 8 0 9 0;
#X connect 9 0 10 0;
