#N canvas 259 359 922 505 12;
#N canvas 0 0 450 300 graph1 0;
#X array \$0-array 16 float 3;
#A 0 0 0 0 0 0 0 0 0 0 0 0 0 0 0 0 0;
#X coords 0 1.1 16 -0.1 100 70 1;
#X restore 314 230 graph;
#X obj 135 186 tabset \$0-array;
#X obj 67 96 t b b f b;
#X msg 135 153 0 0 0 0 0 0 0 0 0 0 0 0 0 0 0 0;
#X obj 88 223 tabwrite \$0-array;
#X obj 67 19 inlet;
#X obj 67 261 tabdump \$0-array;
#X obj 6 402 outlet;
#X obj 262 322 unpack 0 0 0 0 0 0 0 0 0 0 0 0 0 0 0 0;
#X obj 60 402 outlet;
#X obj 114 402 outlet;
#X obj 168 402 outlet;
#X obj 222 402 outlet;
#X obj 276 402 outlet;
#X obj 330 402 outlet;
#X obj 384 402 outlet;
#X obj 438 402 outlet;
#X obj 492 402 outlet;
#X obj 547 402 outlet;
#X obj 601 402 outlet;
#X obj 655 402 outlet;
#X obj 709 402 outlet;
#X obj 763 402 outlet;
#X obj 817 402 outlet;
#X msg 88 159 1;
#X obj 67 54 route clear;
#X obj 172 98 t b b;
#X connect 2 0 6 0;
#X connect 2 1 24 0;
#X connect 2 2 4 1;
#X connect 2 3 3 0;
#X connect 3 0 1 0;
#X connect 5 0 25 0;
#X connect 6 0 8 0;
#X connect 8 0 7 0;
#X connect 8 1 9 0;
#X connect 8 2 10 0;
#X connect 8 3 11 0;
#X connect 8 4 12 0;
#X connect 8 5 13 0;
#X connect 8 6 14 0;
#X connect 8 7 15 0;
#X connect 8 8 16 0;
#X connect 8 9 17 0;
#X connect 8 10 18 0;
#X connect 8 11 19 0;
#X connect 8 12 20 0;
#X connect 8 13 21 0;
#X connect 8 14 22 0;
#X connect 8 15 23 0;
#X connect 24 0 4 0;
#X connect 25 0 26 0;
#X connect 25 1 2 0;
#X connect 26 0 6 0;
#X connect 26 1 3 0;
