#N canvas 49 51 919 387 10;
#X obj 70 105 inlet~;
#X obj 348 28 inlet;
#X msg 285 95 1;
#X msg 325 95 1;
#X msg 365 95 1;
#X msg 405 95 1;
#X msg 445 95 1;
#X msg 485 95 1;
#X msg 525 95 1;
#X obj 848 314 nop;
#X obj 848 103 nop;
#X obj 69 319 outlet~;
#X obj 154 320 outlet~;
#X obj 238 320 outlet~;
#X obj 321 320 outlet~;
#X obj 406 320 outlet~;
#X obj 487 321 outlet~;
#X obj 572 320 outlet~;
#X obj 348 51 route \$1 \$2 \$3 \$4 \$5 \$6 \$7 \$8 \$9;
#X obj 658 320 outlet~;
#X obj 741 321 outlet~;
#X msg 565 95 1;
#X msg 605 95 1;
#N canvas 663 347 313 183 switcher 0;
#X obj 115 136 switch~;
#X obj 132 10 inlet;
#X obj 21 46 inlet~;
#X obj 22 114 outlet~;
#X obj 180 136 outlet;
#X msg 180 107 0;
#X msg 115 106 1;
#X obj 151 67 t b b;
#X obj 132 36 select 0;
#X msg 147 106 0;
#X connect 1 0 8 0;
#X connect 2 0 3 0;
#X connect 5 0 4 0;
#X connect 6 0 0 0;
#X connect 7 0 6 0;
#X connect 7 1 5 0;
#X connect 8 0 9 0;
#X connect 8 1 7 0;
#X connect 9 0 0 0;
#X coords 0 0 1 1 85 30 0;
#X restore 69 236 pd switcher;
#N canvas 663 347 313 183 switcher 0;
#X obj 115 136 switch~;
#X obj 132 10 inlet;
#X obj 21 46 inlet~;
#X obj 22 114 outlet~;
#X obj 180 136 outlet;
#X msg 180 107 0;
#X msg 115 106 1;
#X obj 151 67 t b b;
#X obj 132 36 select 0;
#X msg 147 106 0;
#X connect 1 0 8 0;
#X connect 2 0 3 0;
#X connect 5 0 4 0;
#X connect 6 0 0 0;
#X connect 7 0 6 0;
#X connect 7 1 5 0;
#X connect 8 0 9 0;
#X connect 8 1 7 0;
#X connect 9 0 0 0;
#X coords 0 0 1 1 85 30 0;
#X restore 154 236 pd switcher;
#N canvas 663 347 313 183 switcher 0;
#X obj 115 136 switch~;
#X obj 132 10 inlet;
#X obj 21 46 inlet~;
#X obj 22 114 outlet~;
#X obj 180 136 outlet;
#X msg 180 107 0;
#X msg 115 106 1;
#X obj 151 67 t b b;
#X obj 132 36 select 0;
#X msg 147 106 0;
#X connect 1 0 8 0;
#X connect 2 0 3 0;
#X connect 5 0 4 0;
#X connect 6 0 0 0;
#X connect 7 0 6 0;
#X connect 7 1 5 0;
#X connect 8 0 9 0;
#X connect 8 1 7 0;
#X connect 9 0 0 0;
#X coords 0 0 1 1 85 30 0;
#X restore 238 236 pd switcher;
#N canvas 663 347 313 183 switcher 0;
#X obj 115 136 switch~;
#X obj 132 10 inlet;
#X obj 21 46 inlet~;
#X obj 22 114 outlet~;
#X obj 180 136 outlet;
#X msg 180 107 0;
#X msg 115 106 1;
#X obj 151 67 t b b;
#X obj 132 36 select 0;
#X msg 147 106 0;
#X connect 1 0 8 0;
#X connect 2 0 3 0;
#X connect 5 0 4 0;
#X connect 6 0 0 0;
#X connect 7 0 6 0;
#X connect 7 1 5 0;
#X connect 8 0 9 0;
#X connect 8 1 7 0;
#X connect 9 0 0 0;
#X coords 0 0 1 1 85 30 0;
#X restore 322 236 pd switcher;
#N canvas 663 347 313 183 switcher 0;
#X obj 115 136 switch~;
#X obj 132 10 inlet;
#X obj 21 46 inlet~;
#X obj 22 114 outlet~;
#X obj 180 136 outlet;
#X msg 180 107 0;
#X msg 115 106 1;
#X obj 151 67 t b b;
#X obj 132 36 select 0;
#X msg 147 106 0;
#X connect 1 0 8 0;
#X connect 2 0 3 0;
#X connect 5 0 4 0;
#X connect 6 0 0 0;
#X connect 7 0 6 0;
#X connect 7 1 5 0;
#X connect 8 0 9 0;
#X connect 8 1 7 0;
#X connect 9 0 0 0;
#X coords 0 0 1 1 85 30 0;
#X restore 406 236 pd switcher;
#N canvas 663 347 313 183 switcher 0;
#X obj 115 136 switch~;
#X obj 132 10 inlet;
#X obj 21 46 inlet~;
#X obj 22 114 outlet~;
#X obj 180 136 outlet;
#X msg 180 107 0;
#X msg 115 106 1;
#X obj 151 67 t b b;
#X obj 132 36 select 0;
#X msg 147 106 0;
#X connect 1 0 8 0;
#X connect 2 0 3 0;
#X connect 5 0 4 0;
#X connect 6 0 0 0;
#X connect 7 0 6 0;
#X connect 7 1 5 0;
#X connect 8 0 9 0;
#X connect 8 1 7 0;
#X connect 9 0 0 0;
#X coords 0 0 1 1 85 30 0;
#X restore 489 236 pd switcher;
#N canvas 663 347 313 183 switcher 0;
#X obj 115 136 switch~;
#X obj 132 10 inlet;
#X obj 21 46 inlet~;
#X obj 22 114 outlet~;
#X obj 180 136 outlet;
#X msg 180 107 0;
#X msg 115 106 1;
#X obj 151 67 t b b;
#X obj 132 36 select 0;
#X msg 147 106 0;
#X connect 1 0 8 0;
#X connect 2 0 3 0;
#X connect 5 0 4 0;
#X connect 6 0 0 0;
#X connect 7 0 6 0;
#X connect 7 1 5 0;
#X connect 8 0 9 0;
#X connect 8 1 7 0;
#X connect 9 0 0 0;
#X coords 0 0 1 1 85 30 0;
#X restore 574 236 pd switcher;
#N canvas 663 347 313 183 switcher 0;
#X obj 115 136 switch~;
#X obj 132 10 inlet;
#X obj 21 46 inlet~;
#X obj 22 114 outlet~;
#X obj 180 136 outlet;
#X msg 180 107 0;
#X msg 115 106 1;
#X obj 151 67 t b b;
#X obj 132 36 select 0;
#X msg 147 106 0;
#X connect 1 0 8 0;
#X connect 2 0 3 0;
#X connect 5 0 4 0;
#X connect 6 0 0 0;
#X connect 7 0 6 0;
#X connect 7 1 5 0;
#X connect 8 0 9 0;
#X connect 8 1 7 0;
#X connect 9 0 0 0;
#X coords 0 0 1 1 85 30 0;
#X restore 658 236 pd switcher;
#N canvas 663 347 313 183 switcher 0;
#X obj 115 136 switch~;
#X obj 132 10 inlet;
#X obj 21 46 inlet~;
#X obj 22 114 outlet~;
#X obj 180 136 outlet;
#X msg 180 107 0;
#X msg 115 106 1;
#X obj 151 67 t b b;
#X obj 132 36 select 0;
#X msg 147 106 0;
#X connect 1 0 8 0;
#X connect 2 0 3 0;
#X connect 5 0 4 0;
#X connect 6 0 0 0;
#X connect 7 0 6 0;
#X connect 7 1 5 0;
#X connect 8 0 9 0;
#X connect 8 1 7 0;
#X connect 9 0 0 0;
#X coords 0 0 1 1 85 30 0;
#X restore 741 236 pd switcher;
#X connect 0 0 23 0;
#X connect 0 0 24 0;
#X connect 0 0 25 0;
#X connect 0 0 26 0;
#X connect 0 0 27 0;
#X connect 0 0 28 0;
#X connect 0 0 29 0;
#X connect 0 0 30 0;
#X connect 0 0 31 0;
#X connect 1 0 18 0;
#X connect 2 0 23 1;
#X connect 3 0 24 1;
#X connect 4 0 25 1;
#X connect 5 0 26 1;
#X connect 6 0 27 1;
#X connect 7 0 28 1;
#X connect 8 0 29 1;
#X connect 9 0 10 0;
#X connect 10 0 23 1;
#X connect 10 0 24 1;
#X connect 10 0 25 1;
#X connect 10 0 26 1;
#X connect 10 0 27 1;
#X connect 10 0 28 1;
#X connect 10 0 29 1;
#X connect 10 0 30 1;
#X connect 10 0 31 1;
#X connect 18 0 2 0;
#X connect 18 1 3 0;
#X connect 18 2 4 0;
#X connect 18 3 5 0;
#X connect 18 4 6 0;
#X connect 18 5 7 0;
#X connect 18 6 8 0;
#X connect 18 7 21 0;
#X connect 18 8 22 0;
#X connect 21 0 30 1;
#X connect 22 0 31 1;
#X connect 23 0 11 0;
#X connect 23 1 9 0;
#X connect 24 0 12 0;
#X connect 24 1 9 0;
#X connect 25 0 13 0;
#X connect 25 1 9 0;
#X connect 26 0 14 0;
#X connect 26 1 9 0;
#X connect 27 0 15 0;
#X connect 27 1 9 0;
#X connect 28 0 16 0;
#X connect 28 1 9 0;
#X connect 29 0 17 0;
#X connect 29 1 9 0;
#X connect 30 0 19 0;
#X connect 30 1 9 0;
#X connect 31 0 20 0;
#X connect 31 1 9 0;
