#N canvas 112 8 483 529 10;
#X obj 51 48 inlet~;
#X text 20 21 recieved;
#X obj 23 127 rfft~;
#X obj 32 498 outlet~;
#X obj 22 169 conj_mult~;
#X obj 37 221 rifft~;
#X obj 110 48 inlet~;
#X text 118 23 reference;
#X obj 66 126 rfft~;
#X obj 101 85 *~;
#X obj 39 329 /~ 128;
#X obj 230 16 loadbang;
#X obj 39 363 lrshift~ -32;
#X obj 32 466 +~;
#X obj 221 494 arraycopy \$0-rectangle;
#X obj 221 302 \$0;
#X obj 221 332 t f f;
#X obj 322 334 table \$0-ones 64;
#X obj 323 310 table \$0-rectangle 128;
#X obj 273 66 \$1;
#X obj 324 85 * 2;
#X obj 299 241 pack f f;
#X obj 230 39 t b b b;
#X obj 379 70 \$0;
#X obj 282 172 pack f f;
#X obj 221 441 pack f f f;
#X obj 286 408 / 2;
#X msg 221 463 copy \$1-ones 0 +\$2 \$1-rectangle \$3;
#X msg 251 363 \; \$1-ones const 1 \; \$1-rectangle const 0 \;;
#X msg 299 266 \; \$2-rectangle resize \$1 \;;
#X msg 280 196 \; \$2-ones resize \$1 \;;
#X obj 134 85 tabreceive~ \$0-rectangle;
#X obj 324 135 block~ 128 2;
#X obj 329 16 bng 15 250 50 0 empty empty empty 17 7 0 10 -262144 -1
-1;
#X obj 88 393 lrshift~ 96;
#X obj 91 329 * -0.5;
#X obj 142 327 * 1.5;
#X msg 322 111 set \$1 2 1;
#X connect 0 0 2 0;
#X connect 2 0 4 0;
#X connect 2 1 4 1;
#X connect 4 0 5 0;
#X connect 4 1 5 1;
#X connect 5 0 10 0;
#X connect 6 0 9 0;
#X connect 8 0 4 2;
#X connect 8 1 4 3;
#X connect 9 0 8 0;
#X connect 10 0 12 0;
#X connect 10 0 34 0;
#X connect 11 0 22 0;
#X connect 12 0 13 0;
#X connect 13 0 3 0;
#X connect 15 0 16 0;
#X connect 16 0 25 0;
#X connect 16 1 28 0;
#X connect 19 0 20 0;
#X connect 19 0 24 0;
#X connect 19 0 26 0;
#X connect 19 0 25 1;
#X connect 19 0 35 0;
#X connect 19 0 36 0;
#X connect 20 0 37 0;
#X connect 20 0 21 0;
#X connect 20 0 10 1;
#X connect 21 0 29 0;
#X connect 22 0 15 0;
#X connect 22 1 19 0;
#X connect 22 2 23 0;
#X connect 23 0 21 1;
#X connect 23 0 24 1;
#X connect 24 0 30 0;
#X connect 25 0 27 0;
#X connect 26 0 25 2;
#X connect 27 0 14 0;
#X connect 31 0 9 1;
#X connect 33 0 22 0;
#X connect 34 0 13 1;
#X connect 35 0 12 0;
#X connect 36 0 34 0;
#X connect 37 0 32 0;
