#N canvas 219 85 589 461 10;
#X symbolatom 38 331;
#X obj 38 378 print;
#X msg 26 59 open \$1;
#X msg 26 32 myfile.wav;
#X obj 26 85 print;
#X text 24 12 this does not work;
#X msg 38 355 open \$1;
#X msg 317 88 open \$1;
#X msg 317 37 myfile.wav;
#X obj 317 114 print;
#X obj 317 63 symbol s;
#X text 315 14 should work in the future;
#X msg 164 61 open \$1;
#X obj 164 87 print;
#X msg 164 34 symbol myfile.wav;
#X text 162 14 works now;
#X msg 37 164 open test.wav;
#X msg 37 225 open \$1;
#X obj 37 251 print;
#X obj 110 228 print;
#X text 36 142 my problem;
#X text 152 143 note that print interprets any message that it doesnt know of as a symbol \, this is not the case for other objects.;
#X text 37 312 click \, type in a name \, and hit return;
#X obj 37 195 route open off;
#X connect 0 0 6 0;
#X connect 2 0 4 0;
#X connect 3 0 2 0;
#X connect 6 0 1 0;
#X connect 7 0 9 0;
#X connect 8 0 10 0;
#X connect 10 0 7 0;
#X connect 12 0 13 0;
#X connect 14 0 12 0;
#X connect 16 0 23 0;
#X connect 17 0 18 0;
#X connect 23 0 17 0;
#X connect 23 0 19 0;
