#N canvas 185 142 962 356 10;
#X text 615 31 Data structures:;
#X text 614 112 Here we create our samplemap;
#X text 614 156 This gets saves with the patch \, if needed;
#N canvas 0 0 529 303 \$0-sym 0;
#X text 75 124 Just a symbol \, which will store a sample/table name.
Intended to be used as array elements in samplemap.;
#X obj 143 82 struct \$0-sym symbol name;
#X restore 616 58 pd \$0-sym;
#N canvas 312 519 836 304 \$0-symarray 0;
#X obj 142 183 drawpolygon 900 0 0 10 10 10 0 0 10;
#X text 122 109 The interesting bit here is the "samples" array which
stores an array of "sample" items that in turn have "name"s;
#X text 406 182 a crude visualisation. Ignore.;
#X obj 138 64 struct \$0-symarray float x array symbols \$0-sym;
#X restore 616 82 pd \$0-symarray;
#N canvas 0 0 450 300 \$0-data 0;
#X restore 617 133 pd \$0-data;
#X obj 321 218 r \$0-symarray-p;
#X obj 135 243 element \$0-symarray symbols;
#X obj 135 265 get \$0-sym name;
#N canvas 0 0 619 485 init 0;
#X obj 213 251 pointer;
#X obj 76 325 pointer;
#X msg 89 305 bang;
#X msg 227 143 clear;
#X msg 76 249 0;
#X text 131 304 resend;
#X msg 213 226 traverse \$1 \, bang;
#X obj 213 198 symbol pd-\$0-data;
#X obj 76 275 append \$0-symarray x;
#X obj 76 345 s \$0-symarray-p;
#X obj 76 30 loadbang;
#X obj 227 167 s pd-\$0-data;
#X obj 76 83 t b b b;
#X text 274 254 where to create? In [pd \$0-data]!;
#X obj 88 54 r \$0-reset;
#X connect 0 0 8 1;
#X connect 1 0 9 0;
#X connect 2 0 1 0;
#X connect 3 0 11 0;
#X connect 4 0 8 0;
#X connect 6 0 0 0;
#X connect 7 0 6 0;
#X connect 8 0 1 0;
#X connect 10 0 12 0;
#X connect 12 0 4 0;
#X connect 12 1 7 0;
#X connect 12 2 3 0;
#X connect 14 0 12 0;
#X restore 494 56 pd init;
#X obj 61 54 inlet;
#X obj 240 50 inlet;
#X obj 61 84 list trim;
#X obj 61 111 route reset;
#X obj 61 142 s \$0-reset;
#X text 59 23 lookup data by index;
#X text 232 24 add data. syntax: <index> <symbol to store>;
#N canvas 416 246 542 307 change-size 0;
#X obj 98 158 max;
#X obj 131 158 f;
#X obj 98 25 inlet;
#X obj 98 218 setsize \$0-symarray symbols;
#X obj 284 191 r \$0-symarray-p;
#X obj 98 189 change -1;
#X obj 116 79 r \$0-reset;
#X obj 116 99 t b b;
#X msg 167 160 set -1;
#X obj 98 51 + 1;
#X msg 116 120 0;
#X connect 0 0 1 0;
#X connect 0 0 5 0;
#X connect 1 0 0 1;
#X connect 2 0 9 0;
#X connect 4 0 3 1;
#X connect 5 0 3 0;
#X connect 6 0 7 0;
#X connect 7 0 10 0;
#X connect 7 1 8 0;
#X connect 8 0 5 0;
#X connect 9 0 0 0;
#X connect 10 0 0 1;
#X restore 319 139 pd change-size;
#X obj 240 114 t b f f;
#N canvas 0 0 611 287 set-symbol 0;
#X obj 90 44 inlet;
#X obj 248 60 inlet;
#X obj 434 97 r \$0-symarray-p;
#X obj 248 119 element \$0-symarray symbols;
#X obj 90 151 set -symbol \$0-sym name;
#X connect 0 0 4 0;
#X connect 1 0 3 0;
#X connect 2 0 3 1;
#X connect 3 0 4 1;
#X restore 307 193 pd set-symbol;
#X obj 135 212 f;
#X obj 135 290 outlet;
#X obj 240 86 list split 1;
#X obj 240 146 list;
#X msg 550 207 clear;
#X obj 550 231 s pd-\$0-data;
#X obj 240 171 route bang;
#X text 200 195 ignore empty;
#X connect 6 0 7 1;
#X connect 7 0 8 0;
#X connect 8 0 21 0;
#X connect 10 0 12 0;
#X connect 11 0 22 0;
#X connect 12 0 13 0;
#X connect 13 0 14 0;
#X connect 13 1 20 0;
#X connect 18 0 23 0;
#X connect 18 1 19 1;
#X connect 18 2 17 0;
#X connect 20 0 7 0;
#X connect 22 0 18 0;
#X connect 22 1 23 1;
#X connect 22 2 23 1;
#X connect 23 0 26 0;
#X connect 24 0 25 0;
#X connect 26 1 19 0;
