#N canvas 0 0 450 300 10;
#X floatatom 99 90 5 0 0;
#X obj 99 121 select 1 2 3 4;
#X obj 99 158 bng 15 250 50 0 empty empty empty 0 -6 0 8 -262144 -1
-1;
#X obj 122 158 bng 15 250 50 0 empty empty empty 0 -6 0 8 -262144 -1
-1;
#X obj 145 158 bng 15 250 50 0 empty empty empty 0 -6 0 8 -262144 -1
-1;
#X obj 168 158 bng 15 250 50 0 empty empty empty 0 -6 0 8 -262144 -1
-1;
#X obj 192 160 print;
#X connect 0 0 1 0;
#X connect 1 0 2 0;
#X connect 1 1 3 0;
#X connect 1 2 4 0;
#X connect 1 4 6 0;
