#N canvas 216 181 715 501 10;
#X obj 130 197 pack 0 0 0;
#X obj 152 172 t b a;
#X obj 202 170 t b a;
#X obj 130 64 vsl 15 100 0 1 0 0 empty empty empty 0 -9 0 10 -258113
-262144 -1 5800 1;
#X obj 165 63 vsl 15 100 0 1 0 0 empty empty empty 0 -9 0 10 -13381
-262144 -1 2400 1;
#X obj 202 63 vsl 15 100 0 1 0 0 empty empty empty 0 -9 0 10 -4160
-262144 -1 1600 1;
#X floatatom 260 171 5 0 0 1 index - -;
#X obj 130 233 list append 0;
#X obj 130 306 tabwrite \$0-rgb;
#X floatatom 259 248 5 0 0 1 index - -;
#X obj 259 306 list prepend set;
#X obj 259 326 list trim;
#X msg 259 350 0.585859 0.242424 0.161616;
#N canvas 0 0 566 534 store3 0;
#X obj 73 50 inlet;
#X obj 73 79 unpack 0 0 0 0;
#X obj 168 114 * 3;
#X floatatom 120 252 5 0 0 0 - - -;
#X floatatom 150 281 5 0 0 0 - - -;
#X floatatom 181 315 5 0 0 0 - - -;
#X obj 168 143 t a a a;
#X obj 190 166 + 1;
#X obj 231 167 + 2;
#X obj 72 349 outlet;
#X obj 135 313 pack;
#X obj 104 283 pack;
#X obj 72 251 pack;
#X connect 0 0 1 0;
#X connect 1 0 12 0;
#X connect 1 1 11 0;
#X connect 1 2 10 0;
#X connect 1 3 2 0;
#X connect 2 0 6 0;
#X connect 6 0 3 0;
#X connect 6 0 12 1;
#X connect 6 1 7 0;
#X connect 6 2 8 0;
#X connect 7 0 4 0;
#X connect 7 0 11 1;
#X connect 8 0 5 0;
#X connect 8 0 10 1;
#X connect 10 0 9 0;
#X connect 11 0 9 0;
#X connect 12 0 9 0;
#X restore 130 269 pd store3;
#N canvas 0 0 566 534 read3 0;
#X obj 75 50 inlet;
#X obj 75 76 * 3;
#X obj 75 105 t a a a;
#X obj 97 128 + 1;
#X obj 138 129 + 2;
#X obj 75 282 outlet;
#X obj 75 170 tabread \$0-rgb;
#X obj 75 246 pack 0 0 0;
#X obj 108 193 tabread \$0-rgb;
#X obj 142 213 tabread \$0-rgb;
#X connect 0 0 1 0;
#X connect 1 0 2 0;
#X connect 2 0 6 0;
#X connect 2 1 3 0;
#X connect 2 2 4 0;
#X connect 3 0 8 0;
#X connect 4 0 9 0;
#X connect 6 0 7 0;
#X connect 7 0 5 0;
#X connect 8 0 7 1;
#X connect 9 0 7 2;
#X restore 259 269 pd read3;
#N canvas 0 0 450 300 (subpatch) 0;
#X array \$0-rgb 99 float 2;
#X coords 0 1 98 -1 200 140 1;
#X restore 404 76 graph;
#X connect 0 0 7 0;
#X connect 1 0 0 0;
#X connect 1 1 0 1;
#X connect 2 0 0 0;
#X connect 2 1 0 2;
#X connect 3 0 0 0;
#X connect 4 0 1 0;
#X connect 5 0 2 0;
#X connect 6 0 7 1;
#X connect 7 0 13 0;
#X connect 9 0 14 0;
#X connect 10 0 11 0;
#X connect 11 0 12 0;
#X connect 13 0 8 0;
#X connect 14 0 10 0;
