#N canvas 641 97 561 742 10;
#X obj 95 199 hsl 128 15 0 1 0 0 empty empty empty -2 -8 0 10 -262144
-1 -1 9100 1;
#X obj 91 412 *~;
#X obj 195 414 *~;
#X obj 224 392 - 1;
#N canvas 0 0 450 300 (subpatch) 0;
#X array first 16 float 3;
#A 0 -0.72857 -0.657141 -0.62857 -0.585713 -0.514285 -0.357142 -0.271428
-0.2 0.271428 0.514285 0.62857 0.714284 0.742856 0.82857 0.82857 0.657141
;
#X coords 0 1 15 -1 200 140 1;
#X restore -46 35 graph;
#N canvas 0 0 450 300 (subpatch) 0;
#X array second 16 float 3;
#A 0 0 0.828569 0.699998 0.0714289 -0.385712 -0.528569 -0.571426 -0.599997
-0.628568 -0.685711 -0.714282 -0.714282 -0.757139 -0.757139 -0.771425
-0.771425;
#X coords 0 1 15 -1 200 140 1;
#X restore 199 34 graph;
#N canvas 0 0 450 300 (subpatch) 0;
#X array blended 16 float 3;
#A 0 -0.209178 0.402011 0.318556 -0.117241 -0.422626 -0.479351 -0.485294
-0.485155 -0.370173 -0.341183 -0.328739 -0.30413 -0.32648 -0.30187
-0.312055 -0.361273;
#X coords 0 1 15 -1 200 140 1;
#X restore 83 550 graph;
#X obj 90 470 tabwrite~ blended;
#X obj 90 439 -~;
#X obj 92 370 tabplay~ second;
#X obj 195 372 tabplay~ first;
#X obj 92 325 t b b b;
#X text 227 197 0 to 1;
#N canvas 0 0 554 451 smooth 0;
#X obj 16 360 outlet;
#X obj 212 16 inlet;
#X msg 214 275 1;
#X obj 217 59 t b f;
#X obj 265 343 outlet;
#X obj 226 308 t f f;
#X obj 225 363 switch~ 64 1 1;
#X obj 241 93 pixeltango/smooth 1 20;
#X obj 242 136 t f b b;
#X obj 327 133 + 5;
#X floatatom 373 44 5 0 0 0 - - -;
#X msg 286 194 0;
#X text 339 158 wait until nothing more happens;
#X text 318 193 then switch off computing...;
#X text 312 342 ...also for parent patch.;
#X obj 280 157 delay 21;
#X connect 1 0 3 0;
#X connect 2 0 5 0;
#X connect 3 0 2 0;
#X connect 3 1 7 0;
#X connect 5 0 6 0;
#X connect 5 1 4 0;
#X connect 7 0 8 0;
#X connect 8 0 0 0;
#X connect 8 2 15 0;
#X connect 9 0 15 1;
#X connect 10 0 7 2;
#X connect 10 0 9 1;
#X connect 11 0 5 0;
#X connect 15 0 11 0;
#X restore 92 236 pd smooth;
#X obj 212 285 switch~ 16 1 16;
#X text 3 238 look inside...;
#X obj 362 569 bang~;
#X msg 356 627 1;
#X msg 391 627 0;
#X text 207 301 adjust blocksize and oversampling to your needs.;
#X obj 370 653 change;
#X obj 370 679 tgl 15 0 empty empty empty 17 7 0 10 -262144 -1 -1 0
1;
#X obj 371 597 delay 10;
#X text -38 708 Martin Schied \, 2009;
#X text 320 544 activity monitor for switch~;
#X obj 92 281 t b f f;
#X connect 0 0 13 0;
#X connect 1 0 8 0;
#X connect 2 0 8 1;
#X connect 3 0 2 1;
#X connect 8 0 7 0;
#X connect 9 0 1 0;
#X connect 10 0 2 0;
#X connect 11 0 9 0;
#X connect 11 1 10 0;
#X connect 11 2 7 0;
#X connect 13 0 25 0;
#X connect 13 1 14 0;
#X connect 16 0 17 0;
#X connect 16 0 22 0;
#X connect 17 0 20 0;
#X connect 18 0 20 0;
#X connect 20 0 21 0;
#X connect 22 0 18 0;
#X connect 25 0 11 0;
#X connect 25 1 1 1;
#X connect 25 2 3 0;
