#N canvas 79 180 502 347 12;
#X obj 128 162 tabread4~ tab1;
#X obj 128 88 phasor~;
#X obj 6 50 table tab1;
#X obj 128 113 *~ 2.646e+07;
#X obj 128 63 / 600;
#X obj 128 138 +~ 1;
#X floatatom 128 41 5 0 0 0 - - -;
#X obj 128 191 output~;
#N canvas 0 0 466 480 playtime 0;
#X floatatom 80 303 5 0 0 0 - - -;
#X obj 80 209 tgl 15 0 empty empty empty 0 -6 0 8 -262144 -1 -1 0 1
;
#X obj 224 392 % 1000;
#X obj 152 415 % 60;
#X obj 152 365 / 1000;
#X obj 152 390 i;
#X obj 80 364 / 60000;
#X obj 80 391 i;
#X obj 224 367 i;
#X obj 81 231 metro;
#X floatatom 157 161 3 0 0 0 - - -;
#X floatatom 130 161 2 0 0 0 - - -;
#X floatatom 102 161 2 0 0 0 - - -;
#X text 121 160 :;
#X text 148 160 :;
#X obj 102 129 bng 30 250 50 0 empty empty play 2 14 0 8 -24198 -1
-1;
#X obj 153 129 bng 30 250 50 0 empty empty stop 2 14 0 8 -241291 -1
-1;
#X text 101 114 ----------;
#X obj 81 255 i;
#X obj 111 255 + 1;
#X msg 222 159 0;
#X msg 65 164 1;
#X obj 222 223 t f f;
#X obj 257 255 outlet;
#X obj 11 235 outlet;
#X connect 0 0 4 0;
#X connect 0 0 6 0;
#X connect 0 0 8 0;
#X connect 1 0 9 0;
#X connect 1 0 24 0;
#X connect 2 0 10 0;
#X connect 3 0 11 0;
#X connect 4 0 5 0;
#X connect 5 0 3 0;
#X connect 6 0 7 0;
#X connect 7 0 12 0;
#X connect 8 0 2 0;
#X connect 9 0 18 0;
#X connect 15 0 21 0;
#X connect 16 0 20 0;
#X connect 18 0 19 0;
#X connect 18 0 0 0;
#X connect 19 0 18 1;
#X connect 20 0 22 0;
#X connect 21 0 1 0;
#X connect 22 0 18 1;
#X connect 22 1 1 0;
#X connect 22 1 23 0;
#X coords 0 -1 1 1 85 80 1 100 100;
#X restore 128 -43 pd playtime;
#N canvas 266 133 482 485 loadfile 0;
#X obj 124 127 bng 30 250 50 0 empty empty load 3 14 0 8 -260818 -1
-1;
#X text 101 112 ----------;
#X obj 124 353 soundfiler;
#X msg 124 332 read -resize \$1 \$2;
#X obj 124 307 pack s s;
#X obj 244 263 list2symbol;
#X obj 124 263 list2symbol;
#X obj 124 199 t b b;
#X obj 124 236 openpanel;
#X msg 244 239 tab1;
#X connect 0 0 7 0;
#X connect 3 0 2 0;
#X connect 4 0 3 0;
#X connect 5 0 4 1;
#X connect 6 0 4 0;
#X connect 7 0 8 0;
#X connect 7 1 9 0;
#X connect 8 0 6 0;
#X connect 9 0 5 0;
#X coords 0 -1 1 1 85 78 1 100 100;
#X restore 8 -42 pd loadfile;
#N canvas 266 133 482 485 testwrite~ 0;
#X floatatom 80 301 5 0 0 0 - - -;
#X obj 80 207 tgl 15 0 empty empty empty 0 -6 0 8 -262144 -1 -1 0 1
;
#X obj 224 390 % 1000;
#X obj 152 413 % 60;
#X obj 152 363 / 1000;
#X obj 152 388 i;
#X obj 80 362 / 60000;
#X obj 80 389 i;
#X obj 224 365 i;
#X obj 81 229 metro;
#X floatatom 157 159 3 0 0 0 - - -;
#X floatatom 130 159 2 0 0 0 - - -;
#X floatatom 102 159 2 0 0 0 - - -;
#X text 121 158 :;
#X text 148 158 :;
#X obj 102 127 bng 30 250 50 0 empty empty rec 5 14 0 8 -258699 -1
-1;
#X obj 153 127 bng 30 250 50 0 empty empty stop 2 14 0 8 -241291 -1
-1;
#X text 101 112 ----------;
#X obj 81 253 i;
#X obj 111 253 + 1;
#X msg 222 157 0;
#X msg 65 162 1;
#X obj 222 221 t f f;
#X obj 69 94 tabwrite~ tab1;
#X obj 68 47 osc~ 440;
#X obj 69 71 *~ 0.5;
#X obj 68 -8 *~ 100;
#X obj 68 18 +~ 440;
#X obj 67 -30 osc~ 0.1;
#X connect 0 0 4 0;
#X connect 0 0 6 0;
#X connect 0 0 8 0;
#X connect 1 0 9 0;
#X connect 2 0 10 0;
#X connect 3 0 11 0;
#X connect 4 0 5 0;
#X connect 5 0 3 0;
#X connect 6 0 7 0;
#X connect 7 0 12 0;
#X connect 8 0 2 0;
#X connect 9 0 18 0;
#X connect 15 0 21 0;
#X connect 15 0 23 0;
#X connect 16 0 20 0;
#X connect 18 0 19 0;
#X connect 18 0 0 0;
#X connect 19 0 18 1;
#X connect 20 0 22 0;
#X connect 21 0 1 0;
#X connect 22 0 18 1;
#X connect 22 1 1 0;
#X connect 24 0 25 0;
#X connect 25 0 23 0;
#X connect 26 0 27 0;
#X connect 27 0 24 0;
#X connect 28 0 26 0;
#X coords 0 -1 1 1 85 78 1 100 100;
#X restore 250 -42 pd testwrite~;
#X obj 319 80 loadbang;
#X msg 319 157 \; tab1 resize \$1;
#X msg 319 106 2.646e+07;
#X obj 319 132 + 3;
#X obj -10 230 nbx 14 14 -1e+37 1e+37 0 0 empty empty empty 0 -6 0
10 -241291 -1 -1 1 256;
#X obj 7 189 snapshot~;
#X obj 7 142 tgl 15 0 empty empty empty 0 -6 0 8 -262144 -1 -1 1 1
;
#X obj 7 163 metro 19;
#X connect 0 0 7 0;
#X connect 0 0 7 1;
#X connect 1 0 3 0;
#X connect 3 0 5 0;
#X connect 4 0 1 0;
#X connect 5 0 0 0;
#X connect 5 0 16 0;
#X connect 6 0 4 0;
#X connect 8 0 6 0;
#X connect 8 1 1 1;
#X connect 11 0 13 0;
#X connect 13 0 14 0;
#X connect 14 0 12 0;
#X connect 16 0 15 0;
#X connect 17 0 18 0;
#X connect 18 0 16 0;
