#N canvas 0 0 514 413 10;
#X obj 392 188 int;
#X obj 392 211 + 1;
#X obj 311 188 int;
#X obj 246 187 int;
#X obj 246 211 + 1;
#X obj 181 187 int;
#X obj 116 126 t a a a a a;
#X obj 392 232 tabread \$1;
#X obj 311 233 tabread \$1;
#X obj 116 305 outlet;
#X obj 58 49 inlet;
#X obj 58 70 route set;
#X msg 355 137 set \$1;
#X obj 116 266 expr ($f1-$f2)*($f4-$f5)/($f2-$f3)+$f4;
#X obj 355 117 list;
#X connect 0 0 1 0;
#X connect 1 0 7 0;
#X connect 2 0 8 0;
#X connect 3 0 4 0;
#X connect 4 0 13 2;
#X connect 5 0 13 1;
#X connect 6 0 13 0;
#X connect 6 1 5 0;
#X connect 6 2 3 0;
#X connect 6 3 2 0;
#X connect 6 4 0 0;
#X connect 7 0 13 4;
#X connect 8 0 13 3;
#X connect 10 0 11 0;
#X connect 11 0 14 0;
#X connect 11 1 6 0;
#X connect 12 0 8 0;
#X connect 12 0 7 0;
#X connect 13 0 9 0;
#X connect 14 0 12 0;
