#N canvas 149 277 843 633 10;
#X obj 102 42 loadbang;
#N canvas 0 22 450 300 (subpatch) 0;
#X array impulse 11 float 2;
#X coords 0 1 11 -1 200 140 1;
#X restore 348 67 graph;
#X msg 102 70 \; impulse 5 1;
#N canvas 0 22 450 300 (subpatch) 0;
#X array response 4096 float 0;
#X coords 0 1 4095 -1 200 140 1;
#X restore 349 264 graph;
#X obj 121 273 until;
#X msg 120 204 4096;
#X obj 69 402 tabread4 impulse;
#X obj 121 302 f;
#X obj 152 302 + 1;
#X obj 69 351 / 512;
#X obj 69 374 + 1;
#X obj 120 330 t f f;
#X obj 128 475 tabwrite response;
#X obj 121 234 t f b;
#X msg 194 261 0;
#X obj 120 180 bng 15 250 50 0 empty empty empty 17 7 0 10 -262144
-1 -1;
#X text 153 179 <- click;
#X connect 0 0 2 0;
#X connect 4 0 7 0;
#X connect 5 0 13 0;
#X connect 6 0 12 0;
#X connect 7 0 8 0;
#X connect 7 0 11 0;
#X connect 8 0 7 1;
#X connect 9 0 10 0;
#X connect 10 0 6 0;
#X connect 11 0 9 0;
#X connect 11 1 12 1;
#X connect 13 0 4 0;
#X connect 13 1 14 0;
#X connect 14 0 7 1;
#X connect 15 0 5 0;
