#N canvas 486 284 709 486 10;
#X obj 224 101 table buf;
#X obj 378 283 s buf;
#X obj 378 185 samplerate~;
#X floatatom 387 208 5 0 0 0 - - -;
#X msg 378 164 bang;
#X msg 378 252 resize \$1;
#X text 409 226 seconds;
#X obj 77 166 tabwrite~ buf;
#X obj 76 85 adc~;
#X msg 127 122 bang;
#X msg 163 122 stop;
#X msg 450 251 const 0;
#X obj 127 93 t b b;
#X obj 378 228 * 4;
#X obj 127 46 tgl 15 0 empty empty empty 0 -6 0 8 -262144 -1 -1 0 1
;
#X obj 295 367 tabread4~ buf;
#X obj 295 333 vline~;
#X floatatom 527 245 10 0 0 0 - - -;
#X obj 293 292 f;
#X msg 295 312 0 \, \$1 4000;
#X msg 304 245 bang;
#X floatatom 250 357 5 0 0 0 - - -;
#X obj 425 65 adc~;
#X obj 127 68 metro 4000;
#X obj 293 197 tgl 15 0 empty empty empty 0 -6 0 8 -262144 -1 -1 0
1;
#X obj 293 219 metro 4000;
#X obj 264 257 bng 15 250 50 0 empty empty empty 17 7 0 10 -262144
-1 -1;
#X obj 176 91 bng 15 250 50 0 empty empty empty 17 7 0 10 -262144 -1
-1;
#X obj 296 405 *~ 0;
#X obj 329 405 dbtorms;
#X obj 394 404 hsl 128 15 0 127 0 0 empty empty empty -2 -8 0 10 -262144
-1 -1 0 1;
#X obj 297 426 dac~;
#X obj 425 88 *~ 0;
#X obj 458 88 dbtorms;
#X obj 523 87 hsl 128 15 0 127 0 0 empty empty empty -2 -8 0 10 -262144
-1 -1 0 1;
#X obj 426 109 dac~;
#X connect 2 0 3 0;
#X connect 2 0 13 0;
#X connect 4 0 2 0;
#X connect 5 0 1 0;
#X connect 8 0 7 0;
#X connect 9 0 7 0;
#X connect 10 0 7 0;
#X connect 11 0 1 0;
#X connect 12 0 9 0;
#X connect 12 1 10 0;
#X connect 13 0 5 0;
#X connect 13 0 17 0;
#X connect 13 0 18 1;
#X connect 14 0 23 0;
#X connect 15 0 28 0;
#X connect 16 0 15 0;
#X connect 18 0 19 0;
#X connect 18 0 21 0;
#X connect 19 0 16 0;
#X connect 20 0 18 0;
#X connect 22 0 32 0;
#X connect 22 1 32 0;
#X connect 23 0 12 0;
#X connect 23 0 27 0;
#X connect 24 0 25 0;
#X connect 25 0 18 0;
#X connect 25 0 26 0;
#X connect 28 0 31 0;
#X connect 28 0 31 1;
#X connect 29 0 28 1;
#X connect 30 0 29 0;
#X connect 32 0 35 0;
#X connect 32 0 35 1;
#X connect 33 0 32 1;
#X connect 34 0 33 0;
