#N canvas 601 89 450 300 10;
#X obj 123 86 expr~ tanh($v1);
#X obj 235 86 cyclone/tanh~;
#X obj 212 34 sig~ 1.3;
#X obj 133 159 snapshot~;
#X floatatom 131 202 0 0 0 0 - - -;
#X obj 235 153 snapshot~;
#X floatatom 233 196 0 0 0 0 - - -;
#X obj 346 49 loadbang;
#X obj 337 94 t b b;
#X msg 362 117 \; pd dsp 1;
#X obj 271 120 del 10;
#X connect 0 0 3 0;
#X connect 1 0 5 0;
#X connect 2 0 0 0;
#X connect 2 0 1 0;
#X connect 3 0 4 0;
#X connect 5 0 6 0;
#X connect 7 0 8 0;
#X connect 8 0 10 0;
#X connect 8 1 9 0;
#X connect 10 0 5 0;
#X connect 10 0 3 0;
