#N canvas 759 236 357 483 10;
#X obj 48 127 inlet~;
#X obj 49 264 *~ -1;
#X obj 49 287 exp~;
#X obj 50 315 *~ -1;
#X obj 50 390 +~ 1;
#X obj 50 418 /~;
#X obj 50 446 outlet~;
#X obj 197 29 inlet;
#X obj 51 347 *~;
#X obj 239 171 line~;
#X obj 97 345 +~;
#X obj 239 126 /;
#X msg 239 101 1 \$1;
#X floatatom 197 53 5 0 0 0 - - -, f 5;
#X msg 239 148 \$1 20;
#X msg 150 111 \$1 20;
#X obj 48 219 +~;
#X obj 63 196 log~;
#X obj 49 166 *~;
#X obj 101 135 line~;
#X msg 101 112 \$1 20;
#X obj 101 66 inlet;
#X floatatom 101 92 5 0 0 0 - - -, f 5;
#X obj 231 322 switch~;
#X obj 231 238 r \$1_compressing;
#X msg 231 286 1;
#X msg 262 286 0;
#X floatatom 196 274 5 0 0 0 - - -, f 5;
#X obj 231 261 sel 2;
#X obj 150 134 line~;
#X msg 186 164 \$1 20;
#X obj 186 187 line~;
#X obj 197 74 t f f f;
#X text 21 98 audio input;
#X text 97 44 (a) steepness;
#X text 195 8 (b) amplitude range;
#X connect 0 0 18 0;
#X connect 1 0 2 0;
#X connect 2 0 3 0;
#X connect 2 0 10 0;
#X connect 3 0 8 0;
#X connect 4 0 5 0;
#X connect 5 0 6 0;
#X connect 7 0 13 0;
#X connect 8 0 4 0;
#X connect 9 0 10 1;
#X connect 10 0 5 1;
#X connect 11 0 14 0;
#X connect 12 0 11 0;
#X connect 13 0 32 0;
#X connect 14 0 9 0;
#X connect 15 0 29 0;
#X connect 16 0 1 0;
#X connect 17 0 16 1;
#X connect 18 0 16 0;
#X connect 19 0 18 1;
#X connect 20 0 19 0;
#X connect 21 0 22 0;
#X connect 22 0 20 0;
#X connect 24 0 27 0;
#X connect 24 0 28 0;
#X connect 25 0 23 0;
#X connect 26 0 23 0;
#X connect 28 0 25 0;
#X connect 28 1 26 0;
#X connect 29 0 17 0;
#X connect 30 0 31 0;
#X connect 31 0 8 1;
#X connect 32 0 12 0;
#X connect 32 1 30 0;
#X connect 32 2 15 0;
