#N canvas 537 71 747 714 10;
#X obj 140 69 timer;
#X obj 148 87 alternate;
#X obj 149 142 -;
#X obj 159 116 t b;
#X obj 139 51 t b b;
#X obj 149 178 < 100;
#X obj 149 196 sel 0;
#X obj 263 36 key;
#X obj 263 59 sel 32;
#X obj 149 250 alternate;
#X obj 149 298 -;
#X obj 158 275 t b;
#X obj 142 -1 bng 20 250 50 0 snd_tap_bang rcv_tap_bang empty 0 -6
0 8 -242252 -1 -262144;
#X obj 149 160 abs;
#X obj 140 495 metro 500;
#X obj 139 33 r snd_tap_bang;
#X obj 140 459 t b a;
#X msg 140 477 1;
#X obj 149 333 abs;
#X msg 209 399 \; rcv_tap_bang color -1.55249e+07 -1 0;
#X msg 269 369 \; rcv_tap_bang color -1.56076e+07 -1 0;
#X obj 332 54 active;
#X obj 262 82 spigot;
#X obj 263 106 s rcv_tap_bang;
#N canvas 486 265 514 489 average 0;
#X obj 96 151 f;
#X obj 128 150 + 1;
#X floatatom 95 195 5 0 0 0 - - -;
#X msg 132 117 1;
#X obj 135 179 bng 15 250 50 0 empty empty empty 0 -6 0 8 -262144 -1
-1;
#X obj 240 204 +;
#X obj 214 204 f;
#X msg 270 138 0;
#X floatatom 215 245 5 0 0 0 - - -;
#X obj 240 225 bng 15 250 50 0 empty empty empty 0 -6 0 8 -262144 -1
-1;
#X obj 95 120 t b b;
#X obj 272 169 t b;
#X obj 105 298 /;
#X msg 214 77 bang;
#X obj 104 340 outlet;
#X obj 107 14 inlet;
#X obj 109 36 route reset;
#X connect 0 0 1 0;
#X connect 0 0 2 0;
#X connect 0 0 4 0;
#X connect 1 0 0 1;
#X connect 2 0 12 1;
#X connect 3 0 0 1;
#X connect 5 0 6 1;
#X connect 6 0 5 0;
#X connect 6 0 8 0;
#X connect 6 0 9 0;
#X connect 7 0 6 1;
#X connect 7 0 11 0;
#X connect 8 0 12 0;
#X connect 10 0 0 0;
#X connect 10 0 6 0;
#X connect 10 1 5 0;
#X connect 11 0 6 0;
#X connect 12 0 14 0;
#X connect 13 0 7 0;
#X connect 13 0 3 0;
#X connect 15 0 16 0;
#X connect 16 0 13 0;
#X connect 16 1 10 0;
#X connect 16 1 5 1;
#X restore 140 232 pd average;
#X msg 149 214 reset;
#X obj 149 315 int;
#X obj 149 351 moses 30;
#X obj 149 369 t b;
#X obj 209 351 moses 70;
#X obj 209 369 t b;
#X obj 269 351 t b;
#X msg 150 429 \; rcv_tap_bang color -61707 -1 0;
#X obj 334 28 inlet;
#X obj 141 602 outlet;
#X obj 209 582 line;
#X msg 184 557 0;
#X obj 210 604 outlet;
#X obj 167 526 t b b;
#X msg 228 507 set 360 \$1;
#X msg 215 556 360 224.943;
#X msg 242 531 bang;
#X obj 309 584 line;
#X obj 310 606 outlet;
#X msg 315 558 180 224.943;
#X msg 328 509 set 180 \$1;
#X connect 0 0 1 0;
#X connect 0 0 24 0;
#X connect 1 0 2 0;
#X connect 1 1 2 1;
#X connect 1 1 3 0;
#X connect 2 0 13 0;
#X connect 3 0 2 0;
#X connect 4 0 0 0;
#X connect 4 1 0 1;
#X connect 5 0 6 0;
#X connect 6 0 25 0;
#X connect 7 0 8 0;
#X connect 8 0 22 0;
#X connect 9 0 10 0;
#X connect 9 1 10 1;
#X connect 9 1 11 0;
#X connect 10 0 26 0;
#X connect 11 0 10 0;
#X connect 13 0 5 0;
#X connect 14 0 34 0;
#X connect 14 0 38 0;
#X connect 15 0 4 0;
#X connect 16 0 17 0;
#X connect 16 1 14 1;
#X connect 16 1 39 0;
#X connect 16 1 45 0;
#X connect 17 0 14 0;
#X connect 18 0 27 0;
#X connect 21 0 22 1;
#X connect 22 0 23 0;
#X connect 24 0 9 0;
#X connect 24 0 16 0;
#X connect 25 0 24 0;
#X connect 26 0 18 0;
#X connect 27 0 28 0;
#X connect 27 1 29 0;
#X connect 28 0 32 0;
#X connect 29 0 30 0;
#X connect 29 1 31 0;
#X connect 30 0 19 0;
#X connect 31 0 20 0;
#X connect 33 0 22 1;
#X connect 35 0 37 0;
#X connect 36 0 35 0;
#X connect 36 0 42 0;
#X connect 38 0 41 0;
#X connect 38 1 36 0;
#X connect 39 0 40 0;
#X connect 40 0 35 0;
#X connect 41 0 40 0;
#X connect 41 0 44 0;
#X connect 42 0 43 0;
#X connect 44 0 42 0;
#X connect 45 0 44 0;
