#N canvas 555 497 450 300 10;
#X obj 123 42 key;
#X obj 123 72 sel 32;
#X obj 150 189 timer;
#X obj 123 107 demux;
#X msg 215 62 1;
#X obj 123 157 t b b;
#X msg 260 62 0;
#X floatatom 150 248 5 0 0 1 bpm - -;
#X obj 178 158 t b b b;
#X obj 150 217 expr 60000/$f1;
#X connect 0 0 1 0;
#X connect 1 0 3 0;
#X connect 2 0 9 0;
#X connect 3 0 5 0;
#X connect 3 1 8 0;
#X connect 4 0 3 1;
#X connect 5 0 4 0;
#X connect 5 1 2 0;
#X connect 6 0 3 1;
#X connect 8 0 3 0;
#X connect 8 1 6 0;
#X connect 8 2 2 1;
#X connect 9 0 7 0;
