#N canvas 18 22 566 475 12;
#X declare -lib mrpeach;
#X msg -206 -6 connect 10.5.162.248 5500;
#X obj -215 -45 import mrpeach;
#N canvas 261 22 1027 736 laserclient 0;
#X msg -138 281 disconnect;
#X obj 89 388 unpack 0 0 0 0;
#X floatatom 89 411 3 0 0 0 - - -;
#X floatatom 120 411 3 0 0 0 - - -;
#X floatatom 152 411 3 0 0 0 - - -;
#X floatatom 184 411 3 0 0 0 - - -;
#X text 49 410 from;
#X obj 69 336 tcpclient;
#X obj 109 362 tgl 15 0 empty empty connected 18 7 0 8 -24198 -13381
-1 1 1;
#X msg -91 354 dump \$1;
#X obj -90 328 tgl 15 0 empty empty empty 0 -6 0 8 -4034 -13381 -1
0 1;
#X text 140 335 tcpclient opens a tcp socket to send and receive bytes
on;
#X text 120 462 Received messages are output as a list of bytes;
#X msg -47 200 send 49 127 128 51 59;
#X msg -193 54 send ../doc/5.reference/test.txt;
#X obj -145 78 openpanel;
#X msg -145 102 send \$1;
#X obj -145 33 bng 15 250 50 0 empty empty empty 17 7 0 10 -4034 -13381
-1;
#X text 42 54 send a file;
#X text -68 77 ...any file;
#X msg -8 223 71 69 84 32 104 116 116 112 58 47 47 47 105 110 100 101
120 46 104 116 109 108 13 10;
#X text 415 230 'send' prefix is optional;
#X obj 69 463 spigot;
#X obj 108 440 tgl 15 0 empty empty enable_print 18 7 0 8 -24198 -13381
-1 1 1;
#X floatatom 244 432 9 0 0 0 - - -;
#X text 66 263 set send-buffer size;
#X floatatom 294 406 9 0 0 0 - - -;
#X text 363 405 Size of the send buffer;
#X msg 40 287 buf;
#X text 70 286 get send-buffer size;
#X msg 16 263 buf 10;
#X msg 64 311 verbosity \$1;
#X obj 9 296 tgl 15 1 empty empty empty 0 -6 0 8 -4034 -13381 -1 1
1;
#X text 235 310 print connection status messages to main window (default)
;
#X text 141 491 Attempting to print long messages can hang Pd!;
#X msg -119 128 unblock;
#X obj 244 356 route sent buf blocked;
#X msg -164 156 hello \;;
#X obj -71 176 str to_list;
#X text 28 174 semicolon-terminated strings for netserver or netreceive
;
#X text -57 124 if the tcpclient sender blocks for any reason \, it
must be unblocked manually;
#X text 314 431 Number of bytes sent;
#X obj 344 382 print sender_blocked!;
#X obj 65 540 bytes2pp;
#X msg 112 88 91 91 91 50 54 54 49 44 50 56 54 93 93 44 91 91 49 51
54 53 44 52 49 56 93 93 93 13 10;
#X floatatom 64 572 5 0 0 0 - - -;
#X floatatom 101 572 5 0 0 0 - - -;
#X floatatom 138 573 5 0 0 0 - - -;
#X floatatom 176 573 5 0 0 0 - - -;
#X text -146 33 comment;
#X obj 95 22 inlet;
#X obj 63 620 outlet;
#X obj 112 619 outlet;
#X obj 161 618 outlet;
#X obj 207 618 outlet;
#X connect 0 0 7 0;
#X connect 1 0 2 0;
#X connect 1 1 3 0;
#X connect 1 2 4 0;
#X connect 1 3 5 0;
#X connect 7 0 22 0;
#X connect 7 1 1 0;
#X connect 7 2 8 0;
#X connect 7 3 36 0;
#X connect 9 0 7 0;
#X connect 10 0 9 0;
#X connect 13 0 7 0;
#X connect 14 0 7 0;
#X connect 15 0 16 0;
#X connect 16 0 7 0;
#X connect 17 0 15 0;
#X connect 20 0 7 0;
#X connect 22 0 43 0;
#X connect 23 0 22 1;
#X connect 28 0 7 0;
#X connect 30 0 7 0;
#X connect 31 0 7 0;
#X connect 32 0 31 0;
#X connect 35 0 7 0;
#X connect 36 0 24 0;
#X connect 36 1 26 0;
#X connect 36 2 42 0;
#X connect 37 0 38 0;
#X connect 38 0 7 0;
#X connect 43 0 45 0;
#X connect 43 1 46 0;
#X connect 43 2 47 0;
#X connect 43 3 48 0;
#X connect 44 0 43 0;
#X connect 45 0 51 0;
#X connect 46 0 52 0;
#X connect 47 0 53 0;
#X connect 48 0 54 0;
#X connect 50 0 7 0;
#X restore -207 26 pd laserclient;
#N canvas 358 84 1063 620 gridtrack 1;
#X obj 72 77 grid grid1 200 0 199 200 0 199 1 1 1 10 10 72 80.4636
;
#X floatatom 72 293 5 0 0 0 - - -;
#X floatatom 257 282 5 0 0 0 - - -;
#X text 41 21 Grid is a 2-dimensional control object;
#X text 319 449 (invoke with <right mouse>Properties );
#X text 322 439 You can set the following properties :;
#X text 347 468 * Name;
#X text 346 480 * Width : graphical x size;
#X text 346 491 * X min : minimum value delivered by left outlet (
X );
#X text 346 503 * X max : maximum value delivered by left outlet (
X );
#X text 347 513 * X step : X delta for an X update;
#X text 346 524 * X sections : number of vertical lines of the inner
grid;
#X text 347 534 * Height : graphical y size;
#X text 346 546 * Y min : minimum value delivered by right outlet (
Y );
#X text 347 558 * Y max : maximum value delivered by right outlet (
Y );
#X text 346 579 * Y sections : number of horizontal lines of the inner
grid;
#X text 347 591 * Show Grid : option to draw an inner grid;
#X text 328 609 bugs and comments @ ydegoyon@free.fr;
#X text 120 292 X value;
#X text 303 281 Y value;
#X msg 587 271 \; pd dsp 0;
#X msg 653 271 \; pd dsp 1;
#X obj 276 417 *~;
#X floatatom 276 360 0 0 0 0 - - -;
#X obj 357 397 line~;
#X floatatom 188 380 0 0 0 0 - - -;
#X obj 188 494 cos~;
#X obj 188 450 +~;
#X obj 276 385 osc~ 0;
#X obj 357 371 pack 0 50;
#X floatatom 357 318 0 0 0 0 - - -;
#X obj 357 345 / 100;
#X text 188 345 carrier;
#X text 184 355 frequency;
#X text 261 336 frequency;
#X text 262 319 modulation;
#X obj 188 407 phasor~;
#X msg 39 350 250;
#X obj 39 328 loadbang;
#X text 17 377 3-dimensional control;
#X text 16 389 would be nice :-);
#X text 393 310 modulation index;
#X text 393 325 in hundredths;
#X text 40 32 It was inspired by the chaospad device;
#X text 346 568 * Y step : Y delta for an Y update;
#X floatatom 474 85 5 0 0 0 - - -;
#X floatatom 586 84 5 0 0 0 - - -;
#X obj 411 82 pack f f;
#X msg 332 81 goto \$1 \$2;
#X msg 546 83 bang;
#X text 524 84 X;
#X text 333 63 Set position :;
#X text 631 85 Y;
#X floatatom 486 120 5 0 0 0 - - -;
#X floatatom 586 121 5 0 0 0 - - -;
#X obj 423 119 pack f f;
#X msg 546 120 bang;
#X text 530 120 X;
#X text 634 121 Y;
#X floatatom 528 156 5 0 0 0 - - -;
#X floatatom 633 156 5 0 0 0 - - -;
#X obj 465 153 pack f f;
#X msg 593 154 bang;
#X text 578 155 X;
#X text 679 156 Y;
#X floatatom 503 191 5 0 0 0 - - -;
#X floatatom 607 190 5 0 0 0 - - -;
#X obj 440 188 pack f f;
#X msg 568 189 bang;
#X text 553 190 X;
#X text 656 191 Y;
#X floatatom 539 224 5 0 0 0 - - -;
#X floatatom 638 226 5 0 0 0 - - -;
#X obj 472 223 pack f f;
#X msg 600 224 bang;
#X text 585 225 X;
#X text 685 225 Y;
#X msg 109 49 bang;
#X msg 332 118 values \$1 \$2;
#X text 333 100 Set values :;
#X text 331 135 Set deltas for values :;
#X msg 333 152 valuemotion \$1 \$2;
#X msg 333 187 xvalues \$1 \$2;
#X text 334 170 Set values without changing output :;
#X text 332 205 Set deltas for values without changing output:;
#X msg 334 223 xvaluemotion \$1 \$2;
#X msg 334 250 color 123 45 185;
#X text 461 250 change bg color ( from alberto zin );
#X obj 466 10 inlet;
#X obj 575 19 inlet;
#X obj 186 541 outlet~;
#X obj 364 38 d-scale 500 6000 0 200 100;
#X obj 484 59 d-scale 1000 3400 0 200 100;
#X obj 704 22 inlet;
#X obj 826 23 inlet;
#X obj 699 54 d-scale 500 6000 0 200 100;
#X obj 831 80 d-scale 1000 3400 0 200 100;
#X connect 0 0 1 0;
#X connect 0 1 2 0;
#X connect 1 0 23 0;
#X connect 2 0 30 0;
#X connect 22 0 27 1;
#X connect 23 0 28 0;
#X connect 24 0 22 1;
#X connect 25 0 36 0;
#X connect 26 0 90 0;
#X connect 27 0 26 0;
#X connect 28 0 22 0;
#X connect 29 0 24 0;
#X connect 30 0 31 0;
#X connect 31 0 29 0;
#X connect 36 0 27 0;
#X connect 37 0 25 0;
#X connect 38 0 37 0;
#X connect 45 0 47 0;
#X connect 46 0 47 1;
#X connect 46 0 49 0;
#X connect 47 0 48 0;
#X connect 48 0 0 0;
#X connect 49 0 45 0;
#X connect 53 0 55 0;
#X connect 54 0 55 1;
#X connect 54 0 56 0;
#X connect 55 0 78 0;
#X connect 56 0 53 0;
#X connect 59 0 61 0;
#X connect 60 0 61 1;
#X connect 60 0 62 0;
#X connect 61 0 81 0;
#X connect 62 0 59 0;
#X connect 65 0 67 0;
#X connect 66 0 67 1;
#X connect 66 0 68 0;
#X connect 67 0 82 0;
#X connect 68 0 65 0;
#X connect 71 0 73 0;
#X connect 72 0 73 1;
#X connect 72 0 74 0;
#X connect 73 0 85 0;
#X connect 74 0 71 0;
#X connect 77 0 0 0;
#X connect 78 0 0 0;
#X connect 81 0 0 0;
#X connect 82 0 0 0;
#X connect 85 0 0 0;
#X connect 86 0 0 0;
#X connect 88 0 91 0;
#X connect 89 0 92 0;
#X connect 91 0 45 0;
#X connect 92 0 46 0;
#X connect 93 0 95 0;
#X connect 94 0 96 0;
#X connect 95 0 59 0;
#X connect 96 0 60 0;
#X restore -205 70 pd gridtrack;
#X floatatom -159 112 0 0 100 0 - - -;
#N canvas 159 26 495 270 output 0;
#X obj 338 160 t b;
#X obj 338 110 f;
#X obj 338 60 inlet;
#X text 344 29 mute;
#X obj 338 185 f;
#X msg 425 178 0;
#X msg 338 85 bang;
#X obj 338 135 moses 1;
#X obj 425 153 t b f;
#X obj 397 117 moses 1;
#X obj 83 148 dbtorms;
#X obj 397 92 r master-lvl;
#X obj 83 42 r master-lvl;
#X obj 338 210 s master-lvl;
#X obj 22 182 inlet~;
#X obj 199 41 inlet;
#X text 199 18 level;
#X obj 199 100 s master-lvl;
#X msg 96 65 set \$1;
#X obj 96 89 outlet;
#X msg 214 64 \; pd dsp 1;
#X obj 83 194 line~;
#X obj 22 212 *~;
#X obj 22 241 dac~;
#X obj 83 171 pack 0 50;
#X text 20 159 audio;
#X text 93 110 show level;
#X connect 0 0 4 0;
#X connect 1 0 7 0;
#X connect 2 0 6 0;
#X connect 4 0 13 0;
#X connect 5 0 13 0;
#X connect 6 0 1 0;
#X connect 7 0 0 0;
#X connect 7 1 8 0;
#X connect 8 0 5 0;
#X connect 9 1 4 1;
#X connect 10 0 24 0;
#X connect 11 0 1 1;
#X connect 11 0 9 0;
#X connect 12 0 10 0;
#X connect 12 0 18 0;
#X connect 14 0 22 0;
#X connect 15 0 17 0;
#X connect 15 0 20 0;
#X connect 18 0 19 0;
#X connect 21 0 22 1;
#X connect 22 0 23 0;
#X connect 22 0 23 1;
#X connect 24 0 21 0;
#X restore -198 141 pd output;
#X msg -122 114 MUTE;
#X connect 0 0 2 0;
#X connect 2 0 3 0;
#X connect 2 1 3 1;
#X connect 2 2 3 2;
#X connect 2 3 3 3;
#X connect 3 0 5 0;
#X connect 4 0 5 1;
#X connect 5 0 4 0;
#X connect 6 0 5 2;
