#N canvas 559 115 843 563 10;
#X msg 238 147 create \, 1;
#X obj 276 203 gemwin;
#X msg 308 153 destroy;
#X obj 56 191 gemhead;
#X obj 76 377 pix_texture;
#X obj 76 424 square;
#X obj 74 352 pix_crop;
#X floatatom 128 257 5 0 0 0 - - -;
#X floatatom 171 257 5 0 0 0 - - -;
#X floatatom 210 257 5 0 0 0 - - -;
#X floatatom 254 258 5 0 0 0 - - -;
#X floatatom 105 405 5 0 0 0 - - -;
#X obj 82 292 pix_set 4 4;
#X msg 104 222 RGB;
#X msg 129 100 1 0 0 0 1 0 0 0 1 1 1 0 0 1 0 0 0 1 1 1 0 1 0 0 1 0
0 0 1 0 0 0 1 1 1 0 0 1 0 0 0 1 1 1 0 1 0 0;
#X obj 113 62 t b b;
#X obj 112 38 bng 15 250 50 0 empty empty empty 17 7 0 10 -262144 -1
-1;
#X obj 135 38 loadbang;
#X msg 142 348 quality \$1;
#X obj 145 319 tgl 15 0 empty empty empty 17 7 0 10 -262144 -1 -1 0
1;
#X connect 0 0 1 0;
#X connect 2 0 1 0;
#X connect 3 0 12 0;
#X connect 4 0 5 0;
#X connect 6 0 4 0;
#X connect 7 0 6 1;
#X connect 8 0 6 2;
#X connect 9 0 6 3;
#X connect 10 0 6 4;
#X connect 11 0 5 1;
#X connect 12 0 6 0;
#X connect 13 0 12 0;
#X connect 14 0 12 1;
#X connect 15 0 14 0;
#X connect 15 1 13 0;
#X connect 16 0 15 0;
#X connect 17 0 15 0;
#X connect 18 0 4 0;
#X connect 19 0 18 0;
