#N canvas 121 668 610 460 12;
#X obj 77 252 osc~;
#X obj 77 223 mtof;
#X obj 77 33 loadbang;
#X obj 125 252 osc~;
#X obj 77 282 *~;
#X obj 77 112 t b b;
#X obj 125 223 *;
#X obj 125 194 / 100;
#X obj 77 164 random 130;
#X obj 77 194 + 20;
#X obj 197 141 random 90;
#X obj 148 287 - 45;
#X obj 76 331 pan~;
#X obj 77 362 throw~ busL;
#X obj 172 363 throw~ busR;
#X obj 192 75 metro;
#X obj 273 209 + 1;
#X obj 273 233 * 150;
#X obj 155 35 r lbang;
#X obj 197 168 / 100;
#X obj 321 140 line~;
#X obj 77 307 *~;
#X obj 341 29 r fadeout;
#X msg 345 60 0 50;
#X msg 321 111 0 \, 1 50;
#X connect 0 0 4 0;
#X connect 1 0 0 0;
#X connect 2 0 5 0;
#X connect 2 0 15 0;
#X connect 3 0 4 1;
#X connect 4 0 21 0;
#X connect 5 0 8 0;
#X connect 5 1 10 0;
#X connect 6 0 3 0;
#X connect 7 0 6 0;
#X connect 8 0 7 0;
#X connect 8 0 9 0;
#X connect 9 0 1 0;
#X connect 10 0 11 0;
#X connect 10 0 16 0;
#X connect 10 0 19 0;
#X connect 11 0 12 1;
#X connect 12 0 13 0;
#X connect 12 1 14 0;
#X connect 15 0 5 0;
#X connect 16 0 17 0;
#X connect 17 0 15 1;
#X connect 18 0 5 0;
#X connect 18 0 15 0;
#X connect 18 0 24 0;
#X connect 19 0 6 1;
#X connect 20 0 21 1;
#X connect 21 0 12 0;
#X connect 22 0 23 0;
#X connect 23 0 20 0;
#X connect 24 0 20 0;
