#N canvas 0 0 450 300 10;
#X obj 10 36 print;
#X obj 10 11 netreceive 30321;
#X obj 249 13 loadbang;
#X msg 293 56 yo;
#X obj 293 79 print started;
#X msg 152 85 send hey yo what;
#X obj 249 34 t b b b;
#X obj 152 65 delay 1000;
#X msg 271 107 connect 127.0.0.1 30322;
#X obj 271 129 netsend;
#X connect 1 0 0 0;
#X connect 2 0 6 0;
#X connect 3 0 4 0;
#X connect 5 0 9 0;
#X connect 6 0 7 0;
#X connect 6 1 8 0;
#X connect 6 2 3 0;
#X connect 7 0 5 0;
#X connect 8 0 9 0;
