#N canvas 381 149 433 555 10;
#X obj 57 147 s gemhead;
#X obj 50 -8 gemhead 20;
#N canvas 943 174 516 481 framebuffer 1;
#X obj -181 156 separator;
#X obj -208 211 t a b;
#X msg -181 240 snap;
#X obj -208 306 t a b;
#X msg -25 396 1;
#X obj 97 84 gemhead 30;
#X obj 97 180 t a b;
#X msg 152 181 1;
#X obj 97 269 pix_texture;
#X obj 97 215 pix_buffer_read \$0-framebuffer;
#X obj -208 421 pix_buffer_write \$0-framebuffer;
#X obj -181 181 outlet;
#X obj -208 43 inlet;
#X obj 97 297 translateXYZ 0 0 0;
#X obj -208 282 pix_snap 0 0 256 256;
#X obj 97 415 rectangle 4 4;
#X obj -121 213 pix_buffer \$0-framebuffer 2;
#X msg 112 245 quality 1;
#X floatatom -104 84 5 0 0 0 - - -;
#X obj -208 109 translateXYZ 0 0 -4;
#X obj -208 76 gemframebuffer;
#X obj 97 129 spigot;
#X obj 97 378 spigot;
#X obj 130 107 r \$0-switch;
#X obj -208 131 t a a;
#X obj 130 351 r \$0-switch;
#X text -48 325 Apply effects here >>>;
#X connect 0 0 11 0;
#X connect 1 0 14 0;
#X connect 1 1 2 0;
#X connect 2 0 14 0;
#X connect 3 0 10 0;
#X connect 3 1 4 0;
#X connect 4 0 10 1;
#X connect 5 0 21 0;
#X connect 6 0 9 0;
#X connect 6 1 7 0;
#X connect 7 0 9 1;
#X connect 8 0 13 0;
#X connect 9 0 8 0;
#X connect 12 0 20 0;
#X connect 13 0 22 0;
#X connect 14 0 3 0;
#X connect 17 0 8 0;
#X connect 18 0 19 3;
#X connect 19 0 24 0;
#X connect 20 0 19 0;
#X connect 21 0 6 0;
#X connect 22 0 15 0;
#X connect 23 0 21 1;
#X connect 24 0 1 0;
#X connect 24 1 0 0;
#X connect 25 0 22 1;
#X restore 77 111 pd framebuffer;
#X obj 52 61 == 0;
#X obj 57 253 pix_image;
#X obj 57 425 pix_texture;
#X obj 57 305 alpha;
#N canvas 649 274 317 324 openpanel 0;
#X obj 114 62 inlet;
#X obj 114 253 outlet;
#X obj 114 125 openpanel;
#X msg 114 184 open \$1;
#X connect 0 0 2 0;
#X connect 2 0 3 0;
#X connect 3 0 1 0;
#X restore 68 225 pd openpanel;
#X floatatom 91 333 5 0 0 0 - - -;
#X obj 57 472 sphere 5.5 50;
#X obj 57 171 r gemhead;
#X obj 57 361 rotateXYZ;
#X obj 57 393 translateXYZ;
#X obj 57 277 colorRGB 0.67 0 0.1 1;
#X obj 68 201 bng 15 250 50 0 empty empty empty 17 7 0 10 -262144 -1
-1;
#X obj 77 85 spigot;
#X obj 125 -7 tgl 15 0 empty empty empty 17 7 0 10 -262144 -1 -1 0
1;
#X obj 50 14 t a a;
#X obj 125 12 t f f f;
#X floatatom 180 254 5 0 0 0 - - -;
#X obj 164 40 s \$0-switch;
#N canvas 6 47 450 300 gemwin 0;
#X obj 64 22 inlet;
#X obj 73 225 gemwin;
#X msg 0 93 0 \, destroy;
#X msg 51 137 border 0 \, FSSA 8 \, create \, 1;
#X msg 73 162 reset \, offset 1600 0 \, dimen 1024 1024;
#X obj 64 44 sel 0;
#X obj 91 70 t b b;
#X connect 0 0 5 0;
#X connect 2 0 1 0;
#X connect 3 0 1 0;
#X connect 4 0 1 0;
#X connect 5 0 2 0;
#X connect 5 1 6 0;
#X connect 6 0 3 0;
#X connect 6 1 4 0;
#X restore -98 33 pd gemwin;
#X obj -98 11 tgl 15 0 empty empty empty 17 7 0 10 -262144 -1 -1 0
1;
#X obj 7 87 spigot 1;
#X text -74 10 1_______;
#X text 91 200 2______Open Image;
#X text 180 -10 3__ switch btw normal \; and pix_buffer rendering;
#X connect 1 0 17 0;
#X connect 2 0 0 0;
#X connect 3 0 23 1;
#X connect 4 0 13 0;
#X connect 5 0 9 0;
#X connect 6 0 11 0;
#X connect 7 0 4 0;
#X connect 8 0 11 2;
#X connect 10 0 4 0;
#X connect 11 0 12 0;
#X connect 12 0 5 0;
#X connect 13 0 6 0;
#X connect 14 0 7 0;
#X connect 15 0 2 0;
#X connect 16 0 18 0;
#X connect 17 0 23 0;
#X connect 17 1 15 0;
#X connect 18 0 3 0;
#X connect 18 1 15 1;
#X connect 18 2 20 0;
#X connect 19 0 13 4;
#X connect 22 0 21 0;
#X connect 23 0 0 0;
