#N canvas 0 0 450 300 10;
#X obj 245 117 tgl 15 0 empty empty empty 0 -6 0 8 -262144 -1 -1 0
1;
#X floatatom 208 59 5 0 0;
#X floatatom 208 182 5 0 0;
#X obj 208 138 spig 1;
#X obj 152 138 spig 0;
#X floatatom 152 180 5 0 0;
#X obj 189 118 tgl 15 0 empty empty empty 0 -6 0 8 -262144 -1 -1 1
1;
#X connect 0 0 3 1;
#X connect 1 0 3 0;
#X connect 1 0 4 0;
#X connect 3 0 2 0;
#X connect 4 0 5 0;
#X connect 6 0 4 1;
