#N canvas 399 97 925 656 12;
#X obj 441 576 gemwin;
#X msg 437 515 create \, 1;
#X msg 484 547 destroy;
#X obj 58 177 glsl_vertex;
#X obj 59 313 glsl_fragment;
#X obj 143 211 change;
#X obj 160 342 change;
#X obj 155 385 t b f;
#X obj 153 418 pack 0 0;
#X obj 60 490 glsl_program;
#X msg 154 454 link \$1 \$2;
#X obj 60 567 pix_texture;
#X obj 187 69 bng 15 250 50 0 empty empty empty 17 7 0 10 -262144 -1
-1;
#X obj 69 33 gemhead 50;
#X obj 508 77 gemhead 23;
#X obj 511 259 pix_texture;
#X msg 519 221 texunit 1;
#X obj 664 260 pix_texture;
#X obj 661 78 gemhead 24;
#X floatatom 212 525 5 0 0 0 - - -;
#X obj 70 60 t a a;
#X obj 348 384 loadbang;
#X obj 762 53 loadbang;
#X obj 60 600 square 4;
#X obj 565 383 pix_image img1_.jpg;
#X obj 506 163 pix_image img2_.jpg;
#X obj 659 164 pix_image img3_.jpg;
#X msg 278 474 texunit 2;
#X msg 672 222 texunit 0;
#X floatatom 253 333 5 0 0 0 - - -;
#X msg 229 387 curtex \$1;
#X msg 136 99 open trivialshader_norec.vert;
#X msg 114 259 open trivialshader_norec.frag;
#X obj 584 313 gemhead 23;
#X obj 587 495 pix_texture;
#X msg 595 457 texunit 2;
#X obj 185 42 loadbang;
#X connect 1 0 0 0;
#X connect 2 0 0 0;
#X connect 3 0 4 0;
#X connect 3 1 5 0;
#X connect 4 0 9 0;
#X connect 4 1 6 0;
#X connect 5 0 8 0;
#X connect 6 0 7 0;
#X connect 7 0 8 0;
#X connect 7 1 8 1;
#X connect 8 0 10 0;
#X connect 9 0 11 0;
#X connect 9 1 19 0;
#X connect 10 0 9 0;
#X connect 11 0 23 0;
#X connect 12 0 31 0;
#X connect 12 0 32 0;
#X connect 13 0 20 0;
#X connect 14 0 25 0;
#X connect 16 0 15 0;
#X connect 18 0 26 0;
#X connect 20 0 3 0;
#X connect 21 0 27 0;
#X connect 22 0 28 0;
#X connect 22 0 16 0;
#X connect 22 0 35 0;
#X connect 24 0 34 0;
#X connect 25 0 15 0;
#X connect 26 0 17 0;
#X connect 27 0 11 0;
#X connect 28 0 17 0;
#X connect 29 0 30 0;
#X connect 30 0 9 0;
#X connect 31 0 3 0;
#X connect 32 0 4 0;
#X connect 33 0 24 0;
#X connect 35 0 34 0;
#X connect 36 0 12 0;
