#N canvas 204 81 560 395 10;
#X symbolatom 78 187 20 0 0 3 filename - -;
#N canvas 456 143 670 468 GET_FILENAME 0;
#X obj 173 147 route savetofile;
#X obj 173 167 unpack s s;
#X obj 173 126 iemguts/receivecanvas 1;
#X text 176 99 Get new saved file;
#X obj 173 210 outlet;
#X obj 230 206 outlet;
#X connect 0 0 1 0;
#X connect 1 0 4 0;
#X connect 1 1 5 0;
#X connect 2 0 0 0;
#X coords 0 468 1 467 50 10 0;
#X restore 78 104 pd GET_FILENAME;
#X text 181 102 <- iemguts;
#X text 92 25 Save this file and get the new filename;
#X symbolatom 165 146 40 0 0 3 folder - -;
#X connect 1 0 0 0;
#X connect 1 1 4 0;
