#N canvas 846 101 931 998 10;
#X msg 393 42 create \, 1;
#X obj 393 64 gemwin;
#X obj 61 389 gemhead;
#X obj 62 540 pix_texture;
#X obj 62 602 rectangle 1 1;
#X obj 269 539 pix_texture;
#X obj 269 601 rectangle 1 1;
#X obj 269 561 translateXYZ 0 0 0;
#X obj 642 236 pix_texture;
#X obj 481 604 rectangle 1 1;
#X obj 481 564 translateXYZ 2 0 0;
#X obj 61 416 alpha;
#X obj 61 562 translateXYZ -2 0 0;
#X obj 642 214 pix_multiimage textures/top/top_*.png 10;
#X obj 701 83 metro;
#X obj 701 125 random 10;
#X obj 731 105 random 500;
#X obj 706 59 tgl 15 0 empty empty empty 17 7 0 10 -262144 -1 -1 0
1;
#X obj 482 525 pix_texture;
#X obj 642 157 gemhead;
#X obj 642 184 alpha;
#X obj 273 302 pix_texture;
#X obj 273 280 pix_multiimage textures/top/top_*.png 10;
#X obj 332 149 metro;
#X obj 332 191 random 10;
#X obj 362 171 random 500;
#X obj 337 125 tgl 15 0 empty empty empty 17 7 0 10 -262144 -1 -1 0
1;
#X obj 273 223 gemhead;
#X obj 273 250 alpha;
#X obj 28 178 pix_texture;
#X obj 28 156 pix_multiimage textures/top/top_*.png 10;
#X obj 87 25 metro;
#X obj 87 67 random 10;
#X obj 117 47 random 500;
#X obj 92 1 tgl 15 0 empty empty empty 17 7 0 10 -262144 -1 -1 0 1
;
#X obj 28 99 gemhead;
#X obj 28 126 alpha;
#X connect 0 0 1 0;
#X connect 2 0 11 0;
#X connect 3 0 12 0;
#X connect 5 0 7 0;
#X connect 7 0 6 0;
#X connect 8 1 18 1;
#X connect 10 0 9 0;
#X connect 11 0 3 0;
#X connect 11 0 5 0;
#X connect 11 0 18 0;
#X connect 12 0 4 0;
#X connect 13 0 8 0;
#X connect 14 0 15 0;
#X connect 14 0 16 0;
#X connect 15 0 13 1;
#X connect 16 0 14 1;
#X connect 17 0 14 0;
#X connect 18 0 10 0;
#X connect 19 0 20 0;
#X connect 20 0 13 0;
#X connect 21 1 5 1;
#X connect 22 0 21 0;
#X connect 23 0 24 0;
#X connect 23 0 25 0;
#X connect 24 0 22 1;
#X connect 25 0 23 1;
#X connect 26 0 23 0;
#X connect 27 0 28 0;
#X connect 28 0 22 0;
#X connect 29 1 3 1;
#X connect 30 0 29 0;
#X connect 31 0 32 0;
#X connect 31 0 33 0;
#X connect 32 0 30 1;
#X connect 33 0 31 1;
#X connect 34 0 31 0;
#X connect 35 0 36 0;
#X connect 36 0 30 0;
