#N canvas 605 184 1276 751 10;
#X obj 29 241 gemframebuffer;
#X obj 125 167 loadbang;
#X obj 320 414 pix_texture;
#X obj 29 438 rotateXYZ;
#X floatatom 189 468 5 0 360 0 rotateZ - -;
#X obj 320 272 gemhead 20;
#X obj 320 356 gemframebuffer;
#X obj 414 282 loadbang;
#X obj 29 394 pix_image;
#X obj 29 263 translateXYZ 0 0 -4;
#X obj 320 385 translateXYZ 0 0 -4;
#X obj 47 328 bng 15 250 50 0 empty empty empty 17 7 0 10 -262144 -1
-1;
#X obj 47 348 openpanel;
#X msg 47 370 open \$1;
#X obj 29 285 t a a;
#X obj 146 375 pix_texture;
#X obj 581 443 pix_texture;
#X obj 581 480 square 4;
#X obj 29 211 gemhead 10;
#X obj 581 381 gemhead 30;
#X obj 320 471 square 4;
#X obj 29 575 square 4;
#X obj 146 403 square 4;
#X obj 29 477 pix_texture;
#X obj 24 98 gemwin;
#X msg 24 48 create \, 1;
#X msg 34 68 destroy;
#X floatatom 189 495 5 0 100 0 blur_amount - -;
#X obj 29 541 colorRGB;
#X obj 29 507 alpha;
#X msg 125 192 dimen 256 256 \, format RGB32;
#X msg 414 307 dimen 256 256 \, format RGB32;
#X connect 0 0 9 0;
#X connect 0 1 2 1;
#X connect 1 0 30 0;
#X connect 2 0 20 0;
#X connect 3 0 23 0;
#X connect 4 0 3 3;
#X connect 5 0 6 0;
#X connect 6 0 10 0;
#X connect 6 1 15 1;
#X connect 6 1 16 1;
#X connect 7 0 31 0;
#X connect 8 0 3 0;
#X connect 9 0 14 0;
#X connect 10 0 2 0;
#X connect 11 0 12 0;
#X connect 12 0 13 0;
#X connect 13 0 8 0;
#X connect 14 0 8 0;
#X connect 14 1 15 0;
#X connect 15 0 22 0;
#X connect 16 0 17 0;
#X connect 18 0 0 0;
#X connect 19 0 16 0;
#X connect 23 0 29 0;
#X connect 25 0 24 0;
#X connect 26 0 24 0;
#X connect 27 0 28 4;
#X connect 28 0 21 0;
#X connect 29 0 28 0;
#X connect 30 0 0 0;
#X connect 31 0 6 0;
