#N canvas 441 22 805 544 10;
#X obj 18 323 gemwin;
#X msg 17 68 create;
#X obj 144 32 gemhead;
#X msg 31 93 destroy;
#X msg 46 114 1;
#X msg 61 142 0;
#X obj 144 116 pix_texture;
#X obj 144 73 pix_image ../data/fractal.JPG;
#N canvas 91 174 290 179 Gem.init 0;
#X obj 83 30 loadbang;
#X msg 161 76 reset;
#X obj 45 107 outlet;
#X obj 88 51 t b b;
#X msg 45 75 dimen 640 480;
#X connect 0 0 3 0;
#X connect 1 0 2 0;
#X connect 3 0 4 0;
#X connect 3 1 1 0;
#X connect 4 0 2 0;
#X restore 33 294 pd Gem.init;
#X obj 143 4 tgl 15 0 empty empty empty 17 7 0 10 -262144 -1 -1 1 1
;
#X obj 392 20 tgl 15 0 empty empty empty 17 7 0 10 -262144 -1 -1 0
1;
#X floatatom 179 410 5 0 0 0 - - -;
#X msg 58 402 draw fill;
#X obj 222 1 bng 15 250 50 0 empty empty empty 0 -6 0 8 -262144 -1
-1;
#N canvas 0 22 450 300 openpanel 0;
#X obj 114 62 inlet;
#X obj 121 254 outlet;
#X obj 114 125 openpanel;
#X msg 114 162 set open \$1;
#X obj 114 199 t b a;
#X connect 0 0 2 0;
#X connect 2 0 3 0;
#X connect 3 0 4 0;
#X connect 4 0 1 0;
#X connect 4 1 1 0;
#X restore 222 22 pd openpanel;
#X msg 301 -40 open /Users/joliverl/Documents/JAIME/UCSD_backup_FEB_2008/0UCSD/0Projects/0handtrack/img/MVI_3634.jpg
;
#N canvas 568 22 613 582 coordtranslation 0;
#X floatatom 256 71 5 0 0 0 - - -;
#X floatatom 374 69 5 0 0 0 - - -;
#X obj 224 150 -;
#X obj 256 90 / 2;
#X floatatom 243 133 5 0 0 0 - - -;
#X floatatom 224 172 5 0 0 0 - - -;
#X obj 224 189 /;
#X obj 256 108 t f f;
#X floatatom 224 211 5 0 0 0 - - -;
#X floatatom -47 13 5 0 0 0 - - -;
#X obj 255 47 r pix_ver_size;
#X obj 373 46 r pix_hor_size;
#X obj 342 147 -;
#X obj 374 87 / 2;
#X floatatom 361 130 5 0 0 0 - - -;
#X floatatom 342 169 5 0 0 0 - - -;
#X obj 342 186 /;
#X obj 374 105 t f f;
#X floatatom 342 208 5 0 0 0 - - -;
#X obj 225 300 *;
#X floatatom 223 12 5 0 0 0 - - -;
#X floatatom 343 9 5 0 0 0 - - -;
#X floatatom 243 273 5 0 0 0 - - -;
#X floatatom 360 272 5 0 0 0 - - -;
#X obj 242 249 r GL_ver_size;
#X obj 359 249 r GL_hor_size;
#X floatatom 224 323 5 0 0 0 - - -;
#X obj 343 301 *;
#X floatatom 342 324 5 0 0 0 - - -;
#X msg 464 205;
#X msg 24 513 480;
#X msg 134 511 640;
#X obj 24 537 s pix_ver_size;
#X obj 135 535 s pix_hor_size;
#X obj 251 534 s GL_ver_size;
#X obj 362 532 s GL_hor_size;
#X msg 251 510 3;
#X msg 361 508 4;
#X obj 192 475 loadbang;
#X floatatom -30 71 5 0 0 0 - - -;
#X floatatom 87 70 5 0 0 0 - - -;
#X obj -31 47 r GL_ver_size;
#X obj 86 47 r GL_hor_size;
#X floatatom 70 14 5 0 0 0 - - -;
#X obj 70 99 /;
#X obj -48 98 /;
#X floatatom -10 150 5 0 0 0 - - -;
#X floatatom 108 148 5 0 0 0 - - -;
#X obj -10 169 / 2;
#X obj -10 187 t f f;
#X obj -11 126 r pix_ver_size;
#X obj 107 125 r pix_hor_size;
#X obj 108 166 / 2;
#X obj 108 184 t f f;
#X obj -47 223 *;
#X floatatom -47 246 5 0 0 0 - - -;
#X obj -47 266 +;
#X floatatom -47 290 5 0 0 0 - - -;
#X obj 71 225 *;
#X floatatom 71 248 5 0 0 0 - - -;
#X obj 71 268 +;
#X floatatom 71 292 5 0 0 0 - - -;
#X connect 0 0 3 0;
#X connect 1 0 13 0;
#X connect 2 0 5 0;
#X connect 3 0 7 0;
#X connect 4 0 2 1;
#X connect 5 0 6 0;
#X connect 6 0 8 0;
#X connect 7 0 4 0;
#X connect 7 1 6 1;
#X connect 8 0 19 0;
#X connect 9 0 45 0;
#X connect 10 0 0 0;
#X connect 11 0 1 0;
#X connect 12 0 15 0;
#X connect 13 0 17 0;
#X connect 14 0 12 1;
#X connect 15 0 16 0;
#X connect 16 0 18 0;
#X connect 17 0 14 0;
#X connect 17 1 16 1;
#X connect 18 0 27 0;
#X connect 19 0 26 0;
#X connect 20 0 2 0;
#X connect 21 0 12 0;
#X connect 22 0 19 1;
#X connect 23 0 27 1;
#X connect 24 0 22 0;
#X connect 25 0 23 0;
#X connect 27 0 28 0;
#X connect 30 0 32 0;
#X connect 31 0 33 0;
#X connect 36 0 34 0;
#X connect 37 0 35 0;
#X connect 38 0 30 0;
#X connect 38 0 31 0;
#X connect 38 0 36 0;
#X connect 38 0 37 0;
#X connect 39 0 45 1;
#X connect 40 0 44 1;
#X connect 41 0 39 0;
#X connect 42 0 40 0;
#X connect 43 0 44 0;
#X connect 44 0 58 0;
#X connect 45 0 54 0;
#X connect 46 0 48 0;
#X connect 47 0 52 0;
#X connect 48 0 49 0;
#X connect 49 0 54 1;
#X connect 49 1 56 1;
#X connect 50 0 46 0;
#X connect 51 0 47 0;
#X connect 52 0 53 0;
#X connect 53 0 58 1;
#X connect 53 1 60 1;
#X connect 54 0 55 0;
#X connect 55 0 56 0;
#X connect 56 0 57 0;
#X connect 58 0 59 0;
#X connect 59 0 60 0;
#X connect 60 0 61 0;
#X restore 367 448 pd coordtranslation;
#N canvas 0 22 421 486 recttest 0;
#X obj -33 43 gemhead;
#X obj -33 366 pix_coordinate;
#X obj -33 115 pix_texture;
#X msg 79 224 0 0 1 0 1 1 0 1;
#X msg 85 250 0 0 0.5 0 0.5 0.5 0 0.5;
#X floatatom 116 282 5 0 0 0 - - -;
#X text -26 167 set the texture coordinates [x1 y1 x2 y2 x3 y3 x4 y4]
;
#X msg 116 305 0 0 \$1 0 \$1 \$1 0 \$1;
#X floatatom 21 398 5 0 0 0 - - -;
#X obj -33 254 translateXYZ;
#X floatatom -12 194 5 0 0 0 - - -;
#X floatatom 3 212 5 0 0 0 - - -;
#X floatatom 27 231 5 0 0 0 - - -;
#X obj 80 50 loadbang;
#X msg 65 200 0 0 3 0 3 3 0 3;
#X obj -33 421 rectangle 4 3;
#X msg 76 128 0;
#X msg 87 348 640 480 0 480 0 0 640 0;
#X obj -31 13 inlet;
#X obj 38 18 inlet;
#X connect 0 0 2 0;
#X connect 1 0 15 0;
#X connect 2 0 9 0;
#X connect 3 0 1 1;
#X connect 4 0 1 1;
#X connect 5 0 7 0;
#X connect 7 0 1 1;
#X connect 8 0 15 1;
#X connect 9 0 1 0;
#X connect 10 0 9 1;
#X connect 11 0 9 2;
#X connect 12 0 9 3;
#X connect 13 0 16 0;
#X connect 13 0 17 0;
#X connect 14 0 1 1;
#X connect 16 0 10 0;
#X connect 16 0 11 0;
#X connect 17 0 1 1;
#X connect 18 0 0 0;
#X connect 19 0 2 1;
#X restore 391 58 pd recttest;
#X obj 141 477 circle;
#X msg 62 377 draw line;
#X obj 143 149 pix_coordinate;
#X floatatom 528 25 3 0 256 0 - - -;
#X msg 394 136 0 0 1 0 1 1 0 1;
#X msg 533 86 0 0 \$1 0 \$1 \$1 0 \$1;
#X floatatom 530 67 5 0 0 0 - - -;
#X obj 142 371 translateXYZ;
#X floatatom 167 320 5 0 0 0 - - -;
#X floatatom 212 322 5 0 0 0 - - -;
#X msg 394 116 1 0 1 1 0 1 0 0;
#X floatatom 533 113 5 0 0 0 - - -;
#X msg 536 132 0 0 \$1 0 \$1 \$1;
#X msg 396 157 1 1 0 1 0 0;
#X msg 528 42 \$1 \$1 0 \$1 0 0;
#X obj 143 236 rotateXYZ;
#X floatatom 155 215 5 0 0 0 - - -;
#X floatatom 200 217 5 0 0 0 - - -;
#X obj 325 266 t b f;
#X obj 374 266 t b f;
#X obj 423 266 t b f;
#X obj 467 266 t b f;
#X obj 512 266 t b f;
#X floatatom 279 213 5 0 0 0 - - -;
#X floatatom 324 212 5 0 0 0 - - -;
#X floatatom 373 211 5 0 0 0 - - -;
#X floatatom 422 211 5 0 0 0 - - -;
#X floatatom 467 211 5 0 0 0 - - -;
#X floatatom 513 211 5 0 0 0 - - -;
#X obj 558 264 t b f;
#X floatatom 559 209 5 0 0 0 - - -;
#X obj 605 264 t b f;
#X floatatom 606 209 5 0 0 0 - - -;
#X obj 427 369 pack f f f f f f f f f f;
#X obj 651 264 t b f;
#X floatatom 652 209 5 0 0 0 - - -;
#X obj 698 264 t b f;
#X floatatom 699 209 5 0 0 0 - - -;
#X msg 183 190 180;
#X text 380 432 comment;
#X connect 1 0 0 0;
#X connect 2 0 7 0;
#X connect 3 0 0 0;
#X connect 4 0 0 0;
#X connect 5 0 0 0;
#X connect 6 0 20 0;
#X connect 6 1 17 1;
#X connect 7 0 6 0;
#X connect 8 0 0 0;
#X connect 9 0 2 0;
#X connect 10 0 17 0;
#X connect 11 0 18 1;
#X connect 12 0 18 0;
#X connect 13 0 14 0;
#X connect 14 0 15 0;
#X connect 15 0 7 0;
#X connect 19 0 18 0;
#X connect 20 0 33 0;
#X connect 21 0 32 0;
#X connect 22 0 20 1;
#X connect 23 0 20 1;
#X connect 24 0 23 0;
#X connect 25 0 18 0;
#X connect 26 0 25 1;
#X connect 27 0 25 2;
#X connect 28 0 20 1;
#X connect 29 0 30 0;
#X connect 30 0 20 1;
#X connect 31 0 20 1;
#X connect 32 0 20 1;
#X connect 33 0 25 0;
#X connect 34 0 33 1;
#X connect 35 0 33 2;
#X connect 36 0 51 0;
#X connect 36 1 51 1;
#X connect 37 0 51 0;
#X connect 37 1 51 2;
#X connect 38 0 51 0;
#X connect 38 1 51 3;
#X connect 39 0 51 0;
#X connect 39 1 51 4;
#X connect 40 0 51 0;
#X connect 40 1 51 5;
#X connect 41 0 51 0;
#X connect 42 0 36 0;
#X connect 43 0 37 0;
#X connect 44 0 38 0;
#X connect 45 0 39 0;
#X connect 46 0 40 0;
#X connect 47 0 51 0;
#X connect 47 1 51 6;
#X connect 48 0 47 0;
#X connect 49 0 51 0;
#X connect 49 1 51 7;
#X connect 50 0 49 0;
#X connect 51 0 20 1;
#X connect 52 0 51 0;
#X connect 52 1 51 8;
#X connect 53 0 52 0;
#X connect 54 0 51 0;
#X connect 54 1 51 9;
#X connect 55 0 54 0;
#X connect 56 0 34 0;
#X connect 56 0 35 0;
