#N canvas 750 211 492 374 10;
#X msg 137 49 0;
#X obj 15 306 tabwrite~ \$0-threshold-test;
#X obj 15 326 table \$0-threshold-test 64;
#X obj 15 17 bng 15 250 50 0 empty empty empty 0 -6 0 8 -262144 -1
-1;
#X floatatom 55 51 5 0 0 0 - - -;
#X obj 202 49 metro 1.45;
#X obj 198 22 tgl 15 0 empty empty empty 0 -6 0 8 -262144 -1 -1 0 1
;
#X floatatom 283 25 5 0 0 0 - - -;
#X obj 55 179 +~;
#X obj 55 205 -~ 1;
#X obj 162 109 threshold~ 0.5;
#X msg 162 129 0;
#X obj 80 149 vhasor~ 689;
#X obj 55 79 vhasor~ 689;
#X connect 0 0 10 1;
#X connect 0 0 12 1;
#X connect 0 0 13 1;
#X connect 3 0 1 0;
#X connect 3 0 0 0;
#X connect 4 0 12 0;
#X connect 4 0 13 0;
#X connect 5 0 1 0;
#X connect 5 0 0 0;
#X connect 6 0 5 0;
#X connect 7 0 5 1;
#X connect 8 0 9 0;
#X connect 9 0 1 0;
#X connect 10 0 11 0;
#X connect 11 0 12 1;
#X connect 12 0 8 1;
#X connect 13 0 8 0;
#X connect 13 0 10 0;
