#N canvas 390 152 572 454 12;
#X obj 34 35 r n3-p1;
#X obj 177 35 r n3-p3;
#X obj 103 36 r n3-p2;
#X obj 177 64 bng 15 250 50 0 empty empty empty 0 -6 0 8 -262144 -1
-1;
#X obj 104 67 bng 15 250 50 0 empty empty empty 0 -6 0 8 -262144 -1
-1;
#X obj 35 63 bng 15 250 50 0 empty empty empty 0 -6 0 8 -262144 -1
-1;
#X obj 33 100 r n2-p1;
#X obj 102 100 r n2-p2;
#X obj 34 136 bng 15 250 50 0 empty empty empty 0 -6 0 8 -262144 -1
-1;
#X obj 99 135 bng 15 250 50 0 empty empty empty 0 -6 0 8 -262144 -1
-1;
#X obj 300 34 r n8-p1;
#X obj 331 59 r n8-p2;
#X obj 386 34 r n8-p3;
#X obj 303 107 bng 15 250 50 0 empty empty empty 0 -6 0 8 -262144 -1
-1;
#X obj 342 109 bng 15 250 50 0 empty empty empty 0 -6 0 8 -262144 -1
-1;
#X obj 379 109 bng 15 250 50 0 empty empty empty 0 -6 0 8 -262144 -1
-1;
#X obj 239 241 bng 15 250 50 0 empty empty empty 0 -6 0 8 -262144 -1
-1;
#X obj 345 241 bng 15 250 50 0 empty empty empty 0 -6 0 8 -262144 -1
-1;
#X obj 278 243 bng 15 250 50 0 empty empty empty 0 -6 0 8 -262144 -1
-1;
#X obj 315 243 bng 15 250 50 0 empty empty empty 0 -6 0 8 -262144 -1
-1;
#X obj 237 168 r n12-p1;
#X obj 322 168 r n12-p3;
#X obj 267 193 r n12-p2;
#X obj 344 204 r n12-p4;
#X obj 32 198 r n4-p1;
#X obj 36 256 bng 15 250 50 0 empty empty empty 0 -6 0 8 -262144 -1
-1;
#X obj 50 278 bng 15 250 50 0 empty empty empty 0 -6 0 8 -262144 -1
-1;
#X obj 70 301 bng 15 250 50 0 empty empty empty 0 -6 0 8 -262144 -1
-1;
#X obj 87 324 bng 15 250 50 0 empty empty empty 0 -6 0 8 -262144 -1
-1;
#X obj 83 271 r n4-p4;
#X obj 66 248 r n4-p3;
#X obj 46 225 r n4-p2;
#X connect 0 0 5 0;
#X connect 1 0 3 0;
#X connect 2 0 4 0;
#X connect 6 0 8 0;
#X connect 7 0 9 0;
#X connect 10 0 13 0;
#X connect 11 0 14 0;
#X connect 12 0 15 0;
#X connect 20 0 16 0;
#X connect 21 0 19 0;
#X connect 22 0 18 0;
#X connect 23 0 17 0;
#X connect 24 0 25 0;
#X connect 29 0 28 0;
#X connect 30 0 27 0;
#X connect 31 0 26 0;
