#N canvas 489 293 612 314 10;
#X obj 147 151 + 1;
#X msg 147 47 bang;
#X obj 147 99 metro 500;
#X obj 147 125 float;
#X obj 147 73 trigger bang bang;
#X msg 261 105 0;
#X text 184 46 <--- click here to start;
#X obj 56 79 select 9;
#X floatatom 109 199 5 0 0 0 - - -;
#X obj 148 172 t f f;
#X msg 56 105 0;
#X connect 0 0 9 0;
#X connect 1 0 4 0;
#X connect 2 0 3 0;
#X connect 3 0 0 0;
#X connect 4 0 2 0;
#X connect 4 1 5 0;
#X connect 5 0 3 1;
#X connect 7 0 10 0;
#X connect 7 1 8 0;
#X connect 9 0 7 0;
#X connect 9 1 3 1;
#X connect 10 0 3 0;
