#N canvas 434 33 994 738 12;
#X floatatom 133 405 5 0 0 0 - - -;
#X floatatom 452 384 5 0 0 0 - - -;
#X floatatom 725 430 5 0 0 0 - - -;
#X floatatom 429 285 5 0 0 0 - - -;
#X obj 319 483 gemhead;
#X obj 319 614 sphere;
#X text 421 587 change the number of slices;
#X msg 384 588 15;
#X msg 347 588 5;
#X obj 319 509 translateXYZ;
#X floatatom 133 450 5 0 0 0 - - -;
#X floatatom 452 432 5 0 0 0 - - -;
#X floatatom 725 479 5 0 0 0 - - -;
#X obj 133 426 * 1;
#X obj 452 406 * 1;
#X obj 725 453 * 1;
#X obj 319 561 scaleXYZ 0.1;
#X floatatom 379 538 5 0 0 0 - - -;
#X obj 405 72 r master-timer;
#X obj 602 196 \$1;
#X obj 283 120 loadbang;
#X obj 431 245 expr ($f1 / $f2) - $f3;
#X msg 515 219 10;
#X obj 437 98 r master-divisor;
#X obj 283 143 r init-bang;
#X obj 283 166 nop;
#X obj 725 407 expr cos(20 * $f1);
#X msg 174 289 4;
#X obj 25 312 expr ($f2 + sin($f3 * $f1)) * cos($f1);
#X msg 324 288 20;
#X obj 28 340 expr (4 + sin(20 * $f1)) * cos($f1);
#X obj 458 361 expr (4 + sin(20 * $f1)) * sin($f1);
#X obj 452 338 expr ($f2 + sin($f3 * $f1)) * sin($f1);
#X msg 760 317 20;
#X msg 610 315 4;
#X obj 702 108 loadbang;
#X obj 702 131 r init-bang;
#X obj 702 154 nop;
#X obj 601 292 r first-y;
#X obj 751 291 r second-y;
#X obj 324 265 r second-x;
#X obj 174 266 r first-x;
#X obj 602 220 *;
#X obj 602 94 r offset;
#X msg 633 196 0.03;
#X obj 621 155 * 0.1;
#X obj 606 124 t b f;
#X connect 0 0 13 0;
#X connect 1 0 14 0;
#X connect 2 0 15 0;
#X connect 3 0 26 0;
#X connect 3 0 28 0;
#X connect 3 0 32 0;
#X connect 4 0 9 0;
#X connect 7 0 5 2;
#X connect 8 0 5 2;
#X connect 9 0 16 0;
#X connect 10 0 9 1;
#X connect 11 0 9 2;
#X connect 12 0 9 3;
#X connect 13 0 10 0;
#X connect 14 0 11 0;
#X connect 15 0 12 0;
#X connect 16 0 5 0;
#X connect 17 0 16 2;
#X connect 18 0 21 0;
#X connect 19 0 42 0;
#X connect 20 0 25 0;
#X connect 21 0 3 0;
#X connect 22 0 21 1;
#X connect 23 0 21 1;
#X connect 24 0 25 0;
#X connect 25 0 22 0;
#X connect 25 0 29 0;
#X connect 25 0 27 0;
#X connect 26 0 2 0;
#X connect 27 0 28 1;
#X connect 28 0 0 0;
#X connect 29 0 28 2;
#X connect 32 0 1 0;
#X connect 33 0 32 2;
#X connect 34 0 32 1;
#X connect 35 0 37 0;
#X connect 36 0 37 0;
#X connect 37 0 34 0;
#X connect 37 0 33 0;
#X connect 37 0 44 0;
#X connect 37 0 19 0;
#X connect 38 0 32 1;
#X connect 39 0 32 2;
#X connect 40 0 28 2;
#X connect 41 0 28 1;
#X connect 42 0 21 2;
#X connect 43 0 46 0;
#X connect 44 0 42 1;
#X connect 45 0 42 1;
#X connect 46 0 19 0;
#X connect 46 1 45 0;
