#N canvas 183 150 749 690 10;
#N canvas 303 259 450 300 un-clock-delay 0;
#X obj 313 105 block~ 64;
#X obj 157 99 bang~;
#X obj 187 186 spigot;
#X obj 157 126 t b b;
#X msg 157 151 0;
#X obj 224 100 inlet;
#X msg 224 122 1;
#X obj 187 214 outlet;
#X connect 1 0 3 0;
#X connect 2 0 7 0;
#X connect 3 0 4 0;
#X connect 3 1 2 0;
#X connect 4 0 2 1;
#X connect 5 0 6 0;
#X connect 6 0 2 1;
#X restore 90 196 pd un-clock-delay;
#N canvas 0 0 450 300 (subpatch) 0;
#X array \$0-del-no-clock 100 float 2;
#X coords 0 1 100 -1 200 140 1;
#X restore 374 492 graph;
#X obj 90 280 vline~;
#X obj 89 542 tabwrite~ \$0-del-no-clock;
#X obj 221 421 tabwrite~ \$0-del;
#N canvas 0 0 450 300 (subpatch) 0;
#X array \$0-del 100 float 2;
#X coords 0 1 100 -1 200 140 1;
#X restore 374 352 graph;
#X obj 222 278 vline~;
#X obj 90 141 t b b b b;
#X obj 162 340 bang;
#X msg 45 85 bang;
#X obj 409 143 s \$0-del-no-clock;
#X obj 409 168 s \$0-del;
#X obj 409 120 t a;
#X msg 587 113 resize \$1;
#X floatatom 587 93 5 0 0 0 - - -;
#X msg 409 96 const 0;
#X msg 90 257 0 \, 0.8 0 \, 0 0 0.5;
#X msg 222 255 0 \, 0.8 0 \, 0 0 0.5;
#X msg 186 80 bang;
#X msg 478 97 xticks 0 16 4;
#X obj 186 103 del 0.1;
#X msg 630 89 100;
#X obj 478 72 loadbang;
#X text 182 60 Clock-delayed message;
#X text 26 59 "Normal" message;
#X text 223 444 Exact timing;
#X text 137 518 Block-quantized timing;
#X obj 222 194 delay 0.1;
#X obj 90 217 delay 0.1;
#X connect 0 0 28 0;
#X connect 2 0 3 0;
#X connect 6 0 4 0;
#X connect 7 0 0 0;
#X connect 7 1 27 0;
#X connect 7 2 8 0;
#X connect 8 0 3 0;
#X connect 8 0 4 0;
#X connect 9 0 7 0;
#X connect 12 0 10 0;
#X connect 12 0 11 0;
#X connect 13 0 12 0;
#X connect 14 0 13 0;
#X connect 15 0 12 0;
#X connect 16 0 2 0;
#X connect 17 0 6 0;
#X connect 18 0 20 0;
#X connect 19 0 12 0;
#X connect 20 0 7 0;
#X connect 21 0 13 0;
#X connect 22 0 19 0;
#X connect 22 0 21 0;
#X connect 22 0 15 0;
#X connect 27 0 17 0;
#X connect 28 0 16 0;
