#N canvas 442 134 439 371 10;
#X obj -7 180 wrap~;
#X obj 107 104 -~;
#X obj 107 125 abs~;
#X obj -9 155 /~;
#X obj 3 209 *~;
#X obj 6 243 +~;
#X obj -6 129 -~;
#X obj -74 42 inlet~ signal;
#X obj 27 37 inlet~ low;
#X obj 139 41 inlet~ high;
#X obj 7 279 outlet~;
#X connect 0 0 4 0;
#X connect 1 0 2 0;
#X connect 2 0 3 1;
#X connect 2 0 4 1;
#X connect 3 0 0 0;
#X connect 4 0 5 0;
#X connect 5 0 10 0;
#X connect 6 0 3 0;
#X connect 7 0 6 0;
#X connect 8 0 1 0;
#X connect 8 0 5 1;
#X connect 8 0 6 1;
#X connect 9 0 1 1;
