#N canvas 397 101 599 562 10;
#X obj 29 22 gemhead;
#X obj 45 111 rotateXYZ 76 0 0;
#X floatatom 75 75 5 0 0;
#X floatatom 124 75 5 0 0;
#X floatatom 173 75 5 0 0;
#X obj 77 511 gemwin;
#X obj 59 514 tgl 15 0 empty empty empty 20 8 0 8 -262144 -1 -1 1 1
;
#X msg 127 485 create;
#X msg 139 509 destroy;
#X msg 117 460 dimen 300 300;
#X msg 45 437 dimen 600 500;
#X obj 173 199 color;
#X obj 183 175 hsv2rgb;
#X msg 93 277 draw line;
#X obj 176 272 translateXYZ 1.5 0 0;
#X floatatom 247 202 5 0 0;
#X obj 355 195 counter 360;
#X obj 351 135 tgl 15 0 empty empty empty 8 -8 0 10 -262144 -1 -1 1
1;
#X floatatom 387 136 5 0 0;
#X obj 134 379 cylinder 0.1 8;
#X obj 59 184 loadbang;
#X obj 186 153 pack 0.9 0.5 0.5;
#X obj 187 296 separator;
#X obj 356 174 metro 50;
#X obj 375 28 loadbang;
#X msg 319 137 1;
#X obj 176 247 rotate 0 0 0 1;
#X floatatom 436 448 5 0 0;
#X obj 311 384 translateXYZ 0.3 0 0;
#X obj 496 381 loadbang;
#X msg 468 419 7;
#X floatatom 382 322 5 0 0;
#X floatatom 434 327 5 0 0;
#X floatatom 485 338 5 0 0;
#X msg 492 449 text NUM1 11;
#X obj 364 517 text2d;
#X connect 0 0 1 0;
#X connect 1 0 11 0;
#X connect 2 0 1 1;
#X connect 3 0 1 2;
#X connect 4 0 1 3;
#X connect 6 0 5 0;
#X connect 7 0 5 0;
#X connect 8 0 5 0;
#X connect 9 0 5 0;
#X connect 10 0 5 0;
#X connect 11 0 26 0;
#X connect 12 0 11 1;
#X connect 13 0 19 0;
#X connect 14 0 22 0;
#X connect 14 0 19 0;
#X connect 15 0 26 1;
#X connect 16 0 15 0;
#X connect 17 0 23 0;
#X connect 18 0 23 1;
#X connect 20 0 13 0;
#X connect 20 0 21 0;
#X connect 21 0 12 0;
#X connect 22 0 28 0;
#X connect 23 0 16 0;
#X connect 24 0 25 0;
#X connect 25 0 17 0;
#X connect 26 0 14 0;
#X connect 27 0 35 1;
#X connect 28 0 35 0;
#X connect 29 0 30 0;
#X connect 29 0 34 0;
#X connect 30 0 27 0;
#X connect 31 0 28 1;
#X connect 32 0 28 2;
#X connect 33 0 28 3;
#X connect 34 0 35 0;
