#N canvas 186 350 368 279 10;
#X symbolatom 9 11 10 0 0 0 - - -;
#X obj 27 173 netsend;
#X obj 26 193 netreceive 2345;
#X msg 132 64 connect localhost 2345;
#X msg 9 69 send \$1;
#X obj 26 216 f;
#X obj 9 40 symbol;
#X obj 132 41 loadbang;
#X obj 9 95 t b a b;
#X obj 26 257 print converted;
#X obj 46 125 print right;
#X obj 9 148 print left;
#X connect 0 0 6 0;
#X connect 2 0 5 0;
#X connect 3 0 1 0;
#X connect 4 0 8 0;
#X connect 5 0 9 0;
#X connect 6 0 4 0;
#X connect 7 0 3 0;
#X connect 8 0 11 0;
#X connect 8 1 1 0;
#X connect 8 2 10 0;
