#N canvas 377 467 551 486 10;
#X obj 108 18 loadbang;
#X obj 54 130 f \$1;
#X obj 54 17 inlet;
#X obj 54 385 vline~;
#X obj 54 257 t b b;
#X obj 157 405 outlet;
#X obj 181 17 inlet;
#X text 231 17 reset phase;
#X obj 53 408 outlet~;
#X obj 54 100 abs;
#X obj 126 176 expr 1000/$f1;
#X obj 54 150 t a a;
#X obj 54 238 metro;
#X obj 126 202 t a a;
#X msg 181 58 bang;
#X obj 286 126 < 0;
#X obj 286 156 select 1 0;
#X obj 54 285 f;
#X obj 54 318 list append 0 1;
#X msg 54 355 \$2 \, \$3 \$1;
#X msg 286 180 1 0;
#X msg 318 181 0 1;
#X obj 54 56 t a a;
#X text 370 156 up-down/down-up;
#X connect 0 0 1 0;
#X connect 1 0 11 0;
#X connect 2 0 22 0;
#X connect 3 0 8 0;
#X connect 4 0 17 0;
#X connect 4 1 5 0;
#X connect 6 0 14 0;
#X connect 9 0 1 0;
#X connect 10 0 13 0;
#X connect 11 0 12 0;
#X connect 11 1 10 0;
#X connect 12 0 4 0;
#X connect 13 0 12 1;
#X connect 13 1 17 1;
#X connect 14 0 12 0;
#X connect 15 0 16 0;
#X connect 16 0 20 0;
#X connect 16 1 21 0;
#X connect 17 0 18 0;
#X connect 18 0 19 0;
#X connect 19 0 3 0;
#X connect 20 0 18 1;
#X connect 21 0 18 1;
#X connect 22 0 9 0;
#X connect 22 1 15 0;
