#N canvas 428 357 552 304 10;
#X text 405 88 LFO;
#X floatatom 347 59 5 0 0;
#X obj 347 31 inlet;
#X obj 47 48 inlet~;
#X obj 347 84 osc~ \$1;
#X obj 124 58 delwrite~ \$0-right 1024;
#X obj 124 29 inlet~;
#X obj 410 150 vd~ \$0-right;
#X obj 410 185 outlet~;
#X obj 278 183 outlet~;
#X obj 47 83 delwrite~ \$0-left 1024;
#X obj 278 154 vd~ \$0-left;
#X connect 1 0 4 0;
#X connect 2 0 1 0;
#X connect 3 0 10 0;
#X connect 4 0 7 0;
#X connect 4 0 11 0;
#X connect 6 0 5 0;
#X connect 7 0 8 0;
#X connect 11 0 9 0;
