#N canvas 373 161 758 508 10;
#X obj 472 38 gemhead;
#X obj 472 61 pix_video;
#X obj 59 322 pix_texture;
#X obj 59 352 rectangle 4 3;
#X obj 48 12 gemwin;
#X msg 25 -31 create \, 1;
#X msg 103 -30 destroy;
#X obj 24 -54 loadbang;
#X obj 625 -6 + 1;
#X floatatom 649 60 5 0 0 0 - - -;
#X floatatom 369 111 5 0 0 0 - - -;
#X obj 27 47 pix_buffer depot 3;
#X obj 370 83 % 3;
#X obj 625 21 % 3;
#X obj 506 123 pix_buffer_write depot;
#X obj 238 135 pix_buffer_read depot;
#X obj 369 32 int 0;
#X obj 414 -1 t b b;
#X obj 408 -51 bng 15 250 50 0 empty empty empty 17 7 0 10 -262144
-1 -1;
#X obj 237 106 gemhead;
#X obj 441 -55 loadbang;
#X floatatom 555 46 5 0 0 0 - - -;
#X obj 413 -26 metro 50;
#X obj 370 56 + 1;
#X obj 625 -29 int 1;
#X obj 61 289 spigot 0;
#X obj 531 227 spigot 0;
#X obj 235 347 spigot 0;
#X obj 281 324 tgl 15 0 empty empty empty 17 7 0 10 -262144 -1 -1 0
1;
#X obj 105 263 tgl 15 0 empty empty empty 17 7 0 10 -262144 -1 -1 0
1;
#X obj 584 201 tgl 15 0 empty empty empty 17 7 0 10 -262144 -1 -1 0
1;
#X obj 504 88 rotateXYZ 60 60 0;
#X text 609 200 1 expected behavior;
#X text 302 326 2 no image;
#X text 130 258 3 no rotation;
#X obj 235 304 pix_separator;
#X connect 0 0 1 0;
#X connect 1 0 31 0;
#X connect 2 0 3 0;
#X connect 5 0 4 0;
#X connect 6 0 4 0;
#X connect 7 0 5 0;
#X connect 8 0 13 0;
#X connect 12 0 10 0;
#X connect 12 0 15 1;
#X connect 12 0 16 1;
#X connect 13 0 9 0;
#X connect 13 0 14 1;
#X connect 13 0 24 1;
#X connect 14 0 26 0;
#X connect 15 0 25 0;
#X connect 16 0 23 0;
#X connect 17 0 16 0;
#X connect 17 1 24 0;
#X connect 18 0 22 0;
#X connect 19 0 15 0;
#X connect 20 0 18 0;
#X connect 21 0 31 2;
#X connect 21 0 31 1;
#X connect 21 0 31 3;
#X connect 22 0 17 0;
#X connect 23 0 12 0;
#X connect 24 0 8 0;
#X connect 25 0 2 0;
#X connect 26 0 2 0;
#X connect 27 0 2 0;
#X connect 28 0 27 1;
#X connect 29 0 25 1;
#X connect 30 0 26 1;
#X connect 31 0 14 0;
#X connect 31 0 35 0;
#X connect 35 0 27 0;
