#N canvas 268 117 450 300 12;
#X obj 184 21 r \$1-voice;
#X obj 41 132 unpack;
#X obj 41 165 osc~;
#X obj 41 205 *~ 0;
#X obj 41 240 throw~ bus;
#X obj 41 21 r parameters;
#X obj 212 131 delay;
#X obj 41 60 spigot;
#X obj 41 93 t a 0;
#X obj 212 240 s killme;
#X obj 212 164 t b 0;
#X obj 212 205 f \$1;
#X msg 120 60 0;
#X connect 0 0 7 1;
#X connect 1 0 2 0;
#X connect 1 1 6 0;
#X connect 2 0 3 0;
#X connect 3 0 4 0;
#X connect 5 0 7 0;
#X connect 6 0 10 0;
#X connect 7 0 8 0;
#X connect 8 0 1 0;
#X connect 8 1 12 0;
#X connect 10 0 11 0;
#X connect 10 1 3 1;
#X connect 11 0 9 0;
#X connect 12 0 7 1;
