#N canvas 89 10 781 510 10;
#X obj 290 254 rpole~ 0.5;
#X msg 194 286 bang;
#X obj 193 72 metro 1;
#X obj 193 53 tgl 15 0 empty empty empty 17 7 0 10 -262144 -1 -1 1
1;
#X obj 290 158 t b b;
#X msg 290 181 0 \, 0.5 1;
#X obj 290 202 line~;
#N canvas 0 0 450 300 (subpatch) 0;
#X array \$0-line 500 float 0;
#X coords 0 1 500 -1 200 140 1;
#X restore 475 51 graph;
#X obj 289 342 tabwrite~ \$0-line;
#N canvas 0 0 450 300 (subpatch) 0;
#X array \$0-vline 500 float 0;
#X coords 0 1 499 -1 200 140 1;
#X restore 478 235 graph;
#X obj 108 259 rpole~ 0.5;
#X obj 108 163 t b b;
#X msg 108 186 0 \, 0.5 1;
#X obj 107 347 tabwrite~ \$0-vline;
#X obj 108 207 vline~;
#X floatatom 238 52 5 0 0 0 - - -;
#X msg 358 181 clear;
#X msg 176 186 clear;
#X connect 0 0 8 0;
#X connect 1 0 8 0;
#X connect 1 0 13 0;
#X connect 2 0 4 0;
#X connect 2 0 11 0;
#X connect 3 0 2 0;
#X connect 4 0 5 0;
#X connect 4 1 16 0;
#X connect 5 0 6 0;
#X connect 6 0 0 0;
#X connect 10 0 13 0;
#X connect 11 0 12 0;
#X connect 11 1 17 0;
#X connect 12 0 14 0;
#X connect 14 0 10 0;
#X connect 15 0 2 1;
#X connect 16 0 0 0;
#X connect 17 0 10 0;
