#N canvas 404 6 799 739 12;
#X obj 66 87 openpanel;
#X obj 66 162 soundfiler;
#N canvas 0 0 523 382 graph1 0;
#X array sample 167551 float 0;
#X coords 0 1 167550 -1 120 30 1;
#X restore 229 80 graph;
#X obj 305 486 gemwin;
#X obj 66 54 bng 15 250 50 0 empty empty empty 0 -6 0 8 -262144 -1
-1;
#X floatatom 66 204 8 0 0 0 - - -;
#X msg 313 452 0 \, destroy;
#X obj 303 551 gemhead;
#X obj 303 595 color 1 0 1;
#X msg 305 429 create \, 1;
#X obj 303 573 translateXYZ 0 0 -2;
#X obj 303 618 square 8 8;
#X floatatom 66 286 5 0 0 0 - - -;
#X obj 98 507 pack f f f;
#X obj 139 484 * 10;
#X obj 103 484 * 10;
#X obj 66 327 s jump;
#X obj 106 450 t b f f f;
#X obj 44 486 s bang;
#X obj 65 368 bng 15 250 50 0 empty empty empty 0 -6 0 8 -262144 -1
-1;
#X msg 189 214 500;
#X msg 219 214 1000;
#X msg 257 214 2000;
#X obj 66 244 / 1000;
#X obj 65 420 ch_uzi 1000;
#X obj 101 266 r bang;
#X msg 66 126 read -resize \$1 sample;
#X obj 63 594 s pd-curve_pool;
#X floatatom 205 268 5 0 0 0 - - -;
#X obj 205 295 s detail;
#X msg 63 533 obj \$1 \$2 curve_duo \$3;
#X obj 149 402 r detail;
#X obj 109 226 r detail;
#X text 316 214 << 1 choose number of curves - the bigger the number
the grater the detail .. and the longer to wait..;
#X text 114 51 << 2 load soundfile;
#X text 408 428 << 4 watch it;
#X text 97 367 << 3 start drawing .... takes some time........;
#N canvas 0 0 454 304 curve_pool 0;
#X restore 62 640 pd curve_pool;
#X connect 0 0 26 0;
#X connect 1 0 5 0;
#X connect 4 0 0 0;
#X connect 5 0 23 0;
#X connect 6 0 3 0;
#X connect 7 0 10 0;
#X connect 8 0 11 0;
#X connect 9 0 3 0;
#X connect 10 0 8 0;
#X connect 12 0 16 0;
#X connect 13 0 30 0;
#X connect 14 0 13 1;
#X connect 15 0 13 0;
#X connect 17 0 18 0;
#X connect 17 1 15 0;
#X connect 17 2 14 0;
#X connect 17 3 13 2;
#X connect 19 0 24 0;
#X connect 20 0 28 0;
#X connect 21 0 28 0;
#X connect 22 0 28 0;
#X connect 23 0 12 0;
#X connect 24 1 17 0;
#X connect 25 0 12 0;
#X connect 25 0 28 0;
#X connect 26 0 1 0;
#X connect 28 0 29 0;
#X connect 30 0 27 0;
#X connect 31 0 24 1;
#X connect 32 0 23 1;
