#N canvas 511 22 696 503 10;
#X obj 260 7 cnv 15 200 60 empty empty empty 20 12 0 14 -195568 -66577
0;
#N canvas 0 22 458 308 gemwin 0;
#X obj 132 136 gemwin;
#X obj 67 89 outlet;
#X obj 67 10 inlet;
#X obj 67 41 route create;
#X msg 67 70 set destroy;
#X msg 142 68 set create;
#X msg 132 112 create \, 1 \, lighting 1;
#X msg 298 112 destroy \, reset;
#X obj 137 10 inlet;
#X connect 2 0 3 0;
#X connect 3 0 4 0;
#X connect 3 0 6 0;
#X connect 3 1 5 0;
#X connect 3 1 7 0;
#X connect 4 0 1 0;
#X connect 5 0 1 0;
#X connect 6 0 0 0;
#X connect 7 0 0 0;
#X connect 8 0 0 0;
#X restore 265 46 pd gemwin;
#X msg 265 27 destroy;
#X text 262 8 Create window:;
#X obj 377 27 gemhead;
#X obj 377 46 world_light;
#X obj 48 35 gemhead;
#X obj 48 89 pix_video;
#X obj 48 119 pix_texture;
#X obj 180 399 pix_write;
#X msg 255 255 auto 0/1;
#X msg 255 358 0 0;
#X msg 155 25 dimen 640 480;
#X msg 254 379 640 480;
#X obj 51 244 rectangle 5.3 4;
#X obj 184 254 tgl 15 0 empty empty empty 0 -6 0 8 -262144 -1 -1 0
1;
#X obj 106 357 bng 15 250 50 0 empty empty empty 0 -6 0 8 -262144 -1
-1;
#X obj 165 325 metro 500;
#X msg 255 324 file /Users/ck/Pictures/PD/graz_ 80;
#X obj 468 143 metro 1000;
#X obj 406 179 f;
#X obj 406 210 - 1;
#X floatatom 412 239 5 0 0 0 - - -;
#X obj 413 99 tgl 15 0 empty empty empty 0 -6 0 8 -262144 -1 -1 0 1
;
#X obj 519 271 tgl 15 0 empty empty empty 0 -6 0 8 -262144 -1 -1 0
-8;
#X obj 487 225 moses 0;
#X msg 352 148 16000;
#X obj 110 191 scaleXYZ;
#X floatatom 136 168 5 0 0 0 - - -;
#X floatatom 182 167 5 0 0 0 - - -;
#X floatatom 230 166 5 0 0 0 - - -;
#X obj 181 114 adc~;
#X obj 221 117 env~;
#X obj 173 143 / 100;
#X obj 278 195 pix_image;
#X obj 72 398 bng 15 250 50 0 empty empty empty 0 -6 0 8 -262144 -1
-1;
#X obj 72 426 openpanel;
#X symbolatom 90 465 10 0 0 0 - - -;
#X connect 1 0 2 0;
#X connect 2 0 1 0;
#X connect 4 0 5 0;
#X connect 6 0 7 0;
#X connect 7 0 8 0;
#X connect 7 0 9 0;
#X connect 8 0 27 0;
#X connect 10 0 9 0;
#X connect 11 0 9 1;
#X connect 12 0 1 1;
#X connect 12 0 7 0;
#X connect 13 0 9 2;
#X connect 15 0 17 0;
#X connect 16 0 9 0;
#X connect 17 0 9 0;
#X connect 18 0 9 0;
#X connect 19 0 20 0;
#X connect 20 0 21 0;
#X connect 21 0 20 1;
#X connect 21 0 22 0;
#X connect 22 0 25 0;
#X connect 23 0 19 0;
#X connect 24 0 17 0;
#X connect 25 0 24 0;
#X connect 26 0 20 0;
#X connect 27 0 14 0;
#X connect 28 0 27 1;
#X connect 29 0 27 2;
#X connect 30 0 27 3;
#X connect 31 0 32 0;
#X connect 32 0 33 0;
#X connect 33 0 28 0;
#X connect 33 0 29 0;
#X connect 33 0 30 0;
#X connect 35 0 36 0;
#X connect 36 0 37 0;
