#N canvas 335 107 804 648 10;
#X obj 405 337 r \$0patchMatrixSet;
#X obj 298 446 spigot;
#X obj 347 446 spigot;
#X msg 390 306 col \$1;
#X obj 225 212 list append 1;
#X obj 325 212 list append 2;
#X obj 325 269 unpack f f;
#X obj 225 126 r \$0inputA;
#X obj 325 126 r \$0inputB;
#X obj 260 503 s \$0outputX;
#X obj 347 503 s \$0outputY;
#X obj 5 328 r \$0outputY;
#X obj 5 368 * 199;
#X obj 5 407 s \$0inputB;
#X obj 221 270 print INVALUE;
#X obj 447 306 print COLUMN;
#X obj 474 362 print MATRIX;
#X obj 425 126 r \$0inputC;
#X obj 425 212 list append 3;
#X obj 390 363 matrix 3 3;
#X obj 434 503 s \$0outputZ;
#X obj 397 446 spigot;
#X obj 390 390 unpack f f f;
#X obj 98 328 r \$0outputZ;
#X obj 98 407 s \$0inputC;
#X obj 98 368 * 288;
#X obj 578 510 r \$0outputY;
#X obj 662 510 r \$0outputZ;
#X obj 578 555 bng 15 250 50 0 empty empty empty 0 -6 0 10 -262144
-1 -1;
#X floatatom 578 534 5 0 0 0 - - -;
#X obj 662 555 bng 15 250 50 0 empty empty empty 0 -6 0 10 -262144
-1 -1;
#X floatatom 662 534 5 0 0 0 - - -;
#X msg 618 40 10101;
#X obj 618 76 s \$0inputA;
#X obj 489 439 print Xstatus;
#X obj 587 439 print Ystatus;
#X obj 687 439 print Zstatus;
#X obj 489 424 tgl 15 0 empty empty empty 0 -6 0 10 -262144 -1 -1 0
1;
#X obj 587 424 tgl 15 0 empty empty empty 0 -6 0 10 -262144 -1 -1 0
1;
#X obj 687 424 tgl 15 0 empty empty empty 0 -6 0 10 -262144 -1 -1 0
1;
#X obj 16 16 sft.patmatel 1 1 \$0;
#X obj 32 16 sft.patmatel 1 2 \$0;
#X obj 48 16 sft.patmatel 1 3 \$0;
#X obj 16 32 sft.patmatel 2 1 \$0;
#X obj 32 32 sft.patmatel 2 2 \$0;
#X obj 48 32 sft.patmatel 2 3 \$0;
#X obj 16 48 sft.patmatel 3 1 \$0;
#X obj 32 48 sft.patmatel 3 2 \$0;
#X obj 48 48 sft.patmatel 3 3 \$0;
#X obj 325 391 t a a a;
#X connect 0 0 19 0;
#X connect 1 0 9 0;
#X connect 2 0 10 0;
#X connect 3 0 15 0;
#X connect 3 0 19 0;
#X connect 4 0 6 0;
#X connect 5 0 6 0;
#X connect 6 0 14 0;
#X connect 6 0 49 0;
#X connect 6 1 3 0;
#X connect 7 0 4 0;
#X connect 8 0 5 0;
#X connect 11 0 12 0;
#X connect 12 0 13 0;
#X connect 17 0 18 0;
#X connect 18 0 6 0;
#X connect 19 0 16 0;
#X connect 19 0 22 0;
#X connect 21 0 20 0;
#X connect 22 0 1 1;
#X connect 22 0 34 0;
#X connect 22 0 37 0;
#X connect 22 1 2 1;
#X connect 22 1 35 0;
#X connect 22 1 38 0;
#X connect 22 2 21 1;
#X connect 22 2 36 0;
#X connect 22 2 39 0;
#X connect 23 0 25 0;
#X connect 25 0 24 0;
#X connect 26 0 29 0;
#X connect 27 0 31 0;
#X connect 29 0 28 0;
#X connect 31 0 30 0;
#X connect 32 0 33 0;
#X connect 49 0 1 0;
#X connect 49 1 2 0;
#X connect 49 2 21 0;
