#N canvas 0 0 704 560 10;
#X obj 507 439 bng 15 250 50 0 empty empty empty 0 -6 0 10 -262144
-1 -1;
#X text 55 22 do this:;
#X text 55 66 - open up the subpatch;
#N canvas 0 0 384 243 subpatch 0;
#X restore 65 167 pd subpatch;
#X text 56 86 - paste the bang: you won't see the bang \, and the window
arrows won't show up;
#X text 55 116 - change the subpatch window size \, and the arrows
will appear;
#X text 55 46 - copy the bang below right;
