#N canvas 0 2 1024 540 10;
#X obj 60 116 gemwin;
#X msg 57 84 0 \, destroy;
#X msg 32 55 create \, 1 \, dimen 500 400;
#X obj 222 196 gemhead;
#X obj 233 222 translateXYZ 0 0 0;
#X msg 267 16 bang;
#X floatatom 267 128 10 0 0 0 - - -;
#X obj 267 101 / 100;
#X msg 345 17 bang;
#X floatatom 345 129 10 0 0 0 - - -;
#X obj 345 108 / 100;
#X floatatom 345 172 5 0 0 0 - - -;
#X floatatom 268 173 5 0 0 0 - - -;
#X text 302 172 X;
#X text 383 171 Y;
#X obj 267 36 random 300;
#X obj 345 37 random 300;
#X obj 254 290 text3d;
#X obj 302 -15 t b b;
#X obj 547 -18 metro 1000;
#X obj 551 -54 tgl 15 0 empty empty empty 17 7 0 10 -262144 -1 -1 1
1;
#X obj 544 81 f;
#X obj 573 81 + 1;
#X obj 538 128 route 0 1 2 3;
#X msg 579 264 symbol and_i_am_the_wolf;
#X obj 369 297 loadbang;
#X msg 324 318 8;
#X obj 608 82 mod 4;
#X msg 444 184 symbol i_am_the_first_pix;
#X msg 503 210 symbol i_am_the_second_pix;
#X msg 557 238 symbol i_am_the_third_pix;
#X obj 267 68 mod 50;
#X obj 254 319 pix_snap;
#X msg 219 293 snap;
#X obj 255 -106 loadbang;
#X msg 555 -77 1;
#X text 254 359 but how???;
#X text 243 340 i would like to see all 4 sentences at tha same time
;
#X connect 1 0 0 0;
#X connect 2 0 0 0;
#X connect 3 0 4 0;
#X connect 4 0 17 0;
#X connect 5 0 15 0;
#X connect 6 0 12 0;
#X connect 7 0 6 0;
#X connect 8 0 16 0;
#X connect 9 0 11 0;
#X connect 10 0 9 0;
#X connect 11 0 4 2;
#X connect 12 0 4 1;
#X connect 15 0 31 0;
#X connect 16 0 10 0;
#X connect 17 0 32 0;
#X connect 18 0 5 0;
#X connect 18 1 8 0;
#X connect 19 0 21 0;
#X connect 19 0 18 0;
#X connect 20 0 19 0;
#X connect 21 0 22 0;
#X connect 21 0 23 0;
#X connect 22 0 27 0;
#X connect 23 0 28 0;
#X connect 23 1 29 0;
#X connect 23 2 30 0;
#X connect 23 3 24 0;
#X connect 24 0 17 0;
#X connect 25 0 26 0;
#X connect 26 0 17 1;
#X connect 27 0 21 1;
#X connect 28 0 17 0;
#X connect 29 0 17 0;
#X connect 30 0 17 0;
#X connect 31 0 7 0;
#X connect 33 0 32 0;
#X connect 34 0 35 0;
#X connect 34 0 2 0;
#X connect 35 0 20 0;
