#N canvas 160 74 1007 636 10;
#X obj 339 285 wrap~;
#X obj 63 55 metro 100;
#X obj 63 38 tgl 15 0 empty empty empty 17 7 0 10 -262144 -1 -1 0 1
;
#X obj 63 81 s \$0-snap;
#X obj 59 169 sig~ 0;
#X obj 59 147 / 100;
#X floatatom 59 127 5 0 0 0 - - -;
#X obj 58 283 expr~ if ($v1 >= $v2 \, $v1 - $v2 \, $v1);
#X obj 314 157 / 100;
#X floatatom 314 137 5 0 0 0 loop-end - -;
#X obj 339 314 *~ 1;
#X obj 339 258 /~ 1;
#X msg 314 118 100;
#X obj 314 92 loadbang;
#N canvas 0 0 1003 634 snap 0;
#X obj 107 72 snapshot~;
#X obj 121 49 r \$0-snap;
#X floatatom 117 119 5 0 0 0 - - -;
#X obj 107 16 inlet~;
#X obj 107 185 outlet;
#X connect 0 0 2 0;
#X connect 0 0 4 0;
#X connect 1 0 0 0;
#X connect 3 0 0 0;
#X coords 0 -1 1 1 70 40 1 100 100;
#X restore 340 346 pd snap;
#N canvas 0 0 1003 634 snap 0;
#X obj 107 72 snapshot~;
#X obj 121 49 r \$0-snap;
#X floatatom 117 119 5 0 0 0 - - -;
#X obj 107 16 inlet~;
#X obj 107 185 outlet;
#X connect 0 0 2 0;
#X connect 0 0 4 0;
#X connect 1 0 0 0;
#X connect 3 0 0 0;
#X coords 0 -1 1 1 70 40 1 100 100;
#X restore 59 347 pd snap;
#X connect 0 0 10 0;
#X connect 1 0 3 0;
#X connect 2 0 1 0;
#X connect 4 0 7 0;
#X connect 4 0 11 0;
#X connect 5 0 4 0;
#X connect 6 0 5 0;
#X connect 7 0 15 0;
#X connect 8 0 7 1;
#X connect 8 0 11 1;
#X connect 8 0 10 1;
#X connect 9 0 8 0;
#X connect 10 0 14 0;
#X connect 11 0 0 0;
#X connect 12 0 9 0;
#X connect 13 0 12 0;
