#N canvas 182 132 395 336 12;
#X obj 45 160 metro 500;
#X obj 45 135 r metro;
#X msg 215 162 \; metro 0;
#X msg 214 104 \; pd dsp 1 \; metro 1;
#X floatatom 143 23 0 0 0 0 - - -;
#X floatatom 29 217 0 0 0 0 - - -;
#X obj 214 77 loadbang;
#X obj 29 184 snapshot~;
#X obj 29 87 sig~;
#X obj 29 111 wrap~;
#X msg 31 23 -0.99;
#X msg 84 22 -5.99;
#X msg 30 44 0.01;
#X connect 0 0 7 0;
#X connect 1 0 0 0;
#X connect 1 0 0 0;
#X connect 4 0 8 0;
#X connect 6 0 3 0;
#X connect 7 0 5 0;
#X connect 8 0 9 0;
#X connect 9 0 7 0;
#X connect 10 0 8 0;
#X connect 11 0 8 0;
#X connect 12 0 8 0;
