#N canvas 449 70 622 615 10;
#X obj 48 79 keyname;
#X obj 48 100 change;
#X obj 48 120 route 1;
#X obj 48 140 b;
#X obj 69 181 unpack f s;
#X symbolatom 212 219 10 0 0 0 - - -;
#X obj 48 159 pack f symbol;
#X msg 48 204 \$2;
#X obj 48 247 bng 15 250 50 0 empty empty empty 0 -6 0 8 -262144 -1
-1;
#X obj 48 225 route Return;
#X symbolatom 207 413 10 0 0 0 - - -;
#X obj 127 247 bng 15 250 50 0 empty empty empty 0 -6 0 8 -262144 -1
-1;
#X obj 63 367 spigot;
#X msg 100 295 0;
#X msg 67 296 1;
#X obj 66 275 onebang;
#X obj 127 324 f;
#X obj 157 324 + 1;
#X floatatom 210 348 5 0 0 0 - - -;
#X obj 48 444 repack;
#X obj 48 500 l2s;
#X symbolatom 48 525 30 0 0 0 - - -;
#X obj 157 346 + 1;
#X obj 64 462 loadbang;
#X msg 64 480 symbol;
#X text 50 29 write a word;
#X symbolatom 211 273 10 0 0 0 - - -;
#X obj 144 246 symbol;
#X text 293 218 all key-downs;
#X text 294 272 key-downs without;
#X text 294 285 "Return";
#X text 256 348 counts letters until Return;
#X text 120 481 removes spaces;
#X text 208 55 - non functional -;
#X text 276 524 well... here i would like to have a word.;
#X connect 0 0 1 0;
#X connect 0 1 6 1;
#X connect 1 0 2 0;
#X connect 2 0 3 0;
#X connect 3 0 6 0;
#X connect 4 1 5 0;
#X connect 6 0 4 0;
#X connect 6 0 7 0;
#X connect 7 0 9 0;
#X connect 8 0 13 0;
#X connect 8 0 15 1;
#X connect 8 0 19 0;
#X connect 9 0 8 0;
#X connect 9 1 11 0;
#X connect 9 1 27 0;
#X connect 11 0 15 0;
#X connect 11 0 16 0;
#X connect 12 0 10 0;
#X connect 12 0 19 0;
#X connect 13 0 16 0;
#X connect 13 0 12 1;
#X connect 14 0 12 1;
#X connect 15 0 14 0;
#X connect 16 0 17 0;
#X connect 17 0 16 1;
#X connect 17 0 18 0;
#X connect 17 0 22 0;
#X connect 19 0 20 0;
#X connect 20 0 21 0;
#X connect 22 0 19 1;
#X connect 23 0 24 0;
#X connect 24 0 20 1;
#X connect 27 0 26 0;
#X connect 27 0 12 0;
