#N canvas -2241 70 1113 842 10;
#X obj 122 83 symbol \$1;
#X obj 78 15 loadbang;
#X msg 121 158 set write ./\$1.txt;
#X msg 119 241 write ./.txt;
#X msg 267 158 set read ./\$1.txt;
#X msg 239 242 read ./.txt;
#X obj 119 291 text define \$1;
#X obj 241 130 t b s;
#X obj 200 322 route updated;
#X msg 61 235 click;
#X obj 83 56 t b b;
#X text 196 83 make a symbol from the argument;
#X text 218 263 commands;
#X text 150 190 set write message;
#X text 299 183 set read message and try to read file;
#X text 223 340 save when 'updated' message is emitted;
#X text 14 274 open text ui;
#X obj 60 211 bng 15 250 50 0 empty empty empty 17 7 0 10 -262144 -1
-1;
#X connect 0 0 2 0;
#X connect 0 0 7 0;
#X connect 1 0 10 0;
#X connect 2 0 3 0;
#X connect 3 0 6 0;
#X connect 4 0 5 0;
#X connect 5 0 6 0;
#X connect 6 1 8 0;
#X connect 7 0 5 0;
#X connect 7 1 4 0;
#X connect 8 0 3 0;
#X connect 9 0 6 0;
#X connect 10 0 17 0;
#X connect 10 1 0 0;
#X connect 17 0 9 0;
