#N canvas 459 15 540 371 10;
#X obj 28 275 i;
#X obj 104 208 list split 1;
#X obj 104 181 list;
#X obj 110 156 until;
#X obj 185 235 bang;
#X obj 72 128 t b a;
#X obj 28 323 outlet;
#X obj 28 13 inlet;
#X text 184 161 turn the list into a stream of values;
#X obj 28 70 trigger b a b;
#X text 102 20 take a list and turn it into a stream of numbers \,
starting with a systex start message and ending with a sysex end message..
can be sent to a [midiout];
#X text 103 5 x37v-list2sysex by Alex Norman (http://x37v.info);
#X msg 116 102 240;
#X msg 28 103 247;
#X connect 0 0 6 0;
#X connect 1 0 0 0;
#X connect 1 1 2 1;
#X connect 1 2 4 0;
#X connect 2 0 1 0;
#X connect 3 0 2 0;
#X connect 4 0 3 1;
#X connect 5 0 3 0;
#X connect 5 1 2 0;
#X connect 7 0 9 0;
#X connect 9 0 13 0;
#X connect 9 1 5 0;
#X connect 9 2 12 0;
#X connect 12 0 0 0;
#X connect 13 0 0 0;
