#N canvas 867 204 1007 488 10;
#X obj 21 -224 inlet~;
#X obj 75 -225 inlet~;
#X obj 272 -227 table rectangle;
#X obj 573 -256 loadbang;
#X obj 574 -128 t f f;
#X obj 675 -45 / 4;
#X obj 713 -38 / 4;
#X obj 714 -59 * 3;
#X obj 576 -49 until;
#X obj 574 -195 f \$1;
#X obj 574 -171 select 0;
#X msg 630 -46 0;
#X obj 574 -85 t f f;
#X obj 610 -22 + 1;
#X obj 577 -23 f;
#X obj 577 3 t f f;
#X obj 577 75 tabwrite rectangle;
#X obj 577 44 expr ($f1>=$f2)*($f1<$f3);
#X obj 74 -199 *~;
#X obj 22 -127 *~;
#X obj 51 -128 *~;
#X obj 111 -128 *~;
#X obj 82 -127 *~;
#X obj 23 -99 +~;
#X obj 82 -100 -~;
#X text 142 -124 conjugate multiply of two complex numbers (a + bi)(c
- di) = a*c + b*d + i*(b*c - a*d);
#X obj 23 -36 ifft~;
#X obj 23 -6 /~ 64;
#X obj 651 -145 s \$0-blocksize;
#X obj 61 -6 r \$0-blocksize;
#X obj 22 46 *~;
#X obj 23 126 +~;
#X text 704 77 centered rectangular window;
#X obj 136 30 expr~ 1 - $v1;
#X obj 20 90 lrshift~ \$2;
#X obj 95 91 lrshift~ \$3;
#X msg 711 -189 set \$1 2;
#X msg 647 -123 \; rectangle resize \$1;
#X obj 712 -234 f;
#X obj 24 158 outlet~;
#X obj 628 -215 block~ 128 2;
#X msg 574 -149 128;
#X obj 606 -149 * 2;
#X text 21 -298 \$1 should be N \, parent blocksize \$2 should be 3*N/2
\$3 should be -N/2 because lrshift~ does not have a method to set its
argument in pd 0.42.5 I could not write a method to do this properly
;
#X text 741 -41 for loop on 0 \, 2N to fill rectangle tables;
#X text 147 -204 rectangular window on N/2 to 3N/2 - 1;
#X text 131 50 discard values from N/2 to 3N/2 - 1;
#X obj 22 -180 fft~;
#X obj 74 -177 fft~;
#X obj 713 -259 r \$0-blocksize;
#X obj 133 -227 tabreceive~ rectangle;
#X connect 0 0 47 0;
#X connect 1 0 18 0;
#X connect 3 0 9 0;
#X connect 4 0 12 0;
#X connect 4 1 37 0;
#X connect 4 1 28 0;
#X connect 5 0 17 1;
#X connect 6 0 17 2;
#X connect 7 0 6 0;
#X connect 8 0 14 0;
#X connect 9 0 10 0;
#X connect 10 0 41 0;
#X connect 10 1 42 0;
#X connect 11 0 14 1;
#X connect 12 0 8 0;
#X connect 12 1 7 0;
#X connect 12 1 5 0;
#X connect 12 1 11 0;
#X connect 13 0 14 1;
#X connect 14 0 13 0;
#X connect 14 0 15 0;
#X connect 15 0 17 0;
#X connect 15 1 16 1;
#X connect 17 0 16 0;
#X connect 18 0 48 0;
#X connect 19 0 23 0;
#X connect 20 0 23 1;
#X connect 21 0 24 1;
#X connect 22 0 24 0;
#X connect 23 0 26 0;
#X connect 24 0 26 1;
#X connect 26 0 27 0;
#X connect 27 0 30 0;
#X connect 29 0 27 1;
#X connect 30 0 34 0;
#X connect 30 0 35 0;
#X connect 31 0 39 0;
#X connect 33 0 30 1;
#X connect 34 0 31 0;
#X connect 35 0 31 1;
#X connect 36 0 40 0;
#X connect 38 0 36 0;
#X connect 41 0 4 0;
#X connect 42 0 4 0;
#X connect 47 0 19 0;
#X connect 47 0 21 0;
#X connect 47 1 20 0;
#X connect 47 1 22 0;
#X connect 48 0 19 1;
#X connect 48 0 22 1;
#X connect 48 1 20 1;
#X connect 48 1 21 1;
#X connect 49 0 38 0;
#X connect 50 0 18 1;
#X connect 50 0 33 0;
