#N canvas 300 28 801 741 12;
#X obj 87 4 inlet;
#X obj 263 619 outlet;
#X obj 147 227 until;
#X msg 147 168 16;
#X obj 147 194 t f b;
#X msg 282 214 0;
#X obj 147 259 f;
#X obj 181 260 + 1;
#X obj 298 576 f;
#X obj 263 575 +;
#X obj 199 457 pow;
#X msg 199 429 2 \$1;
#X obj 143 392 f;
#X obj 103 392 f;
#X obj 103 555 *;
#X obj 103 488 &;
#X obj 143 488 &;
#X obj 148 287 t b b f;
#X obj 103 525 !=;
#X obj 162 352 inlet;
#X obj 87 128 t b f;
#X text 272 69 XOR does bitwise xor intersection of two 16 bit integers
;
#X text 458 136 XOR:;
#X text 429 169 1 xor 1 = 0;
#X text 429 199 0 xor 0 = 0;
#X text 429 229 1 xor 0 = 1;
#X text 429 259 0 xor 1 = 1;
#X text 106 669 Steffen Leve Poulsen 2007;
#X text 107 689 steffen at menneske dot dk;
#X connect 0 0 20 0;
#X connect 2 0 6 0;
#X connect 3 0 4 0;
#X connect 4 0 2 0;
#X connect 4 1 5 0;
#X connect 5 0 6 1;
#X connect 5 0 9 1;
#X connect 6 0 7 0;
#X connect 6 0 17 0;
#X connect 7 0 6 1;
#X connect 8 0 9 1;
#X connect 9 0 8 0;
#X connect 9 0 1 0;
#X connect 10 0 16 1;
#X connect 10 0 15 1;
#X connect 10 0 14 1;
#X connect 11 0 10 0;
#X connect 12 0 16 0;
#X connect 13 0 15 0;
#X connect 14 0 9 0;
#X connect 15 0 18 0;
#X connect 16 0 18 1;
#X connect 17 0 13 0;
#X connect 17 1 12 0;
#X connect 17 2 11 0;
#X connect 18 0 14 0;
#X connect 19 0 12 1;
#X connect 20 0 3 0;
#X connect 20 1 13 1;
