#N canvas 0 0 656 454 10;
#X obj 73 48 inlet;
#X obj 73 79 route \$1;
#X obj 27 135 outlet;
#X obj 73 135 select \$2;
#X text 404 92 Args;
#X text 414 116 1: i;
#X text 413 134 2: j;
#X text 389 172 inlet: accepts list of two ints \, i and j;
#X obj 229 154 makefilename ch%d;
#X msg 227 175 set \$1%d;
#X obj 229 200 makefilename ch%d;
#X obj 176 84 t b b;
#X obj 229 123 f \$1;
#X obj 176 156 f \$2;
#X obj 176 62 loadbang;
#X obj 73 266 symbol;
#X msg 73 301 \; \$1 1;
#X text 109 15 will send a 1 to a send called "chij" (i ad j taken
from arguments \, when match.;
#X obj 192 277 symbol;
#X msg 192 312 \; \$1 0;
#X msg 192 252 bang;
#X text 389 194 outlet: sendlist further along.;
#X connect 0 0 1 0;
#X connect 0 0 2 0;
#X connect 1 0 3 0;
#X connect 1 1 20 0;
#X connect 3 0 15 0;
#X connect 3 1 20 0;
#X connect 8 0 9 0;
#X connect 9 0 10 0;
#X connect 10 0 15 1;
#X connect 10 0 18 1;
#X connect 11 0 13 0;
#X connect 11 1 12 0;
#X connect 12 0 8 0;
#X connect 13 0 10 0;
#X connect 14 0 11 0;
#X connect 15 0 16 0;
#X connect 18 0 19 0;
#X connect 20 0 18 0;
