#N canvas 403 420 515 474 10;
#X obj 181 145 pack 0 0;
#X obj 166 292 tgl 15 0 empty empty empty 0 -6 0 8 -262144 -1 -1 1
1;
#X obj 166 346 tgl 15 0 empty empty empty 0 -6 0 8 -262144 -1 -1 0
1;
#X obj 164 400 tgl 15 0 empty empty empty 0 -6 0 8 -262144 -1 -1 0
1;
#X obj 275 293 tgl 15 0 empty empty empty 0 -6 0 8 -262144 -1 -1 0
1;
#X obj 273 343 tgl 15 0 empty empty empty 0 -6 0 8 -262144 -1 -1 0
1;
#X obj 273 401 tgl 15 0 empty empty empty 0 -6 0 8 -262144 -1 -1 0
1;
#X obj 166 271 r ch00;
#X obj 166 325 r ch01;
#X obj 164 379 r ch02;
#X obj 275 272 r ch10;
#X obj 273 320 r ch11;
#X obj 273 380 r ch12;
#X obj 218 114 t b f;
#X obj 181 95 hradio 15 1 0 2 empty empty empty 0 -6 0 8 -262144 -1
-1 0;
#X obj 218 52 vradio 15 1 0 3 empty empty empty 0 -6 0 8 -262144 -1
-1 0;
#X obj 181 170 xymatch 0 0;
#X obj 276 175 xymatch 1 0;
#X obj 276 225 xymatch 1 2;
#X obj 276 200 xymatch 1 1;
#X obj 181 220 xymatch 0 2;
#X obj 181 195 xymatch 0 1;
#X connect 0 0 16 0;
#X connect 7 0 1 0;
#X connect 8 0 2 0;
#X connect 9 0 3 0;
#X connect 10 0 4 0;
#X connect 11 0 5 0;
#X connect 12 0 6 0;
#X connect 13 0 0 0;
#X connect 13 1 0 1;
#X connect 14 0 0 0;
#X connect 15 0 13 0;
#X connect 16 0 21 0;
#X connect 17 0 19 0;
#X connect 19 0 18 0;
#X connect 20 0 17 0;
#X connect 21 0 20 0;
