#N canvas 150 66 886 379 10;
#X obj 138 46 inlet~;
#X obj 583 201 block~ 1024;
#X obj 340 196 table \$0-zc 1024;
#X obj 485 42 loadbang;
#X obj 485 72 f \$1;
#X obj 485 94 select 0;
#X obj 582 130 s \$0-blocksize;
#X obj 583 156 r \$0-blocksize;
#X msg 583 179 set \$1 1 1;
#X obj 341 122 r \$0-blocksize;
#X obj 341 166 s \$0-zc;
#X msg 341 145 resize \$1;
#X obj 137 218 outlet~;
#X obj 582 41 inlet;
#N canvas 0 0 545 522 count-crossings 0;
#X obj 138 54 inlet~;
#X obj 43 350 outlet~;
#X obj 139 114 purepd/sgn~;
#X obj 140 156 rzero~ 1;
#X msg 155 253 clear;
#X obj 139 283 rpole~ 1;
#X obj 155 225 bang~;
#X obj 139 310 tabsend~ \$0-zc;
#X obj 139 189 abs~;
#X connect 0 0 2 0;
#X connect 2 0 3 0;
#X connect 3 0 8 0;
#X connect 4 0 5 0;
#X connect 5 0 7 0;
#X connect 6 0 4 0;
#X connect 8 0 5 0;
#X restore 138 112 pd count-crossings;
#X text 144 158 Execution order forcing;
#N canvas 213 199 625 265 get-count 0;
#X obj 59 30 inlet~;
#X obj 61 185 outlet~;
#X obj 61 83 r \$0-blocksize;
#X obj 61 106 - 1;
#X obj 61 153 tabread~ \$0-zc;
#X obj 61 130 sig~ 1023;
#X text 194 159 last table value is sum of all previous values.;
#X connect 2 0 3 0;
#X connect 3 0 5 0;
#X connect 4 0 1 0;
#X connect 5 0 4 0;
#X restore 138 138 pd get-count;
#X connect 0 0 14 0;
#X connect 3 0 4 0;
#X connect 4 0 5 0;
#X connect 5 1 6 0;
#X connect 7 0 8 0;
#X connect 8 0 1 0;
#X connect 9 0 11 0;
#X connect 11 0 10 0;
#X connect 13 0 6 0;
#X connect 14 0 16 0;
#X connect 16 0 12 0;
