#N canvas 0 0 450 300 10;
#X obj 116 183 zeropadder~;
#X obj 115 143 osc~ 440;
#X obj 115 243 tabwrite~ scope~;
#X msg 146 215 bang;
#X obj 273 140 table scope~ 256;
#X connect 0 0 2 0;
#X connect 1 0 0 0;
#X connect 3 0 2 0;
